<?xml version="1.0" encoding="UTF-8"?>
<!-- Uploaded to: SVG Repo, www.svgrepo.com, Generator: SVG Repo Mixer Tools -->
<svg fill="#000000" width="800px" height="800px" version="1.1" viewBox="144 144 512 512" xmlns="http://www.w3.org/2000/svg">
 <g>
  <path d="m381.54 227.44c-2.1328-2.0273-4.8242-3.375-7.7227-3.875-5.6055-1.3164-11.465-1.082-16.949 0.67969-5.0938 1.5625-9.25 5.2734-11.379 10.16-1.9141 4.5039-1.5625 9.6523 0.94531 13.855 0.43359 0.75391 1.6523 0.14453 1.2148-0.61719-4.5273-7.9023 2.9727-17.043 10.34-19.434v0.003907c4.0547-1.2305 8.3359-1.5273 12.523-0.86719 1.5625 0.19531 3.0977 0.5625 4.5781 1.0977-2.2422 0.92578-3.7891 3.0117-4.0195 5.4258-0.023437 0.35156 0.16016 0.68359 0.46875 0.85156 0.3125 0.16797 0.69141 0.13672 0.96875-0.078125 1.2578-1.2734 2.7891-2.2344 4.4805-2.8125 1.0703-0.16016 2.1562-0.17969 3.2305-0.0625 0.83203 0.74609 1.4648 1.6953 1.832 2.75 0.25 0.92578 1.7617 0.94531 1.7695-0.125 0.27344-2.5391-0.55859-5.0703-2.2812-6.9531z"/>
  <path d="m390.29 247.86c-1.1797-1.5898-2.5391-3.0352-4.0547-4.3086l0.65625-0.40234 1.6016-1.0781c0.83203-0.51953-0.03125-1.8516-0.89453-1.4531l-1.6953 0.72266v-0.003907c-0.36328 0.12109-0.70313 0.30859-1 0.55469-0.75781-1.2305-0.97266-2.7188-0.58984-4.1133 0.12109-0.51953-0.58203-1.043-0.91797-0.48438-2.6484 4.3711 1.7383 9.9922 5.5742 11.961 0.76953 0.39453 1.7617-0.64453 1.3203-1.3945z"/>
  <path d="m387.67 254.48c-0.57031 0.73047-1.2852 1.332-2.0977 1.7734-0.80469 0.39453-1.7227 0.46484-2.5273 0.84375-0.22266 0.10547-0.36328 0.33203-0.35547 0.57813 0.007813 0.24609 0.16016 0.46484 0.39062 0.55859 1.082 0.26172 2.2227 0.17188 3.2539-0.25781l1.2695-0.46094c-0.42578 2.1602-0.54297 4.3633-0.34766 6.5547 0.066407 0.36328 0.36719 0.64062 0.73438 0.67578 0.37109 0.039062 0.71875-0.17188 0.85937-0.51562 0.96875-2.375 1.0312-5.0273 0.17578-7.4453l0.64453-0.44141c1.5273-1.1758-0.65625-3.4609-2-1.8633z"/>
  <path d="m380.05 244.36c-0.67188 0.20703-1.3164 0.48828-1.9219 0.84375-0.64453 0.31641-1.3398 0.51953-2.0508 0.60547-1.1406 0.15625-0.81641 1.7617 0.27344 1.7227 1.7109 0.11719 3.3984-0.4375 4.7109-1.5391 0.59766-0.66016-0.18359-1.8242-1.0117-1.6328z"/>
  <path d="m368.21 257.36c-1.3477-0.92969-2.957-1.3984-4.3164-2.3086-0.57031-0.33984-1.0586-0.80078-1.4336-1.3477-0.45312-0.74219-0.5625-3.1172 1.0391-2.0742 0.67578 0.44141 1.6758-0.48438 1.0273-1.1016-2.3945-2.2812-5.6289 0.51172-5.0898 3.3867 1.1758 3.5156 4.6055 5.7734 8.3008 5.4648 0.44141-0.082031 0.79297-0.41797 0.89453-0.85547 0.10156-0.4375-0.0625-0.89453-0.42188-1.1641z"/>
  <path d="m369.16 234.23c-0.69922-0.48047-1.6523-0.31641-2.1562 0.36719-1.4961 1.8555 0.12109 4.6523-1.6211 6.4258-1.5312 1.5586-4.4336 1.4844-6.3047 2.5195-3.4023 2.2852-4.6836 6.6758-3.0508 10.434 0.20312 0.65625 1.3477 0.32422 1.168-0.34375-0.52734-2.5 0.74219-5.0352 3.0625-6.1055 1.918-1.1016 4.207-1.207 6.1641-2.1992 1.9648-0.94922 3.3867-2.7461 3.8594-4.8789 0.80078-2.1211 0.37109-4.5117-1.1211-6.2188z"/>
  <path d="m367.61 467.29c-0.62891-4.9336-1.6562-9.8242-2.5859-14.707-0.96094-5.0391-2.3086-10.098-3.0352-15.168h-0.003906c-0.074219-0.38281-0.44141-0.64062-0.82812-0.57812-0.38672 0.0625-0.65625 0.41797-0.60547 0.80859 0.57422 4.5625 0.59766 9.2578 0.96484 13.848 0.35938 4.4727 0.71875 8.9375 1.1875 13.402v-0.003906c0.33594 2.0938 0.44531 4.2188 0.32031 6.332-0.29688 1.8906-1.0352 3.6875-2.1602 5.2383-2.2773 3.0078-4.3633 6.1641-6.2422 9.4414-4.3672 15.223-5.7188 31.16-3.9727 46.902-0.41797 4.8711-1.3984 9.6797-2.918 14.324-1.6367 4.0664-1.8945 8.5586-0.74219 12.785 0.60547 1.7148 3.2305 0.83203 2.9844-0.87891-0.26953-4.332 0.53125-8.6641 2.332-12.609 1.3906-3.7539 2.3359-7.6562 2.8164-11.629 0.43359-8.3672 0.41016-16.75-0.066407-25.113-0.46484-7.7148 1.043-15.418 4.3789-22.391 1.793-3.207 4.3672-5.8828 6.1836-9.0703v0.003906c1.8789-3.3164 2.582-7.1719 1.9922-10.938z"/>
  <path d="m376.96 569.79c-0.44531-0.03125-0.87109 0.20312-1.082 0.59375-0.21094 0.39453-0.17188 0.87891 0.10156 1.2305 1.0234 1.3711-5.4805 1.5586-6.2422 1.582-2.7891 0.18359-5.582-0.27344-8.168-1.3359-2.0664-1.0312-3.9648-2.3633-5.6445-3.9531-1.8398-1.5547-3.5781-3.2227-5.2109-4.9961-0.46484-0.53125-1.5078 0.019532-1.1133 0.68359 1.5898 3.3047 3.6484 6.3633 6.1133 9.082 2.8594 2.6406 6.5352 4.2266 10.418 4.5 2.0352 0.12891 4.0781 0.097656 6.1094-0.09375 1.875 0.11328 3.7422-0.30469 5.3906-1.2031 1.9805-1.5312 2.582-5.7344-0.67188-6.0898z"/>
  <path d="m382.27 485.15c-1.4844 4.0547-3.2461 8-4.6875 12.074-1.3516 3.8164-2.6523 7.6484-3.9531 11.488-2.6055 7.6953-5.2734 15.379-7.5703 23.176-2.4336 6.8555-3.0664 14.223-1.832 21.395 1.1758 5.3477 3.8047 12.723 9.8867 14.133 0.49609 0.11328 1.2461-0.35938 0.89062-0.94531-1.4648-2.3945-3.3047-4.5156-4.6055-7.0312-1.418-2.668-2.2578-5.6055-2.4648-8.6211-0.066406-7.0273 1.1016-14.008 3.4531-20.629 2.1992-7.1992 4.3633-14.406 6.4922-21.625 1.0664-3.6367 2.1055-7.2773 3.125-10.93 1.0938-3.9297 1.8477-7.9375 2.8984-11.879 0.28516-1.0586-1.2422-1.6797-1.6328-0.60547z"/>
  <path d="m431.55 543.65c-1.6172-0.039063-3.2344 0.13672-4.8047 0.52344-1.5625 0.12109-3.1289 0.11719-4.6914-0.007812-3.4023-0.28906-6.7891-0.76172-10.141-1.418-6.2344-1.5859-12.785-1.4336-18.941 0.4375-0.71484 0.28516-0.35156 1.332 0.37109 1.2539 6.8008-0.30469 13.609 0.42188 20.195 2.1562 3.2148 0.69531 6.4844 1.0938 9.7734 1.1914 2.6094 0.003907 6.9609 0.13672 8.9375-1.8203 0.39062-0.34375 0.54688-0.88281 0.39844-1.3828-0.15234-0.5-0.57812-0.86328-1.0977-0.93359z"/>
  <path d="m424.15 464.14c-1.3359 2.5273-2.8594 4.918-4.1328 7.4883-1.2539 2.5312-2.2969 5.1641-3.3086 7.8008-1.9766 5.1406-3.5977 10.438-5.125 15.723-1.5078 5.2227-2.8164 10.496-3.9727 15.809-0.59766 2.7578-1.1523 5.5234-1.6641 8.3008v0.003906c-0.80078 2.5977-1.0508 5.332-0.73437 8.0312 0.30078 1.1797 1.9805 1.8672 2.75 0.64453 1.1133-2.3594 1.7695-4.9062 1.9414-7.5078 0.48047-2.6484 1.0039-5.293 1.5703-7.9258 1.1758-5.4727 2.5391-10.902 4.0469-16.293 1.4531-5.1953 3.1484-10.305 4.8164-15.43 0.875-2.6836 1.8086-5.3516 2.6094-8.0625 0.80078-2.707 1.4102-5.5 2.3086-8.168 0.097656-0.30078-0.0625-0.62109-0.35547-0.73047-0.29297-0.11328-0.625 0.027343-0.75 0.31641z"/>
  <path d="m430.82 538.96c-1.5938-0.96484-3.2695-1.7773-5.0117-2.4336-1.9844-0.63281-3.9727-1.2539-5.9102-2.0195-1.8008-0.71484-3.5312-1.5859-5.2734-2.4336-1.6797-1-3.4414-1.8438-5.2734-2.5312-0.20703-0.070312-0.4375-0.015624-0.58984 0.14844-0.15234 0.16016-0.19531 0.39453-0.11328 0.59766 1.1367 3.7656 5.6094 6.1758 8.9219 7.6797 1.8945 0.85547 3.8398 1.5938 5.8281 2.2109 2.1523 0.61328 4.3789 0.92578 6.6133 0.93359 1.0586 0.042969 1.9453-1.5469 0.80859-2.1523z"/>
  <path d="m432.31 256.23c0.53125-0.74609-0.48828-1.75-1.1992-1.1172-2.6484 2.3164-4.6367 5.2891-5.7656 8.6211-0.55469 1.707 0.30078 3.1523-0.015625 4.7969l-0.23047 0.71875c-1.7539-0.64453-3.2969-1.7578-4.4609-3.2148-0.31641-0.42969-1.0625 0.015625-0.80469 0.49609 0.75 1.7109 1.9141 3.207 3.3828 4.3555l0.27344 0.1875 0.003907-0.003906c-1.1055 0.69922-2.3242 1.2031-3.5977 1.4961-0.25391 0.042969-0.42188 0.28125-0.38281 0.53125 0.039062 0.25391 0.27344 0.42969 0.52734 0.39062 1.8164-0.17969 3.5898-0.66406 5.25-1.4219 0.98047 0.42578 2.043 0.61719 3.1094 0.56641 1.1172-0.058594 1.1484-1.7148 0.20703-2.0703l-1.2695-0.46484-0.003907 0.003906c0.28516-0.54297 0.46094-1.1328 0.51562-1.7461 0.10156-1.0039-0.33594-1.9414-0.28906-2.9375v0.003907c0.14453-1.0508 0.49219-2.0586 1.0234-2.9727 1.0625-2.1758 2.3086-4.2539 3.7266-6.2188z"/>
  <path d="m432.91 289.68c-2.7188-0.35938-5.4844-0.89062-8.1875-1.3672-2.957-0.52344-6.1836-1.7031-5.8672-5.2734l-0.003906-0.003906c0.015625-0.22266-0.13672-0.42578-0.35547-0.47656-0.21875-0.050782-0.44141 0.066406-0.52734 0.27344-0.82812 2.7656 0.50391 5.7148 3.1211 6.9297 1.7891 0.86328 3.7109 1.4258 5.6836 1.6602-0.070313 2.0781 0.35938 5.8867 0.14453 8.7852-0.80469-0.80469-1.7578-1.5273-2.5195-2.2188-1.5938-1.4531-3.2539-2.8477-4.9336-4.1992-3.4531-2.7812-7.1055-5.332-10.812-7.7578v-0.003906c-7.3164-4.5781-15.012-8.5234-23.004-11.789-0.875-0.37891-1.3203 0.94531-0.50391 1.3594v0.003906c7.5312 4.043 14.762 8.6172 21.641 13.688 3.332 2.3594 6.5508 4.8594 9.7227 7.4297 1.6758 1.3594 3.3398 2.7344 4.9922 4.1211l0.003906 0.003906c1.1562 1.1562 2.4141 2.2148 3.7539 3.1562-0.25781 0.074218-0.53516 0.085937-0.80078 0.035156-0.27344-0.050781-3.2109-0.75391-4.3672-1.168h0.003906c-3.0859-1.1055-6.2305-2.0352-9.418-2.7812-3.0273-0.71094-6.1328-1.1836-9.1992-1.8047h-0.003907c-2.8398-3.7266-6.0664-7.1484-9.6211-10.199l-5.1133-4.6094c-1.9648-1.7617-4.1562-3.3125-5.9805-5.2227-0.47266-0.49219-1.2969 0.16797-0.82812 0.67578 1.6719 1.8047 2.9727 3.9102 4.4922 5.8438s3.0547 3.8477 4.5898 5.7656c1.4727 1.8438 3.043 3.7383 4.7031 5.543l-0.1875-0.074219h-0.007812c-5.1562-3.0664-9.9609-6.6836-14.332-10.793-5.4961-3.8555-11.148-7.5352-16.887-11.008-1.5391-0.78125-2.9648-1.7734-4.2266-2.9453-1.0234-1.375-1.6992-2.9727-1.9805-4.6641-0.33594-2.2266-1.9492-4.0469-4.1172-4.6523-0.40234-0.074219-0.65625 0.5625-0.28516 0.76562 2.7695 1.5273 2.5 4.8945 3.3594 7.5391h-0.003907c0.87109 2.2109 2.4219 4.0898 4.4297 5.3633 5.3945 4.0391 11.016 7.7344 16.574 11.535v-0.003906c2.5586 1.7109 4.9805 3.6211 7.2422 5.707 2.0352 2.0742 4.3477 3.8594 6.8711 5.3008 2.8516 1.4258 5.8867 2.4609 9.0156 3.0742 0.31641 0.19922 0.6875 0.27734 1.0508 0.22656 1.9375 0.40234 3.8906 0.74219 5.8203 1.1094h0.003906c3.6211 0.6875 7.1992 1.6094 10.703 2.7617 1.7969 0.59375 3.5625 1.2578 5.3203 1.957h-0.003906c1.5547 0.80859 3.2383 1.332 4.9766 1.5508 0.46484 0.03125 0.91016-0.21094 1.1328-0.625 0.21875-0.41406 0.17969-0.91797-0.10938-1.2891-0.34766-0.39844-0.73828-0.75781-1.1641-1.0703 1.418-0.70703 2.3945-2.0781 2.5938-3.6523 0.17188-1.8242 0.14844-3.6602-0.078124-5.4766 0-1.707-0.12891-3.4141-0.39063-5.1055 1.3086 0.050781 2.6211-0.011719 3.9219-0.17969 0.42969-0.078125 0.73437-0.46094 0.72266-0.89453-0.011719-0.4375-0.33984-0.79688-0.76953-0.85547z"/>
  <path d="m418.09 324.73c-3.6016-5.5078-10.867-5.6797-16.277-8.5156h0.003906c-6.5273-4.1602-12.707-8.832-18.488-13.977-3.0156-2.3164-6.1836-4.4336-9.4805-6.332-3.293-1.7695-6.4688-3.7539-9.5039-5.9375-6.043-4.5234-11.621-9.6367-16.66-15.258-0.53516-0.59766-1.4805 0.1875-0.95703 0.80469v-0.003907c4.4453 5.9688 9.418 11.523 14.859 16.602 5.8164 4.8086 12.855 7.8086 18.961 12.219 6.1484 4.4414 11.48 10.141 17.953 14.121h-0.003906c0.92969 0.5625 1.8945 1.0664 2.8906 1.5-1.5586 1.8203-3.0078 3.7305-4.3359 5.7227-1.4805 1.6562-2.668 3.5547-3.5117 5.6094-0.41797 1.8398-0.25391 3.7617 0.46484 5.5039 1.1758 3.2109 3.4102 5.9297 6.332 7.707 2.1953 1.4297 4.7422 2.2188 7.3594 2.2812-0.78906 4.125-1.9609 8.168-3.4961 12.078-1.3984 3.3125-3.8203 5.8125-5.4883 8.9336l-0.11719 0.23438c-4.1016-3.0078-8.1836-6.0508-12.055-9.3516v0.003906c-4.4102-3.918-8.5352-8.1367-12.352-12.633-3.0078-3.9766-7.2148-6.875-12-8.2734-1.9062-0.37109-3.8789-0.26953-5.7383 0.28906 0.52344-0.96875 0.8125-2.043 0.85156-3.1406 0.21484-3.4102 0.1875-6.8516 0.21484-10.27 0.027344-3.4336-0.042969-6.8672-0.10938-10.301-0.070312-3.5977-0.78516-7.1992-0.78516-10.781 0-0.78906-1.207-0.94141-1.2422-0.125-0.14844 3.1172-0.91797 6.2266-1.1836 9.3477s-0.44922 6.2734-0.59766 9.4062c-0.14453 3.0078-0.22266 6.0156-0.27734 9.0273-0.027344 1.4648-0.10547 2.9375-0.0625 4.4023 0.035156 1.0977 0.50391 2.9336-0.10156 3.9922h-0.003906c-0.74219 0.50781-1.4102 1.125-1.9766 1.8281-0.35156 0.44531 0.28516 0.99219 0.71094 0.66016v0.003907c3.7344-2.4414 8.5664-2.4141 12.277 0.066406 4.0859 2.6953 7.6055 6.1602 10.359 10.207 6.7578 7.6719 14.445 14.469 22.891 20.227-0.10156 1.7422 0.23438 3.4805 0.97656 5.0547 0.19141 0.40234 0.60156 0.65234 1.0469 0.64062 0.44531-0.015625 0.83984-0.28906 1.0039-0.70312 0.66016-1.7109 0.64844-3.5273 1.3555-5.2461v0.003907c0.69531-1.5742 1.582-3.0547 2.6367-4.4102 2.0781-2.7773 3.7461-5.8398 4.957-9.0938 3.0703-7.2227 3.9375-15.191 2.4844-22.902-0.18359-0.69531-1.2695-0.98438-1.5273-0.15234-0.69922 2.2656-1.25 4.5664-1.7617 6.875h-0.003906c-1.7266-0.17188-3.418-0.60547-5.0156-1.2812-2.1172-1.043-3.8594-2.7148-4.9922-4.7852-0.59766-1.0156-0.95312-2.1562-1.043-3.332-0.003906-1.5703 1.3359-2.9883 2.1406-4.2578 0.86328-1.3672 1.7422-2.7266 2.5977-4.1016 0.25-0.40625 1.2656-2.6602 2.0547-3.793v-0.003906c4.3203 1.168 8.4609 2.9219 12.301 5.2188 1.0859 0.76562 2.1016-0.63672 1.4648-1.6094z"/>
  <path d="m350.13 390.88c-1-5.3125-2.4297-10.531-3.5352-15.82-2.5508-9.793-2.3086-20.102 0.69141-29.766 0.19531-0.54688-0.63672-1.043-0.9375-0.49609-4.0664 8.8281-5.1406 18.746-3.0508 28.242 0.80078 5.3828 1.957 10.715 3.0273 16.047 0.54297 2.707 0.98047 5.4219 1.3984 8.1484 0.21875 2.8594 0.58984 5.7031 1.1055 8.5234 0.25 0.95312 1.8047 1.3984 2.1328 0.21484 0.80859-5.0352 0.52344-10.18-0.83203-15.094z"/>
  <path d="m446.15 364.82c0.27734-4.2109 0.86719-8.3984 1.7578-12.523 0.80078-4.457 1.7773-8.8594 2.8359-13.266v0.003906c0.125-0.41016-0.089844-0.84375-0.49219-0.99219-0.39844-0.14844-0.84375 0.039062-1.0156 0.42969-2.8984 6.0859-5.0742 12.492-6.4766 19.082-1.1133 6.7344-0.91016 13.617 0.58984 20.27 2.4609 11.438 8.4766 27.602-1.8594 37.059-4.0625 3.7773-10.156 4.3516-14.852 1.3945 2.543-1.3984 4.6602-3.4648 6.1133-5.9766 1.457-2.5117 2.1953-5.375 2.1367-8.2773-0.13281-0.69922-0.71094-1.2266-1.418-1.2969-0.70703-0.070312-1.3789 0.33203-1.6484 0.98828-1.1797 2.8867-2.7539 5.5977-4.6797 8.0508-2.0469 2.1758-4.5586 3.8594-7.3438 4.9336-6.5 2.2852-13.672 1.6562-19.676-1.7227-12.711-8.9688-22.852-21.109-29.41-35.215-4.4609-7.1758-10.262-13.43-17.082-18.414-0.75-0.52734-1.5039 0.57812-0.8125 1.1484 3.3203 2.8242 6.2656 6.0664 8.7578 9.6406 0.41406 1.4805 0.59766 3.0117 0.54688 4.5469 0.085938 1.6758 0.11328 3.3672 0.13672 5.043 0.046875 3.5547 0 7.1094 0.007812 10.664h-0.003906c-0.10547 7.2266-0.61328 14.441-1.5234 21.609-0.074219 0.66016 0.98047 0.94531 1.1641 0.26953 1.9766-7.5742 3.3477-15.293 4.1016-23.086 0.38672-3.8047 0.52344-7.6328 0.40625-11.457l-0.007812-0.125 1.9062 3.2461c4 7.5625 8.4648 14.871 13.371 21.879 3.168 4.2031 6.9297 7.9258 11.168 11.043-0.57422 2.418-0.90234 4.8828-0.98437 7.3672-0.23047 2.7852-0.48047 5.5664-0.74219 8.3477-0.53516 5.6953-1.1797 11.379-1.9297 17.047-0.73828 5.5391-1.5859 11.059-2.543 16.562-0.5 2.875-1.0781 5.75-1.3164 8.6602-0.23828 2.9102-0.097657 5.8359-0.32813 8.7422v0.003906c-0.023437 0.33594 0.19922 0.63672 0.52734 0.71484 0.32812 0.074218 0.66406-0.097656 0.78906-0.41016 0.98047-2.7188 2.2578-5.3281 3.125-8.0938 0.79297-2.7422 1.4102-5.5312 1.8477-8.3516 0.99609-5.6328 1.8711-11.281 2.625-16.953l0.14844-1.1367 0.63281 1.7773v-0.003906c1.6484 3.918 2.6328 8.082 2.9102 12.324-0.33203 4.0156-1.4883 7.9219-3.3906 11.473-3.1836 15.016-4.082 30.426-2.6602 45.707-0.58984 4.1836-1.5156 8.3125-2.7695 12.348-1.4961 3.6797-1.1445 7.8555 0.95312 11.23 0.54688 0.67578 1.9141 0.19141 1.6562-0.74219-0.5625-3.8086 0.18359-7.6953 2.1094-11.023 1.2773-3.4375 2.0977-7.0273 2.4414-10.676 0.45703-7.457 0.35938-14.938-0.28906-22.379-0.67187-7.4844 0.32031-15.027 2.9062-22.086 1.7031-3.4023 3.0039-6.9922 3.875-10.695 0.46875-3.9219 0.011719-7.8984-1.3242-11.613-1.6016-5.0742-4.25-9.875-5.9297-14.895 0.24219-2.2148 0.46875-4.4375 0.67969-6.6562 0.26953-2.9141 0.5-5.832 0.68359-8.7539 0.10547-1.668 0.26953-3.5117 0.21484-5.2969h-0.003906c6.8125 4.3008 15.129 5.5195 22.887 3.3516 0 2.8672 0.30469 5.7227 0.91016 8.5273 0.57031 3.7539 1.1523 7.5039 1.7617 11.25 0.61328 3.7461 1.2344 7.4922 1.9766 11.215l0.003907-0.003906c1.0312 3.3906 1.1211 7 0.25781 10.438-0.16797 0.5 0.050781 1.0508 0.51953 1.3008 0.46875 0.24609 1.0469 0.11719 1.3672-0.30859 1.8828-2.7344 2.6797-6.0742 2.2383-9.3672-0.25781-4.0117-0.94922-8.0117-1.5742-11.973-0.65234-4.1523-1.3281-8.3008-2.0234-12.445l-0.003906-0.003907c-0.29297-3.3711-1.043-6.6875-2.2305-9.8594l0.97656-0.48047v0.003906c3.6172 3.8594 9.168 5.2188 14.16 3.4648 5.668-2.0273 10.055-6.6094 11.828-12.363 5.1953-14.762-4.1406-29.391-3.668-44.234z"/>
  <path d="m441.82 332.19c-3.5547 9.2383-7.0391 18.508-10.348 27.84v-0.003906c-1.5195 3.9648-2.5273 8.1055-3.0039 12.324-0.80078 4.1914 0.25781 8.5273 2.8984 11.879 1.3789 1.2422 3.0586-0.4375 3.0039-1.8633-0.074219-1.9219-1.0273-3.7422-1.2891-5.6602-0.24219-1.8828-0.27344-3.7852-0.09375-5.6719 0.48047-4.1367 1.3398-8.2148 2.5625-12.195 2.418-8.7656 4.8828-17.512 7.1836-26.305 0.082031-0.25-0.046875-0.51562-0.29297-0.60938s-0.51953 0.023437-0.62109 0.26562z"/>
  <path d="m346.48 282.54c-4.1328 0.95312-7.9062 3.0586-10.883 6.0781-2.9805 3.0156-5.0391 6.8203-5.9375 10.961-1.6367 10.066-1.1641 20.363 1.3906 30.234 2.543 10.633 3.5039 21.578 2.8516 32.488-0.56641 5.1641-1.4883 10.305-1.543 15.512 0.11328 5.5781 0.65234 11.137 1.6133 16.633 0.88672 6.1875 1.7812 12.371 2.6836 18.555l0.47266 3.043c-0.25781 0.61719-0.40234 1.3008-0.70703 1.9375v-0.003906c-0.63281 1.2812-1.5391 2.4062-2.6523 3.2969-2.4688 2.0508-5.2188 3.7422-8.1602 5.0273-0.51172 0.21484-0.28125 1.082 0.28125 0.95312 3.8711-0.30859 7.5781-1.6758 10.723-3.957 0.52734-0.48828 1.0234-1.0117 1.4805-1.5664l0.15625 0.91797h0.003906c0.35156 3.0977 0.89844 6.1719 1.6367 9.2031 0.42969 1.4141 2.793 0.97266 2.8242-0.45312-0.042969-2.5781-0.28516-5.1523-0.71484-7.6953-0.34766-2.6992-0.53516-5.4141-0.86328-8.1133-0.62109-5.125-1.3203-10.242-1.9961-15.363-0.70703-5.3594-1.5391-10.723-2.0234-16.105h-0.003907c-0.39062-5.1953-0.21094-10.414 0.53516-15.566 0.76562-5 1.1523-10.051 1.1602-15.109-0.16797-4.9531-0.69141-9.8906-1.5625-14.773-2.2734-9.918-3.668-20.02-4.1641-30.188-0.058593-5.0938 1.0117-10.141 3.1328-14.773 1.9336-4.6133 5.7461-8.1836 10.48-9.8047 0.85938-0.21484 0.64844-1.582-0.21484-1.3672z"/>
  <path d="m362.3 422.36c-1.7852-0.32812-1.707-3.6367-2.4023-4.9805-0.64063-1.1719-1.5117-2.1992-2.5703-3.0195-2.2344-1.8047-5.2969-2.7188-6.6406-5.4258-0.10938-0.23047-0.375-0.34766-0.62109-0.27734-0.25 0.074219-0.40625 0.31641-0.375 0.57422 0.375 3.6328 3.7031 5.5508 5.9648 7.9883 1.5898 1.7148 1.3672 3.7852 2.4375 5.7305 0.77734 1.7539 2.8242 2.5508 4.582 1.7812 0.5-0.23828 0.78516-0.77734 0.69922-1.3242-0.089844-0.55078-0.52344-0.97656-1.0742-1.0469z"/>
  <path d="m356.17 429.87c-0.11719-3.0234-0.40234-6.0391-0.84375-9.0312-0.074219-0.46875-0.86328-0.62109-0.98828-0.10156-0.66406 2.7734-1.082 5.6094-1.4805 8.4336-0.73828 2.7383-0.72266 5.625 0.042969 8.3555 0.21484 0.46094 0.65625 0.77734 1.1641 0.82812 0.50391 0.050782 1-0.17187 1.3008-0.58203 0.98828-2.5117 1.2656-5.2461 0.80469-7.9023z"/>
  <path d="m352.04 438.29c-1.0664-2.0938-2.0078-4.25-2.8203-6.4531-0.65625-2.3047-0.79688-4.7266-0.41016-7.0938 0.17969-0.93359-1.2891-1.0742-1.4688-0.14844-1.5625 5.1367-0.66406 10.703 2.4297 15.086 0.4375 0.49219 1.1602 0.60156 1.7227 0.25781 0.55859-0.34375 0.78906-1.0391 0.54688-1.6484z"/>
  <path d="m339.25 433.94c-2.2305-1.2773-4.6602-2.1719-7.1875-2.6367-2.4531-0.68359-4.9414-1.1445-7.418-1.7148-0.66797-0.15234-0.83594 0.875-0.26172 1.1211 2.3945 1.0234 4.7344 2.1406 7.1836 3.0391 2.2109 1.0469 4.5781 1.7227 7.0117 1.9961 0.44141 0.03125 0.85547-0.23438 1.0117-0.64844 0.15625-0.41797 0.015624-0.89062-0.33984-1.1562z"/>
  <path d="m365.93 427.56c-0.13281-0.6875-0.74609-1.1797-1.4453-1.1602-0.69922 0.019531-1.2852 0.54688-1.375 1.2383-0.003906 1.2227-0.32812 2.4219-0.94141 3.4766-0.69531 1.1484-1.8516 1.9414-3.1719 2.1797-0.77344 0.03125-0.57812 1.2227 0.1875 1.1914v-0.003906c1.8203 0.12891 3.6094-0.51953 4.9297-1.7812 1.4336-1.2969 2.1172-3.2305 1.8164-5.1406z"/>
  <path d="m347.57 253.58c-2.0664 2.2734-3.6211 4.9609-4.5586 7.8828-0.40625 3.1289 0.089844 6.3086 1.4258 9.1641 0.22266 0.78516 1.4844 0.61719 1.2773-0.20312v0.003907c-0.55859-1.6094-0.71094-3.332-0.44141-5.0156 0.44141-1.1445 0.94141-2.2617 1.5039-3.3555 1.2734-2.3203 2.2188-4.8125 2.7969-7.3984 0.14844-0.97656-1.2617-1.8672-2.0039-1.0781z"/>
  <path d="m384.38 266.41c-1.7305 0.28516-3.4844 0.42578-5.2383 0.42188-1.8867 0.15625-3.7891 0.015625-5.6328-0.41797-3.5352-0.76562-6.8359-2.3711-9.625-4.6797-0.51172-0.45312-1.1484 0.33984-0.78516 0.83984 2.332 3.4453 5.8672 5.8906 9.9102 6.8594 1.1875 0.28125 2.3984 0.45703 3.6133 0.52344-0.79688 2.9609-0.8125 6.0781-0.042969 9.0469 0.058594 0.3125 0.35547 0.52344 0.67188 0.47266 0.31641-0.046875 0.53516-0.33984 0.49609-0.65625-0.25391-1.9062 0.007812-3.8477 0.75-5.6211 0.46875-1.1172 1.0625-2.168 1.4375-3.3047v-0.003906c0.61328-0.050781 1.2227-0.16797 1.8125-0.35156 1.0625-0.48828 2.082-1.0586 3.0547-1.707 0.71484-0.35938 0.44141-1.6641-0.42188-1.4219z"/>
  <path d="m474.67 277.15c-0.83984-8.9297-4.6602-17.312-10.848-23.805-3.8008-3.1602-8.5078-5.0312-13.441-5.3398-5.7266-0.20312-11.414 0.96484-16.598 3.4062-0.42969 0.20703-0.64453 0.69141-0.51172 1.1484 0.13672 0.45312 0.57812 0.74219 1.0508 0.68359 9.0234-2.7266 18.805-1.1016 26.465 4.3906 5.4336 6.4023 8.6211 14.406 9.0781 22.793 2.4258 18.031-0.75 36.375-9.0977 52.543-2.5977 4.2852-4.668 8.8672-6.1758 13.648-1.4961 4.5039-0.50391 9.4609 2.6055 13.043 0.86719 0.82812 2.9141 0.41016 2.4883-1.1133-1.2656-4.207-1.1719-8.7109 0.26953-12.859 1.8945-4.418 4.0312-8.7266 6.4102-12.902 4.2578-8.6289 7.1641-17.863 8.6055-27.375 1.418-9.375 1.3164-18.918-0.30078-28.262z"/>
  <path d="m421.08 278.87c-0.66406-0.16016-1.2383-0.57422-1.6016-1.1523-0.25-0.51172-1.1328-0.30859-0.99609 0.29297 0.17578 1.168 1.1172 2.0703 2.2891 2.1992 0.33984 0.023438 0.64844-0.20312 0.72656-0.53906 0.074218-0.33203-0.10156-0.67188-0.41797-0.80078z"/>
  <path d="m443.95 293.53c-2.043-2.8516-3.4531-6.1055-4.1484-9.543 0.38672-3.0898 1.1289-6.125 2.2188-9.043 0.40234-2.9336-0.46094-5.8984-2.3672-8.1641-1.7852-2.3047-5.9453-5.2969-4.8789-8.5703 0.09375-0.28516-0.03125-0.59766-0.29688-0.74219-0.26953-0.14062-0.59766-0.066406-0.78125 0.17578-1.6289 2.168-1.9219 5.0586-0.75781 7.5078 1.1367 2.625 4.1484 5.0234 4.1328 8.0195v0.003906c-0.61719 2.9844-1.4023 5.9336-2.3516 8.8281-0.20703 3.5742 0.6875 7.1289 2.5625 10.18 1.9141 2.918 3.3672 6.1172 4.3047 9.4805 0.63672 3.0078 0.44141 6.1328-0.57031 9.0352-2.2227 6.0391-9.0391 9.9062-8.918 16.879 0.019532 1.1484 1.6992 1.3906 1.8242 0.18359 0.41406-4.0273 3.3672-6.2227 6.0156-8.8828v-0.003906c2.1992-2.082 3.9766-4.5664 5.2305-7.3242 2.4844-5.8555 2.0312-12.547-1.2188-18.02z"/>
  <path d="m454.42 297.63c-1.4727-2.7891-2.75-5.6758-3.8242-8.6445-0.29297-3.3516 0.28906-6.7227 1.6875-9.7812 1.2891-5.6484-0.35156-11.566-4.3633-15.746-0.21875-0.22266-0.57422-0.24219-0.81641-0.042969-0.24219 0.19531-0.29297 0.54688-0.11719 0.80469 1.7266 2.8711 2.4766 6.2227 2.1289 9.5547-0.58203 2.9531-1.4805 5.8359-2.6914 8.5898-1.0273 3.0117-1.0273 6.2773-0.003906 9.2891 1 2.9727 2.7188 5.6328 3.8516 8.5508h0.003907c2.5703 5.6602 2.3359 12.199-0.63672 17.656-2.9609 4.7305-7.3672 10.371-3.5312 15.922v-0.003906c0.375 0.43359 0.98828 0.57031 1.5117 0.33594 0.51953-0.23438 0.82812-0.78516 0.75391-1.3516-0.32812-3.2656 0.75391-6.5156 2.9766-8.9297 1.9961-2.5 3.5547-5.3203 4.6172-8.3398 1.5078-5.957 0.96484-12.25-1.5469-17.863z"/>
  <path d="m464.45 279.62c-0.88281-5.6172-3.0781-10.945-6.4141-15.547-0.61328-0.70703-1.6523-0.86719-2.4492-0.37891-0.80078 0.49219-1.125 1.4922-0.76953 2.3594 1.9688 4.9023 3.6523 9.918 5.0312 15.02 1.1445 5.1133 1.7109 10.332 1.6992 15.57-0.36328 11.551-2.0312 23.023-4.9727 34.199-0.15234 0.62109 0.74219 0.99609 0.96094 0.35547 4.3789-11.289 7.0742-23.164 7.9961-35.242 0.30469-5.4688-0.058594-10.957-1.082-16.336z"/>
 </g>
</svg>