<?xml version="1.0" encoding="UTF-8"?>
<!-- Uploaded to: ICON Repo, www.iconrepo.com, Generator: ICON Repo Mixer Tools -->
<svg fill="#000000" width="800px" height="800px" version="1.1" viewBox="144 144 512 512" xmlns="http://www.w3.org/2000/svg">
 <g>
  <path d="m311.69 329.73c-1.6172 1.0781-3.5469 1.5117-5.1836 2.6836v-0.003907c-1.4688 1.0977-2.7891 2.3789-3.9258 3.8125-2.4062 2.9062-4.0898 6.3398-4.9102 10.023-0.83984 3.6406-0.5625 7.4531 0.79297 10.938 0.76953 1.7656 1.7148 3.4531 2.8242 5.0312 0.86719 1.7695 2.082 3.3438 3.5781 4.625 0.32422 0.22266 0.74219 0.25781 1.1016 0.09375s0.60547-0.50391 0.65234-0.89453c0.38672-3.0547-2.5781-6.2422-3.875-8.8359-1.5312-3.0547-2.043-6.5234-1.4531-9.8945 0.625-3.3125 2.0586-6.418 4.168-9.0469 0.94922-1.2344 2.0156-2.3672 3.0547-3.5273v0.003907c1.1094-1.5469 2.3984-2.9531 3.8398-4.1953 0.55859-0.375-0.10937-1.1836-0.66406-0.8125z"/>
  <path d="m308.66 374.3c0.48047-0.48047 0.85547-1.0547 1.0977-1.6875 0.67188-2.3945 0.67578-4.9297 0.015625-7.332 0.62109 0.27344 1.3047 0.35547 1.9727 0.24219 0.57422-0.10938 1.0312-0.54688 1.1641-1.1172 0.13672-0.57031-0.082031-1.168-0.54688-1.5195-1.1484-1.0547-2.3398-1.4023-2.9844-2.9844-0.46875-1.4023-0.59375-2.8945-0.36328-4.3516l0.72656 0.14062c0.625 0.46875 1.543-0.46094 0.95703-1.0273-0.98828-0.96094-1.5781-1.7461-3.0156-1.9141-0.71094-0.066406-1.3828 0.35156-1.6367 1.0195-0.84375 2.6367-0.72266 5.4844 0.34766 8.0352 0.45312 0.92969 1.0742 1.7656 1.832 2.4688l-0.75391 4.1406c-0.32422 1.7305-0.64062 3.9258-2.707 4.332h-0.003907c-1.3125-0.25-2.6562-0.27344-3.9766-0.074219-4.6484 1.0117-8.2656 4.668-9.2305 9.3281-0.082031 0.22266 0.03125 0.47266 0.25391 0.55469 0.22266 0.085937 0.47266-0.027344 0.55469-0.25391 1.668-3.3516 4.9883-5.5625 8.7227-5.8125 3.707-0.24609 7.332 1.1328 9.9336 3.7812 0.33594 0.38281 0.89453 0.46875 1.3281 0.20312 0.42969-0.26562 0.60938-0.80469 0.41797-1.2734-0.85156-2.0039-2.2812-3.7109-4.1055-4.8984z"/>
  <path d="m290.5 385.59c-2.0977 2.9375-3.9688 6.0273-5.6016 9.2461-1.7031 2.9297-3.2031 5.9766-4.4883 9.1172-2.4805 6.8164-4.1172 13.914-4.8672 21.133-0.39844 3.6641-1.0664 7.2891-2.0039 10.855-1.0156 3.5-2.5195 6.832-3.8633 10.211-2.5625 6.6406-4.3516 13.555-5.3398 20.602-0.60938 4.0234-1.0859 8.082-1.418 12.137-0.30078 3.6875 0.33984 8.8359-3.5703 10.824h-0.003906c-0.34375 0.16406-0.55859 0.51562-0.54688 0.89844 0.011719 0.38281 0.24609 0.72266 0.60156 0.86328 7.2188 2.3867 7.4648-9.5586 7.8828-13.738v0.003906c0.60156-7.7969 1.9219-15.523 3.9453-23.078 2.1055-7.2188 5.7539-13.863 7.293-21.258 0.98437-7.8164 2.3633-15.574 4.1367-23.25 1.2461-3.9453 2.7695-7.7969 4.2031-11.676 1.5195-4.1172 3.6289-8.0312 4.8672-12.242h-0.003907c0.10938-0.32422-0.03125-0.68359-0.33594-0.84375-0.30469-0.16016-0.67969-0.078126-0.88672 0.19531z"/>
  <path d="m253.27 495.01c-2.7305-0.61719-5.5117-0.99609-8.3125-1.1367-2.6562 0.26953-5.1406 1.457-7.7656 1.8477-0.24219 0.042969-0.4375 0.23047-0.49219 0.47266-0.058594 0.23828 0.035156 0.49219 0.23047 0.64062 2.3984 1.7422 4.8477 0.75 7.5195 0.32812 1.6562-0.11328 3.3203 0.046875 4.9258 0.46875 1.4297 0.24219 2.9023 0.0625 4.2305-0.51562 0.44922-0.21094 0.69922-0.69141 0.62109-1.1797-0.074219-0.48438-0.46484-0.86328-0.95703-0.92578z"/>
  <path d="m253.05 490.54c-2.9766-1.4727-6.3398-1.9766-9.6211-1.4453-3.5352 0.44922-6.957 1.5312-10.109 3.1914-0.23047 0.10938-0.35938 0.35547-0.32031 0.60938 0.039063 0.25 0.24219 0.44531 0.49219 0.48047 3.0078 0.10156 6.0117-0.23047 8.9258-0.98438 1.6211-0.19141 3.2617-0.22266 4.8906-0.085938 1.6094 0.28125 3.2383 0.47266 4.8711 0.57031 1.1602-0.03125 2.0742-1.5625 0.87109-2.3359z"/>
  <path d="m258.51 486.94c-1.5938-1.75-3.6641-2.9922-5.957-3.5703-2.4492-0.23047-4.9141 0.29687-7.0547 1.5117-0.4375 0.25781-0.58594 1.0625 0.039062 1.2266 1.7305 0.30078 3.4922 0.35156 5.2383 0.15234 2.3281-0.035156 4.3594 1.6641 6.6133 2.25 0.83203 0.21484 1.918-0.80469 1.1211-1.5703z"/>
  <path d="m425.36 482.32c-6.3203-0.6875-12.707-0.53125-18.992 0.46094-6.1914 0.73438-12.34 1.7891-18.422 3.1562-6.0859 1.4609-12.121 3.125-18.18 4.6953h-0.003906c-6.1094 1.8086-12.414 2.8828-18.781 3.1914-4.9258 0.44141-9.875-0.52344-14.277-2.7734-4.4062-2.25-8.082-5.6992-10.609-9.9492-2.2812-4.9883-2.1836-10.719-4.4102-15.742-2.1484-4.4492-4.9258-8.5703-8.2383-12.234-3.8516-4.1367-7.3633-8.582-10.496-13.285-1.9297-2.7969-3.0078-6.0898-3.1172-9.4844 0.0625-1.8711 0.37891-3.7266 0.9375-5.5156 0.76562-1.2266 1.5273-2.4414 2.207-3.668 2.8164-4.0352 4.9453-8.5078 6.3008-13.238 0.039062-0.47266-0.20703-0.92578-0.625-1.1484-0.41797-0.22656-0.92969-0.17969-1.3047 0.11328-2.6289 3.1445-4.7109 6.7109-6.1562 10.547-1.832 3.7695-3.5781 7.5781-5.2617 11.418l0.003906 0.003906c-1.8789 3.4102-3.4023 7.0039-4.5469 10.727-0.6875 3.7812-1.6406 7.5117-2.8516 11.16-2.7148 6.8203-5.8945 13.441-9.5234 19.824-1.7266 3.2734-3.3711 6.6055-4.8359 10.004-1.4297 3.3281-2.4453 6.8281-3.9062 10.137-3.7773 8.5781-15.141 8.1797-22.945 8.8359-0.25391 0.046875-0.44531 0.25391-0.46875 0.50781-0.027344 0.25781 0.12109 0.49609 0.35547 0.58984 3.8906 1.3242 8.0117 1.8125 12.102 1.4336 3.4258-0.41797 6.6758-1.7383 9.418-3.8281 2.543-2.6523 4.3633-5.9141 5.2773-9.4727 1.4922-3.5586 3.2031-7.0195 5.1211-10.367 3.7969-6.8438 7.8281-13.574 11.055-20.719 1.6094-3.4883 2.9297-7.1055 3.9375-10.816 1.0117-3.8281 1.168-7.6602 1.8359-11.523 1.1836 5.5469 3.832 10.676 7.6758 14.852 3.3867 4.2031 7.2031 8.0547 10.324 12.473l-0.003906-0.003906c1.4453 2.0547 2.6641 4.2617 3.6289 6.5781 1.0508 2.9883 1.8711 6.0508 2.4648 9.1641 1.3711 5.0352 4.168 9.5664 8.0547 13.055 3.8867 3.4844 8.6992 5.7734 13.855 6.5938 13.18 1.2188 26.469-0.59375 38.844-5.3008 7.3555-1.9258 14.73-3.9062 22.184-5.4062 7.4258-1.3164 14.914-2.2461 22.438-2.7891 1.3242-0.12109 1.1875-2.0938-0.0625-2.2539z"/>
  <path d="m502.55 493.89c-3.4258-0.042969-6.8516 0.19922-10.234 0.72266-3.4531 0.36328-6.9219 0.53125-10.395 0.50781-6.7305-0.125-13.445 0.30078-20.164-0.375-5.7383-0.58984-11.391-1.8359-16.844-3.7148-2.5703-0.88281-5.0469-1.9883-7.5703-2.9883-2.8867-1.0273-5.5977-2.4961-8.0352-4.3594-0.28906-0.24219-0.73047 0.21875-0.45703 0.49219 2.1484 2.1523 4.082 4.4023 6.418 6.3789h-0.003907c2.2578 1.832 4.7617 3.332 7.4375 4.4609 5.582 2.3906 11.5 3.9023 17.543 4.4766 6.9727 0.86719 14.027 0.76172 20.973-0.30859 3.5586-0.60938 7.1172-1.2812 10.688-1.8125 1.9297-0.28906 3.8555-0.57422 5.7891-0.82422v-0.003906c1.7305-0.21094 3.4375-0.59375 5.0938-1.1406 0.76953-0.25391 0.51172-1.457-0.23828-1.5117z"/>
  <path d="m363.08 480.25c-0.17578-2.2617-2.2852-4.2812-3.4844-6.1328v-0.003906c-1.2539-2.2773-2.7031-4.4453-4.3359-6.4688-0.17187-0.19922-0.44922-0.25781-0.68359-0.15234-0.23828 0.10547-0.375 0.35156-0.34375 0.60938 0.62891 2.4844 1.5781 4.875 2.8281 7.1133 0.98828 2.0781 1.8086 5.125 3.8398 6.3906v-0.003906c0.45703 0.30469 1.0547 0.31641 1.5234 0.023438 0.46875-0.28906 0.72656-0.82812 0.65625-1.375z"/>
  <path d="m364.52 471.46c-0.98047-2.4727-2.5977-4.6406-4.6836-6.2852-0.20312-0.12891-0.46094-0.13281-0.66406-0.007813-0.19922 0.12891-0.3125 0.35938-0.28516 0.59766 0.51953 2.4609 1.4414 4.8203 2.7344 6.9805 0.63672 2.5078 1.7578 4.8711 3.3008 6.9531 0.32422 0.37109 0.83594 0.51953 1.3125 0.375 0.47266-0.14453 0.81641-0.55078 0.88281-1.0391-0.082031-2.7305-0.98438-5.3711-2.5977-7.5742z"/>
  <path d="m367.35 466.21c-1.0352-2.2109-2.8164-3.9805-5.0312-5-0.69531-0.30469-1.6367 0.57422-1.2031 1.2773 1.1797 1.7344 2.2422 3.5469 3.1875 5.4258 0.52344 1.9414 1.2422 3.8242 2.1445 5.6211 0.25781 0.30078 0.65625 0.44531 1.0469 0.37891 0.39062-0.0625 0.71875-0.32812 0.86328-0.69531 0.76953-2.3672 0.39453-4.957-1.0078-7.0078z"/>
  <path d="m369.56 456.48c-3.4648-1.4375-7.1094-2.3867-10.836-2.8242-1.4727-0.30469-2.5312-0.66016-3.0508-2.1836v0.003906c-0.5-1.707-0.79297-3.4688-0.87891-5.2461-0.33203-3.7734-0.13281-7.5664-0.28906-11.348v0.003906c-0.23437-3.7461-0.70312-7.4688-1.4062-11.156-1.8359-14.723-2.1406-29.598-0.91797-44.387 0.15234-3.9688 0.35156-7.9336 0.70703-11.895 0.17969-2.0234 0.45703-4.0273 0.79688-6.0273 0.22656-2.1797 0.65234-4.3359 1.2695-6.4375 0.12891-0.38672-0.074219-0.80469-0.45312-0.94531-0.38281-0.14062-0.80859 0.042969-0.96094 0.41797-0.69141 1.7852-1.6484 3.4492-2.3477 5.2266l-0.003906 0.003906c-0.64453 1.7812-1.168 3.6016-1.5586 5.457-0.89062 3.7656-1.4805 7.5938-1.7656 11.449-0.60547 8.0625-0.62891 16.176-0.80469 24.254-0.16016 8.0273 0.41016 16.055 1.7031 23.98 0.71875 4.1758 1.1484 8.3945 1.2852 12.625-0.089843 3.9727 0.11719 7.9414 0.61719 11.883 0.60547 3.5391 1.8008 7.0469 5.5859 8.1445v-0.003906c4.207 1.3555 8.6367 1.8945 13.051 1.5781 1.4648-0.17969 1.332-2.0156 0.25781-2.5742z"/>
  <path d="m353.88 473.2c-1.1562-2.3281-2.3906-4.6133-3.6016-6.9141-1.0117-1.8555-1.9219-3.7656-2.7188-5.7227-0.78906-2.2891-1.3594-4.6445-1.707-7.0391-1.1797-4.4805-2.793-8.832-4.8203-13-1.7969-4.4141-3.207-8.9805-4.207-13.641-2.0078-9.6328-1.1914-19.457-2.6484-29.152-1.5117-9.9492-1.9023-20.039-1.1641-30.074 0.38672-5.3359 0.58984-10.852 1.4297-16.133v-0.003906c1.0469-4.6484 4.3086-8.4844 8.7266-10.266 0.64453-0.35547 0.43359-1.5156-0.39062-1.3281-1.1172 0.25781-2.2109 0.61719-3.2617 1.0703-0.21094-1.7695-0.71875-3.4883-1.5117-5.082-0.87891-2.082-2.582-3.7109-4.707-4.4922-0.23828-0.082031-0.50391 0.003906-0.65234 0.21094-0.14453 0.20703-0.14062 0.48438 0.015625 0.68359 1.1758 1.7578 2.082 3.6836 2.6875 5.7148l0.21875 0.89453v-0.003906c-1.6367-0.89453-3.3594-1.6289-5.1445-2.1836-4.5352-1.4219-8.668-3.8945-12.062-7.2227-3.4961-4.0898-5.4453-9.2773-5.5039-14.656-0.47656-2.6055-0.23438-5.2891 0.69531-7.7695 0.92969-2.4766 2.5117-4.6562 4.582-6.3086 0.63672-0.39453-0.10937-1.2891-0.73828-0.90234l0.003907 0.003906c-4.3555 2.5625-7.457 6.8086-8.5781 11.734-0.875 4.5508-0.41797 9.2578 1.3086 13.559 1.7305 4.3008 4.6562 8.0117 8.4375 10.691-0.67969 0.40625-1.3359 0.89453-2.0469 1.293h0.003907c-2.1914 1.0898-4.2539 2.4141-6.1523 3.9531-1.4258 1.1094-2.5195 2.5859-3.168 4.2734-0.31641 2.0352-0.1875 4.1133 0.37891 6.0938 0.13672 1.0938 1.7617 0.8125 1.6758-0.26562l0.003907 0.003906c-0.21484-1.8164 0.32422-3.6367 1.4883-5.043 1.1172-0.98828 2.332-1.8516 3.6289-2.5781 2.5234-1.7891 4.4219-4.8203 7.4492-5.625l1.6133 0.86719v0.003906c2.2734 1.1016 4.6289 2.0273 7.0469 2.7578 1.1719 0.35156 2.3164 0.77734 3.4336 1.2695 0.4375 0.21875 0.85938 0.47266 1.2539 0.76172-0.48047 0.39062-0.93359 0.80859-1.3633 1.2539-1.8555-0.14844-3.6992 0.39063-5.1875 1.5078-0.20312 0.17578-0.29688 0.44141-0.25391 0.70703 0.042968 0.26172 0.22266 0.48438 0.46875 0.58594 0.85938 0.35547 1.7891 0.51172 2.7188 0.45703-1.1758 3.2109-1.8242 6.5859-1.918 10.004-0.52344 4.918-0.96484 9.8711-1.1836 14.828v-0.003906c-1.8281-0.46484-3.6172-1.0625-5.3594-1.7891-2.6836-0.83203-5.0547-2.4609-6.8008-4.668-0.41016-0.71484-1.5938-0.21875-1.1914 0.52734 1.0469 2.668 2.7695 5.0195 5 6.8242 2.5469 1.5078 5.3242 2.5859 8.2266 3.1836-0.097656 4.4844 0.082031 8.9688 0.53516 13.43 0.54687 5.1641 1.6445 10.258 1.9609 15.449 0.32422 5.2891 0.12109 10.574 0.78906 15.848 0.64062 4.9648 1.7578 9.8594 3.3438 14.609 1.6289 4.9219 4.332 9.3594 6.0977 14.219 0.96875 2.6719 1.2148 5.4727 1.9414 8.2031l-0.003906 0.003906c0.67578 2.4336 1.5859 4.793 2.7266 7.043 1.2891 2.625 2.6445 5.2344 4.0586 7.793 1.0664 2.707 2.7031 5.1562 4.7969 7.1719 0.38281 0.25 0.87109 0.25781 1.2578 0.015625 0.38672-0.23828 0.59766-0.67969 0.53906-1.1289-0.34375-2.3281-1.1953-4.5469-2.4961-6.5078z"/>
  <path d="m339.64 461.84c-0.12891-0.43359-0.44141-0.79297-0.85547-0.98438-0.41016-0.19531-0.88672-0.20312-1.3047-0.023438-0.67188 0.32031-1.2773 0.76953-1.7773 1.3203-0.5625 0.45312-1.0664 0.96875-1.5078 1.5352-0.88672 1.1836 0.89844 2.3633 1.8398 1.3008v0.003907c0.27734-0.35156 0.61719-0.64453 1.0078-0.86328 0.4375-0.11328 0.88281-0.19922 1.3281-0.26562 0.44922-0.078125 0.84375-0.34375 1.0859-0.73047 0.24219-0.38281 0.30859-0.85547 0.18359-1.293z"/>
  <path d="m555.78 486.73c-3.4219-0.94922-7.0586-1.1797-10.551-1.8398l-1.3828-0.27734c1.3242-2.1289 2.1875-4.5156 2.5234-7 0.37891-4.7031 1.3672-9.3359 2.9414-13.781 0.28906-0.58984-0.46875-1.2578-1.0312-0.96875-3.2227 1.6641-3.8516 5.6719-4.5781 8.9023-0.51172 2.2656-1.1602 4.5039-1.8594 6.7227v-0.003906c-0.26953 1.0547-0.61719 2.0859-1.0391 3.0898-0.32031 0.76562-0.76172 1.4766-1.3086 2.1016-1.9297-0.44922-3.8477-0.9375-5.7578-1.457-4.4453-1.2031-8.8516-2.5469-13.223-3.9922l1.7461-0.32422 0.003906 0.003906c3.5781-0.84375 7.0078-2.2188 10.18-4.082 3.0234-1.7734 5.7539-4.0117 8.0859-6.6328 1.1797-1.3242 2.1914-2.8086 3.4531-4.0586 1.2969-1.0508 2.6875-1.9766 4.1602-2.7578 0.36719-0.30859 0.54297-0.78906 0.46484-1.2617-0.078125-0.47266-0.40234-0.87109-0.84766-1.043-3.0547-1.1094-5.6719 1.4727-7.5742 3.5938h-0.003906c-2.2969 2.8438-4.9375 5.4023-7.8594 7.6055-3.0352 2.0352-6.3594 3.6094-9.8555 4.6719-2.5234 0.79688-5.1406 1.6602-7.7656 2.3086l-2.5312-0.89844c-6.9492-2.4961-13.832-5.1836-20.715-7.8516-5.9453-2.2188-11.77-4.75-17.449-7.582-6.6094-3.1211-12.52-7.5547-17.371-13.031-0.44141-0.55078-1.1914 0.11328-0.82812 0.67969 3.3633 5.375 7.8555 9.9531 13.16 13.426 5.5078 3.4531 11.348 6.3555 17.426 8.668 14.246 6.0547 28.848 11.23 43.73 15.492 4.1055 1.0977 8.2461 2.0547 12.418 2.8789 4.2305 1.0742 8.5742 1.6406 12.941 1.6914 0.6875-0.125 1.207-0.6875 1.2734-1.3828 0.070313-0.69531-0.32812-1.3516-0.97656-1.6094z"/>
  <path d="m548.93 490.28c-5.6992 1.2109-11.543 1.5703-17.344 1.0625-5.8672 1.2734-11.816 2.1523-17.805 2.625-2.7109-0.23047-5.2148-1.5469-6.9414-3.6484-1.8711-2.1758-4.2188-3.8906-6.8594-5.0117-5.293-1.5625-10.672-2.8047-16.113-3.7227-11.344-2.9102-22.191-7.4844-32.191-13.578-5-3.043-9.5039-6.8711-14.52-9.8555-5.0664-2.793-10.863-3.9688-16.617-3.3672-7.0195 0.39844-13.926 1.5078-20.977 1.543-7.1797 0.21094-14.363-0.1875-21.477-1.1992-0.30859-0.019531-0.58984 0.1875-0.66016 0.48828s0.089844 0.60938 0.37891 0.72656c6.1406 2.0977 12.484 3.543 18.922 4.3203 6.4766 0.50781 12.98 0.38281 19.43-0.37891 5.8398-1.2148 11.91-0.63281 17.41 1.6719 2.5156 1.5234 4.9336 3.1992 7.2383 5.0234 2.5664 1.8398 5.2031 3.5898 7.9141 5.207h-0.003906c10.223 6.1016 21.25 10.73 32.758 13.754 5.6719 1.0117 11.289 2.3086 16.828 3.8906 2.543 1.1367 4.8164 2.8008 6.668 4.8828 1.8789 1.7461 4.2188 2.9219 6.7461 3.3789 6.8086 0.039062 13.594-0.76953 20.203-2.4102 6.3242 0.94141 12.781-0.11328 18.48-3.0078 1.3438-1.0117-0.03125-2.8984-1.4688-2.3945z"/>
  <path d="m428.7 466.17c-1.2109 0.042969-2.1094 0.95703-3.1172 1.5156h-0.003906c-1.082 0.76953-2.3828 1.1641-3.7109 1.1289-0.67188-0.054688-0.97266 0.99219-0.27734 1.1914 2.6406 0.76172 8.0195 1.4414 8.5742-2.4492h0.003907c0.03125-0.39063-0.11719-0.77344-0.40234-1.0469-0.28516-0.26953-0.67969-0.39453-1.0664-0.33984z"/>
  <path d="m519.88 470.18c-2.0664-0.95703-4.082-2.0312-6.0312-3.2109-2.1016-1.0977-4.1562-2.2578-6.2266-3.418-3.8281-2.1484-7.6094-4.3672-11.266-6.7969-7.2891-4.8398-13.711-10.754-20.68-16.016h-0.003906c-7.0234-5.3281-15.023-9.2344-23.543-11.512-8.9219-2.3477-17.965-4.2227-27.086-5.6094-5.3906-0.85547-10.789-1.5898-16.227-2.0586-5.4805-0.47266-10.934-0.19141-16.398-0.49609-0.46484-0.027344-0.53906 0.6875-0.070312 0.71875 4.7148 0.34375 9.5 1.4336 14.168 2.2344 4.7148 0.80859 9.4375 1.5547 14.141 2.418 9.3281 1.707 18.68 3.6289 27.852 6.0391 8.6016 2.0742 16.719 5.7891 23.918 10.934 6.9297 5.0898 13.234 10.957 20.359 15.797l-0.003906-0.003907c3.9805 2.7031 8.1445 5.125 12.465 7.2461 2.2383 1.1016 4.5898 2.0078 6.9258 2.8867 2.3633 0.89062 4.8516 1.2656 7.2422 2.1172h-0.003906c0.35156 0.12891 0.73828-0.050781 0.87109-0.40234 0.12891-0.34766-0.050782-0.73828-0.40234-0.86719z"/>
  <path d="m566.02 477.97c-2.4297 0.10156-4.8633 0.058594-7.2852-0.125 1.8789-4.2461 3.082-8.7617 3.5586-13.383 0.29297-2.6562 1.375-8.8516-2.3125-9.8125-3.4375-0.89453-6.6836 4.0664-8.0781 6.5v0.003906c-0.11328 0.17188-0.066407 0.40234 0.10156 0.51953 0.16797 0.12109 0.39844 0.085938 0.52734-0.074219 0.92188-1.2461 2.1445-2.2422 3.5508-2.8906 0.62109-0.35547 1.3086-0.58203 2.0195-0.66406 1.0156 0.10547 0.80078 0.52734 0.80469 1.4805-0.027344 2.9805-0.37891 5.9453-1.0469 8.8477-0.62109 2.8672-1.5586 5.6523-2.7969 8.3086-1.2656 2.0469-2.8281 3.8984-4.6367 5.4844-0.23047 0.33203-0.29688 0.75-0.17578 1.1367 0.11719 0.38281 0.41016 0.69141 0.78516 0.83594 2.2305 0.39844 4.4727-0.64062 5.6016-2.6055 3.3906-0.046875 6.7109-0.9375 9.6719-2.5898 0.22266-0.10937 0.33594-0.36719 0.26562-0.60937-0.070312-0.23828-0.30469-0.39453-0.55469-0.36328z"/>
  <path d="m565.95 480.83c-1.2656 0.88672-2.4805 1.8398-3.6367 2.8594-1.2891 0.94922-2.6641 1.8789-4.0234 2.7266-0.88281 0.55078-0.12109 1.9336 0.79688 1.7812 3.7031-0.46484 6.793-3.0508 7.9062-6.6094 0.023437-0.26562-0.09375-0.51953-0.30859-0.67578-0.21094-0.15625-0.49219-0.18359-0.73438-0.082031z"/>
  <path d="m377.82 364.57c-1.9805-3.5391-5.7852-6.0977-6.9531-10.055-0.13281-0.27734-0.42969-0.4375-0.73438-0.38672-0.30469 0.046876-0.53906 0.28906-0.57422 0.59375 0.17578 2.8242 1.0742 5.5547 2.6016 7.9336 2.0039 2.5508 3.0117 5.7422 2.8359 8.9805-0.40625 3.4531-2.4453 6.5-5.4844 8.1836-2.3672 1.0273-8.8789 2.1797-10.539-0.48047-0.35938-0.57422-1.2188 0.023438-0.98438 0.60547h0.003907c1.7266 3.2383 5.3477 4.9961 8.9648 4.3516 4.4844-0.074219 8.5273-2.7188 10.391-6.8008 2.2969-3.9609 2.4766-8.8086 0.47266-12.926z"/>
  <path d="m363.77 344.04c-1.0508-2.043-2.375-3.9336-3.9375-5.6211-1.4844-1.9688-2.8672-4.0195-4.1367-6.1367-3.0391-3.9453-4.7773-8.7344-4.9766-13.707 0.023438-0.28906-0.19141-0.54687-0.48047-0.57422-0.28906-0.027344-0.55078 0.17969-0.58594 0.46875-0.80078 5.1328 0.074219 10.383 2.4961 14.98 1.293 2.3359 2.7422 4.5781 4.3359 6.7188 1.3555 2.3398 3.3281 4.2578 5.7031 5.5508 0.47266 0.16406 0.99219 0.035156 1.3359-0.32812 0.33984-0.36328 0.4375-0.89453 0.24609-1.3516z"/>
  <path d="m449.48 442.1c-4.9766-3.5625-10.355-6.5234-16.023-8.8203-5.8203-2.1289-11.773-3.8594-17.828-5.1797-6.25-1.418-12.574-2.4922-18.918-3.3984-2.082-0.29688-4.168-0.60547-6.2617-0.87109h0.003906c-0.32031-1.457-0.73438-2.8945-1.2344-4.3008-0.51562-1.7852-0.98047-3.5859-1.3516-5.4023h-0.003906c-0.875-4.0664-1.0352-8.2578-0.46875-12.379 0.71094-3.7891 0.99219-7.6484 0.84375-11.5-0.29297-3.3945-0.77734-6.7734-1.4414-10.113 0.98828-0.39844 1.8984-0.96875 2.6836-1.6914 1.7773-1.5586 3.0469-3.6133 3.6484-5.9023 1.0977-5.0508-0.625-10.305-4.5-13.727-1.9258-1.625-3.9414-3.1289-6.0469-4.5156-2.3164-1.7148-4.1211-4.0312-5.207-6.7031-0.89062-2.3281-2.3945-4.375-4.3516-5.9219-2.0391-1.1094-4.3945-1.5-6.6836-1.1094-0.54297 0.039062-0.48438 0.86719 0.027344 0.92578 2.2305 0.47656 4.2148 1.7383 5.5938 3.5547 1.2188 1.8398 2.168 3.8438 2.8164 5.9531 1.9336 3.5664 4.8359 6.5156 8.3711 8.5039 3.7031 2.0078 6.1484 5.7383 6.5117 9.9297-0.27734 4.1641-3.2422 7.6562-7.3047 8.6094-1.2812 0.45313-0.69531 2.125 0.375 2.3516 0.55469 0.11719 1.1172 0.17578 1.6797 0.17578-0.44531 3.0117-0.48047 6.0664-0.097656 9.0859 0.03125 4.3086-0.375 8.6133-1.2031 12.844-0.49609 4.1016-0.30469 8.2539 0.56641 12.289 0.41797 2.082 0.96875 4.1328 1.5586 6.1719l0.66016 2.3672c-2.2227-0.20312-4.4531-0.29297-6.6836-0.26562-2.9805 0.011718-5.9414 0.51172-8.7617 1.4766-1.3672 0.45703-2.6875 1.043-3.9453 1.7539-1.2969 0.85547-2.4648 1.8906-3.4688 3.0781-0.375 0.38672-0.023437 1.1875 0.54297 0.88672v-0.003906c6.1562-2.625 12.922-3.4766 19.535-2.457 7.3906 0.62891 14.773 1.6445 22.082 2.9141 7.4648 1.2734 14.84 3.0273 22.082 5.25 3.5703 1.1094 7.082 2.3789 10.586 3.6797 3.6211 1.3398 7.293 2.3594 10.812 3.9961 0.89844 0.41406 1.6172-0.98828 0.80469-1.5352z"/>
  <path d="m380.96 410.23c-0.28906-2.4102-0.375-4.875-0.72266-7.2695-0.050782-0.28906-0.28906-0.50781-0.58203-0.53906-0.28906-0.027344-0.56641 0.14062-0.67188 0.41406-1.582 4.4844-3.0625 11.035 1.0391 14.602 0.32031 0.27734 0.73828-0.03125 0.80469-0.36719 0.40234-2.2617 0.44531-4.5664 0.13281-6.8398z"/>
  <path d="m323.2 349.55c-0.98828-0.16406-2-0.12891-2.9727 0.10938-0.96094 0.046875-1.9062 0.003906-2.8672 0.066406-0.15625 0.027344-0.28516 0.13281-0.33984 0.28125-0.058594 0.14453-0.03125 0.3125 0.066406 0.4375 1.3516 1.7617 5.043 2.6797 6.6367 0.79688 0.19531-0.28516 0.25-0.64453 0.14844-0.97266s-0.34766-0.59375-0.67188-0.71875z"/>
  <path d="m324.65 345.4c-1.5742-0.45703-3.2422-0.47266-4.8242-0.039063-1.4531 0.35938-2.8008 1.0586-3.9336 2.043-0.33203 0.25 0.015625 0.83594 0.38672 0.63281 1.4805-0.82031 3.5586 0.13672 5.1172 0.21875h0.003907c1.375 0.22656 2.7773-0.23828 3.75-1.2344 0.1875-0.27344 0.24219-0.61719 0.14453-0.93359-0.097657-0.31641-0.33594-0.57031-0.64453-0.6875z"/>
  <path d="m329.01 329.58c-0.65625-1.0039-1.6211-1.7656-2.7461-2.1797-0.67188-0.11719-1.3477-0.18359-2.0312-0.19922-0.47266 0.011719-0.94531-0.0625-1.3906-0.22656-0.46484-0.15625-0.85156-0.49609-1.0664-0.94141-0.21484-0.44531-0.24219-0.95703-0.070313-1.4219 0.42188 0.27734 0.96484 0.28516 1.3945 0.015625 0.42578-0.26562 0.66406-0.75391 0.60156-1.2578-0.10547-1.2422-0.33203-2.4727-0.67578-3.6758 0.18359 0.32422 0.53906 0.50781 0.91016 0.46875 1.3789-0.082031 2.668-0.72266 3.5664-1.7734 0.67578-0.76172 1.8008-2.4414 1.1914-3.4805v-0.003906c-0.17578-0.35938-0.59766-0.52344-0.96875-0.37109-0.81641 0.33984-1.2578 1.5195-1.8945 2.1289-0.71875 0.69531-1.5273 1.293-2.4062 1.7734-0.32422 0.15234-0.52734 0.48438-0.51172 0.84375-0.30859-1.0977-0.66406-2.1797-0.98828-3.2695l0.36719-0.50781c0.76953-0.78906 1.4141-1.6914 1.9102-2.6719 0.0625-0.1875 0.039062-0.39453-0.0625-0.55859-0.10547-0.16797-0.28125-0.28125-0.47656-0.30469-0.91016-0.066406-1.8125 0.20703-2.5312 0.76953l-0.12891-0.92969c-0.45312-3.543 0.60938-7.1133 2.9297-9.832 0.23828-0.20703 0.26953-0.5625 0.070312-0.80859-0.20312-0.24219-0.55859-0.28516-0.80859-0.089843-3.4688 2.0195-5.7539 5.5859-6.1406 9.582 0.03125 4.1602 1.168 8.2383 3.2969 11.812-1.3828 0.99219-1.8164 2.8516-1.0234 4.3555 0.72266 1.4258 1.8945 2.5742 3.332 3.2656 0.76953 0.35547 1.6055 0.55469 2.4531 0.58984 0.88281 0.054687 2.5-0.54688 3.2461-0.18359 0.53125 0.25391 1.0078-0.49609 0.65234-0.91797z"/>
  <path d="m344.88 321.11c-3.5234-2.2656-4.8086 4.9805-5.8984 6.7969-0.29688 0.49609 0.42188 1.0234 0.74219 0.52734 1-1.3398 2.1172-2.5898 3.3398-3.7305 0.85938-0.91406 1.8672-1.6289 2.1328-2.8906h0.003906c0.03125-0.27734-0.09375-0.54688-0.32031-0.70312z"/>
  <path d="m345.85 311.86c-0.61719-2.2461-1.6875-4.3438-3.1445-6.1641l-1.2305-1.3047-0.41406-0.39062 0.003906 0.003906c-1.1562-1.0703-2.4023-2.0312-3.7305-2.875-1.8828-1.2266-3.9258-2.1875-6.0703-2.8633-2.3789-0.44922-4.8047-0.63281-7.2266-0.54688-0.30078-0.019531-0.56641 0.20312-0.59766 0.50391-0.027344 0.30078 0.1875 0.57031 0.48438 0.60938 2.1875 0.48828 4.2891 1.2852 6.25 2.3672 1.0195 0.42969 2.0156 0.91016 2.9844 1.4414l-0.18359 0.15234c-0.96484 0.87109-1.7031 1.9648-2.1562 3.1836-0.074218 0.23047 0.007813 0.48047 0.20703 0.62109 0.19531 0.14062 0.46094 0.14062 0.65234-0.007812 0.88281-0.54688 1.6211-1.2734 2.5469-1.7617 0.45313-0.23828 0.97266-0.41016 1.4297-0.65625 0.85156 0.58984 1.6992 1.2383 2.5391 1.9297v0.003907c-1.2773 1.2891-2.6367 2.4961-4.0703 3.6094-0.17969 0.15625-0.23438 0.41406-0.13672 0.62891 0.097657 0.21875 0.32422 0.34766 0.5625 0.31641 2.082-0.38281 3.9688-1.4688 5.3516-3.0742 1.6992 1.5508 3.2852 3.2266 4.7305 5.0156 0.53516 0.67578 1.4688-0.003906 1.2188-0.74219z"/>
  <path d="m366.56 337.28c-4.0664-5.1055-7.3164-10.812-9.6289-16.914-1.2305-3.0508-2.8867-5.9102-4.9258-8.4883-2.0586-2.418-5.3125-4.6172-6.2344-7.7461-0.16797-0.56641-1.1484-0.28125-0.99609 0.29297 0.90625 3.082 2.4375 5.9414 4.4961 8.4023 2.1602 3.0312 3.8672 6.3633 5.0664 9.8867 1.0977 3.3047 2.4766 6.5039 4.1172 9.5742 0.82031 1.5078 1.875 2.8828 3.1172 4.0742 1.1953 1 2.5938 1.7383 4.0977 2.1602 0.33594 0.11719 0.70312-0.003906 0.91016-0.28906 0.20312-0.28516 0.19531-0.67578-0.019531-0.95312z"/>
  <path d="m340.64 313.89c-0.44531 0.17188-0.92969 0.26562-1.3633 0.46484-0.50391 0.26562-0.94531 0.63281-1.3008 1.0781-0.69922 0.69922-1.2188 1.5625-1.5117 2.5078-0.10938 0.33203-0.019532 0.69922 0.23438 0.9375 0.25391 0.23828 0.625 0.30859 0.94922 0.17578 0.83203-0.42578 1.6016-0.97266 2.2812-1.6172 0.38281-0.30469 0.72266-0.65625 1.0156-1.0469 0.27344-0.40234 0.42188-0.87891 0.69141-1.2852 0.19922-0.30078 0.17969-0.69531-0.046875-0.97656-0.23047-0.27734-0.61328-0.375-0.94922-0.23828z"/>
 </g>
</svg>