<?xml version="1.0" encoding="UTF-8"?>
<!-- Uploaded to: SVG Repo, www.svgrepo.com, Generator: SVG Repo Mixer Tools -->
<svg fill="#000000" width="800px" height="800px" version="1.1" viewBox="144 144 512 512" xmlns="http://www.w3.org/2000/svg">
 <g>
  <path d="m344.11 375.46c0.86328-3.3242 2.3008-6.4688 4.2539-9.293 0.4375-0.51172-0.42188-1.1172-0.85547-0.60547l-0.003906 0.003906c-2.3203 2.293-4.3477 4.8672-6.0391 7.6602-1.3438 2.7461-2.3477 5.6445-2.9883 8.6328-1.4297 7.1914-1.6289 14.574-0.59766 21.836-2.3672-0.24609-4.8047-0.23828-7.1562-0.37109-3.2734-0.18359-6.5469-0.38281-9.8203-0.54297v0.003906c-2.9688-0.035156-5.9375-0.27734-8.875-0.72656-2.6875-0.64453-5.2578-1.7188-7.6055-3.1797-0.32812-0.17969-0.86328 0.023438-0.75391 0.47266 1.3555 5.8594 9.1289 6.8633 14.062 7.3125 3.7188 0.33984 7.4375 0.62891 11.16 0.92969 3.1484 0.25 6.3711 0.70703 9.5508 0.72266 0.69141 5.5586 1.4844 11.105 2.2656 16.652-0.9375-0.44141-1.8984-0.83984-2.8203-1.2344l-0.003906-0.003906c-2.8125-1.2305-5.7109-2.2617-8.668-3.0898-2.6953-0.74609-5.4531-1.2539-8.2383-1.5117-3.125-0.27344-6.1172-0.09375-9.2344-0.12109v0.003906c-0.35938-0.019531-0.66797 0.24609-0.70312 0.60156-0.035156 0.35937 0.21484 0.67969 0.57031 0.73437 5.6484 0.90234 11.199 2.3516 16.574 4.3203 2.5078 0.80469 4.9844 1.6758 7.4062 2.7148 1.9414 0.83203 3.8398 1.9727 5.8359 2.7148 0.39844 2.793 0.80469 5.5742 1.2617 8.3398l0.003906-0.003906c-1.2773-0.80469-2.6133-1.5156-3.9922-2.1289-3.8477-1.6367-7.8555-2.8672-11.961-3.6758-8.0742-1.8711-16.043-3.9336-19.633-12.203-0.26562-0.55469-0.89453-0.83203-1.4805-0.66016-0.58984 0.17578-0.96484 0.75-0.88672 1.3594 1.3984 7.6875 8.9961 12.047 15.688 14.57 4.207 1.5859 8.6758 2.3281 12.926 3.7891h-0.003906c2.0195 0.66016 3.9648 1.5352 5.793 2.6133 1.4531 1.1992 3.0547 2.2031 4.7617 2.9922 0.47266 2.3477 0.98828 4.6875 1.5859 7.0273 0.35938 1.4102 2.8281 1.6367 2.7852-0.078125v-0.003907c-0.88281-15.133-2.5938-30.211-5.1289-45.156-1.2266-7.3594-1.5625-14.84-1.0039-22.277 0.3125-3.1133 0.97266-6.1797 1.9688-9.1406z"/>
  <path d="m303.44 417.78c-3.2422-2.1328-7.3828-2.3594-10.836-0.59375-4.1289-0.62109-8.332-0.57422-12.445 0.13672-4.5781 0.23047-9.0898 1.1836-13.367 2.832-0.25781 0.12109-0.40234 0.39453-0.35547 0.67188 0.042969 0.28125 0.26562 0.49609 0.54688 0.53125 4.3789 0.43359 8.8867-0.17969 13.289-0.11719 1.7695 0.023437 3.543 0.066406 5.3164 0.12109-2.4961 1.9141-5.1797 3.5742-8.0039 4.957-4.7344 1.3164-9.1953 3.4766-13.168 6.3711-3.1641 2.5156-4.7031 6.5586-4.0117 10.543 0.058594 0.32422 0.34766 0.55859 0.67969 0.54688 0.33203-0.007812 0.60547-0.25781 0.64844-0.58594 1.1719-8.9531 12.332-10.098 18.953-13.074 7.2031-3.2383 13.145-11.555 21.816-9.8203 1.375 0.28125 2.0547-1.7891 0.9375-2.5195z"/>
  <path d="m360.04 471.68c-2.2734-0.33594-4.5078-0.16016-6.7695-0.69141-2.1758-0.5-4.3047-1.1875-6.3594-2.0586-4.207-1.8945-8.1562-4.3164-11.75-7.2031-6.7031-5.9648-13.906-11.348-21.527-16.082-7.3555-3.9336-15.539-6.0664-23.879-6.2266-8.2578-0.50391-16.516 1.0234-24.043 4.4531-0.34766 0.16797-0.52344 0.55859-0.41406 0.92578s0.46875 0.60156 0.84766 0.55469c4.1953-0.70312 8.2305-1.8047 12.5-2.1328 4.3672-0.26562 8.75 0.003906 13.051 0.80078 8.2266 1.3359 16.098 4.3281 23.133 8.8008 7.5508 4.9023 13.793 11.523 21.289 16.504 3.7031 2.5508 7.8047 4.4648 12.137 5.6602 4.0039 1.2891 8.3086 1.3047 12.32 0.042969 0.70703-0.33984 1.1094-1.1016 0.98438-1.875-0.125-0.77344-0.74219-1.375-1.5195-1.4727z"/>
  <path d="m299.89 395.5c-3.3711-1.5781-7.375-0.74219-9.8242 2.0586-1.3516 1.3242-2.7734 2.5742-4.2617 3.7422-1.8867 1.1758-3.9297 2.0781-6.0664 2.6875-3.6172 0.84375-7.0742 2.2539-10.25 4.1797-2.5469 1.9766-4.2773 4.8203-4.8633 7.9883-0.12109 0.58984 0.76953 0.73828 0.98828 0.23047 1.5664-2.7148 4.1133-4.7227 7.1172-5.6094 2.9805-1.1836 6.0273-2.1836 9.1289-2.9922 3.0352-0.86719 5.8633-2.3438 8.3086-4.3398 2.707-2.3398 4.5625-4.8047 8.4531-4.5547 0.83203 0.0625 1.6094-0.4375 1.9023-1.2188 0.29297-0.78516 0.035157-1.668-0.63281-2.1719z"/>
  <path d="m360.81 346.79c-4.6992 0.89453-4.332 6.4258-4.9609 10.055-0.082031 1.4844-0.78125 2.8672-1.9258 3.8164-1.1875 0.83594-1.8242 0.34766-2.9492-0.36328-1.3711-0.86719-2.8594-1.9922-4.4883-1.1484-0.30859 0.14844-0.50391 0.46875-0.49219 0.8125 0.011718 0.34375 0.22266 0.64844 0.54297 0.77734 3.5352 1.2656 7.4375 5.7148 11.023 2.1953h0.003906c1.5547-1.668 2.3125-3.9258 2.0742-6.1953-0.20703-3.0859-1.2383-6.5664 1.7227-8.7148 0.23438-0.20703 0.30859-0.53906 0.17969-0.82422-0.125-0.28125-0.42187-0.44922-0.73047-0.41016z"/>
  <path d="m395.88 416.15c-1.6211-4.7148-4.2539-9.0195-7.7148-12.609-3.668-4.2422-7.4453-8.3984-11.176-12.59s-7.4453-8.4023-11.277-12.508c-1.8711-2.0078-3.6836-4.1016-5.707-5.957-2.375-2.1797-5.1211-4.0078-7.375-6.3125-0.57031-0.58203-1.5273 0.16016-0.99609 0.81641 1.8125 2.2461 3.2031 4.8477 4.8203 7.2305l-0.003907 0.007813c1.5938 2.2109 3.3047 4.332 5.125 6.3633 3.7266 4.4062 7.5664 8.7109 11.395 13.031 3.6367 4.0977 7.3047 8.1641 10.895 12.301v-0.003906c3.1797 3.9766 6.5742 7.7734 10.172 11.375 0.38672 0.26562 0.89453 0.27344 1.293 0.027344 0.39844-0.25 0.61328-0.70703 0.55078-1.1719z"/>
  <path d="m403.09 478.77c-1.2344-4.4414-4.5117-8.0273-8.8242-9.6562-4.6445-1.4297-9.0508-3.5352-13.082-6.2461-1.5781-1.5469-2.8047-3.418-3.5859-5.4844l-0.41016-1.1094c0.34375-1.5781 0.59375-3.1797 0.80078-4.7852 0.83203 1.5391 1.8555 2.9648 3.0391 4.2539 1.4805 1.5938 3.1797 2.9688 5.0508 4.082 1.6289 0.98047 4.1758 1.6875 5.2891 3.25 0.29688 0.34766 0.77734 0.48828 1.2188 0.35547 0.44141-0.13281 0.76172-0.51563 0.81641-0.97266 0.34766-4.5312-4.0664-5.8672-7.0352-8.1367-2.3672-1.9297-4.4609-4.1758-6.2188-6.6758 1.293 1.043 2.6367 2.0156 4.0273 2.918 3.625 1.8438 7.1602 3.875 10.582 6.0781-0.12891 2.0664 0.058593 4.1367 0.55469 6.1484 0.83203 2.9648 2.9805 6.2695 6.4297 5.9258l0.003906-0.003906c0.35547-0.0625 0.65234-0.30859 0.78125-0.64453 0.12891-0.33984 0.070312-0.72266-0.15234-1.0039-1.1094-1.2773-1.9102-2.7891-2.3477-4.4258-0.23047-1.875-0.26562-3.7734-0.097656-5.6602 0.14453-4.2539 0.25-8.5156 0.14844-12.77-0.10156-4.0938-0.61719-8.1133-1.1172-12.172v0.003906c-0.23438-4.0391-1-8.0273-2.2891-11.863-0.097656-0.20703-0.32031-0.32422-0.54297-0.28516-0.22656 0.035156-0.40234 0.21484-0.42969 0.44141-0.35938 2.3633-0.48047 4.7578-0.37109 7.1445l-0.71484-0.39453c-1.75-0.92188-3.7695-1.207-5.707-0.80859-0.62891 0.089843-0.80078 1.1211-0.12891 1.293v-0.003906c1.5898 0.46484 3.1016 1.168 4.4805 2.0898 0.79688 0.60938 1.5312 1.2969 2.1914 2.0508 0.019531 0.94141 0.019531 1.875-0.011719 2.8047-0.17188 4.9297-0.17188 9.8594-0.25391 14.793-0.023438 1.4648-0.15234 3.0039-0.26562 4.5664h-0.003906c-0.47266-0.70313-1-1.3672-1.5742-1.9883-1.5898-1.6836-3.4688-3.1445-5.2188-4.6602-1.7773-1.5391-3.5977-3.0234-5.3281-4.6133h0.003906c-1.0039-1.0781-2.207-1.9414-3.5469-2.5469l1.2383-11.5 0.93359-0.53516 0.66797-0.33594c-0.11328 1.3359-0.042969 2.6797 0.20703 3.9961 0.14453 0.74609 0.80469 1.2773 1.5625 1.2539 0.75781-0.019531 1.3906-0.58984 1.4883-1.3398 0.26563-3.9805-0.019531-7.9766-0.83984-11.879-0.058594-0.79688-1.3242-0.74219-1.3828 0.039062-0.11719 1.6094-0.41016 3.2227-0.66016 4.8359h-0.003906c-0.51953-0.019531-1.0391 0.003906-1.5508 0.074219 0.35156-3.2227 0.71875-6.4492 1.0195-9.6758h-0.003906c0.52344-3.3438 0.55078-6.7422 0.074218-10.094-0.13672-0.72266-0.73438-1.2656-1.4648-1.3398-0.73047-0.074219-1.4219 0.34375-1.6992 1.0234-1.0898 2.8672-1.7461 5.8789-1.957 8.9375-0.39844 3.1875-0.72656 6.3828-1.0703 9.5742l-2.1172 19.637h0.003907c-0.39062 5.1641-1.1367 10.293-2.2266 15.355-0.48438 2.2812-1.1289 4.5234-1.9219 6.7109-1.0898 2.1875-2.4727 4.2148-4.1133 6.0273-0.20312 0.30469-0.18359 0.71094 0.046875 0.99609 0.23438 0.28516 0.625 0.38281 0.96875 0.24219 3.6445-1.8398 6.5547-4.875 8.2383-8.5977 1.9922 3.0547 4.8086 5.4844 8.125 7 4.1914 1.457 8.2344 3.293 12.086 5.4922 3.0625 2.2734 5.6133 6.9961 2.6758 10.398-0.68359 0.78906 0.39453 2.0469 1.293 1.5781 3.2969-1.7656 5.0195-5.5078 4.2227-9.1641z"/>
  <path d="m444.54 467.41c-3.0156 0.15625-6.0156 0.50391-8.9883 1.0352-2.9648 0.33203-5.9453 0.57813-8.9258 0.76953-2.9609 0.1875-5.9336 0.33594-8.8984 0.44531-3.3242 0.33984-6.668 0.43359-10.004 0.27734-0.375-0.019531-0.69922 0.25781-0.73828 0.62891-0.035156 0.37109 0.22656 0.70703 0.59766 0.76172 3.1406 0.35938 6.1641 1.3828 9.3086 1.7617 3.2734 0.39453 6.5664 0.57031 9.8594 0.52734 3.0312-0.03125 6.0469-0.19531 9.0586-0.5h0.003906c3.1836-0.13281 6.3359-0.67188 9.3828-1.6016 0.87109-0.41016 1.3672-1.3477 1.2148-2.3008-0.15234-0.94922-0.91406-1.6875-1.8711-1.8047z"/>
  <path d="m365.07 348.17c-0.074218-0.39844-0.42969-0.68359-0.83203-0.67188-0.40234 0.011718-0.73828 0.31641-0.79297 0.71875-0.25781 2.5234-1.6758 5.5039-0.42188 7.9648 0.23438 0.48828 0.73438 0.78906 1.2773 0.77344 0.53906-0.015625 1.0195-0.34766 1.2266-0.85156 1.2227-2.4141-0.20703-5.4609-0.45703-7.9336z"/>
  <path d="m371.36 352.97c-0.078125-1.4062-0.48047-2.7773-1.1719-4.0078-0.078125-0.09375-0.19531-0.14453-0.31641-0.14063-0.12109 0.003907-0.23438 0.066407-0.30469 0.16406-0.61719 1.2656-0.9375 2.6562-0.92969 4.0625-0.21484 1.5586-0.14453 3.1445 0.21094 4.6758 0.23828 0.50781 0.75391 0.82812 1.3164 0.80859 0.55859-0.015625 1.0547-0.36328 1.2617-0.88672 0.26172-1.5508 0.24219-3.1328-0.066406-4.6758z"/>
  <path d="m401.1 392.68c-4.5742-3.2578-9.4414-6.0117-13.777-9.6094-2.418-2.0078-4.7773-4.1016-7.0625-6.2617-1.0586-0.99609-2.0898-2.0156-3.125-3.0391-0.92187-0.91406-2.8008-2.2227-2.9062-3.5469-0.10547-1.2969 1.1133-3.0234 1.4883-4.2969v0.003906c0.33984-1.1523 0.58984-2.332 0.73828-3.5273 0.39844-2.5898 0.058594-5.2422-0.97266-7.6484-0.15625-0.32812-0.50781-0.51172-0.86328-0.45312-0.35547 0.054687-0.62891 0.33984-0.67578 0.69922 0.11719 3.0469-0.20703 6.0977-0.96484 9.0547-0.78516 2.3633-2.8398 4.5938-2.3125 7.2148 0.49219 2.457 3.1094 4.4336 4.7461 6.1523 2.125 2.2305 4.2539 4.457 6.5078 6.5547l0.003906-0.003907c4.2461 3.75 8.8047 7.1289 13.625 10.102 2.2969 1.4414 4.4844 3.0508 6.5469 4.8086 1.6641 1.9844 3.5352 3.7812 5.582 5.3672 0.72656 0.41016 1.9258 0.13672 1.9375-0.88281 0.058594-4.6484-5.0898-8.2461-8.5156-10.688z"/>
  <path d="m448.7 344.93c-0.097656-0.21484-0.30078-0.35938-0.53516-0.38281-0.23438-0.023438-0.46094 0.078125-0.60156 0.26953-1.2305 2.4062-2.2578 4.9102-3.0703 7.4883-1.4023 2.6992-3.0508 5.2656-4.9219 7.6641-3.9961 4.8594-7.4727 10.121-10.379 15.699-1.9844 4.5195-3.5703 9.2031-4.7422 13.996-4.0781-1.0859-7.543-3.7656-9.625-7.4375-2.4258-3.6914-5.4453-6.957-8.9336-9.6719-3.5352-2.3945-7.3047-4.4219-11.25-6.0508-2.4883-1.082-4.9805-2.1562-7.4531-3.2695s-5.1055-1.875-7.5352-3.0469c-0.58203-0.28125-1.1133 0.69922-0.53516 1.0117 2.3672 1.2812 4.5234 2.9688 6.8633 4.3164 2.4844 1.4336 4.9453 2.9062 7.4141 4.3672v0.003906c4.293 2.1367 8.2891 4.8242 11.895 7.9883 5.6797 5.7773 9.0586 15.613 18.109 15.891l-0.41016 1.6289c-2.4531 5.8867-1.9609 12.59 1.3281 18.055 0.32031 0.36719 0.84375 0.48047 1.2891 0.28125 0.44141-0.19922 0.70703-0.66406 0.64453-1.1484-0.82031-6.4961-0.13281-13.094 2.0156-19.277 1.6641-6.5859 4.1562-12.93 7.4141-18.891 2.9102-5.0391 6.5625-9.6016 9.3633-14.707h0.003907c1.375-2.375 2.4844-4.8945 3.3125-7.5117 0.98828-2.3008 1.1094-4.8828 0.33984-7.2656z"/>
  <path d="m455.82 474.67c-3.4297-3.9297-6.0547-8.4883-7.7344-13.426-2.5938-5.0039-5.2891-9.9531-7.8633-14.965-2.3672-4.6055-4.7031-9.2344-6.8711-13.941l-1.7148-3.7891-0.18359-0.77734c-0.28125-0.85547-0.69531-1.6602-1.2266-2.3906l-0.13672-0.30469c-1.2852-2.4648-2.418-5.0078-3.3867-7.6133-0.22266-0.74609-1.4531-0.36719-1.3008 0.38281 0.22656 1.1328 0.375 2.2734 0.51953 3.4141-1.0195-0.81641-2.0664-1.6055-3.0703-2.3828-2.1875-1.6914-4.5-3.2734-6.5508-5.1328-1.2695-1.1523-2.2773-2.8711-3.8516-3.4844-0.42578-0.98828-0.87891-1.9648-1.3594-2.9219l0.003906-0.003907c-0.14453-0.29688-0.48047-0.44531-0.80078-0.35156-0.31641 0.089843-0.51953 0.40234-0.47656 0.73047 0.77734 8.8672 2.9023 17.641 4.1641 26.465 0.61328 4.2812 1.2031 8.5586 1.6289 12.863 0.082031 3.9688 1.4766 7.8047 3.9609 10.902 0.22656 0.26172 0.59766 0.34375 0.91406 0.20312s0.5-0.47266 0.45703-0.81641c-0.55859-3.9375-0.28906-7.9922-0.70703-11.957-0.36719-3.4766-0.80469-6.9453-1.3633-10.398 1.5977-0.75781 3.3086-1.2461 5.0625-1.4414 1.293-0.12891 2.5938 0.007812 3.832 0.39453 0.71094 0.3125 1.375 0.71875 1.9805 1.207 2.125 5.293 4.6484 10.398 7.2539 15.473 2.7812 5.4219 5.4375 11.016 8.6641 16.188 1.5625 2.5 3.0391 5.082 4.6445 7.5547h0.003906c0.85156 1.9102 2.832 3.0586 4.9141 2.8516 0.55469-0.10156 0.99609-0.52344 1.125-1.0703 0.12891-0.55078-0.082031-1.125-0.53125-1.4609zm-30.902-45.168c-2.3359 0.23828-4.5938 0.98828-6.6094 2.1953-0.87891-5.1016-2.0586-10.145-3.5391-15.105l0.5 0.57422c1.7266 1.9102 3.6406 3.6445 5.5273 5.3906 1.9531 1.8086 4.0469 3.4531 5.8594 5.4023l0.88672 1.0312 0.20703 0.64844h0.007812c-0.9375-0.16406-1.8906-0.21094-2.8398-0.13672z"/>
  <path d="m473.62 472.66c-3.3125-1.3047-5.7422 2.0156-7.6641 4.2656-2.7656 0.63672-5.8203 0.6875-8.6133 1.0742-0.66016 0.089844-0.85156 1.2031-0.13672 1.3672v0.003906c1.7734 0.43359 3.5664 0.77344 5.3789 1.0117 1.7109 0.41016 3.4922 0.44531 5.2227 0.10156 1.457-0.56641 2.2109-2.2891 3.4336-3.1836 1.2578-0.92188 2.6172-1.3633 3.1602-2.9375 0.23828-0.68359-0.10547-1.4375-0.78125-1.7031z"/>
  <path d="m477.79 470.12c-0.27344-3.1406-3.6211-3.9961-6.2969-3.7617-3.8359 0.33594-8.0352 1.3594-11.266-1.4219-0.64453-0.55469-1.5039 0.4375-0.99609 1.0703v-0.003907c1.5977 2.4375 4.0742 4.1719 6.9102 4.8398 3.5312 0.58203 6.8203-1.2891 10.199 0.46094 0.78516 0.40625 1.5156-0.46875 1.4492-1.1836z"/>
  <path d="m344.12 356.03c-2.4375-2.0195-5.2266-3.5781-8.2266-4.5938-3.375-1.5234-6.7578-3.0312-10.07-4.6992-3.2852-1.6523-6.5039-3.4336-9.7383-5.1836-3.125-1.6914-6.3555-2.9648-9.5312-4.4961-0.74219-0.35938-1.1367 0.71094-0.62109 1.1758v0.003906c2.6641 2.5859 5.5586 4.9219 8.6523 6.9766 3.0469 1.8867 6.1992 3.5898 9.4023 5.2031 3.1719 1.5977 6.3867 3.1406 9.6719 4.4766 3.0703 1.6055 6.4727 2.4648 9.9375 2.5039 0.29688-0.046876 0.54688-0.25 0.65234-0.53125 0.10938-0.28516 0.058594-0.60156-0.12891-0.83594z"/>
  <path d="m356.59 346.98c-1.1406-4.4453-3.9883-8.2578-7.9258-10.617-1.9062-1.1055-4.0898-1.6445-6.2891-1.543-2.4922 0.16016-4.7773 1.3281-7.2695 1.5742-4.7656-0.023437-9.5-0.69141-14.086-1.9805-4.5039-0.95703-9.1641-0.91406-13.648 0.12891-0.69922 0.19531-0.57031 1.2695 0.17969 1.1406 8.4805-1.4688 16.305 4.1602 24.703 4.7109h0.003907c1.9023 0.14844 3.8164 0.027344 5.6875-0.35156 2.0625-0.79297 4.2852-1.0898 6.4844-0.87109 4.6172 1.0977 7.0234 5.6367 10.25 8.6602 0.66797 0.625 2.25 0.32422 1.9102-0.85156z"/>
  <path d="m378.23 338.59c-1.0703-3.0703-5.6523-5.0977-8.2891-6.5703-3.4727-1.9375-7.0547-3.6836-10.656-5.3555-3.5664-1.6562-7.1328-3.293-10.656-5.043v0.003906c-3.875-1.75-7.6172-3.7812-11.191-6.082-0.30078-0.19922-0.71094-0.125-0.91797 0.17188-0.21094 0.29688-0.14844 0.70703 0.14453 0.92578 3.4102 2.5508 6.5586 5.1523 10.227 7.3789 3.3555 2.0391 6.8086 3.9141 10.262 5.7852 3.4609 1.875 6.9531 3.6953 10.41 5.582 2.7969 1.5234 6.6797 4.6289 9.9766 4.4766 0.63281-0.035156 0.86328-0.77344 0.69141-1.2734z"/>
  <path d="m377.43 318.39c-3.6406-2.9922-8.1289-0.73828-12.215-2.4297l-0.003906 0.003906c-3.832-2.0312-7.9922-3.375-12.289-3.9727-4.5195 0.085937-9.0312 0.53125-13.48 1.3281-0.87109 0.085937-0.64062 1.3789 0.21094 1.3242l-0.003906 0.003906c3.9023-0.16406 7.8125 0.10156 11.656 0.78906 3.8164 0.71484 7.5039 1.9844 10.949 3.7695 1.4766 0.78125 3.0703 1.3125 4.7188 1.582 1.8242-0.066407 3.6445-0.27344 5.4414-0.625 4.4531-0.16406 5.2109 5.2617 6.8008 8.3398 0.17969 0.38672 0.59375 0.60547 1.0156 0.53906s0.75-0.40625 0.80078-0.83203c0.55859-3.6719-0.80078-7.3789-3.6016-9.8203z"/>
  <path d="m384.87 329.53c-0.070313-0.35938-0.39453-0.61719-0.76172-0.60547-0.36719 0.007813-0.67578 0.28516-0.72656 0.64844-0.39062 2.7578-2.3359 6.4727-0.47266 9.0234 0.3125 0.375 0.78516 0.58594 1.2734 0.56641 0.49219-0.015624 0.94922-0.25781 1.2344-0.65625 1.8086-2.4648-0.16797-6.3125-0.54687-8.9766z"/>
  <path d="m391.53 336.77c-0.12891-1.5859-0.44922-3.1523-0.95703-4.6641-0.125-0.26172-0.39062-0.42578-0.68359-0.41797s-0.55078 0.19141-0.65625 0.46094c-0.38672 1.5469-0.66406 3.125-0.82812 4.7109-0.41797 1.5586-0.4375 3.1953-0.058594 4.7617 0.52734 1.457 2.4062 1.0391 2.9727-0.089844 0.50781-1.5391 0.57812-3.1836 0.21094-4.7617z"/>
  <path d="m395.68 335c-0.16797-0.19922-0.42578-0.29297-0.67969-0.25s-0.46875 0.21484-0.5625 0.45703c-0.21484 0.70312-0.37891 1.418-0.48828 2.1445-0.17578 0.75391-0.41797 1.4922-0.64453 2.2344v0.003906c-0.22656 0.67188 0.12109 1.4023 0.78516 1.6484 0.66406 0.24609 1.4062-0.078125 1.6758-0.73438 0.875-1.7383 0.83984-3.793-0.085938-5.5039z"/>
  <path d="m480.98 332.4c-2.707-7.8477-13.809-7.4102-20.516-7.125-9.5312 0.64844-18.93 2.5977-27.934 5.8008-8.7461 2.8711-17.199 6.5195-25.699 10.039v-0.003906c-1.1836-0.58594-2.3945-1.1055-3.6328-1.5625-0.70703-0.28125-1.4414-0.47656-2.1953-0.58203-0.76172 0.011718-1.5273-0.03125-2.2891-0.12109-0.51953-0.13672-0.99609 0.55859-0.47266 0.89453 0.63672 0.55078 1.2461 1.1328 1.8203 1.7461 0.55078 0.42969 1.1445 0.80078 1.7734 1.1055l0.62109 0.31641c-3.4453 1.4023-6.9062 2.7773-10.391 4.082l-0.83594 0.3125-0.47656-0.13281v-0.003907c-0.34766-0.15625-0.68359-0.33984-1.0039-0.54687-0.72266-0.30859-1.3945-0.72266-1.9961-1.2227-0.42187-0.42578-1.3125-0.015625-0.97656 0.59766 0.43359 0.78906 0.71094 1.6367 1.2266 2.3906l0.070313 0.09375-2.2383 0.83984c0.41016-1.6016 0.035156-3.3047-1.0078-4.5859-1.1523-1.3164-2.7344-2.1836-4.4648-2.4414-0.91406-0.22266-1.4688 1.1211-0.52344 1.4062 2.5391 0.76953 2.125 3.7578 2.6875 5.7656 0.10547 0.36328 0.31641 0.68359 0.60547 0.92578l-1.125 0.47266c-0.97266 0.57812-1.9844 1.0898-3.0273 1.5273-0.85938 0.21875-0.66406 1.582 0.21875 1.3789 1.0703-0.24609 2.4805-0.007813 3.6172-0.16406 1.1875-0.16016 2.3633-0.35937 3.5273-0.625 1.918-0.4375 3.832-0.97266 5.707-1.5742 4.3164-1.3789 8.543-2.9805 12.742-4.6758 8.2617-3.332 16.43-6.9141 24.82-9.9219l0.003906 0.003906c8.4492-3.1758 17.27-5.2734 26.246-6.2383 7.8711-1.7305 16.102-0.49609 23.117 3.4648 1.1016 0.9375 2.3867-0.51562 2-1.6367z"/>
  <path d="m503.51 357c-2.5664-0.72266-4.918-2.0586-6.8516-3.8945-2.0234-2.1953-3.7695-4.6289-5.207-7.2461-1.4062-2.3789-2.8945-4.6562-4.4297-6.9531-1.0117-1.5156-1.6328-4.1797-3.7969-4.2852-0.29688-0.023438-0.58594 0.10938-0.75781 0.35156-0.17578 0.23828-0.21094 0.55469-0.097656 0.83203 0.52734 1.1211 0.59766 2.3555 1.0312 3.5117h0.003906c0.58984 1.2852 1.293 2.5117 2.1016 3.6719 1.7148 2.8594 3.0781 5.9023 4.8828 8.707 2.6289 4.082 7.5312 8.8359 12.859 7.9297 0.59766-0.11328 1.0508-0.60547 1.1133-1.2148 0.058594-0.60547-0.28516-1.1797-0.85156-1.4102z"/>
  <path d="m539.2 374.7c-0.60156-6.75-4.1445-12.891-9.6836-16.793-5.0586-3.1484-11.301-3.75-16.867-1.6211-0.75391 0.25391-0.375 1.4609 0.39062 1.3281h0.003907c5.1016-0.63281 10.25 0.77344 14.32 3.9141 4.418 3.6602 7.0547 9.0352 7.2422 14.766 0.29297 2.3516 0.40625 4.7188 0.33984 7.082-0.76562-0.83594-1.6133-1.5938-2.5312-2.2617-1.8047-1.2812-3.875-2.1367-6.0547-2.5-2.4219-0.24609-4.8672-0.039063-7.2148 0.60547-0.35156 0.070312-0.58594 0.40625-0.52734 0.76172 0.054687 0.35547 0.38281 0.60547 0.73828 0.5625 3.3281 0.28516 6.5078 1.4961 9.1836 3.4922 1.3086 0.77344 2.457 1.7773 3.3984 2.9648 0.67578 1.1836 1.2148 2.4375 1.6094 3.7383-0.37891 0.98047-0.84766 1.9219-1.4062 2.8164l-0.43359 0.64844h0.003907c-1.5469-0.32812-3.043-0.85938-4.4492-1.582-1.6914-1.4453-3.5508-2.6875-5.5312-3.6992-1.6953-0.64844-3.5156-0.91406-5.3281-0.77344-1.9258 0.29688-3.8047 0.84766-5.5859 1.6445-0.82031 0.27344-0.26953 1.4961 0.54297 1.2266 4.332-1.4375 9.1719 1.918 12.273 4.5273 1.3516 1.1562 2.9141 2.043 4.6016 2.6055l-1.3164 1.1719c-1.1445 0.97266-2.6719 1.7305-3.9648 2.6406l-0.61719 0.1875v-0.003907c-2.1758 0.58984-4.4492 0.71484-6.6758 0.36328-0.39062-0.023437-0.73828 0.23438-0.82812 0.61719-0.085937 0.37891 0.11328 0.76562 0.47656 0.91406 2.6289 0.87109 5.4141 1.1719 8.168 0.875 2.2656-0.22656 4.4453-0.96094 6.3789-2.1562 2.8203-1.6719 5.1602-4.043 6.7969-6.8828 3.2188-6.5703 4.1172-14.035 2.5469-21.18z"/>
  <path d="m517.81 421.8c-0.49609-2.7734-1.4023-5.457-2.6875-7.9648-0.66016-1.2734-1.4961-2.4453-2.4922-3.4766-0.99609-1.0117-2.2383-1.6055-3.2891-2.5312-0.58984-0.51562-1.2578 0.46875-0.69922 0.98828v-0.003906c1.7617 2.1719 3.0469 4.6875 3.7656 7.3906 0.83203 2.4922 1.3594 5.0742 1.5781 7.6914 0.72266 5.8789 0.14062 11.844-1.7109 17.469-0.26953 0.71094-0.57812 1.4102-0.91797 2.0898 0.67969-2.2773 1.0938-4.6211 1.2383-6.9922 0.46484-7.8086-1.8008-15.535-6.4102-21.852-0.90234-1.2266-1.9141-2.3672-3.0234-3.4141 0.66797-0.69141 1.2773-1.4414 1.8203-2.2383 0.93359-1.3789 2.0742-2.6016 3.3789-3.6406 0.79688 0.83594 1.9844 1.1719 3.1055 0.88281 0.95312-0.21094 1.4883-1.6133 0.51562-2.1992-0.8125-0.48828-1.6094-0.96875-2.4414-1.4297h-0.003907c-0.875-0.38672-1.4219-1.2695-1.375-2.2266 0.015626-0.35938-0.25391-0.67188-0.61328-0.70703-0.36328-0.039063-0.6875 0.21484-0.74609 0.57422-0.11719 1.3086 0.10937 2.625 0.66406 3.8164-0.73438 0.29297-1.5156 0.48438-2.2344 0.82031h-0.003906c-0.85547 0.40625-1.6602 0.90625-2.3984 1.5-0.97656 0.68359-1.8047 1.5547-2.4414 2.5625-1.9062-1.3477-3.9414-2.5-6.0781-3.4414 0.14844-0.45703-2.1445-2.4297-2.8008-3.1484-0.33594-0.35156-0.61719-0.75391-0.83203-1.1914-0.22266-0.38672-0.37891-0.80859-0.46484-1.2461 0.18359-0.78125-0.99609-1.2305-1.1836-0.44141-0.070312 0.30078-0.32422 0.55078-0.43359 0.86328-0.12109 0.38281-0.17969 0.78125-0.17188 1.1836-0.003906 0.62109 0.10938 1.2344 0.32812 1.8125-1.7148-0.58984-3.457-1.1406-5.2188-1.6953-5.5273-1.7891-11.145-3.2852-16.832-4.4766-3.0078-0.625-6.0469-1.0586-9.1094-1.3008l-2.2578-0.16406 0.41016-0.88672v0.003906c1.082-2.5273 2.3711-4.9609 3.8477-7.2773 0.81641 0.44141 1.6875 0.76562 2.5977 0.95312 1.8594 0.5625 3.7227 1.1172 5.5859 1.668 1.7227 0.50391 3.4336 1.0391 5.1523 1.5586 0.76953 0.32031 1.5977 0.47656 2.4297 0.45703 0.5 2.8789 1.7227 5.5859 3.5469 7.8672 0.25391 0.3125 0.69922 0.38672 1.043 0.17578 0.33984-0.21094 0.47656-0.64062 0.31641-1.0078-1.4102-3.3633-1.8477-7.0508-1.2578-10.648 1.2969-2.8594 2.1914-5.8867 2.6602-8.9961 0.11328-4.6484-3.3984-8.5859-8.0273-9 2.5625-4.0078 3.7422-8.7461 3.3555-13.488-0.074219-0.80469-1.2891-0.72656-1.3828 0.039062-1.8984 7.2539-6.0938 13.695-11.953 18.367-2.5781 2.5078-4.9766 5.1875-7.1875 8.0234-2.1094 3-3.875 6.2266-5.2617 9.6211-3.543 5.9961-6.4883 12.328-8.7891 18.898-0.84766 3.3203-0.80469 6.8008 0.12891 10.098 0.85547 2.5742 1.8398 5.1016 2.9492 7.5742 0.26953 1.0742 0.68359 2.1055 1.2305 3.0625l0.035156 0.09375c1.5547 4.1758 2.8672 8.4141 4.1055 12.688 1.2109 4.1836 2.8359 8.2344 4.2539 12.316 0.40625 1.1758 1.9883 0.48828 1.9375-0.57031l0.003906 0.003906c-0.082031-3.9023-0.51953-7.7891-1.3086-11.613-0.36328-1.5664-0.79687-3.125-1.2656-4.6758l1.9062 1.5469h0.003906c2.332 2.0586 4.9766 3.7422 7.832 4.9844 3.0625 1.0273 6.2031 1.7969 9.3945 2.3047 0.72656 0.14844 0.91406-0.95313 0.28125-1.2188v-0.003907c-5.1797-2.6445-9.9414-6.043-14.129-10.082-2.1562-1.832-4.2578-3.7695-6.5352-5.4531l-1.8906-1.3672c-0.92188-2.5078-1.9062-4.9883-2.9492-7.4492l0.003906-0.003907c-1.9297-3.2695-2.5547-7.1484-1.7461-10.859 1.4883-4.1953 3.4023-8.2266 5.7109-12.031 1.0469 0.17578 2.1406 0.17969 3.2578 0.25 2.293 0.15625 4.5859 0.41797 6.8555 0.75391 4.7812 0.75 9.5117 1.8125 14.156 3.1836 4.3789 1.2461 8.7578 2.5703 13.059 4.0586v-0.003906c3.5742 1.1094 6.8516 3.0078 9.5938 5.5547 4.75 4.9922 7.5469 11.523 7.8906 18.406 0.33984 6.8789-1.7969 13.656-6.0234 19.094-2.4102 3.2539-5.2891 6.125-8.5469 8.5234-3.2852 2.4414-7.0547 3.957-10.387 6.2539h-0.003907c-0.19531 0.16797-0.27344 0.4375-0.19922 0.68359 0.074218 0.24609 0.28906 0.42578 0.54297 0.45703 3.8359-0.24219 7.5469-1.4297 10.812-3.4531 1.9492-1.0938 3.8086-2.3359 5.5586-3.7227 8.9219-3.7188 15.805-11.105 18.891-20.262 1.4141-6.3594 1.4102-12.957-0.019531-19.312zm-49.23-44.648c0.89453-0.97656 1.75-1.9805 2.5547-3.0078v-0.003906c0.1875 0.082031 0.39062 0.125 0.59375 0.12109 2.7773-0.40625 5.3828 1.4492 5.9062 4.207 0.035156 2.7773-0.64062 5.5156-1.9648 7.9609-0.24609 0.78906-0.40234 1.6055-0.46875 2.4297l-1.0312-0.51562c-1.7461-0.85156-3.5156-1.6719-5.3086-2.4258-1.793-0.75391-3.6055-1.4219-5.4531-2.0273l-0.83594-0.27344c1.9297-2.2188 4.0195-4.2969 6.0078-6.4648z"/>
  <path d="m508.52 380.86c-2.3047-0.47656-4.7031 0.039062-6.6094 1.4219-1.7383 1.3711-3 3.2578-3.5977 5.3906-0.10156 0.28125 0.019532 0.59766 0.28516 0.73828 0.26953 0.14062 0.59766 0.0625 0.77344-0.17969 1.1328-1.4102 2.7148-2.3945 4.4844-2.7812 0.80469-0.22266 1.6328-0.35156 2.4688-0.38672 0.47266-0.011719 2.0664-0.003906 0.78125 0.64453-0.46875 0.22266-0.76172 0.70312-0.74609 1.2266 0.015625 0.51953 0.33594 0.98047 0.82031 1.1758 1.8867 0.59766 3.8984-0.44141 4.5039-2.3281 0.26953-1.0742 0.082031-2.2148-0.51562-3.1445-0.60156-0.93359-1.5586-1.5781-2.6484-1.7773z"/>
  <path d="m499.91 362.48c-1.9375 0.76953-3.3516 2.4766-3.7461 4.5234-0.35937 1.4141-0.21484 7.4023-2.1445 7.5859-1.2461 0.11719-1.1758 1.7695-0.22266 2.2148 2.793 1.3164 5.0586-1.1602 5.6172-3.75 0.69531-3.207 1.0234-6.5195 1.6367-9.7422 0.125-0.64844-0.61328-1.0273-1.1406-0.83203z"/>
 </g>
</svg>