<?xml version="1.0" encoding="UTF-8"?>
<!-- Uploaded to: ICON Repo, www.iconrepo.com, Generator: ICON Repo Mixer Tools -->
<svg fill="#000000" width="800px" height="800px" version="1.1" viewBox="144 144 512 512" xmlns="http://www.w3.org/2000/svg">
 <g>
  <path d="m430.4 383.2c-2.3789 1.1367-4.2305 4.6484-5.6836 6.7695-1.7617 2.582-3.5625 5.1406-5.4297 7.6523-2.0117 2.7109-4.1055 5.3477-6.2812 7.918l0.070313-0.36719c1-3.6289 1.2852-7.418 0.83203-11.152-0.058594-0.29297-0.28125-0.52344-0.57031-0.58984-0.28906-0.070313-0.59375 0.039062-0.77344 0.27734-1.5195 2.7227-2.4961 5.7188-2.8789 8.8164-0.30078 1.5156-0.58594 3.0469-1.0078 4.5352-0.41016 1.4375-1.0938 2.8008-1.4414 4.2539v-0.003906c-0.046875 0.19922-0.046875 0.40234-0.011719 0.60156l-0.19141 0.20313c-4.1875 4.4805-9.1367 8.1914-14.609 10.961-2.7148 1.3242-5.5977 2.375-8.1797 3.9453-2.3789 1.1016-4.3672 2.9023-5.6875 5.1641-0.16016 0.39062 0.32031 0.65234 0.625 0.44531l-0.003906 0.003907c1.2422-0.96875 2.5938-1.7891 4.0312-2.4375 1.418-0.54297 2.9102-0.78516 4.3594-1.2266v0.003906c2.9102-0.88672 5.707-2.1055 8.3359-3.6328 5.3164-3.043 10.277-6.6758 14.777-10.828 4.4609-4.2891 8.5352-8.9531 12.18-13.949 1.875-2.5039 3.6797-5.0586 5.4531-7.6367 0.88672-1.293 1.7188-2.5898 2.5039-3.9492h-0.003906c0.9375-1.2109 1.5781-2.6289 1.8633-4.1328 0.046874-0.57422-0.21094-1.1289-0.67578-1.4648-0.46484-0.33594-1.0742-0.40234-1.6016-0.17969z"/>
  <path d="m438.89 334.48c-0.28906-1.0156-1.8633-1.793-2.5312-0.59375-1.4883 3.3633-2.293 6.9844-2.3672 10.66-0.46484 3.9219-0.92578 7.8398-1.3281 11.766-0.40625 3.9453-0.67578 7.8555-0.80078 11.82-0.34766 3.7148-0.33594 7.457 0.035156 11.172 0.035157 0.20312 0.20703 0.35938 0.41406 0.37891 0.20703 0.019531 0.40234-0.097656 0.48047-0.28906 1.2109-3.5469 2.0742-7.1992 2.582-10.91 0.75391-3.7539 1.3789-7.4883 1.8633-11.285 0.48438-3.7773 0.92188-7.5586 1.3477-11.34h0.003907c0.83594-3.7383 0.9375-7.6016 0.30078-11.379z"/>
  <path d="m447.34 311.64c-3.3125-2.4766-6.9609-4.4609-10.836-5.9023-1.8711-0.74219-3.7852-1.3594-5.7031-1.9727-2.1914-0.44922-4.2305-1.4531-5.9219-2.9141-0.53125-0.61719-1.3672 0.125-0.95703 0.78125 0.78906 1.4648 1.8555 2.7656 3.1328 3.8281 1.3359 0.95312 2.7773 1.7383 4.3008 2.3398 3.7305 1.4297 7.3398 3.1562 10.793 5.1641 3.4023 1.8516 6.2461 4.582 8.2344 7.9023 1.9922 3.3203 3.0586 7.1133 3.0859 10.988 0.09375 1.3047 2.0195 1.3711 2.4375 0.24219 0.83203-3.875 0.46094-7.918-1.0703-11.574s-4.1484-6.7578-7.4961-8.8828z"/>
  <path d="m472.5 411.73c-1.8906-0.46484-3.8555-0.51953-5.7695-0.16016-2.1914 0.19922-4.3438 0.71875-6.3867 1.543-4.0195 1.7031-7.5156 4.4414-10.133 7.9375l-0.57422 0.80078c-0.71875-1.5781-1.6211-3.0664-2.6836-4.4336-1.6484-2.4727-4.1328-4.2773-6.9961-5.0781-1.8945-0.49609-3.8477-0.73828-5.8086-0.72656 1.4688-1.2773 2.8906-2.5977 4.2656-3.9688h-0.003906c2.6367-2.543 4.875-5.4727 6.6328-8.6875 1.7539-3.3203 2.375-7.1758 4.0898-10.559 0.98047-1.7109 1.8242-3.5 2.5156-5.3477 0.54688-1.7148 1.0352-3.4531 1.5156-5.1875l0.0625 0.12891c1.6055 3.3984 3.0469 6.8477 4.4258 10.344 1.3242 3.3555 2.5703 6.7383 3.8477 10.113 0.85547 2.2656 1.375 5.8359 3.9961 6.75 0.55859 0.19531 1.1836-0.53125 0.71875-1.0078-0.95703-0.97656-0.85156-2.75-1.0508-4.0273-0.23828-1.5273-0.49609-3.0469-0.83203-4.5547-0.68359-3.0781-1.5508-6.1133-2.5898-9.0859-1.0234-2.9258-2.2422-5.7969-3.5234-8.6211-0.63672-1.4062-1.3711-2.7773-1.9688-4.2031-0.46094-1.0898-0.62109-2.2773-1.1562-3.3008 0.41016-1.7461 0.79297-3.4961 1.1406-5.2578 0.94531-4.4805 1.5078-9.0352 1.6758-13.609 0.03125-2.293-0.066406-4.5859-0.28906-6.8633-0.22266-2.4336-0.89453-4.7109-1.2578-7.1094-0.14062-0.93359-1.4883-0.6875-1.4258 0.22656 0.078125 4.1992-0.23047 8.4023-0.93359 12.547-0.49219 4.0156-1.0391 7.9961-1.8125 11.969-0.79688 4.0664-1.7969 8.0859-2.8711 12.086-1.207 3.6445-2.1211 7.3789-2.7422 11.168-0.30078 3.9336-1.8359 7.6758-4.3906 10.684-2.3086 2.8398-4.8203 5.5078-7.5195 7.9766-5.5273 5.1445-11.488 9.8086-17.809 13.934-6.3438 2.9727-11.297 8.2773-13.824 14.809-0.32422 1.3242 1.5195 2.6719 2.3398 1.2383 3.8242-5.1836 8.8438-9.3672 14.633-12.191 2.0312-1.3008 4.0352-2.6523 6.0195-4.0625 1.6016-0.29297 3.207-0.6875 4.8242-0.87109 2.3125-0.28125 4.6484-0.27344 6.957 0.015625 2.2266 0.32031 4.3398 1.1836 6.1523 2.5117 1.8359 0.96094 3.3672 2.4141 4.4219 4.1914-2.0234 3.3516-3.6172 7.0039-5.7383 10.289-2.957 4.582-5.9844 9.0508-8.5508 13.867-0.30078 0.5625 0.32422 1.3359 0.89453 0.83203v0.003906c3.5352-2.9883 6.7031-6.3867 9.4375-10.125 2.8125-3.9922 4.9531-8.2695 7.3594-12.496v0.003907c2.0312-3.6758 5.0273-6.7266 8.6602-8.8281 1.6836-0.96094 3.4531-1.7578 5.2891-2.375 2.168-0.71875 4.375-0.56641 6.5508-1.0859 0.48828-0.09375 0.85938-0.49609 0.91016-0.99219 0.050782-0.49609-0.23438-0.96484-0.69531-1.1523z"/>
  <path d="m410.87 355.2c0.21875-3.3125-0.41797-6.625-1.8516-9.6211-0.18359-0.21875-0.46875-0.32812-0.75-0.28125-0.28516 0.046875-0.51953 0.24219-0.62109 0.50781-0.14844 0.46484-0.26172 0.94141-0.33203 1.4219-0.58203-0.60156-1.3125-1.0391-2.1211-1.2656-0.39062-0.13281-0.82812-0.023438-1.1094 0.27734-0.28516 0.30078-0.36719 0.74219-0.21094 1.1289 0.60547 1.5352 1.4023 2.9844 2.3672 4.3203 0.24609 0.30859 0.61328 0.49219 1.0039 0.5 0.058593 1.0742 0.125 2.1289 0.10547 3.1133l-0.003906 0.003906c-0.0625 3.4023-0.375 6.7969-0.93359 10.156-0.82422 5.0039-1.3594 10.066-2.5352 14.984-1.707-0.12891-3.4219 0.10156-5.0352 0.67969-1.668 0.68359-3.1953 1.6719-4.5117 2.9062-0.17578 0.15625-0.21484 0.41406-0.089844 0.61328 0.12109 0.19922 0.37109 0.28125 0.58594 0.19531 2.5977-0.90625 5.3633-1.2188 8.0938-0.91797l-0.4375 1.3125c-0.83203-0.35547-1.7656-0.42188-2.6406-0.1875-0.46875 0.10547-0.91016 0.30078-1.3008 0.57422-0.35156 0.25781-0.58984 0.62891-0.9375 0.89062-0.53906 0.40234-0.078124 1.1445 0.49609 1.1094 0.28516 0.03125 0.5625 0.12109 0.81641 0.26172l0.94531 0.26172 1.2773 0.37109-0.61719 1.2773h0.003907c-1.1445-0.49609-2.4023-0.65234-3.6328-0.44922-1.6445-0.085937-3.25 0.55469-4.3828 1.75-0.070312 0.10156-0.085937 0.23047-0.050781 0.34766 0.035157 0.11719 0.12109 0.21094 0.23438 0.25391 1.3086 0.35547 2.6602 0.53516 4.0156 0.53906 0.79688 0.13672 1.5312 0.46094 2.2734 0.625l-1.1133 2.2578c-1.4531 3.0898-2.8477 6.2031-4.3633 9.2617-3.0547 6.0547-5.7891 12.266-8.1914 18.609-0.13281 0.39062 0.039062 0.81641 0.40625 1.0117 0.36328 0.19141 0.8125 0.089844 1.0625-0.23828 4.4336-5.4414 8.2383-11.367 11.344-17.664 1.6797-3.2656 3.168-6.625 4.457-10.066 1.1797-3.3477 1.9258-6.8359 2.9961-10.219v0.003906c2.5273-6.543 4.2539-13.363 5.1406-20.32 0.23438-3.4258 0.28125-6.8633 0.14844-10.297z"/>
  <path d="m421.27 374.53c-0.76172-2.3398-1.0156-4.8125-0.73828-7.2578 0.96094-4.1523 0.76562-8.4844-0.55859-12.531-1.1992-3.6641-3.6445-6.793-6.9102-8.8398-0.28906-0.097657-0.60938-0.019532-0.81641 0.20312-0.21094 0.22266-0.26953 0.54688-0.15234 0.82813 1.9336 2.9258 3.3633 6.1602 4.2266 9.5586 0.35547 3.707 0.21094 7.4453-0.42969 11.117 0.13281 3.7773 0.71875 7.5312 1.7461 11.172 0.13281 1.8516-0.26562 3.6992-1.1406 5.3359-0.66016 1.7227-1.4648 3.3867-2.4023 4.9766-0.23047 0.34375-0.17578 0.80859 0.12891 1.0938s0.76953 0.30469 1.0977 0.050781c1.7227-1.1055 3.3086-2.4062 4.7344-3.875 1.1719-1.5156 1.9062-3.3242 2.1172-5.2305 0.14062-2.2383-0.16797-4.4805-0.90234-6.6016z"/>
  <path d="m387.01 391.32c-7.2031 4.5508-9.1641 14.504-13.586 21.262-4.3359 6.6289-12.66 13.422-11.211 22.168h-0.003907c0.082031 0.41797 0.42578 0.73047 0.85156 0.77344 0.42188 0.042968 0.82422-0.19922 0.98438-0.58984 1.8164-3.6016 3.8594-7.0859 6.1133-10.43 2.4805-3.3281 4.7422-6.8125 6.7695-10.438 1.8477-3.5898 3.1914-7.4023 4.7734-11.109 1.6523-3.8086 3.793-7.3906 6.3672-10.648 0.54688-0.70703-0.41016-1.3984-1.0586-0.98828z"/>
  <path d="m392.78 431.99c-0.070313-0.42578-0.33594-0.79688-0.71094-1.0039-0.37891-0.20312-0.83203-0.22656-1.2266-0.054687-2.332 1.3281-3.6836 4.4688-5.1562 6.6484-1.8555 2.4492-3.9648 4.6875-6.2969 6.6875-0.26953 0.25781-0.10547 0.8125 0.32422 0.71875h-0.003907c3.1484-0.86328 6.043-2.4648 8.4414-4.6719 2.207-1.8125 5.1875-5.2539 4.6289-8.3242z"/>
  <path d="m430.33 443.34c-6.6328 3.6719-13.648 6.6016-20.926 8.7305-6.8867 1.8008-14.043 2.3359-21.117 1.5703-0.53516-1.125-1.3281-2.1094-2.3125-2.8672 2.8242 0.25781 5.6602-0.39063 8.0938-1.8516 1.8047-1.0781 3.375-2.5078 4.6094-4.207 0.6875-0.92969 1.3164-1.8945 2.0703-2.7773 0.78125-0.91406 1.6641-1.5117 1.9922-2.6836 0.12891-0.38281 0.054688-0.80469-0.20312-1.1172-0.25391-0.3125-0.65625-0.46875-1.0547-0.41797-1.7656 0.066406-2.9883 1.7422-4.207 2.8711-1.4141 1.3398-2.9023 2.5938-4.457 3.7578-3.125 2.2969-6.793 3.75-10.641 4.2148-0.24609 0.019531-0.45703 0.17969-0.55078 0.40625-1.7773-0.32422-3.5938-0.36719-5.3828-0.12109l-1.1992 0.21484h-0.003907c-0.11719-0.71094-0.19531-1.4297-0.23047-2.1484 0.082031-1.3359 0.42969-2.6406 1.0156-3.8438 1.3516-2.0508 2.168-4.4062 2.3867-6.8516-0.03125-0.18359-0.16016-0.33594-0.33203-0.40234-0.17578-0.066406-0.37109-0.035156-0.51953 0.078125-2.457 2.0117-4.3906 4.5859-5.6406 7.5078-0.375 0.88672-0.64453 1.8203-0.80078 2.7695-1.3555-0.43359-2.6328-1.0859-3.7773-1.9336-2.3164-1.8047-3.9375-4.3555-4.5859-7.2188-0.10547-0.53516-0.58203-0.91797-1.1289-0.90234-0.54297 0.011718-1 0.42187-1.0781 0.96094-0.28906 2.7617 0.28906 5.543 1.6562 7.957-2.5938 0.16016-5.0391 1.2773-6.8555 3.1367-1.4766 1.8047-2.668 3.8164-3.5391 5.9766-0.35938 0.66406 0.51953 1.3516 0.98828 0.69922v0.003906c2.0234-2.5117 4.7148-4.4023 7.7656-5.4531 2.6836-0.75391 5.5703-0.085938 7.6523 1.7695 0.26953 0.22266 0.62109 0.32422 0.96875 0.28125s0.66406-0.22656 0.87109-0.50781l0.23828 0.058594v-0.003906c-3.2031 1.7188-5.5039 4.7422-6.3008 8.2891-0.023438 0.28906 0.125 0.5625 0.37891 0.69922s0.56641 0.10938 0.79297-0.066406c2.8242-3.2656 6.6289-5.5234 10.848-6.4375 4.1562-0.67578 10.797 0.51172 12.535 4.9336v0.003907c0.13672 0.27734 0.45312 0.41797 0.75 0.33203 0.29688-0.089844 0.48438-0.37891 0.44531-0.6875-0.10938-0.76953-0.26953-1.5352-0.46875-2.2891 1.0977 0.51953 2.2422 0.94141 3.418 1.2578 1.875 0.48828 3.7852 0.82422 5.7148 1.0039 4.0234 0.28516 8.0625-0.097656 11.961-1.1289 7.957-2.0586 15.328-5.9453 21.523-11.348 1.0664-0.94141 0-2.918-1.3633-2.2188z"/>
  <path d="m403.41 372.59c-1.3047 0.29297-2.582 0.6875-3.8281 1.1758 1.3281-2.6484 2.1758-5.5117 2.5078-8.4531 0.32812-2.5195 0.59766-5.0742 0.69531-7.6094 0.10547-2.832-0.29687-5.6172-0.27344-8.4258 0.007813-0.94141-1.4219-1.1172-1.4805-0.14844-0.15234 2.5117-0.72656 5.082-1.0391 7.5898-0.24219 2.5156-0.65625 5.0117-1.2461 7.4648-0.625 2.3125-1.3984 4.5547-2.1641 6.8164-0.36328 1.0742-0.54688 2.1992-0.875 3.2852l-0.29297 0.85547v0.003906c-1.6055 0.54297-3.1562 1.2344-4.6328 2.0664-3.4375 1.9453-5.625 5.5312-5.7852 9.4805-0.023438 0.38672 0.26172 0.72656 0.64844 0.76562 0.38672 0.035157 0.73437-0.23828 0.78516-0.62109 0.78906-4.1094 5.5195-5.8125 9.0352-7.168 3.0391-1.1719 7.4102-2.7773 8.8242-6v-0.003907c0.097656-0.26562 0.046875-0.56641-0.13281-0.78516-0.17969-0.22266-0.46484-0.33203-0.74609-0.28906z"/>
  <path d="m396.21 368.4c-0.30859-1.9102-1.0195-3.7109-1.4727-5.5859-0.46094-1.9023-0.79688-3.8359-1.1992-5.75-0.46875-1.9258-0.76953-3.8906-0.90625-5.8672-0.082031-2.125 0.17188-4.1641 0.26953-6.2773 0.11328-2.4688-1.8633-18.766-6.8633-15.289-0.53516 0.37109-0.10937 1.3633 0.53125 1.1875 1.4531 6.4023 2.5273 12.883 3.2188 19.41 0.33203 6.4102-1.1992 14.16 3.3398 19.551 0.50781 0.59375 1.3438 0.78125 2.0586 0.46094 0.71094-0.31641 1.1289-1.0664 1.0234-1.8398z"/>
  <path d="m392.23 313.11c-3.9766 0.52344-7.4805 2.8828-9.457 6.375-2.3555 4.0625-3.0039 8.8945-1.8047 13.438 0.082031 0.44922 0.48438 0.77344 0.94141 0.76172 0.45703-0.015625 0.83984-0.35547 0.89844-0.8125 0.16406-4.043 1.1758-8.0039 2.9727-11.629 0.82422-1.4844 1.8633-2.8398 3.0898-4.0156 1.207-1.1211 2.6719-1.9844 3.7773-3.1992 0.12109-0.16797 0.14062-0.38672 0.054687-0.57812-0.085937-0.1875-0.26562-0.31641-0.47266-0.33984z"/>
  <path d="m388.79 376.84c-1.2031-2.9258-2.0195-5.9883-2.4375-9.1211-0.078125-1.8359-0.039062-3.6758 0.11719-5.5039-0.050782-1.6133-0.20703-3.2227-0.46484-4.8164-0.41797-3.3359-0.85156-6.6602-1.3633-9.9844h-0.003907c-0.25-3.4297-1.0664-6.7969-2.4141-9.9648-0.10156-0.21875-0.32812-0.35547-0.57031-0.34766-0.24219 0.007813-0.45703 0.16016-0.55078 0.38281-0.85547 3.1758-1.1055 6.4883-0.74219 9.7578 0.13281 3.8008 0.41016 7.5664 0.75391 11.355 0.32422 3.5781 1.5312 6.8477 1.9688 10.391h0.003906c0.19141 3.2422 0.875 6.4375 2.0312 9.4766 0.46875 0.98437 1.6328 1.4141 2.6289 0.97266 0.99219-0.44141 1.457-1.5938 1.043-2.5977z"/>
  <path d="m429.59 315.09c-1.3945-0.19922-2.8164 0.074218-4.043 0.77344-1.6641 0.73828-3.3984 1.3086-5.1797 1.7031-0.81641 0.1875-0.61328 1.4766 0.20312 1.2891 1.7891-0.44531 3.6172-0.69531 5.4609-0.74219 1.4648 0.082031 2.9141-0.33203 4.1172-1.1758 0.3125-0.27344 0.4375-0.70703 0.32031-1.1055-0.12109-0.39844-0.46484-0.6875-0.87891-0.74219z"/>
  <path d="m413.41 305.32c-0.3125-0.046875-0.62891 0.003906-0.90625 0.14453-0.59766 0.25781-1.0039 0.82031-1.0664 1.4688-0.023438 2.9219-3.2227 4.3516-5.2461 5.9297-2.1758 1.6992-5.2266 4.625-8.2422 3.8867v0.003906c-0.29297-0.10156-0.61328 0.050781-0.72266 0.33984-0.10547 0.28906 0.035156 0.61328 0.32422 0.73047 3.4414 1.2031 7.2695 0.26953 9.7695-2.3828 1.7109-1.3086 3.3594-2.6953 5.0273-4.0664h-0.003906c1.4336-0.91797 2.4062-2.4023 2.6836-4.082 0.078124-0.98828-0.63672-1.8594-1.6172-1.9727z"/>
  <path d="m355.95 438.84c-2.1016 1.3086-3.2383 4.0352-4.7383 5.9648l-0.003906-0.003906c-0.85547 1.2344-1.9297 2.3008-3.1641 3.1523-1.207 0.69531-2.3477 1.5078-3.4023 2.4258-3.7695 2.8281-6 7.2656-6.0195 11.98 0.019531 0.6875 1.0391 0.68359 1.2539 0.125 1.8906-4.8555 6.9883-7.0195 9.9023-11.016 1.4688-2.0117 3.1406-3.7461 4.7422-5.6641h0.003906c1.6992-1.5977 2.8203-3.7188 3.1836-6.0234 0.027343-0.42578-0.19922-0.83203-0.57813-1.0352-0.37891-0.20312-0.83984-0.16797-1.1797 0.09375z"/>
  <path d="m431.04 450.57c-9.3242 2.6953-18.465 5.9141-27.828 8.5195-4.4609 1.2383-8.9258 2.6484-13.258 4.2812l0.003907-0.003906c-2.0625 0.75391-4.0742 1.6367-6.0273 2.6445-1.8516 1.125-3.5938 2.4141-5.2148 3.8516-0.69531 0.53906 0.13672 1.4609 0.83984 1.0273 2.0469-1.0469 4.2188-1.8359 6.4609-2.3398 2.1445-0.63672 4.3359-1.0977 6.5195-1.5898 4.457-0.97266 8.8438-2.2461 13.125-3.8203 8.8477-3.082 17.488-6.7344 25.863-10.934 0.79688-0.42578 0.51172-1.9258-0.48438-1.6367z"/>
  <path d="m391.79 484.54c-3.2695 0.97266-6.6055 1.7148-9.9844 2.2109-3.3828-0.058594-6.7539-0.45312-10.059-1.1758-2.9961-0.63672-6.0625-0.85547-9.1172-0.65234-2.8672 0.46875-5.6055 1.5312-8.0391 3.1172-0.66406 0.36719-0.1875 1.4531 0.48047 1.0859 3.1172-1.2188 6.5391-1.4258 9.7812-0.58594 3.2148 0.47266 6.3789 1.168 9.5664 1.7812 6.3398 1.957 13.223 0.94531 18.727-2.7578 0.57812-0.5 0.75781-1.3203 0.44531-2.0156-0.3125-0.69922-1.043-1.1055-1.8008-1.0078z"/>
  <path d="m486.63 465.07c-0.92578 0.16406-1.8164 0.48047-2.6406 0.93359-0.96484 0.28906-1.9766 0.39063-2.9805 0.29688-1.6914-0.19922-3.3516-0.60547-4.9414-1.207-3.3594-1.207-6.4648-3.0273-9.1523-5.375-4.1836-4.3828-8.7344-8.4023-13.598-12.02 2.082-3.7344 3.8398-7.6406 5.2617-11.672 0.79297-3.1055 3.0391-5.6328 6.0312-6.7812 2.9492-0.78125 5.7031-2.1836 8.0703-4.1133 0.69922-0.68359 0.046875-1.9688-0.94141-1.5312-4.8672 2.168-10.785 1.668-14.602 5.9492v0.003906c-1.7422 2.3086-3.0469 4.9141-3.8477 7.6914-1.1016 2.9688-2.4453 5.8398-4.0234 8.582-1.5234 2.582-3.3164 4.9922-5.3516 7.1953-2.3438 2.4453-5.1602 4.3906-8.2812 5.7148-6.2812 2.9805-12.371 6.5312-18.352 10.066-3.3555 1.9844-6.8008 3.9219-9.9805 6.1836-3.3477 2.3789-6.1133 5.4531-9.4531 7.8398-0.49609 0.35156 0.039063 1.25 0.56641 0.92578l0.003906-0.003906c3.1094-1.7148 6.3125-3.25 9.5977-4.5977 3.1172-1.4492 6.0156-3.3828 8.9883-5.0977 6.1875-3.5703 12.465-6.9727 18.793-10.285 5.6406-2.8008 10.625-6.7734 14.609-11.648 0.56641-0.75 1.1016-1.5195 1.6133-2.3047 4.1055 5.7617 8.9531 10.961 14.418 15.457 2.9609 2.4609 6.4922 4.1445 10.273 4.8945 1.9258 0.23828 3.8789 0.21484 5.8008-0.070313 2.0039 0.046876 3.9727-0.52344 5.6367-1.6367 0.64453-0.5625 0.84766-1.4766 0.49609-2.2578-0.34766-0.78125-1.168-1.2422-2.0156-1.1328z"/>
  <path d="m490.23 450.11c-0.67969-3.6406-1.6133-7.2344-2.7852-10.746-2.1328-7.2148-5.5625-13.984-10.117-19.973-0.52734-0.65625-1.8008-0.17969-1.5781 0.70703 1.793 7.0195 4.4492 13.734 6.7969 20.586 1.1719 3.418 2.2812 6.8555 3.4453 10.273h0.003906c0.92578 3.5781 2.1875 7.0664 3.7695 10.41 0.14453 0.29687 0.46875 0.46875 0.79688 0.41406 0.32812-0.050781 0.58203-0.3125 0.625-0.64453 0.27734-3.7031-0.042968-7.4258-0.95703-11.027z"/>
  <path d="m349.32 464c-1.6406 1.1562-3.543 1.875-5.5352 2.1016-0.98438 0.12891-2.0742-0.023437-3.1094 0.019532-2.2656-2.1797-6.0664-4.9023-8.7344-3.7422-0.18359 0.085938-0.30859 0.26172-0.33203 0.46484-0.019531 0.20312 0.066406 0.40234 0.23047 0.52344 1.3477 1.1055 3.0391 1.6602 4.3828 2.8594 1.2148 1.082 2.3281 2.2773 3.3203 3.5625 1.9141 2.6367 3.457 5.5273 4.5781 8.582 0.16406 0.35156 0.53906 0.54687 0.92188 0.48828 0.37891-0.0625 0.67188-0.36719 0.72266-0.75 0.14453-3-0.64453-5.9727-2.2578-8.5078l1.2969-0.28125c2.3906-0.71094 4.3672-2.4102 5.4258-4.668 0.27344-0.55859-0.48438-0.95703-0.91016-0.65234z"/>
  <path d="m325.7 464.16c-2.2695 1.332-4.3438 2.9688-6.168 4.8594-0.82031 0.83594-1.5703 1.7344-2.2539 2.6875-0.66016 1.0898-1.0938 2.3008-1.2695 3.5625-0.09375 0.27344 0.007813 0.57422 0.24219 0.74219s0.55078 0.16406 0.78125-0.011719c0.875-0.53906 1.6836-1.1797 2.4023-1.9102 0.75781-1.0273 1.4609-2.0977 2.1016-3.1992 1.3203-2.1797 3.0078-4.1133 4.9844-5.7188 0.69922-0.51172-0.12891-1.4375-0.82031-1.0117z"/>
  <path d="m371.7 536.9c-7.3359-0.875-14.723-1.2891-22.109-1.2422-3.1953 0.20703-6.2969-1.1016-8.3867-3.5234-1.6367-2.4922-0.37109-6.1406-1.1172-8.9688h0.003906c-1.8945-5.2695-6.1055-9.3828-11.418-11.152-4.9648-2.1875-11.176-3.8125-13.883-8.9961-1.3789-2.9922-1.9688-6.2891-1.707-9.5781 0.10156-3.4062 0.92578-6.7578 1.0195-10.137 0.015626-0.60938-0.82422-1.0586-1.1992-0.44922l-0.003906 0.003907c-1.5469 2.7383-2.6797 5.6914-3.3633 8.7617-0.83203 3.0391-1.0859 6.2109-0.73828 9.3438 1.1992 6.4414 5.7031 11.781 11.852 14.051 5.0078 2.3359 12.059 4.1953 14.836 9.5078 1.5469 2.9609 0.4375 6.4492 2.2695 9.4219h0.003906c1.6875 2.5352 4.2344 4.3711 7.1719 5.168 4.2852 0.97266 8.6719 1.4453 13.066 1.4023 4.5938 0.40625 9.2109 0.44922 13.809 0.13672 2.2656-0.23047 1.8867-3.3789-0.10547-3.75z"/>
  <path d="m371.3 528.1c-0.84375-2.5273-3.4062-3.2422-4.6914-5.3281-0.8125-1.3203 1.5-3.5703 1.6914-5.1758 0.5625-4.7227-5.3711-6.9062-8.9336-7.9062-0.94141-0.26562-2.1758-0.48047-2.6445-1.4609-0.26562-1.0625-0.22266-2.1758 0.12109-3.2148 0.65625-2.5391 0.875-5.1758 0.64453-7.7891-0.45703-2.7578-1.5117-5.3789-3.0938-7.6836-1.4805-2.2969-3.3086-4.3555-5.4141-6.0938-0.45703-0.35156-1.3008 0.09375-1.1289 0.70313 0.72266 2.5781 2.0508 5.0664 2.9219 7.6211v-0.003906c1.0859 2.6641 1.5664 5.5312 1.4102 8.4023-0.58594 2.4727-0.97266 4.9883-1.1562 7.5234 0.054687 2.6211 1.5273 5.0078 3.8516 6.2305 2.2266 0.77734 4.5859 1.1055 6.9453 0.96094 1.0312 0.10938 2.7305 0.58594 2.0898 1.8789-0.46094 0.92969-1.6172 1.5391-2.1836 2.4492-1.3555 2.2227-1.082 5.0742 0.66797 6.9961 1.625 1.9531 4.1641 2.5938 6.0625 4.207 1.5703 1.3438 3.3711-0.73047 2.8398-2.3164z"/>
  <path d="m360.55 525.78c-1.6484-1.1992-3.082-2.6719-4.2344-4.3555-1.8789-1.9062-4.2188-3.3008-6.793-4.043-2.543-1.0586-3.4766-4.3477-3.9414-6.8242-0.60156-3.1797-0.71094-6.4336-0.33203-9.6484 0.13281-1.1797-1.7148-1.6641-2.0664-0.48047-1.9492 6.6016-4.3477 15.387 2.0273 20.523l0.003906 0.003906c1.3945 0.9375 2.9258 1.6523 4.543 2.1133 1.2461 0.55078 2.3164 1.4336 3.0898 2.5508 1.8672 2.2305 4.3047 4.4102 7.3828 3.3516 0.60156-0.27344 1.0117-0.84766 1.0781-1.5039s-0.22266-1.3008-0.75781-1.6875z"/>
  <path d="m338.23 506.49c-0.86328-2.7852-3.5195-4.6211-6.4297-4.4414-3.7539-0.20312-7.0312 1-9.7383-2.4414l0.003906-0.003906c-0.19141-0.28516-0.55859-0.39453-0.87109-0.25391-0.3125 0.13672-0.48047 0.48438-0.39453 0.81641 0.53906 2.8438 2.5195 5.1992 5.2305 6.2227 3.125 1.1758 6.7891 0.28125 9.6367 2.1953 1.3867 0.93359 2.875-0.73828 2.5625-2.0938z"/>
  <path d="m345.11 486.97c-1.0352 2.043-2.1992 4.0625-3.3672 6.0273-1.0391 2.125-2.3594 4.1016-3.9297 5.8672-0.25781 0.21484-0.29688 0.59375-0.085938 0.85547 0.21094 0.25781 0.59375 0.29688 0.85156 0.082032 2.3789-1.2617 4.4766-2.9883 6.1758-5.0781 1.4844-2.1445 2.3477-4.6562 2.4883-7.2578 0.039062-0.54688-0.32422-1.0391-0.85547-1.1602s-1.0742 0.16016-1.2773 0.66406z"/>
  <path d="m422.46 275.73c-1.3633-5.3906-4.625-10.109-9.1797-13.293-5.207-2.9062-11.273-3.8789-17.125-2.7461-5.8555 1.1328-11.121 4.2969-14.867 8.9375-2.0078 2.5-3.4258 5.4219-4.1445 8.5508-0.34375 3.1133-0.13281 6.2656 0.625 9.3086 0.0625 0.55859 0.89453 0.41016 0.85156-0.13672-0.019532-1.8555 0.42969-3.6875 1.3086-5.3203 0.58203-1.4336 1.0625-2.8984 1.7344-4.3008v-0.003906c1.2305-2.668 2.9648-5.0703 5.1055-7.082 4.4805-4.0547 10.449-6.0625 16.473-5.543 2.9492 0.25781 5.7695 1.3281 8.1484 3.0977 2.375 1.7656 4.2109 4.1602 5.3047 6.9102 1.1797 2.8867 1.8711 5.9453 2.0469 9.0586 0.32422 3.9062 0.60547 7.7734 0.70703 11.699 0.03125 1.2148 1.9336 1.9805 2.3086 0.53516h0.003906c2.0391-6.3672 2.2812-13.176 0.69922-19.672z"/>
  <path d="m405.62 277.2c-2.6289-0.46094-5.2969-0.64453-7.9648-0.54688-2.3672-0.40625-4.7969-0.24609-7.0938 0.46484-1.7734 0.63281-3.3359 1.75-4.5 3.2305-1.1602 1.6523-1.9414 3.5391-2.293 5.5273-0.12109 0.35156 0.0625 0.73438 0.41016 0.86328 0.34766 0.12891 0.73828-0.042969 0.875-0.38672 1.8945-3.0039 5.168-4.8594 8.7188-4.9375 1.9883-0.19141 3.8867-0.55078 5.8594-0.79297 2.0508 0.058594 4.0977-0.20312 6.0703-0.77734 0.51953-0.24609 0.83984-0.77344 0.82422-1.3477-0.019531-0.57422-0.37109-1.082-0.90625-1.2969z"/>
  <path d="m415.29 284.56c-0.44922-0.46094-1.0273-0.77734-1.6562-0.91797 1.4961-0.85156 2.1953-2.6328 1.6758-4.2734-0.375-0.82422-1.3398-1.1953-2.1719-0.83984-0.87891 0.37891-1.2031 1.0234-1.8945 1.6328l-0.003906-0.003906c-0.75391 0.61328-1.6289 1.0586-2.5703 1.3008-2.332 0.57812-4.6992 1.0039-7.0898 1.2734-0.33594 0.058594-0.56641 0.37891-0.51172 0.71875s0.37109 0.57031 0.71094 0.52344c1.9336 0.089844 3.8516 0.42969 5.6992 1.0117 0.66406 0.082031 1.3359 0.10547 2.0039 0.066407-0.92187 1.1445-1.5352 2.5078-1.7734 3.957-0.15234 0.70703 1.0312 0.98047 1.2383 0.28906h-0.003906c0.34375-1.2383 1.4297-2.125 2.7148-2.2109 1.3398 0.007812 1.1367 1.5469 1.1953 2.6094v0.003906c-0.078125 2.1133-0.42578 4.2109-1.0352 6.2383-0.26172 1.375 1.4609 1.9648 2.418 1.2969 1.7109-1.4883 2.6328-3.6875 2.4961-5.9492 0.33203-2.3398-0.17969-4.7266-1.4414-6.7266z"/>
  <path d="m394.69 293.37c-1.2227-0.83203-2.3711-0.22656-3.5977 0.33203-1.3789 0.6875-2.8672 1.1211-4.3945 1.2852-0.78516 0.066406-0.69922 1.2461 0.039062 1.3398 2.1016 0.26562 7.6641 1.4453 8.4062-1.4805v-0.003906c0.18359-0.53906 0-1.1328-0.45312-1.4727z"/>
  <path d="m391.64 304.04c-0.80078-0.27734-1.4922 0.18359-2.2656-0.039063h-0.003906c-0.76172-0.17969-1.3828-0.73047-1.6523-1.4609-0.20312-1.0078 0.57031-3.8008-1.3438-3.5938-0.22656 0.039062-0.40234 0.22266-0.42969 0.45312-0.023437 0.49609-0.085937 0.98828-0.19141 1.4727-0.20312 0.51172-0.33203 1.0469-0.37891 1.5938 0 1.0859 0.375 2.1367 1.0586 2.9805 1.2578 1.5039 5.0547 2.7773 5.9844 0.28906 0.24219-0.68359-0.10156-1.4336-0.77734-1.6953z"/>
  <path d="m397.77 307.54c-0.46875-0.44531-1.1992-0.47266-1.7031-0.0625l-0.51953 0.46484-0.25 0.17969-0.15234 0.12891-0.52734 0.33594-0.44922 0.33594-0.14062 0.13281c-0.5625 0.17969-0.41797 0.96484 0.035156 1.1641l0.25 0.22266 0.63281 0.23047h0.003906c0.34766 0.054687 0.70703 0.035156 1.0469-0.058594 0.80078-0.20312 1.4961-0.69141 1.9531-1.3789 0.36719-0.53125 0.28906-1.25-0.17969-1.6953z"/>
  <path d="m331.78 471.39c-0.29688-3.0078-4.8281-3.5898-6.4141-1.3281l0.003906 0.003906c-0.22656 0.32422-0.29297 0.73438-0.17578 1.1133 0.11719 0.37891 0.40234 0.68359 0.77344 0.82422 0.80469 0.19531 1.625 0.20312 2.4336 0.38672 0.82031 0.17969 1.6602 0.25 2.5 0.21094 0.57422-0.097656 0.96484-0.63281 0.87891-1.2109z"/>
  <path d="m332.29 485.85c-0.68359-0.35938-1.4453-0.53516-2.2148-0.51953-0.39453 0-0.78125 0.082031-1.1445 0.24219l-0.73047 0.53125c-0.54297 0.26172-0.49219 1.2461 0.19922 1.2461v-0.003906c0.41797 0.10938 0.81641 0.28516 1.1758 0.51953 0.38672 0.16406 0.74609 0.37891 1.0703 0.64062 0.73828 0.61328 1.3828 1.332 1.9102 2.1328 0.58594 0.90234 1.832 0.24609 1.9922-0.60156 0.28516-1.7461-0.64062-3.4688-2.2578-4.1875z"/>
  <path d="m312.57 479.18c-0.25391 0.22266-0.33594 0.58594-0.19531 0.89844 0.13672 0.30859 0.46484 0.49219 0.80078 0.45312 1.6523 0.16016 3.0781 1.2148 3.7227 2.7422 0.18359 0.39062 0.58594 0.63672 1.0195 0.625 0.43359-0.011719 0.82031-0.28125 0.98047-0.6875 0.46094-1.6602-0.21875-3.4297-1.6719-4.3555s-3.3438-0.79688-4.6562 0.32422z"/>
  <path d="m333.16 496.84c-2.332-1.2969-4.9922-1.8906-7.6562-1.707-2.1875-0.21094-6.2812-0.96094-7.0078-3.5352-0.074219-0.39062-0.44141-0.65234-0.83594-0.58984-0.39062 0.0625-0.66016 0.42578-0.61328 0.81641 0.14062 2.8984 2.0664 5.4062 4.832 6.2852 1.6328 0.52734 3.3281 0.82812 5.0391 0.89062 1.875 0.24609 3.7617 0.37109 5.6484 0.375 1.3203-0.066406 1.457-1.8477 0.59375-2.5352z"/>
 </g>
</svg>