<?xml version="1.0" encoding="UTF-8"?>
<!-- Uploaded to: ICON Repo, www.iconrepo.com, Generator: ICON Repo Mixer Tools -->
<svg fill="#000000" width="800px" height="800px" version="1.1" viewBox="144 144 512 512" xmlns="http://www.w3.org/2000/svg">
 <g>
  <path d="m365.31 387.88c-2.4492 1.8398-5.5703 2.543-8.5703 1.9414-3.4023-0.066406-6.8516-0.46094-10.227-0.86719v-0.003906c-3.3281-0.23047-6.5352-1.3477-9.2812-3.2383-2.6953-1.9883-4.7812-4.6914-6.0273-7.8008-1.1836-3.4922-1.9766-7.1055-2.3711-10.773-0.61719-3.543-0.92578-7.1328-0.92188-10.73 0.35156-3.2734 1.0508-6.4961 2.0898-9.6211 0.78906-2.9648 1.2109-6.0156 1.2578-9.0859 0.015626-0.71094-1.0586-0.83594-1.1133-0.11328-0.44141 5.8086-4.8594 10.676-6.0117 16.375l0.003907 0.003906c-0.33984 6.4258 0.42188 12.859 2.2461 19.027 0.085938 3.1016 0.71875 6.1641 1.8672 9.0469 1.5391 2.4414 3.5742 4.5352 5.9805 6.1367 1.5039 1.4688 3.2305 2.6914 5.1094 3.625-0.73828 4.5312-0.91016 9.1367-0.51562 13.711 0.56641 5.4336 1.8008 10.781 3.6758 15.914 1.457 5.25 2.2539 10.66 2.3633 16.109 0.30078 5.6328 0.49609 11.27 0.80078 16.902 0.59375 5.6797 0.72266 11.398 0.38281 17.098-0.62109 5.6289-2.3711 11.031-2.8047 16.699-0.84375 10.98 0.84375 21.926 0.96094 32.898 0.058594 5.5391-0.80469 10.953-0.95703 16.465v0.003906c-0.81641 4.5234 1.043 9.1094 4.7773 11.789 1.1875 0.62109 2.7812-1.0312 2.0664-2.1953-1.0586-1.5078-1.8242-3.1953-2.2656-4.9844-0.28906-1.9883-0.30078-4.0117-0.03125-6.0039 0.63281-4.8438 1-9.7188 1.0977-14.602-0.085937-10.832-1.707-21.656-0.91406-32.492 0.39844-5.4102 1.8984-10.551 2.6719-15.895 0.49219-5.2617 0.46484-10.559-0.089844-15.816-0.3125-5.4883-0.66016-10.973-1.043-16.453-0.11328-5.4375-0.64844-10.863-1.5938-16.223-1.2734-5.6484-3.8008-10.941-5.043-16.594-0.60547-2.8945-0.96875-5.832-1.0938-8.7852-0.125-2.3281-0.054687-4.6836-0.22656-7.0156l0.023437 0.003907c1.5117 0.11719 3.0742-0.09375 4.5938-0.03125 1.7461 0.070312 3.4844 0.21484 5.2266 0.34766h-0.003906c5.2812 1.3398 10.883-0.15234 14.801-3.9375 0.42969-0.53906-0.38281-1.3164-0.89062-0.83594z"/>
  <path d="m411.18 370.7c-0.10156-0.55469-0.52344-0.99609-1.0703-1.125-0.55078-0.12891-1.125 0.082031-1.4609 0.53516-1.4727 2.6016-2.6172 5.3711-3.4102 8.2539-1.1289 2.8984-2.2812 5.7773-3.5977 8.5977-2.5664 5.5312-5.6172 10.824-9.1172 15.816-2.6758 4.6875-6.9844 8.2227-12.105 9.9375-4.418 0.82812-8.957-0.57031-12.148-3.7344-0.28125-0.25-0.63672 0.085937-0.62109 0.38672 0.60938 3.8711 3.7656 6.8398 7.6641 7.2148-0.51562 0.95703-0.79688 2.0547-1.3828 3.0195v-0.003906c-0.81641 1.3281-1.8594 2.5-3.0859 3.4648-1.3047 1-2.7617 1.7812-4.3203 2.3086-1.9141 0.83984-4 1.2188-6.0898 1.1133-0.58984-0.10547-0.83594 0.89844-0.24219 1.0352h0.003906c1.9961 0.73047 4.1055 1.1133 6.2344 1.1289 2.25-0.22656 4.4062-1.0156 6.2734-2.293l0.050781-0.035157-0.53125 2.4648c-0.78125 3.8281-1.5586 7.6484-2.1484 11.512-1.2031 7.832-2.2617 15.691-3.3789 23.539-1.1445 8.0195-1.7539 16.047-3.2227 24.031-1.4414 7.832-2.6133 15.695-3.6875 23.582-0.60547 4.4297-1.1641 8.8359-1.4844 13.297-0.33203 4.6055-0.98047 9.1445-0.97656 13.77 0 1.3203 2.0117 2.0586 2.4453 0.56641 1.0898-3.7695 1.7227-7.5742 2.4531-11.422 0.47266-2.4805 0.98828-4.9453 1.4531-7.418l-0.003906-0.003907c1.4727 0.21484 2.9766-0.003906 4.3281-0.62891 0.61328-0.32031 1.168-0.73828 1.6445-1.2383 0.49609-0.62109 0.89453-1.3086 1.1875-2.0469 0.1875-0.28125 0.14062-0.65625-0.10547-0.88672s-0.62109-0.24609-0.89062-0.042969c-1.7734 0.74609-3.6523 1.2227-5.5664 1.418l0.17188-1.1133c0.79297-5.3945 1.582-10.789 2.2773-16.199 0.40234 0.91016 0.80078 1.7891 1.125 2.6094 1.457 3.6719 3.4141 7.1367 5.1484 10.684v-0.003907c0.14453 0.30078 0.48438 0.45313 0.80078 0.35547 0.32031-0.09375 0.52344-0.40234 0.48047-0.73438-0.55469-3.9258-1.3594-7.8125-2.4062-11.637-0.625-3.4922-2.0469-6.7891-4.1602-9.6367 0.38281-3.7148 0.67578-7.4414 1.2305-11.133 0.60547-4.0078 1.4531-7.9688 2.0703-11.973l0.30859-2.0859c0.32422 0.94531 0.64844 1.875 0.91406 2.7773 0.98438 3.3672 1.9219 6.7461 2.7891 10.148 1.7969 7.0625 3.3008 14.191 4.5156 21.391 0.45703 3.1289 1.1641 6.2109 2.1094 9.2266 1.457 3.0664 2.6094 6.2656 3.4414 9.5547 0.69531 2.4414-0.47266 5.0234-2.7578 6.1172-2.3867 0.89453-4.8789 1.4609-7.418 1.6914-0.71875 0.13281-0.9375 1.2734-0.15234 1.5 4.5938 1.3242 11.598 1.0625 13.973-3.9023h0.003907c1.2266-2.9844 0.82031-6.3906-1.0742-9-1.7617-3.4141-2.8828-7.1211-3.3008-10.941-1.1133-8.0547-2.6562-16.043-4.625-23.93-0.95703-3.8398-1.9922-7.6641-3.1406-11.453-0.72266-3.832-2.1328-7.5-4.168-10.824 0.64453-4.6016 1.2656-9.2109 1.9219-13.812 0.64453-4.5469 1.1875-9.0898 1.625-13.66 0.21484-2.2148 0.41797-4.4219 0.56641-6.6445l0.035156-1.4414c1.4727-1.5938 2.3008-3.6758 2.3242-5.8438 5.8359-0.6875 11.113-3.8008 14.535-8.5781 4.3008-5.4219 7.957-11.32 10.898-17.586 1.6133-3.2227 3.0586-6.5273 4.3281-9.9023 1.5078-3.1758 2.3672-6.6211 2.5195-10.133z"/>
  <path d="m369.84 526.15c-1.6641 1.5703-2.9883 3.4688-3.8867 5.5703l-3.4766 6.2773c-0.96484 1.8516-2.0391 3.6484-3.2188 5.375-0.48438 0.67578-3.7266 5.0586-4.5039 4.6445-0.6875-0.36719-1.6406 0.39844-1.0234 1.0977 4.5156 5.0625 18.098-17.977 18.242-21.816v-0.003906c0.039062-0.51953-0.23438-1.0117-0.69531-1.2617-0.46094-0.24609-1.0234-0.19922-1.4375 0.11719z"/>
  <path d="m388.59 473.4c-0.23047-1.9883-0.57812-3.9648-1.0391-5.9141-0.62891-1.9609-1.3984-3.875-2.0156-5.8398-1.2852-4.1719-2.3359-8.4141-3.1445-12.703-1.6367-8.4062-1.8828-17-3.4766-25.406v-0.003906c-0.039063-0.20703-0.22656-0.35938-0.4375-0.35156-0.21484 0.007812-0.39062 0.16797-0.41797 0.37891-0.69531 8.7773-0.47266 17.605 0.66016 26.34 0.44141 4.2812 1.2305 8.5234 2.3594 12.676 0.53906 2.0938 1.2109 4.1523 2.0156 6.1562 1.0234 1.9883 2.3633 3.8008 3.9648 5.3594 0.25391 0.28906 0.66797 0.37891 1.0195 0.21875 0.35547-0.15625 0.5625-0.52734 0.51172-0.91016z"/>
  <path d="m410.95 526.19c-1.6055-5.7227-3.4414-11.305-5.5664-16.859-2.2148-5.7891-4.2031-11.672-6.3164-17.5v0.003906c-1.8047-5.707-4.3047-11.176-7.4414-16.273-0.39453-0.58984-1.2227-0.070313-1.168 0.52344 0.79687 5.8633 2.3125 11.605 4.5078 17.102 2.0117 5.7188 4.168 11.395 6.0781 17.145 1.8164 5.4727 3.9375 10.797 5.9219 16.203 1.9961 5.4297 2.8828 11.184 4.5547 16.711 0.30078 0.99609 1.7148 0.55859 1.8398-0.29297h0.003907c0.42187-5.6953-0.40234-11.414-2.4141-16.762z"/>
  <path d="m410.64 546.05c-1.5977 2.25-3.082 4.582-4.4453 6.9805-1.582 1.7422-2.4375 4.0234-2.3945 6.375 0.050781 0.30469 0.23828 0.57031 0.51172 0.71875 0.26953 0.14453 0.59375 0.16016 0.87891 0.039062 1.9062-1.3711 3.2305-3.4023 3.7188-5.6992 0.89844-2.6094 2.4453-5 3.1562-7.6562h0.003907c0.12891-0.38281-0.039063-0.80078-0.39453-0.98828-0.35547-0.1875-0.79297-0.089844-1.0352 0.23047z"/>
  <path d="m426.55 532.2c-0.41406-0.47656-1.0977-0.62891-1.6758-0.36719-0.57812 0.25781-0.91797 0.86719-0.83984 1.4961 0.16406 2.7461-0.039062 5.5-0.60156 8.1953-0.29297 1.6016-0.60156 3.1914-0.8125 4.8047-0.19531 1.5156-0.125 3.0586-0.38672 4.5508-0.26562 1.5586-0.85547 3.0469-1.7344 4.3672-0.75 0.91406-1.6562 1.6797-2.6797 2.2656-2.5273 1.4883-5.2852 2.5312-8.1641 3.0898-0.19141 0.089844-0.30859 0.28516-0.30469 0.49609 0.007812 0.21094 0.13672 0.39844 0.33594 0.47656 3.2461 0.55469 6.582 0.26953 9.6875-0.82812 3.0625-0.78125 5.1484-3.6172 4.9805-6.7695 0.44141-6.7539 7.3242-15.273 2.1953-21.777z"/>
  <path d="m413.32 386.79c-0.085938-2.1328-0.50391-4.2344-0.38281-6.375 0.035156-0.59766-0.89453-0.69531-0.92969-0.09375-0.21484 3.8086-1.4688 7.6641-2 11.465-0.53516 3.8359-0.99609 7.6797-1.4336 11.527-0.83984 7.418-1.8672 14.812-3.0781 22.184l0.003906-0.003907c-4.2422 13.516-4.1055 28.023 0.38672 41.457 0.17969 0.37109 0.60156 0.55859 0.99609 0.44141 0.39453-0.11328 0.64844-0.5 0.59766-0.91016-1.543-13.969-0.75391-28.098 2.3281-41.805 1.1289-7.2344 2.1094-14.504 2.8359-21.793 0.35547-3.582 0.59766-7.168 0.69531-10.766 0.050781-1.7695 0.050781-3.5586-0.019531-5.3281z"/>
  <path d="m422.66 520.23c-0.34766-2.8359-0.41406-5.707-0.625-8.5547-0.41406-5.5781-0.56641-11.176-1.2109-16.734h-0.003907c-0.023437-9.7695-4.25-19.055-11.602-25.484-0.48047-0.30859-1.2539 0.1875-0.9375 0.76953 2.3242 3.9922 4.2734 8.1914 5.8242 12.547 1.4609 4.7148 2.4023 9.5781 2.8008 14.5 0.51562 5.3906 0.66406 10.812 1.1719 16.207 0.3125 2.7031 0.80078 5.3867 1.4531 8.0273 0.37109 2.5039 1.3047 4.8867 2.7383 6.9727 0.1875 0.21875 0.48828 0.30469 0.76172 0.22266 0.27734-0.082031 0.47656-0.32031 0.51562-0.60938-0.050781-2.6445-0.34766-5.2773-0.88672-7.8633z"/>
  <path d="m399.39 469c0.125-1.5352-0.09375-3.082-0.64062-4.5195-0.078125-0.17188-0.24219-0.28516-0.42578-0.30469-0.1875-0.019531-0.37109 0.0625-0.48047 0.21094-0.88281 1.3984-1.3594 3.0156-1.3789 4.6719-0.34375 1.7188-0.23438 3.4961 0.32031 5.1562 0.20703 0.43359 0.64844 0.70703 1.1328 0.69141 0.48047-0.011719 0.90625-0.3125 1.0859-0.75781 0.46875-1.6719 0.60156-3.4219 0.38672-5.1484z"/>
  <path d="m354.26 369.37c-3.168-0.1875-6.332 0.44531-9.1836 1.8359-1.4062 0.61328-2.7422 1.375-3.9883 2.2656l-1.1406 0.89062c-0.42188-0.99219-0.74609-2.0234-0.96094-3.082-0.54297-1.7148-1.2109-3.4141-1.8711-5.082-1.3945-3.5117-3.375-6.6641-4.9922-10.062-0.24609-0.51562-1.1445-0.30078-0.99609 0.29297 1.125 4.6016 1.8203 9.1484 3.3984 13.645l-0.003906 0.003906c0.51562 2.1445 1.5117 4.1445 2.9141 5.8477-0.32422 0.14062-0.6875 0.15625-1.0195 0.046875-0.5-0.21484-0.77734 0.5625-0.29297 0.78906 1.3594 0.63281 1.9883 1.4883 3.6484 1.0859 1.6016-0.63672 3.1055-1.4922 4.4688-2.543 3.2812-1.8438 7.125-2.1211 10.328-4.0078v0.003906c0.40625-0.19922 0.63281-0.63672 0.5625-1.082-0.070312-0.44141-0.42187-0.78906-0.87109-0.84766z"/>
  <path d="m366.14 380.9c-2.9844-1.582-6.2852-2.4609-9.6602-2.5703l-2.375-0.12891c-0.58203-0.019531-2.3242 0.29297-2.793 0.003906l-0.12891 0.23438 0.36719-1.2227c0.16797-0.97656 0.52344-1.9102 1.043-2.75 0.35547-0.44141-0.33203-1.1094-0.74219-0.69141-1.3477 1.3594-3.1406 2.0195-3.7695 4.0352v-0.003906c-0.28906 0.70703-0.25 1.5078 0.10156 2.1875 0.35156 0.67578 0.98047 1.168 1.7266 1.3438 1.1523 0.14453 2.3164 0.17188 3.4766 0.082031 1.3203 0.035156 2.6406 0.11719 3.9531 0.24609v0.003906c2.7422 0.37109 5.5 0.59375 8.2617 0.66406 0.69141-0.003907 1.3047-0.99609 0.53906-1.4336z"/>
  <path d="m363.75 384.65c-1.1758 0.125-2.3477 0.22266-3.5195 0.39062-1.2812 0.29297-2.5977 0.4375-3.9141 0.42969-0.19922-0.019531-0.375 0.125-0.39453 0.32422s0.125 0.37891 0.32422 0.39844c1.332 0.11328 2.625 0.50781 3.9727 0.49609 1.332-0.042968 2.6523-0.32031 3.8906-0.82031 0.70703-0.26172 0.33203-1.293-0.35938-1.2188z"/>
  <path d="m381.57 366.4c0.86328-1.9219 1.8516-3.75 2.8359-5.6133l0.003906 0.003906c1.043-2.1562 1.957-4.375 2.7305-6.6406 0.21094-0.54688-0.51172-0.85547-0.85547-0.45313-2.8594 3.2031-5.418 6.6641-7.6406 10.34l0.046875-0.61328c0.32422-4.4336 0.82422-8.8555 1.0039-13.301 0.089844-2.0078 0.070313-4.0195-0.050781-6.0273-0.16406-2.4297-0.90234-4.6719-1.2227-7.0547-0.089844-0.66016-1.0703-0.48828-1.0117 0.16016h-0.003906c0.019531 2.4766-0.22266 4.9492-0.71484 7.375-0.30859 2.3945-0.67188 4.7852-1.0625 7.168-0.84766 4.6406-1.4102 9.3281-1.6875 14.039-0.49219 3.6367 0.28906 7.332 2.2109 10.461 2.2148 2.9531 5.7227 3.6484 8.6172 5.582 0.72266 0.48438 2.0156-0.10547 1.7461-1.0859-0.92188-3.3633-3.4453-4.2188-5.8516-6.332h0.003907c-0.60156-0.53516-1.082-1.1914-1.4102-1.9258l0.027344-0.058594c0.83984-1.9805 1.4023-4.0508 2.2852-6.0234z"/>
  <path d="m443.25 344.72c-5.1016 2.168-10.914 1.9023-15.801-0.71484-5.7539-2.2891-9.8945-6.9336-15.434-9.5117v-0.003907c-2.2891-0.875-4.6836-1.4453-7.125-1.6992-2.4219-0.46484-4.9023-0.57812-7.3555-0.33203-2.5625 0.29688-5.0352 1.1289-7.2578 2.4375-2.0859 1.4648-3.9375 3.2383-5.4844 5.2617-0.33594 0.35938 0.097657 0.95312 0.50391 0.61328v0.003907c2.2656-1.5352 4.7969-2.6328 7.4648-3.2305 2.5273-0.79297 5.1328-1.3047 7.7695-1.5234 2.6953-0.26953 5.4141 0.20312 7.8594 1.3711 2.5156 1.1914 4.8828 2.6797 7.0469 4.4375 1.9258 1.5391 3.9609 2.9336 6.0898 4.1719-0.59766 1.7617-0.66406 3.7773-1.2188 5.5508-0.67188 2.1953-1.5703 4.3125-2.6914 6.3164-1.1367 1.9805-2.543 3.7969-4.1797 5.3945-0.64062 0.625-1.5625 1.7383-2.5 1.918-1.0703 0.20703-2.5195-0.98438-3.4258-1.4883h-0.003906c-3.9922-2.25-7.793-4.8242-11.367-7.6992-1.8555-1.4688-3.5664-3.125-5.3047-4.7227-1.8164-1.668-3.8789-3-5.7656-4.5859-0.50781-0.42578-1.1484 0.33203-0.76953 0.82812v0.003906c1.6055 2.3477 3.3359 4.6055 5.1875 6.7656 1.8945 2.0039 3.9023 3.9219 5.9258 5.8008 3.9844 4.0469 8.957 6.9805 14.43 8.5078 4.9883 1.0234 9.0078-4.9492 11.133-8.7578h-0.003906c1.2695-2.2305 2.1797-4.6445 2.6992-7.1562 0.41406-1.7266 0.58594-3.5 0.51172-5.2734 2.4023 1.1523 4.9336 2.0078 7.5352 2.5547 4.5078 0.94141 10.98 1.2344 13.074-3.7891 0.35938-0.85547-0.67578-1.9453-1.543-1.4492z"/>
  <path d="m391.23 317.57c-1.6016 0.24609-3.1719 0.66797-4.6797 1.2617-1.6367 0.39062-3.1602 1.1641-4.4414 2.2539-1.2344 1.4922-2.1875 3.1914-2.8203 5.0195-1.1992 2.1133-2.2031 4.3359-2.9922 6.6367-0.082031 0.33203 0.23438 0.78906 0.60938 0.57422l0.003906 0.003907c1.707-1.0742 3.2109-2.4453 4.4414-4.0469 0.73047-0.84766 1.3828-1.7617 1.9453-2.7305 0.40234-1.0117 0.96094-1.957 1.6562-2.793 2.2578-2.0391 6.7852-1.3398 7.457-5.0664 0.027344-0.31641-0.09375-0.625-0.32422-0.83984-0.22656-0.21875-0.54297-0.31641-0.85547-0.27344z"/>
  <path d="m473.05 246.7c-0.074219-0.39453-0.39844-0.69141-0.79688-0.73047-0.39844-0.042969-0.77734 0.1875-0.92578 0.55859-0.53125 1.3242-1.3594 2.4336-1.957 3.7266-0.69531 1.4922-1.6289 2.8672-2.7578 4.0664-2.4336 2.2266-5.0312 4.2695-7.7695 6.1055-4.9609 4.5547-9.2617 9.7812-12.77 15.527-7.7383 11.078-16.527 21.387-26.238 30.785-3.3828-3.8008-8.7188-3.9219-13.445-5.6289v-0.003907c-1.3789-0.48828-2.6953-1.1445-3.918-1.9531-1.4336-0.71484-2.3789-2.1406-2.4727-3.7422-0.39453-3.2852-0.53125-6.5938-0.40234-9.9023 1.1758-1.4297 1.5547-3.3594 1.0078-5.1289-0.125-0.27734-0.37109-0.48047-0.66797-0.55078-0.29688-0.070313-0.60938 0-0.84375 0.19141-1.9062 1.5898-2.9258 4.0117-4.7734 5.7031-2.3477 2.1523-5.4805 2.0352-8.2578 3.1836-0.25391 0.11719-0.41406 0.37891-0.40625 0.66016 0.011718 0.27734 0.18359 0.52734 0.44531 0.63281 4.043 1.0352 8.3359 0.035157 11.508-2.6797-0.78906 2.6172-1.3477 5.2969-1.6719 8.0078-0.46094 3.3594 1.5234 6.5742 4.7383 7.668 2.9648 1.25 6.2148 1.7148 9.1758 2.9141 2.3672 0.95703 4.7461 2.0977 7.0547 3.2773h-0.003906c-2.25 1.9531-4.625 3.7578-7.1094 5.4023-1.5938 1.0508-3.2109 2.0625-4.8516 3.0391-0.6875 0.375-1.3281 0.83203-1.9102 1.3594-1.5312-1.0391-3.0156-2.1914-4.6406-3.2852h0.003906c-3.5273-2.6133-7.8828-3.8555-12.258-3.4922-0.20312 0.039062-0.36719 0.19531-0.41797 0.40234-0.046875 0.20312 0.03125 0.41797 0.19922 0.54297 1.75 1.1289 3.6289 2.0469 5.5977 2.7344 1.9883 0.91797 3.8789 2.0508 5.6289 3.3711 3.0859 2.7266 6.6758 4.8242 10.57 6.1719 3.7188 0.92188 7.4961 1.6055 11.301 2.0508 1.8555 0.23828 3.6875 0.64062 5.4766 1.1953 1.9219 0.48438 3.8086 1.1133 5.6367 1.8789 1.0352 0.53125 2.0039-0.99219 1.2891-1.8047h0.003907c-1.1328-1.5391-2.6133-2.793-4.3164-3.6562-1.7812-0.68359-3.6289-1.168-5.5195-1.4375-4.0664-0.70703-8.2617-0.63281-12.27-1.6523-0.91797-0.23828-1.8125-0.55469-2.6758-0.94922 1.4297-0.58594 2.8086-1.2734 4.1328-2.0664 2.9883-1.6562 5.7969-3.6094 8.3906-5.832 5.3555-4.7969 10.328-10.008 14.871-15.582 4.9453-5.6289 9.5312-11.566 13.727-17.777 3.5938-6.3789 8.1953-12.133 13.633-17.035 3.0039-2.207 5.8125-4.6602 8.4023-7.3398 1.1602-1.2305 2.1406-2.6211 2.9102-4.1289 0.60547-1.5273 0.72656-3.2031 0.34375-4.7969z"/>
  <path d="m386.91 327.55c-0.36328 0.39453-1.0586 0.52734-1.5156 0.83203-0.56641 0.375-1.1172 0.80078-1.6641 1.2031-1.0664 0.83203-1.8359 1.9844-2.1836 3.293-0.51953 1.4141 1.0898 2.2461 2.1875 1.5625v-0.003906c0.56641-0.28516 1.0938-0.64453 1.5625-1.0742 0.45312-0.48438 0.82422-1.0352 1.0977-1.6367l0.64844-1.4453h0.003907c0.19141-0.71875 0.4375-1.4258 0.73828-2.1094 0.41406-0.57812-0.42188-1.1133-0.875-0.62109z"/>
  <path d="m475.77 250.18c-0.0625-0.30859-0.55469-0.41406-0.65625-0.066406v0.003906c-1.0742 3.9297-2.5703 7.7383-4.4648 11.348-1.8867 2.9766-3.5977 6.0625-5.1172 9.2461-0.71484 3.0547-1.1875 6.168-1.4102 9.2969-0.19531 1.625-1.6172 2.8203-3.2539 2.7344-1.625 0.042969-3.1641-0.050781-4.8008 0.125h0.003906c-0.51172 0.089844-0.91797 0.47656-1.0352 0.98438-0.11719 0.50391 0.074219 1.0273 0.48828 1.3398 2.9258 2.4141 7.1016 2.5781 10.207 0.40234 3.25-2.5195 2.8516-6.6484 3.1914-10.305 1.1094-4.2383 2.9336-8.2578 5.3867-11.887 1.8711-4.1445 2.3828-8.7695 1.4609-13.223z"/>
  <path d="m452.37 289.52c-0.875 1.8906-2.4102 3.4766-3.4336 5.3086-0.72656 1.3047-1.3594 2.668-2.0195 4.0078h0.003907c-1.4531 3.1328-3.1719 6.1367-5.1367 8.9766-1.9336 2.6641-3.9648 5.2305-6.1445 7.6953l-3.0508 3.4141c-1.1016 1.2305-2.4297 2.2539-2.4922 3.9922v-0.003907c-0.039062 0.50391 0.14844 0.99609 0.51562 1.3398 0.36719 0.34766 0.86719 0.50781 1.3672 0.4375 0.8125-0.11719 1.5625-0.5 2.1367-1.0898 2.5312 5.5625 6.2305 10.555 8.6641 16.152 0.21875 0.50391 1.1055 0.28125 0.95312-0.28125-1.2344-6.6836-3.4609-13.148-6.6055-19.176l2.0391-2.2852h0.003907c2.3203-2.5039 4.3789-5.2383 6.1484-8.1562 1.5938-2.9688 3.0156-6.0234 4.2578-9.1562 0.74219-1.7539 1.5664-3.4961 2.1641-5.3047v0.003907c0.42578-1.8711 0.95312-3.7148 1.5703-5.5273 0.26562-0.58594-0.67188-0.92969-0.94141-0.34766z"/>
  <path d="m372.29 267c-0.27734-1.4648-1.1523-2.7461-2.4102-3.543-1.1602-0.70312-2.4258-1.2227-3.7461-1.5312-3.5625-0.80859-7.207-1.1641-10.859-1.0625-6.332-0.078125-12.27 3.0625-15.77 8.3438-3.5234 5.1719-5.5273 11.227-5.7812 17.48-0.17188 3.7109-0.058594 7.4258 0.33594 11.117-3.2773 3.3203-5.1211 7.793-5.1289 12.457-0.097657 5.3984 0.99219 10.73 1.1641 16.105 0.015625 0.50391 0.84766 0.47266 0.87891-0.023437 0.31641-4.9531 1.168-9.9375 1.6758-14.887 0.21094-2.3398 0.78516-4.6328 1.6992-6.7969l0.36328-0.8125 0.03125 0.26172h0.003906c0.51562 2.2891 0.82812 4.6211 0.92969 6.9648-0.03125 0.65625 0.97266 0.76563 1.0195 0.10156 0.13672-1.8594 0.71094-3.707 0.96094-5.5625 0.19531-1.5938 0.30469-3.1953 0.33203-4.8008 0.10547-3.3477 0.09375-6.6953 0.23828-10.039-0.027343-5.6328 1.2188-11.195 3.6484-16.273 2.293-4.5078 6.3672-7.8477 11.234-9.2148 1.2031-0.34375 2.4492-0.52734 3.7031-0.55469l-0.69922 0.5-0.003906-0.003906c-2.0156 1.543-3.6797 3.5-4.8789 5.7383-1.3477 2.5312-2.3281 5.2422-2.9102 8.0508-0.29297 1.2539-0.5 2.5273-0.625 3.8125-0.15625 1.6641 0.22656 3.375-0.03125 5.0117-0.10937 0.69922 0.98047 0.80469 1.0898 0.10937v-0.003906c0.38672-1.418 0.90234-2.8008 1.5273-4.1289 0.41406-1.2031 0.78125-2.4219 1.207-3.625 0.80859-2.375 1.8867-4.6445 3.2188-6.7695 1.0977-1.7188 2.3672-3.3203 3.7891-4.7852 1.2344-1.2734 2.832-2.0898 4.1367-3.2109l0.87109 0.21094c1.1523 0.24609 2.2773 0.60547 3.3594 1.0664 1.0625 0.46484 2.0508 1.0781 2.9375 1.8281 0.47266 0.54688 1.2734 0.66797 1.8906 0.28906 0.61719-0.37891 0.87109-1.1484 0.59766-1.8203z"/>
  <path d="m380.55 308.18c-1.0078-0.78125-2.0859-1.4727-3.2148-2.0664 2.6836-5.3164 4.1484-11.164 4.293-17.117 0.042969-3.8125-0.41406-7.6133-1.3672-11.309-0.39453-1.6836-1.0156-3.3086-1.8477-4.8281-0.96875-1.3711-2.1016-2.6172-3.3789-3.7109-0.4375-0.46875-1.2188 0.16406-0.77734 0.63672h0.003906c0.99609 1.4258 1.6797 3.0391 2.0156 4.7461 0.39844 1.4258 0.68359 2.875 0.85937 4.3438 0.37891 3.4688 0.32422 6.9688-0.16797 10.422-0.8125 6.4375-2.9258 12.641-6.2109 18.238-3.1758 5.4141-6.9727 10.434-10.109 15.871-3.25 5.4883-5.2969 11.602-6.0078 17.941-0.41406 3.6836-0.55078 7.3906-0.40625 11.098 0.085937 1.9062 0.27734 3.8125 0.28906 5.7266v-0.003906c-0.15234 1.9062-0.19141 3.8203-0.11328 5.7305 0.10156 0.55469 0.51953 0.99609 1.0703 1.125 0.55078 0.12891 1.125-0.082032 1.4609-0.53516 1.3633-2.9766 1.75-6.3086 1.1055-9.5195-0.33984-3.5234-0.28125-7.0781 0.17578-10.59 1.3789-6.8672 4.0469-13.414 7.8594-19.289 3.0195-4.9766 6.3594-9.8477 9.168-14.926h0.003906c1.1133 0.58984 2.2852 1.0664 3.4961 1.4258 1.2266 0.51953 2.5977 0.58594 3.8672 0.18359 0.22656-0.10938 0.35938-0.35156 0.32422-0.60156-0.42578-1.2422-1.2695-2.3008-2.3906-2.9922z"/>
  <path d="m362.35 306.11c-3.1406 4.0156-6.0391 8.2109-8.6797 12.57-2.3164 4.3477-4.1758 8.918-5.5508 13.648-1.4141 4.5508-2.1172 9.293-2.0781 14.059 0.035156 2.4766 0.39453 4.9375 1.0625 7.3203 0.82422 2.1875 1.7812 4.3242 2.8672 6.3984 0.27734 0.64453 1.1914 0.20703 0.98047-0.43359-0.55469-2.3633-0.79688-4.7852-0.71875-7.2109-0.089844-2.3125-0.050781-4.6289 0.11719-6.9414 0.30859-4.5586 1.2031-9.0547 2.6602-13.383 1.5273-4.1992 3.3125-8.3008 5.3398-12.277 2.0156-4.2227 3.6445-8.668 5.7109-12.848 0.49609-1-1.0938-1.793-1.7109-0.90234z"/>
  <path d="m371.47 278.16c-0.98828-2.707-2.168-5.3398-3.5273-7.8828-0.27344-0.64062-1.2109-0.20703-0.98047 0.43359 0.66797 2.6602 0.92969 5.4062 0.77734 8.1445 0.085937 2.4688-0.003907 4.9375-0.26953 7.3906-0.26172 2.3789-0.70312 4.7305-1.3125 7.043-0.96484 2.207-1.4727 4.5859-1.4961 6.9961 0.070313 0.44141 0.34375 0.82031 0.73438 1.0352 0.39062 0.21094 0.85937 0.23438 1.2656 0.054687 2.125-1.5273 3.5977-3.8008 4.1211-6.3633 1.793-5.4453 2.0312-11.281 0.69141-16.852z"/>
  <path d="m360.29 280.33c-4.9727 12.543-10.621 24.809-16.211 37.082-2.7695 5.8789-4.8047 12.078-6.0508 18.457-0.60938 2.9609-0.85547 5.9844-0.73438 9.0039 0.3125 3.1719 1.2109 6.2578 2.6484 9.1016 0.21875 0.44531 0.72656 0.66797 1.1992 0.52734 0.47656-0.13672 0.78125-0.60156 0.72266-1.0938-0.38281-3.125-0.44141-6.2852-0.17969-9.4258 0.089843-3.1523 0.51953-6.2891 1.2773-9.3516 1.8203-6.0469 4.1641-11.926 7.0039-17.566 2.7812-5.8047 5.1953-11.777 7.2344-17.879 1.9062-6.0508 2.8477-12.406 4.2148-18.59 0.14453-0.66406-0.89062-0.85938-1.125-0.26562z"/>
  <path d="m343.8 293.46c-1.8906 7.1289-4.1875 14.141-6.8867 21.004-2.3281 6.5312-3.0586 13.527-2.1328 20.398 0.089844 0.45703 0.49219 0.77734 0.95703 0.76562 0.46094-0.011718 0.84375-0.35938 0.90625-0.81641 0.92188-7.0352 2.3867-13.992 4.3906-20.797 1.7812-6.7109 3.0547-13.547 3.8086-20.449 0.074219-0.68359-0.91797-0.75781-1.043-0.10547z"/>
  <path d="m407.83 252.5c-2.3633-5.8047-7.082-10.328-12.98-12.449-5.3438-2.5312-11.523-2.5977-16.918-0.1875-2.2422 1.207-4.1484 2.9531-5.5391 5.0859-1.2656 2.1602-2.0195 4.582-2.2031 7.0781-0.13281 0.67578 0.93359 0.77734 1.0664 0.10547v0.003906c0.75-2.1406 2.1367-4 3.9727-5.332 1.6641-1.2344 3.5156-2.1992 5.4766-2.8594 4.4883-1.2578 9.2852-0.76953 13.43 1.3633 4.1445 2.1367 7.3242 5.7578 8.9062 10.145 0.51562 2.5703 0.51172 5.25 0.83594 7.8438 0.14453 1.1406 0.44531 2.1719 0.65625 3.2578 0.058594 0.33594 0.085938 0.67969 0.078125 1.0195-0.30859-0.15234-0.66797-0.16797-0.98828-0.046874-0.32031 0.125-0.57812 0.375-0.70703 0.69141-0.67188 1.332-0.14062 2.4023 0.14062 3.7422 0.3125 1.2617 0.011718 2.5938-0.8125 3.6016-0.65625 0.82422 0.40625 2.2344 1.3633 1.668v-0.003906c1.457-0.86719 2.4414-2.3438 2.6875-4.0195 0.36719-1.5273 0.1875-3.1328-0.51172-4.5391 0.17969-0.875 0.46094-1.7227 0.84375-2.5273 0.65625-1.2969 1.1406-2.6758 1.4414-4.1016 0.72656-3.1484 0.64453-6.4297-0.23828-9.5391z"/>
  <path d="m399.44 262.6c-0.67578-0.99609 0.33594-2.793 0.046875-4-0.27734-1.0938-1.0078-2.0234-2.0039-2.5547-2.5156-0.89844-5.2383-1.0586-7.8398-0.46094-2.4297 0.14453-6.1211 0.71875-8.0703-1.0898-0.59375-0.55078-2.293-3.5898-3.3867-2.793-1.5391 1.1211-0.35547 4.1211 0.39062 5.4375 1.2695 2.0352 3.5234 3.2461 5.9219 3.1758 2.8984-0.070312 5.7969-0.29297 8.6719-0.65625 0.78516-0.19141 1.6094-0.14453 2.3711 0.13672 0.57031 0.37891 0.60938 1.0938 0.89453 1.6445 0.52734 0.86328 1.2695 1.5742 2.1562 2.0664 0.25391 0.16406 0.58984 0.12109 0.80078-0.10156 0.20703-0.21875 0.22656-0.55859 0.046875-0.80469z"/>
  <path d="m392.81 271.12c-0.82031-0.62891-1.8164-0.98828-2.8516-1.0234l-1.2695-0.37109c-0.44141-0.10547-0.89844-0.085937-1.3438-0.17578-0.1875-0.015625-0.36719 0.066406-0.47656 0.21484-0.10938 0.15234-0.12891 0.34766-0.058594 0.51953 0.20312 0.44922 0.45703 0.87109 0.75781 1.2578 0.39844 0.38281 0.84375 0.71094 1.3242 0.98438 0.94531 0.78906 2.2148 1.0664 3.4023 0.75 0.39453-0.17969 0.68359-0.53125 0.78516-0.95313 0.10156-0.42187 0-0.86719-0.26953-1.2031z"/>
 </g>
</svg>