<?xml version="1.0" encoding="UTF-8"?>
<!-- Uploaded to: ICON Repo, www.iconrepo.com, Generator: ICON Repo Mixer Tools -->
<svg fill="#000000" width="800px" height="800px" version="1.1" viewBox="144 144 512 512" xmlns="http://www.w3.org/2000/svg">
 <g>
  <path d="m321.07 301.98c-1.7812 1.1055-3.4414 2.3945-4.957 3.8438-1.3438-2.8242-3.1016-5.4336-5.2109-7.7422-1.8359-1.9805-3.918-3.7188-6.1992-5.168-2.3594-1.3633-4.8516-2.4844-7.4375-3.3516-0.72656-0.28516-1.1055 0.79688-0.41797 1.1211 4.0039 2.1875 7.543 5.1289 10.426 8.6641 1.4023 1.5781 2.6719 3.2695 3.793 5.0586 0.57812 0.88672 1.0859 1.8203 1.5117 2.7891 0.26953 0.88281 0.49219 1.7852 0.66406 2.6914-0.39063 0.71094-0.75391 1.4375-1.1016 2.168h-0.003906c-0.91016 1.9453-1.6797 3.9531-2.3008 6.0078-2.0391-5.2422-4.9102-10.125-8.5039-14.457-1.0117-1.1016-2.1484-2.0859-3.3867-2.9258-1.2109-0.80469-3.1445-1.2695-3.8086-2.6289-1.1328-2.3242-0.53516-5.0547-2.6641-6.9219-0.56641-0.5-1.3125 0.27344-1.0742 0.87891 0.98047 2.4766-0.10547 5.2305 1.0078 7.6914v-0.003906c0.67188 1.2656 1.75 2.2656 3.0586 2.8398 1.4023 0.78125 2.6758 1.7812 3.7656 2.957 4.168 5.4961 7.5039 11.57 9.9102 18.031l0.14453 0.25-0.83203 3.5117h-0.003906c-2.7383 11.738-4.5 23.676-5.2695 35.703-0.54297 1.7148-1.1016 3.418-1.7695 5.0664-1.5195 4.1875-3.7578 8.0742-6.6133 11.492-0.44922 0.48828 0.27344 1.3789 0.84375 1.0312v0.003906c3.1797-1.8828 5.8672-4.4883 7.8438-7.6094 0.53516 2.4961 1.8828 4.7461 3.832 6.3984 1.2734 1.1133 3.2734-0.63672 2.5391-2.0781-1.7656-4.1328-2.3984-8.6641-1.832-13.121 0.35547-5.6445 0.92578-11.277 1.6562-16.883 0.71875-5.5 1.6328-10.965 2.7422-16.406 1.0117-4.9609 1.9766-9.9766 3.4062-14.832 0.65234-2.3555 1.5078-4.6523 2.5586-6.8594 0.97656-2.4023 2.5234-4.5312 4.5078-6.2031 0.69531-0.47266-0.13672-1.4844-0.82422-1.0078z"/>
  <path d="m352.4 417.65c-1.8086-3.332-4.1445-6.3516-6.9141-8.9453-0.16016-0.37109-0.46094-0.66406-0.83594-0.82031-1.0586-1.0195-2.1406-2.0156-3.207-3l-0.003906 0.003907c-4.5781-4.2773-9.3789-8.3047-14.387-12.074-2.5195-1.8633-5.125-3.6055-7.7812-5.2656-1.1797-0.73828-2.3945-1.4023-3.6367-2.0312-1.6406-0.68359-3.2344-1.4688-4.7812-2.3438-0.6875-0.45703-1.4336 0.58203-0.74609 1.0547 2.2656 1.8906 4.4297 3.9023 6.4766 6.0312 2.2148 1.9219 4.4609 3.8164 6.7109 5.6992 3.8828 3.2539 7.75 6.5117 11.543 9.8672-2.5312-0.49219-5.0664-0.95703-7.582-1.5352h-0.003906c-5.6562-1.293-11.234-2.9219-16.703-4.875-5.4844-1.9648-10.805-4.3164-16.07-6.8008-5.2852-2.4922-10.699-4.6836-15.941-7.2852-0.71484-0.35156-1.1172 0.69922-0.60547 1.1484 4.5039 4.1523 9.4844 7.7578 14.836 10.738 2.7461 1.4453 5.5547 2.7695 8.4102 3.9883 1.3828 4.125 3.5977 7.9844 5.2539 11.992 2.0156 4.832 3.6133 9.8281 4.7734 14.934 1.1562 5.1641 1.957 10.402 3.2109 15.543v0.003906c1.3398 5.1055 3.1992 10.062 5.5469 14.793 1.6484 3.5078 3.9492 11.449-1.8242 12.363-0.28516 0.054688-0.48828 0.30859-0.48047 0.59766 0.007813 0.29297 0.22656 0.53516 0.51562 0.57031 4.0664-0.17578 7.4492-3.1836 8.1016-7.1992 0.17188-2.7891-0.45703-5.5664-1.8086-8.0117-1.1914-2.5938-2.5195-5.0938-3.4961-7.7852v0.003906c-1.8047-5.6016-3.1836-11.328-4.125-17.133-1.0898-5.8672-2.6875-11.625-4.7773-17.215-1.4258-3.9727-3.2969-7.7695-5.5781-11.32l2.5625 0.94141c5.5977 1.9961 11.316 3.6289 17.121 4.8945 2.8828 0.625 5.7969 1.2266 8.7305 1.5703 1.6055 0.19141 3.332 0.41016 5.0508 0.51172l0.48438 0.73828-0.003906 0.003906c0.42969 0.80078 0.78516 1.6445 1.0625 2.5117 0.60156 1.832 1.0938 3.6992 1.4766 5.5898 1.082 4.8438 1.9609 9.7305 2.6992 14.637 0.72266 4.8008 1.3047 9.6211 1.9453 14.434 0.32031 2.4023 0.69531 4.8086 1.1719 7.1836 0.51953 2.5781 1.418 5.1562 1.7617 7.7539 0.11328 0.86328 1.3594 0.62891 1.3086-0.20703-0.15625-2.7344 0.27344-5.5469 0.23438-8.2969-0.035156-2.5898-0.15234-5.1719-0.39453-7.75-0.48828-5.168-1.1445-10.312-1.9727-15.438-0.78125-4.8281-1.6367-9.6836-2.8359-14.426l0.82031 0.95312v0.003907c1.7109 1.8242 3.082 3.9375 4.0469 6.2383 0.84375 2.418 1.3438 4.9414 1.4922 7.5 0.085938 1.3906 2.0078 1.0898 2.2539-0.066406 0.68359-5.1992-0.41016-10.473-3.1055-14.973z"/>
  <path d="m364.57 438.65c-1.9531-2.25-3.3047-4.9609-3.9297-7.875-0.70312-3.3672-1.8398-6.625-3.3828-9.6992-0.32812-0.60547-1.3867-0.40234-1.2266 0.36328 1.3711 6.6211-0.3125 15.32 5.9375 20 0.78516 0.52734 1.8398 0.40625 2.4844-0.28906 0.64844-0.69141 0.69531-1.75 0.11719-2.5z"/>
  <path d="m370.68 442.37c-0.89062-2.9922-1.8633-6.0039-2.8867-8.957-0.83203-3.1055-2.1172-6.0703-3.8203-8.793-0.21484-0.25-0.55469-0.35156-0.87109-0.25781-0.31641 0.097656-0.54297 0.36719-0.58203 0.69531 0.125 3.5391 0.80469 7.0391 2.0195 10.367 0.48047 1.668 0.94531 3.3438 1.457 5.0039v0.003907c0.22656 1.5469 0.97266 2.9727 2.1211 4.0391 1.5117 1.0664 3.0156-0.57812 2.5625-2.1016z"/>
  <path d="m374.09 409.7c1.7969-1.3672 3.0234-3.3516 3.4492-5.5664 0.054688-0.63672-0.89844-1.1016-1.2539-0.46875-1.2422 2.2148-3.7383 3.2578-5.6562 4.7969-2.332 2.0625-3.4375 5.1797-2.9297 8.25 0.17969 3.918 0.52734 7.8398 0.8125 11.75v0.003906c-0.039062 3.8945 0.67969 7.7617 2.1172 11.383 0.27734 0.58203 0.94141 0.87891 1.5625 0.69531s1.0156-0.78906 0.93359-1.4336c-0.75391-7.3359-1.043-14.695-1.5391-22.055-0.29297-1.5391-0.17188-3.1328 0.35547-4.6133 0.57031-1.0195 1.2969-1.9414 2.1484-2.7422z"/>
  <path d="m337.45 318.39c-1.5391 0.99219-2.7812 2.3828-3.5977 4.0195-1.0352 1.7344-1.918 3.5547-2.6406 5.4414-1.4023 3.9375-2.4648 7.9883-3.1719 12.109-0.83984 4.4141-1.7148 8.8164-2.793 13.18-1.5273 4.4141-2.5664 8.9844-3.0938 13.625-0.054688 0.80469 0.42578 1.5508 1.1797 1.832 0.75391 0.28125 1.6055 0.035156 2.0898-0.60938 2.3047-3.9258 3.8672-8.2383 4.6172-12.727 1.0898-4.3398 1.9805-8.7109 2.7539-13.117 0.6875-3.9023 1.2617-7.8398 2.1602-11.703h0.003906c0.45312-2.0078 1.0078-3.9922 1.668-5.9453 0.8125-1.7227 1.4141-3.5391 1.793-5.4062 0.019531-0.24609-0.089844-0.48047-0.28906-0.625-0.19922-0.14062-0.45703-0.17188-0.67969-0.074219z"/>
  <path d="m397.57 384.97c-2.1836-3.9922-5.4961-7.25-9.5234-9.3711-4.8711-1.8828-9.875-3.3945-14.977-4.5195-2.7031-0.96484-5.3359-2.125-7.8711-3.4727-1.2266-0.62109-2.4531-1.2383-3.668-1.8789-0.88672-0.37891-1.8086-0.67187-2.75-0.86719 0.92188-4.6914 2.0156-9.3516 2.8281-14.059v-0.003906c0.16016-1.6289 0.69531-3.1992 1.5625-4.5898 0.98828-1.2852 2.6836-1.7617 3.75-3.0859 1.8281-2.2812 3.2578-4.8594 4.2227-7.6211 0.91406-2.9258 1.5938-5.9219 2.0352-8.9531 0.28125-3.2109 0.92969-6.375 1.9297-9.4375 0.3125-0.71875-0.82812-1.1406-1.1406-0.42578-0.625 1.4375-1.4688 2.7461-2.0469 4.2109-0.57422 1.4492-1.0586 2.918-1.5117 4.4102-0.77734 2.8047-1.7461 5.5547-2.8945 8.2305-0.66016 1.4141-1.4297 2.7773-2.3008 4.0742-0.96484 1.2266-1.8242 2.5312-2.5664 3.9023-0.28125 0.65234-0.45313 1.3477-0.50391 2.0547-0.10938 0.92578-0.44531 1.8125-0.97656 2.582-0.71875 1.1367-1.5352 2.2578-2.332 3.3398h0.003906c-2.8672 4.9844-4.6172 10.531-5.1289 16.258-0.53516 2.8359-1.0117 5.6875-1.668 8.5-0.49609 2.1328-1.2578 4.1914-1.8945 6.2773h-0.003907c-1.2969-0.097657-2.5898-0.26563-3.8711-0.51172-2.4609-0.47656-4.8828-1.1445-7.2422-1.9922l-0.96094-0.35938c-1.0312-1.0977-2.1289-2.1328-3.2852-3.1016-1.4258-1.1797-3.7734-3.3438-5.7188-3.2656v0.003906c-0.16016-0.003906-0.3125 0.066406-0.41406 0.1875-0.097656 0.12109-0.14062 0.28516-0.10938 0.44141 0.35156 0.94531 0.91406 1.8008 1.6523 2.4922l1.0391 1.2695 0.078125 0.42969c0.67969 0.91016 1.4219 1.7695 2.2227 2.5742l0.55469 0.46875c1.0977 1.3555 2.1758 2.7266 3.207 4.1406 3.0508 4.1797 5.9062 8.4922 8.8906 12.715 2.7461 4.3203 6.0859 8.2266 9.9258 11.609 4.4297 3.5039 9.1094 0.75 13.551-1.0625 0.65625-0.26562 0.43359-1.1953-0.13281-1.3945-2.5117-0.89062-4.418 0.82031-6.8281 1.0312-2.0391 0.17578-4.0742-2.375-5.2695-3.7578-3.1641-3.6641-6.0586-7.5156-8.8867-11.441-1.6914-2.3477-3.3672-4.7188-5.1289-7.0234v-0.003906c2.3086 0.69141 4.6875 1.1328 7.0938 1.3164 0.57031 0.43359 1.3477 0.48047 1.9688 0.11719 1.832 0.070312 3.6719 0.042969 5.5156-0.042969v0.003907c4.8594-0.58203 9.7773-0.39063 14.57 0.57031 3.8086 1.0547 7.2344 3.1758 9.8711 6.1133 0.27344 0.31641 0.72266 0.41797 1.1055 0.24609 0.38281-0.17188 0.60547-0.57422 0.55469-0.98828-0.76562-4.0391-3.5742-7.3906-7.4219-8.8438-4.5039-1.875-9.3984-2.6016-14.254-2.1172-2.4375 0.089844-4.8633 0.24219-7.2812 0.28906 0.48438-1.3867 0.85938-2.8203 1.2188-4.1953 0.73828-2.832 1.3398-5.707 1.8594-8.5898 0.44141 0.50391 0.92969 0.96875 1.457 1.3828 1.2109 1.0273 2.5039 1.9609 3.8594 2.7891 2.5625 1.5352 5.2852 2.7812 8.1211 3.7188 5.6641 1.0156 11.148 2.8594 16.273 5.4688 4.0117 2.9609 6.75 7.3398 7.6562 12.242 0.50391 2.8633 0.54687 5.7891 0.13672 8.6641-0.24609 3.1445-0.85938 6.2539-1.8281 9.2578-0.41797 1.1133 1.2148 2.0391 1.8789 0.99219 1.4141-2.0195 2.6211-4.1719 3.5977-6.4336 0.88281-2.3711 1.3594-4.875 1.4023-7.4062 0.16797-4.7266-0.94141-9.4062-3.2031-13.559z"/>
  <path d="m299.98 314.42c-0.99609-3.0352-2.6875-5.8164-3.8906-8.7734-0.26172-0.64453-1.3711-0.34375-1.1914 0.35156 0.60547 2.6055 1.0156 5.25 1.2305 7.9102 0.42578 2.7734 0.66406 5.5703 0.71484 8.3711-0.47656 5.207-2.0039 10.258-4.5 14.852-4.6758 10.062-9.8242 19.895-14.539 29.934-1.3047 2.6562-2.3438 5.4375-3.1016 8.3008-0.92969 2.6953-0.99609 5.6133-0.19141 8.3477 0.30469 0.65234 0.97266 1.0625 1.6953 1.0391 0.72266-0.019531 1.3594-0.46875 1.6289-1.1406 0.63281-2.5 0.49219-5.1016 1.1719-7.6094v0.003906c0.70312-2.457 1.5977-4.8516 2.6719-7.1719 2.3047-5.1641 4.7969-10.254 7.2031-15.371 2.3984-5.0938 4.8125-10.184 7.3086-15.23 2.625-4.5781 4.2734-9.6484 4.8438-14.895 0.1875-3.0117-0.16797-6.0352-1.0547-8.918z"/>
  <path d="m315.37 473.16c-5.0664 1.582-9.6445 4.4375-13.301 8.2891-3.4961 4.0977-6.0039 8.9453-7.3398 14.164-1.6719 10.301-5.7031 20.074-11.777 28.559-1.7695 1.8906-3.8789 3.4297-5.6211 5.3516-1.4961 1.6484-3.2734 4.5195-2.0156 6.7422v0.003907c0.19531 0.40625 0.58594 0.68359 1.0352 0.72656 0.44922 0.046875 0.88672-0.14844 1.1602-0.50781 0.52344-0.77344 0.99219-1.5859 1.3984-2.4258 0.58984-0.89844 1.2891-1.7188 2.0781-2.4453 1.6484-1.5664 3.4727-2.9219 5.0469-4.5664h0.003906c3.3477-3.6211 6.0078-7.8281 7.8438-12.406 2.4883-9.6641 5.7773-19.105 9.832-28.223 3.4922-4.6367 7.6445-8.7461 12.316-12.191 0.23438-0.20312 0.28516-0.54688 0.125-0.8125-0.16406-0.26562-0.49609-0.375-0.78516-0.25781z"/>
  <path d="m315.62 554.96c-1.9766 0.36719-3.9688 0.61719-5.9766 0.75781-1.9375-0.03125-3.8516-0.44531-5.6289-1.2188-3.7461-1.6172-6.125-5.1953-9.5977-7.2344-3.1562-1.4766-6.4336-2.668-9.8047-3.5547-1.5547-0.50391-3.0117-1.2852-4.2891-2.3086-1.2539-1.1016-2.0781-2.6719-3.8594-2.9492v0.003907c-0.27344-0.023438-0.53516 0.09375-0.69531 0.3125-0.16016 0.22266-0.19141 0.50781-0.082032 0.75781 0.74609 1.707 1.6914 3.3203 2.8086 4.8086 1.25 1.3398 2.8008 2.3672 4.5234 3 3.7969 0.97266 7.4258 2.4961 10.777 4.5234 2.9688 3.0859 6.5469 5.5234 10.504 7.1523 4.1602 1.4844 8.7773 0.89453 12.422-1.5938 0.46484-0.41016 0.60547-1.0703 0.35156-1.6328-0.25-0.5625-0.83984-0.89453-1.4531-0.82422z"/>
  <path d="m350.22 469.51c-7.4883 9.0156-15.844 17.273-24.945 24.656-9.7227 8.1406-18.215 17.641-25.215 28.211-2.0391 2.8633-3.7266 5.9609-5.0234 9.2305-1.4609 2.9336-1.1836 6.4336 0.71484 9.1055 0.17969 0.20703 0.47656 0.26953 0.72656 0.16016 0.25-0.11328 0.39453-0.375 0.36328-0.64844-0.20312-3.0898 0.57812-6.168 2.2344-8.7891 1.5352-2.6289 3.2734-5.1719 5.0195-7.6641h-0.003906c3.5977-5.1211 7.5625-9.9766 11.863-14.523 7.9219-8.3984 17.344-15.117 25.559-23.199 4.6836-4.293 8.2695-9.6445 10.457-15.613 0.15625-0.46484-0.046875-0.97656-0.48047-1.207-0.4375-0.23047-0.97266-0.10938-1.2695 0.28125z"/>
  <path d="m312.89 541.13c-1.8398-1.0703-3.7383-2.0391-5.5938-3.082-2.1836-0.96875-4.0977-2.457-5.582-4.332-0.37891-0.58984-1.4297 0.050781-1.0586 0.65234v-0.003907c0.96875 1.7227 2.1602 3.3047 3.5469 4.7109 1.6211 1.4375 3.3711 2.7148 5.2383 3.8125 1.7734 1.0625 3.4531 2.2852 5.0078 3.6484 1.5078 1.4062 2.2461 3.3828 3.7852 4.7109 0.80078 0.69141 1.8984-0.066406 2.0508-0.93359 0.67969-3.875-4.5391-7.5195-7.3945-9.1836z"/>
  <path d="m342.73 281.2c-0.37891-0.26172-0.85938-0.33594-1.3047-0.19922-0.44141 0.13672-0.79688 0.46875-0.96484 0.90234-0.50391 1.2617-0.42188 2.6602-1.0039 3.8945l0.003906-0.003907c-0.78906 1.3828-1.8984 2.5547-3.2383 3.418-1.3828 1.0508-2.8359 2.0078-4.1758 3.125-1.5273 1.2734-2.8047 2.7852-4.332 4.0625h0.003906c-0.19141 0.16797-0.23828 0.45312-0.10156 0.67578 0.13672 0.21875 0.41016 0.30859 0.64844 0.21094 2.1914-1.0195 4.5117-1.6445 6.6641-2.7578v-0.003907c2.0039-0.94141 3.8945-2.1055 5.6445-3.4648 2.5195-2.1211 5.7383-7.2031 2.1562-9.8594z"/>
  <path d="m371.39 295.62c-2.0977 3.6914-7.3867 2.3906-10.711 1.3125-1.6719-0.55469-3.2617-1.3281-4.7344-2.2969-1.4805-0.95703-2.7539-2.2578-4.2656-3.1445-0.29688-0.17188-0.75781 0.027344-0.67578 0.42188h-0.003906c1.5664 4.0938 4.9453 7.2266 9.1445 8.4766-0.28906 0.92969-0.46094 1.8945-0.51172 2.8672-0.082031 1.1016-0.015625 2.2109 0.19531 3.2969 0.34766 1.1953 0.83984 2.3477 1.4688 3.4258 0.11328 0.23047 0.375 0.35156 0.625 0.27734 0.24609-0.074219 0.40625-0.31641 0.375-0.57422 0.015625-2.0938 0.33594-4.1719 0.94922-6.1758 0.18359-0.71094 0.51172-1.4648 0.75391-2.2266 3.75 0.82422 7.5156-1.3086 8.7305-4.9492 0.23438-0.77734-0.88672-1.5117-1.3398-0.71094z"/>
  <path d="m384.62 363.96c-0.93359-3.0898-1.9492-6.1562-2.7539-9.2852-1.6914-6.1836-2.3867-12.594-2.0547-18.996 0.40625-6.3359 1.6719-12.609 1.6289-18.973v0.003906c0.058594-2.8281-0.30859-5.6484-1.082-8.3711-0.9375-2.7422-2.2969-5.3203-4.0312-7.6445-0.37109-0.52734-1.1953 0.015625-0.94922 0.58203 1.0664 2.75 1.6406 5.668 1.6914 8.6133 0.21875 2.8984 0.25781 5.8047 0.12109 8.7031-0.38281 6.4336-1.6133 12.801-1.7422 19.25-0.050781 6.332 0.82031 12.637 2.5781 18.719 0.82031 3.0547 1.8086 6.0586 2.9648 9.0039 0.94531 2.9297 2.3711 5.6875 4.2188 8.1523 0.46094 0.52344 1.5703 0.34375 1.5664-0.47266-0.27344-3.1797-1-6.3086-2.1562-9.2852z"/>
  <path d="m432.14 534.32c-1.5469-2.2539-3.457-4.2695-5.0859-6.4805-1.6602-2.3828-3.1172-4.8984-4.3594-7.5195-2.4141-5.2695-4.3828-10.734-5.8789-16.336-1.1875-5.5039-3.1055-10.828-5.7031-15.824-2.293-4.1523-6.668-6.7188-11.41-6.7031-0.73438 0.042969-0.70312 1.0664-0.13281 1.3125h0.003906c3.1992 1.4102 5.8477 3.8359 7.5273 6.9023-0.83594-0.03125-1.6523 0.078125-2.5273 0.050781-1.2539-0.046875-2.4922-0.26562-3.6875-0.65625-2.4023-0.79297-4.5586-2.1953-6.2617-4.0703-2.8477-4.1484-5.2578-8.5859-7.1914-13.234-1.4414-2.1836-3.1172-4.207-5-6.0273-1.7148-1.9062-3.3086-3.918-4.7656-6.0234-2.9648-4.4297-5.4609-9.1562-7.4453-14.102-0.12891-0.26562-0.42969-0.39844-0.71484-0.31641-0.28125 0.082031-0.46484 0.35938-0.42578 0.65234 0.49609 5.418 2.1797 10.66 4.9375 15.352-1.5352 3.6172-2.3789 7.5469-3.5664 11.285-1.3672 4.3359-2.9766 8.5938-4.8164 12.75-1.832 4.1133-4.1484 8.0156-5.8438 12.188-1.3438 3.3125-3.2148 9.0469-0.26172 11.992v-0.003907c0.32422 0.38281 0.82812 0.56641 1.3242 0.48438 0.49609-0.082032 0.91016-0.41797 1.0938-0.88672 0.36328-1.9961 0.61719-4.0078 0.76172-6.0312 0.48828-2.0586 1.2188-4.0547 2.1758-5.9414 1.8984-3.9961 4.0352-7.8359 5.7148-11.938 1.6562-4.0156 3-8.1562 4.0195-12.383 0.71484-2.7148 1.1914-5.4883 1.4336-8.2891 1.0117 1.4336 2.1055 2.8047 3.2812 4.1094 2.168 2.0938 3.9922 4.5156 5.3945 7.1836l0.14063 0.3125c-1.7148 3.6016-3.2617 7.2539-4.7305 10.969v-0.003906c-1.8047 3.375-2.6016 7.1953-2.2969 11.008 0.12109 0.64453 0.69531 1.1094 1.3555 1.0898 0.65625-0.019531 1.2031-0.51172 1.2891-1.168 0.83984-3.625 2.1875-7.1211 3.9961-10.375 0.95703-2.1445 1.8828-4.2812 2.7695-6.4414 1.5156 3.2266 3.6289 6.1406 6.2305 8.5781 2.0352 1.8516 4.4883 3.1719 7.1523 3.8477 2.6602 0.94141 5.6016 0.64844 8.0234-0.79687 2.1914 5.2578 3.1875 11.383 5.3711 16.355 2.2344 5.0898 4.6602 10.16 7.2812 15.059 1.293 2.418 2.5352 4.9258 3.957 7.2656v0.003906c1.0977 2.2578 3.0078 4.0195 5.3477 4.9375 0.57031 0.19141 1.1992-0.015625 1.5508-0.50391 0.34766-0.49219 0.33594-1.1523-0.027343-1.6328z"/>
  <path d="m405.77 506.32c-1.3203-0.66406-2.9414 0.11328-4.3125 0.28125l0.003906 0.003906c-1.5781 0.15625-3.1719 0.16797-4.75 0.035156-3.5664-0.25391-7.1445-0.3125-10.719-0.17578-7.1367 0-14.191 1.5234-20.691 4.4727-0.21484 0.10547-0.32422 0.34766-0.25391 0.57812 0.066406 0.23047 0.28906 0.37891 0.52734 0.34766 7.5078-0.26563 14.938-1.5625 22.469-1.4961 3.5469 0.03125 7.0781 0.375 10.621 0.42969 2.5195 0.039063 7.3398 0.046875 7.9375-3.1445 0.050782-0.57812-0.28906-1.1211-0.83203-1.332z"/>
  <path d="m396.19 497.89c-1.9023-0.52734-3.8516-0.92578-5.7891-1.2656-2.2109-0.21875-4.375-0.76172-6.4219-1.6172-0.58203-0.30078-0.97266 0.59766-0.51172 0.96875 1.3945 1.2461 2.957 2.2969 4.6367 3.1211 1.8008 0.78906 3.6914 1.2891 5.5586 1.8945h0.003907c1.6484 0.48828 3.2422 1.1445 4.7578 1.957 1.4062 0.80469 2.7109 2.5508 4.4141 2.6172 0.69531 0.046875 1.3047-0.45312 1.3984-1.1445 0.71094-3.5547-5.5-5.8203-8.0469-6.5312z"/>
  <path d="m510.3 534.75c-3.0469-1.6211-6.2617-2.9102-9.5859-3.8438-2.9414-1.0664-5.9648-1.8906-9.0391-2.4609-3.3516-0.12109-6.7031 0.046876-10.023 0.50391-3.2539 0.125-6.5078-0.070313-9.7227-0.57812-6.2109-1.3359-12.258-3.3516-18.023-6.0156-2.793-1.1719-5.7305-1.9648-8.7344-2.3477-1.7227-0.21875-3.4727-0.13672-5.1641 0.24219-0.59375-1.7539-1.2969-3.4688-1.6953-5.0039-1.2109-4.6797-1.8789-9.4492-2.7656-14.191v-0.003907c-0.70703-4.1953-1.8633-8.3047-3.4414-12.258-0.78906-1.8281-1.7617-3.5742-2.9023-5.2031-1.3242-1.6484-2.7734-3.1953-4.3359-4.6211-0.50391-0.53906-1.3828 0.15625-0.89844 0.73438h0.003906c1.1836 1.6523 2.1133 3.4766 2.7578 5.4023 0.73828 1.8086 1.3711 3.6523 1.9023 5.5273 1.0664 3.9805 1.8906 8.0195 2.4727 12.098 0.61328 4.3516 1.457 8.668 2.5352 12.93 0.58594 2.082 1.2969 4.1094 2.0391 6.1406h-0.003907c0.5625 2.0625 1.25 4.0898 2.0586 6.0664 0.26562 0.55859 0.83984 0.91016 1.4609 0.89062 0.61719-0.015624 1.168-0.40234 1.4023-0.97656 0.48828-1.3984 0.58203-2.9062 0.26562-4.3516 1.5234 0.10547 3.0391 0.32422 4.5273 0.66406 2.8555 0.80469 5.6406 1.8359 8.3359 3.082 5.625 2.7461 11.582 4.7539 17.727 5.9688 3.0977 0.49219 6.2344 0.67969 9.3672 0.55859 3.1719-0.10938 6.3359-0.98047 9.4922-0.9375 3.1602 0.34375 6.2539 1.1289 9.1914 2.3359 3.1875 1.0898 6.4844 1.832 9.832 2.2109 1.3125 0.12109 2.2578-1.8398 0.96484-2.5625z"/>
  <path d="m506.68 539.54c-5.7812 0.64453-11.629 0.31641-17.297-0.98047-5.8906-0.90625-11.84-1.418-17.801-1.5352-6.1133-0.23047-12.227-0.47656-18.34-0.63281v0.003907c-6.1211-0.12109-12.238 0.19531-18.312 0.94141-0.68359 0.078125-0.57031 1.0156 0.03125 1.1328 6.1055 1.2305 12.289 2.0078 18.508 2.3281 6.332 0.27734 12.664 0.53516 18.996 0.77344 6.0391 0.22656 12.07 0.44531 18.062 1.2578v0.003907c5.5742 1.4023 11.449 0.97656 16.762-1.2148 0.49219-0.23047 0.73828-0.78516 0.58594-1.3008-0.15234-0.51953-0.66016-0.84766-1.1953-0.77734z"/>
  <path d="m525.79 527.86c-6.6523-5.5977-14.984-8.8125-23.672-9.1367-3.8594-0.16797-7.5273-1.7266-10.328-4.3828-2.1992-3.4336-3.5078-7.3594-3.8086-11.426-1.7461-9.1836-5.4023-17.895-10.738-25.57-4.418-6.9297-11.637-11.59-19.773-12.77-4.2305-0.34375-8.4766 0.47656-12.273 2.3711-1.3906 0.70313-2.6992 1.5547-3.9023 2.543-4.0117-8.2539-10.316-15.18-18.156-19.945-7.8281-5.3906-14.797-11.93-20.684-19.391-1.5039-2.0391-2.8359-4.1953-3.9805-6.457-0.52344-1.0898-1.0156-2.1836-1.4453-3.3164h0.003906c-0.63672-1.3477-1.0938-2.7734-1.3555-4.2383-0.050782-0.6875-1.1016-0.51562-1.0547 0.16797 0.082031 1.1367-0.18359 2.3242-0.13281 3.4883h0.003906c0.058594 1.125 0.20312 2.2422 0.43359 3.3438 0.49609 2.2656 1.25 4.4648 2.2422 6.5625 2.125 4.2773 4.9727 8.1523 8.418 11.457 6.832 6.9844 15.062 12.316 22.332 18.805 4.0234 3.5898 7.5 7.7031 11.371 11.438h0.003906c-1.2188 1.3164-2.1562 2.8672-2.7617 4.5586-0.16016 0.47266 0.007813 0.99219 0.41016 1.2812 0.40625 0.28906 0.95313 0.27734 1.3477-0.027344 2.5938-2.4492 5.5664-4.4648 8.7969-5.9766 3.1094-1.3398 6.5-1.875 9.8711-1.5625 7.3398 1.3555 13.68 5.9492 17.258 12.504 4.5391 7.3945 7.6992 15.555 9.3281 24.078 0.58203 3.8398 2.043 7.4922 4.2695 10.672 2.6172 2.9531 6.168 4.918 10.062 5.5625 4.2305 0.92578 8.5938 1.0508 12.848 1.8398 4.8125 0.85547 9.4375 2.5586 13.652 5.0352 0.94141 0.5625 2.2969-0.60938 1.4141-1.5078z"/>
  <path d="m454.95 478c-0.32422-0.875-0.86719-1.6523-1.5781-2.2539-1.5234-1.332-3.5977-1.8516-5.5703-1.3906-1.9961 0.47266-3.7656 1.6289-5.0039 3.2656-0.63672 0.78516-1.125 1.6797-1.4336 2.6406-0.17969 1.0078-0.14844 2.0469 0.09375 3.043 0.058594 0.72266 1.168 0.54297 1.1094-0.17578-0.097656-1.2109 1.5-2.832 2.3477-3.5312h-0.003906c0.90625-0.79687 1.9766-1.3867 3.1367-1.7266 1.043-0.31641 2.1758-0.046875 2.9648 0.70703 0.45313 0.57031 0.87109 1.168 1.2539 1.7891l0.011719 0.058594v0.003906c0.097656 0.51172 0.51953 0.89844 1.0391 0.94922 0.51562 0.050782 1.0078-0.24219 1.2031-0.72656 0.37109-0.98047 0.79297-1.5273 0.42969-2.6523z"/>
  <path d="m446.88 507.59c-3.8164 1.043-4.8359-4.8633-5.2812-7.4102-0.3125-1.7812-0.48437-3.5859-0.64844-5.3867-0.14062-1.5508 0.20703-3.6016-0.80469-4.8867h-0.003907c-0.19141-0.22656-0.53125-0.25781-0.76562-0.074218-1.6914 1.2695-1.6055 4.7227-1.6133 6.6367h0.003906c0.019531 2.6719 0.41016 5.332 1.1562 7.8984 0.36719 2.1836 1.6484 4.1055 3.5234 5.2812 1.6406 0.96875 3.7109 0.78516 5.1523-0.44922 0.61719-0.54688 0.21484-1.8633-0.71875-1.6094z"/>
  <path d="m496.8 524.29c-5.9648 0.27344-11.82-1.6406-16.473-5.3828-3.7461-4.4648-5.2461-10.395-4.0664-16.102 0.66016-5.0781-0.27734-10.238-2.6836-14.762-0.62891-0.99609-1.4102-1.8906-2.3125-2.6484-0.23828-0.42578-0.54297-0.8125-0.89844-1.1484-0.39453-0.37891-0.96094-0.51562-1.4844-0.35547l-0.69922-0.29297v0.003906c-1.5-0.46875-3.043-0.77734-4.6055-0.92969-1.3203-0.19531-3.8945-0.66016-4.3047-2.2109-0.058593-0.31641-0.36328-0.53125-0.68359-0.48047-0.32031 0.050781-0.54297 0.34766-0.5 0.66797 0.054687 1.9414 1.0625 3.7305 2.6914 4.793 2.0859 1.2969 4.7539 1.2383 6.7617 2.6562 0.40234 0.28906 0.77734 0.61328 1.1172 0.97656 0.027344 1.375-0.125 2.7422-0.45703 4.0742-0.21875 1.1328-0.52734 2.2461-0.91797 3.332-0.54297 1.3789-1.7031 1.8906-2.9453 2.5352-0.95703 0.48828-1.8828 1.0352-2.7695 1.6406-0.65625-1.2031-1.1328-2.5-1.4141-3.8398-0.050782-0.26953-0.28906-0.46484-0.5625-0.45703-0.27344 0.007813-0.5 0.21484-0.53516 0.48828-0.33594 1.8594-0.20313 3.7773 0.39453 5.5703-1.7461 1.5234-2.3984 3.9531-1.6445 6.1406 0.089843 0.1875 0.27734 0.30078 0.48047 0.29297 0.20312-0.003906 0.38281-0.12891 0.45703-0.32031 0.35937-1.4062 1.1602-2.6641 2.2852-3.5859 0.33594 0.34766 0.70312 0.66406 1.1016 0.9375 0.82812 0.57031 2.1094-0.33984 1.5977-1.3086l-0.58594-1.0781 0.62109-0.34375c2.1992-1.1797 4.9766-2.0391 6.25-4.3594 0.62109-1.207 1.0742-2.4961 1.3516-3.8281 0.20703 1.1211 0.32812 2.2539 0.36328 3.3906-0.41797 4.9883-0.29687 10.008 0.35938 14.973 1.1953 4.5312 4.2578 8.3359 8.4219 10.477 5.082 2.4336 10.832 3.0859 16.328 1.8555 0.74609-0.13281 0.77344-1.3477-0.039063-1.3711z"/>
  <path d="m452.83 505.2c-0.41406-0.55078-0.99219-0.96094-1.4141-1.5156-0.37891-0.53125-0.72656-1.0859-1.0469-1.6562-0.46094-0.76172-1.8516-0.80469-1.9062 0.30078v0.003907c-0.058594 1.9453 0.87109 3.7891 2.4688 4.9023 0.57422 0.38672 1.3477 0.30469 1.8281-0.19922 0.47266-0.51172 0.50391-1.293 0.070312-1.8359z"/>
  <path d="m377.23 250.34c-2.9375-4.3086-7.2109-7.5273-12.16-9.1641-4.6211-1.4609-9.6016-1.3086-14.121 0.43359-4.5234 1.7422-8.3164 4.9727-10.762 9.1562-1.4961 3.0078-2.2188 6.3398-2.1055 9.6992 0.21875 2.8711 0.75391 5.707 1.5977 8.4648-1.7734 3.0547 1.168 8.4883 3.7109 10.184l-0.003907-0.003906c0.45313 0.30078 1.043 0.26953 1.4609-0.070313 0.41797-0.34375 0.56641-0.91797 0.36328-1.418-0.375-1.0508-0.90625-2.0391-1.2578-3.1016-0.17578-0.53125-1.0273-3.0195-0.72266-3.4688 0.77734-1.1484 3.8789 0.38281 4.4219 1.2734 0.51172 0.83984 1.9609 0.60938 1.7734-0.52344l-0.003906 0.003906c-0.24219-1.8242-1.3516-3.418-2.9766-4.2734-1.625-0.85938-3.5664-0.87891-5.207-0.050782 0.011719-1.6445 0.11719-3.2852 0.3125-4.918 0.18359-2.6055 0.69531-5.1836 1.5195-7.6641 1.3945-3.7422 4.2305-6.7695 7.8711-8.4062 5.5938-2.5586 12.125-1.9883 17.188 1.5078-1.4336-0.3125-2.8984-0.45312-4.3633-0.41797-3.7031 0.058594-7.3281 1.0586-10.535 2.9062-2.8359 1.5938-4.9414 4.2227-5.8828 7.3359-0.10938 0.32813 0.058594 0.67969 0.37891 0.79688 0.32422 0.12109 0.67969-0.035157 0.8125-0.35156 1.4961-2.3828 3.8242-4.1328 6.5312-4.9023 2.8125-1.2227 5.8398-1.8789 8.9102-1.9297 2.7422 0.03125 5.4453 0.67578 7.9062 1.8867 1.125 0.54297 2.1484 1.2734 3.0312 2.1562l0.035157 0.035157c0.48047 0.76953 0.94141 1.5469 1.3711 2.3164v0.003906c0.79297 1.4844 1.4062 3.0586 1.8242 4.6914l-0.21875-0.050782c-2.9922-0.29297-4.793 2.3008-6.418 4.375-2.1367 2.7344-6.3164-0.22656-8.7812-1v0.003906c-3.0469-1.1641-6.4844-0.58984-8.9961 1.4922-1.1445 0.98828-1.9531 2.3086-2.3125 3.7734-0.16016 1.5 0 3.0117 0.47266 4.4414 0.058594 0.32812 0.37109 0.54688 0.70312 0.49609 0.32812-0.050782 0.55859-0.35938 0.51562-0.69141 0.19531-1.5898 0.97656-3.0508 2.1953-4.0938 0.83594-0.80078 1.8945-1.332 3.0352-1.5273 2.7773-0.49219 5.4062 1.5664 7.9922 2.2539v-0.003906c2.5547 0.89062 5.3828 0.45703 7.5508-1.1562 1.0117-0.89453 1.7773-2.0391 2.2148-3.3164 0.48047-1.2812 0.73047-2.6953 2.1055-3.2969l0.32812-0.25 0.22656 0.85156h0.003907c0.10547 0.5625 0.60938 0.96484 1.1836 0.94922 0.57422-0.015626 1.0508-0.44531 1.125-1.0156 0.36719-5.1016-0.98828-10.18-3.8438-14.422z"/>
  <path d="m367.22 280.66c-1.5547-0.17969-3.1211-0.15625-4.668 0.066406-1.5898 0.34766-3.1602 0.78125-4.7031 1.3008-0.22266 0.042968-0.37891 0.23828-0.375 0.46484 0.007813 0.22656 0.17578 0.41406 0.40234 0.44531 1.5664 0.46094 3.1602 0.83594 4.7695 1.125 1.5547 0.16406 3.125 0.125 4.668-0.11719 0.80469-0.15234 1.3789-0.86328 1.3555-1.6836-0.023437-0.81641-0.63672-1.4961-1.4492-1.6016z"/>
  <path d="m379.29 272.96c-0.0625-0.33594-0.32031-0.60547-0.65625-0.68359-0.33594-0.078125-0.68359 0.050781-0.89062 0.32422-0.79688 1.3242-1.3008 2.8047-1.4766 4.3438-0.34375 1.4023-2.1875 1.8516-3.4219 2.4141-0.71094 0.32422-0.60938 1.5742 0.25 1.5859v-0.003906c0.61328 0.015625 1.2266-0.011718 1.8359-0.082031l-1.4609 0.40234c-0.35938 0.070312-0.60156 0.41406-0.54297 0.77734 0.058594 0.36328 0.39453 0.61719 0.75781 0.57031 1.1367-0.16016 2.2461-0.48828 3.2891-0.97656 0.26172-0.125 0.42188-0.40234 0.40234-0.69531-0.023438-0.28906-0.22266-0.53906-0.5-0.62891 0.53125-0.26172 0.98047-0.66016 1.3008-1.1562 0.4375-0.85938 0.72266-1.793 0.83203-2.75 0.34375-1.1133 0.4375-2.2852 0.28125-3.4414z"/>
  <path d="m373.82 284.5c-0.12891-0.27734-0.41016-0.44922-0.71484-0.44141-0.30469 0.011718-0.57422 0.19922-0.6875 0.48438-0.13672 0.57031-0.23828 1.1484-0.3125 1.7344-0.03125 0.70703-0.11328 1.4102-0.24609 2.1055-0.19531 0.64844-1.3477 1.0469-1.9727 1.3242-0.25391 0.12891-0.36328 0.43359-0.25 0.69531 0.11719 0.26172 0.41406 0.38281 0.67969 0.28125 0.625-0.23438 1.5352 0.30469 2.2266 0.17188l0.003906 0.003906c0.64844-0.14453 1.1953-0.57812 1.4766-1.1797 0.52734-1.6992 0.45312-3.5273-0.20312-5.1797z"/>
  <path d="m373.02 291.95c-0.98828 0.12109-1.9414 0.46484-2.7812 1-0.92578 0.41406-1.9688 0.41406-2.9141 0.79297v0.003906c-0.19922 0.089844-0.32031 0.29297-0.31641 0.51172 0.007812 0.21875 0.14453 0.41406 0.34766 0.49219 1.0625 0.32422 2.1836 0.37891 3.2734 0.16797 1.1875 0.074219 2.3516-0.35938 3.1992-1.1914 0.22656-0.32812 0.26562-0.75391 0.10156-1.1172-0.16406-0.36719-0.51172-0.61719-0.91016-0.66016z"/>
  <path d="m365.15 284.85c-0.78906-0.16797-1.6016-0.18359-2.3945-0.050781l-2.6719 0.20312c-0.81641 0.0625-0.65625 1.1953 0.039063 1.3359 1.6562 0.50391 3.4297 0.48047 5.0703-0.070313 0.53906-0.28516 0.64844-1.2188-0.042968-1.418z"/>
  <path d="m358.59 325.56c-0.12109-0.25391-0.39453-0.39844-0.67188-0.35547-0.27734 0.046875-0.49219 0.26953-0.52344 0.54688-0.054687 1.875-0.16016 3.7461-0.36328 5.6133-0.29297 1.7656-0.44141 3.5469-0.44531 5.3359 0.066407 1.2656 1.7656 1.1328 2.207 0.21875 1.3203-3.6836 1.2461-7.7227-0.20312-11.359z"/>
 </g>
</svg>