<?xml version="1.0" encoding="UTF-8"?>
<!-- Uploaded to: ICON Repo, www.iconrepo.com, Generator: ICON Repo Mixer Tools -->
<svg fill="#000000" width="800px" height="800px" version="1.1" viewBox="144 144 512 512" xmlns="http://www.w3.org/2000/svg">
 <g>
  <path d="m342.89 387.46c-6.4727-2.625-12.836-5.4141-19.426-7.7617-5.8281-2.6445-12.027-4.3672-18.383-5.1055-2.5508-0.089844-5.0938 0.33203-7.4766 1.2383-2.4648-1.0391-4.9258-2-7.293-3.2812-2.4727-1.4219-5.0547-2.6406-7.7266-3.6445-5.6992-1.8438-11.715-2.5234-17.684-2-5.0273 0.20703-9.9805 1.3086-14.621 3.25-4.2969 2.0586-7.8477 5.3984-10.16 9.5586-0.37109 0.60938 0.52344 1.2578 0.91406 0.64453v0.003907c2.9297-3.6953 7.1016-6.1992 11.738-7.0547 4.7305-1.2383 9.6055-1.832 14.492-1.7695 5.4805-0.13672 10.934 0.86328 16.008 2.9375 3.043 1.668 6.1797 3.1484 9.4023 4.4336-0.66016 0.62109-1.2617 1.3047-1.793 2.043-2.793 3.9062-3.5781 8.8633-6.332 12.797-0.023437-0.55078-0.15625-1.0938-0.39062-1.5938-0.32031-0.91797-0.90234-1.7227-1.6719-2.3125-0.20703-0.14062-0.47656-0.16406-0.70312-0.058594-0.23047 0.10156-0.38672 0.32031-0.41406 0.57031 0.042968 0.84766 0.15625 1.6914 0.33594 2.5234 0.15625 0.97266 0.23438 1.8789 1.2578 2.3086v0.003906c0.30469 0.10938 0.64062 0.066407 0.90234-0.12109 0.058593 0.19922 0.21094 0.35547 0.40625 0.41797 0.19922 0.0625 0.41406 0.023437 0.57422-0.10938 3.3008-3.125 5.5898-7.0781 8.707-10.34v0.003906c1.4023-1.7305 3.1172-3.1797 5.0547-4.2773 2.418-1.0898 5.0586-1.582 7.707-1.4336 5.9766 0.70312 11.836 2.1797 17.434 4.3945 6.1562 1.9414 12.414 3.3867 18.641 5.0664 0.36719 0.125 0.76562-0.0625 0.89844-0.42578 0.13672-0.35938-0.042968-0.76172-0.39844-0.90625z"/>
  <path d="m407.9 496.27c-1.2695-0.57031-2.6094-0.96094-3.9844-1.1641-1.4141-0.375-2.7617-0.96875-3.9961-1.7578-2.5625-1.7031-4.8984-3.7266-6.9453-6.0234-4.8945-5.1836-9.6914-10.473-14.473-15.762-4.7891-5.2969-9.4219-10.734-13.898-16.305-4.5391-5.6484-8.0469-12.016-12.5-17.711-0.60938-0.78125-1.668 0.019531-1.3945 0.85547l-0.003907 0.003906c0.85156 2.5352 1.918 4.9883 3.1914 7.3398-2.2344-0.5-4.5-0.87109-6.7773-1.1172-3.3086-0.41406-6.6055-0.91797-9.9062-1.375-6.6875-0.92188-13.492-1.8047-20.113-3.125-6.4141-1.1953-12.629-3.2578-18.488-6.1289-5.7695-2.3125-10.738-6.2656-14.293-11.367-1.5586-2.9727-2.9141-6.0508-4.0547-9.207-1.2734-3.2227-3.2109-8.5156-0.30078-11.379 0.39844-0.39453-0.11328-1.0547-0.5625-0.6875-2.1602 1.5859-3.6016 3.9609-4.0039 6.6094-0.070313 3.2617 0.5 6.5078 1.6875 9.5469-2.6367-1.4219-5.5117-2.5391-8.0391-3.8828-4.6367-2.4688-9.293-4.8164-14.074-7l-0.003906-0.003906c-4.2031-1.5508-7.9375-4.1523-10.848-7.5586-1.2617-1.6602-2.2305-3.5195-2.8711-5.5-0.80078-2.2812-1.0664-4.7109-0.78516-7.1094 0.1875-0.76953-0.96484-1.2266-1.1797-0.4375l0.003906-0.003907c-0.77344 2.0078-1.2695 4.1133-1.4727 6.2539-0.023437 2.1875 0.3125 4.3672 0.98828 6.4492 1.7695 4.7031 5.3086 8.5273 9.8633 10.656 5.0859 2.6523 10.332 4.9883 15.707 6.9961 2.7461 1.0625 5.5078 2.0859 8.1992 3.2891 2.2109 0.99219 4.3242 2.2305 6.5625 3.168l-0.003907 0.003907c2.0781 4.4492 5.3711 8.2188 9.5039 10.875 12.43 7.8906 26.676 12.461 41.379 13.262 4.3984 0.25 8.8242 0.11328 13.23 0.27344 4.0234 0.14844 8 0.80078 12.02 0.94141 1.9375 3.3203 4.1133 6.5234 6.1914 9.6445h-0.003906c4.4688 6.4141 9.3945 12.492 14.746 18.188 4.9727 5.5234 9.8242 11.266 15.094 16.512h-0.003907c2.1758 2.2891 4.6758 4.2461 7.4258 5.8047 2.4531 1.3086 6.2188 2.8672 8.8516 1.3047 1.1133-0.66016 1.7891-2.5664 0.33594-3.3711z"/>
  <path d="m280.94 382.66c-0.94922-1.0977-1.832-2.25-2.6445-3.4531-1.1289-2.1211-3.2422-3.5391-5.6328-3.7773-1.9922-0.074219-3.7617 1.2695-4.2266 3.2109l-0.019532 0.23438h0.003907c-1.3867-0.45703-2.8359-0.69141-4.2969-0.69141-2.6914 0.19922-5.3398 0.78125-7.8711 1.7188-2.4336 0.88281-4.9453 1.5391-7.5 1.9688-2.5781 0.60938-5.293 0.24219-7.6133-1.0391-0.60156-0.47656-1.2734 0.48828-0.6875 0.96875 1.6484 1.6133 3.6641 2.8086 5.8711 3.4766 2.5195 0.52734 5.1172 0.53906 7.6406 0.035156 5.3242-0.98828 10.445-2.7773 15.77-3.7773h-0.003907c0.65625 0.48438 1.3867 0.86328 2.1602 1.1211 0.25781 0.089844 0.54688-0.003906 0.70703-0.22656 0.16016-0.22266 0.15234-0.52344-0.015625-0.74219l-0.44141-0.64844h0.003906c0.13281-0.12891 0.19531-0.32031 0.16016-0.50391-0.035156-0.18359-0.16406-0.33984-0.33594-0.41016l-0.17578-0.0625c-0.078124-0.58984 0.19922-1.0156 1.2344-0.75 1.1875 0.30469 2.2422 2.2109 2.9492 3.0781 1.4727 1.8125 3.3281 4.7031 5.8828 4.6133 0.66406-0.023437 0.96875-0.75 0.94531-1.3008-0.054687-1.3789-0.97656-2.0586-1.8633-3.043z"/>
  <path d="m274.07 411.46c-1.9414-4.6055-7.9219-6.4297-12.016-8.8555l0.19531-0.12109c0.48047-0.37109 0.87109-0.84766 1.1367-1.3945 0.26172-0.48047 0.39453-1.0195 0.39453-1.5664-0.015625-0.44141-0.22656-1.0859-0.79297-0.99609-0.58984 0.09375-1.0664 0.83594-1.5078 1.2109l-0.80469 0.56641-0.82422 0.76953-0.066406 0.074219c-0.81641-0.55078-1.6133-1.1211-2.3945-1.7148l0.40234-0.46875c0.24219-0.32422 0.45703-0.66797 0.64453-1.0273 0.21484-0.38672 0.24609-0.95703 0.50781-1.293 0.40234-0.52344-0.43359-1.1133-0.83594-0.59375-0.20312 0.25781-0.64062 0.35156-0.90625 0.55469l-1.0078 0.86719-0.53906 0.58594-1.2031-1.0391c-1.1914-0.77344-2.0391-1.9805-2.3594-3.3633-0.20312-1.668 0.046875-3.3555 0.71484-4.8945 0.09375-0.27344 0-0.57812-0.23828-0.74609-0.23828-0.17188-0.55859-0.16406-0.78516 0.015625-2.3984 1.8906-3.6406 4.8906-3.2773 7.9219 1.3047 3.1055 3.5547 5.7227 6.4258 7.4805 2.7812 1.9414 5.8555 3.4141 9.1133 4.3633 3.1484 1.082 6.0938 2.6797 8.7188 4.7266 0.32031 0.21484 0.74609 0.19531 1.0469-0.046876 0.30078-0.24609 0.40625-0.66016 0.25781-1.0156z"/>
  <path d="m348.36 415.57c-1.7383 0.60938-3.3594 1.5039-4.8008 2.6445-0.84766 1.2891-1.2383 2.8203-1.1094 4.3555-0.19531 2.0117-0.50391 4.0117-0.87109 6-0.37891 1.5469-0.63672 3.1211-0.77344 4.7109-3.3125-1.1602-6.8242-1.9336-10.082-3.1797-4.4219-1.6914-8.8672-3.2852-13.234-5.1211-4.2461-1.7852-8.4102-3.7695-12.676-5.5039v-0.003906c-4.3945-1.4023-8.6836-3.1055-12.84-5.1016-0.38672-0.25781-0.91016-0.16406-1.1797 0.21875-0.26953 0.37891-0.1875 0.90625 0.18359 1.1836 3.5156 2.8789 7.2852 5.4336 11.262 7.6328 4.3828 2.3086 8.9688 4.2695 13.531 6.1953v0.003906c4.4336 2.0039 9.0117 3.6797 13.691 5.0156 4.5039 1.5312 9.2227 2.3359 13.977 2.3828 1.4453-0.11328 1.3555-2.0586 0.25781-2.5703l-0.09375-0.042969c1.4023-2.8125 2.1602-5.9023 2.2266-9.0469 0.097656-0.9375 0.16797-1.8789 0.21875-2.8203h0.003906c-0.078125-0.75391-0.050781-1.5156 0.074219-2.2617 0.85938-1.3555 1.8984-2.582 3.0898-3.6523 0.46875-0.50391-0.27344-1.3438-0.85547-1.0391z"/>
  <path d="m352.36 393.95c-2.0742-0.52344-4.2109-0.75391-6.3477-0.68359-2.2031-0.28906-4.3789-0.76172-6.5078-1.418-3.9688-1.4805-7.8555-3.1719-11.645-5.0664-0.42188-0.17578-0.77734 0.47266-0.37891 0.71484v0.003906c0.96094 0.78906 1.8164 1.7031 2.5352 2.7188 0.78516 0.85156 1.6367 1.6406 2.5391 2.3672 1.8477 1.4805 3.8867 2.707 6.0586 3.6523 2.1016 0.89453 4.3125 1.5078 6.5742 1.832 2.4023 0.64453 4.9492 0.53516 7.2852-0.31641 0.74219-0.35937 1.2031-1.1172 1.1797-1.9414-0.027344-0.82031-0.53516-1.5508-1.293-1.8633z"/>
  <path d="m315.58 390.64c-3.332-1.3828-6.8555-2.2461-10.449-2.5586-3.5625 0.011719-7.1172 0.36719-10.613 1.0586-0.58594 0.070312-0.72656 1.0352-0.11719 1.1875 3.3359 0.40234 6.6953 0.56641 10.055 0.49219 3.5977 0.37891 7.043 1.4844 10.578 2.1758 1.3984 0.27344 1.7891-1.8555 0.54688-2.3555z"/>
  <path d="m358.29 393.06c-0.89453-4.0586-2.0508-8.0586-3.457-11.973-0.96875-4.2969-1.6094-8.6602-1.9141-13.055-0.070313-0.73047-1.0781-0.59766-1.1992 0.035156-0.90234 3.7109-1.3203 7.5195-1.2422 11.34 0.52344 3.7539 1.4453 7.4414 2.7422 11 0.63672 2.6172 0.98047 5.293 1.0273 7.9844-3.293 0.12109-6.4727 1.2422-9.1133 3.2109l-1.1211 0.71875c-1.2031-0.13672-2.4414-0.066406-3.6562-0.20312v0.003906c-2.1055-0.30078-4.1758-0.82031-6.1758-1.5469-4.0547-1.2539-8.0391-2.7266-11.938-4.4062-0.75391-0.34375-1.1758 0.83984-0.44531 1.1992v0.003906c2.1836 1.2617 4.2383 2.7383 6.1289 4.4102 1.8594 1.4336 3.8867 2.6367 6.0391 3.582 1.8438 0.80859 3.793 1.3672 5.7891 1.6602-0.49609 1.582-0.85156 3.4414-2.1953 3.9766-0.78516 0.3125-0.25 1.4805 0.52734 1.1914v-0.003906c2.8125-1.4766 5.4492-3.2656 7.8594-5.332 1.5742-1.0273 3.207-1.9688 4.8867-2.8086 1.1523-0.52344 2.3516-0.94141 3.582-1.25 0.14453 1.5859-0.007812 3.1797-0.44922 4.707-0.73438 1.6875-1.6406 3.2969-2.7031 4.8008-0.3125 0.47656-0.28125 1.1016 0.078125 1.543 0.36328 0.44141 0.96875 0.59375 1.4961 0.37891 2.9961-1.8203 4.9648-4.9453 5.3086-8.4336 0.81641-4.2031 0.86719-8.5156 0.14453-12.734z"/>
  <path d="m355.73 349.01c-1.6484-5.1992-4.0352-10.133-7.0859-14.652-2.4688-5.0547-4.5625-10.285-6.2617-15.648-1.8633-5.3945-4.2812-12.285 1.0469-16.582 0.73438-0.59375-0.18359-1.7148-0.92969-1.1328v0.003906c-4.0625 2.9062-6.2148 7.8047-5.6055 12.766 0.42969 2.9023 1.1445 5.7578 2.1367 8.5195 0.90625 2.9375 1.8633 5.8633 2.9609 8.7383 1.0195 2.7305 2.2266 5.3867 3.6094 7.957 1.3281 2.4336 2.8438 4.7617 3.9805 7.2969 0.45703 1.0273 0.84766 2.0898 1.1641 3.1719l-0.27734-0.30078c-1.2773-1.4336-2.5586-2.8867-3.8945-4.2656h0.003907c-0.80078-1.0898-1.8789-1.9492-3.1172-2.4883-0.16016-0.054687-0.33594-0.023437-0.46484 0.082031-0.12891 0.10547-0.19531 0.27344-0.17578 0.4375 0.23047 1.1953 0.77344 2.3047 1.5703 3.2227 0.98047 1.4922 2.0547 2.9336 3.1055 4.3789 0.90625 1.2461 1.8594 2.457 2.7266 3.7266 0.5625 0.82812 1.0039 1.6992 1.5547 2.4961-0.027344 2.6992-0.45313 5.4023-0.53906 8.0977h0.003906c-0.039062 0.59766 0.35547 1.1328 0.9375 1.2656 0.57812 0.13672 1.1719-0.17187 1.3945-0.72266 2.0977-5.1836 2.8398-10.816 2.1562-16.367z"/>
  <path d="m350.61 422.68c-0.1875-0.35156-0.82812-0.44141-0.94922 0.027344-0.34766 1.8516-0.56641 3.7266-0.65625 5.6094-0.375 2.0859-0.63281 4.1953-0.76953 6.3125-0.042969 0.64453 0.38672 1.2266 1.0156 1.3711 0.62891 0.14844 1.2695-0.18359 1.5156-0.78125 1.6289-4.0312 1.5742-8.5469-0.15625-12.539z"/>
  <path d="m357.53 428.67c-0.035156-1.0938-0.14844-2.1875-0.33594-3.2695-0.33594-1.0547-0.61328-2.125-0.83984-3.207-0.070312-0.85156-1.3789-0.64062-1.3086 0.20703h-0.003907c-0.054687 1.0352-0.19922 2.0625-0.42969 3.0742-0.10938 0.95313-0.14453 1.9141-0.20703 2.8711-0.25391 1.9062-0.25391 3.8398 0 5.75 0.10938 0.59766 0.60547 1.0508 1.207 1.1094 0.60547 0.058594 1.1797-0.28516 1.4062-0.85156 0.55078-1.8398 0.72656-3.7734 0.51172-5.6836z"/>
  <path d="m360.37 420.07c-0.12891-0.27344-0.42188-0.42578-0.71875-0.37891s-0.52734 0.28516-0.56641 0.58203c-0.49219 3.293-0.29688 6.6523 0.57031 9.8633 0.35938 1.4414 2.8789 1.6562 2.8281-0.082031 0-3.4375-0.71875-6.8398-2.1133-9.9844z"/>
  <path d="m386.58 439.64c-1.2383-5.2539-2.9414-10.387-5.0898-15.34-1.9102-5.2656-3.3398-10.695-4.2734-16.223-1.0664-5.1484-2.5391-10.203-4.3984-15.121-0.9375-2.5508-1.7422-5.1484-2.418-7.7773 0.70312-6.2578 1.0273-12.555 0.98047-18.852-0.34766-8.6367-1.6445-17.211-3.8633-25.566-1.0742-4.3828-2.0117-8.8164-3.1523-13.184-1.0898-4.1719-1.8789-8.5664-3.3125-12.633-0.5-1.4219-2.5273-0.64062-2.4062 0.71094 0.39062 4.418 1.4805 8.9531 2.2969 13.316 0.77734 4.1523 1.6445 8.2891 2.4219 12.445h0.003906c1.8242 8.1836 2.9727 16.5 3.4414 24.867 0.066406 8.2461-0.32031 16.492-1.1562 24.699-0.34375 3.9023-0.74219 7.793-1.2891 11.668h0.003906c-0.21484 4.3125-0.85156 8.5938-1.8945 12.785-0.11719 0.34375 0.058594 0.72266 0.40234 0.85156 0.34375 0.125 0.72656-0.042969 0.86328-0.38281 1.7266-3.7539 3.1797-7.6289 4.3477-11.59 0.59766-2.875 1.0312-5.7773 1.293-8.6992 1.0859 4.2539 2.2695 8.4688 2.9727 12.828v-0.003907c1.1055 11.613 5.3984 22.691 12.406 32.016 0.30078 0.34766 0.79297 0.45703 1.2148 0.26953 0.41797-0.19141 0.66406-0.62891 0.60547-1.0859z"/>
  <path d="m341.15 335.88c-2.8477-1.6875-5.8555-3.0938-8.9805-4.1992l0.12891-0.55469c0.03125-1.3203-0.72266-2.7188-0.53125-3.9844 0.23828-1.5664 1.9453-2.6133 3.3086-3.0391 0.89844-0.27734 0.44141-1.8516-0.46875-1.5938-2.6602 0.75-5.9492 0.90625-6.6211 4.25v0.003906c-0.078125 0.40625-0.10156 0.82031-0.070312 1.2305-0.69141-1.0781-1.1055-2.3125-1.1953-3.5898-0.54688-6.5195-0.85547-16.199 5.8008-19.879 0.33594-0.16406 0.48047-0.56641 0.32812-0.90625-0.15234-0.34375-0.54297-0.50391-0.89062-0.36719-8.5469 3.3398-9.5898 13.285-9.3242 21.273l-0.003907-0.003906c0.035157 3.8086 2.0742 7.3125 5.3672 9.2188 1.8125 0.99219 3.7422 1.7422 5.75 2.2344 2.1914 0.73828 4.4336 1.332 6.7031 1.7773 1.0977 0.15234 1.4414-1.25 0.69922-1.8711z"/>
  <path d="m387.42 307.41c-4.0703-1.4453-8.3281-2.2891-12.645-2.5078-2.125-0.16016-4.25-0.22266-6.3477-0.42969-1.2305-0.73828-2.4844-1.4414-3.7656-2.0703-5.5273-3.0742-12.035-3.8828-18.148-2.2578-0.82422 0.24609-0.375 1.4844 0.41016 1.3945h0.003906c6.4258-0.32031 12.777 1.4805 18.082 5.125 2.6602 1.6133 5.1719 3.4531 7.7383 5.2109h-0.003906c2.2148 1.8242 4.7617 3.1992 7.5 4.0508 1.2109 0.26172 1.9805-1.4258 1.2266-2.2852-1.9062-1.9375-4.0781-3.5977-6.4492-4.9297 2.6211 0.58594 5.2539 1.1211 7.8633 1.7852h-0.003906c3.6094 0.45312 6.8086 2.5312 8.6914 5.6406 1.293 3.0898 2.3242 6.2852 3.0781 9.5469 0.36719 1.1523 2.2656 0.79688 2.3047-0.36719 0.44531-3.6016-0.23047-7.2578-1.9375-10.461s-4.3594-5.8047-7.5977-7.4453z"/>
  <path d="m427.21 397.09c-0.33203-3.0547-1.0508-6.0547-2.1367-8.9297-1.2891-3.0352-3.1367-5.7969-5.4453-8.1445-2.6719-2.2656-5.1797-4.7227-7.5078-7.3398-3.8906-6.1016-6.957-12.688-9.1133-19.594-3.2227-7.1602-5.668-14.645-7.2969-22.324-0.11328-0.70703-1.3008-0.72266-1.293 0.035156h0.003906c0.019531 7.5859 1.2656 15.117 3.6914 22.301 1.1914 3.4883 2.6328 6.8906 4.0469 10.293 1.2148 3.3398 2.7617 6.5469 4.6133 9.582 2.2109 2.7656 4.7891 5.2109 7.668 7.2734 2.5625 2.125 4.6602 4.7578 6.1602 7.7305 1.5547 3.0625 2.8086 6.2656 3.7422 9.5703 0.84766 3.1562 0.89844 6.4844 2.0117 9.5742v-0.003906c0.1875 0.39062 0.60547 0.61328 1.0312 0.54297 0.42578-0.066406 0.75781-0.40625 0.8125-0.83594 0.074219-3.2734-0.25391-6.543-0.98828-9.7305z"/>
  <path d="m419.26 408.65c-0.77344-4.5586-1.8047-9.0664-3.0898-13.508-0.042969-0.23828-0.26562-0.39844-0.50391-0.35938s-0.40234 0.25781-0.37109 0.5c0.46484 4.4844 0.40625 9.0117-0.17969 13.484-0.29688 3.8594-2.8047 7.0703-2.5547 10.996 0.12109 1.8672 2.832 1.8984 3.4375 0.34375l0.003906 0.003906c2.0156-3.4961 3.1328-7.4297 3.2578-11.461z"/>
  <path d="m561.66 480.76c-1.4062-2.3359-3.4102-4.2578-5.8047-5.5625-2.4297-1.5898-5.0547-2.8555-7.8125-3.7695-2.2344-0.74609-4.6172-1.125-6.9023-1.7188-0.88281-1.1875-1.8633-2.3008-2.9258-3.332-1.7891-1.5469-3.3672-3.3281-4.6875-5.293-1.1484-1.9961-2.0508-4.125-2.6758-6.3438-0.33594-1.1602-0.62109-2.4648-1.0273-3.6875 1.543 1.3008 2.9492 2.7617 4.1914 4.3516l3.7109 4.1914c0.95312 1.0742 3.4609 3.0977 1.8398 4.5469-0.64062 0.57422-0.64453 1.9492 0.36328 2.1836v0.003906c1.0352 0.25 2.1289-0.03125 2.9141-0.75391 0.78516-0.72266 1.1641-1.7852 1.0039-2.8398-0.10156-3.2461-3.5781-5.9922-5.5547-8.25-1.9805-2.7656-4.4023-5.1914-7.168-7.1797-2.6562-1.3086-5.6484-1.7656-8.5703-1.3086-3.3633 0.34375-6.6602 1.2852-9.9766 1.9219-3.7148 0.71094-7.4414 1.3711-11.184 1.9258-7.6328 1.1328-15.324 1.8398-23.023 2.332-4.3281 0.27734-8.6641 0.51953-13 0.72266-2.168 0.10156-4.3203 0.23047-6.4805 0.39062-0.69531 0.050782-1.9648 0.38281-3.1406 0.51172-3.3125-6.4062-7.0156-12.676-10.844-18.719-1.8945-2.9922-3.9961-5.8281-6.1328-8.6328 1.0742 1.0508 2.1602 2.0938 3.3242 3.0469 2.9922 2.4492 6.1328 4.6641 9.2852 6.8945 2.5898 2.1719 5.8281 3.4219 9.2031 3.5586 3.625-0.10938 7.2305-0.57812 10.758-1.4023 3.6289-0.74609 7.2461-1.5938 10.938-1.9961 3.5156-0.33203 7.0508-0.42188 10.574-0.26562 6.9648 0.54688 13.961 0.47266 20.91-0.22266 3.6836-0.54688 7.2617-1.6562 10.613-3.2852 1.6719-1.0234 3.5703-1.625 5.5312-1.75 1.5547 0.23047 3.0078 0.91406 4.1719 1.9688 0.38281 0.26562 0.875 0.30859 1.3008 0.11328 0.42188-0.19141 0.71094-0.58984 0.76172-1.0547 0.1875-2.8867-2.1055-4.4609-4.6992-5.0273l0.003906 0.003906c-3.1836-0.35938-6.4023 0.30078-9.1875 1.8828-6.7109 2.6094-13.918 3.6875-21.098 3.1484-7.1719-0.54297-14.379-0.45703-21.535 0.25-3.8125 0.55469-7.5547 1.4883-11.34 2.1836-3.6602 1.168-7.5859 1.207-11.266 0.10547-3.7305-1.8438-7-4.8203-10.555-6.9961-1.8789-1.1523-3.7773-2.3086-5.7578-3.2773-1.9688-0.96094-3.9102-1.7422-5.7578-2.8711-2.0312-2.6875-4.0078-5.4141-5.7852-8.2891-0.34766-0.5625-1.1797-0.066407-1.1094 0.49609h0.003906c0.82422 4.0273 2.5078 7.8281 4.9453 11.141 2.5586 3.9844 5.1094 7.9609 7.5391 12.023 4.5859 7.6641 8.4414 15.719 12.824 23.484-7.0508 0.46875-14.07 1.3281-21.023 2.5781-1.9023-6.6094-4.1719-13.105-6.8008-19.461-1.4844-3.5586-3.1758-7.0234-4.9258-10.457-0.79688-1.5625-1.625-3.1133-2.3047-4.7305-0.73828-1.7617-1.0977-3.707-1.9375-5.4023v-0.003906c-0.13672-0.28125-0.42578-0.45703-0.73828-0.44531-0.3125 0.007813-0.58594 0.19922-0.70703 0.48828-0.87109 3.2344-0.38672 6.6836 1.3359 9.5547 1.5391 3.6289 3.1289 7.2266 4.6094 10.883 2.707 6.6875 5.1406 13.484 7.1719 20.402-3.4023 0.69922-6.7773 1.4883-10.125 2.375v0.003906c-3.5859 0.85938-7.0664 2.1211-10.371 3.7578l-1.2188 0.65625c-0.58203-1.3516-1.3359-2.6172-2.2461-3.7734-1.9062-2.5742-3.9062-5.0781-5.7305-7.7148-1.8828-2.7266-3.4961-5.6289-5.1133-8.5156-1.2812-3.0742-2.9375-5.9805-4.9336-8.6484-0.40234-0.41406-1.2773-0.30078-1.2969 0.39062h0.003906c0.25781 2.9023 1.0977 5.7227 2.4609 8.293 1.3047 3.0938 2.7891 6.1094 4.4414 9.0312 1.5508 2.7812 3.0625 5.6055 4.8789 8.2227 1.2773 1.8398 2.4648 3.8359 3.7656 5.6914h-0.003906c-1.0039 0.92969-1.7773 2.0859-2.2539 3.3711-0.054688 0.15625-0.023438 0.33203 0.085937 0.46484 0.10547 0.12891 0.26953 0.19531 0.4375 0.17188 1.3047-0.29297 2.5781-0.71875 3.8008-1.2695 1.4414-0.5 2.8555-1.0742 4.2383-1.7227 2.875-1.2305 5.8281-2.2812 8.8398-3.1445 6.7227-1.7734 13.535-3.1758 20.41-4.207 7.1875-1.1602 14.457-2.2344 21.715-2.8242 3.6523-0.29688 7.3086-0.17188 10.969-0.32422l0.003907 0.003906c3.543-0.16406 7.0547-0.75391 10.457-1.7578 6.9297-3.2539 14.734-4.1484 22.215-2.543 1.3086 0.46875 2.4219-1.4336 1.1719-2.2148l0.003906-0.003907c-2.7969-1.6367-5.9961-2.4609-9.2383-2.3789 3.7031-0.4375 7.3945-0.96094 11.07-1.5938 1.5625-0.26953 3.1094-0.57812 4.6562-0.91016-1.8398 1.0742-3.6992 2.1055-5.5352 3.1914v-0.003906c-0.17188 0.085937-0.25781 0.27734-0.20312 0.46094 0.054687 0.17969 0.23047 0.29688 0.41797 0.27344 3.0547-0.33984 5.9883-1.3711 8.5781-3.0195 1.5039-0.85156 3.3555-1.8086 4.9492-2.9375 1.9961-0.61328 4.0664-0.94922 6.1523-1.0039 0.80078 0.007813 1.5898 0.14844 2.3398 0.41797-0.38672 3.4141 0.011718 6.8711 1.1602 10.109 1.6562 3.8789 4.1836 7.3242 7.3906 10.066 2.8516 3.4258 5.0117 7.375 6.3672 11.621 1.3008 4.3438 0.71094 9.0352-1.6211 12.926-0.56641 1.0469 0.55859 2.3477 1.6172 1.5078v-0.003906c2.3633-1.793 3.9648-4.4102 4.4922-7.332 0.52344 0.007813 1.043-0.015625 1.5273-0.03125h-0.003907c1.7773-0.078125 3.5508-0.26172 5.3086-0.54688 0.17188-0.03125 0.30859-0.16016 0.34766-0.32812 0.039063-0.16797-0.027343-0.34766-0.16406-0.44922-2.0781-1.3398-4.418-2.2305-6.8633-2.6055-0.63672-4.6016-2.2578-9.0078-4.7539-12.926 1.125 0.63672 2.2305 1.3008 3.2969 1.8867 2.3789 1.3086 4.75 2.6758 7.0078 4.1875 1.5781 1.0547 5.332 3.1953 5.0781 5.3633-0.12891 1.1172-1.2422 1.7695-1.0977 2.9531l0.003906-0.003906c0.03125 0.67969 0.50391 1.2578 1.1602 1.4219 0.60547 0.23047 1.2891 0.11719 1.7852-0.29688 2.1094-1.5508 2.8477-4.3594 1.7773-6.7461zm-75.836-24.188c-3.5586 1.1836-7.1875 2.1328-10.871 2.8398-3.8242 0.41797-7.668 0.58203-11.516 0.48047-1.5391 0.023437-3.082 0.070313-4.625 0.12891l-0.050782-0.11719-1.2031-2.5 0.003906-0.003906c2.4219 0.11328 4.8555 0.0625 7.2734-0.14453 7.0469-0.26172 14.094-0.60156 21.125-1.1914l2.9922-0.26562c-1.0781 0.21875-2.125 0.48047-3.1289 0.77344z"/>
  <path d="m543.57 450.78c-2.4023-4.4414-4.5586-9.0078-6.4609-13.688-0.21875-0.57812-1.0586-0.27344-0.99609 0.29297 0.53516 4.3867 1.6875 8.6719 3.418 12.734 0.75781 1.8711 1.707 3.6602 2.8242 5.3438 1.4375 1.5859 2.4219 3.5195 2.8633 5.6133 0.058594 0.33203 0.30859 0.59766 0.63672 0.67578 0.32812 0.074219 0.67188-0.050781 0.875-0.32422 2.1289-3.8477-1.4883-7.375-3.1602-10.648z"/>
  <path d="m540.55 487.33c-0.70312-1.3398-1.582-2.5742-2.6211-3.6719-1.1133-1.0234-2.2812-1.9766-3.5078-2.8633-2.4141-1.7539-4.9609-3.3203-7.5156-4.8555-2.6367-1.7227-5.5234-3.0273-8.5586-3.8672-2.7852-0.5625-5.668-0.39844-8.375 0.47266-0.5625 0.13281-0.4375 1.0078 0.14062 0.89844h0.003906c3.1094-0.1875 6.1992 0.625 8.8203 2.3164 2.4727 1.3477 4.832 2.8906 7.2109 4.3906 2.2109 1.3906 4.4102 2.8125 6.4883 4.4023 0.9375 0.71875 1.8438 1.4766 2.7383 2.25 1.0664 0.92187 2.3086 1.5508 3.3555 2.4805 1.2266 1.0898 2.5703-0.79297 1.8203-1.9531z"/>
  <path d="m489.6 473.7c-1.6641-2.3516-5.9531-1.6406-8.4531-1.332-3.3711 0.45312-6.6992 1.1875-9.9492 2.1953-6.75 2.0234-13.48 4.1055-20.191 6.2539-6.707 2.1367-13.367 4.375-19.855 7.1094-6.5859 2.7773-13.41 5.1328-19.781 8.3828-0.53906 0.27344-0.33594 1.2031 0.3125 1.0625 6.6875-1.4414 13.172-3.7266 19.793-5.4336 6.4805-1.6719 12.871-3.6172 19.246-5.6562 6.4492-2.0664 12.914-4.0781 19.395-6.0352 3.1562-0.95312 6.2578-2.1016 9.4219-3.0039v-0.003907c1.5-0.44531 3.043-0.72266 4.6055-0.82422 1.6562-0.089843 3.3945 0.55469 4.8867-0.30859v-0.003907c0.43359-0.20312 0.75-0.59766 0.85938-1.0625 0.11328-0.46875 0.007813-0.96094-0.28906-1.3398z"/>
  <path d="m501.43 487.27c-1.5469-1.8477-3.3555-3.457-5.3672-4.7812-2.2617-1.2852-4.2969-2.9336-6.0156-4.8867-0.37891-0.53906-1.1719 0.11328-0.79297 0.64844 1.1523 1.6445 2.0938 3.4492 3.3906 4.9844 1.3672 1.6133 2.8516 3.125 4.1875 4.7656 1.3203 1.6211 3.332 3.6719 2.5586 5.9531-0.61719 1.8164-1.8203 2.6602-1.6953 4.7227 0.058594 0.97656 1.3711 1.0898 1.8867 0.44141 1.6367-1.5 2.9414-3.3281 3.8359-5.3633 0.36328-2.3516-0.36719-4.7422-1.9883-6.4844z"/>
  <path d="m512.46 487.14c-0.91406-3.7031-3.9805-6.3477-4.3086-10.262-0.26172-3.1367 1.3164-9.1523-2.2773-10.805v0.003907c-0.57422-0.21094-1.2148-0.015625-1.5703 0.48438-0.57812 1.2344-0.72656 2.6289-0.41406 3.957 0.125 1.7227-0.039063 3.457 0.011719 5.1836 0.09375 3.0391 1.0859 5.9844 2.8555 8.4648 0.98047 1.2812 1.6953 2.75 2.1016 4.3125 0.16016 1.7773-0.375 3.543-1.4883 4.9336-1.6367 2.9258-4.2383 5.1914-7.3594 6.4102-0.55469 0.14844-0.44141 1.0156 0.14063 0.89844 3.3477-0.32422 6.5156-1.6758 9.0664-3.8672 2.6523-2.4805 3.8711-6.1367 3.2422-9.7148z"/>
  <path d="m271.55 387.55c-0.13672-0.48047-0.625-1.2383-1.2383-0.98047-0.78516 0.33203-0.99609 1.5586-1.4219 2.2305-0.51172 0.87109-1.2031 1.625-2.0234 2.2148-0.89453 0.58594-0.12891 1.9648 0.81641 1.8203 1.7188-0.1875 3.1758-1.3555 3.7344-2.9961 0.26563-0.73438 0.3125-1.5273 0.13281-2.2891z"/>
  <path d="m267.39 383.23c-1.1758 0.23828-2.2227 0.90234-2.9414 1.8633-0.40234 0.44531-0.75781 0.92578-1.0664 1.4375-0.30859 0.53125-0.46094 1.1367-0.81641 1.6445-0.074218 0.10547-0.10547 0.23828-0.082031 0.36719 0.023438 0.125 0.09375 0.24219 0.19922 0.31641 0.22266 0.15625 0.52734 0.10156 0.68359-0.11719 0.74609-0.80859 1.6133-1.5039 2.5625-2.0625 0.89844-0.53516 1.6836-1.2344 2.3203-2.0664 0.19141-0.28906 0.19922-0.66797 0.015625-0.96484-0.18359-0.29688-0.52734-0.46094-0.875-0.41797z"/>
  <path d="m273.82 398.95c-0.054688-0.32031-0.27734-0.58984-0.58203-0.70703-0.30469-0.11328-0.64844-0.0625-0.90625 0.13672l-0.10547 0.09375-0.57031 0.49609-0.40625 0.64453c-0.28906 0.36719-0.51953 0.77734-0.6875 1.2148l-0.027344 0.042969-0.003906 0.003906c-0.11328 0.16406-0.13281 0.37891-0.046875 0.5625 0.082031 0.18359 0.25781 0.30859 0.45703 0.33203 0.32031 0.046875 0.64844 0.035157 0.96484-0.027343 0.79297-0.24219 1.4531-0.79688 1.8281-1.5352 0.16016-0.40234 0.19141-0.83984 0.085938-1.2578z"/>
  <path d="m277.39 398.95c-0.63281 0.76562-1.2227 1.5664-1.7734 2.3945-0.60547 0.76172-1.168 1.5586-1.6836 2.3867-0.19141 0.34375 0.023437 0.88281 0.48828 0.78516 2.3516-0.64062 4.1406-2.5586 4.6094-4.9531 0.19531-0.98438-1.1133-1.2109-1.6406-0.61328z"/>
 </g>
</svg>