<?xml version="1.0" encoding="UTF-8"?>
<!-- Uploaded to: ICON Repo, www.iconrepo.com, Generator: ICON Repo Mixer Tools -->
<svg fill="#000000" width="800px" height="800px" version="1.1" viewBox="144 144 512 512" xmlns="http://www.w3.org/2000/svg">
 <g>
  <path d="m358.92 470.59c-0.52734-0.48438-1.6758-1.1562-1.9141-1.8008-0.20703-1.2422-0.27344-2.5039-0.19922-3.7617-0.097656-2.5-0.49609-4.9805-1.1953-7.3867-0.10938-0.22656-0.33984-0.37109-0.59375-0.36328-0.25391 0.007812-0.47656 0.16406-0.57031 0.39844-0.66406 2.293-1.043 4.6602-1.1289 7.043-0.47656 2.0391-0.34375 4.1719 0.375 6.1406 2.3008 3.8125 7.9297 5.1914 8.6758 10.121v-0.003906c0.066406 0.36328 0.38672 0.61719 0.75391 0.60938 0.36719-0.011719 0.67188-0.28516 0.72266-0.65234 0.25391-4.0664-1.6094-7.9766-4.9258-10.344z"/>
  <path d="m365.96 475.45c-0.48047-1.3984-1.0391-2.7695-1.6719-4.1055-0.74609-1.2539-2.2773-2.3281-2.7383-3.6172v0.003906c-0.24219-1.5547-0.29297-3.1328-0.15625-4.7031-0.11328-1.5859-0.44531-3.1523-0.98438-4.6484-0.078124-0.16797-0.24609-0.26953-0.42969-0.26562s-0.34375 0.12109-0.41406 0.28906c-1.1953 3.1914-1.5234 6.6445-0.95312 10.004 0.48437 1.2734 1.3359 2.3672 2.4492 3.1484 1.5273 1.2344 2.8711 2.6797 3.9844 4.2969 0.30469 0.5625 1.1875 0.19141 0.91406-0.40234z"/>
  <path d="m368.93 465.74c-0.96484-0.78125-1.7656-1.7422-2.3711-2.8242-0.87891-1.9648-1.6016-3.9922-2.1562-6.0703-0.1875-0.71094-1.293-0.56641-1.1484 0.18359v-0.003906c0.32422 1.9258 0.53906 3.8672 0.64844 5.8164-0.039062 1.25 0.28516 2.4844 0.92578 3.5547 0.88672 1.2109 2.1328 2.1016 3 3.3438 0.83984 1.2031 1.0859 2.6992 2.3164 3.5664h0.003906c0.30859 0.20703 0.69531 0.26562 1.0508 0.15625 0.35547-0.10938 0.64062-0.375 0.77734-0.72266 1.1797-2.3594-1.5039-5.4258-3.0469-7z"/>
  <path d="m373.71 460.38c-1.0391-1.3789-1.8906-2.8945-2.5273-4.5-0.91016-1.6875-2.1055-3.1797-3.0312-4.8359v-0.003907c-0.15234-0.32422-0.53906-0.46875-0.87109-0.32422-0.32812 0.14844-0.48047 0.53125-0.34375 0.86328 0.63672 3.5234 1.7344 6.9453 3.2695 10.18 1.375 2.1523 3.9102 2.7695 5.918 4.125 0.51953 0.35156 1.4531 0.066407 1.4453-0.65625-0.042968-2.8242-2.1484-3.125-3.8594-4.8477z"/>
  <path d="m379.84 375.88c-3.582-0.074219-6.9453 1.7188-8.8789 4.7344-2.7344 3.3594-5.0039 7.0547-7.8867 10.301-2.9414 3.2031-6.1406 6.1602-9.5664 8.8398-1.6328 1.3242-3.2109 2.6953-4.8008 4.0664v0.003906c-1.7812 1.8477-3.7383 3.5117-5.8477 4.9727-0.20703 0.097656-0.30078 0.34375-0.20703 0.55078 0.09375 0.21094 0.33594 0.30859 0.54687 0.21875 1.8828-0.60547 3.7188-1.3438 5.5-2.207 1.8086-1.0898 3.582-2.2969 5.2773-3.5586 1.5547-1.1602 3.082-2.3633 4.582-3.6055l0.074218 1.2539-0.003906 0.003907c0.015625 0.95703 0.12109 1.9141 0.31641 2.8555 0.29297 1.2773 1.2109 2.5117 1.3672 3.7969 0.066406 0.54297 0.96484 0.53516 0.97266-0.027343h-0.003906c0.21875-1.2461 0.55469-2.4688 0.99609-3.6523 0.19531-1.1172 0.29687-2.2461 0.29687-3.375 0.23438-1.3867 0.16797-2.8047-0.19531-4.1602l1.4375-1.3086v-0.003906c3.0039-2.7188 5.5703-5.8867 7.6094-9.3867 1.7188-3.7578 4.8828-6.6602 8.7734-8.0508 1.1758-0.35156 0.73828-2.168-0.35937-2.2617z"/>
  <path d="m399.02 448.57c-3.6172-2.4609-8.0781-3.3438-12.359-2.457-2.2305 0.41016-4.3984 1.1094-6.4492 2.0742-2.457-3.1367-6.6406-1.4102-9.9883-2.0781-3.6523-1.2148-6.6914-3.8008-8.4766-7.2148-2.7031-4.0664-5.0273-8.4102-7.5156-12.609-0.96094-1.625-1.9258-3.2461-2.9297-4.8477l0.050781-0.44141c-0.53125-5.5586 7.2539-7.9727 6.8242-13.57l0.003907 0.003906c-0.082032-0.47266-0.40625-0.86719-0.85547-1.0391s-0.95312-0.09375-1.3281 0.20703c-2.3555 2.0078-4.3242 4.4258-5.8125 7.1367-0.73047 1.2578-1.1914 2.6562-1.3516 4.1016-1.2969-1.6016-2.5117-3.2656-3.6406-4.9883-0.44141-0.72266-1.6641-0.22656-1.2344 0.54688 1.3516 2.4414 2.1836 5.1562 3.4531 7.6523 1.2734 2.5078 2.6875 4.9336 4.0859 7.3711 2.4453 4.2695 4.7773 8.6406 7.4531 12.77l-0.003907-0.003906c1.8867 3.3164 4.6758 6.0273 8.043 7.8164 3.125 0.83594 6.3711 1.1172 9.5938 0.83203-0.88672 0.39453-1.7812 0.77734-2.6953 1.1133-0.52344 0.19531-0.32031 0.92188 0.16016 1 4.0039 0.070313 7.9883-0.58203 11.766-1.9219 4.125-0.44531 8.2969-0.12109 12.301 0.96484 1.3828 0.25781 1.8906-1.6641 0.90625-2.418z"/>
  <path d="m543.69 489.82c-0.21875-0.48047-0.67578-0.80859-1.2031-0.86328-0.52344-0.050782-1.0391 0.17969-1.3477 0.60547-0.90234 2.0391-1.5391 4.1836-1.8945 6.3789-0.52734 2.1367-1.3633 4.1875-2.4727 6.0859-2.2383 3.7852-6.3945 6.0078-10.785 5.7734-4.9883-0.11719-9.9766-0.87891-14.957-1.2188-2.4805-0.16797-4.9453-0.16797-7.4297-0.14453l0.003906 0.003906c-1.9492-0.32812-3.9531-0.03125-5.7227 0.84375l-0.058594 0.57422c1.4023 1.625 4.2773 1.6875 6.2578 2.0898 2.9805 0.60547 5.9336 1.082 8.957 1.4062 2.8633 0.30859 5.7305 0.60156 8.5938 0.89844 2.7539 0.42578 5.5547 0.45313 8.3164 0.074219 4.5508-0.97656 8.4727-3.8477 10.777-7.8906 1.3203-2.2031 2.2656-4.6094 2.7969-7.1211 0.73047-2.4375 0.78516-5.0273 0.16797-7.4961z"/>
  <path d="m298.88 474.19c-2.5859-0.5-5.2227-0.48047-7.8242-0.92578h0.003906c-2.5898-0.45703-5.1328-1.125-7.6094-2.0039-5.0195-2.0391-9.4258-5.3438-12.789-9.5938-3.8242-4.1406-6.3242-9.3281-7.1797-14.898-0.12109-5.4688 3.1484-10.445 8.2188-12.504 0.75391-0.40234 0.74609-1.8125-0.28906-1.8203h-0.003906c-3.7461 0.16016-7.2148 2.0312-9.4102 5.0742-0.26953-0.1875-0.57812-0.31641-0.90234-0.37891-2.4336-0.48438-3.4961-3.9883-3.9023-6.082-0.40234-2.5859-0.56641-5.2031-0.49219-7.8203-0.12109-1.4336-0.007813-2.875 0.32812-4.2695 0.48438-1.2773 1.1016-2.5 1.8438-3.6445 0.76953-1.3242 1.5898-2.6133 2.3867-3.9141l0.46875 1.1758h0.003907c0.32422 0.67969 1.0977 1.0234 1.8203 0.80859 0.72266-0.21094 1.1875-0.91797 1.0898-1.668-0.23047-1.3828-0.64844-2.7266-0.83984-4.1133-0.3125-1.2695-0.44141-2.5781-0.37891-3.8828 0.10156-0.53125-0.71484-0.69141-0.90234-0.21094-0.30859 0.79688-0.86719 1.4102-1.1523 2.2305-0.23828 0.71875-0.38672 1.4609-0.43359 2.2188-2.4102 2.2305-4.5039 4.7773-6.2188 7.5742-1.7305 3.0234-2.5508 6.4844-2.3633 9.9609-0.10156 5.4297 1.0977 14.27 7.4766 15.77-1.5039 4.6172-1.1211 9.6406 1.0703 13.973 4.418 9.375 12.203 16.738 21.809 20.629 5.1562 2.707 11.113 3.4766 16.789 2.1641 2.125-0.66406 1.1211-3.5117-0.61719-3.8477z"/>
  <path d="m535.43 492.3c-4.5938 0.058594-9.0703 0.76172-13.676 0.46484-4.5898-0.29688-9.1484-0.66016-13.707-1.2852-3.4062-0.46875-6.7891-1.0312-10.152-1.6914l-0.050782-0.15234c-1.6875-5.4922-4.6016-10.531-8.5234-14.73-4.4727-3.4883-9.5273-6.1562-14.934-7.8789-5.2422-1.9258-9.9141-5.1484-13.578-9.3633-3.3828-4.4688-4.9531-10.047-4.4023-15.621 0.019532-0.23828-0.125-0.46094-0.34766-0.54297-0.22656-0.085938-0.47656-0.011719-0.62109 0.17969-1.1562 1.5312-1.9141 3.3242-2.1992 5.2227-3.2734 0.875-6.3477 2.3633-9.0703 4.3828l-1.9102 1.1758c2.082-8.418 3.5352-16.977 4.3516-25.609 0.16016-1.6172 0.32812-3.2656 0.48047-4.9336l1.1367-0.30078c1.582-0.34766 3.1445-0.78906 4.7344-1.0977 3.3594-0.65625 6.8594-0.73828 10.258-1.1328 1.3164-0.15234 1.1875-1.8008 0.23047-2.3008-3.5938-1.7422-7.6992-2.1094-11.547-1.0391-1.5391 0.34766-3.0391 0.85547-4.4727 1.5156 0.30469-3.9336 0.21484-7.8906-0.26953-11.812-0.58203-6.1172-5.3281-11.02-11.43-11.789-0.60547-0.082031-1.2188-0.125-1.8281-0.13281 0.066406-0.77734 0.035156-1.5977 0.070312-2.418l0.16406-3.918h-0.003906c2.1914-8.3594 3.2891-16.969 3.2656-25.609-0.41016-4.5312-1.4492-8.9844-3.0859-13.227-2.0664-4.4453-3.2656-9.2422-3.5352-14.137 0.023438-0.32031-0.21484-0.59766-0.53516-0.62891-0.31641-0.03125-0.60547 0.19531-0.64453 0.51172-0.92187 4.375-0.79297 8.9062 0.37109 13.223 1.4844 4.4844 2.6875 9.0547 3.6016 13.691 0.26953 2.3164 0.31641 4.6523 0.13281 6.9766-0.36719-3.4883-1.0273-6.9414-1.9688-10.324-0.92578-3.2812-2.1211-7.8359-5.5508-9.3047-0.55859-0.23828-0.94141 0.46484-0.64062 0.89453v0.003906c1.0469 1.8359 1.7422 3.8516 2.0547 5.9453 0.48438 2 0.96875 4.0039 1.3281 6.0312 0.67969 3.8242 1.125 7.6836 1.3398 11.559 0.22266 4.0078 0.1875 8.0273 0.058594 12.043-0.066406 2.0938-0.16406 4.1797-0.27344 6.2734h-0.003907c-0.10938 0.94922-0.16406 1.9023-0.16797 2.8594-1.6797 0.38281-3.3047 0.95312-4.8555 1.6992 0.48047-1.5352 0.67969-3.1445 0.58594-4.7539-0.31641-6.2695-3.4336-13.848 0.98828-19.34 0.20703-0.30469 0.21484-0.70703 0.019532-1.0195-0.19531-0.3125-0.55859-0.48438-0.92578-0.4375-5.625 1.1289-5.7383 9.5664-5.3789 13.906h0.003906c0.72266 3.3906 1.0078 6.8555 0.84375 10.316-0.66797 2.582-2.3438 4.7891-4.6562 6.1172-2.7812-0.32812-5.5977-0.14453-8.3086 0.54297l-1.9961 0.5625c-0.078125-1.3281-0.25781-2.6445-0.53906-3.9414-0.71484-3.8125-2.3906-7.3789-4.8711-10.355-0.22656-0.26172-0.59766-0.34375-0.91406-0.20312s-0.50391 0.47266-0.45703 0.81641c0.34375 3.3789 1.6719 6.6094 1.9297 10.027h-0.003906c0.125 1.625 0.12109 3.2617-0.015625 4.8867l-0.070312 0.69141c-5.3555 2.6758-10.328 6.0625-14.781 10.066l-0.66016 0.57422c-1.6133 0.17188-3.2422-0.125-4.6875-0.85938-1.6484-1.1016-2.9844-2.6094-3.8789-4.3828-2.1523-4.1797-2.7969-8.9766-1.8242-13.578 0.019531-0.30859-0.16406-0.59375-0.45703-0.70312-0.28906-0.10938-0.61719-0.015625-0.80469 0.23047-1.668 2.6367-2.5703 5.6836-2.6094 8.8047-0.039063 3.1172 0.79297 6.1875 2.3945 8.8633l0.37109 0.57812c-2.2109-0.050781-4.4258 0.015625-6.6289 0.19922l-2.9297 0.18359h-0.003906c-0.82031 0.18359-1.6641 0.25391-2.5039 0.20703-1.1133-0.29688-0.98437-0.42188-1.1602-1.4727h0.003906c-0.023437-0.50781-0.19141-0.99609-0.48437-1.4102-0.14844-0.18359-0.40234-0.24219-0.62109-0.14844-1.2891 0.8125-1.9727 2.3125-1.7383 3.8164 0.14453 1.9883 1.7695 3.5469 3.7617 3.6094 2.6953 0.13672 5.3945 0.035157 8.0742-0.29688 2.5195-0.054687 5.0195-0.44141 7.4336-1.1562 0.82812 0.65234 1.7305 1.1992 2.6875 1.6328l0.59766 0.24609c-1.8008 1.5781-3.6016 3.1523-5.4297 4.6953-1.8047 1.5234-3.6289 3.0469-5.5312 4.4492h0.003907c-1.8945 1.6055-3.9922 2.9453-6.2422 3.9883-0.089843-0.17188-0.26172-0.28516-0.45312-0.30859-0.19141-0.019531-0.37891 0.058594-0.50391 0.20703l-0.15625 0.17188 0.023438 0.70703c1.4219 2.0156 6.5117-0.83203 8.0703-1.5547v-0.003906c3.6875-1.7734 7.1523-3.9766 10.328-6.5586 6.0664-5.4688 12.551-10.461 19.395-14.926 0.95312-0.53906 1.9258-1.0391 2.918-1.5039 0.25391 0.023437 0.50781-0.027344 0.73047-0.15625l0.5625-0.42188v0.003906c2.2812-0.98438 4.6797-1.6719 7.1367-2.0469 3.3281-0.73828 6.8164-0.13672 9.707 1.6719 1.4141 1.4297 2.2617 3.3203 2.3867 5.3242 0.375 2.3828 0.62109 4.793 0.82813 7.1953l0.003906 0.003906c0.41797 4.7578 0.51562 9.5391 0.29297 14.312-0.25 5.1562-0.82812 10.289-1.5195 15.402-0.36719 2.6992-0.77344 5.3945-1.2031 8.0859-0.23828 1.4844-0.60938 3.0156-0.77734 4.543l-3.3555-1.6914c-4.5508-2.3008-9.332-4.4102-13.641-7.1445l-0.003907-0.003906c-0.375-0.25391-0.88672-0.16016-1.1484 0.21094s-0.17969 0.88281 0.18359 1.1562c3.5352 2.8672 6.8516 5.9453 10.613 8.5312v-0.003906c3.7227 2.5273 7.5898 4.8359 11.582 6.9062 8.0938 4.168 16.418 7.8711 24.934 11.094 17.371 7.3438 35.578 12.527 54.211 15.438 5.1602 0.66016 10.371 0.84375 15.566 0.53906 5.2461-0.097656 10.461-0.83594 15.527-2.1914 0.55859-0.26172 0.87109-0.85938 0.77344-1.4648-0.09375-0.60547-0.58203-1.0742-1.1914-1.1484zm-104.56-25.605c-1.6758-0.78516-3.3438-1.5898-5.0039-2.4023 0.44141-1.5273 0.76562-3.082 0.96484-4.6602 0.42969-2.5508 0.84766-5.1055 1.2266-7.668 0.74219-4.9766 1.3281-9.9766 1.6367-14.996v0.003906c1.082-9.543 0.19922-19.203-2.5938-28.387-1.1172-3.1055-3.5156-5.5781-6.5859-6.7891 2.6602-1.4062 5.4531-2.5391 8.3438-3.375 3.1289-0.75781 6.4219-0.41797 9.3281 0.96484 3.0117 1.8789 4.7656 5.2461 4.5781 8.7891 0.16406 3.9727 0.066406 7.9531-0.28516 11.91-0.52734 8.1523-1.6445 16.254-3.332 24.246-1.8047 7.8203-4.0117 15.543-6.6133 23.133zm50.246 18.988c-15.152-4.4414-29.992-9.8945-44.414-16.324 1.6328-3.9297 3.0469-7.9453 4.2305-12.031 1.8828-0.66016 3.7031-1.4844 5.4414-2.4609 2.3008-1.0469 4.6367-2.1367 6.9023-3.293v-0.003906c0.29297 1.7773 0.84375 3.5 1.6289 5.1172 2.7969 5.2188 7.125 9.4531 12.402 12.133 5.25 2.9141 11.215 4.418 16.34 7.5273 4.3516 3 7.5977 7.3477 9.2344 12.375-3.9453-0.88672-7.8672-1.9023-11.766-3.0391z"/>
  <path d="m375.51 418.32c-2.0391 0.10547-4.0234 0.69531-5.793 1.7227-2.1914 1.0859-4.4883 1.9492-6.8555 2.5781-0.27344 0.050781-0.45312 0.30859-0.41016 0.58203 0.042969 0.27344 0.29297 0.46484 0.57031 0.42969 4.1641-0.58984 10.395 0.375 13.508-3.0859h-0.003906c0.28516-0.41016 0.33203-0.94531 0.125-1.3984-0.20703-0.45703-0.64062-0.76953-1.1406-0.82812z"/>
  <path d="m412.94 419.9c-2.8164 0.62891-5.3789 2.0898-7.3594 4.1914-1.9766 2.1016-3.2773 4.75-3.7344 7.5977-0.67578 3.4336-0.89062 6.9414-0.62891 10.43-0.32031 3.3906 0.38672 6.8008 2.0273 9.7891 0.32812 0.38672 0.83594 0.57031 1.3359 0.48828 0.5-0.085937 0.91797-0.42188 1.1055-0.89453 0.78125-2.5352 0.95703-5.2148 0.51172-7.832-0.22266-2.9961-0.1875-6.0039 0.097656-8.9922 0.26562-5.1289 2.9727-9.8164 7.2852-12.609 0.50391-0.24219 0.76172-0.81641 0.60156-1.3555-0.15625-0.53906-0.68359-0.88281-1.2422-0.8125z"/>
  <path d="m293.92 405.35c-1.4141-2.6133-3.1289-5.0508-5.1133-7.2578-1.4727-2.1133-3.75-3.5273-6.293-3.9141-1.9688-0.058593-3.7617 1.125-4.4766 2.9609-0.20312 0.44531 0.48828 0.80469 0.75391 0.39844 1.5859-2.3789 4.6953-0.18359 6.0234 1.2227h0.003906c1.3984 1.5273 2.6445 3.1914 3.7227 4.9609 1.082 1.7344 2.0391 3.543 2.8555 5.418 0.59375 2.0234 1.543 3.9258 2.8047 5.6133 0.34375 0.39062 0.88281 0.54688 1.3828 0.39453 0.5-0.14844 0.86328-0.57812 0.93359-1.0938 0.125-3.1094-0.79297-6.1719-2.5977-8.7031z"/>
  <path d="m494.63 506.26c-3.1094-2.3242-6.8398-3.6719-10.715-3.8789-3.9219-0.53516-7.8828-0.76953-11.844-0.69531-8.0273 0-16.035 0.45703-24.047-0.31641-15.5-1.5859-30.484-6.4688-43.941-14.32-2.6484-1.7422-5.5547-3.0586-8.6094-3.8984 1.6523-0.63281 3.3984-1.0039 5.168-1.0977 1.875-0.085938 2.082-3.0742 0.35938-3.5938-1.5508-0.59766-3.2109-0.86328-4.8672-0.77344-1.7109 0.18359-3.3789 0.65234-4.9336 1.3867-3.0273 1.5195-5.8789 3.3594-8.5156 5.4844-5.4453 4.707-12.078 7.832-19.176 9.0312-6.4805 0.71875-12.883-1.9258-16.969-7.0078-3.5312-5.1484-6.6172-10.59-9.2227-16.262-0.15234-0.32422-0.5-0.50391-0.85547-0.44922-0.35156 0.054687-0.62891 0.33984-0.67578 0.69531-0.15625 1.3711-0.15625 2.7617-0.003906 4.1367-1.0352-0.74219-2.0977-1.4453-3.1953-2.082-1.8477-1.1211-3.8281-2-5.8984-2.6211-1.9219-0.54297-3.9141-0.80469-5.8516-1.2695 2.9336-1.6406 5.7734-3.4297 8.5156-5.3711 3.8594-2.6914 7.4258-5.7852 10.633-9.2266 1.5117-1.6367 2.7383-3.4492 4.0859-5.2109h-0.003907c1.1289-1.3984 2.4883-2.5898 4.0234-3.5234 2.9805 2.6406 5.6875 5.5742 8.082 8.7539 0.15625 0.1875 0.38672 0.29297 0.62891 0.28125 0.24219-0.007813 0.46875-0.12891 0.60937-0.32422 1.9102-3.2383-1.9492-7.5039-3.8711-9.9609-2.6914-3.2695-5.5977-6.3555-8.707-9.2344-3.0234-2.9492-6.2305-5.7148-9.1406-8.7812-1.4609-1.5352-2.8906-3.125-4.2109-4.7812v0.003907c-1.5117-1.6602-2.8164-3.4961-3.8867-5.4688-0.089844-0.19922-0.26172-0.35156-0.47266-0.41406s-0.4375-0.027344-0.62109 0.09375c0.16406-0.64453-0.054687-1.3281-0.55859-1.7617 0.35547-0.11719 0.62891-0.41016 0.71875-0.77344 0.51172-1.6406 0.70313-3.3359 1.3125-4.9492 0.68359-1.6953 1.5391-3.3164 2.5547-4.8398 2.0039-3.1602 4.3516-6.0859 6.6406-9.0391 5.1211-6.6055 10.289-13.188 15.23-19.934h-0.003906c3.6953-5.5547 8.1055-10.605 13.109-15.023 2.5781-2.1094 5.5508-3.6875 8.7461-4.6445 3.3633-0.60547 6.668-1.5039 9.875-2.6836 3.2812-1.9258 5.8789-4.8281 7.4336-8.3047 1.0078-1.875 1.8906-3.8125 2.6406-5.8047 0.81641-2.1914 1.0078-4.5273 1.7656-6.7266h0.003906c0.12109-0.36328-0.066406-0.75781-0.42578-0.89062-0.35938-0.13672-0.76172 0.042969-0.90625 0.39844-0.88281 1.875-1.918 3.6758-3.0938 5.3828-1.0078 1.7734-2.0469 3.5273-3.1406 5.2461-1.5469 3.3047-4.1875 5.9727-7.4766 7.5469-3.2891 0.875-6.5117 1.9844-9.6445 3.3203-2.7656 1.4727-5.3984 3.1836-7.8633 5.1211-5.1914 4.3203-9.9062 9.1875-14.062 14.512-5.2148 6.3281-10.199 12.848-15.223 19.328v-0.003906c-2.8047 3.3242-5.332 6.875-7.5508 10.613-2.1094 3.3008-2.9531 7.2539-2.3789 11.129l0.26172 0.48438c-3.6797-0.41797-7.3945 0.37109-10.582 2.25-1.6094 0.88672-3.0742 2.0078-4.3516 3.3242l-0.12109-0.050781c-2.1094-0.70703-4.4102-0.23828-6.5781-0.875-2.1641-0.45703-4.0312-1.8086-5.1406-3.7188-0.23437-0.51172-1.1094-0.29688-0.97656 0.28906 0.38281 2.5312 1.793 4.7969 3.8984 6.2578 1.7891 1.125 3.8516 1.7383 5.9609 1.7812-0.47266 0.51562-1.0977 0.86328-1.7812 0.99609-0.60938 0.074218-0.44141 0.95312 0.14453 0.92187 1.4336 0.042969 2.8477-0.34766 4.0508-1.125 1.5977-1.0469 3.043-2.2422 4.7461-3.1406 1.625-0.87109 3.3438-1.5586 5.125-2.0508 1.9922-0.53125 4.0391-0.35547 6.0117-0.79297 0.53516-0.125 0.99609-0.45703 1.2891-0.92188l0.03125 0.097657c0.79688 1.8555 1.293 3.8281 2.1836 5.6484v-0.003906c0.87891 1.75 1.8828 3.4258 3.0156 5.0234 0.94531 1.3594 1.9531 2.6797 3 3.9727-3.3867 1.0586-6.7422 2.2539-10.125 3.3047l-0.003906-0.003906c-4.707 1.332-9.3281 2.9531-13.84 4.8477-4.3242 1.918-8.2891 4.5547-11.73 7.8008l-0.42187 0.40625c-1.0625-1.3516-2.3867-2.4766-3.8906-3.3086-2.1016-1.4531-4.3125-2.7578-6.3398-4.3125-3.3438-2.5703-5.7305-5.8086-10.035-6.7109-0.77734-0.16406-1.0586 1.1016-0.3125 1.3477h-0.003906c1.8867 0.94531 3.4492 2.4297 4.4922 4.2617 1.3477 1.7383 2.7852 3.4023 4.3086 4.9883 1.4453 1.5508 3.0039 2.9961 4.6562 4.3281 1.1719 1.0547 2.457 1.9727 3.8359 2.7422l-1.4375 1.5664c-1.5586 1.9258-3.3203 3.6758-5.2617 5.2148-0.58203 0.41016-0.125 1.5078 0.58594 1.3086v0.003906c2.1719-0.49219 4.25-1.3203 6.1641-2.4531 1.9805-1.293 3.8359-2.7695 5.5352-4.4141 3.4688-3.3828 7.4844-6.1602 11.871-8.2148 4.4062-1.8477 8.9258-3.4219 13.527-4.7109 3.9844-1.0469 7.8359-2.5352 11.488-4.4414l1.7578 1.8789c2.1094 2.1836 4.293 4.3008 6.4609 6.4297v-0.003907c-2.8008 1.6758-5.3516 3.7344-7.5781 6.1211-3.3516 3.4336-6.957 6.6055-10.793 9.4922-7.7266 5.5859-16.641 9.5078-24.113 15.426-0.64062 0.50781-0.16797 1.7188 0.67969 1.5156h0.003906c5.1836-1.3008 10.191-3.2227 14.91-5.7266l0.44922 0.3125c3.9297 1.6445 7.6133 3.8242 10.945 6.4766 1.6406 1.0859 3.2148 2.2695 4.7148 3.543 1 1.0078 2.0742 1.9375 3.2109 2.7852 0.38281 0.84766 0.79297 1.668 1.2266 2.4492h0.003907c2.4648 4.6289 6.2188 8.4453 10.805 10.988 5.5742 2.2773 11.676 2.9375 17.605 1.9062 5.9297-1.0352 11.449-3.7188 15.922-7.75 1.543-1.1328 3.1172-2.3438 4.75-3.4844 5.7812-1.6641 11.785 3.6406 16.566 6.3945 6.3359 3.6289 13.043 6.5586 20.012 8.7344 6.8438 2.1562 13.883 3.6445 21.016 4.4414 7.457 0.63281 14.949 0.79688 22.43 0.49609 4.2266-0.10547 8.457 0.019532 12.672 0.38281 2.0156 0.19531 4.0234 0.44141 6.0078 0.83203 2.0859 0.55859 4.2344 0.84766 6.3906 0.85156 0.64062-0.10547 1.1758-0.53906 1.4062-1.1445s0.12109-1.2852-0.28516-1.7891z"/>
  <path d="m290.57 426.73c-1.8242 0.33594-3.6133 0.82812-5.3516 1.4688-1.6758 0.40625-3.3047 0.99609-4.8516 1.7578-0.70703 0.35937-0.21875 1.4766 0.5 1.1289 3.4805-1.6953 8.4961 1.8398 11.293-1.793 0.35938-0.54297 0.37109-1.2422 0.027344-1.793-0.34375-0.55078-0.97656-0.85156-1.6172-0.76953z"/>
  <path d="m271.1 422.25c-0.20312-0.44531-0.625-0.74609-1.1094-0.79297-0.48438-0.050781-0.95703 0.16406-1.2422 0.55859-0.79688 1.9297-1.7031 3.8125-2.7188 5.6367-0.5625 0.69922-1.2969 1.2461-2.1289 1.582-0.41406 0.17188-2.4648 0.72266-2.4258 0.0625 0.019532-0.28125-0.12891-0.55078-0.375-0.68359-0.25-0.13672-0.55469-0.10938-0.78125 0.0625-0.50781 0.44531-0.78516 1.0938-0.75391 1.7656 0.03125 0.67578 0.36719 1.2969 0.91406 1.6914 1.5078 1.2148 3.5547 1.5195 5.3516 0.79688 4.2031-1.7188 6.4648-6.3008 5.2695-10.68z"/>
  <path d="m272.42 396.37c-4.0977-3.8672-6.6172 7.1328-7.3711 9.3281-0.070312 0.21094 0.023438 0.44141 0.21875 0.54688 0.19922 0.10547 0.44531 0.050781 0.57812-0.12891 0.95703-1.4258 1.9531-2.8242 2.875-4.2734 0.76172-1.1992 1.4023-3.0391 2.8984-3.3672 0.84766-0.18359 1.5781-1.375 0.80078-2.1055z"/>
  <path d="m273.41 401.89c-2.8008 3.582-4.1719 8.0742-3.8555 12.609 0.12109 0.64844 0.65625 1.1367 1.3125 1.2031 0.65625 0.0625 1.2773-0.30859 1.5234-0.92188 1.5469-3.9414 0.73047-8.4766 2.1758-12.465 0.27734-0.76562-0.80078-1.1094-1.1562-0.42578z"/>
  <path d="m545.28 478.92c-7.1484 1.2969-14.414 1.8008-21.672 1.5039-6.2539-0.63672-12.023-3.6602-16.102-8.4414-4.7109-5.6836-9.0234-11.738-13.512-17.602-4.5391-5.9336-9.0977-11.852-13.668-17.762-2.4766-3.1836-4.9375-6.375-7.2188-9.7031-1.7695-2.582-3.7773-6.0117-6.8555-7.1602v-0.003906c-0.21875-0.074219-0.46094-0.011719-0.61719 0.15625-0.16016 0.16797-0.20312 0.41406-0.11719 0.625 1.2344 3.1602 2.793 6.1836 4.6445 9.0234 1.7578 3.1484 3.7266 6.1523 5.7891 9.1133 4.4883 6.4492 9.4453 12.602 14.215 18.844l7.4336 9.7227c2.2969 3.0039 4.4805 6.168 7.0586 8.9414l-0.003906-0.003906c4.4688 4.6445 10.438 7.5625 16.848 8.2344 8.293 0.83203 16.668-0.18359 24.52-2.9766 1.5-0.49609 0.66406-2.6367-0.74219-2.5117z"/>
  <path d="m545.4 482.62c-0.70703 0.54688-1.3203 1.2109-1.8125 1.957-0.64844 0.80078-0.82813 1.8789-0.47266 2.8438 0.24219 0.53516 0.8125 0.84375 1.3906 0.75781 1.0469-0.19141 1.9141-0.91406 2.2812-1.9102 0.41797-0.76563 0.70703-1.5938 0.85547-2.4492 0.039063-0.55078-0.25-1.0664-0.73438-1.3281-0.48438-0.25781-1.0742-0.20703-1.5078 0.12891z"/>
  <path d="m424.61 341.9c-2.1953 1.7852-5.0547 2.5391-7.8477 2.0664-1.582-0.29297-3.1211-0.79297-4.5781-1.4805-0.84766-0.38281-4.8867-1.9961-4.9102-3.1094 0.019531-0.25-0.16797-0.47266-0.41797-0.49609-0.25-0.023437-0.47656 0.15234-0.50781 0.40234-0.25 2.0664 1.6328 4.1094 3 5.4531 0.69141 0.69141 1.4453 1.3242 2.2422 1.8945-0.71875 0.83594-1.3633 1.7344-1.9297 2.6836-1.2812 1.957-2.3047 4.0781-3.0391 6.3008-1.5859 4.2578-1.8516 8.8945-0.76172 13.305 0.12109 0.25781 0.38672 0.42188 0.67188 0.41406 0.28516-0.007813 0.53906-0.1875 0.64453-0.45313 0.73828-4.1523 1.9062-8.2148 3.4766-12.129 0.85937-1.8867 1.875-3.6953 3.0391-5.4141 0.71484-0.91406 1.3711-1.8711 1.9648-2.8672l0.35547 0.089844c4.4141 1.168 8.9531-1.3945 10.238-5.7773 0.17188-0.89844-1-1.3906-1.6406-0.88281z"/>
  <path d="m427.51 296.48c-4.4414-5.7812-11.34-9.1406-18.629-9.0664-7.4805-0.71094-14.922 1.7148-20.543 6.6992-5.2188 5.5781-9.6914 11.805-13.309 18.531-3.6445 6.6172-6.6328 13.578-8.9219 20.777-1.4102 4.0195-2.832 8.0391-4.3594 12.016v0.003906c-1.4805 4.2617-3.2422 8.4258-5.2695 12.461-0.34766 0.64062 0.5 1.3008 0.94922 0.67187l0.003907 0.003907c4.0625-5.5312 7.5977-11.434 10.555-17.625 2.957-6.3477 5.5469-12.848 8.3867-19.246 2.5273-6.6562 5.8516-12.98 9.9062-18.832 4.4766-5.5078 10.664-9.3672 17.582-10.961 7.9062-0.91406 15.852 1.3047 22.141 6.1836 0.45312 0.30469 1.0664 0.23438 1.4414-0.16797 0.375-0.40234 0.40234-1.0156 0.066406-1.4492z"/>
  <path d="m424.52 299.62c-3.1367-0.57812-6.3281-0.77734-9.5117-0.60156-2.7773 0.39844-5.4336 1.4062-7.7773 2.9531-2.2656 1.6172-4.0742 3.7852-5.2578 6.3008-0.57422 1.0938-1.0352 2.2617-1.6445 3.3359-0.75391 1.1875-1.9062 2.0625-3.2539 2.4688-0.24609-0.21875-0.52344-0.39453-0.82812-0.52344-0.92578-0.28125-1.9297-0.16016-2.7695 0.32812-0.83594 0.49219-1.4297 1.3086-1.6406 2.2539-0.52344 2.2031-0.37109 4.5117 0.4375 6.6211 0.63281 2.0156 1.6914 5.3281 3.6445 6.375l0.003906 0.003907c0.42188 0.28516 0.96484 0.32812 1.4297 0.11719 0.46484-0.21094 0.78906-0.64844 0.85156-1.1562 0.15234-2.4336-1.9141-4.7227-2.4805-7.1055-0.10938-0.45313-0.73438-3.6602-0.19922-3.8164h-0.003907c0.92969 0.53516 1.8242 1.125 2.6758 1.7773 0.39844 0.21094 1.0664-0.023437 0.92969-0.57812-0.16406-0.70312-0.375-1.3984-0.625-2.0742 1.9648-0.25391 3.8359-0.98438 5.4531-2.1289 2.0977-1.6875 2.8359-4.332 4.4375-6.4141 1.582-1.9922 3.6094-3.5781 5.918-4.6406 3.1367-1.5508 6.5938-2.3359 10.09-2.293 0.32422 0.019531 0.60547-0.21875 0.64062-0.54297 0.03125-0.32031-0.19922-0.61328-0.51953-0.66016z"/>
  <path d="m395.52 300c-7.2266 5.8438-12.613 13.648-15.512 22.48-1.8828 4.2109-3.4297 8.5664-5.3203 12.77-1.3672 3.8438-3.5977 7.3203-6.5234 10.164-0.42578 0.37109-0.51953 0.99219-0.22656 1.4727 0.29688 0.48438 0.89844 0.67969 1.4219 0.46875 8.5352-3.0938 10.945-12.508 13.898-20.145h-0.003907c3.0312-9.4062 7.4648-18.301 13.16-26.379 0.47266-0.58984-0.35156-1.168-0.89453-0.83203z"/>
  <path d="m388.84 327.51c-0.19531-0.42578-0.60156-0.71484-1.0703-0.76172-0.46484-0.046875-0.92188 0.15625-1.1992 0.53516-1.4219 2.4336-2.6406 4.9805-3.6406 7.6172-1.3711 2.8047-2.293 5.793-3.6836 8.5781-0.26172 0.52734 0.54688 0.89453 0.87891 0.46484 2.4297-2.5977 4.7227-5.3164 6.8711-8.1523 1.9141-2.3008 2.6016-5.3828 1.8438-8.2812z"/>
  <path d="m422.72 318.11c-1.168 0.25781-2.3828 0.24219-3.5469-0.046875-1.0078-0.14062-1.9961-0.35547-3-0.50781-1.5117-0.22656-1.7148 1.8008-0.55469 2.3984h0.003906c1.1914 0.59375 2.5391 0.80859 3.8555 0.61719 1.2891-0.31641 2.5352-0.79297 3.707-1.418 0.6875-0.25781 0.21875-1.3008-0.46484-1.043z"/>
  <path d="m423.03 314.57c-1.2305-4.8125-8.1406-1.3438-10.812 0.15234-0.58984 0.32812-0.40234 1.3828 0.35938 1.2188 2.9219-0.86719 6.0273-0.92188 8.9805-0.16406 0.71875 0.25391 1.6875-0.375 1.4727-1.207z"/>
  <path d="m432.8 318.19c-0.56641 0.097656-1.1406 0.14062-1.7109 0.12891-0.37891 0-0.75391 0.058594-1.1133 0.17188l-0.26172 0.097657c1.0195-1.4883 1.3867-3.332 1.0117-5.0977-0.33594-3.4727-1.1133-6.8867-2.3164-10.164-0.17188-0.56641-0.96484-0.23438-0.92969 0.27344 0.19141 2.9766-0.10547 5.9727-0.023438 8.9531 0.058594 2.0664 0.054688 4.2305-0.035156 6.2578v0.003906c-0.019531 0.23438 0.085937 0.46094 0.27734 0.59766 0.1875 0.13672 0.4375 0.16406 0.65234 0.074219-0.0625 0.55078 0.32422 1.0547 0.875 1.1289 0.39063 0.058594 0.74219 0.27734 1.1406 0.32031h-0.003907c0.45703 0.039062 0.91406-0.039063 1.332-0.22266 0.70313-0.33203 1.3047-0.84375 1.75-1.4805 0.14453-0.21875 0.15234-0.50391 0.011719-0.73047-0.13672-0.22266-0.39453-0.34375-0.65625-0.3125z"/>
  <path d="m431.53 324.53c-0.85156-1.3125-2.4688-2.1641-2.8945-3.6953-0.078125-0.28125-0.5625-0.4375-0.65625-0.066407-0.1875 0.94922-0.0625 1.9297 0.35547 2.8008 0.53906 1.3086 1.5664 2.1211 1.5156 3.5312l-0.57812 0.50391 0.003906-0.003907c-0.28516 0.25-0.375 0.65234-0.21875 0.99609 0.15234 0.34375 0.51172 0.54688 0.88672 0.5l1.2773-0.16016c0.44141-0.066406 0.81641-0.37109 0.96875-0.79297 0.39062-1.2383 0.14453-2.5898-0.66016-3.6133z"/>
  <path d="m427.63 331.64c-2.1836-0.36719-4.457 0.40625-6.6641 0.027344-0.28906-0.023438-0.5625 0.125-0.69922 0.37891s-0.10938 0.56641 0.070313 0.79297c0.91797 1.2578 2.3086 2.082 3.8516 2.2812 1.6172 0.30859 3.2734-0.28906 4.3164-1.5625 0.24219-0.35547 0.28125-0.8125 0.10156-1.207-0.17969-0.39062-0.55078-0.66016-0.97656-0.71094z"/>
 </g>
</svg>