<?xml version="1.0" encoding="UTF-8"?>
<!-- Uploaded to: ICON Repo, www.iconrepo.com, Generator: ICON Repo Mixer Tools -->
<svg fill="#000000" width="800px" height="800px" version="1.1" viewBox="144 144 512 512" xmlns="http://www.w3.org/2000/svg">
 <g>
  <path d="m260.72 477.79c-0.14062-0.3125-0.42188-0.53906-0.75391-0.62109-0.33203-0.078125-0.68359 0-0.95312 0.21094-0.88672 1.1523-2.2656 1.8164-3.7188 1.793-2.0898-0.039062-4.1484-0.50781-6.2383-0.63281h0.003906c-4.2656-0.16797-8.5352 0.035156-12.766 0.60547-4.2266 0.48047-8.4688 1.0664-12.727 1.1641l0.003907 0.003906c-2.125 0.078125-4.2461 0.023438-6.3633-0.15625-1.6523-0.16406-4.043-0.32812-5.1211-1.8438-0.39062-0.55078-1.1289 0.023438-0.94531 0.58203 0.43359 1.7539 1.5859 3.2461 3.1797 4.1016 2.0039 1.0312 4.2031 1.625 6.4531 1.75 5.4414 0.31641 10.898 0.035156 16.273-0.83594 5.3164-0.62891 10.688-0.64453 16.008-0.042968 2.1875 0.40625 4.4414-0.12891 6.2188-1.4648 1.5742-0.95312 2.1914-2.9297 1.4453-4.6133z"/>
  <path d="m329.43 482.28c-2.9961 0.81641-6.0781 1.2695-9.1836 1.3594-3.2695-0.23047-6.4648-1.0703-9.4219-2.4805-6.1406-2.8359-11.324-7.3984-14.918-13.125-3.7266-6-6.6953-12.434-8.8398-19.164-2.7148-7.6953-5.0664-15.527-7.2344-23.395-1.2109-4.4023-2.3242-8.8359-3.6367-13.211-1.3945-4.6367-3.4766-8.9922-4.6836-13.695-0.0625-0.32812-0.375-0.54688-0.70312-0.49219-0.32813 0.050781-0.55859 0.35547-0.51563 0.6875 0.66797 4.5586 0.69922 9.1562 1.2578 13.723 0.14062 1.1367 0.32422 2.2734 0.53906 3.4102l-0.39063 1.5938c-0.73437 2.4766-1.8477 4.875-2.6328 7.3555-1.5625 4.9219-3.3516 9.7695-4.9258 14.688l-0.003907-0.003906c-1.6797 4.9922-2.875 10.133-3.5703 15.355-0.31641 2.5508-0.43359 5.1289-0.34766 7.6992 0.11719 2.9492 0.78906 5.8164 1.1445 8.7344 0.066406 0.55469 0.99219 0.54688 0.99219-0.027344 0.125-2.6836 0.44141-5.3555 0.94531-7.9961 0.41406-2.8125 0.73828-5.6211 1.2227-8.4219 0.97266-5.3242 2.3555-10.566 4.1406-15.676 1.6133-4.7539 3.5039-9.4727 4.6953-14.355l0.36328-1.7891 0.52734 2.0859c2.1484 8.543 4.6094 17 7.3828 25.371l-0.003906-0.003906c3.332 15.191 13.012 28.23 26.59 35.809 7.2305 3.5 15.711 3.2422 22.715-0.68359 0.64062-0.55469 0.84375-1.4609 0.5-2.2344-0.34766-0.77344-1.1641-1.2305-2.0039-1.1172z"/>
  <path d="m274.09 359.8c-3.3477-1.8945-7.5078-1.6016-10.559 0.74609-3.3125 2.4258-5.7031 5.9023-6.7852 9.8594-1.2617 4.4727-2.1836 9.0312-2.7617 13.641-0.85938 5.2266-1.6641 10.457-2.4102 15.703-1.4531 10.215-2.4922 20.469-3.5391 30.73-0.49609 4.8477-1.0938 9.6719-1.668 14.504-0.45703 0.6875-0.71875 1.5-1.168 2.25l-0.003906 0.003907c-0.64844 1-1.3594 1.9609-2.1289 2.875-1.7031 2.3438-3.543 4.582-5.5156 6.7031-2.1758 1.6523-4.6055 2.9414-7.1914 3.8164-2.8008 1.3594-5.3984 3.0508-8.2266 4.3672-0.58594 0.27344-0.33984 1.3125 0.33203 1.1289 6.0781-1.6641 13.906-1.6211 18.496-6.5352 1.125-1.2344 2.1641-2.543 3.1211-3.9141-0.5 1.1875-1.125 2.3164-1.8633 3.3672-2.8086 3.75-6.4648 6.7773-10.672 8.8359-2.3711 1.2305-4.7852 2.3555-7.25 3.3711-2.5781 1.0625-5.2734 1.7578-7.8438 2.8477-0.17578 0.082031-0.26562 0.28516-0.21094 0.47266 0.054688 0.1875 0.23828 0.30469 0.43359 0.28125 4.5508-0.45312 9.043-1.3789 13.402-2.7539 3.9727-1.1953 7.6758-3.1406 10.914-5.7344 3.1172-2.4688 5.582-5.668 7.1797-9.3086 1.5-4.1328 2.2461-8.5 2.207-12.895 0.53906-10.168 1.6133-20.297 3.2188-30.352 1.5117-10.07 2.9648-20.137 4.7344-30.164l0.003906-0.003906c0.44531-5.0977 1.7188-10.094 3.7617-14.785 1.0273-1.918 2.5547-3.5234 4.4219-4.6406 1.9805-1.0703 4.2148-1.5742 6.4648-1.457 0.72656 0.050781 1.4023-0.38281 1.6562-1.0664 0.25781-0.68359 0.03125-1.4531-0.55078-1.8945z"/>
  <path d="m332.16 444.66c-0.92578-1.0938-1.543-2.5039-2.3672-3.6914-0.83594-1.2031-1.6602-2.3828-2.4023-3.6445-1.7852-3.0312-3.4062-6.1641-5.1289-9.2305-3.5664-6.3438-7.125-12.699-10.668-19.055l-10.855-19.434c-3.0625-5.4844-6-11.07-9.543-16.27-3.0586-5.6289-8.0078-9.9961-13.973-12.336-0.70703-0.15234-0.99219 0.75391-0.66016 1.2305 1.5938 2.3008 3.8242 4.2031 5.5859 6.3984 1.8281 2.2617 3.5273 4.6211 5.0977 7.0703 3.4062 5.3672 6.2812 11.09 9.3047 16.676 6.9883 12.91 13.973 25.824 20.945 38.742 1.7578 3.2734 3.4961 6.5859 5.4688 9.7344h-0.003906c0.80078 1.3789 1.7578 2.6562 2.8555 3.8125 1.3086 1.1406 2.8086 2.0469 4.4297 2.6758 1.5586 0.75781 2.9492-1.4531 1.9141-2.6797z"/>
  <path d="m345.34 433.59c-5.4062-2.1914-8.3867-8.6523-11.23-13.41-4-6.6992-7.9844-13.406-11.953-20.121-3.9023-6.5938-7.7656-13.207-11.711-19.777-3.1953-6.1992-7.1094-12.004-11.664-17.285-2.3008-2.5117-5.2695-4.3164-8.5586-5.207-3.043-0.60938-6.207-0.13672-8.9453 1.3359-0.24219 0.12109-0.34766 0.41406-0.23438 0.66406 0.10938 0.25 0.39453 0.37109 0.65234 0.27344 3.3164-0.66797 6.7617 0.12891 9.4531 2.1758 2.6367 1.7266 4.875 3.9961 6.5703 6.6523 3.9805 5.9141 7.1797 12.449 10.781 18.602 7.6016 12.973 15.188 25.949 22.758 38.938 2.8086 4.832 7.4727 11.906 14.145 9.332 0.42578-0.20312 0.69141-0.63672 0.67578-1.1055-0.015625-0.47266-0.30469-0.88672-0.73828-1.0664z"/>
  <path d="m412.09 478.16c-2.082-0.92969-4.3086-1.4844-6.582-1.6367-2.3789-0.58984-4.6016-1.6953-6.5078-3.2383-1.8555-1.5703-3.4922-3.3867-4.8633-5.3945-1.7227-2.2305-2.7031-4.9414-2.8086-7.7578 0.015625-0.73047-1.1211-0.84766-1.1367-0.11328h0.003906c-0.25391 2.9141-0.085937 5.8477 0.5 8.7148l0.24219 0.81641c-1.8125-0.61328-3.625-1.2227-5.4219-1.8828-1.1602-0.42187-2.2734-0.94531-3.4219-1.3945-1.4766-0.41406-2.918-0.94922-4.3047-1.6016-0.097656-0.070313-0.22266-0.097657-0.33984-0.078125-0.12109 0.019531-0.22656 0.085937-0.29688 0.18359-0.14453 0.20703-0.09375 0.49219 0.10938 0.63672 1.5898 1.7695 3.3359 3.3867 5.2188 4.8398 1.8633 1.1719 3.8398 2.1484 5.9023 2.9141 2.2461 0.83984 4.3672 1.8086 6.4805 2.8125l0.60547 0.57422v0.003907c2.3008 2.0703 5.0391 3.5977 8.0117 4.4727 2.7852 1.3477 6.0742 1.1641 8.6914-0.48828 0.35547-0.30078 0.55469-0.74609 0.53906-1.2109-0.015626-0.46484-0.24609-0.89844-0.62109-1.1719z"/>
  <path d="m464.69 467.87c-2.8594-2.4805-6.5664-3.7578-10.348-3.5742-4.125 0.25781-8.1797 1.207-11.996 2.8086-4.1992 1.4297-8.4219 2.8164-12.559 4.4258-4.418 1.7188-8.3984 4.2148-12.727 6.0977-0.54297 0.23438-0.30078 1.1641 0.30078 1.0195 3.0898-0.74219 6.2422-1.1094 9.3555-1.7227l0.003906-0.003906c-0.16797 1.6133-0.19141 3.2422-0.066406 4.8594l0.14844 1.4766v-0.003906c-0.47656-0.43359-0.99219-0.82031-1.543-1.1523-2.6719-1.5312-5.9023-1.7188-8.7344-0.51172-0.16797 0.074218-0.28125 0.23437-0.30078 0.41797-0.015625 0.18359 0.0625 0.35938 0.21094 0.46875 1.8672 1.0508 3.9062 1.7188 5.7461 2.8164h0.003906c1.6172 1.0469 2.8242 2.625 3.4102 4.4609 0.37109 0.77734 1.2109 1.2148 2.0625 1.0781 0.84766-0.13281 1.5078-0.8125 1.6211-1.668l0.082031-0.64844c0.72656-1.4922 1.1797-3.1016 1.3359-4.7539-0.011718-2.6797 0.21875-5.3516 0.69141-7.9922 3.2969-0.92969 6.5586-1.9805 9.8125-3.0508v0.003906c3.7148-1.4414 7.543-2.5625 11.449-3.3516 0.74609-0.10938 1.5117-0.20313 2.2734-0.26953v-0.003906c-0.66016 6.7422-1.7305 13.434-3.2109 20.043-0.73438 3.6602-1.7148 7.2656-2.625 10.883-0.8125 3.2266-2.0391 6.2227-3.0938 9.3633h0.007812c-0.11719 0.34766 0.007812 0.73047 0.30469 0.94141 0.29687 0.21484 0.69922 0.20703 0.98828-0.011719 2.4414-2.2344 4.1328-5.1641 4.8516-8.3945 1.168-3.668 2.0938-7.4102 3.1953-11.102 2.1406-7.0391 3.5-14.289 4.0625-21.625 1.3984 0.30469 2.8203 0.50781 4.25 0.60156 0.93359 0.011719 1.793-1.1133 1.0352-1.9258z"/>
  <path d="m474.18 465.07c-2.1445-1.2188-4.5586-0.30078-6.8242-0.83594-0.69141-0.16406-1.1172 0.83594-0.39844 1.0703h0.003907c0.9375 0.38672 1.8242 0.88281 2.6445 1.4805l1.1641 0.62109c0.17969 0.10156 0.63672 0.55859 0.39062 0.14062l-0.003906-0.003906c0.39062 0.82422 1.2695 1.3008 2.1719 1.1836 0.53516-0.097657 1.0117-0.39453 1.3359-0.83203 0.64063-0.91406 0.42578-2.1758-0.48437-2.8242z"/>
  <path d="m469.55 469.73-1.25 0.23828c-0.42578 0.11719-0.77344 0.33203-1.1875 0.47266-0.32422 0.14844-0.52344 0.47656-0.51172 0.83203 0.007813 0.35547 0.23047 0.67188 0.55859 0.80078 0.38672 0.13281 0.71484 0.35156 1.1211 0.45313l1.3555 0.24609c0.98828 0.10156 2.2852-0.35156 2.2305-1.5586-0.054687-1.2266-1.2891-1.5977-2.3164-1.4844z"/>
  <path d="m374.23 460.1c-0.59766-0.71094-0.875-1.5-1.6641-2.0625v0.003907c-0.74219-0.49219-1.5664-0.84766-2.4375-1.0508-1.7188-0.42188-3.5117-0.4375-5.2383-0.039063-4 1.3086-7.6445 3.5195-10.652 6.4648-3.6836 2.418-7.6172 4.4297-11.734 6.0078-3.7266 2.3438-6.7891 5.6094-8.8945 9.4766-0.38672 0.53125 0.39844 1.0508 0.81641 0.57812h0.003906c2.6992-2.8477 6.0039-5.0508 9.6719-6.4492 3.5352-1.2305 6.9648-2.75 10.246-4.5469 3.1367-2 5.668-4.957 8.9883-6.6641h0.003906c1.3867-0.74219 2.9375-1.125 4.5117-1.1133 1.457-0.007812 2.8789 0.44531 4.0586 1.2969 1.2734 1.4375 3.5625-0.41797 2.3203-1.9023z"/>
  <path d="m442.54 510.63c-3.6406-0.14844-7.2656-0.5625-10.848-1.2422-3.5625-0.40625-7.082-1.125-10.52-2.1523-7.0625-2.2539-13.723-5.6133-19.734-9.957-3.0625-2.1797-5.9844-4.5547-8.7461-7.1055-2.668-2.7188-5.6289-5.1406-8.8242-7.2148-6.3711-3.3672-13.562-4.8633-20.75-4.3203-4.3047 0.23438-8.5898 0.73828-12.832 1.5-4.707 0.57422-9.3633 1.5039-13.934 2.7695-0.50781 0.16016-0.32031 0.93359 0.15625 0.98047 8.0977 0.23047 16.199 0.007812 24.27-0.67188 7.3125-0.71875 14.676 0.78516 21.125 4.3086 3.0664 2.2773 5.9492 4.7852 8.6289 7.5039 2.6992 2.4492 5.5547 4.7227 8.543 6.8125 6.0273 4.2695 12.676 7.5781 19.715 9.8086 3.8203 1.207 7.7656 1.9727 11.758 2.2773 4.1016 0.019531 8.1719-0.67969 12.027-2.0742 0.59766-0.17578 0.73828-1.2422-0.035156-1.2227z"/>
  <path d="m568.29 497.29c-4.0078 1.8086-8.375 2.6719-12.766 2.5273-5.3047 0.027344-10.625-0.023437-15.922-0.32422-1.6328-0.09375-5 0.066406-6.0898-1.4844-0.46094-0.99219-0.85156-2.0156-1.1719-3.0625-0.55859-1.1484-1.2422-2.2227-1.7617-3.3945-1.9609-4.4258-3.2109-9.1406-4.8008-13.711-3.5508-9.3281-6.2695-18.957-8.125-28.766-1.5117-9.5234-2.5117-19.207-3.125-28.828-0.35156-5.5664-0.47266-11.145-0.6875-16.715-0.10547-2.7617-0.12891-5.5234-0.26562-8.2852h0.003906c-0.32422-2.9336-0.42188-5.8828-0.29688-8.832 0.015625-0.25-0.16797-0.47266-0.42188-0.49609-0.25-0.023437-0.47656 0.15234-0.50781 0.40234-0.28125 2.6406-1.1484 5.2734-1.6562 7.8867-0.5 2.625-0.86719 5.2734-1.0938 7.9336-0.34375 3.7852-0.48047 7.5859-0.46484 11.387l-0.67578 0.13672c-1.1016 0.3125-2.168 0.73047-3.1875 1.25-2.1797 1.1016-4.2812 2.3555-6.2891 3.7539-4.0352 2.7656-7.7383 5.9922-11.621 8.9609-3.875 2.9297-8.0508 5.4414-12.457 7.4961-1.75 0.78906-3.4258 1.7266-5.0156 2.7969 0.72266-2.3984 1.2891-4.8438 1.6914-7.3203 0.65234-2.2539 0.72656-4.6367 0.21484-6.9258-0.050781-0.11328-0.15234-0.19531-0.26953-0.22266-0.12109-0.03125-0.24609 0-0.34375 0.074219-1.1328 1.418-1.9453 3.0586-2.3945 4.8125-0.83594 2.2344-1.6523 4.4766-2.4961 6.7109-0.79688 2.1172-1.5352 4.25-2.3594 6.3555l-1.1797 2.9648-0.47266 1.3477-0.76953 0.15625c-3.1875 0.59766-6.4531 0.70312-9.6758 0.3125-6.1758-0.60156-12.395-0.69531-18.586-0.28906 0.66406-4.7852 0.20703-9.9336 0.43359-14.672 0.16016-5.5938 1.0781-11.141 2.7305-16.484 2.7305-9.5312 9.7031-17.27 18.898-20.977 9.9648-2.375 20.078-4.0742 30.273-5.0898 4.7812-0.95703 9.3555-2.7578 13.508-5.3125 4.1055-2.7461 7.4531-6.4766 9.7422-10.852 4.3867-7.9805 7.4648-19.562 16.438-23.363l0.35547-0.066406c2.1055-0.37109 4.1875-0.79688 6.3125-1.0469h-0.003906c2.1211 0.042969 4.2383-0.15234 6.3164-0.58203l-0.20703 1.1133c-0.38672 2.0469 2.6172 2.5078 3.3828 0.78516h0.003906c1.1602-2.5703 1.7852-5.3555 1.8281-8.1758 0.050781-1.2578 0.003906-2.5195-0.13672-3.7695l0.30859-1.4102c0.20703-1.668-0.39844-3.332-1.6289-4.4766-1.3242-1.5273-2.2695-3.3398-2.7656-5.2969-0.19922-0.82812-0.75391-2.5781 0-3.2734 0.62891-0.37891 1.3438-0.59375 2.0781-0.625 0.23437 0.29297 0.78516 0.26562 0.77734-0.1875-0.035156-1.4727-2.0938-2.2852-3.3555-2.3438-2.6094-0.12109-3.8242 2.1523-3.7891 4.4727l-0.003906-0.003906c0.0625 2.7031 0.89844 5.3359 2.4102 7.582 0.73828 1.1094 2.1094 2.0273 2.6602 3.1953l0.11328 0.27344h-0.003907c-0.33203 1.8047-0.53125 3.6328-0.58984 5.4688l-0.38672 2.6562c-3.3164-0.50781-6.7031-0.28906-9.9297 0.64062-0.71484 0.1875-1.6562 0.4375-2.6367 0.76953-1.2617 0.085938-2.5039 0.33984-3.6992 0.75391l0.023437-0.050781c1.9961-4.6719 3.7539-9.4414 5.2695-14.293 1.5898-4.8086 3.2109-9.6016 5.0898-14.309h-0.003906c1.6992-4.9023 3.9492-9.5977 6.7031-13.996 0.33984-0.48828-0.34375-1.1914-0.79297-0.73828h-0.003906c-3.5352 3.3828-6.5195 7.2969-8.8477 11.598-2.2539 4.6484-4.1523 9.4609-5.6836 14.395-1.6445 4.9219-3.2422 9.8711-5.1016 14.719h-0.003907c-0.9375 2.3242-1.9922 4.5977-3.168 6.8086-1.5664 1.5352-2.9727 3.2344-4.1836 5.0625 1.8281-7.0078 3.1992-14.129 5.0703-21.129v0.003906c2.7148-13.602 9.0117-26.234 18.242-36.586 2.5547-2.5625 5.5898-4.6016 8.9258-6 1.832-0.76172 3.7461-1.3047 5.7031-1.6211 2.2578-0.57812 4.6133-0.625 6.8906-0.14062 0.26953 0.097656 0.56641-0.042969 0.66797-0.3125 0.097656-0.26562-0.035157-0.56641-0.30078-0.66797-3.0742-1.5977-6.5078-2.375-9.9688-2.2617-3.4766 0.35547-6.8164 1.543-9.7383 3.4609-5.8789 4.0352-10.738 9.3828-14.191 15.621-7.2227 13.422-12.121 27.977-14.48 43.035-0.92969 4.5391-1.6719 9.1172-2.6758 13.645-0.51172 2.3086-1.0977 4.6016-1.7305 6.8828l-0.44922 1.4688c-1.2344 2.2969-2.8164 4.3867-4.6914 6.1992-3.7734 3.2852-8.3203 5.5625-13.211 6.6133-10.816 1.3789-21.551 3.3047-32.172 5.7773-9.5977 3.6562-17.148 11.277-20.715 20.906-2.2734 5.8398-3.5977 12.004-3.9258 18.262-0.23438 3.5469-0.24609 7.1055-0.039063 10.652l0.125 1.9492c-0.73047-0.39062-1.4922-0.71875-2.2773-0.98828-1.4609-0.58594-2.9453-1.1211-4.4258-1.6484-2.9648-1.0586-5.9609-2.0391-8.9844-2.918-5.9609-1.7969-12.066-3.0625-18.246-3.7891-6.4414-0.65625-12.934-0.62109-19.367 0.10547-3.1484 0.33594-6.2852 0.75391-9.4023 1.3086-3.3945 0.60547-6.6992 1.6914-10.094 2.3594h0.003907c-0.25781 0.042969-0.43359 0.28906-0.39063 0.54688 0.042969 0.25781 0.28125 0.43359 0.54297 0.39844 3.2109-0.22266 6.3945-0.070313 9.5977-0.19141 3.1797-0.12109 6.3555-0.375 9.5352-0.47266 6.375-0.27344 12.762-0.0625 19.105 0.63281 6.0312 0.75781 11.988 2.0273 17.805 3.793 2.7656 0.82813 5.5039 1.7422 8.2227 2.7148 1.4805 0.53125 2.9531 1.0938 4.4336 1.6328v0.003906c1.2305 0.6875 2.6562 0.94922 4.0547 0.73438l0.32422-0.11328 0.26172 1.4336-0.003906 0.003907c-5.9375 0.25391-11.848 0.90625-17.699 1.9492-6.8203 1.2148-13.371 3.6367-19.336 7.1562-0.60547 0.37109-0.23047 1.3516 0.46094 1.043 6.793-2.7539 14-4.3359 21.324-4.6797 7.4062-0.58594 14.883-1.1367 22.309-1.293l-0.003906-0.003906c4-0.085938 8 0.074218 11.977 0.47656 3.5 0.58594 7.0664 0.69922 10.598 0.33594 1-0.20703 1.9805-0.50781 2.9297-0.89453 0.30859 0.027344 0.61719-0.019531 0.90234-0.13672l0.93359-0.49609c1.6758-0.66406 3.582-0.32031 4.918 0.89062 1.168 1.1836 2.0039 2.6523 2.418 4.2617 0.27734 0.88672 0.42578 1.8555 0.75391 2.7109l-1.0312-0.17188c-0.49219-0.066406-0.99219-0.089844-1.4883-0.070312-0.80078 0.023437-1.625 0.33203-2.4141 0.28906-0.28516-0.019531-0.54297 0.17188-0.60938 0.45312-0.066406 0.27734 0.082031 0.5625 0.34766 0.67188 0.72656 0.30859 1.3281 0.94922 2.0352 1.3242 0.4375 0.24219 0.89844 0.44141 1.3711 0.60156 1.1992 0.37891 2.4258 0.67578 3.668 0.89062 1.5859 0.28125 2.3672-1.8125 1.5195-2.8555l-0.003906 0.003906c0.625-2.4492 0.22266-5.0469-1.1133-7.1914-1.0195-2.3594-2.8242-4.293-5.1016-5.4766-0.74219-0.35938-1.5391-0.58594-2.3594-0.67578l0.64453-1.6172c1.6211-0.84766 3.2695-1.6562 4.9258-2.4453l0.11328 0.089844c2.4961 1.6875 5.4219 2.6289 8.4336 2.7188 1.7305 0.074218 3.457 0.070312 5.1484 0.25v0.003906c0.21484 1.625-0.3125 3.2578-1.4453 4.4492-2.0586 1.625-3.6797 2.8008-3.707 5.6719v-0.003906c0.015624 1.2266 0.26172 2.4414 0.72656 3.5781 0.73828 1.2227 1.3281 2.5273 1.7539 3.8906 0.37109 2.957-3.4805 3.8203-5.4844 4.8945-0.21094 0.097656-0.33203 0.32812-0.29297 0.55859 0.035157 0.23047 0.21875 0.41016 0.45313 0.44141 2.6758 0.66406 5.5039-0.16406 7.3984-2.168 2.2109-2.7344 0.79297-6.3125-0.10156-9.2695-0.30469-0.73438-0.40625-1.5352-0.29297-2.3242 0.26562-0.82812 1.2109-1.0195 1.9023-1.4375v0.003906c1.2656-0.75781 2.2695-1.8828 2.875-3.2266 0.58594-1.2422 0.77344-2.6328 0.53125-3.9883l0.1875 0.078126v0.003906c5.375 2.7266 9.2578 7.6992 10.605 13.574 2.1445 6.9648 1.4805 14.492-1.8516 20.973-3.1523 5.4023-8.4492 9.207-14.574 10.465-7.2891 0.71094-14.586-1.2344-20.559-5.4727-1.0156-0.54297-2.5859 0.3125-1.9414 1.5859l0.003906 0.003906c2.0391 3.1484 4.8945 5.6914 8.2578 7.3555 3.3633 1.668 7.1133 2.3984 10.855 2.1133 7.4883-0.1875 14.559-3.5156 19.48-9.1641 4.3789-5.6367 6.7383-12.578 6.6953-19.719-0.039063-7.1367-2.4766-14.051-6.918-19.637 1.1758-4.4922 1.5586-9.1523 1.1289-13.773-0.19531-3.3594-1.3242-6.5977-3.2617-9.3516l1.8281-1.3555c1.9023-1.4023 3.8984-2.6641 5.9805-3.7734l2.4023-1.1953v0.023438-0.003907c0.36719 10.688 1.7734 21.316 4.1953 31.73 2.0742 10.426 4.7734 20.719 8.0898 30.82 1.8711 5.1523 4.582 9.9219 6.3984 15.09v0.003906c1.4805 4.0977 5.2188 6.9492 9.5625 7.3047 6.1797 0.77344 12.406 1.1445 18.637 1.1094 5.0859 0.55469 10.148-1.2344 13.758-4.8594 0.82812-0.97266-0.46875-2.4805-1.5703-1.9258zm-69.09-51.902-0.76953-0.70703v0.003906c-2.9297-2.5156-6.6875-3.8594-10.547-3.7812-2.1758 0.003906-4.3594 0.1875-6.5312 0.25v0.003906c-2.3984 0.26953-4.8242 0.050782-7.1367-0.63672l3.7109-1.7461c4.1797-1.9883 8.1406-4.3984 11.824-7.1953 2.1094-1.5938 4.1602-3.2617 6.2344-4.9062v-0.003906c0.47266 0.77734 0.89453 1.5781 1.2734 2.4023 0.78906 2.1797 1.2891 4.457 1.4883 6.7695 0.37109 3.1758 0.38281 6.3633 0.45312 9.5469z"/>
  <path d="m567.46 492.32c-7.9062-4.4258-17.055-6.1211-26.023-4.8242-0.79297 0.035156-1.9805 0.34766-2.4961-0.19922-0.53516-0.96875-0.90625-2.0156-1.0977-3.1055-0.75391-2.4336-1.3594-4.9141-1.8164-7.4219-0.83203-4.7188-1.3828-9.4805-1.6406-14.266-0.29297-9.5547-1.0742-19.086-2.3438-28.559-0.67578-5.1094-0.64062-10.289 0.11328-15.387 0.26953-2.5977 0.56641-5.1914 0.86328-7.7852l-0.003907-0.003907c2.1406 0.98047 4.6172 0.86719 6.6562-0.30078 1.6016-0.92188 3.0625-2.0625 4.3477-3.3906 0.42578 0.26562 0.92578 0.38672 1.4258 0.35156 4.9258-0.17188 9.2656-3.293 11-7.9102 1.2266-5.8633 0.039062-11.977-3.293-16.957-0.23438-0.42969-1.0273-0.28516-0.88672 0.26172 0.72656 2.7969 1.168 5.6562 1.3242 8.543 0.46484 2.918-0.074219 5.9062-1.5391 8.4727-1.2852 1.8555-3.2422 3.1328-5.4531 3.5625 3.793-8-2.8008-16.004-2.2969-24.094 0.035156-0.57031-0.84766-0.66016-0.88281-0.089844-0.1875 3.0156-0.87891 5.8789-0.78906 8.9375 0.09375 3.3164 1.1211 6.582 1 9.9062v0.003906c-0.16016 2.8398-1.5781 5.4648-3.8672 7.1562-0.90234 0.9375-2.0391 1.6211-3.2891 1.9766-1.0234-0.015625-2.0352-0.20312-2.9961-0.55859l0.39844-3.8711c1.1562-11.922 2.3633-23.816 3.2344-35.758 0.039063-0.54297-0.82031-0.79688-0.96875-0.22656-2.7539 10.637-4.8906 21.328-6.582 32.195-0.85547 5.5117-1.5352 11.039-2.1523 16.582-0.93359 5.4062-1.1758 10.91-0.72266 16.379 0.71875 4.9883 1.5898 9.8828 1.9688 14.922 0.37109 4.9531 0.54688 9.918 0.84766 14.879l-0.003906-0.003907c0.24609 5.043 0.78906 10.066 1.625 15.047 0.43359 2.4219 1 4.8203 1.6953 7.1836 0.47656 2.2812 1.3164 4.4766 2.4922 6.4922 1.5195 2.1016 3.8438 1.8125 6.1328 1.668h-0.003906c2.7109-0.18359 5.4297-0.22266 8.1484-0.11328 5.5391 0.31641 10.992 1.5234 16.145 3.5781 0.87109 0.28516 1.8242-0.09375 2.25-0.90625 0.42969-0.80859 0.20703-1.8086-0.51953-2.3672z"/>
  <path d="m587.89 471.05c-1.6836-0.55469-3.4453-1.0078-5.0742-1.7031-1.75-0.74609-3.3945-1.7148-5.1133-2.5312-1.6484-0.83984-3.4258-1.3984-5.2578-1.6445-2.1328-0.003907-4.2617 0.24219-6.3398 0.74219-2.4102 0.30859-3.0156-1.3164-3.5273-3.3594h0.003906c-0.63672-2.5703-1.125-5.1719-1.4688-7.8008-0.64453-5.0664-0.92578-10.176-0.83594-15.285 0.23047-20.887 2.8789-41.734 4.4531-62.555 0.49609-4.8906 0.51563-9.8164 0.054688-14.707-0.27734-3.8477-1.4922-7.5703-3.5391-10.84l0.089843-0.28906c1.375-4.957 3.4922-9.6797 6.2773-14.008 1.4336-0.71875 2.4727-2.0352 2.8477-3.5938 0.11328-0.5625-0.46094-0.88672-0.92188-0.87109-1.625 0.27734-3.1797 0.85547-4.5898 1.707-1.7461 0.71484-3.6055 1.1094-5.4883 1.1758-1.8359 0.09375-3.6406 0.23828-5.4727 0.38672h-0.003906c-1.8711 0.39453-3.8281 0.035156-5.4375-1-0.34766-0.32031-0.82422 0.24219-0.55469 0.59375 3.1641 2.9102 7.4961 4.1953 11.738 3.4844 1.3633-0.027344 2.7266-0.1875 4.0586-0.48047-0.45312 0.52344-0.88281 1.0703-1.2812 1.6367-1.6367 2.4219-3.043 4.9961-4.1953 7.6875-1.1914 2.6836-2.125 5.4414-3.0508 8.2266v-0.003906c-0.76562 2.832-1.75 5.5977-2.9414 8.2734-0.5 0.96484 0.76953 2.0039 1.668 1.5703 2.3477-1.2695 4.0312-3.4922 4.6172-6.0977l0.76172-2.4297c0.48828 2.0625 0.82812 4.1602 1.0078 6.2734 0.22656 4.75 0.10547 9.5078-0.36719 14.238-0.82031 11.086-1.6094 22.176-2.3672 33.266-0.71875 10.457-2.0039 21-1.918 31.488-0.003906 5.2305 0.42578 10.453 1.2812 15.609 0.66797 3.8398 1.2734 9.9102 5.2539 11.867 2.2227 0.82812 4.668 0.84375 6.9023 0.050781 2.1562-0.51562 4.4219-0.26562 6.418 0.69922 3.8477 1.6758 8.0664 5.1328 12.402 3.125v-0.003907c0.56641-0.26953 0.92188-0.84766 0.90234-1.4766-0.019531-0.62891-0.41016-1.1875-0.99219-1.4219z"/>
  <path d="m580.44 475.05c-3.6445-0.60547-7.4453-0.44922-11.133-0.95312v-0.003906c-3.3633-0.35938-6.6797-1.082-9.8906-2.1484-3.0703-1.0078-5.3906-3.5508-6.1094-6.6992-0.95313-3.4375-1.5312-7.0273-2.1836-10.531-1.3711-7.3359-2.3711-14.719-3.4023-22.105h-0.003906c-1.3594-7.4492-2.3203-14.969-2.8828-22.52-0.019531-0.66016-1.0352-0.49219-1.0117 0.16016 0.26953 8.3438-0.32422 16.672 0.34766 25.016v-0.003907c0.75781 8.3945 1.9453 16.746 3.5586 25.02 0.36328 3.5664 1.3281 7.0469 2.8594 10.289 1.7812 2.7148 4.5117 4.668 7.6562 5.4727 3.5938 1.1172 7.3125 1.7773 11.074 1.9727 3.8398 0.39062 7.7227 0.015625 11.418-1.1016 0.98047-0.36719 0.59766-1.7188-0.29688-1.8633z"/>
  <path d="m477.09 474.72c-0.44531 0.20312-0.70312 0.67578-0.62891 1.1602 0.11328 1.3906 3.1406 3.2227 0.52734 3.5547v-0.003906c-0.96875 0.042968-1.9375-0.003907-2.8984-0.13281-1.2773 0.027344-2.5508-0.11328-3.793-0.41797-0.24219-0.082031-0.51172 0.027344-0.63281 0.25391-0.11719 0.22656-0.058594 0.50781 0.14844 0.66406 1.6328 1.5938 3.7383 2.6172 5.9961 2.9141 1.6719 0.28516 3.3867-0.17578 4.6875-1.2617 2.332-2.3516 0.050781-7.8359-3.4062-6.7305z"/>
  <path d="m559.26 294.86c-2.4609-0.25-4.9531 0.019531-7.3047 0.79297-2.3945 1.1289-4.3359 3.0352-5.5078 5.4102-1.1484 2.3594-1.8359 4.9219-2.0195 7.5391-0.003906 2.793-0.69141 5.543-2.0039 8.0078-0.125 0.1875-0.097656 0.43359 0.066406 0.58594 0.16406 0.15234 0.41406 0.16797 0.58984 0.03125 3.0234-3.375 5.1367-7.4688 6.1328-11.887 0.85156-2.457 2.5469-4.5312 4.7852-5.8594 2.0312-1.1328 4.8125-0.41016 6.1758-2.6133 0.25781-0.37109 0.29688-0.84766 0.10938-1.2617-0.1875-0.41016-0.57422-0.69141-1.0234-0.74609z"/>
  <path d="m574.72 309.36c-0.71094 0.33594-1.4414 0.63281-2.1836 0.89062-0.21484-1.0273-0.46094-2.0508-0.73437-3.0664-1.6211-5.9414-3.9219-14.77-11-15.906h-0.003907c-0.22266-0.019531-0.42969 0.11328-0.50781 0.32422-0.082031 0.21094-0.011719 0.44922 0.16797 0.58203 2.2969 1.8477 3.9766 4.3438 4.8203 7.1641 0.88672 2.1875 1.6641 4.4141 2.3242 6.6758l-0.53516 0.29688c-0.34375 0.20312-0.64844 0.46484-0.89844 0.77344-0.17188 0.24609-0.29297 0.83984-0.011719 1.0664l-0.003906-0.003906c0.57031 0.32422 1.2227 0.48047 1.8789 0.44141l0.27344 0.027344 0.32812 1.3594 0.32422 1.4531-0.66016 0.35938h0.003907c-0.32031 0.27344-0.47266 0.69141-0.40234 1.1055 0.066406 0.41016 0.34766 0.75781 0.73828 0.91016l0.85547 0.23828c0.41016 2.1289 0.70703 4.2812 0.89453 6.4414 0.15234 1.8281 0.19141 3.6523 0.24609 5.4883 0.058593 1.832 0.44922 3.5703 0.58984 5.3828h0.003907c0.0625 0.30859 0.3125 0.53516 0.62109 0.56641 0.3125 0.03125 0.60547-0.14453 0.72266-0.42969 0.63672-1.875 1.0625-3.8164 1.2656-5.7852 0.078125-1.918 0.058594-3.8398-0.066406-5.7578-0.12109-2.2109-0.33984-4.4141-0.67188-6.6016v0.003906c1.1484-0.5625 2.1562-1.3711 2.9531-2.3672 0.71875-0.82812-0.40234-2.082-1.332-1.6328z"/>
  <path d="m558.02 313.35c-1.8086-1.7773-4.2773 0.88672-5.6484 1.9922-0.29688 0.23828 0.019531 0.80469 0.36328 0.59375 0.89062-0.47266 1.8867-0.70312 2.8906-0.66406 0.92578-0.042969 1.8203 0.015624 2.4336-0.79688 0.24219-0.33984 0.22656-0.80078-0.039063-1.125z"/>
  <path d="m568.8 326c-1.1992-0.50391-2.3086 0.16797-3.4062 0.63672-0.50391 0.18359-0.99219 0.40625-1.4648 0.66406-0.37891 0.26953-0.72266 0.58984-1.0195 0.94922-0.10156 0.085938-0.15625 0.21094-0.15234 0.33984 0.007812 0.12891 0.070312 0.25 0.17578 0.32812 0.42969 0.42578 0.96875 0.71875 1.5586 0.84375 0.66406 0.089844 1.3359 0.050781 1.9844-0.10547 1.4219-0.29688 2.8086-0.87109 3.0938-2.4297 0.046875-0.53516-0.26562-1.0352-0.76953-1.2266z"/>
  <path d="m558.19 307.9c-1.8398-0.5625-3.832-0.35547-5.5195 0.57422-1.6875 0.93359-2.9219 2.5078-3.4258 4.3672-0.15625 0.48828 0.47266 1.0742 0.89453 0.64062 1.0195-1.0234 2.2656-1.793 3.6367-2.2461 1.3672-0.37891 2.7617-0.67188 4.168-0.875 0.5625-0.10938 0.98438-0.57031 1.043-1.1406 0.058594-0.56641-0.26562-1.1055-0.79688-1.3203z"/>
 </g>
</svg>