<?xml version="1.0" encoding="UTF-8"?>
<!-- Uploaded to: ICON Repo, www.iconrepo.com, Generator: ICON Repo Mixer Tools -->
<svg fill="#000000" width="800px" height="800px" version="1.1" viewBox="144 144 512 512" xmlns="http://www.w3.org/2000/svg">
 <g>
  <path d="m352.04 330.15c-4.5938 0.87109-8.668 3.4961-11.363 7.3164-3.0234 3.7383-5.6094 7.8086-7.707 12.133-2.168 4.3477-3.9219 8.8867-5.2383 13.562-0.67188 2.3555-1.3242 4.7188-1.9258 7.0898-0.49219 2.2852-0.83594 4.5977-1.0312 6.9258-0.074219 0.61719 0.75 0.73047 0.99609 0.23047 1.0664-1.9805 2.0273-4.0156 2.8867-6.0977 0.78125-2.1133 1.5508-4.2266 2.3906-6.3164 1.6758-4.1562 3.3906-8.3125 5.2969-12.371v0.003906c1.8789-4.0117 4.1328-7.8398 6.7305-11.43 1.2383-1.7148 2.5586-3.3984 3.9102-5.0234 1.4453-1.9414 3.3125-3.5352 5.457-4.6562 0.32031-0.15234 0.48047-0.51562 0.38281-0.85547-0.10156-0.33984-0.43359-0.55469-0.78516-0.51172z"/>
  <path d="m324.79 379.69c0.019532-0.25-0.14844-0.47266-0.39062-0.53125-0.24609-0.054687-0.49219 0.074219-0.58594 0.30469-2.4336 4.1445-4.4883 8.5-6.1406 13.012-0.74219 3.1523-0.93359 9.4219 3.4414 9.9883h-0.003906c0.37891 0.027344 0.73828-0.16797 0.91797-0.50391 0.17969-0.33594 0.14453-0.74219-0.085938-1.043-2.0078-2.9648-0.48047-7.4883 0.42969-10.57v-0.003906c1.2852-3.4258 2.0977-7.0078 2.418-10.652z"/>
  <path d="m357.49 424.21c-2.1133-2.1055-4.4805-3.9453-7.043-5.4727-2.8594-1.9062-5.8555-3.6055-8.9648-5.0742-2.9531-1.6367-5.8242-3.4141-8.7227-5.1484-2.8008-1.6719-5.9219-2.9102-8.6328-4.7109l-0.003906 0.003906c-0.23047-0.15625-0.54297-0.11719-0.73438 0.085937-0.19141 0.20703-0.20703 0.51953-0.035157 0.74219 1.8789 2.5391 4.1055 4.8047 6.6172 6.7227 1.7617 1.3164 3.6055 2.5234 5.4805 3.6719-0.66406 0.98828-1.2773 2.0117-1.832 3.0625-1.0742 1.8984-1.9531 3.9023-2.6133 5.9766-1.3594 3.9727-1.6094 8.2344-0.72656 12.34 1.1797 3.9141 2.6875 7.7266 4.5117 11.391 0.85547 2.0273 1.5312 4.1289 2.0195 6.2812 0.38672 2.207 0.90625 4.3906 1.5625 6.5391 0.45312 1.2344 2.082 0.69531 2.293-0.36719 0.67969-4.1367 0.21875-8.375-1.332-12.27-1.3672-3.6719-3.3594-7.0938-4.5664-10.832-1.1562-3.8008-1.125-7.8672 0.078125-11.652 0.58984-2.0273 1.3789-4.0039 2.1094-5.9844 0.34375-0.92969 0.79297-1.9023 1.1484-2.8984l0.63672 0.375h0.003907c2.8125 1.8203 5.7969 3.3516 8.918 4.5781 1.6055 0.39453 3.1836 0.91406 4.7109 1.5508 1.4453 0.73828 2.8906 1.4609 4.3555 2.1602 0.63281 0.30469 1.1523-0.57422 0.76172-1.0703z"/>
  <path d="m379.9 418.49c-0.96484-0.91797-1.8086-1.957-2.5117-3.0898-0.9375-1.3008-2.3203-2.2148-3.8906-2.5703-1.8945-0.50781-3.8281-0.86719-5.7812-1.0742-2.3086-0.089844-4.5781-0.625-6.6797-1.5781-0.64844-0.64062-1.3008-1.2773-2-1.8633-2.9141-2.5781-5.5156-5.4844-7.7617-8.6562-2.1289-3.0195-4.4609-5.8906-6.9766-8.5977-0.71875-0.73047-1.4805-1.4141-2.2852-2.0508l0.92188-0.80469c1.3164-1.1133 2.5625-2.3047 3.7344-3.5703 2.2734-2.6797 4.0625-5.7422 5.2773-9.0391 1.3711-3.3086 2.7031-6.6211 4.1758-9.8867 0.76953-1.7031 1.4766-3.4258 2.1953-5.1484 0.64844-1.9961 1.4258-3.9492 2.3242-5.8477 0.46094-0.79688-0.67969-1.6445-1.1914-0.84375-0.96875 1.5195-2.2266 2.7148-3.3008 4.1484l0.003906 0.003906c-1.1055 1.5-2.1016 3.0781-2.9805 4.7227-1.6797 3.1602-3.168 6.418-4.457 9.7578-1.1523 3.1523-2.6758 6.1562-4.5273 8.957-1.0273 1.4531-2.1719 2.8242-3.418 4.1016-0.50781 0.52734-1.1055 1.0391-1.6406 1.5898-1.7188-0.73047-3.5078-1.2734-5.3438-1.6133-0.76953-0.19531-1.5547 0.89453-0.71875 1.3594h0.003906c1.7812 1.1523 3.4297 2.4922 4.9258 4 1.3477 1.2188 2.6367 2.5078 3.8516 3.8633 2.5312 2.8203 4.6758 5.9609 6.9766 8.9688v-0.003906c2.2695 3.1133 4.9258 5.9219 7.8984 8.3672 1.75 1.1914 3.6328 2.1758 5.6094 2.9375 1.8945 1.0234 3.8516 1.9258 5.8594 2.6992 0.37109 0.125 0.77734-0.039062 0.96094-0.38281 0.17969-0.34375 0.085937-0.76953-0.22266-1.0078-1.1445-0.92188-2.4141-1.6836-3.6367-2.5078l0.71094 0.26172c2.0859 0.72656 4.2383 1.1719 6.3477 1.8203 1.9648 0.60547 2.3633 1.7852 3.4727 3.3398l-0.003907 0.003906c0.73828 1.375 2.3477 2.0352 3.8398 1.5781 0.4375-0.20312 0.73828-0.625 0.78516-1.1055 0.050782-0.48047-0.16016-0.95312-0.54687-1.2383z"/>
  <path d="m341.89 492.5c-0.27734-3.375-0.36719-6.7656-0.26562-10.156 0.042969-3.332 0.074219-6.6602-0.007812-9.9883-0.039063-1.582-0.09375-3.1641-0.24219-4.7383-0.16797-1.75-0.68359-3.4141-0.90234-5.1328-0.09375-0.74219-1.3398-0.73828-1.3359 0.039062-0.097657 1.7305-0.28516 3.457-0.5625 5.1719l-0.44141 4.5586c-0.66016-0.94922-1.4141-1.8516-1.9727-2.6641-1.1445-1.8828-2.4492-3.6641-3.8984-5.3242-1.0156-1.3281-2.5508-2.1641-4.2227-2.293-1.668-0.12891-3.3164 0.45703-4.5234 1.6133-0.22656 0.19531-0.27734 0.52734-0.12109 0.78125 0.15625 0.25391 0.47266 0.35938 0.75 0.24609 1.5117-0.81641 3.3633-0.64844 4.7031 0.42188 1.0664 1.0742 1.9727 2.2969 2.6992 3.625 0.91016 1.3945 1.8125 2.7969 2.7344 4.1797 0.73047 1.5234 1.7969 2.8633 3.1172 3.9141l0.25781 0.11328-0.12109 1.1914v-0.003907c-1.8945-1.3438-3.8789-2.5664-5.9336-3.6562-1.3594-0.75781-2.5625-1.7656-3.5469-2.9727-0.89063-1.5859-1.8945-3.1094-2.9961-4.5547-2.3164-2.3008-5.8398-2.8672-8.7578-1.4062-1.457 0.85547-2.6914 2.043-3.6016 3.4648-1.1484 1.6328-2.3672 3.4375-4.5742 3.4688-0.73047 0.007813-1.3867 1.0586-0.57031 1.5234 2.8984 1.6289 5.7266-0.54688 7.6992-2.6055v-0.003906c0.89453-1.2695 2.1719-2.2188 3.6445-2.7031 1.5352-0.25781 3.0703 0.45312 3.875 1.7852 0.75 1.4531 1.6016 2.8516 2.5508 4.1836 1.0195 1.1328 2.1953 2.1172 3.4922 2.9219 2.7305 1.7422 5.6133 3.1484 8.2773 5.0078l0.10938 0.0625-0.027344 0.57031c-0.046875 1.25-0.078125 2.5039-0.078125 3.7578l-1.793-0.89062c-2.4883-1.2422-5.082-2.2656-7.7422-3.0664-2.6328-0.78906-5.3047-1.4258-8.0078-1.9062-2.7773-0.67969-5.6445-0.89453-8.4922-0.63672-0.22656 0.039063-0.40234 0.21094-0.45703 0.4375-0.050781 0.22266 0.035156 0.45312 0.21875 0.58984 1.9805 1.0352 4.0938 1.793 6.2773 2.2578 2.4023 0.66406 4.8203 1.2852 7.1992 2.0352 2.2734 0.71484 4.5352 1.4961 6.7305 2.4258 1.0977 0.46484 2.1758 0.96875 3.2344 1.5156v-0.003906c1.1328 0.40234 2.1562 1.0703 2.9805 1.9492l0.003906 0.007813 0.13281 1.6094v-0.003906c-0.074218 3.4023 0.99609 6.7305 3.043 9.4492 0.36328 0.41797 0.94141 0.58203 1.4727 0.42188 0.53125-0.16016 0.92187-0.61719 0.99609-1.168 0.054688-3.168-0.28516-6.332-1.0039-9.4219z"/>
  <path d="m356.14 516.33c-3.5352-0.75781-7.1172-1.2695-10.719-1.5273-3.375-0.57422-6.6641-1.5625-9.793-2.9453-2.8984-1.5508-5.6445-3.3789-8.1914-5.4531-2.957-2.1523-5.9609-4.2383-9.0117-6.2578-5.9219-3.9258-11.973-7.6523-18.043-11.34h-0.003906c-5.6367-3.6094-11.578-6.7227-17.758-9.2969-3.0117-1.1758-6.0039-2.3477-8.9531-3.6719-3.0547-1.0547-5.8047-2.8438-8.0156-5.2031-0.5625-0.72266-1.5781 0.15234-1.0859 0.88672h0.003906c1.4688 2.4062 3.3516 4.5312 5.5547 6.2852 2.4219 1.6719 5.0352 3.0391 7.7891 4.0664 2.7891 1.1523 5.6094 2.2305 8.3125 3.5781 3.3672 1.6758 6.5586 3.6875 9.7422 5.6797 6.293 3.9375 12.629 7.8086 18.816 11.91 3.1406 2.082 6.2539 4.1953 9.3125 6.3906l0.003906 0.003906c2.7461 2.1523 5.6445 4.1133 8.6641 5.8672 3.4492 1.7031 7.1445 2.8438 10.953 3.3789 4.0859 1.082 8.3633 1.1992 12.5 0.33594 0.52734-0.25 0.85938-0.78516 0.83984-1.3711-0.015625-0.58203-0.37891-1.1016-0.91797-1.3164z"/>
  <path d="m389.73 506.29c-1.6641 0.80469-3.543 1.0508-5.3555 0.69922-2.2461-0.23047-4.4648-0.64453-6.6406-1.2305-3.1602-1.0039-6.4766-1.4062-9.7852-1.1875l0.54688-1.707c1.6367-6.2812 2.9492-12.648 3.9297-19.066 1.2305-6.7812 2.2656-13.605 2.8398-20.477 0.30469-3.375 0.375-6.7656 0.21484-10.152-0.03125-3.5273-0.45312-7.043-1.2578-10.48-0.10156-0.5625-0.60156-0.96875-1.1719-0.94922-0.57422 0.015625-1.0508 0.44922-1.1172 1.0156-0.32422 3.2812-0.1875 6.582-0.40234 9.8711-0.21875 3.3047-0.46094 6.6094-0.73047 9.918-0.53906 6.5391-1.5117 13.031-2.6367 19.492-1.0664 6.1133-2.2227 12.215-3.4648 18.301l-0.003906-0.003906c-0.4375 2.6484-1.0273 5.2656-1.7578 7.8438-0.91406 2.5195-2.1523 4.9062-3.6875 7.1055-0.19922 0.29688-0.15234 0.69531 0.10938 0.94141 0.26562 0.24609 0.66406 0.26172 0.94922 0.042969 2.8984-2.3633 5.1484-5.4297 6.5391-8.9023 2.1367 0.41797 4.2852 0.66406 6.4141 1.2695 2.3047 0.65625 4.6445 1.2812 6.9922 1.7734 3.6484 0.76562 9.4531 1.3594 11.074-2.9805v0.003906c0.14453-0.42969-0.011719-0.89844-0.375-1.1602-0.36719-0.26172-0.86328-0.25391-1.2227 0.019531z"/>
  <path d="m307.41 477.18c-0.94922-3.6641-2.6953-7.0742-5.1211-9.9766-1.2773-1.1797-2.9531-1.8281-4.6914-1.8125-1.9922 0.26172-3.9023 0.96094-5.5938 2.0508-7.3516 3.6055-15.512-2.7969-22.676 1.0547-0.20703 0.097656-0.32422 0.32422-0.28906 0.55078 0.035156 0.22656 0.21875 0.40234 0.44531 0.43359 3.5352 0.81641 7.043 1.4922 10.625 2.125l-0.003906-0.003906c3.4141 0.82031 6.9609 0.9375 10.418 0.33984 1.6562-0.46875 3.25-1.1289 4.7539-1.9688 1.3867-1.0469 3.3164-0.97266 4.6211 0.17578 2.5664 2.3516 3.1523 6.1875 6.1055 8.1836v-0.003907c0.34766 0.23047 0.80469 0.21094 1.1289-0.054687s0.43359-0.71094 0.27734-1.0938z"/>
  <path d="m521.84 509.7c-3.4492 1.5898-7.25-0.39453-10.742-0.86328-3.9531-0.53125-7.9336 0.24219-11.895 0-1.9062-0.007813-3.7812-0.48828-5.457-1.3984-1.4922-1.1094-2.7539-2.5-3.7109-4.0977-2.168-3.0938-4.3398-6.1875-6.4648-9.3125v0.003906c-8.7305-12.422-15.438-26.148-19.871-40.668-1.3086-4.5273-2.4336-9.1172-3.5625-13.691-0.58984-2.3984-1.1953-4.793-1.8125-7.1875-0.58594-2.2461-1.4688-4.418-2.1758-6.6328-0.20313-0.625-1.0703-0.26562-1.0352 0.30078l0.003907 0.003906c0.38281 7.5859 1.2891 15.137 2.7188 22.598-4.8125-0.125-9.6172 0.48438-14.246 1.8008-5.4023 1.3281-10.68 3.0938-16.035 4.5977v-0.003906c-5.5312 1.5156-11.172 2.5898-16.871 3.2148-2.9297 0.34375-5.8633 0.66406-8.8047 0.90625-1.3672 0.11328-2.7344 0.03125-4.0898 0.18359-1.1016-0.015625-2.1992 0.078125-3.2852 0.27344-0.25781 0.11719-0.375 0.42188-0.26172 0.67969 1.3125 1.8398 3.4727 2.8828 5.7305 2.7578-0.21875 0.66797-0.37891 1.3711-0.57812 2.0898-0.46875 1.8047-0.79688 3.6406-0.98828 5.4961-0.46094 3.9062-0.80078 7.8281-1.1992 11.738-0.45703 7.168-2.1602 14.203-5.0352 20.785-0.35938 0.73828 0.74609 1.2188 1.2109 0.64062h0.003907c4.3203-5.7891 6.9766-12.645 7.6875-19.836 0.57812-3.8672 0.85547-7.7695 1.2891-11.652 0.21094-1.8984 0.53125-3.7852 0.66016-5.6914 0.082031-1.2188 0.32422-2.4375 0.32812-3.6406 1.7969-0.11719 3.5938-0.33984 5.375-0.51953 1.543-0.15625 3.082-0.32812 4.6211-0.51953v0.003906c-1.4258 8.293-3.4531 16.473-6.0664 24.473-1.4414 4.1992-3.1289 8.3008-4.9219 12.359-0.73047 2.0547-1.7109 4.0117-2.9219 5.8242-1.4375 1.543-3.3242 2.5898-5.3945 2.9844-0.87109 0.11719-0.61719 1.3359 0.20703 1.3086 1.1406-0.035156 2.1836 0.41406 3.332 0.31641 1.0117-0.082031 1.9922-0.375 2.8867-0.85547 1.7773-1.2461 3.1523-2.9805 3.9648-4.9922 2.3711-4.4258 4.4453-9.0078 6.207-13.711 3.5391-9.0586 5.793-18.574 6.6875-28.258 3.1484-0.48437 6.2812-1.0781 9.3828-1.8594 5.5898-1.4062 11.059-3.2422 16.652-4.6367 5.0703-1.1953 10.246-1.8945 15.449-2.0938l0.078125 0.30469c2.1602 7.9258 5.1367 15.609 8.8867 22.918 3.6914 7.2617 7.8516 14.277 12.453 21 2.2891 3.3633 4.7227 6.582 7.2617 9.7578 2.1523 3.1797 5.6445 5.1836 9.4727 5.4375 4.8008-0.29297 9.6133-0.30859 14.414-0.050782 4.0781 0.71875 8.3203 2.8516 12.074 0.035156 0.57031-0.5 0.69922-1.3438 0.30078-1.9922-0.40234-0.64844-1.207-0.91406-1.9141-0.62891z"/>
  <path d="m525.61 506.27c-3.3398-2.1562-7.0508-3.668-10.949-4.4531-3.6641-0.99609-7.4648-1.4141-11.258-1.2344-1.7344 0.42188-3.5547 0.27344-5.1953-0.42969-1.3359-1.0859-2.457-2.418-3.3047-3.918-1.793-2.8047-3.2539-5.8086-4.3516-8.9531-2.3008-6.2227-3.6562-12.746-5.7148-19.047-1.1484-3.5117-2.7773-6.8633-3.832-10.398-0.70312-2.4805-1.1797-5.0156-1.4297-7.5781 2.0312-0.64062 3.8203-1.8789 5.1328-3.5586 1.7617-1.9883 3.043-4.3594 3.7344-6.9258 0.81641-2.9062 1.1719-5.9219 1.8203-8.8672 0.66406-3 1.5547-5.9375 2.2148-8.9375 0.14453-0.65625-0.78906-0.875-1.1367-0.42578-3.0898 4.5039-5.1523 9.6289-6.0469 15.02-0.44141 2.4141-1.4023 4.707-2.8164 6.7148-0.97656 1.1133-2.0859 2.1055-3.3008 2.957l-0.015625-0.17578c-0.41797-4.5586-0.85938-9.1133-1.2266-13.676-0.1875-2.332-0.34375-4.6641-0.46875-6.9961-0.14062-2.5859-0.51953-5.2148-0.45312-7.7969 0.023437-0.875-1.3359-1.0156-1.3594-0.13672-0.058594 2.2305-0.44531 4.4414-0.58203 6.668-0.14062 2.2266-0.21094 4.457-0.26953 6.6836-0.11719 4.293-0.125 8.5938 0.082031 12.883v-0.003906c0.070313 4.1836 0.50781 8.3555 1.3125 12.465 1.1445 3.8047 2.5312 7.5273 4.1523 11.152 2.4414 6.5586 3.7656 13.473 6.0273 20.09 1.0977 3.3398 2.5625 6.543 4.375 9.5508 1.7031 2.7578 3.9023 6.2812 7.1875 7.2539v0.003906c1.9961 0.39063 4.0469 0.43359 6.0586 0.125 2.3555-0.09375 4.7148 0.097657 7.0273 0.57031 4.6406 0.88672 9.0039 3.2344 13.703 3.7305v0.003906c0.58203 0.039062 1.1172-0.30859 1.3203-0.85156 0.20312-0.54297 0.023437-1.1562-0.4375-1.5078z"/>
  <path d="m533.76 490.25c-2.9102-0.1875-5.6758-1.3086-7.8945-3.1992-2.7148-1.6836-5.8203-2.6445-9.0117-2.7891-1.1055-0.042968-3.0156 0.38281-4.0117-0.20312-0.54297-0.31641-0.60938-0.875-0.74609-1.457-0.24609-1.0586-0.45312-2.1328-0.69531-3.1953l-2.4531-10.852h0.007813c-1.8164-7.2188-3.2422-14.531-4.2695-21.906-0.54297-7-0.42969-14.035 0.33984-21.012 0.95312-7.5234-0.25-15.164-3.4688-22.027-0.31641-0.60156-1.4414-0.38281-1.2266 0.36328v-0.003906c1.5469 7.1914 1.7734 14.605 0.66797 21.879-0.86328 7.4453-0.96484 14.961-0.29688 22.426 1.168 7.9023 2.7422 15.742 4.7188 23.484 0.86719 3.8242 1.6367 7.6914 2.6367 11.484 0.44531 3.0508 3.1914 5.2305 6.2656 4.9648 1.8984-0.097656 3.8047 0.066406 5.6602 0.48047 1.7695 0.55469 3.4453 1.3711 4.9727 2.4219 2.8633 1.793 6.3125 3.8906 9.6953 2.168 0.70312-0.34375 1.0547-1.1445 0.83594-1.8906-0.22266-0.75-0.95312-1.2305-1.7266-1.1367z"/>
  <path d="m523.09 494.07c-2.6562-0.78125-5.3516-1.418-8.0742-1.9023-1.2812-0.25781-2.5664-0.48437-3.8477-0.72266v0.003906c-1.1445-0.082031-2.2539-0.43359-3.2422-1.0195-1.5-1.7148-2.5742-3.7539-3.1367-5.9609-1.0586-2.5117-2.1016-5.0273-3.1875-7.5273-2.125-4.8906-4.3047-9.7578-6.3867-14.664v-0.003907c-2.4219-4.8398-4.0234-10.051-4.7266-15.418-0.054687-0.95312-1.5-0.70703-1.457 0.23047h-0.003906c0.011718 2.9219 0.21484 5.8398 0.60156 8.7344 0.50391 2.8242 1.2227 5.6055 2.1523 8.3203 1.8398 5.4609 4.1992 10.781 6.4727 16.07 1.1641 2.7031 2.3359 5.4023 3.5195 8.0977 0.73828 2.1406 2.0273 4.0508 3.7383 5.5312 2.4062 1.3086 5.0742 2.0625 7.8086 2.2109 2.9805 0.58984 5.9961 1 9.0273 1.2227 1.7969 0.089844 2.6133-2.6055 0.74219-3.2031z"/>
  <path d="m443.11 419.53c-2.4688 4.4531-6.9375 7.4453-12 8.0234-5.8984 0.28906-11.727-1.3633-16.594-4.707-4.4609-3.3672-9.8672-5.2461-15.457-5.3789-5.6602 1.1133-10.773 4.1172-14.5 8.5234l-0.097656 0.12891c-0.41406-0.52734-0.87891-1.0117-1.3867-1.4453-2.9258-1.9648-5.9805-3.7305-9.1445-5.2773-0.32812-0.22266-0.77344-0.14063-1 0.18359-0.23047 0.32031-0.16016 0.76562 0.15625 1.0039 1.4102 1.1836 2.6094 2.707 4 3.9414 1.3203 1.1758 2.8008 2.2578 4.0078 3.5469 1.707 1.8242 2.4258 5.207 5.4688 5.0156h-0.003906c0.46484-0.078125 0.86328-0.36328 1.0898-0.77734 0.22266-0.41016 0.24609-0.90234 0.0625-1.3359-0.53125-1.043-1.1758-2.0273-1.9219-2.9336l-0.68359-1.0469 0.054687-0.023438c4.8711-3.5195 10.77-5.3281 16.773-5.1367 5.6719 2.0078 11.09 4.6641 16.145 7.9219 5.5156 2.6055 11.801 3.0859 17.645 1.3477 5.0273-1.5977 8.7539-5.8516 9.6758-11.047 0.17969-1.4414-1.707-1.6328-2.2891-0.52734z"/>
  <path d="m484.77 390.66c-1.1211 0.015625-2.2422 0.097656-3.3555 0.25-1.1172 0.007813-2.2227-0.21875-3.2422-0.66797-0.92578-0.30859-1.6797-0.98047-2.0977-1.8633-0.27344-0.91016 0.37891-1.4531 0.73828-2.1836 0.11719-0.33203-0.050781-0.69922-0.37891-0.82812-1.25-0.5625-2.4453 0.64453-2.9023 1.7344h-0.003906c-0.56641 1.5586-0.17188 3.3047 1.0156 4.4688 0.44922 0.47656 0.96484 0.88281 1.5312 1.2109-0.72656 0.61328-1.5078 1.1641-2.332 1.6367-1.2695 0.65234-2.5898 1.2031-3.9492 1.6406-9.5625 2.8359-17.641 9.293-22.516 18-0.13672 0.20703-0.10547 0.48047 0.078125 0.65234 0.18359 0.16797 0.46094 0.18359 0.65625 0.03125 4.9961-4.5312 10.383-8.6133 16.094-12.203 2.6953-1.4336 5.6289-2.2461 8.3984-3.5h-0.003906c2.8008-0.92969 5.2773-2.6406 7.1328-4.9297 2.0156 0.55859 4.1758 0.13672 5.832-1.1406 0.39062-0.34375 0.54688-0.88281 0.39844-1.3789-0.15234-0.49609-0.57812-0.85938-1.0938-0.92969z"/>
  <path d="m508.11 388.56c-1.8125 1.1445-3.7148 2.1445-5.6836 2.9883-2.332 0.81641-4.7695 1.207-7.082 2.0977v0.003906c-0.17969 0.082031-0.28906 0.26172-0.28125 0.45703 0.003906 0.19531 0.125 0.37109 0.30859 0.44141 1.4492 0.42188 2.9531 0.625 4.4648 0.60156-1.9883 2.8203-3.6875 5.832-5.0664 8.9922-1.6094 3.4727-3.4414 6.8398-5.4844 10.074-0.18359 0.27344-0.14062 0.64062 0.10156 0.86719 0.24219 0.22656 0.61328 0.24219 0.875 0.042968 3.1445-2.293 5.7148-5.2812 7.5195-8.7305 2.3516-3.5547 4.1055-7.4648 5.1992-11.582 2.9219-0.35156 5.375-2.3633 6.293-5.1602 0.16797-0.64844-0.44141-1.4844-1.1641-1.0938z"/>
  <path d="m494.5 360.56c-1.957-2.3828-4.5625-4.1484-7.4961-5.0898-2.9375-0.94141-6.0859-1.0156-9.0625-0.21484-6.4492 1.2812-12.242 4.7852-16.375 9.8984-7.7695 12.73-13.48 26.609-16.918 41.121-1.3711 3.4648-3.0938 6.7812-5.1484 9.8906-1.1289 1.6289-2.4297 3.1367-3.8789 4.4961-1.418 1.4531-3.0078 2.7305-4.7344 3.8008-0.50391 0.27344-0.16016 1.0859 0.36328 0.82422v-0.003906c1.3359-0.5625 2.6367-1.2109 3.8945-1.9297 1.375-0.89844 2.6719-1.9141 3.8672-3.0391 2.3359-2.1562 4.418-4.5703 6.207-7.1914 3.7031-6.0859 6.4922-12.684 8.2812-19.578 3.6719-12.016 8.1289-27.52 20.941-32.855 1.0742-0.44531 2.1914-0.79297 3.3281-1.0391-0.72266 0.53125-1.4102 1.0898-2.0469 1.6523h0.003907c-3.1445 3.0078-5.5547 6.7031-7.043 10.793-1.7539 4.2383-2.9609 8.6836-4.4141 13.027-0.71484 2.1406-1.4414 4.2812-2.3203 6.3672-0.84375 2.3008-2.0742 4.4375-3.6328 6.332-0.51953 0.55078 0.17969 1.4844 0.76953 0.94141v-0.003907c1.5703-1.3086 3.0312-2.7383 4.3711-4.2812 1.2617-1.6211 2.375-3.3516 3.3203-5.1758 1.8672-3.9805 3.4531-8.0859 4.7422-12.289 1.3594-3.9766 3.2656-7.7461 5.668-11.195 1.043-1.5742 2.3125-2.9883 3.7617-4.1953 1.2188-0.87109 2.5234-1.6133 3.8984-2.2109-1.5195 1.6094-2.7891 3.4375-3.7656 5.4219-1.2266 2.2773-2.3906 4.5352-3.4219 6.9102h0.003907c-1.2812 2.3477-2.3047 4.8281-3.0547 7.3984-0.019531 0.24609 0.10547 0.48438 0.32812 0.60156 0.21875 0.11719 0.48438 0.09375 0.67969-0.0625 1.4453-1.582 2.707-3.3203 3.7617-5.1875 1.293-1.9141 2.6094-3.7852 3.7578-5.793 0.99219-1.7344 1.9062-3.5508 3.0156-5.2148v0.003906c0.77734-1.2539 1.7891-2.3477 2.9805-3.2188 1.4883 0.45703 2.9336 1.043 4.3242 1.75 0.90234 0.46094 1.5156-0.78906 1.043-1.4609z"/>
  <path d="m495.54 372.88c-1.4023 0.95703-2.8984 1.7461-4.293 2.7031-0.32422 0.22266-0.10547 0.69141 0.22656 0.74609v0.003907c1.9844 0.21875 3.9648-0.42969 5.4375-1.7812 0.42969-0.38672 0.47656-1.0391 0.11328-1.4883-0.36719-0.44531-1.0195-0.52734-1.4844-0.18359z"/>
  <path d="m494.11 367.89c-1.5156-0.44531-3.0625 0.72266-4.1406 1.7031v-0.003906c-1.1406 0.85156-1.9688 2.0625-2.3398 3.4375-0.015625 0.15625 0.054688 0.30859 0.17969 0.39844 0.12891 0.09375 0.29297 0.10938 0.4375 0.050781 1.0781-0.57812 2.1289-1.2148 3.1445-1.9023 1.0469-0.53906 2.6211-0.86719 3.2695-1.9062 0.20312-0.29687 0.26172-0.67578 0.15625-1.0234-0.10938-0.34375-0.36719-0.625-0.70703-0.75391z"/>
  <path d="m506.14 372.61c-0.99219-0.71094-2.0625-1.3047-3.1914-1.7617-1.5156-0.72266-2.2344-1.0078-2.8008-2.6758-0.60547-1.8203-1.7773-3.4023-3.3438-4.5117-0.32031-0.26172-0.72656 0.21094-0.48438 0.51953l0.003906-0.003907c0.85156 1.2266 1.4297 2.6172 1.6992 4.0859 0.11328 1 0.46094 1.957 1.0234 2.7969 0.71484 0.70312 1.5664 1.2539 2.5078 1.6133 1.2422 0.70703 2.5625 1.2656 3.9375 1.6602 1.0078 0.23438 1.3047-1.1914 0.64844-1.7227z"/>
  <path d="m506.02 377.39c-0.66406 0.70703-1.2578 1.4727-1.9219 2.1797l-0.96094 1.0078c-0.26562 0.25781-0.60547 0.87891-0.89844 1.0586-0.25 0.125-0.35547 0.41797-0.24219 0.67188 0.10938 0.25391 0.40234 0.37109 0.66016 0.27344 0.4375-0.17578 0.9375-0.078126 1.3945-0.25781h-0.003907c0.56641-0.21875 1.1055-0.50781 1.6055-0.85156 0.98828-0.67969 1.7969-1.5938 2.3555-2.6562 0.5625-1.0898-1.1445-2.3203-1.9883-1.4258z"/>
  <path d="m364.81 434.22c-0.63281-0.97266-1.3594-1.8789-2.1758-2.7031-1.082-0.79297-1.9297-1.8555-2.4609-3.0859-0.17188-0.36328-0.5625-0.56641-0.95703-0.50391-0.39453 0.0625-0.70312 0.37891-0.75391 0.77734 0.23047 2.2109 1.1484 4.2891 2.6289 5.9453 0.75781 1.0586 1.4531 2.1602 2.0781 3.3008 0.48047 1.2031 1.1211 2.3359 1.9062 3.3672 0.75 0.78125 2.4844 0.57813 2.4844-0.75h0.003906c-0.29688-2.3359-1.25-4.5352-2.7539-6.3477z"/>
  <path d="m381.71 439.36c-0.66016-1.043-1.6211-1.8633-2.7539-2.3477-1.2812-0.70703-2.5352-1.457-3.7969-2.1953-2.4297-1.4219-4.8008-2.9531-7.1523-4.4961h-0.003906c-0.32422-0.21094-0.75781-0.16016-1.0234 0.125-0.26562 0.28125-0.28516 0.71875-0.046874 1.0273 1.6992 2.4102 3.7539 4.5508 6.0938 6.3516 1.9141 1.4844 5.0547 3.9492 7.6211 3.4766 0.42578-0.074219 0.79688-0.33594 1.0039-0.71484 0.20312-0.37891 0.22656-0.83203 0.058593-1.2266z"/>
  <path d="m385.14 438.02c-1.582-2.2969-3.4648-4.3711-5.5977-6.168-1.9766-1.9648-3.9297-3.9961-6.043-5.8125-0.63672-0.54688-1.6367 0.3125-1.2695 1.0352v0.003907c1.3594 2.5547 3.0508 4.9141 5.0391 7.0195 1.7617 2.2344 3.9961 4.0547 6.5391 5.3359 0.79297 0.30859 1.7891-0.60547 1.332-1.4141z"/>
  <path d="m401.73 356.52c-0.22656 0.59375-0.69141 1.0664-0.9375 1.6719l-0.66797 1.7773-1.5742 4.1445c-0.97266 2.5977-2.1289 5.1211-3.4609 7.5547-0.70703 1.25-1.5117 2.4414-2.1445 3.7266-0.47656 1.2383-0.75 2.5469-0.80469 3.8711-0.28125 1.3789-0.63672 2.7422-1.0664 4.082-0.37891 1.4102-0.69141 2.8789-1.1914 4.2539-1.1289 2.4023-2.5117 4.6758-4.1211 6.7852-1.5234 2.3359-2.7266 4.8594-3.5742 7.5156-0.76953 2.5195-1.2031 5.1289-1.2852 7.7656-0.11719 1.4141 0.007812 2.8359 0.35938 4.2109 0.46484 1.2969 1.0508 2.5469 1.7539 3.7305 0.52734 0.9375 2.207 0.92969 2.2578-0.35938 0.027344-0.67969-0.039063-1.3594 0.046875-2.0312 0.089843-0.6875 0.32031-1.3477 0.375-2.043 0.09375-1.1992-0.0625-2.4297-0.019531-3.6367l0.003906-0.003906c0.089844-2.6367 0.58594-5.2422 1.4766-7.7266 0.65234-1.8125 1.4805-3.5469 2.2461-5.3086v-0.003906c0.30859 2.6133 0.99219 5.168 2.0273 7.5859 1.7266 4.9453 4.8672 9.2734 9.0391 12.445 0.33984 0.22266 0.78906 0.19922 1.1055-0.058594 0.3125-0.25781 0.42578-0.69141 0.27344-1.0703-0.68359-2.2695-1.6602-4.4414-2.9102-6.457-1.2227-1.9531-2.3438-3.9688-3.3555-6.043-1.0312-2.1445-1.9297-4.3555-2.6836-6.6133-0.64062-1.7188-1.1484-3.4844-1.5234-5.2773l1.1172-3.7773v-0.003907c0.42578-2.793 1.4883-5.4492 3.1133-7.7656 1.6641-2.0664 2.9336-4.4258 3.7539-6.9531 1.0234-2.5508 1.8594-5.1719 2.5039-7.8438 0.28906-1.1523 0.55078-2.3086 0.76953-3.4766l0.33594-1.8477c0.14453-0.83984 0.003906-1.6992 0.13672-2.5039 0.12891-0.80469-1.0898-1.0586-1.375-0.31641z"/>
  <path d="m417.78 419.8c-1.6172-5.2539-3.5039-10.422-5.6523-15.484-1.8867-5.2344-3.1875-10.66-3.8789-16.184 0.77734-11.109 0.96484-22.258 0.55859-33.391-0.61328-2.6875-1.5234-5.3008-2.7148-7.7891-1.3828-2.5352-2.9727-4.9492-4.7617-7.2148-0.40234-0.58203-1.2031 0.10938-0.83984 0.6875h-0.003907c1.2812 2.332 2.2812 4.8047 2.9727 7.375 0.78906 2.4492 1.3672 4.9648 1.7383 7.5117 0.67578 5.4062 0.58984 10.883-0.25391 16.266-0.85156 5.4766-1.0859 11.031-0.69531 16.559 0.61328 5.4492 1.8477 10.812 3.6797 15.977 1.7305 5.8945 4.2031 11.539 7.3594 16.805 0.41016 0.48047 1.0898 0.62891 1.6641 0.37109 0.57422-0.25781 0.91406-0.86328 0.82812-1.4883z"/>
  <path d="m376.72 317.08c-0.30859-0.34375-0.76172-0.52734-1.2227-0.49609s-0.88281 0.26953-1.1484 0.64844c-0.78516 1.1133-1.0273 2.4883-1.8828 3.5547-1.0859 1.1602-2.4375 2.0391-3.9414 2.5664-1.5898 0.69922-3.2227 1.293-4.7852 2.0664-1.7812 0.88281-3.375 2.0586-5.1562 2.9414v0.003906c-0.22656 0.11719-0.33594 0.38672-0.25781 0.62891 0.082031 0.24609 0.32812 0.39844 0.58203 0.35937 2.3672-0.48047 4.7695-0.55078 7.125-1.1328 2.1641-0.45312 4.2773-1.1445 6.293-2.0586 2.9453-1.4727 7.2578-5.6641 4.3945-9.082z"/>
  <path d="m401.23 337.79c-2.8984 3.1016-7.7383 0.60547-10.723-1.2148l0.003907-0.003906c-1.4961-0.92969-2.8672-2.0508-4.0703-3.3359-1.2188-1.2734-2.1523-2.8359-3.418-4.0508-0.11719-0.125-0.29688-0.16797-0.46094-0.11719-0.16016 0.054688-0.27734 0.19922-0.29688 0.37109 0.56641 4.3438 3.125 8.1797 6.918 10.371-0.49609 0.83984-0.88672 1.7344-1.1641 2.668-0.33984 1.0547-0.53516 2.1484-0.57812 3.2539 0.058594 1.2461 0.26953 2.4766 0.62891 3.6719 0.054688 0.25 0.28516 0.42578 0.54297 0.41406 0.25781-0.011719 0.46875-0.21094 0.49609-0.46875 0.50391-2.0312 1.3008-3.9805 2.3633-5.7852 0.34375-0.65234 0.83594-1.3086 1.2539-1.9883h0.003907c3.4492 1.6719 7.6094 0.47266 9.6406-2.7812 0.41016-0.70312-0.50781-1.6758-1.1406-1.0039z"/>
  <path d="m417.45 295.1c-1.8516-4.875-5.2578-9-9.6914-11.742-4.1523-2.4961-9.0312-3.5078-13.836-2.8672-4.8008 0.64453-9.2461 2.8984-12.594 6.4023-2.1562 2.5742-3.6367 5.6484-4.3086 8.9414-0.45312 2.8438-0.59375 5.7266-0.41797 8.6016-2.4336 2.5586-0.83984 8.5273 1.2383 10.766v0.003906c0.36719 0.39062 0.94922 0.5 1.4336 0.26562s0.76172-0.75781 0.67969-1.293c-0.11719-1.1094-0.40625-2.1953-0.50391-3.3086-0.046874-0.55859-0.29687-3.1758 0.10547-3.5391 1.0234-0.9375 3.6836 1.2734 4.0039 2.2656 0.30078 0.93359 1.7617 1.0508 1.8477-0.097656v0.003906c0.19141-1.8281-0.51953-3.6367-1.8984-4.8477-1.3828-1.2148-3.2656-1.6836-5.0547-1.2617 0.39844-1.5938 0.88281-3.168 1.4531-4.707 0.78516-2.4961 1.8828-4.8828 3.2656-7.1055 2.2266-3.3164 5.6875-5.6016 9.6094-6.3438 6.0391-1.1875 12.254 0.89062 16.367 5.4648-1.3203-0.63672-2.7148-1.1133-4.1484-1.4219-3.6133-0.80078-7.3711-0.67188-10.922 0.375-3.1289 0.89062-5.793 2.957-7.4336 5.7656-0.19531 0.29297-0.11719 0.6875 0.17578 0.88281 0.29297 0.19531 0.6875 0.11719 0.88281-0.17188 2.0117-1.9727 4.6836-3.1289 7.4961-3.25 3.0195-0.53516 6.1172-0.46484 9.1094 0.19922 2.6641 0.66797 5.1406 1.9219 7.2539 3.6758 0.96484 0.78906 1.793 1.7383 2.4453 2.8008l0.023438 0.042968c0.28906 0.85938 0.55469 1.7227 0.79297 2.5742h0.003907c0.42578 1.6328 0.65234 3.3047 0.67969 4.9883l-0.20312-0.10156c-2.8438-0.98047-5.1992 1.1211-7.2617 2.7617-2.7148 2.1602-6.0898-1.6914-8.3047-3.0156v0.003906c-2.6953-1.8398-6.1719-2.0859-9.0977-0.64453-1.3438 0.69531-2.4375 1.7891-3.1289 3.1328-0.50391 1.418-0.69922 2.9258-0.57422 4.4258-0.011719 0.33203 0.23828 0.61328 0.57031 0.64062 0.33203 0.027344 0.625-0.21484 0.66016-0.54688 0.17578-1.3672 1.9844-2.8086 3.0898-3.4727h0.003906c0.99609-0.58203 2.1484-0.85547 3.3047-0.77734 2.8125 0.16797 4.8906 2.7812 7.25 4.0508h-0.003906c2.2773 1.457 5.1289 1.6914 7.6133 0.62891 1.1953-0.63281 2.2031-1.5664 2.9297-2.707 0.76563-1.1367 1.3359-2.4492 2.8164-2.7148l0.37891-0.16797 0.019531 0.88281c-0.027344 0.57422 0.36719 1.082 0.92969 1.1992 0.5625 0.12109 1.125-0.1875 1.332-0.72656 1.543-4.875 1.4062-10.125-0.38281-14.914z"/>
  <path d="m400.66 322.26c-1.4648-0.53906-2.9961-0.88281-4.5547-1.0234-1.625-0.03125-3.2539 0.023438-4.875 0.16406-0.22656-0.007813-0.42578 0.14844-0.47266 0.36719-0.046875 0.22266 0.074219 0.44531 0.28516 0.52734 1.4219 0.8125 2.8828 1.5469 4.3789 2.2031 1.4727 0.51953 3.0078 0.84766 4.5664 0.97266 0.8125 0.035156 1.5352-0.52344 1.7031-1.3203 0.16406-0.79688-0.26953-1.5977-1.0312-1.8906z"/>
  <path d="m414.18 317.58c0.015625-0.34375-0.17188-0.66406-0.48047-0.81641-0.30859-0.15625-0.67578-0.11328-0.94141 0.10547-1.082 1.1055-1.918 2.4258-2.4492 3.8789-0.66016 1.2852-2.5586 1.293-3.8906 1.5508-0.76953 0.14844-0.95703 1.3906-0.12109 1.6016 0.59375 0.15625 1.1953 0.26953 1.8047 0.34375-0.50391 0.039062-1.0117 0.058594-1.5156 0.050781-0.36719-0.015625-0.67969 0.26172-0.70703 0.62891-0.03125 0.36719 0.23438 0.69141 0.60156 0.73438 1.1445 0.10547 2.3008 0.042969 3.4258-0.1875 0.28516-0.0625 0.50781-0.29297 0.55469-0.58203s-0.089844-0.57812-0.33984-0.72656c0.57422-0.13281 1.1055-0.41406 1.5352-0.82422 1.2422-1.7188 2.1016-3.6836 2.5234-5.7617z"/>
  <path d="m406.18 327.53c-0.058594-0.30078-0.29297-0.53516-0.58984-0.59375-0.30078-0.0625-0.60547 0.058594-0.78125 0.30859-0.26562 0.52344-0.5 1.0625-0.70703 1.6094-0.19531 0.68359-0.44141 1.3477-0.73047 1.9961-0.34375 0.58594-1.5547 0.70703-2.2266 0.82813-0.28125 0.0625-0.45703 0.33594-0.40625 0.61719 0.050781 0.28125 0.31641 0.47266 0.59766 0.43359 0.66016-0.082031 1.4219 0.65625 2.125 0.6875 0.66406 0.011719 1.2969-0.28125 1.7148-0.80078 0.90625-1.5312 1.2617-3.3281 1.0039-5.0859z"/>
  <path d="m403.67 334.59c-0.99219-0.11328-1.9961-0.003906-2.9375 0.32422-1 0.1875-2.0117-0.054688-3.0195 0.09375-0.21484 0.046875-0.37891 0.21484-0.42578 0.42578-0.042968 0.21484 0.042969 0.43359 0.22266 0.5625 0.95703 0.55859 2.0391 0.875 3.1484 0.92188 1.1367 0.35156 2.3672 0.19922 3.3867-0.41406 0.29688-0.26953 0.43359-0.67187 0.35547-1.0625-0.074219-0.39453-0.35156-0.71875-0.73047-0.85156z"/>
  <path d="m397.67 325.85c-0.72656-0.34766-1.5156-0.55469-2.3203-0.60547l-2.6445-0.42578c-0.80859-0.12891-0.91406 1.0078-0.27344 1.3047 1.4961 0.87891 3.2227 1.2695 4.9492 1.1172 0.58984-0.15234 0.91406-1.0352 0.28906-1.3906z"/>
 </g>
</svg>