<?xml version="1.0" encoding="UTF-8"?>
<!-- Uploaded to: ICON Repo, www.iconrepo.com, Generator: ICON Repo Mixer Tools -->
<svg fill="#000000" width="800px" height="800px" version="1.1" viewBox="144 144 512 512" xmlns="http://www.w3.org/2000/svg">
 <g>
  <path d="m332.02 334.34c-0.058593-0.73438-1.1836-0.55078-1.1289 0.17969 0.17969 2.2812-2.3789 4.6797-4.0977 5.7891h0.003906c-1.7969 1.043-3.6836 1.9258-5.6328 2.6445-2.0781 0.71875-4.0312 1.7461-5.8008 3.0469-1.4336 1.3633-2.6992 2.8906-3.7695 4.5469-2.5352 3.0859-4.3008 6.7305-5.1523 10.633-0.40625 2.2305-0.48438 4.5039-0.23047 6.7578 0.39062 2.4102 1.0117 4.7773 1.8633 7.0664 0.17969 0.38281 0.58984 0.59766 1.0039 0.53125 0.41797-0.066406 0.74219-0.39844 0.79297-0.81641 0.007812-2.3945 0.30078-4.8789 0.47656-7.2852 0.09375-2.332 0.32422-4.6602 0.69531-6.9648 0.1875-4.3945 2.5078-8.418 6.2148-10.781 3.9219-1.5938 7.6562-3.6211 11.125-6.0469 1.3398-1.1367 2.4297-2.5352 3.207-4.1133 0.63281-1.6523 0.78125-3.4531 0.42969-5.1875z"/>
  <path d="m307.74 380.09c-1.0547 3.3555-2.4688 6.5781-3.4844 9.9609-1.0234 3.4219-2.1094 6.8555-2.8047 10.359h0.003906c-1.3555 7.1016-2.3477 14.27-2.9766 21.473-0.68359 7.1953-0.85937 14.441-0.99609 21.664-0.050781 2.6016 0.87109 6.957-2.0391 8.2109-2.543 0.71484-5.0391 1.5742-7.4805 2.5703-2.4922 1.418-4.625 3.4375-7.0508 4.9844-2.5977 1.543-5.4531 2.6016-8.4258 3.125-0.46094 0.085938-0.80859 0.46484-0.85547 0.92969-0.042968 0.46484 0.22266 0.90625 0.65234 1.082 5.2227 2.2227 10.121-2.7383 14.363-4.9727h0.003907c2.5312-1.3789 5.2031-2.4805 7.9688-3.2852 2.625-0.39453 4.918-1.9805 6.2148-4.2969 0.89062-3.3828 1.1719-6.9023 0.83594-10.387 0.14453-3.957 0.42188-7.8867 0.83984-11.824 0.82031-7.7383 1.582-15.449 2.7305-23.148 0.64453-4.3125 1.2539-8.6055 1.7617-12.938 0.51953-4.3828 0.82031-8.9688 1.6562-13.293 0.10938-0.53125-0.75391-0.73047-0.91797-0.21484z"/>
  <path d="m341.07 421.32c-1.5938 0.4375-3.168 0.81641-4.7148 1.2656 0.61719-4.3789 0.24609-8.8359-1.0781-13.055-1.1719-4.1094-2.5391-8.1523-3.6055-12.293-0.53906-2.1016-1.0547-4.2109-1.5742-6.3203-0.36328-1.4648-0.97266-2.9102-1.4453-4.3672 0.39844-2.4766 0.64453-4.9766 1.1992-7.4375 0.78516-3.4766 1.6758-6.8594 2.207-10.391 0.17969-1.1992-1.5859-1.5469-2.0195-0.46875-1.2461 3.3281-2.2891 6.7266-3.1289 10.18-0.82812 3.0781-2.1484 6.0156-2.875 9.1055-0.80469 3.4336-1.2656 6.9336-2.0469 10.379-0.73828 3.2539-1.7812 6.4102-2.5195 9.6641-1.4766 6.5195-1.8828 13.086-2.832 19.68-0.42188 2.9375-1.0352 5.8438-1.6367 8.7461v-0.003907c-0.46094 1.9219-1.0859 3.7969-1.8594 5.6133-1.1797 1.8008-2.2773 3.6523-3.2852 5.5234-1.2383 2.293-2.3633 4.6367-3.4062 7.0195l-0.45312 0.35156c-2.5859 3.6797-6.1797 6.5352-10.344 8.2227-1.9297 0.63281-3.9609 0.76562-5.8633 1.5195-1.8672 0.80859-3.6094 1.8711-5.1758 3.1641-0.4375 0.33594 0.089844 0.94141 0.53125 0.64844 2.1992-1.457 5.043-0.60547 7.5273-0.69922 2.2422-0.035156 4.4531-0.53906 6.4883-1.4805 1.5234-0.76562 2.8672-1.8477 3.9414-3.1758-0.65625 1.8867-1.2734 3.7891-1.8477 5.707v0.003906c-3.0781 7.4531-3.5938 15.715-1.4727 23.496 0.625 1.5312 3.332 1.2461 3.3242-0.53125-0.16797-3.7188-0.003907-7.4414 0.49609-11.129 0.66797-3.7773 1.582-7.5039 2.7383-11.16 1.9805-6.6875 4.6133-13.164 7.8633-19.336 3.0977-5.7422 7.0352-10.992 11.68-15.578 2.2188-2.1523 4.5742-4.1719 7.043-6.0391 2.5977-2.1719 5.4805-3.9844 8.5664-5.3867 0.78516-0.30859 0.41406-1.668-0.42188-1.4375zm-17.836 8.582c-1.3203 1.1328-2.5781 2.3359-3.7695 3.6055 0.47656-1.2383 0.86719-2.5039 1.1719-3.7969 1.5078-6.4609 1.6172-13.168 2.9805-19.676 0.69922-3.3438 1.1133-6.7227 1.8164-10.059 0.35547-1.6914 0.78125-3.3594 1.2227-5.0273l0.019531 0.20312h0.003907c0.45312 3.5938 1.2188 7.1445 2.2812 10.609 0.98437 3.4141 2.0859 6.8047 2.8828 10.27 0.51953 2.2773 1.4961 6.6953-0.73047 8.418l-0.23047 0.25v0.003906c-2.7383 1.4336-5.3047 3.1797-7.6445 5.1992z"/>
  <path d="m416.64 350.42c-1.4961-4.25-7.3203-6.9375-11.184-8.5508v0.003906c-4.8711-1.9062-9.9688-3.1641-15.168-3.7344-5.3477-0.29297-10.602-1.5234-15.527-3.6328-3.832-2.7617-8.5078-4.1016-13.219-3.793-0.23828 0.046875-0.41797 0.24609-0.44141 0.48828-0.027344 0.24219 0.10938 0.46875 0.33594 0.56641 2.2734 0.70703 4.4961 1.5742 6.6484 2.5898 2.0352 1.1523 3.2969 3.0742 5.2266 4.3008 2.0234 0.99609 4.2188 1.5781 6.4688 1.7227 2.7305 0.48047 5.4375 1.043 8.1445 1.6211 4.9609 0.88281 9.8398 2.1758 14.586 3.8672 2.1328 0.82812 4.168 1.8867 6.0664 3.1641 1.75 1.4922 3.6133 2.8398 5.5742 4.0312 1.6641 0.78906 3-1.1875 2.4883-2.6445z"/>
  <path d="m400.53 349.5c-4.7383 1.4062-9.125 3.8047-12.859 7.0391-1.9258 0.44922-3.8711 0.79297-5.8359 1.0234-1.8945 0.17969-3.7617 0.089844-5.6445 0.26562-0.30078-1.6289-0.66016-3.2461-0.97656-4.8594l0.003906 0.003906c-0.09375-0.46875-0.53516-0.78125-1.0078-0.70703-0.46875 0.074219-0.79688 0.50781-0.73828 0.98047 0.45312 3.2891 0.41016 6.625-0.12891 9.8984-0.91797 3.0117-1.5156 6.1133-1.7852 9.25 0.22656 5.6016 0.875 11.176 1.9414 16.68-0.042969 1.4336-0.003906 2.8711 0.097656 4.3125l-0.003906 0.003907c0 2.9766 0.63672 5.9141 1.8672 8.625 0.34766 0.71875 1.1641 1.082 1.9336 0.85547 0.76562-0.22656 1.2539-0.97266 1.1562-1.7656-0.15234-2.6875-0.96484-5.2539-1.2539-7.9297-0.25-2.5195-0.31641-5.0547-0.19531-7.582 0.55078-5.2734 2.2656-10.355 5.0234-14.883 4.4727-8.1797 11.035-15.031 19.012-19.859 0.62109-0.40234 0.11328-1.5586-0.60547-1.3516zm-22.609 19.301c-1.0586 2.0938-1.8633 4.3125-2.3945 6.6016 0.011718-1.2695 0.10156-2.5312 0.27344-3.7852 0.61719-2.9492 0.95312-5.9492 1-8.9609l-0.125-1.5586c1.9844 0.49219 4.0391 0.64062 6.0781 0.43359-1.8633 2.2461-3.4805 4.6836-4.832 7.2695z"/>
  <path d="m462.7 406.08c-0.4375 0.57422-0.58203 1.3047-1.043 1.8828-0.58984 0.67578-1.3203 1.2148-2.1406 1.582-1.1797 0.62109-2.4297 1.1094-3.7188 1.4492-3.1484-0.41406-6.3477-0.21484-9.4219 0.58984-5.0039 1.4062-9.293 4.5547-14.227 6.1875-9.8125 3.0703-20.465 1.9062-29.387-3.2031-0.89453-0.50781-1.7695-1.0508-2.6328-1.6094 2.1328-2.2148 3.7969-4.8398 4.8984-7.7109 1.0117-2.5117 1.75-5.125 2.207-7.7969l0.23047 0.62109c1.6211 4.0273 3.8086 7.8047 6.4961 11.215 2.3516 3.7656 5.5664 6.9141 9.3828 9.1836 1.4102 0.58594 2.3867-0.93359 2.0234-2.1484-1.6133-3.3867-3.7852-6.4727-6.4258-9.1367-2.4023-3.0508-4.4453-6.3711-6.0859-9.8945-1.5508-3.3359-2.5273-6.9102-2.8906-10.574-0.53125-3.9414-0.035157-7.957 1.4336-11.656 0.33203-0.66406-0.80469-1.2773-1.1641-0.61328-0.95703 1.7891-2.1484 3.3945-2.9492 5.2734-0.75781 1.8164-1.2695 3.7266-1.5234 5.6797-0.23047 1.7461-0.25781 3.5117-0.082031 5.2617-0.42969 1.1602-0.86719 2.3164-1.2461 3.4844-0.84766 2.6094-1.7773 5.1953-2.8125 7.7344v0.003907c-0.75781 2.125-1.793 4.1406-3.082 5.9922-0.76953 0.84766-1.5938 1.6367-2.4727 2.3633-2.0273-1.4258-4.1328-2.7344-6.3047-3.9297-0.80469-0.42578-1.6211-0.8125-2.4453-1.1602 0.027344-2.082 0.21094-4.1914 0.09375-6.2539v0.003906c-0.44141-2.9883-0.71875-5.9922-0.83594-9.0078 0.23047-4.5039 4.9844-7.168 8.1484-9.6484 4.0508-3.2539 7.9219-6.7227 11.602-10.391 4.0391-3.3789 7.4805-7.418 10.172-11.945 1.043-2.1797-1.8711-3.6562-3.5156-2.5117-2.1445 1.7539-4.0547 3.7734-5.6875 6.0117-1.8125 2.1211-3.543 4.3047-5.3672 6.4141h-0.003906c-3.7344 4.168-7.875 7.957-12.352 11.312-3.8555 2.3281-6.418 6.3047-6.9492 10.773 0.09375 2.9414 0.49219 5.8633 1.1836 8.7188 0.44922 1.9688 1 3.9102 1.6523 5.8203-4.3398-1.5078-9.0039-1.8398-13.516-0.95703-4.5078 0.88281-8.707 2.9414-12.16 5.9727l-0.007813-0.30859c-0.027343-1.2812-0.17969-2.5547-0.45312-3.8047-0.24219-1.0703-1.168-2.418-1.2812-3.4297-0.10156-0.87109-1.4062-0.64453-1.332 0.21094h-0.003906c-0.14062 0.99219-0.375 1.9727-0.69922 2.9219-0.17578 1.3125-0.28906 2.6289-0.33594 3.9531-0.16406 1.7227-0.17187 3.457-0.027343 5.1836-0.73047 1.0898-1.3711 2.2344-1.9102 3.4297-2.2266 4.4492-2.8438 9.5312-1.75 14.383 1.0938 4.8516 3.8281 9.1797 7.7422 12.246 0.53516 0.39062 1.3164-0.39062 0.81641-0.87891h0.003906c-2.8789-3.1523-4.6992-7.1289-5.207-11.371-0.50781-4.2383 0.32031-8.5312 2.3711-12.277 1.9961-3.9297 5.1289-7.168 8.9922-9.2891 3.8633-2.125 8.2773-3.0352 12.664-2.6133 9.2383 1 15.887 8.5117 24.035 12.223 8.3477 3.5938 17.637 4.3711 26.465 2.207 4.9219-1.5898 9.7344-3.4844 14.418-5.6758 2.6836-0.94141 5.457-1.6133 8.2734-2 2.9727-0.21484 5.9609 0.046875 8.8477 0.77344 1.625 0.27734 1.9727-2.0508 0.61719-2.6719l-0.75-0.31641c2.1211-0.75391 3.7422-2.4805 4.3633-4.6445 0.41797-2.1445-1.5273-3.4805-2.9336-1.6328z"/>
  <path d="m438.06 405.73c-0.25781-3.1172-0.78516-6.2344-1.332-9.3125-1.0938-6.1719-2.3086-12.336-3.793-18.426l-0.003906 0.003906c-1.3477-6.0391-3.0859-11.984-5.1992-17.797-1.4961-3.8711-3.793-9.0625-8.8516-7.4844-0.62891 0.19531-0.28516 1.1328 0.3125 1.0625 3.5898-0.41406 4.332 4.1445 4.8008 6.6797 0.49219 2.6719 1.0859 5.3164 1.707 7.9609 1.2227 5.1719 2.4297 10.344 3.5664 15.531 1.1367 5.1914 2.1055 10.422 3.0898 15.648 0.50391 2.6836 0.96484 5.3711 1.5742 8.0312v0.003906c0.36328 2.3711 1.1172 4.6641 2.2344 6.7852 0.23047 0.27734 0.59375 0.41016 0.94922 0.35156 0.35547-0.058593 0.65234-0.30078 0.78125-0.64062 0.57812-2.7617 0.63281-5.6133 0.16406-8.3984z"/>
  <path d="m421.79 505.53c-5.1094-4.5859-12.75-3.4688-18.871-5.5586l0.003907-0.003906c-7.1562-3.4062-14.801-5.6719-22.66-6.7109-16.414-0.36328-32.664 2.6484-49 3.5703-4.4102 0.24219-8.8281 0.20703-13.234-0.10547-4.4297-0.13672-8.8438-0.59375-13.207-1.3633-0.39844-0.03125-0.76953 0.20703-0.91016 0.58203s-0.015625 0.79688 0.30469 1.0391c6.5312 3.7852 13.973 5.7227 21.52 5.5977 7.7344-0.14453 15.453-0.71094 23.125-1.6953 8.3828-0.89844 16.785-1.5117 25.203-1.9805 4.0859-0.22656 8.2812-0.60547 12.371-0.48438l-0.003907 0.003906c3.8945 0.25781 7.6797 1.3789 11.086 3.2773 3.5078 1.7227 7.2617 2.8867 11.125 3.4492 3.8906 0.19531 7.6602 1.4062 10.938 3.5078 1.9961 1.5273 4.0039-1.5195 2.2109-3.125z"/>
  <path d="m425.34 497.46c-3.1406-2.3164-6.5898-4.1836-10.242-5.5508-1.5547-0.70312-2.9492-1.7227-4.0898-2.9883-1.2227-1.4766-1.9336-3.3008-3.1172-4.8047-2.6484-3.082-6.9219-4.2109-10.746-2.8359-1.9023 0.59375-3.8477 1.043-5.8203 1.3516-2.6211 0.10547-5.2344-0.31641-7.6875-1.2383-4.4062-1.4023-8.7305-2.9805-13.203-4.1641-9.0078-2.4219-18.277-3.7148-27.602-3.8555-3.0781-0.050781-6.1602 0.058594-9.2266 0.33594 3.4961-2.4297 6.5547-5.4297 9.0508-8.875 1.4062-2.2266 3.0195-4.3125 4.8164-6.2344 1.5117-1.375 3.1758-2.5703 4.9609-3.5664 2.832-1.668 8.0234-4.4648 7.4883-8.4297-0.10938-0.63672-0.54297-1.168-1.1445-1.3945-0.60547-0.23047-1.2812-0.125-1.7852 0.27734-1.3008 1.1172-1.8477 2.7266-3.2812 3.8125-1.5039 1.0352-3.1016 1.9297-4.7734 2.6719-1.7656 0.76562-3.4258 1.75-4.9453 2.9336-1.793 1.7344-3.3555 3.6914-4.6562 5.8203-2.5117 3.7266-5.5469 7.0781-9.0117 9.9414-2.1992 1.8711-4.5508 3.5586-7.0273 5.0469-0.95703 0.27734-1.9102 0.57031-2.8477 0.89844-2.5117 0.625-4.8828 1.7148-7 3.2031-0.16406 0.14062-0.22656 0.36328-0.16406 0.56641 0.058594 0.20703 0.23828 0.35547 0.44922 0.38281 1.8125-0.070313 3.6094-0.33594 5.3633-0.79688 2.2422-0.375 4.5039-0.68359 6.7617-0.92578 4.3359-0.46484 8.7031-0.82422 13.066-0.89844 8.6016-0.089843 17.18 0.87891 25.547 2.8789 4.1406 0.96094 8.2344 2.1094 12.27 3.4453 3.9883 1.6562 8.1797 2.7656 12.465 3.293 1.918 0.085937 3.8359-0.11719 5.6914-0.59766 1.9453-0.69141 3.9688-1.1406 6.0234-1.3398 3.5938 0 4.6641 4.8008 6.7812 6.9883 5.3867 5.5664 16.359 5.3633 18.82 13.773 0.066406 0.35547 0.36328 0.625 0.72266 0.66016 0.36328 0.039062 0.70312-0.16797 0.84375-0.50391 1.293-3.3594 0.16406-7.168-2.75-9.2812z"/>
  <path d="m452.37 481.95c-1.2852-1.8086-2.3945-3.7383-3.3164-5.7578-0.76562-2.25-1.3008-4.5742-1.5898-6.9375-0.67969-5.3984-0.74609-10.855-0.20703-16.273 0.21094-2.9492 0.5-5.8789 0.80078-8.8164 0.46094-2.7461 0.50391-5.5508 0.12891-8.3125-0.36719-4.043-3.8281-7.0938-7.8828-6.9531-0.23047 0.042968-0.40625 0.23047-0.42969 0.46484-0.023438 0.23438 0.10938 0.45312 0.32812 0.54297 5.6992 1.8125 4.6914 9 4.0156 13.469l-0.20312 1.4961-0.085938 0.03125h-0.003906c-2.9102 1.8633-6.3281 2.7734-9.7812 2.6133-1.7344-0.32031-3.4023-0.93359-4.9336-1.8125-1.7461-0.73438-3.3359-1.793-4.6875-3.1172-0.46094-0.57813-1.3047 0.12891-0.88281 0.72266 0.38281 0.53516 0.71484 1.0664 1.0352 1.5898v-0.003907c-7.207-1.4688-14.535-2.2734-21.891-2.3984-7.8164-0.19141-15.492-2.0938-22.488-5.5742-0.16406-0.10156-0.37891-0.0625-0.49219 0.097656-0.11328 0.15625-0.078125 0.375 0.074219 0.49609 5.9336 4.8281 13.16 7.793 20.777 8.5273 4.0977 0.50391 8.2305 0.78516 12.371 0.96094 0.52344 0.45312 1.0039 0.96484 1.4922 1.4453 1.4883 1.4805 2.8828 3.0469 4.1758 4.6953 1.5352 1.7422 2.8789 3.6406 4.0078 5.668 1.3047 2.375 1.6914 5.1484 1.0898 7.793-0.12891 0.37109 0.0625 0.77734 0.42969 0.91406s0.77734-0.046875 0.92188-0.41016c0.67578-1.2773 1.1055-2.668 1.2656-4.1016 0.066406-1.3555-0.0625-2.7109-0.38672-4.0234-0.74219-2.8242-1.9844-5.4883-3.668-7.8711-0.90625-1.3789-1.9141-2.6836-3.0234-3.9062 2.3516 0.054688 4.6992 0.097657 7.043 0.14062 0.44141 0.51953 0.94141 0.98438 1.4922 1.3828 1.7695 1.2266 3.7891 2.043 5.918 2.3906 3.375 0.71484 6.8984 0.042968 9.7734-1.8672-0.27344 3.5195-0.35156 7.0547-0.36328 10.586v-0.003906c-0.21484 4.3516 0.22266 8.7148 1.2969 12.934 0.95312 4.0742 3.3281 7.6719 6.7031 10.145 0.58203 0.32813 1.6328-0.21484 1.1758-0.96484z"/>
  <path d="m404.98 463.84c-2.4922-2.3555-5.6094-3.9375-8.9844-4.5586-3.7109-0.87891-7.3633-1.9844-10.941-3.3086-3.4336-1.3906-6.8203-2.9688-10.117-4.6523v-0.003906c-3.6367-1.7188-7.1719-3.6406-10.594-5.7539-0.23438-0.14844-0.54688-0.085938-0.70703 0.14062-0.16016 0.23047-0.11328 0.54297 0.10547 0.71484 3.2656 2.2891 6.1914 5.082 9.4609 7.3906l0.20312 0.14062v0.003906c-2.6914-0.18359-5.3984-0.027344-8.0547 0.45703-1.5469 0.4375-3.1797 0.49609-4.7578 0.16016-1.1016-0.39844-2.2539-0.64453-3.4258-0.73437-2.7266-0.023438-4.0078 1.7266-5.793 3.4492v0.003906c-0.15234 0.13281-0.16797 0.35938-0.042968 0.51563 0.12891 0.15625 0.35547 0.18359 0.51562 0.0625 1.0625-0.83594 2.3125-1.3945 3.6445-1.6289 1.5234-0.15234 2.6328 0.87891 3.9727 1.375 2.207 0.64062 4.5469 0.66406 6.7695 0.070313 2.668-0.48438 5.3789-0.70703 8.0938-0.66406 1.5312 0.039063 3.0859 0.30859 4.6289 0.49609 1.1836 0.67188 2.3945 1.293 3.6406 1.8516l0.003907-0.003907c3.3906 1.4727 6.8984 2.6562 10.492 3.5391 3.5742 1.1289 7.2109 2.0625 10.891 2.793 0.45312 0.035157 0.88672-0.20312 1.1016-0.60156 0.21484-0.40234 0.17188-0.89453-0.10547-1.2539z"/>
  <path d="m421.79 468.78c-3.3164-0.070313-6.543 0.55078-9.8633 0.76562-3.375 0.19922-6.7617 0.16016-10.129-0.11719-6.8906-0.57031-13.727-1.668-20.449-3.2812-6.25-2.0195-12.824-2.832-19.375-2.3945-6.4336 1.5352-12.523 4.2461-17.969 7.9961-0.38672 0.21484-0.13672 0.82812 0.28516 0.64062 6.0586-2.9297 12.668-4.5586 19.395-4.7852 6.7461 0.14844 13.457 1.0586 20 2.707 6.4727 1.6016 13.051 2.7344 19.684 3.3828 6.3594 1.0469 12.883 0.37891 18.898-1.9297 1.2773-0.65625 1.2031-2.9492-0.47656-2.9844z"/>
  <path d="m521.84 476.11c-0.054688-0.41406-0.34375-0.76172-0.74219-0.89453-2.6094-1.0078-5.3047-1.6875-7.9922-2.4453-2.7266-0.76953-5.3711-1.8008-8.0977-2.5703h0.003906c-5.5352-1.25-11.18-1.9766-16.852-2.168-5.6992-0.48828-11.363-1.1133-17.082-1.3594-2.8164-0.17578-5.6445-0.17578-8.4609 0.003906-1.0312 0.085938-2.0586 0.23438-3.082 0.42188 1.4297-2.9336 2.3789-6.0781 2.8125-9.3125 0.67969-3.9375 1.2578-7.9102 1.6953-11.879 0.63281-7.6445 0.70703-15.328 0.21484-22.98-0.027344-0.68359-1.1172-0.62109-1.1758 0.035157-0.69531 7.5586-2.082 15.027-3.0312 22.551-0.46484 3.6953-0.95703 7.3867-1.5625 11.062v-0.003907c-0.78906 3.5703-1.043 7.2422-0.75 10.887-1.3594 0.29688-2.707 0.64062-4.0469 0.97266-0.33984 0.066406-0.58594 0.37109-0.57422 0.72266 0.007812 0.34766 0.26953 0.64062 0.61719 0.68359 2.7422 0.23437 5.4414 0.70703 8.1758 0.94531 2.8945 0.25781 5.8086 0.28125 8.7148 0.41016 5.7109 0.25 11.422 0.52344 17.137 0.82422v0.003906c5.6328-0.019531 11.25 0.60938 16.738 1.8711 4.7539 1.6914 9.6719 2.8789 14.676 3.5352 1.1094 1.125 2.3281 2.1289 3.6367 3.0078 0.28906 0.1875 0.66016 0.19531 0.95312 0.011718 0.29297-0.18359 0.45312-0.51562 0.41406-0.85937-0.13281-1.4844-1.0156-2.7969-2.3398-3.4766z"/>
  <path d="m506.45 483.64c-3.4258-2.5586-7.3867-4.3125-11.582-5.1328-4.0859-1.0703-8.3516-1.2422-12.508-0.49609-4.2148 0.75391-8.207 2.1719-12.332 3.2734-1.9805 0.53125-3.9805 1.0273-5.9961 1.4102h0.003906c-2.1797 0.55469-4.3984 0.94531-6.6328 1.1719-0.38281 0.011718-0.30469 0.5625 0.019531 0.625h-0.003907c1.8906 0.52344 3.832 0.82031 5.7891 0.88281 1.9805-0.066406 3.9492-0.28516 5.8945-0.65625 4.0508-0.74219 8.0625-1.707 12.105-2.4609 3.9336-0.89844 7.9922-1.1172 12-0.65625 4.3984 0.71484 8.0703 3.5273 12.375 4.3477 1.3945 0.26953 1.707-1.5586 0.86719-2.3086z"/>
  <path d="m515.88 489.97c-1.5586-0.26953-3.0586-0.80859-4.4297-1.5898-1.1133-0.83984-1.7461-1.7148-3.2305-1.4375-0.54688 0.10156-0.57422 1.0312 0.027344 1.0156 0.48828-0.011719 0.92969 1.3164 1.1875 1.6797v0.003906c0.50391 0.69531 1.1523 1.2734 1.9023 1.6914 1.3516 0.93359 3.0938 1.0938 4.5977 0.42188 0.34766-0.16406 0.56641-0.52344 0.55469-0.91016s-0.25-0.73047-0.60938-0.875z"/>
  <path d="m521.76 486.96c-1.3789-0.48438-2.082-2.0352-3.5664-2.5352-1.3555-0.33203-2.6641-0.82422-3.9023-1.4727-1.8906-1.3672-4.0508-2.3164-6.332-2.793-0.27734-0.023437-0.52734 0.16016-0.58984 0.42969s0.078124 0.54688 0.33594 0.64844c2.6211 0.83984 4.0195 4.0195 6.5078 5.2734 1.3203 0.66406 2.8398 0.61719 4.168 1.2305 0.94922 0.63281 2.0586 0.97656 3.1992 0.98438 0.40625-0.074219 0.71484-0.40625 0.75391-0.81641 0.042969-0.41016-0.19141-0.79687-0.57422-0.94922z"/>
  <path d="m526.63 484.78c-2.2891-0.98047-4.4531-2.2383-6.4414-3.7383-2.0547-1.0859-4.332-1.6992-6.6562-1.793-0.32031-0.019532-0.59766 0.21484-0.62891 0.53516s0.19531 0.60547 0.51172 0.64844c4.9766 0.60547 7.9414 6.4414 13.043 6.0703 0.39453-0.070312 0.69141-0.39844 0.73437-0.79688 0.039063-0.39844-0.19141-0.77734-0.5625-0.92578z"/>
  <path d="m528.1 475.02c-3.3555-3.7539-7.7891-6.3789-12.695-7.5117-2.5508-0.79297-5.0195-1.7539-7.6406-2.3242-2.9336-0.64062-5.8789-1.2383-8.8203-1.8477-5.8555-1.2188-11.711-2.543-17.664-3.1875-2.6289-0.31641-5.2812-0.42578-7.9297-0.33594-0.79688 0.039062-1.5898 0.11719-2.3789 0.23828 1.7227-8.5234 1.8672-17.293 0.42188-25.871-0.082031-0.75-1.3516-0.73438-1.3398 0.039062 0.15234 8.5586-1.6562 17.004-2.207 25.52h0.003906c-0.023437 0.30859 0.054688 0.61719 0.21875 0.87891l-3.6797 0.87891 0.003906-0.003906c-0.22656 0.042968-0.375 0.25391-0.33984 0.48047 0.035157 0.22266 0.24219 0.37891 0.46875 0.35156 5.5-0.51953 11.043-0.22266 16.453 0.88281 5.5039 0.83203 10.953 2.0508 16.41 3.1406l8.1992 1.6211c2.5312 0.5 5.168 0.79297 7.6562 1.4609h0.003907c2.5 0.75391 4.8789 1.8555 7.0742 3.2773 2.0898 1.2656 3.8906 3.0469 6.0117 4.2148h-0.003906c0.53906 0.34766 1.2461 0.26172 1.6836-0.20703s0.47656-1.1836 0.089844-1.6953z"/>
  <path d="m354.75 367.17c-0.10938-0.23828-0.35547-0.39062-0.61719-0.38281-0.26562 0.007813-0.5 0.17188-0.59375 0.42188-0.56641 2.3828-0.99219 4.7578-1.4336 7.168-0.36719 1.9883-1.3281 3.7812-1.6641 5.7305v-0.003907c-0.050781 0.60938 0.21875 1.1992 0.71484 1.5586s1.1406 0.43359 1.7031 0.19531c4.8672-1.9102 3.0273-11.055 1.8906-14.688z"/>
  <path d="m362.64 300.58c-0.85547-3.1289-2.9141-5.793-5.7227-7.4141-6.0898-2.6836-12.961-3-19.27-0.89062-3.0195 0.54297-5.8867 1.7227-8.4102 3.4648-2.5977 1.9805-4.4062 4.8242-5.0977 8.0156-1.418 7.5859 0.41406 15.414 5.0508 21.582 0.27734 0.35937 0.96094 0.089843 0.84375-0.37891l-0.003906 0.003907c-1.8242-6.0156-2.4883-12.32-1.9609-18.582 1.0703-5.3945 5.3438-9.5781 10.762-10.527 5.2188-1.832 10.953-1.5039 15.934 0.90625 2.1484 1.5 3.832 3.5703 4.8672 5.9766 1.0234 2.5 1.1211 5.2383 1.9609 7.793 0.40625 1.2422 1.9961 0.625 2.2148-0.35156h0.003906c0.45703-3.2461 0.054688-6.5586-1.1719-9.5977z"/>
  <path d="m358.42 331.1-0.023437-0.20312v0.003906c0.45312-2.1328 0.78125-4.293 0.97656-6.4648 0.023438-0.21875-0.13672-0.41406-0.35547-0.4375-0.21875-0.019531-0.41406 0.14062-0.43359 0.35938-0.25781 1.8164-0.65234 3.6133-1.1797 5.375-0.62891 1.4219-1.4414 2.7578-2.4219 3.9648-0.93359 1.3359-2.0117 2.5625-3.2227 3.6602-1.4805 0.41406-3.0078 0.66406-4.5469 0.74219-1.7422-0.019531-3.4648-0.39062-5.0625-1.0859-1.4688-1.0977-2.75-2.4336-3.7812-3.9492-1.4883-1.5898-2.8047-3.3281-3.9297-5.1914-0.082031-0.16016-0.27344-0.23047-0.44141-0.15625-0.16406 0.074219-0.24219 0.26172-0.17969 0.42969 1.5117 4.3281 2.8047 10.766 7.7305 12.559 2.7617 1.0078 9.2422 2.0703 11.371-0.86328h0.003906c0.39062-0.085938 0.77344-0.21875 1.1367-0.39062l0.027344-0.015625c-0.96094 2.4492-1.4883 5.0469-1.5625 7.6797-0.011719 0.84766 1.1797 1.5195 1.7031 0.63672 2.0742-3.957 3.2969-8.3047 3.5898-12.762 0.23438-0.96875 0.38281-1.957 0.44141-2.9492z"/>
  <path d="m357.64 307.2c-2.2812-2.2383-5.4531-3.3242-8.625-2.957-1.5195 0.35156-2.8398 1.1367-4.4062 1.3438-1.6016 0.36328-3.2461 0.45703-4.8789 0.28125-0.55469-2.2148-2.0547-4.5273-3.8906-4.8125-0.58203-0.054688-1.1055 0.37109-1.168 0.95703-0.089844 1.3164 0.66797 2.0938 1.1328 3.2891 0.75391 1.9492 0.039063 2.7188-1.043 4.2188v-0.003907c-1.4414 2.5664-2.625 5.2734-3.5312 8.0742-0.28516 0.61328 0.69922 0.97656 0.98438 0.36719v-0.003907c1.1953-1.9648 2.7148-3.7188 4.4922-5.1836 1.3906-1.0859 2.4727-2.5156 3.1406-4.1484l0.089844-0.54688v-0.003906c1.6406 0.83984 3.4805 1.2148 5.3203 1.0898 1.9141-0.035156 3.5195-1.0742 5.3906-1.2734 2.1758-0.089844 4.3516 0.16016 6.4531 0.74219 0.82422 0.17578 1.1094-0.99219 0.53906-1.4297z"/>
  <path d="m499.22 383.7c-0.22656-1.2812-0.60938-2.5273-1.1406-3.7109-1.707-3.7188-4.4961-6.8359-8.0039-8.9414-5.168-3.043-11.391-3.7422-17.109-1.918-5.7148 1.8242-10.387 5.9961-12.84 11.469-2.4531 5.4766-2.4609 11.738-0.015625 17.219 0.11328 0.23828 0.38672 0.35938 0.64062 0.28516 0.25391-0.074218 0.41406-0.32422 0.37891-0.58594-0.71875-4.043-0.29297-8.207 1.2227-12.023 1.5195-3.8125 4.0703-7.1289 7.3711-9.5742 3.0391-2.2109 6.7461-3.3086 10.496-3.1094 3.7539 0.19531 7.3242 1.6719 10.117 4.1875 5.3398 6.9297 7.0508 15.992 4.6016 24.395-2.1953 9.3906-5.1523 18.586-8.8398 27.496-0.80469 2.3906-1.3477 4.8633-1.6172 7.375-0.089844 2.1523-0.007813 4.3086 0.25 6.4492 0.039062 4.3398 1.2812 8.5859 3.5898 12.266 0.78516 1.0938 2.2539-0.21094 1.582-1.293v-0.003906c-2.8828-4.1914-3.793-9.4336-2.4961-14.355 1.5391-4.8477 3.1875-9.6562 4.9883-14.414 3.543-9.9141 5.8086-20.238 6.7344-30.727l0.26953-2.7812c0.31641 1.375 0.55469 2.7695 0.70703 4.1719 0.40234 5.3359 0.027343 10.703-1.1133 15.93-1.2266 5.8594-2.7578 11.652-4.582 17.352-2.1875 4.7266-2.8789 10.008-1.9727 15.133 0.1875 0.55859 1.1484 0.28125 0.99609-0.29297-0.17969-3.2617 0.66016-6.5 2.4062-9.2617 1.1484-2.6562 2.2773-5.3164 3.3086-8.0234h-0.003907c2.2734-5.6445 3.8398-11.547 4.6641-17.574 1.2539-8.6562-0.35547-17.484-4.5898-25.137z"/>
  <path d="m487.73 393.65c-1.9531-2.6406-5.1406-3.7969-7.3477-6.1445-2.457-2.4648-3.7617-5.8516-3.5898-9.3281 0.015626-0.21875-0.13281-0.41797-0.34375-0.46875-0.21484-0.046876-0.43359 0.066406-0.51562 0.26953-0.83594 2.4297-0.99219 5.0391-0.45703 7.5508-1.832 2.6445-4.9648 4.1406-6.9258 6.7383-2.0547 2.7188-3.1992 5.9844-5 8.8516l0.003906 0.003906c-0.09375 0.14062-0.085937 0.32812 0.023438 0.46094 0.10938 0.13281 0.28906 0.17578 0.44922 0.11328 3.8867-1.4219 5-5.2617 7.5977-8.1172 1.457-1.6016 3.75-2.9844 5.168-4.7539 1.0234 1.7344 2.3984 3.2344 4.0352 4.4102 2.8789 1.8438 5.0508 4.6016 6.168 7.832l0.050781 0.19922h-0.003907c-0.98047-0.15234-1.9805-0.10156-2.9453 0.14453-1.1992 0.085938-2.3164 0.64453-3.1055 1.5547l0.074219 0.44141v-0.003906c0.97656 0.48438 2.0312 0.78125 3.1133 0.87891 1.0859 0.38672 2.2383 0.53125 3.3867 0.42969 0.078125 2.6836-0.19531 5.3633-0.8125 7.9727-0.14062 0.66797 0.99219 0.9375 1.168 0.26953v0.003907c2.7383-6.1602 2.668-13.203-0.19141-19.309z"/>
  <path d="m483.57 417.74c-1.3359 0.25781-2.457 0.95312-3.8398 1.0938-1.3867 0.17187-2.793 0.058593-4.1367-0.32813-2.9648-0.84375-5.5312-2.7305-7.2227-5.3086-0.46484-0.72266-1.6328 0.027343-1.2773 0.78516h0.003906c1.0586 2.5469 2.6914 4.8164 4.7695 6.6289-0.97656 0.88281-1.668 2.0391-1.9922 3.3164-0.26953 2.2617-0.1875 4.5508 0.24609 6.7891 0.007812 0.35156 0.53906 0.42578 0.55859 0.054688 0.19141-1.9375 0.76953-3.8125 1.6953-5.5234 0.5625-1.1289 1.5703-2.0664 2.0938-3.1836l0.67969 0.22266c3.125 0.875 8.168 0.34375 9.6211-3.0742h0.003907c0.13281-0.36719 0.0625-0.77734-0.18359-1.0781s-0.63281-0.44922-1.0195-0.39453z"/>
  <path d="m479.57 412.89c-0.71094-0.10156-1.4375-0.070312-2.1367 0.097657-0.63281 0.22656-1.3008 0.34766-1.9727 0.35547-0.45703-0.074218-0.85547 0.58203-0.5 0.92969 0.60547 0.80078 1.4609 1.3828 2.4297 1.6445 1.1484 0.24609 2.332-0.19141 3.043-1.125 0.24219-0.35156 0.28125-0.80469 0.10156-1.1953-0.17578-0.38672-0.54297-0.65625-0.96484-0.70703z"/>
  <path d="m473.25 403.21c-0.16797-0.46875-0.4375-0.89453-0.78516-1.25-0.4375-0.32812-0.95703-0.53516-1.5039-0.59375-0.47266-0.0625-0.95703-0.023437-1.4141 0.11328-0.55078 0.25391-1.1133 0.48047-1.6875 0.67578-0.34766 0.066406-0.58203 0.40234-0.52734 0.75391 0.054687 0.35156 0.38281 0.59766 0.73437 0.55469 1.1914-0.19922 2.1367 0.83984 3.2109 1.1445 0.40234 0.38281 1.0078 0.44531 1.4805 0.15234 0.52734-0.32031 0.73828-0.98047 0.49219-1.5508z"/>
  <path d="m345.07 317.51c-1.9414-0.25781-3.832 0.76172-4.6836 2.5273-0.097657 0.27344-0.042969 0.57422 0.13672 0.80078 0.18359 0.22266 0.47266 0.33203 0.75781 0.29297 0.64453-0.097656 1.2812-0.33594 1.9297-0.45312 0.79687-0.046875 1.5781-0.26172 2.2852-0.63281 0.40625-0.33984 0.60547-0.86719 0.51562-1.3906-0.085938-0.52344-0.44531-0.95703-0.94141-1.1445z"/>
  <path d="m359.56 316.75c-0.85156-0.59375-1.9492-0.71484-2.9102-0.32422-0.87109 0.375-1.7031 0.82812-2.4844 1.3633-0.31641 0.14453-0.45703 0.51953-0.31641 0.83984 0.14063 0.32031 0.51172 0.46484 0.83594 0.32813 0.77344-0.19922 1.5859-0.17969 2.3477 0.050781 0.75391 0.21484 1.5508 0.21094 2.3008-0.011719 0.42187-0.19531 0.70703-0.59766 0.75-1.0586 0.046874-0.46094-0.15234-0.91016-0.52344-1.1875z"/>
  <path d="m352.07 331.13c-0.65234-0.15625-1.332-0.15625-1.9844 0-0.62891 0.15234-1.2578 0.35547-1.8945 0.48047-0.25781 0.046875-0.46094 0.24219-0.51953 0.49609-0.0625 0.25781 0.035156 0.52344 0.24609 0.67969 0.6875 0.51953 1.5117 0.82812 2.3711 0.88672 0.94922 0.058594 1.8594-0.36328 2.4297-1.1211 0.50781-0.54688-0.0625-1.3164-0.64844-1.4219z"/>
 </g>
</svg>