<?xml version="1.0" encoding="UTF-8"?>
<!-- Uploaded to: SVG Repo, www.svgrepo.com, Generator: SVG Repo Mixer Tools -->
<svg fill="#000000" width="800px" height="800px" version="1.1" viewBox="144 144 512 512" xmlns="http://www.w3.org/2000/svg">
 <g>
  <path d="m313.4 501.5c0-3.2344 0.007812-6.4648-0.023438-9.6992 0.0625-3.0781-0.054687-6.1562-0.35938-9.2188-0.38672-3.2891-0.53516-6.6055-0.44141-9.918 0.058594-3.1523 0.59375-6.2852 0.60547-9.4258-0.035156-3.0742-0.47266-6.1289-1.3086-9.0859-2.0117-5.5469-3.043-11.402-3.0508-17.305 0.54688-6.9805 3.1758-13.504 4.3438-20.355 0.023437-0.30859-0.16016-0.59375-0.44922-0.70313-0.28906-0.10937-0.61719-0.011718-0.80078 0.23438-3.457 5.1172-5.8359 10.883-7.0039 16.945-1.0039 6.043-0.53125 12.238 1.3828 18.059 0.87891 2.8789 1.5781 5.8086 2.0898 8.7773 0.47656 3.0859 1.0586 6.2422 1.2852 9.3516 0.19531 3.6406 0.10156 7.293-0.28125 10.918-1.9297-0.85156-4.0039-1.3359-6.1133-1.4258-5.2266-0.69531-10.504-0.92578-15.77-0.6875-0.48047 0.027343-0.49219 0.73437-0.089843 0.88672h0.003906c3.8555 1.3945 7.8086 2.5117 11.824 3.3438 1.9258 0.43359 3.8555 0.78516 5.7891 1.168v0.003906c1.5977 0.12891 3.0039 1.0938 3.6953 2.5391l0.17969 0.27734c-0.058594 0.94141-0.10156 1.8828-0.125 2.8242-0.039062 1.7617-0.11719 3.5469-0.1875 5.3398h0.003906c-1.0117-0.86328-2.0898-1.6484-3.2266-2.3438-3.0352-1.7578-6.207-3.2812-9.4766-4.5508-3.4062-1.2422-6.5-3.2109-9.0664-5.7656-1.25-1.418-2.3594-2.9531-3.3047-4.5898-0.96094-1.6484-2.1172-3.1875-3.0664-4.832-0.34375-0.59375-1.3594-0.41016-1.2266 0.36328h-0.003906c0.1875 1.7969 0.51953 3.5742 0.98828 5.3164 0.58203 1.7734 1.375 3.4688 2.3633 5.0547 2.1914 3.1484 5.1953 5.6523 8.6914 7.2383 3.2422 1.6641 6.7188 2.8281 9.9375 4.5391 1.5273 0.79687 2.9648 1.7617 4.2812 2.875 1.043 0.89844 1.8438 2.082 2.9453 2.8867-0.070312 3.5742 0.24219 7.1484 0.9375 10.656 0.14453 0.76172 0.82031 1.3047 1.5938 1.2852 0.77734-0.023437 1.4219-0.60547 1.5234-1.3711 0.41406-1.5078 0.69922-3.043 0.85156-4.5977 0.09375-1.668 0.058594-3.3398 0.058594-5.0078z"/>
  <path d="m241.89 496.33c0.125-0.36719 0.023438-0.77344-0.25781-1.0391-0.28516-0.26562-0.69531-0.34375-1.0547-0.19531-3.1914 1.6172-5.082 5.0078-4.7852 8.5742 0.058594 3.2461 1.9766 6.1641 4.9297 7.5117 0.50391 0.16797 1.2031-0.38281 0.875-0.92969v0.003906c-1.375-1.9492-2.0078-4.3281-1.7852-6.7031 0.5-2.457 1.1953-4.8711 2.0781-7.2227z"/>
  <path d="m276.27 469.29c-1.832-2.625-5.2578-3.6016-8.1992-2.332-2.0742 0.89062-3.7578 2.4961-4.7539 4.5234-0.75781-0.074218-1.5273-0.070312-2.2852 0.011719-1.6797 0.097657-3.3516 0.30859-5.0195 0.53125-3.0312 0.29297-6.0078 0.98047-8.8594 2.0508-4.9609 1.7031-8.3594 6.2812-8.5547 11.52 0.03125 1.0586 1.7695 1.1914 2.0469 0.20312v0.003906c1.4844-4.3008 5.125-7.4922 9.582-8.4023 2.5117-0.66016 5.0742-1.1172 7.6602-1.3711 1.1133-0.13672 2.2305-0.25781 3.3516-0.33594-0.30078 0.60156-0.66406 1.1758-1.0742 1.7109-1.1406 1.2969-2.4492 2.4375-3.8945 3.3828-1.6172 1.1836-3.2695 2.3242-4.8438 3.5664-0.84766 0.66797-1.6719 1.3789-2.4648 2.1094-0.80859 0.74609-1.418 1.668-2.2148 2.4141-0.20703 0.17578-0.25391 0.48047-0.10938 0.71094 0.14063 0.23047 0.43359 0.32422 0.68359 0.22266 1.5703-0.70703 3.1992-1.1602 4.7578-1.9414 1.5938-0.80078 3.1094-1.7578 4.6289-2.6953 2.7656-1.4336 5.2227-3.3867 7.2461-5.75 1.5078-2.0352 2.168-4.5469 3.5977-6.6172 1.7812-2.5859 4.0898-2.082 6.7188-1.3906 1.1484 0.30078 2.7578-0.82812 2-2.125z"/>
  <path d="m336.65 529.57c-2.2695-0.35156-4.5781-0.34375-6.8477 0.023438-2.418 0.125-4.8477 0.035156-7.2539-0.26953-4.6445-0.55078-9.1562-1.9336-13.316-4.082-4.5039-2.5938-8.6875-5.7109-12.465-9.2773-4.2695-3.6875-8.5352-7.3789-12.789-11.082-2.4609-2.1406-4.9062-4.3359-7.4688-6.3555l-0.003907-0.003907c-2.3672-2.0312-5.0547-3.6562-7.9531-4.8125-0.25391-0.085937-0.53125-0.015625-0.71484 0.17578-0.18359 0.19531-0.23828 0.48047-0.13672 0.72656 0.44531 0.89453 0.97266 1.7461 1.5781 2.543l-0.19922 0.054687c-1.7031 0.46484-3.4062 0.92969-5.1016 1.4297-2.5586 0.70703-5.0781 1.5469-7.5469 2.5195-4.0234 1.668-9.5781 4.6133-10.707 9.2266-0.10156 0.28906 0.003907 0.61328 0.25391 0.78906 0.25 0.17969 0.58594 0.17188 0.83203-0.011719 1.6172-1.5273 3.3828-2.8906 5.2695-4.0703 2.0391-1.0547 4.1875-1.8945 6.4023-2.5 2.4453-0.70703 4.9375-1.2422 7.4062-1.8672 1.5234-0.38672 3.0352-0.80469 4.5547-1.2188 0.71875-0.19531 1.4453-0.35938 2.125-0.60938l0.41406 0.42188c2.0508 2.0625 4.2734 3.9688 6.4531 5.8945 4.5664 4.043 9.1523 8.0625 13.715 12.109 3.9297 3.7852 8.2812 7.1133 12.969 9.9102 4.4375 2.418 9.2578 4.0664 14.246 4.875 2.8203 0.44531 5.6719 0.60547 8.5234 0.46875 2.8984 0.1875 5.7852-0.53906 8.25-2.0781 0.46484-0.39062 0.69141-1.0039 0.58984-1.6055-0.097657-0.60156-0.50781-1.1055-1.0781-1.3242z"/>
  <path d="m366.92 527.33c-1.4453-1.4023-3.3086-2.4336-4.8672-3.7422l0.003906 0.003906c-1.5469-1.3828-2.8945-2.9688-4.0039-4.7188-2.4141-3.8242-4.2422-7.9883-5.4219-12.355-1.6094-9.7695-6.5703-18.668-14.031-25.176-2.6719-1.7656-5.4492-3.3594-8.3203-4.7773-1.5312-0.79297-3.0977-1.4844-4.6836-2.1562h-0.003906c-1.7734-0.58594-3.5078-1.2812-5.1953-2.082-0.78125-0.45703-1.6133 0.69922-0.82031 1.1602l-0.003906-0.003906c1.2539 0.86328 2.4453 1.8125 3.5586 2.8516 1.1797 0.94922 2.3984 1.8633 3.6367 2.7344 2.418 1.6992 4.9883 3.1562 7.4648 4.7617v-0.003906c4.3203 2.6836 7.7227 6.6172 9.7539 11.277l0.67578 1.6055h0.003907c-0.66406 1.9375-1.2227 3.9141-1.6719 5.9141-0.57031 2.875-1.0039 5.7656-1.3906 8.6719-0.38281 2.8867-0.84766 5.8008-0.95703 8.7148h0.003906c0.26953 2.707 0.035156 5.4453-0.69141 8.0703-0.36719 0.80078 0.73047 1.5 1.3594 0.97266 1.7148-1.5469 2.8086-3.6641 3.082-5.957 0.33984-1.6094 0.61719-3.2148 0.85547-4.8242 0.79688 0.36328 1.6133 0.67187 2.4492 0.92578 1.9375 0.62109 3.8945 1.2422 5.8594 1.7695l0.48438 0.066406 0.35156 0.52344v-0.003906c1.4648 2.0625 3.2734 3.8555 5.3516 5.2969 1.8867 1.4453 4.25 2.1328 6.6211 1.9219 0.58984-0.12109 1.0625-0.94141 0.54688-1.4414zm-18.059-11.238c-1.0547-0.30859-2.1328-0.53125-3.2266-0.66016l0.23438-2.0195c0.34766-3.1289 0.72656-6.25 0.94531-9.3945l0.046875-0.92188v0.003906c1.25 4.6953 2.8555 9.293 4.7969 13.746z"/>
  <path d="m343.48 464.77c-1.043-1.5664-2.4922-2.8164-4.1914-3.6211-1.543-0.95312-3.1523-1.7891-4.8125-2.5039-1.6797-0.75781-3.4219-1.375-5.2031-1.8477-0.86328-0.22266-1.7383-0.39453-2.625-0.51953-0.96094-0.125-1.9414 0.089844-2.8906-0.039062-0.29688-0.023438-0.56641 0.17187-0.63281 0.46484-0.066406 0.28906 0.089844 0.58594 0.36719 0.69531 1.5312 0.60547 3.0234 1.3125 4.4648 2.1055 1.6328 0.73828 3.2852 1.4141 4.8633 2.2734 1.4375 0.78516 2.8516 1.6445 4.2188 2.5508h-0.003907c1.2812 1.1328 2.7422 2.043 4.3203 2.7031 1.2852 0.30859 2.8438-0.83984 2.125-2.2617z"/>
  <path d="m332.85 465.26c-2.0078-1.6289-4.3633-2.7812-6.8828-3.3711-2.5-0.78125-5.082-1.2812-7.6953-1.4883-0.57422-0.058594-1.0039 0.82812-0.42578 1.1367 2.2109 1.168 4.3516 2.3633 6.668 3.3594v-0.003907c2.2266 1.2461 4.6445 2.1133 7.1562 2.5664 1.0586 0.0625 2.0625-1.3203 1.1797-2.1992z"/>
  <path d="m331.27 470.28c-1.1328-0.92969-2.4219-1.6523-3.8086-2.1289-1.5352-0.70313-3.0391-1.4883-4.5234-2.293-1.5469-0.83594-4.1445-2.7148-5.4805-0.63281l0.003907 0.003906c-0.09375 0.13672-0.097657 0.32031-0.007813 0.46094 0.089844 0.14453 0.25391 0.22266 0.41797 0.19922 0.98438-0.16797 2.0391 1.1797 2.6992 1.7422 0.99609 0.85938 2.0664 1.6367 3.1953 2.3164 1.9492 1.4453 4.2734 2.3008 6.6953 2.4609 0.46094-0.074219 0.84766-0.39062 1.0156-0.83203 0.16797-0.4375 0.089844-0.93359-0.20703-1.2969z"/>
  <path d="m434.43 518.81c-1.5 1.3672-3.2031 2.4883-5.0508 3.3281-1.9375 0.625-3.9414 1.0117-5.9727 1.1484-5.6367 0.53516-11.316 0.76562-16.969 1.1328-5.9219 0.38672-11.844 0.74609-17.75 1.332-2.8945 0.28516-5.7695 0.62891-8.6523 1.0156-3.0938 0.41797-6.1641 1.082-9.2578 1.457-0.64063 0.078125-0.63672 1.1562 0.03125 1.1523 3.3164-0.027344 6.6484 0.23828 9.9766 0.25781 3.0625 0.015626 6.1094-0.050781 9.168-0.14062 6.3906-0.19531 12.77-0.66016 19.148-1.0664 5.7422-0.36328 11.645-0.37109 17.336-1.2656 3.9219-0.61719 9.668-2.4609 10.445-7.0234 0.23438-1.3828-1.4727-2.043-2.4531-1.3281z"/>
  <path d="m312.29 324.14c-5.3945 0.24219-10.52 2.4336-14.418 6.1758-3.7344 5.0117-6.0664 10.93-6.7578 17.141-1.5664 6.6797-3.0586 13.375-4.4844 20.086-1.418 6.6953-3.082 13.461-4.0039 20.242-0.49609 3.6289-0.89062 7.3203-1.25 10.969h-0.003906c-0.54297 3.1289-0.046876 6.3516 1.418 9.1719 1.4688 2.1562 4.4219-0.40234 3.0938-2.5312-0.79297-0.98828-1.2852-2.1875-1.4219-3.4453-0.042969-1.332 0.070313-2.6602 0.33594-3.9648 0.53906-3 1.4766-5.8945 2.2227-8.8398 1.543-6.0898 2.4727-12.375 3.7578-18.527 1.2695-6.082 2.6016-12.152 3.9922-18.211 0.71094-3.0938 1.4258-6.1914 2.1875-9.2695 0.51562-2.6055 1.3789-5.1289 2.5664-7.5078 1.3789-2.3906 3.3359-4.3984 5.6914-5.8438 2.4297-1.5312 5.2109-2.3945 7.5391-4.0859 0.26953-0.22656 0.37891-0.59375 0.28125-0.92969-0.10156-0.33984-0.39453-0.58594-0.74609-0.62891z"/>
  <path d="m415.54 504.28c-4.0859 0.54297-8.0898 1.6211-12.156 2.3047-4.1758 0.69922-8.3711 1.3672-12.586 1.8125-5.1445 0.54297-10.305 0.42969-15.449 0.49219h0.003906c-1.1211-1.8008-2.4258-3.4766-3.9023-5-1.8398-2.1562-3.6328-4.3555-5.3711-6.5898-3.3516-4.3203-6.3906-8.8594-9.3477-13.457-2.2344-3.5781-4.2031-7.3203-5.8867-11.188 1.8125 1.7031 3.7969 3.2109 5.918 4.5078 3.2695 1.9219 6.7734 3.4102 10.426 4.4219 2.1914 0.64453 4.4141 1.2227 6.5977 1.918-0.089844 0.66406-0.058594 1.3828-0.085937 2.168-0.066407 1.7266-0.15625 3.4492-0.30078 5.168-0.28516 3.3945-0.50391 6.8828-1.1211 10.234-0.12109 0.66797 0.95312 0.91406 1.1602 0.26953 1.0508-3.2969 2.1797-6.4922 2.9375-9.8789 0.37891-1.6914 0.72266-3.3906 1.0156-5.0977l0.26562-1.4297 0.91016 0.40234v-0.003906c3.25 1.418 5.957 3.8398 7.7227 6.9141 0.92578 1.8281 1.6992 3.7305 2.3047 5.6875 0.68359 2.0156 1.6133 3.9414 2.7656 5.7344 0.5625 0.89453 1.9297-0.03125 1.543-0.94922-0.82812-3.6406-1.3984-7.3359-1.7109-11.055-0.99609-3.3164-3.0703-6.207-5.8945-8.2109-6.3906-3.6992-13.297-6.4219-20.488-8.0781-6.125-2.3359-11.406-6.4609-15.156-11.832-3.9102-5.832-5.9766-12.703-5.9297-19.723 0.015625-4.6602 0.3125-9.3164 0.89062-13.941 0.35547-3.4844 0.62109-6.9922 1.0195-10.477l2.1719 0.78125c2.7148 1.0078 5.4531 1.9297 8.2578 2.6641v0.003907c2.7734 0.6875 5.625 1.0234 8.4844 0.99219 0.79688 0.074219 1.5-0.50781 1.582-1.3008 0.078125-0.79297-0.49609-1.5039-1.293-1.5898-4.8789-1.0469-9.7461-2.6211-14.504-4.125-2.3906-0.75391-4.7656-1.5625-7.1172-2.4297-2.3516-0.87109-4.6055-1.9531-7-2.6992h0.003906c-10.031-2.4102-20.352-3.375-30.656-2.8711-2.8477-0.050781-5.7109-0.082031-8.5508-0.31641-2.7539-0.44141-5.5273-0.72656-8.3125-0.84375-0.82812 0.03125-0.90625 1.1602-0.37109 1.582 2.0039 1.3516 4.2812 2.2539 6.6641 2.6445 2.5234 0.62109 5.0859 1.0703 7.668 1.3398 5.1055 0.50391 10.254 0.37109 15.371 0.57812v0.003906c8.3398 0.39844 16.586 1.9297 24.516 4.5469-1.0859 2.7461-1.8281 5.6133-2.2109 8.5391-0.71484 4.1797-1.207 8.3945-1.4727 12.629-0.67969 7.8281 0.75 15.691 4.1367 22.781l0.25 0.45703c0.78125 2.418 1.7578 4.7852 2.7305 7.125 2.2227 5.3477 4.9883 10.367 7.668 15.488v0.003906c2.6641 4.9727 5.707 9.7383 9.1055 14.242 1.6836 2.2773 3.4648 4.4922 5.3242 6.6289 0.71875 0.82422 1.543 1.8242 2.4492 2.7539-1.4336 0.070313-2.8633 0.16797-4.293 0.32031-0.59375 0.0625-0.54688 0.82422-0.10547 1.0469 7.957 3.1055 16.629 3.8984 25.016 2.2891 4.2188-0.44531 8.4062-1.1367 12.543-2.0781 4.3086-0.84375 8.5547-1.9844 12.707-3.4141 1.6602-0.625 0.81641-3.1211-0.85547-2.8984z"/>
  <path d="m359.67 386.23c-0.45312 2.6719-3.3984 3.5898-5.5156 4.5703h-0.003906c-2.2773 0.9375-4.25 2.4844-5.707 4.4727-0.41797 0.57812-0.82422 1.2422-1.2656 1.8906 0.52734-2.3984 1.0391-4.8047 1.5195-7.2148 0.47266-2.3789 0.91797-4.7656 1.3125-7.1602 0.52734-2.4453 0.80078-4.9414 0.82031-7.4453-0.042969-1.0273-1.4023-0.87891-1.7617-0.17578-0.98047 2.2148-1.7305 4.5195-2.2383 6.8828-0.66016 2.4453-1.2734 4.9102-1.8555 7.375-0.54688 2.3125-1.0508 4.6367-1.5664 6.957-0.38672 1.2539-0.65625 2.5469-0.80469 3.8516-2.293-0.23438-4.5273-0.85156-6.6133-1.8242-5.6953-1.957-11.492-3.5977-17.363-4.918-2.9492-0.66797-5.9141-1.2578-8.9023-1.7148l-0.73047-0.11328c1.0586-2.1523 1.8945-4.4102 2.4922-6.7383 1.0273-3.1641 1.9336-6.3555 2.6445-9.6094v0.003906c1.2812-6.582 2.082-13.25 2.3867-19.949 0.035156-0.45313-0.30078-0.84766-0.75391-0.89453-0.45312-0.042968-0.85938 0.27734-0.91797 0.73047-1.0391 6.5117-2.5586 12.938-4.5391 19.227-0.88672 3.0195-1.7773 6.0391-2.7812 9.0195-1.1094 2.4883-1.957 5.082-2.5273 7.7461-1.5625-0.10547-3.1289 0.054688-4.6367 0.46875-0.73828 0.21484-1.3164 1.3594-0.43359 1.8516h0.003907c2.9531 1.3672 6.1172 2.2305 9.3594 2.5547 3.4258 0.62109 6.8516 1.2969 10.238 2.1094 3.1484 0.75391 6.2734 1.6055 9.375 2.5547h0.003906c3.0586 1.1055 6.1719 2.0586 9.3281 2.8555 2.7891 0.66016 5.7227 0.31641 8.2852-0.96875 2.0234-1.3359 3.7188-3.1133 4.9609-5.1992 0.75391-1.1172 1.7031-2.0859 2.7969-2.8672 1.2109-0.80078 2.6055-1.3008 3.8828-1.9844l0.003906-0.003906c2.4297-1.0078 4.3242-3 5.2031-5.4844 0.16797-0.50781 0.11719-1.0664-0.14453-1.5352-0.26172-0.46875-0.71094-0.80469-1.2344-0.92578-0.52344-0.12109-1.0742-0.015625-1.5156 0.28906-0.44141 0.30469-0.73438 0.78125-0.80469 1.3164z"/>
  <path d="m374.36 398.15c-2.8477-0.34375-5.7305-0.28516-8.5664 0.16797-2.5859 0.33984-5.1875 0.53125-7.7969 0.57422 0.023437-0.64062 0.17188-1.2734 0.42969-1.8594 0.0625-0.16797 0.027344-0.35156-0.082031-0.48438-0.11328-0.13672-0.28516-0.20312-0.46094-0.17969-1.6953 0.51953-2.8516 2.0898-2.8516 3.8633-0.066406 0.73828 0.36719 1.4336 1.0586 1.6953 2.9531 0.59766 5.9883 0.66797 8.9648 0.20703l4.6641-0.23828c1.5977 0.054687 3.1953-0.125 4.7383-0.53906 0.62891-0.29688 1.0234-0.9375 1.0039-1.6328-0.019532-0.69922-0.45313-1.3164-1.1016-1.5742z"/>
  <path d="m375.3 402.42c-1.2461 0.097656-2.4609 0.44141-3.5742 1.0078-1.3008 0.52344-2.6406 0.94141-4.0078 1.2617-1.2109 0.28125-2.4336 0.51172-3.6602 0.71094-1.1406 0.023437-2.2578 0.32812-3.2539 0.88281-0.12891 0.11328-0.20312 0.27734-0.19922 0.44922 0.007813 0.17188 0.089844 0.32812 0.23047 0.42969 1.7148 1.4453 5.2969 0.91406 7.3828 0.69141 2.8398 0.015625 5.625-0.77344 8.0352-2.2734 0.98828-0.93359 0.73438-3.1914-0.95312-3.1602z"/>
  <path d="m375 408.18c-1.9688 0.26953-3.8438 1.0234-5.4492 2.1992-1.6445 0.80078-3.1367 1.8828-4.4102 3.1953-0.12891 0.18359-0.14844 0.41797-0.058593 0.62109 0.09375 0.20312 0.28516 0.33984 0.50781 0.36328 1.7148-0.035156 3.4102-0.36719 5.0156-0.98047 1.9297-0.34375 3.7539-1.1328 5.3281-2.3047 0.89844-0.93359 0.76953-3.1289-0.93359-3.0938z"/>
  <path d="m371.07 414.67c-1.5898 1.0859-3.0742 2.4258-4.6016 3.6055-0.47266 0.36328 0.007812 1.0391 0.52734 0.85547 1.8477-0.66016 3.8125-1.1953 5.6133-1.9609 1.918-0.81641 0.30078-3.7539-1.5391-2.5z"/>
  <path d="m458.77 519.89c-0.61328-3.1289-7.1289-2.6562-9.3984-2.1836-3.5234 0.50781-6.8359 1.9961-9.5547 4.2969-0.38281 0.40625-0.17969 1.2109 0.48828 1.0859 1.7305-0.32422 3.3594-1.0273 5.1055-1.3281l-0.003906 0.003907c1.8203-0.25 3.6602-0.29297 5.4844-0.12891 1.8008 0.09375 3.5781 0.53125 5.3633 0.60547 1.3789 0.058594 2.8203-0.80078 2.5156-2.3516z"/>
  <path d="m461.52 491.03c-5.0508-1.9219-10.719 0.46875-12.875 5.4219l-0.14062 0.54688-0.007812 0.003906c-0.69531 0.058594-1.3945-0.046875-2.0391-0.31641-0.60156-0.34375-1.2734-0.55859-1.9688-0.61719-0.33984 0.058594-0.59766 0.33594-0.64062 0.67969-0.23047 1.0234 0.96484 2.0508 1.75 2.4844 0.83203 0.4375 1.7656 0.65234 2.707 0.61328 0.12891 1.5312 0.45703 3.0352 0.97266 4.4805 1.082 3.3867 2.4883 6.6641 4.1992 9.7852 0.29297 0.52344 1.2969 0.35547 1.1055-0.32422v-0.003906c-1.8477-4.7227-2.832-9.7383-2.9062-14.809 0.30078-3.2383 2.5898-4.3008 5.1836-4.9141v-0.003906c-0.38281 1.2227-0.47266 2.5195-0.26953 3.7852 0.089844 0.47656 0.51562 0.82031 1.0039 0.80469 0.48828-0.011719 0.89062-0.37891 0.95312-0.86328 0.125-1.0117 0.48828-1.9766 1.0586-2.8203 0.42188-0.62891 0.97266-1.1523 1.3984-1.7656l0.30859-0.085938c0.91797-0.25781 1.3672-1.75 0.20703-2.082z"/>
  <path d="m562.77 528.12c-2.1133-0.15234-4.2305-0.074219-6.3242 0.23437-2.1211 0.16797-4.2539-0.16016-6.2266-0.96484-3.3516-1.8711-6.8555-3.457-10.477-4.7305-7-0.88281-14.055-1.2891-21.109-1.2188-3.2539-0.19531-6.3867-1.3008-9.043-3.1875-2.6055-2.3477-4.6641-5.2461-6.0195-8.4844-1.5508-3.3398-3.5039-6.4766-5.8125-9.3477-1.1562-1.3359-2.4219-2.5742-3.7852-3.6992-0.35547-0.47656-0.83203-0.84766-1.3789-1.0703-0.91797-0.67969-1.875-1.3086-2.8633-1.8828-3.3359-2.0078-7.0742-3.2656-10.949-3.6836-0.99609-0.09375-1.9883-0.13281-2.9766-0.12891l0.30078-0.32031c0.44922-0.46094 0.21875-1.5391-0.58203-1.3164-1.2305 0.33594-2.3594 0.96875-3.2812 1.8438-1.668 0.18359-3.3281 0.45312-4.9688 0.80859-0.28906 0.042969-0.48828 0.31641-0.44141 0.60938s0.32031 0.48828 0.60938 0.44531c1.1055-0.14063 2.2188-0.19141 3.332-0.15625-0.80078 0.97266-1.0859 2.2695-0.76172 3.4883 0.16797 0.36328 0.49609 0.63281 0.88672 0.72656s0.80469 0 1.1172-0.25c0.97266-0.75 1.2031-2.1953 1.7891-3.2344l0.24219-0.40625h0.003906c1.2148 0.19922 2.418 0.47266 3.6016 0.82031-0.011719 0.64453-0.0625 1.2812-0.16016 1.918-0.22266 0.96484-0.52344 1.9141-0.89453 2.8359-0.11328 0.33594 0.003906 0.70312 0.29297 0.91016 0.28516 0.20312 0.67188 0.19531 0.95312-0.019531 1.3633-1.2344 2.2656-2.8984 2.5469-4.7148 2.5273 0.98047 4.9453 2.2109 7.2227 3.6719 1.8477 1.1797 3.5586 2.5547 5.1094 4.1016 0.070312 0.72656 0.054688 1.4609-0.042969 2.1875-0.17969 1.4219-0.60938 2.7891-0.87891 4.1914-0.03125 1.1953-0.46875 2.3438-1.2461 3.2578-1.0859 0.66406-2.2617 1.1719-3.4922 1.5039-1.0859 0.46094-2.1055 1.0625-3.0352 1.793-0.91406 0.69922-1.7305 1.5195-2.4297 2.4336-0.63672 1.0977-1.1719 2.2539-1.5898 3.4531-0.28516 0.58594 0.67578 1.0977 1.0195 0.53906 0.94531-1.2227 2.1172-2.25 3.4531-3.0312 1.2539-0.83594 2.6523-1.4336 4.125-1.7617 3.0781-0.73438 5.8203-1.625 6.8398-4.9609h0.003906c0.50781-1.707 0.77734-3.4766 0.79297-5.2617 1.6211 2.5117 2.832 5.2695 4.2617 7.8945h0.003906c1.5977 3.2734 3.918 6.1406 6.7812 8.3906 2.8203 1.918 6.0547 3.1328 9.4375 3.543 6.9609 1.0312 14.078-0.28906 21.012 1.0469h0.003906c4.0938 1.4648 8.0859 3.207 11.945 5.2148 4.6094 1.5664 9.6641 1.1211 13.926-1.2344 1.2656-0.78516 0.35156-2.6055-0.84375-2.7969z"/>
  <path d="m530.03 535.31c-1.4258 0.089844-2.8438 0.25391-4.2539 0.48828-1.4102 0.078125-2.8242 0.015625-4.2227-0.18359-2.9766-0.36719-5.8711-1.1406-8.8281-1.6367-6.3125-0.49219-12.664-0.0625-18.852 1.2773-6.0977 0.83984-12.297 0.64844-18.332-0.57422-5.4062-0.87891-10.434-3.3359-14.449-7.0664-0.27344-0.30469-0.73828-0.34375-1.0586-0.082032-0.31641 0.25781-0.375 0.72266-0.125 1.0508 3.3711 4.4609 7.9062 7.8984 13.105 9.9453 6.2383 2.0273 12.855 2.625 19.355 1.7461 6.7812-1.2891 13.652-2.0391 20.551-2.2461 3.1641 0.21484 6.3086 0.78906 9.4766 0.89453h0.003906c2.8516 0.44141 5.7656-0.16016 8.207-1.6992 0.32422-0.28516 0.45703-0.73047 0.33203-1.1445-0.125-0.41406-0.48047-0.71484-0.91016-0.76953z"/>
  <path d="m473.93 520.42c-0.28516 0.054687-0.52734 0.23047-0.66797 0.48438-0.13672 0.25391-0.15625 0.55859-0.046874 0.82422 0.83594 2.4453-2.3828 1.8789-3.9922 1.7578-1.9102-0.1875-3.7773-0.67969-5.5352-1.4609-0.26562-0.089844-0.5625-0.015626-0.75391 0.1875-0.19531 0.20703-0.25 0.50781-0.14063 0.76562 1.1758 3.4258 7.1133 4.1133 10.156 3.5547v0.003906c1.7461-0.18359 3.1523-1.5195 3.4219-3.2539 0.15234-1.4258-0.74219-3.3203-2.4414-2.8633z"/>
  <path d="m562.13 535.95c-5.1875 0.68359-10.457 0.32422-15.504-1.0469-4.8203-1.5-8.9336-4.5781-13.73-6.0898l-0.003906-0.003906c-4.6406-1.1758-9.4766-1.3867-14.207-0.62109-4.4023 0.89844-8.9609 0.66016-13.25-0.68359-2.1992-1.0117-4.082-2.5938-5.457-4.5859-1.6445-1.9727-2.8086-4.3008-3.3984-6.8008-0.09375-0.88672-1.3984-0.64844-1.3477 0.21484 0.070312 1.2109-0.21094 2.4062-0.085938 3.6289 0.16797 1.1484 0.44141 2.2773 0.81641 3.375 0.76172 2.2969 2.1172 4.3477 3.9297 5.9453 3.8594 3.1133 8.793 4.5742 13.723 4.0586 5.1172-0.70703 10.289-0.92188 15.445-0.64453 2.6992 0.5625 5.3086 1.5039 7.7461 2.7969 2.5273 1.2227 5.168 2.1914 7.8906 2.8906 5.9219 1.6211 12.188 1.4727 18.023-0.42578 1.1797-0.41797 0.53906-2.1172-0.58984-2.0078z"/>
  <path d="m493.63 530.22c-0.95703-1.3828-2.5703-2.0508-3.4766-3.4922v-0.003907c-1.0195-1.7266-1.2109-3.8203-0.51953-5.7031 0.25391-0.80469-0.79297-1.8086-1.4922-1.0664-2.0859 2.1523-2.707 5.332-1.5859 8.1094 1.0469 2.5 3.7578 5.1211 6.6211 4.043l0.003907 0.003906c0.34375-0.16016 0.59766-0.46875 0.68359-0.83594 0.089844-0.37109 0-0.75781-0.23438-1.0547z"/>
  <path d="m467.89 502.51c-0.90625 0.78516-1.6406 1.7461-2.1602 2.8242-0.44141 0.98828-0.875 2.5625 0.011719 3.4141 0.18359 0.21094 0.45312 0.32812 0.73438 0.32031 0.27734-0.011718 0.53906-0.14844 0.70703-0.37109 0.57422-0.70703 0.41016-1.7148 0.5-2.5703v-0.003906c0.089843-1.0195 0.45703-1.9922 1.0625-2.8203 0.39844-0.51563-0.37109-1.2578-0.85547-0.79297z"/>
  <path d="m472.99 506.23c-0.097657-0.5-0.48047-0.89844-0.97656-1.0117-0.5-0.11719-1.0156 0.070312-1.3242 0.47656-0.83203 0.97656-0.63672 2.4023-1.2734 3.4805v-0.003906c-0.69141 1.0547-1.543 1.9922-2.5195 2.7852-0.73438 0.65234-0.011719 2 0.9375 1.5273 1.375-0.69922 2.543-1.7422 3.3906-3.0273 0.82422-1.207 2.1875-2.6328 1.7656-4.2266z"/>
  <path d="m463.44 494.87c-1.0625 0.85547-1.3164 2.3711-0.59375 3.5234 0.20312 0.41406 0.69922 0.59375 1.1172 0.40625 0.42188-0.1875 0.62109-0.67188 0.45312-1.1016-0.078125-0.53906 0.082031-1.0898 0.44141-1.5039 0.69141-0.87891-0.57422-2.0156-1.418-1.3242z"/>
  <path d="m427.03 475.54c-5.6289-2.2773-12.086-0.75391-16.105 3.7969-1.9766 2.2305-3.3125 4.9609-3.8633 7.8906-0.54688 2.9336-0.28906 5.957 0.75 8.7539 0.39062 0.78906 1.793 0.71875 1.8164-0.28906h-0.003906c-0.050781-4.8555 1.5391-9.5859 4.5117-13.422 3.2539-3.9805 8.1406-3.1602 12.641-4.1836 0.58203-0.10938 1.0234-0.58984 1.082-1.1797s-0.27734-1.1445-0.82812-1.3672z"/>
  <path d="m440.27 485.5c-1.1445-2.3203-2.8516-4.3164-4.9648-5.8125-0.63672-0.53516-1.3086 0.39453-0.92188 0.98828 1.0977 1.9922 1.9492 4.1133 2.5352 6.3086 0.35156 1.0547 0.61719 2.1328 0.79688 3.2266 0.023437 1.0195 0.34375 2.0078 0.91797 2.8477 0.30859 0.36719 0.76953 0.57422 1.25 0.55469 0.48047-0.015626 0.92578-0.25391 1.207-0.64063 1.2812-2.0703 0.085937-5.3906-0.82031-7.4727z"/>
  <path d="m455.82 477.23c-0.98828-2.918-3.0039-5.375-5.6719-6.9141-5.3086-2.4961-11.641-0.96875-15.223 3.6758-0.50781 0.56641 0.28906 1.4727 0.93359 1.1445 3.8242-2.3828 8.5977-2.668 12.68-0.75781 1.75 1.3477 3.0391 3.2109 3.6875 5.3242 0.47656 2.4727 1.2461 4.8789 2.2891 7.168 0.26562 0.3125 0.67188 0.46094 1.0742 0.39453 0.39844-0.066406 0.73828-0.33984 0.88672-0.71484 0.81641-3.0977 0.58203-6.3711-0.65625-9.3203z"/>
  <path d="m404.55 458.3c-1.7227-3.375-4.5117-6.0859-7.9336-7.7109-1.6055-0.98828-3.2891-1.8438-5.0312-2.5625-1.9805-0.43359-3.9062-1.0703-5.7539-1.9023-0.28125-0.1875-0.66016-0.11328-0.85547 0.16016-0.19531 0.27734-0.13672 0.65625 0.13281 0.86328 1.3867 1.1484 2.3555 2.7422 3.6719 3.9688 1.4102 1.2109 2.9414 2.2734 4.5742 3.168 3.0469 1.8281 5.8125 4.1328 8.8516 5.9336h-0.003906c0.58203 0.38672 1.3438 0.34766 1.8828-0.09375 0.53906-0.44141 0.73047-1.1797 0.46484-1.8242z"/>
  <path d="m426.63 470.38c-1.2148-1.6055-2.6328-3.0508-4.2148-4.2969-1.3945-1.4453-2.6992-2.9727-3.9102-4.5742-2.6602-3.4648-4.9453-7.1992-7.6094-10.664h0.003906c-3.2227-3.5312-6.0195-7.4258-8.332-11.609-2.0625-4.4805-3.4727-9.2383-4.1836-14.121-0.15625-1.1289-1.7773-0.82031-1.7148 0.26953l0.003906 0.003907c-0.019531 5.1289 0.76953 10.23 2.3438 15.109 2.2617 4.6172 5.1719 8.8828 8.6406 12.672 2.8008 3.668 5.1875 7.6562 8.1289 11.219 2.3555 2.8594 6.1602 7.3242 10.215 7.1484 0.25391-0.039062 0.47266-0.19531 0.59766-0.42188 0.125-0.22656 0.13672-0.49609 0.03125-0.73438z"/>
  <path d="m385.8 433.9c-0.59375-0.53516-0.88672-1.293-1.5547-1.8125v-0.003906c-0.8125-0.63281-1.6914-1.1797-2.6172-1.6289-1.668-0.77344-3.4375-1.3086-5.2539-1.5898l0.050781-0.67578c0.125-1.918 0.70312-4.8359-1.1406-6.082h-0.003906c-0.47656-0.31641-1.1016-0.29297-1.5547 0.054687-1.75 1.1484-1.3047 4.1211-1.3984 5.9453-0.11328 2.2539-0.30859 4.5039-0.48047 6.75-0.17188 2.25-0.33984 4.4883-0.61719 6.7227-0.28125 2.2891-0.375 4.7266-0.87109 6.9727-0.16406 0.74609 1.0703 1.0234 1.3008 0.30078 0.71484-2.2422 1.6992-4.3516 2.3242-6.6367 0.62891-2.3047 1.2109-4.6367 1.6328-6.9844l0.30078-1.8906c1.543 0.27344 3.0547 0.63281 4.5859 0.96484l2.1562 0.45312c0.80469 0.16797 1.8008 0.011719 2.5703 0.22266v0.003906c0.28906 0.097657 0.60547-0.03125 0.75-0.30078 0.14062-0.26953 0.066406-0.60547-0.17969-0.78516z"/>
  <path d="m316.62 277c0.16797-0.25391 0.15234-0.58594-0.039063-0.81641-0.19141-0.23438-0.51172-0.31641-0.79297-0.20312-4.1406 1.8359-7.2969 5.3516-8.6719 9.668-0.97266 4.9492-1.2539 10.012-0.83984 15.043-0.10156 2.6406-0.48047 5.2617-1.1289 7.8242-0.94141 2.5352-1.5 5.1953-1.6602 7.8984 0.046875 2.1172 1.0195 4.1055 2.6602 5.4492 1.5469 1.457 3.9336 1.5469 5.5938 0.21484 0.49219-0.42969 0.6875-1.1055 0.5-1.7305-0.19141-0.625-0.72656-1.082-1.375-1.168-4.6953-0.59766-2.7188-5.4453-1.8594-8.5391 1.1172-4.0156 1.6445-8.1758 1.5664-12.344-0.37109-3.9219-0.26562-7.875 0.3125-11.773 1.3125-3.5 3.2578-6.7266 5.7344-9.5234z"/>
  <path d="m350.36 370.02c-4.0195-4.7773-8.6094-9.043-13.668-12.703-3.6133-3.457-6.5195-7.5859-8.5469-12.152-2.832-9.293-7.5664-17.895-13.906-25.258-0.47656-0.41016-1.2617 0.24219-0.96094 0.78906h-0.003906c2.3789 4.3516 4.4219 8.8711 6.1211 13.527 1.7344 4.7227 3.418 9.4883 5.6172 14.016v0.003906c2.2344 4.7422 5.3633 9.0078 9.2109 12.562 2.1719 1.9805 4.4766 3.8281 6.7773 5.6523v0.003906c2.4609 2.1289 5.2344 3.8672 8.2188 5.1562 1.0156 0.39062 1.6562-0.80469 1.1406-1.5977z"/>
  <path d="m367.08 361.99c-2.1836-2.7617-4.293-5.582-6.5078-8.3164l-0.22656-0.6875c-0.57812-1.5742-1.2031-3.125-1.7617-4.707-1.0664-3.0117-1.9883-6.0625-2.8438-9.1406-0.84375-3.0312-1.5859-6.0898-2.2695-9.1602-0.36328-1.6367-0.70703-3.2812-1.082-4.918-0.3125-1.3516-0.80078-2.6836-1.1211-4.0352h-0.003906c1.4531-1.4297 2.6016-3.1367 3.375-5.0234 0.16406-0.47656-0.003906-1-0.41406-1.293-0.40625-0.29297-0.95703-0.28125-1.3555 0.027343-2.543 2.1836-4.2266 4.9805-7.9766 4.8125-1.8633-0.22266-3.6992-0.625-5.4883-1.1914-2.0781-0.46484-4.0547-1.3086-5.8242-2.4961-0.69531-0.46875-1.3281 0.50391-0.73438 1.0391 3.2422 3.8242 7.8281 6.2656 12.812 6.8203 1.5039-0.078125 2.9492-0.59766 4.1602-1.4961-0.082031 1.082-0.10156 2.168-0.0625 3.2539 0.10938 1.6758 0.29297 3.3398 0.53906 5.0039v-0.003906c0.48828 3.3125 1.1523 6.5977 1.9961 9.8359 0.44531 1.7148 0.94531 3.4219 1.4766 5.1133-2.6719-3.1953-5.375-6.3633-8.1055-9.5117-4.4883-5.1484-9.2695-10.105-13.316-15.617l0.003906 0.003907c-1.9805-2.5938-3.7109-5.3672-5.1719-8.2891-1.4141-3.0859-2.5625-6.2891-3.4375-9.5703-1.9336-7.5117-3.3945-15.133-4.3828-22.824-0.10156-0.66016-1.2148-0.67188-1.207 0.035156h0.003906c0.003906 6.8086 0.48438 13.609 1.4414 20.355 1.0508 6.7461 3.3594 13.238 6.8047 19.133 3.543 5.6797 7.6289 11.004 12.203 15.895 4.9336 5.5859 9.7305 11.285 14.496 17.012 2.6836 3.2227 5.3594 6.4453 8.1055 9.6094 2.6445 3.0469 4.9844 6.3047 7.5547 9.3984v0.003906c0.32422 0.375 0.83594 0.52734 1.3125 0.38281 0.47266-0.14453 0.81641-0.55078 0.87891-1.043-0.21484-3.1836-1.5938-6.1758-3.8711-8.4102z"/>
  <path d="m375.01 389.85c-0.1875-1.9961-0.36719-3.9961-0.56641-5.9922l-0.003906 0.003906c-0.35547-3.9883-0.98438-7.9453-1.8789-11.848-0.046875-0.23828-0.26172-0.41016-0.50781-0.40234-0.24219 0.007813-0.44531 0.19141-0.48047 0.43359-0.51172 3.8672-0.67969 7.7734-0.49219 11.668 0.070313 1.8984 0.17188 3.7969 0.30078 5.6914v0.003906c-0.050781 2.0312 0.26172 4.0547 0.92188 5.9766 0.47656 1.0547 2.3711 1.207 2.6875-0.082031v0.003907c0.32031-1.8047 0.32812-3.6523 0.019531-5.457z"/>
  <path d="m398.61 395.23c-1.9102-1.5234-5.1641 0.015625-7 1.0703h0.003907c-1.9492 1.0781-3.3594 2.9219-3.8867 5.0859-0.18359 0.054687-0.31641 0.21094-0.34766 0.39844-0.03125 0.19141 0.050782 0.38281 0.20703 0.48828 0.54297 0.44922 1.3242 0.45703 1.875 0.019531 0.98047-0.78125 2.0312-1.4688 3.1367-2.0547 2.0859-0.89062 5.4961-1.1641 6.5-3.4258 0.20703-0.57812 0.007813-1.2227-0.48828-1.582z"/>
  <path d="m402.36 399.09c-0.10547-0.60156-0.59375-1.0664-1.1992-1.1328-1.3359-0.007813-2.6328 0.44141-3.6758 1.2734-1.2852 0.69922-2.6094 1.3281-3.875 2.0664-2.4336 1.1641-4.2305 3.3359-4.9219 5.9414-0.29688 1.5586 1.7461 1.8984 2.582 0.96484 1.7734-1.793 3.8945-3.207 6.2383-4.1445 2.0352-0.96875 5.0586-2.293 4.8516-4.9688z"/>
  <path d="m399.91 406.11-0.20703-0.125c-0.60547-0.42969-1.3945-0.50781-2.0742-0.20703-3.6602 1.8867-6.6055 4.918-8.3945 8.6289-0.43359 1.0117 0.85156 1.7383 1.6406 1.1719 1.7695-1.2695 3.4414-2.6562 5.2344-3.8945 1.4844-1.0234 4.4297-2.0039 4.4844-4.0742 0.054687-0.58594-0.20312-1.1602-0.68359-1.5z"/>
  <path d="m399.53 411.95c-1.2891 0.45313-2.375 1.3516-3.0625 2.5352-0.76562 0.98828-1.3242 2.125-1.6367 3.3398-0.10156 0.44141 0.44922 0.74609 0.8125 0.58984h-0.003906c1.0625-0.51953 2.0312-1.1992 2.8789-2.0195 1.0312-0.72266 1.8203-1.7383 2.2656-2.9141 0.1875-0.72656-0.33594-1.7891-1.2539-1.5312z"/>
  <path d="m385.32 351.86c-1.1406-1.8008-2.3438-3.5625-3.5156-5.3398-2.3984-3.6406-4.7852-7.2852-7.1289-10.965-2.2734-3.5781-4.4805-7.1953-6.832-10.723-2.4766-3.7266-5.1797-7.2539-7.4492-11.113-0.39844-0.67578-1.4922-0.24219-1.1445 0.50781 1.8711 4.043 3.4141 8.2227 5.332 12.242 1.875 3.9219 4.1016 7.6758 6.3555 11.387 2.2539 3.7109 4.6133 7.375 7.0586 10.965 1.1953 1.7539 2.4102 3.5039 3.6992 5.1875 1.2383 1.625 2.3633 3.457 4.5 3.8281h-0.003907c0.55469 0.042969 1.043-0.35547 1.1055-0.91016-0.007812-1.875-0.71484-3.6797-1.9766-5.0664z"/>
  <path d="m395.29 383.28c-0.40234-2.8438-1.0625-5.6484-1.9727-8.3711-1.6523-5.2539-3.5781-10.504-5.5156-15.656-0.23047-0.61328-1.0898-0.38281-1.1797 0.1875-0.49219 5.4453 0.34375 10.926 2.4414 15.977 0.80859 2.6953 1.4805 5.4336 2.0195 8.1992 0.35938 2.6523 1.2383 5.207 2.5781 7.5234 0.1875 0.21875 0.47266 0.32422 0.75391 0.27734 0.28125-0.046874 0.51953-0.23828 0.62109-0.50391 0.65625-2.4961 0.74219-5.1016 0.25391-7.6328z"/>
  <path d="m354.29 267.66c-2.8906-4.6992-7.8789-7.7031-13.383-8.0586-6.2148-0.44141-12.457 0.32031-18.383 2.25-2.7266 0.64062-5.1953 2.0938-7.082 4.1641-1.6328 2.1836-2.9727 4.5703-3.9883 7.0977-0.30078 0.625 0.66016 1.0859 1.0508 0.55469 2.668-4.0625 6.7812-6.9609 11.504-8.1055 3.1133-0.76172 6.2734-1.3359 9.457-1.7188l-0.80859 0.32812c-2.4102 1.1992-4.457 3.0117-5.9375 5.2539-0.41797 0.53906 0.41406 1.3477 0.89453 0.83594 1.5586-1.375 3.4414-2.332 5.4688-2.7773 2.293-0.60938 4.6602-0.90234 7.0312-0.875 3.9648 0.011719 9.2383 0.070312 11.484 3.9805 0.21484 0.37109 0.60938 0.59766 1.0352 0.59766 1.6641 3.5781 2.793 7.3828 3.3516 11.293 0.17969 0.79297 1.5156 0.87891 1.5195-0.042968 0.23828-5.125-0.87109-10.219-3.2148-14.777z"/>
  <path d="m357.66 290.12c-0.058594-0.30078-0.34766-0.50391-0.65234-0.45703-0.30469 0.046875-0.51562 0.32812-0.47656 0.63672 0.42578 5.3594-0.82422 10.758-0.90234 16.117-0.039062 0.55859 0.33203 1.0664 0.87891 1.1914 0.54688 0.12891 1.1055-0.16016 1.3164-0.68359 1.6367-5.4883 1.5781-11.348-0.16406-16.805z"/>
  <path d="m346.13 274.52c-1.4336 0.98437-2.9375 1.8555-4.5 2.6094-1.875 0.45313-3.8125 0.59375-5.7344 0.41406-3.2891-0.050781-7.2656 0.082031-8.4883 3.7891-0.33984 1.7109-0.46484 3.457-0.36719 5.1953-0.066406 1.9648-0.50391 3.9023-1.2969 5.7031-0.29297 0.63281 0.65625 1.0859 1.0508 0.55469 1.8359-2.2305 3.1914-4.8125 3.9805-7.5859 0.24609-1.0547 0.12109-2.7305 1.2578-3.2305 1.4141-0.34766 2.8789-0.42188 4.3203-0.21875 3.0039 0.28906 6.0273-0.28125 8.7188-1.6406 1.125-0.875 2.3438-1.6172 3.6328-2.2148 1.168-0.36328 1.9688 0.30078 3.0898 0.34375 0.78125 0.0625 1.4766-0.50391 1.5703-1.2852 0.30078-3.7539-4.9883-3.5664-7.2344-2.4336z"/>
  <path d="m341.07 288.77c-1.6406-1.293-3.9023-1.4492-5.707-0.39453-1.8555 0.875-3.3867 2.3125-4.3789 4.1094-0.30859 0.42578 0.19531 1.1602 0.69922 0.85156 1.4961-0.70312 3.1016-1.1602 4.7461-1.3516 1.4844-0.32031 3.2734-0.13281 4.4453-1.2344v-0.003906c0.58984-0.49609 0.67578-1.3711 0.19531-1.9766z"/>
  <path d="m356.92 285.82c-1.418-1.1562-3.3008-1.5586-5.0664-1.0859-1.7617 0.47266-3.1914 1.7656-3.8359 3.4766-0.11328 0.32812-0.023437 0.69531 0.23047 0.93359 0.25391 0.23828 0.625 0.30859 0.94531 0.17578 1.0547-0.55859 2.1914-0.94922 3.3633-1.1523 1.1836-0.16797 2.375-0.007813 3.5547-0.23047v-0.003906c0.46094-0.078125 0.83984-0.39453 1.0039-0.82812 0.16797-0.43359 0.089843-0.92188-0.19531-1.2852z"/>
  <path d="m338.99 294.74c-0.86719 0.11719-1.7031 0.39453-2.4688 0.81641-0.80469 0.47266-1.6875 0.78906-2.6094 0.92578-0.27344 0.054687-0.46875 0.29688-0.46094 0.57422 0.007812 0.27344 0.21875 0.50391 0.49219 0.54297 1.0703 0.21484 2.1641 0.30078 3.2539 0.25781 1.1094-0.070313 2.125-0.62109 2.7891-1.5117 0.59766-0.69141-0.1875-1.7305-0.99609-1.6055z"/>
  <path d="m356.21 291.59c-0.11719-0.25-0.29688-0.46875-0.51563-0.63281-0.44141-0.32031-1.0195-0.37891-1.5117-0.15234-1.2852 0.87109-2.6641 1.5977-4.1055 2.168-0.55859 0.17188-0.375 0.90625 0.035156 1.1094h-0.003906c0.84375 0.48438 1.8242 0.67969 2.7891 0.55469 1.0664-0.097656 2.0742-0.52734 2.8828-1.2305 0.52344-0.44922 0.69531-1.1836 0.42969-1.8164z"/>
  <path d="m350.95 308.1c-1.293 0.21094-2.5469 0.60938-3.7227 1.1875-1.3516 0.86328-2.8984 1.3711-4.5 1.4805-0.28906-0.015625-0.53906 0.19922-0.56641 0.48828-0.03125 0.28906 0.17188 0.55078 0.46094 0.59375 3.4375 0.69141 7.2852 1.5898 9.3789-2.0586 0.23438-0.35937 0.24219-0.82031 0.015625-1.1836-0.22656-0.36328-0.64453-0.5625-1.0664-0.50781z"/>
  <path d="m350.56 303.65c-2.0195-2.9453-3.2852-6.3438-3.6836-9.8945 0.007813-0.56641-0.89062-0.88672-1.0508-0.24219h0.003906c-0.65625 1.9805-0.77344 4.0977-0.33984 6.1367 0.51562 2.125 1.8398 3.9609 3.6914 5.125 0.71094 0.43359 1.8477-0.26172 1.3789-1.125z"/>
 </g>
</svg>