<?xml version="1.0" encoding="UTF-8"?>
<!-- Uploaded to: ICON Repo, www.iconrepo.com, Generator: ICON Repo Mixer Tools -->
<svg fill="#000000" width="800px" height="800px" version="1.1" viewBox="144 144 512 512" xmlns="http://www.w3.org/2000/svg">
 <g>
  <path d="m417.33 243.95c-0.28125-0.82812-0.85938-1.5234-1.625-1.9531 1.2617-4.7188 0.074219-9.7539-3.1641-13.41-3.7109-3.9805-8.7383-6.4766-14.152-7.0195-5.2227-0.62109-10.504 0.52344-15.004 3.2461-4.5 2.7266-7.9609 6.875-9.832 11.793-0.98828 2.6875-1.3828 5.5625-1.1484 8.418 0.11719 1.375 0.41016 2.7305 0.875 4.0273 0.6875 1.3906 1.4688 2.7344 2.3438 4.0156 0.12891 0.24219 0.42188 0.34375 0.67578 0.23047 0.25-0.10938 0.375-0.39844 0.28125-0.65625-0.3125-1.5352-0.41797-3.1055-0.32031-4.668-0.015625-1.332 0.046875-2.6602 0.19141-3.9844 0.23828-2.5078 0.87891-4.957 1.8945-7.2617 2.3086-4.8711 6.625-8.4961 11.82-9.9297 5.1953-1.5391 10.797-0.83203 15.445 1.9492 4.5273 2.8008 7.4766 7.5703 7.957 12.871-0.51953 0.082031-1.0234 0.26562-1.4727 0.54297-0.91797 0.5625-1.6094 1.4336-1.9453 2.457-0.45703 1.4414 0.1875 2.1211 0.57422 3.4531v-0.003907c0.054688 0.29688 0.33203 0.49219 0.625 0.44531 0.29297-0.042969 0.5-0.32031 0.45703-0.61328-0.019532-0.56641 0.58203-1.0625 0.96875-1.4023l0.9375-0.89844c0.60156 0.28125 1.0938 3.9258 1.2109 4.5859v-0.003906c0.40234 2.9102 0.25 5.875-0.45312 8.7305-0.035156 0.44141 0.19531 0.85938 0.58203 1.0664 0.39062 0.21094 0.86719 0.16797 1.2148-0.10156 1.9102-1.8008 2.875-4.3867 2.6094-6.9961-0.042968-3.0391-0.56641-6.0547-1.5469-8.9297z"/>
  <path d="m451.4 281.49c-3.1211-2.8594-7.1992-4.4414-11.434-4.4336-4.1875-0.42969-8.2578-1.6602-11.984-3.625-1.9062-1.0117-3.7422-2.1484-5.4961-3.4062-1.8477-1.1055-3.6211-2.332-5.3125-3.6719-0.44531-0.43359-1.0625 0.15234-0.80469 0.65625 0.66797 1.8672 1.5742 3.6367 2.6953 5.2695 1.3242 1.543 2.8281 2.918 4.4766 4.1055 3.4297 2.418 7.332 4.0859 11.449 4.8984 4.1719 0.16406 8.2852 1.0352 12.168 2.5703 3.25 2.3945 5.8047 5.6055 7.4023 9.3125 0.3125 0.59375 1.0898 0.11719 0.99219-0.44531v0.003906c-0.29297-4.0625-1.7305-7.9609-4.1523-11.234z"/>
  <path d="m412.39 266.3c-0.4375-0.70703-1.4023-0.29688-1.6914 0.28125-1.0117 2.043-1.7305 4.1641-2.8516 6.1836h0.003906c-1.0664 2.2539-2.7656 4.1484-4.8945 5.4492-0.73438 0.42188-1.5391 1.3945-2.3008 1.6875-0.81641 0.31641-1.8789-0.57422-2.6836-1.0039h0.003906c-1.793-0.89844-3.5312-1.9062-5.207-3.0117-3.1289-2.3398-5.8945-5.125-8.2148-8.2695-0.27344-0.34375-1.6133-2.2812-2.5508-3.6719l0.125-0.035157 0.089844-0.027343 0.19531-0.058594 0.20703-0.10938 0.40234-0.3125 0.039063-0.03125 0.13672-0.058594c0.49609-0.22656 0.75-0.78125 0.59766-1.3047-0.15625-0.52344-0.67188-0.85156-1.2109-0.77344-0.48828 0.0625-0.95312 0.24219-1.3516 0.53125l-0.35156 0.44531v-0.003906c-1.2305-1.7188-2.2109-3.6016-2.918-5.5938-0.14844-0.57422-1.0625-0.44141-0.92188 0.14453 0.33203 2.3555 0.80078 4.6914 1.4102 6.9883 0.85547 2.3008 1.9883 4.4883 3.375 6.5117 1.0352 1.4961 2.2109 2.8867 3.5234 4.1484-3.8477 3.7539-7.4453 7.7461-10.777 11.961-2.9805 6-3.6602 12.879-1.9141 19.348 0.074219 0.41016 0.41016 0.71875 0.82422 0.76172 0.41797 0.039062 0.80859-0.19922 0.96484-0.58594 0.59375-3.3984 0.85547-6.8516 0.77344-10.301 0.42578-3.0469 1.7422-5.8984 3.7812-8.1992 2.9258-3.5703 7.1328-6.5273 8.5469-11.016h0.003906c1.7539 1.4297 3.6289 2.7109 5.6016 3.8281 1.9023 1.3281 4.1406 2.1016 6.4609 2.2383 3.0977-0.14453 4.3164-1.8047 6.6641-3.5312l-0.003906-0.003906c2.3945-1.3594 4.4414-3.2578 5.9805-5.5469 1.2461-2.1758 1.2969-4.8359 0.13281-7.0586z"/>
  <path d="m406.42 244.2c-2.3242 0.17188-4.6562 0.0625-6.9531-0.32812-1.5039-0.11719-2.9688-0.55469-4.293-1.2812l0.19141-0.46094c0.55859-2.043 0.86328-4.1523 0.89844-6.2734 0.023437-0.35156-0.21484-0.67188-0.55859-0.75391-0.34766-0.078124-0.70312 0.10156-0.83594 0.43359-0.89063 1.8867-2.0469 3.6406-3.4297 5.2031-1.4531 1.4648-3.0703 2.7617-4.8125 3.8672-3.4336 2.3594-6.1367 5.6367-7.7969 9.457-0.085937 0.25391 0.003906 0.53516 0.22656 0.69141 0.21875 0.15625 0.51172 0.15234 0.72656-0.011718 1.8555-1.3125 3.3359-3.1289 5.1875-4.4844 1.9844-1.4492 4.2031-2.4375 6.2891-3.7109h0.003907c0.59766-0.35938 1.1719-0.76562 1.7148-1.207 1.1289 1.5039 2.8047 2.5039 4.668 2.7773 3.3516 0.84766 6.9062-0.035157 9.4766-2.3438 0.57031-0.59375 0.25781-1.7383-0.70312-1.5742z"/>
  <path d="m440.33 342.21c-0.61328-0.09375-1.2344-0.050782-1.8281 0.125 0.23047-2.5625 0.011719-5.1445-0.64844-7.6289-1.125-4.1914-1.6953-8.5117-1.6875-12.848 0.86328-3.8359 0.97266-7.8047 0.32422-11.684-0.68359-1.8477-1.5469-3.625-2.5781-5.3086-0.85937-1.543-1.5859-3.1953-2.5391-4.6758-0.15234-0.1875-0.39453-0.27734-0.63281-0.23438-0.23828 0.039063-0.4375 0.19922-0.52344 0.42578-0.25781 3.2734 0.36719 6.5547 1.8164 9.5039 0.60938 1.9141 1.1055 3.8672 1.4727 5.8438 0.28906 2.2109 0.16797 4.4531-0.35937 6.6211-0.49219 2.0039-0.76953 4.0586-0.82422 6.125 0.070312 1.9609 0.25781 3.918 0.55078 5.8594 0.30469 3.5234 0.85938 7.0156 1.6641 10.457-1.0781 0.97266-2.0352 2.0352-2.7695 2.8477-2.4492 2.7812-4.6484 5.7734-6.5703 8.9414-1.9492 3.0977-3.8672 6.2188-5.9609 9.2227-1.082 1.5547-2.2578 3.0586-3.4766 4.5078v0.003906c-1.4453 1.3242-2.6094 2.9258-3.418 4.7109-0.085938 0.28125 0.13672 0.66797 0.47266 0.57812 3.3242-1.2383 6.2422-3.3672 8.4453-6.1445 2.4648-2.8359 4.7148-5.8555 6.7227-9.0352 1.9375-3.0586 4.0391-6.0117 6.2969-8.8438 1.1367-1.3438 2.3711-2.6016 3.6914-3.7695 1.1992-1.0781 2.9336-2.2383 3.4883-3.793 0.13672-0.39062 0.089843-0.82422-0.13281-1.1758-0.21875-0.35156-0.58594-0.58203-0.99609-0.63281z"/>
  <path d="m411.2 393.89c0.38281-0.57422 0.34375-1.3281-0.09375-1.8633-0.43359-0.53125-1.168-0.71875-1.8047-0.45703-2.5156 1.457-4.8594 3.2031-6.9766 5.1992-1.207 1.207-2.543 2.2773-3.9805 3.1953-1.4648 0.36719-2.9844 0.44922-4.4766 0.24609-2.7773 0.23437-5.5391 0.61719-8.2773 1.1445-2.9531 0.42578-5.9492 0.48828-8.918 0.1875-0.36719-0.023438-0.69531 0.21875-0.78125 0.57812-0.082031 0.35547 0.10938 0.72266 0.44922 0.85938 2.8672 1.4062 5.9023 2.4336 9.0352 3.0547 3.2227 0.65625 6.5625 0.39062 9.6406-0.76562 1.0742-0.60156 2.0898-1.3008 3.0391-2.0859-0.14844 2.3867-0.12891 4.7812 0.050781 7.1641 0.17578 3.4922 0.44922 6.9805 0.62109 10.473 0.17188 3.4805 0.40234 6.957 0.72656 10.43 0.35547 3.7812 1.4336 7.5586 1.4414 11.352 0 0.90234 1.4023 1.0586 1.4102 0.14063 0.042969-3.6211 0.98828-7.1523 1.2188-10.777l0.003907 0.003906c0.20312-3.5469 0.21875-7.0977 0.050781-10.645-0.15234-3.6289-0.32031-7.2695-0.64453-10.891l-0.003907 0.003906c-0.15234-3.0039-0.68359-5.9727-1.5742-8.8438 0.80078-0.25391 1.5781-0.58984 2.3164-0.99219 0.49609 1.4453 0.90234 2.918 1.2148 4.4141 0.25391 2.5625 0.37109 5.1367 0.35156 7.7148 0.066406 2.3164 0.23438 4.6445 0.41797 6.957 0.21484 2.7266 0.95703 5.4961 0.99219 8.2188 0.011719 0.78125 1.2188 0.92578 1.2266 0.12109 0.035156-2.8008 0.77734-5.6289 0.99609-8.4336 0.22266-2.8242 0.38281-5.6562 0.45312-8.4883h-0.003906c0.58594-4.3789-0.23828-8.832-2.3516-12.711 1.6836-1.2188 3.1211-2.75 4.2305-4.5039z"/>
  <path d="m398.55 380.23c-0.089843-0.375-0.3125-0.70703-0.62891-0.93359-1.6953-1.0938-3.6836-1.6445-5.6992-1.5781-1.7578-0.097656-4.9688 0.082032-5.9883-1.7031-0.39453-0.6875-1.6289-0.48047-1.4375 0.42578v-0.003906c0.60938 2.7383 2.9375 4.7617 5.7383 4.9883 0.92578 0.15234 1.8594 0.24219 2.7852 0.33984l-0.66406 0.42578c-1.8633 1.1289-3.6055 2.4336-5.4375 3.6055-1.8672 1.1758-3.8945 2.082-6.0195 2.6914-2.0156 0.76953-4.1172 1.3047-6.2578 1.5898-0.79297 0.027344-0.62891 1.1602 0.035156 1.293h0.003907c4.2969 0.53516 8.6562-0.21094 12.531-2.1445 2.1836-0.9375 4.3516-1.9688 6.4297-3.125 1.8711-1.0391 4.4375-1.9258 5.2539-4.0156 0.26172-0.69141-0.011718-1.4727-0.64453-1.8555z"/>
  <path d="m409.11 376.2c-1.168-0.99219-2.7656-0.43359-4.1797-0.80078-1.6992-0.49609-3.3672-1.0898-5-1.7734-1.4766-0.59375-3.0508-0.90234-4.6445-0.90625-1.6641 0.003906-3.168 0.60156-4.7891 0.67188-0.57031 0.027343-0.42578 0.90234 0.13672 0.875 6.3164-0.28125 10.848 6.3125 17.352 5.1875v0.003906c0.86328-0.16016 1.5273-0.86328 1.6367-1.7344l0.054688-0.28516c0.046874-0.48438-0.16797-0.95703-0.56641-1.2383z"/>
  <path d="m388.88 389.7c-2.5859 0.40234-5.0664 1.5664-7.6055 2.2109-2.5625 0.64844-5.2266 1.0508-7.7578 1.7891-0.40234 0.11719-0.63672 0.8125-0.09375 0.94141 2.7305 0.5625 5.5508 0.57031 8.2852 0.019531 2.8828-0.33594 5.6523-1.3242 8.0938-2.8945 0.39844-0.33984 0.52344-0.89844 0.3125-1.3789-0.21484-0.47656-0.71875-0.75781-1.2344-0.6875z"/>
  <path d="m389.13 395.14c-2.2539-0.15625-4.5156 0.13672-6.6562 0.85938-2.3672 0.52734-4.6367 1.3203-6.9805 1.8945-0.26953 0.050781-0.46094 0.29297-0.45312 0.56641 0.007812 0.27734 0.21094 0.50391 0.48438 0.54297 4.8086 1.0859 9.8398 0.5 14.27-1.668 0.37109-0.32422 0.51953-0.83984 0.375-1.3125-0.14062-0.47266-0.55078-0.82031-1.0391-0.88281z"/>
  <path d="m388.66 367.12c-1.8086-1.5312-3.8789-2.7188-6.1133-3.5 0.25781-2.2227 0.23828-4.4648-0.0625-6.6797-0.29297-2.9023-0.17969-5.8281 0.33203-8.6992 0.55078-2.6172 0.87891-5.2773 0.98828-7.9492 0.09375-2.6836 0.3125-5.3164 0.61719-7.9844 0.44141-5.0469 0.058594-10.133-1.1328-15.059-0.55469-2.6289-1.0664-5.2852-1.8516-7.8594-0.83984-2.7461-2.0977-5.3281-2.9727-8.0664-0.30859-0.96875-1.7344-0.4375-1.6367 0.48438 0.28516 2.6484 0.19531 5.3047 0.48047 7.9453l0.003906-0.003906c0.34375 2.6211 0.82422 5.2227 1.4375 7.7969 1.4492 5.0352 1.9141 10.305 1.3594 15.516-0.42188 2.5312-1.2031 4.9961-1.6406 7.5234-0.40234 2.5547-0.46094 5.1523-0.18359 7.7266 0.19531 2.6445 0.14063 5.3047-0.16406 7.9375-0.35547 2.1562-0.48438 4.3438-0.38672 6.5234-0.67188-0.007813-1.3438 0.035156-2.0078 0.125-2.2422 0.33984-4.3789 1.1875-6.2422 2.4844-0.21484-4.1914-0.078125-8.3906 0.39844-12.559 0.57031-4.6758 1-9.4219 1.7266-14.074 0.38281-2.4453 1.3086-4.6055 1.9023-6.9688h0.003906c0.5-2.2383 0.85156-4.5039 1.0508-6.7852 0.27344-2.4492 0.45313-4.9297 0.49609-7.3945 0.042969-2.5-0.48828-4.9922-0.3125-7.4805v0.003906c0.03125-0.30859-0.19531-0.58594-0.50391-0.61328-0.30859-0.03125-0.58203 0.19531-0.60938 0.50391-0.39453 2.4609-0.96875 4.8945-1.7188 7.2734-0.57031 2.5547-1.1055 5.1211-1.6094 7.6953h0.003906c-0.59375 2.4062-0.96094 4.8594-1.0898 7.332-0.023437 2.6133-0.35156 5.2148-0.98047 7.7539-1.2383 4.6797-2.1836 9.4297-2.8359 14.227-0.83203 4.3008-0.042968 8.7539 2.2148 12.512-0.76953 0.66797-1.4922 1.3867-2.1602 2.1562-5.3672 7.8438-7.9102 17.277-7.2109 26.758-0.039062 2.3594 0.019532 4.7266 0.16406 7.082h0.003906c0.29688 2.4453 0.375 4.9102 0.23047 7.3711-0.21094 1.5312-0.64453 3.0234-1.2891 4.4258-2.3438 0.35938-4.625 1.0469-6.7695 2.0508-2.4922 0.69922-4.4766 2.5859-5.293 5.043-0.62891 2.8555-0.88281 5.7852-0.75781 8.7109-0.11328 3.3945 0.12891 6.7969 0.72656 10.141 0.074219 0.37109 0.41016 0.63672 0.78906 0.625s0.69531-0.29297 0.75-0.67188c0.42188-2.8359 0.66797-5.6914 0.74219-8.5586-0.15234-2.707 0.15234-5.418 0.89844-8.0195 1.2422-2.7812 4.1953-3.8398 6.8438-5.1719v-0.003906c-0.67188 1.2578-1.25 2.5586-1.7305 3.8984-2.6094 9.0703-0.75 18.84 5.0078 26.316 1.9961 2.1055 3.6484 4.5078 4.8984 7.125 0.76172 2.0742 0.92188 4.3047 1.7656 6.3711 1.4727 4.2578 4.8945 7.5469 9.207 8.8555 0.58594 0.046875 1.1445-0.25781 1.4258-0.77734 0.27734-0.51953 0.22266-1.1562-0.14063-1.6211-2.7617-2.2969-5.2188-4.9375-7.3125-7.8633-0.79297-1.543-1.4492-3.1562-1.9648-4.8164-0.71875-1.9922-1.918-3.7109-2.7617-5.6445-0.80469-1.8516-1.4062-3.7656-2.0664-5.668-0.69531-2.0156-1.6914-3.918-2.4102-5.9336v0.003906c-1.5039-4.0938-2.1406-8.4531-1.8711-12.805 0.42188-4.0352 1.7773-7.9141 3.9492-11.336 1.8594-3.4414 2.5898-7.375 2.0977-11.254-0.98828-8.6797-0.10938-17.469 2.582-25.781 0.60938-1.5977 1.4141-3.1133 2.3984-4.5078-0.73047 2.3203-1.0859 4.7383-1.0469 7.1719 0.21875 2.793 0.68359 5.5586 1.3906 8.2734 0.14453 0.76563 1.4375 0.80859 1.4297-0.039062v-0.003906c0.058594-2.2383 0.25781-4.4766 0.58984-6.6914 0.18359-2.3516 0.61328-4.6797 1.2734-6.9414 0.57422-1.7773 1.3477-3.4805 2.3047-5.082 0.55078-0.77734 1.1758-1.5 1.8672-2.1562 4.0039-0.31641 8.0352-0.11328 11.988 0.60938 0.32813 0.019531 0.62891-0.17188 0.74219-0.47656 0.11719-0.30859 0.015625-0.65234-0.24219-0.85156z"/>
  <path d="m407.91 318.78c-0.82812-1.1484-2.2227-1.5625-3.3164-2.3945-0.92969-0.70703-1.6602-1.6641-2.6133-2.3203-0.24609-0.17188-0.55859-0.21875-0.84375-0.12891-0.28906 0.085938-0.51562 0.30078-0.625 0.58203-0.38281 1.8633 0.0625 3.7969 1.2188 5.3047 1.1523 1.5117 2.9062 2.4453 4.8008 2.5664 0.78125-0.13672 1.4336-0.67578 1.7148-1.4141 0.28125-0.74219 0.15234-1.5742-0.33594-2.1953z"/>
  <path d="m383.91 464.07c-0.29688-3.5898-1.1328-7.1172-2.4883-10.461-1.3398-3.3477-3.4961-6.2461-5.0547-9.4805-2.7539-6.6758-4.082-13.855-3.9023-21.078-0.23438-7.9922-0.96484-15.961-2.1914-23.863-0.074219-0.375-0.42969-0.625-0.80859-0.56641-0.37891 0.058594-0.64063 0.41016-0.59375 0.78906 0.46094 8.1406-1.6172 16.051-1.7266 24.164-0.25391 7.0625 0.87891 14.105 3.3281 20.738 1.3438 3.3711 3.4766 6.2852 5.0508 9.5352h-0.003906c1.4297 3.0508 2.3984 6.2969 2.8711 9.6328 0.73828 6.957 1.0977 13.945 1.0742 20.941 0.046874 0.98047 1.5703 1.0586 1.8555 0.18359 2.1992-6.6094 3.0781-13.586 2.5898-20.535z"/>
  <path d="m388.02 443.39c-2.3242-4.793-4.3164-9.7383-5.9688-14.801-0.66406-2.7266-1.1797-5.5195-1.6562-8.2812v-0.003906c-0.30078-2.6484-0.85938-5.2617-1.6641-7.8047-0.19141-0.41016-0.60937-0.66406-1.0625-0.65234-0.45312 0.015625-0.85547 0.29688-1.0234 0.71875-1.082 5.0508-1.0391 10.277 0.12109 15.309 1.3398 5.2266 3.2344 10.293 5.6484 15.113 3.7773 10.363 5.2812 21.418 4.4141 32.414-0.023438 0.30078 0.19922 0.5625 0.5 0.59375s0.57031-0.18359 0.60938-0.48438c3.3008-10.449 3.332-21.656 0.082031-32.121z"/>
  <path d="m398.57 436.39c-0.80859-9.3984-4.5859-18.297-10.793-25.402-0.41406-0.45312-1.3164-0.16016-1.168 0.52344 1.0391 4.1328 2.3789 8.1836 4.0039 12.125 1.6797 4.3359 2.7812 8.8711 3.2852 13.492 0.52734 4.5898 0.66797 9.2109 0.41797 13.824-0.21875 2.1562-0.71094 4.2812-1.4609 6.3164-0.73438 1.7539-0.82812 3.707-0.26172 5.5195 0.15625 0.33594 0.47656 0.56641 0.84375 0.60547 0.36719 0.035156 0.72656-0.125 0.94531-0.42578 1.0547-1.8086 1.9805-3.6875 2.7773-5.625 0.94922-1.9922 1.5703-4.125 1.8359-6.3125 0.33984-4.8828 0.19922-9.7852-0.42578-14.641z"/>
  <path d="m439.71 399.22c-2.2539 0.16406-4.418 0.9375-6.2656 2.2383-2.4531 1.3164-4.9297 2.6211-7.3242 4.0391-5.0078 2.9688-9.6484 6.4844-14.59 9.5234-0.55469 0.33984-0.21094 1.25 0.42578 0.95703 5.4531-2.5078 11.152-4.4453 16.559-7.1055 2.5195-1.2383 5.0664-2.5469 7.4688-4 1.6953-1.0273 4.1094-2.6953 4.4375-4.7852h-0.003907c0.039063-0.43359-0.27734-0.81641-0.70703-0.86719z"/>
  <path d="m471.76 527.93c-0.84375-4.2617-1.4531-8.5664-1.8242-12.895-0.30469-8.3906-1.1562-16.75-2.5586-25.027-0.80859-3.8711-2.0938-7.6289-3.8281-11.184-1.8594-3.6797-4.5547-6.8594-6.2266-10.637-1.5586-3.8477-2.7812-7.8203-3.6562-11.875-1.1133-4.4336-2.2812-8.8477-3.4258-13.273-2.2852-8.8281-4.4961-17.676-6.7539-26.508 1-0.83984 1.957-1.7383 2.8555-2.6875 1.4023-1.4883 2.4531-3.2734 3.0781-5.2188 0.86328-1.7148 1.1562-3.6602 0.83984-5.5547-0.19922-0.43359-0.61328-0.73047-1.0898-0.77734-0.47266-0.046875-0.9375 0.16016-1.2188 0.54688-1.0312 1.4922-1.1211 3.3164-2.3008 4.8125-1.25 1.5547-2.5859 3.043-4.0039 4.4492-3.2344 3.0273-6.6914 5.8047-10.348 8.3047-3.9414 2.9219-7.9297 5.7734-11.898 8.6562-4.2422 2.9531-8.2344 6.2461-11.941 9.8477-0.20312 0.17578-0.25 0.47266-0.10938 0.70312 0.14062 0.22656 0.42578 0.32031 0.67578 0.22266 4.8789-2.0859 9.5312-4.6719 13.871-7.7188 4.6406-3.1094 9.2031-6.3672 13.707-9.668 1.6523-1.2109 3.3672-2.4102 5.0391-3.6641 0.39453 7.1523 1.582 14.238 3.5391 21.129 2.1367 8.4219 4.0391 16.992 6.7344 25.258 2.5781 7.9062 8.2695 14.113 10.609 22.109 1.9219 8.0586 2.9688 16.297 3.125 24.582 0.21094 4.7578 0.83203 9.4883 1.8516 14.137 0.53906 2.1953 1.2969 4.3203 1.9805 6.4727l-0.003907 0.003906c0.50391 2.4336 1.2656 4.8086 2.2734 7.082 0.17969 0.37109 0.5625 0.60156 0.97656 0.58984 0.41406-0.011719 0.78125-0.26563 0.9375-0.64844 0.82813-3.8633 0.51172-7.8828-0.90625-11.57z"/>
  <path d="m459.34 330.2c0.51172-5.0859 0.20703-10.219-0.89453-15.207-1.3672-5.2539-2.168-10.637-2.3984-16.062 0.023437-0.58594-0.875-0.875-1.0586-0.24609-1.3398 4.5195-1.6914 9.2734-1.0273 13.938 1.0703 5.1367 1.5469 10.375 1.418 15.617-0.47266 5.2188-2.6406 10.141-2.8516 15.387v0.003906c0.039062 4.6406-0.26563 9.2812-0.91016 13.879-1.8672 2.8438-3.9375 5.5469-6.1992 8.0898-2.6953 2.4766-5.5898 4.7227-8.6523 6.7227-3.3672 2.3008-6.7227 4.6211-10.027 7.0117-1.793 1.2969-3.5547 2.5977-5.2617 4.0078-1.6875 1.3945-3.2109 3.0898-4.9727 4.3633-0.64453 0.46484 0.125 1.3398 0.76562 0.9375 1.9922-1.2578 4.3281-2.1172 6.4219-3.2578 1.9531-1.0664 3.8203-2.2656 5.6992-3.457l3.5117-2.2422 0.13281 1.2305c0.15234 1.7383 0.33984 3.4727 0.53516 5.2031h-0.003906c0.3125 3.4297 1.1719 6.7891 2.5547 9.9414 0.12109 0.25 0.38672 0.39062 0.66016 0.34766 0.27344-0.042969 0.48438-0.26172 0.51953-0.53516 0.19141-1.5078 0.27734-3.0312 0.26172-4.5508 0.77344 0.47656 1.5117 1 2.2188 1.5664 0.98438 0.92578 1.9023 1.9141 2.7578 2.9609 1.0898 1.1797 3.3633 3.1328 5.0703 2.168v-0.003907c0.28516-0.13672 0.41797-0.47266 0.29688-0.76953-0.33984-0.91406-1.3086-1.5977-1.8828-2.3906-0.73438-1.0117-1.4609-2.0547-2.2734-3.0117-1.5703-2.0391-3.8164-3.4531-6.3359-3.9844l-0.21484-2.3125c-0.18359-1.7344-0.33984-3.4727-0.5-5.2109-0.039062-0.98047-0.14844-1.9609-0.32422-2.9258 1.3906-0.92188 2.7734-1.8555 4.1484-2.7969h0.003907c3.207-2.1094 6.1758-4.5586 8.8516-7.3125 1.9258-1.9297 3.5352-4.1445 4.7812-6.5664l0.20312-0.26562c1.9336-4.6055 2.6133-9.6445 1.9648-14.598 0.32812-5.3477 2.2656-10.395 3.0117-15.668z"/>
  <path d="m359.34 488.67c-0.47266-3.2031-1.3789-6.3242-2.6914-9.2852-1.1094-3.1484-1.9531-6.3828-2.5234-9.6719-0.76562-3.8867-1.5547-7.7656-2.4258-11.629-0.91406-4.0391-2.6602-7.9609-3.375-12.023v-0.003906c-0.058594-0.34375-0.38672-0.57422-0.73047-0.51953-0.34766 0.054688-0.58203 0.375-0.53516 0.72266 0.61719 3.5156 0.36719 7.2109 0.71875 10.77 0.35156 3.5586 0.89062 7.1211 1.4531 10.652 0.43359 2.707 0.87891 5.418 1.4805 8.0938h0.003906c-1.9844 8.3086-5.1523 16.293-9.4062 23.703-2.2148 3.7969-4.9688 7.2578-8.1758 10.27-1.6133 1.457-3.2695 2.8633-4.7812 4.4258-0.73437 0.75391-1.5391 1.5078-2.2109 2.3203v-0.003906c-0.66016 1.082-1.3984 2.1133-2.207 3.0859-0.50391 0.46094-0.007813 1.4375 0.66406 1.082 1.0273-0.54297 2.2656-0.68359 3.332-1.125 1.0391-0.48438 2.0273-1.0781 2.9375-1.7734 1.918-1.4023 3.6367-3.0547 5.1172-4.9102 3.0352-3.5508 5.8711-7.2656 8.5039-11.121 3.7461-5.5117 6.5859-11.586 8.4141-17.996 0.33203 1.1836 0.63281 2.375 0.86719 3.582 0.69531 2.9336 0.5625 6-0.38281 8.8633-1.4258 2.7344-3.3047 5.207-5.5547 7.3125-4.2109 4.3711-7.8359 9.2656-10.793 14.566-0.52734 1.0195-1.0039 2.0625-1.4219 3.1289-0.60156 0.070312-1.1836 0.25781-1.7148 0.54688-1.3789 0.71875-2.8633 1.207-4.3984 1.4453-1.1367 0.15625-3.8281 0.71484-4.6367-0.32422-0.47266-0.60938-1.3594 0.13672-0.91797 0.75 0.77344 1.0859 1.0234 2 2.2539 2.6641 1.0547 0.53125 2.2305 0.77344 3.4102 0.70703 1.5352-0.066406 3.0547-0.35547 4.5039-0.86328l-0.30859 1.6445v-0.003906c-0.39453 3.4414 0.35938 6.9141 2.1484 9.875 0.11719 0.24219 0.39062 0.36719 0.64844 0.28906 0.26172-0.074219 0.42578-0.32812 0.39062-0.59375 0.078125-3.3242 0.50781-6.6289 1.2812-9.8633 0.58594-3.0586 1.6875-5.9961 3.25-8.6914 1.5195-2.6836 3.375-5.1602 5.5234-7.3711 2.1484-2.1875 4.5391-4.0781 6.5703-6.3867v0.003906c3.9492-4.5039 5.9961-10.363 5.7188-16.344z"/>
  <path d="m417.7 526.36c-1.1602-7.6094-5.6602-14.305-12.27-18.254-0.18359-0.85156-0.39844-1.6992-0.64844-2.5312-1.0391-3.4258-2.6445-6.6602-3.4648-10.152v-0.003906c-0.75781-3.4531-0.85547-7.0195-0.29297-10.512 1.5508-7.1172 3.7109-14.086 6.4492-20.832 2.9609-6.2109 3.5859-13.281 1.7656-19.914-0.16016-0.33203-0.51953-0.51953-0.88281-0.46484-0.36328 0.058593-0.64844 0.35156-0.69531 0.71875-0.17578 3.7812-0.6875 7.543-1.5234 11.238-1.1445 3.6016-2.4727 7.1406-3.9766 10.605-2.8984 6.6523-4.8047 13.695-5.6523 20.902-0.28906 3.5-0.015624 7.0234 0.8125 10.434 0.87109 3.3477 2.332 6.5039 3.3086 9.8164 0.91016 3.0898 1.0586 6.332 1.8867 9.4375 0.35156 1.4297 0.84375 2.8164 1.4688 4.1484 0.86328 1.3555 1.8281 2.6445 2.8828 3.8594 0.45312 0.67188 1.4219-0.12891 0.97266-0.79688-0.64844-1.4336-1.0078-2.9805-1.0586-4.5547-0.21094-1.5352-0.30078-3.0742-0.42188-4.6172l-0.21094-2.2422c1.4414 1.2148 2.7227 2.6133 3.8086 4.1523 1.6289 2.4688 2.7656 5.2266 3.3438 8.125 1.4102 6.2773 0.72656 12.84-1.9453 18.688-3.5352 5.332-8.6758 9.4023-14.672 11.625-6 2.2188-12.551 2.4727-18.707 0.73047-2.5-0.62891-4.8984-1.625-7.1055-2.9609-3.3984-2.3047-5.8984-5.7148-7.0742-9.6484-1.2148-4.9531-0.38281-10.062-1.1289-15.031h0.003906c-0.042969-0.22266-0.21094-0.39844-0.42578-0.44922-0.21875-0.050781-0.44922 0.03125-0.58203 0.21094-3.2344 5.4258-3.8711 12.012-1.7422 17.957l0.46484 1.3086 0.42969 1.3086c-1.2344 0.32031-2.4727 0.79688-3.6602 0.98438-2.293 0.39453-4.6484 0.28516-6.8906-0.32813-1.8945-0.61328-3.6992-1.4609-5.3789-2.5273-2.207-1.0078-4.0273-2.7031-5.1953-4.8281-0.13281-0.30469-0.49219-0.44531-0.79688-0.30859-0.30859 0.13281-0.44531 0.49219-0.30859 0.79688 0.875 2.4336 2.0508 4.75 3.4961 6.8984 1.8164 2.1133 4.2031 3.6602 6.875 4.4492 2.7812 0.88672 5.7305 1.1016 8.6094 0.61719 1.8828-0.26953 3.6875-0.94141 5.293-1.9648l0.5 0.61328h0.003906c2.5703 2.8594 5.7695 5.082 9.3438 6.4922 3.7617 1.5039 7.7617 2.3281 11.812 2.4336-0.97266 1.3242-2.207 2.4375-3.6289 3.2656-2.7539 1.2969-5.5703 2.4531-8.4375 3.4648-2.8633 1.25-5.6016 2.7734-8.4062 4.1406-1.2656 0.61719-2.5234 1.2422-3.793 1.8477l-0.003906 0.003906c-1.4219 0.89453-3.0391 1.4336-4.7148 1.5742-0.35156-0.023437-0.66016 0.23438-0.69531 0.58594-0.035156 0.34766 0.21484 0.66406 0.56641 0.71094 1.6719 0.45312 3.375 0.78516 5.0977 0.98437 1.6406-0.050781 3.2617-0.36719 4.8047-0.9375 3.2891-1.2578 6.4492-2.8359 9.4336-4.707 2.8867-1.6797 5.6406-3.5742 8.2383-5.668 1.3555-1.1211 2.5586-2.3828 3.8672-3.5508l2.1094-1.8242c2.7266-0.21875 5.4258-0.71094 8.0547-1.4688 7.0977-1.8164 13.328-6.0859 17.586-12.047 3.9375-6.625 5.0547-14.551 3.1016-22.004z"/>
  <path d="m375.68 490.85c0.042968-2.2969-0.23047-4.5938-0.8125-6.8164-0.1875-0.39844-0.59375-0.64453-1.0312-0.63281-0.4375 0.015625-0.82812 0.28516-0.99219 0.69141-0.60156 1.8984-1.0039 3.8555-1.1992 5.8359-0.41797 2.0898-0.81641 4.1797-1.1719 6.2852-0.33203 1.9648-0.76953 3.8867-1.2305 5.8242-0.51953 2.1836-0.45312 4.4688-1.1133 6.6172-0.17969 0.58203 0.54688 1.2656 1.0586 0.75391v-0.003906c1.6094-1.3516 3.0078-2.9375 4.1484-4.707 1.0352-2.1914 1.7188-4.5352 2.0234-6.9414 0.37891-2.2812 0.48828-4.5977 0.32031-6.9062z"/>
  <path d="m376.86 514.86c-1.1562 0.51953-2.1719 1.3008-2.9727 2.2773-0.67578 0.74219-1.6484 1.6055-1.6367 2.6875v0.003906c-0.03125 0.375 0.1875 0.73047 0.53906 0.86719 1.0977 0.12109 2.2031-0.19531 3.0703-0.87891 1.1875-0.58203 2.2227-1.4297 3.0273-2.4805 0.41016-0.61328 0.36719-1.418-0.097656-1.9883-0.46484-0.57031-1.25-0.76562-1.9297-0.48828z"/>
  <path d="m357.71 516.37c-0.54297-0.79688-1.3359-2.0234-2.3281-2.2617h-0.003907c-0.32422-0.11328-0.67969 0.050781-0.80469 0.37109-0.11328 1.0508 0.042969 2.1172 0.44922 3.0938 0.33594 1.3633 0.42969 2.6523 1.8086 3.3203l-0.003907 0.003907c0.79688 0.27734 1.6758-0.12109 1.9844-0.90625 0.60547-1.2852-0.39453-2.5859-1.1016-3.6211z"/>
  <path d="m363.98 557.67c-0.10938-0.24219-0.32422-0.41797-0.58203-0.47656-0.25391-0.0625-0.52734 0-0.73047 0.16016-1.5977 1.1172-1.7031 3.3359-3.2617 4.5703h-0.003906c-1.625 1.1719-3.1719 2.457-4.625 3.8398-1.332 1.375-2.4648 2.9336-3.3711 4.6211-0.59375 1.6016-1.0039 3.2656-1.2188 4.9609-0.15234 0.56641 0.67578 0.90625 0.875 0.32422 0.625-1.8438 2.6992-3.2188 4.1875-4.4453 1.5859-1.3047 3.4102-2.2734 4.9883-3.6055v0.003906c1.4023-1.2266 2.4414-2.8125 3-4.5898 0.89453-1.6406 1.1562-3.5469 0.74219-5.3633z"/>
  <path d="m347.78 571.21c-0.48438-1.3906-0.79297-2.8398-0.91797-4.3086 0.070313-1.3945 0.25781-2.7852 0.56641-4.1484 0.73828-2.2812 0.42969-4.7656-0.83984-6.7969-0.16406-0.19141-0.42578-0.26563-0.66406-0.19141-0.24219 0.070313-0.41406 0.27734-0.44922 0.52734-1 4.7539-6.8945 14.633 1.2109 16.434 0.88672 0.19531 1.2969-0.83984 1.0938-1.5156z"/>
  <path d="m455.17 519.76c-3.3633-8.7852-7.1836-17.363-11.223-25.859-2.0195-4.1953-3.4727-8.6367-4.3281-13.215-0.85156-4.3867-2.3633-8.6211-4.4844-12.555-2.6055-4.9297-5.3711-9.8008-8.2734-14.559-1.4453-2.3672-2.8281-4.7773-4.3242-7.1094-1.5391-2.4023-3.4141-4.5703-5.0039-6.9375-0.40625-0.60547-1.3203 0.019531-1.0625 0.65234 1.8828 4.5781 3.5195 9.1602 5.6133 13.66 2.082 4.4688 4.2617 8.8828 6.5391 13.25h0.003906c2.2617 3.7969 4.0977 7.8281 5.4727 12.031 0.84766 4.4297 2.0273 8.7852 3.5312 13.039 3.5547 8.332 7.7148 16.367 11.078 24.797 1.7266 4.3203 3.3633 8.6797 4.9141 13.07l0.003906-0.003907c1.6992 4.2383 2.9961 8.625 3.8711 13.105 0.91406 4.4922-0.070312 9.1641-2.7188 12.906-2.2852 2.8945-6.2578 5.6211-5.2031 9.8164 0.12891 0.70312 0.71094 1.2383 1.4258 1.3125 0.71094 0.070313 1.3867-0.33984 1.6562-1.0039 1.4375-3.5234 4.5117-5.5703 6.5312-8.6758h-0.003906c2.1289-3.4609 3.1953-7.4688 3.0664-11.527-0.80859-9.082-3.2031-17.945-7.082-26.195z"/>
  <path d="m476.08 548.78c0.51562-1.4844 0.21875-3.1289-0.78125-4.3398-0.21875-0.25-0.58594-0.30078-0.86719-0.12891s-0.39453 0.52344-0.27344 0.82812c0.37891 1.2812-1.3594 3.1797-1.7305 4.457-0.36328 1.3828-0.47656 2.8203-0.33594 4.2461 0.20312 2.9219 1.3164 6.3867-0.24609 9.1094-1.3906 2.4258-4.3984 3.2148-6.7852 4.3516v-0.003906c-3.0078 1.6406-6.3984 2.4492-9.8203 2.3477-0.35156-0.027343-0.67969 0.18359-0.80469 0.51562-0.12109 0.33203-0.011719 0.70312 0.26953 0.91406 3.2812 1.9883 7.3086 2.3203 10.875 0.90234 3.6055-1.0742 6.7305-3.3594 8.8555-6.4648 1.75-3.2227 2.2891-6.9688 1.5195-10.555-0.23438-2.0547-0.19141-4.1328 0.125-6.1797z"/>
  <path d="m448.11 480.25 0.015625 0.003906z"/>
  <path d="m448.12 480.25-0.17969-0.039062c-0.28125-0.089844-0.57812-0.10938-0.86719-0.058594l-0.26562-0.015625-0.95703-0.16016c-0.78906-0.24219-2.0195-0.69141-2.6367 0.13672-0.91406 1.2344 0.14453 2.7109 1.0898 3.5273 1.0469 1 2.5117 1.4297 3.9297 1.1602 1.1328-0.19141 1.9492-1.1836 1.918-2.3281-0.027344-1.1406-0.89453-2.0898-2.0312-2.2227z"/>
  <path d="m398.09 256.38c-1.1562-0.64453-2.5703-0.60156-3.6836 0.11328-0.60547 0.30078-1.1719 0.65625-1.7461 1.0117-0.49219 0.39453-1.0273 0.72266-1.6016 0.97656-0.26953 0.050781-0.47656 0.27344-0.50391 0.55078-0.027343 0.27344 0.12891 0.53125 0.38281 0.63672 1.168 0.53906 2.5078 0.55078 3.6836 0.03125 1.2539-0.46875 2.4375-1.1055 3.5156-1.8984 0.21484-0.17578 0.33594-0.44531 0.32422-0.72266-0.007812-0.27734-0.14844-0.53516-0.37109-0.69922z"/>
 </g>
</svg>