<?xml version="1.0" encoding="UTF-8"?>
<!-- Uploaded to: ICON Repo, www.iconrepo.com, Generator: ICON Repo Mixer Tools -->
<svg fill="#000000" width="800px" height="800px" version="1.1" viewBox="144 144 512 512" xmlns="http://www.w3.org/2000/svg">
 <g>
  <path d="m373.27 369.75 0.039062 0.11328c0.20312 0.44531 0.625 0.74609 1.1055 0.79297 0.48438 0.050781 0.96094-0.16406 1.2461-0.55469 1.1602-3.0391 1.2188-6.3906 0.16406-9.4648-0.76172-3.1836-2.3828-6.0977-4.6875-8.4219-2.0078-2.1406-4.4258-3.8555-7.1094-5.043-0.49219-0.32031-1.043-0.53516-1.6211-0.63281-2.6562-0.91797-5.4609-1.3242-8.2656-1.2031-1.0117-1.1211-2.1055-2.1641-3.2734-3.1211-1.4453-1.3086-2.9141-2.543-4.4375-3.7617-3.1602-2.5312-6.3789-5.0117-9.4766-7.625h0.003907c-4.9062-5.0977-8.9648-10.949-12.02-17.332-4.207-5.5586-9.2852-10.398-15.043-14.324-5.4961-4.3242-9.4453-10.305-11.262-17.055-0.039063-0.19922-0.20312-0.35156-0.40625-0.37109-0.20312-0.019532-0.39453 0.09375-0.46875 0.28516-2.6172 6.5625 2.3906 13.219 6.9297 17.543v-0.003906c5.8398 4.4766 11.164 9.5938 15.867 15.25 3.2695 6.5352 7.3281 12.641 12.086 18.184 3.1367 2.8711 6.5859 5.4219 9.9062 8.0703 1.7305 1.3828 3.4414 2.7695 5.2539 4.043l1.3164 0.97266c-5.6992 1.3867-10.527 5.1523-13.262 10.34-0.85547 1.6836-1.5195 3.457-1.9766 5.2891l-1.1875-2.5117c-1.7227-3.6836-3.6953-7.2461-5.9023-10.664-2.168-3.457-4.7109-6.6484-7.043-9.9961-2.3555-3.3789-4.3594-6.9922-6.668-10.406-4.7148-6.9727-9.7617-13.73-14.738-20.52l0.003906 0.003906c-4.0664-6.7812-9.2031-12.859-15.203-18.008-3.625-2.3047-7.5742-4.0508-11.719-5.1836-4.5547-1.5977-9.2695-2.6836-14.062-3.2461-0.54297-0.050782-0.95312 0.78125-0.40234 1.0742 7.0078 3.7227 14.973 5.6758 21.809 9.7383 6.0742 4.4922 11.16 10.191 14.934 16.738 4.7773 6.6836 9.625 13.316 14.395 20.004 2.3047 3.2344 4.8086 6.3359 7.0469 9.6133 2.1523 3.2656 4.1094 6.6602 5.8633 10.16 2.0078 3.8398 4.0469 7.6914 6.2422 11.43 1.9961 3.4062 3.4648 7.4375 5.8086 10.656h-0.003906c0.15625 2.9023 0.65234 5.7773 1.4805 8.5664 1.0977 3.9336 3.2578 7.4883 6.2422 10.277 1.1562 1.1094 2.4883 2.0234 3.9375 2.7031 0.30078 2.0195 0.22656 4.0742-0.20703 6.0703-0.26953 1.8477-0.83594 3.6406-1.6719 5.3086-0.74609-0.28125-1.1367 0.82812-0.42578 1.1602 2.8086 1.2969 4.3516-2.375 5.3281-4.4805 1.1406-2.2891 1.5391-4.8789 1.1406-7.4062l1.875-0.15234c0.20312-0.039062 0.35547-0.20312 0.375-0.40625 0.019532-0.20312-0.097656-0.39453-0.28516-0.47266-1.1484-0.39062-2.2461-0.92578-3.2617-1.5938-0.19531-0.21875-0.44922-0.38672-0.72656-0.48047-1.0586-0.73047-2.0703-1.5234-3.0273-2.375-2.1953-2.0664-3.8438-4.6406-4.7969-7.4961-1.0352-3.0352-1.6641-6.1914-1.8672-9.3906-0.53906-3.3477-0.34375-6.7734 0.56641-10.043 2.2109-4.5 6.1406-7.9258 10.902-9.5 4.7617-1.5703 9.957-1.1641 14.414 1.1367 0.61719 1.2891 0.96094 2.6914 1.0156 4.1172 0.14453 3.832-0.53516 7.6523-2 11.195-2.1797 5.4609-6.3789 11.504-4.8242 17.656 0.13672 0.54687 1.0273 0.78906 1.2109 0.12109 2.082-7.5508 7.4609-13.586 9.1992-21.266l-0.003907 0.003906c0.55469-2.3359 0.81641-4.7344 0.78125-7.1367 1.0391 1.4844 1.9648 3.043 2.7695 4.668 0.69922 1.2461 1.1836 2.6016 1.4414 4.0117l0.15234 1.3672-0.20312-0.019531v-0.003907c-1.75-0.023437-3.2734 1.1797-3.6641 2.8867-0.42969 1.9727-0.11719 4.0312 0.875 5.793 0.82812 1.6562 2.2148 4.0898 4.2383 4.2148 0.44922 0.039063 0.89062-0.13281 1.1992-0.45703 0.30859-0.32812 0.45312-0.78125 0.39062-1.2266-0.29297-1.7734-2.1484-3.0664-2.8711-4.7578-0.33203-0.77734-0.82031-1.9727-0.39062-2.7969l-0.003906 0.003907c0.19531-0.34375 0.53125-0.58203 0.91406-0.65234z"/>
  <path d="m348.29 455.98c-1.4727-6.8945-3.3047-13.711-5.4922-20.414-2.9297-5.9844-5.1172-12.305-6.5234-18.816-0.46484-3.1445-0.32422-6.3477 0.41797-9.4375 0.36328-1.3984 0.85547-2.7617 1.4648-4.0742 0.5625-1.6562 1.4414-3.1875 2.5898-4.5078 0.19531-0.16016 0.22266-0.44531 0.066406-0.64062-0.16016-0.19531-0.44531-0.22656-0.64062-0.066407-1.1797 0.65625-2.3164 1.3867-3.4023 2.1836-0.98047 0.95312-1.793 2.0586-2.4141 3.2773-1.2578 2.4805-2.0078 5.1875-2.2031 7.9648-0.22656 6.3555 0.94922 12.688 3.4453 18.535 1.2656 3.4727 2.6445 6.9062 3.7695 10.43 1.0703 3.7383 1.9258 7.5312 2.5664 11.363 2.3984 7.0625 3.793 14.426 4.1406 21.879-0.60938 3.8555-1.4258 7.6758-2.4492 11.441-0.84375 3.375-0.77734 6.9102 0.19141 10.246 0.30078 0.90625 1.6992 0.43359 1.5703-0.46484-0.27734-3.3398 0.49609-6.6875 2.2109-9.5703 1.5938-2.7852 2.8008-5.7773 3.5898-8.8867 0.66406-6.9492-0.32812-13.953-2.8984-20.441z"/>
  <path d="m397.47 514.88c-1.2227 0.32031-2.3906 0.8125-3.4688 1.4688-1.1914 0.53125-2.4258 0.96094-3.6875 1.2812-2.4883 0.63281-5.0508 0.93359-7.6172 0.89844-4.6602 0.20312-9.3008-0.73047-13.523-2.7188-10.598-5.832-9.2617-19.547-9.543-29.785-0.015625-0.56641-0.84766-0.89453-1.0586-0.24609h0.003907c-3.3555 8.5703-3.2656 18.105 0.24219 26.613l-0.83594-0.17188c-2.2266-0.47656-4.3477-1.3438-6.2695-2.5664-1.7812-1.1133-3.1836-2.7383-4.0273-4.6602-0.75391-2.3008-1.7148-4.5273-2.875-6.6523-0.10938-0.125-0.28125-0.17578-0.44531-0.12891-0.16016 0.050781-0.27734 0.1875-0.29688 0.35547-0.058594 2.7695 0.30469 5.5312 1.0781 8.1914 0.54688 2.3359 1.7812 4.457 3.5352 6.0938 1.9961 1.7383 4.3633 3 6.918 3.6953 1.8906 0.5625 5.0039 1.7539 6.957 0.75391 1.1875 1.1172 2.5078 2.0859 3.9297 2.8789 5.0039 2.6914 10.699 3.8242 16.355 3.2539 3.0742-0.21094 6.1172-0.73438 9.0859-1.5625 2.5234-0.75391 6.3398-2.1836 7.2188-4.9453 0.17969-0.50781 0.078125-1.0742-0.26562-1.4922-0.33984-0.41797-0.875-0.62891-1.4102-0.55469z"/>
  <path d="m538.11 409.71c-4.6289 5.6758-9.8906 10.812-15.676 15.305-5.8281 4.3008-12.367 7.543-19.32 9.5742-8.3516 2.4219-17.039 3.3047-25.477 5.3516v-0.003906c-8.5391 2.168-16.945 4.8398-25.168 8.0039-4.6016 1.7188-9.1797 3.4961-13.738 5.332-3.9141 1.3281-7.707 2.9922-11.332 4.9766l-0.003906-0.019531c-0.35938-1.9258-0.96094-3.7969-1.793-5.5703-0.86328-1.832-2.0547-3.5234-2.8516-5.375-1.125-3.6328-2.0508-7.3281-2.7695-11.062l-0.45312-1.2891c1.6133 0 3.2305-0.03125 4.8477-0.125h-0.003906c6.0547-0.14844 11.988-1.7461 17.297-4.6602 4.8359-2.4531 8.4766-6.7578 10.098-11.934 0.25-1.1602-1.3398-1.457-1.957-0.73047-1.6523 2.168-3.5586 4.1367-5.6719 5.8594-2.0625 1.4688-4.3086 2.6602-6.6797 3.5508-5.7812 1.9844-11.883 2.8789-17.992 2.6406-6.4297 0-12.895-0.50781-19.316 0.007813h-0.003906c-2.9297 0.20703-5.8203 0.79688-8.5938 1.7656-2.7578 0.80469-5.2266 2.3828-7.1211 4.543-0.10156 0.14453-0.11719 0.33594-0.046875 0.49609 0.074219 0.16016 0.23047 0.27344 0.40625 0.29297 1.4766-0.082031 2.9414-0.30078 4.375-0.64844 1.5781-0.20313 3.1602-0.39844 4.7422-0.55859 1.8828-0.19531 3.7695-0.37109 5.6562-0.50781h0.003906c-0.52734 2.2383-0.86328 4.5156-1.0078 6.8086-0.32422 3.293-0.57031 6.5938-0.90234 9.8867-0.33594 3.293-0.56641 6.5781-0.92969 9.8633-0.17578 1.5703-0.38281 3.1328-0.59766 4.6992h-0.003906c-0.15625 1.0547-0.19141 2.1211-0.10938 3.1797-0.69141 0.39062-1.3438 0.83594-1.957 1.3398-1.1367 1.1133-2.0898 2.3984-2.832 3.8047-0.26172 0.39453 0.15625 1.0195 0.625 0.76563 1.4453-0.61328 2.9219-1.1523 4.4258-1.6055 1.4102-0.59766 2.8594-1.1016 4.3398-1.5039 2.0156-0.28516 4.0117-0.67969 5.9805-1.1797-0.015625 1.9297-0.13672 3.8555-0.35938 5.7695-0.91797 5.7227-2.1328 11.395-3.6406 16.992-1.4922 5.5547-2.1602 11.297-1.9727 17.043-0.22656 5.1445 1.75 10.145 5.4375 13.746 1.7773 1.2539 4.1406-1.1484 2.6523-2.8438v-0.003906c-3.2188-4.2617-4.5039-9.6797-3.5391-14.938 0.625-5.7383 1.6875-11.418 3.1797-16.996 1.3711-5.2148 2.2109-10.559 2.5078-15.945 0.58594-4.8711-0.87109-9.7656-4.0234-13.523l-0.38672 0.17578v0.003906c-0.097657 2.0234-0.066407 4.0508 0.085937 6.0703-1.2031 0.12891-2.3984 0.32422-3.582 0.59375-0.76562 0.125-1.5195 0.26562-2.2656 0.44141l0.035156-0.13672c0.34375-1.5391 0.5625-3.1172 0.76562-4.6797 0.42578-3.4102 0.63281-6.8477 0.61328-10.289-0.011718-3.457-0.019531-6.9102 0.09375-10.367 0.078126-2.4258 0.34766-4.8984 0.23828-7.3359l1.6016-0.058594c3.0938-0.0625 6.1875 0.035156 9.2812 0.12109h0.003906c0.29688 0.21875 0.64063 0.37109 1.0039 0.44141 1.0742 0.21484 1.5938 2.2344 1.9297 3.0469h-0.003906c0.71094 1.5898 1.5 3.1445 2.3672 4.6562 1.4922 3.0312 2.4922 6.2812 2.9648 9.625 0.78906 3.3711 1.3906 6.7891 1.793 10.23 0.17969 3.3438 0.14844 6.6953-0.097656 10.035-0.35938 6.6133-1.2109 13.145-2.1719 19.691-0.47656 3.25-1.0703 6.4805-1.7695 9.6953-0.59375 3.5586-1.4102 7.0781-2.4336 10.539-0.082032 0.24219 0.042968 0.5 0.27734 0.58984 0.23828 0.089844 0.50391-0.027344 0.59766-0.26172 1.4258-3.7148 3.3125-7.1797 4.5938-10.973 1.1758-3.4844 2.2266-7.0273 3.0547-10.609h-0.003906c1.6641-7.4102 2.5469-14.977 2.6406-22.57 0.074219-2.625-0.007812-5.25-0.25391-7.8672 3.5117-0.73047 6.9453-1.7852 10.262-3.1484 4.4062-1.543 8.7695-3.2031 13.137-4.8555 8.5898-3.4219 17.379-6.3281 26.312-8.7031 8.8008-2.1758 17.938-2.8711 26.648-5.3984v0.003907c7.0703-2.0625 13.75-5.2773 19.773-9.5156 3.4375-2.4062 6.6367-5.1367 9.5469-8.1562 2.9062-3.0312 5.3359-6.4844 7.2031-10.246 0.80859-1.5859-1.5781-2.5391-2.5859-1.3633z"/>
  <path d="m425.54 508.11c-0.17578-0.36328-0.52734-0.61328-0.92969-0.65234s-0.79688 0.13281-1.0391 0.45703c-0.99609 1.4883-1.8164 3.0938-2.4336 4.7773-0.76172 1.5039-1.6758 2.9297-2.7227 4.25-2.418 2.2227-5.082 4.1602-7.9375 5.7773-0.15625 0.13672-0.22266 0.35547-0.16016 0.55469 0.058594 0.19922 0.23438 0.34766 0.44141 0.375 4.0352 0.55859 8.0781-0.98438 10.711-4.0938 2.2656-2.6172 6.1328-7.8477 4.0703-11.445z"/>
  <path d="m541.95 414.21c-0.16797-0.49219-0.80469-0.25781-0.89062 0.14062-0.88281 4.0977-1.2656 8.3008-2.1016 12.414-1.0508 3.5195-3.0078 6.7031-5.6797 9.2305-2.625 3.1758-5.0977 6.4375-7.6094 9.6992h0.003907c-1.1992 1.6758-2.6484 3.1523-4.2969 4.3828-1.6797 1.25-3.6602 2.0234-5.7383 2.2422-1.0117-0.011718-1.5625 1.5469-0.43359 1.8633v0.003906c1.7031 0.63281 3.5586 0.73438 5.3203 0.28906 2.0312-0.75781 3.8672-1.9609 5.3711-3.5234 3.6445-3.5547 6.9531-7.5312 10.219-11.43h-0.003906c3.3164-3.0586 5.6875-6.9961 6.832-11.359 0.74219-4.6641 0.40234-9.4375-0.99219-13.953z"/>
  <path d="m518.57 446.4c-5.3516 1.9023-10.336 4.7188-14.727 8.3281-4.4141 3.2852-9.0156 6.3086-13.785 9.0508-2.3164 1.2812-4.7695 2.2969-7.3164 3.0312-2.6641 0.59375-5.375 0.97266-8.1016 1.1367-2.543 0.25781-5.043 0.85547-7.4297 1.7852-0.86328 0.34375-1.6914 0.76562-2.4766 1.2578 0.43359-0.91016 0.93359-1.7891 1.4961-2.6289 0.14844-0.23047 0.089843-0.53906-0.13672-0.69531-0.22266-0.16016-0.53125-0.11328-0.69922 0.10156-1.3438 1.7109-2.8086 3.3242-4.3828 4.8281-1.4062 1.5078-2.7539 3.0703-4.1055 4.6289-2.7578 3.1875-5.3594 6.5039-8.1484 9.6641-5.4727 6.2031-11.734 11.594-17.32 17.668-0.69922 0.75781 0.38281 1.7773 1.1914 1.457v-0.003907c7.6875-3.6289 14.367-9.082 19.461-15.887 2.7539-3.1758 5.3008-6.5273 7.6211-10.031 0.67187-1.043 1.3242-2.0977 1.9531-3.168l0.32813-0.089844c2.4844-0.98438 5.0391-1.8164 7.5391-2.7617 2.6367-0.87109 5.3789-1.375 8.1523-1.5039 5.2656-0.49219 10.371-2.082 14.98-4.6758 4.668-2.75 9.1484-5.8008 13.418-9.1328 4.9688-3.0703 9.3672-6.9805 12.992-11.559 0.21484-0.33594-0.050781-0.91797-0.50391-0.80078z"/>
  <path d="m359.14 393.61c-0.32031-2.4609-2.8828-4.293-4.793-5.6445v0.003906c-2.0312-1.2539-3.9258-2.7148-5.6562-4.3555-3.4844-3.5352-5.4844-8.2656-5.5938-13.23 0.019532-0.23828-0.15625-0.45312-0.39844-0.47656-0.23828-0.023438-0.45312 0.14844-0.48438 0.39062-1.293 4.9141-0.55078 10.141 2.0586 14.504 1.3867 2.1953 3.2227 4.0781 5.3828 5.5273 1.1875 0.76562 2.3359 1.5977 3.4336 2.4883 1.2148 1.0586 1.9258 2.2852 3.4453 2.9258v-0.003907c0.64844 0.23438 1.3711 0.10938 1.9023-0.32812 0.53516-0.43359 0.80078-1.1172 0.70312-1.8008z"/>
  <path d="m367.29 377.59c-0.60938-0.98828-1.9414-0.40234-2.3438 0.39062-1.1211 2.2188-1.5781 4.7109-2.6953 6.9688l0.003906-0.003907c-1 1.5195-1.7734 3.1719-2.3008 4.9102-0.32812 0.13672-0.53125 0.60156-0.14062 0.82422l0.54688 0.36719h0.003907c0.30469 0.22656 0.71094 0.26562 1.0547 0.10547 4.2969-1.9805 8.6094-9.125 5.8711-13.562z"/>
  <path d="m361.76 450.22c-0.007812-2.9805-0.30859-5.9492-0.89453-8.8711-0.3125-1.4258-0.69922-2.8359-1.125-4.2305v-0.003907c-0.52734-1.4727-1.2266-2.8789-2.082-4.1914-0.10938-0.21875-0.35938-0.33203-0.59766-0.26172-0.23438 0.070313-0.38672 0.30078-0.35547 0.54297 0.066406 1.4883-0.12109 2.8906 0.007813 4.3984 0.13281 1.5469 0.15234 3.0859 0.17969 4.6367 0.046875 2.8984 0.046875 5.7852-0.074219 8.6797-0.24609 5.8867-0.27344 11.758-0.38672 17.648h-0.003907c-0.046875 0.78906 0.53906 1.4766 1.3242 1.5547 0.78906 0.078125 1.4961-0.47656 1.6094-1.2617 1.5078-6.1016 2.3125-12.355 2.3984-18.641z"/>
  <path d="m514.52 296.04c-1.5664 1.3945-3.2266 2.6758-4.9727 3.832-2.0625 1.168-4.2188 2.1641-6.4414 2.9805-4.3047 1.3438-8.457 3.1328-12.391 5.3359-4.0938 3.1328-7.5 7.0742-10 11.582-2.9922 4.3711-6.7461 8.1719-11.082 11.215-9.418 5.6484-18.32 12.109-26.613 19.312-4.3828 4.5-8.3828 9.3672-12.469 14.133-4.0859 4.7656-8.4258 9.4023-12.148 14.461h0.003906c-3.4609 4.9102-6.0469 10.387-7.6406 16.18-0.83594 2.7578-1.4062 5.5938-2.4883 8.2734-0.72656 1.7305-1.6797 3.3633-2.8281 4.8477-1.8086-0.26172-3.582-0.71875-5.2891-1.3633-2.5898-0.99219-4.8477-2.6211-7.4219-3.6367v-0.003906c-2.4336-0.94922-4.9844-1.5664-7.582-1.8398-2.0156-0.24219-4.0469-0.37109-6.082-0.37891-0.38672-0.51953-0.74219-1.0625-1.0664-1.6211-0.42188-1.1094-0.72266-2.2617-0.89453-3.4336l-0.011719-0.050781h0.003906c1.5508-3.4141 2.4062-7.1016 2.5234-10.848 0.60938-4.2852 0.26172-8.6523-1.0234-12.789-0.082031-0.16797-0.26562-0.26172-0.44922-0.23438-0.1875 0.03125-0.33203 0.17969-0.35547 0.36328-0.16406 1.9922-0.20703 3.9961-0.12891 5.9922-0.050781 2.1484-0.26953 4.293-0.65234 6.4062-0.30078 1.5742-0.70313 3.1328-1.1172 4.6836l-0.68359-4.0117c-0.058594-0.30469-0.32812-0.51953-0.64062-0.51172-0.30859 0.007813-0.56641 0.24219-0.60547 0.54688-0.23437 4.0898-0.88672 8.3711-0.71094 12.457 0.070313 1.2109 0.34375 2.3984 0.81641 3.5117-1.6406 0.30859-3.2148 0.88281-4.6641 1.7031-0.23047 0.11328-0.375 0.35156-0.36719 0.60547 0.007813 0.25781 0.16406 0.48438 0.40234 0.58203 5.0234 1.0273 10.141 1.5156 15.266 1.4609 5.1875 1.2461 10.258 2.9297 15.164 5.0234 4.7031 1.5508 9.6602 2.1914 14.602 1.8828 2.4844-0.23438 4.9766-0.32422 7.4727-0.27344 1.3359 0.050782 2.6641 0.26562 3.9531 0.63281 1.0742 0.44922 2.2383 0.67188 3.4062 0.64062 0.66797-0.11719 1.2266-0.57812 1.4688-1.2148 0.24219-0.63281 0.13281-1.3516-0.28906-1.8867-1.5156-1.5547-3.6094-2.4141-5.7852-2.3711-1.2539-0.95703-2.8203-1.7969-3.375-2.2773-1.3828-1.1953-2.543-2.6055-3.8086-3.918-1.0742-1.1133-2.3516-2.1289-3.4258-3.2695 1.8438-4.1016 3.0898-8.457 5.2656-12.414 3.3789 5.1797 7.6602 9.707 12.641 13.375 2.8516 1.8047 5.4883 3.9297 7.8594 6.332 1.1094 1.1797 2.2578 2.3281 3.3164 3.5547 1.1211 1.2969 2.4258 2.4688 3.5117 3.7773 0.59766 0.71875 2.0977 0.21484 1.8008-0.80469h-0.003906c-0.35156-1.668-0.91016-3.2852-1.668-4.8125-0.74609-1.3867-1.6133-2.707-2.5898-3.9492-2.293-2.6523-4.9531-4.9688-7.8945-6.8789-0.94141-0.63672-1.8477-1.2773-2.7344-1.9336 1.9922-2.3516 3.3828-5.1523 4.0547-8.1602 0.66016-3.3164 0.9375-6.6992 0.82812-10.078 0.13281-3.1445 1.6289-6.0742 4.0977-8.0195 2.5742-2.0703 6.4141-2.957 8.543-5.5 0.16797-0.24609 0.19531-0.56641 0.070313-0.83984-0.12109-0.27344-0.38281-0.46094-0.67969-0.49219-3.4727 0.26562-6.7695 1.6211-9.4258 3.8711-2.6836 1.7891-4.8477 4.25-6.2773 7.1367-0.97266 3.5234-1.2734 7.1953-0.89062 10.828-0.066406 2.0508-0.32422 4.0859-0.77344 6.0859-0.32031 1.3438-0.80469 2.6484-1.0977 3.9961-1.6289-1.2617-3.2031-2.582-4.793-4.0078-2.1758-1.9531-4.4375-3.707-6.75-5.4258h0.003906c3.0273-4.5117 6.3867-8.7969 10.051-12.812 4.2148-4.9297 8.3633-9.9258 12.695-14.758l0.003906 0.003906c4.043-4.5781 8.6328-8.6406 13.664-12.102 4.4141-3 9.0586-5.6484 13.473-8.6484v0.003907c4.4023-2.8594 8.3555-6.3594 11.723-10.383 2.7656-4.5703 6.0234-8.8203 9.7148-12.68 4.168-2.8047 8.7344-4.9609 13.547-6.4023 4.3203-1.7109 9.7812-4.2617 11.254-9.0586v-0.003906c0.1875-0.56641-0.015625-1.1914-0.5-1.5391-0.48828-0.34375-1.1445-0.33594-1.6172 0.027344zm-97 111.71 0.45312 0.45703-1.5859 0.11328v0.003906c-2.6445 0.23047-5.2969 0.28906-7.9492 0.17188 1.918-2.4766 3.5391-5.168 4.8359-8.0156 0.30859 1.0508 0.70312 2.0742 1.1758 3.0625 0.82031 1.5391 1.8555 2.957 3.0703 4.207z"/>
  <path d="m452.45 366.21c-0.23828-0.28906-0.60156-0.44922-0.97656-0.4375-0.375 0.015624-0.72266 0.19922-0.94141 0.50391-0.97266 2.6562-1.4375 5.4688-1.3672 8.293-0.41797 3.1172-0.95703 6.2188-1.3164 9.3398-0.29688 2.8359-0.35156 5.6914-0.16016 8.5352 0.097656 1.3516 0.09375 2.707-0.003906 4.0586-0.125 1.3984-0.55469 2.75-0.58203 4.1523h-0.003906c-0.011718 0.20312 0.09375 0.39844 0.27344 0.49609 0.17969 0.09375 0.39844 0.078125 0.5625-0.046875 1.8125-1.7422 2.7812-4.1797 2.6562-6.6914 0.28516-3.125 0.17969-6.2617 0.61328-9.3789 0.46875-3.3867 1.3281-6.6992 1.8398-10.078l-0.003907 0.003907c0.90625-2.8867 0.69531-6.0078-0.58984-8.75z"/>
  <path d="m518.88 288.46c-3.8867-3.9023-9.293-1.7031-13.574 0.35938-5.0352 2.4688-10.332 4.3672-15.789 5.6602-4.5547 0.32812-8.6289 2.9609-10.801 6.9844-0.70313 2.3438-2.125 4.4102-4.0664 5.9102-2.1484 1.3203-4.4258 2.4297-6.793 3.3125-10.027 3.7578-19.426 9.0117-27.879 15.586-3.6172 3.9141-7.5586 7.5156-11.785 10.758-2.4062 1.3086-4.875 2.4922-7.3984 3.5508-2.8008 1.3125-5.5039 2.8125-8.0977 4.4961-5.5781 3.6055-10.922 7.7578-16.215 11.773-5.6211 4.2617-11.105 8.6992-16.664 13.035-0.27734 0.21484 0.027344 0.71094 0.33984 0.52734 5.2109-3.0938 10.453-6.1289 15.66-9.2383 4.9492-2.957 9.707-6.2188 14.66-9.1641 4.8516-2.8828 9.7383-5.5508 14.707-8.2148h-0.003907c4.6016-2.4102 8.793-5.5391 12.414-9.2656 7.4883-7.2188 16.195-13.062 25.711-17.258 4.4531-1.7969 8.8047-3.8359 13.035-6.1094 1.8281-1.0742 3.3789-2.5625 4.5234-4.3477 1.2539-2.0859 1.5234-4.9609 3.6992-6.3555 2.3945-1.1133 4.9531-1.8242 7.5781-2.1055 2.9023-0.70312 5.7539-1.5898 8.543-2.6641 5.168-1.9883 10.746-6.3047 16.562-4.8516 1.293 0.32422 2.7812-1.2266 1.6328-2.3789z"/>
  <path d="m295.4 278.91c-1.9375-2.4023-5.4727-1.1211-8.0508-0.84766-3.1094-0.11719-6.1562-0.87891-8.9492-2.2422-6.5078-0.89844-13.133-0.45312-19.465 1.3086-0.20312 0.035157-0.35938 0.20703-0.37891 0.41406-0.023438 0.20703 0.097656 0.40234 0.29297 0.48047 6.3203 1.8438 12.984-0.79297 19.246 1.5703h-0.003906c2.5664 1.2773 5.3516 2.0469 8.2031 2.2695 1.4844-0.085938 2.9609-0.25781 4.4258-0.51953 1.4375-0.039062 2.8633-0.25 4.25-0.63281 0.32812-0.15234 0.57031-0.44531 0.65234-0.79688 0.085938-0.35156 0-0.71875-0.22266-1.0039z"/>
 </g>
</svg>