<?xml version="1.0" encoding="UTF-8"?>
<!-- Uploaded to: ICON Repo, www.iconrepo.com, Generator: ICON Repo Mixer Tools -->
<svg fill="#000000" width="800px" height="800px" version="1.1" viewBox="144 144 512 512" xmlns="http://www.w3.org/2000/svg">
 <g>
  <path d="m371.78 390.14c-3.1211 2.1914-6.9961 3.0195-10.738 2.2969-4.2617-0.078125-8.5859-0.54688-12.812-1.0312v0.003906c-4.1406-0.26562-8.1445-1.5898-11.625-3.8477-3.3398-2.3086-5.957-5.5156-7.5508-9.25-1.4805-4.1328-2.4766-8.4219-2.9727-12.781-0.77344-4.1992-1.1602-8.4609-1.1602-12.734 0.44531-3.8906 1.3242-7.7188 2.6211-11.41 0.98828-3.5117 1.5195-7.1367 1.5781-10.781 0.019531-0.84375-1.3242-0.99219-1.3945-0.13281-0.55469 6.8906-6.0898 12.668-7.5312 19.43h0.003906c-0.42187 7.6289 0.53125 15.277 2.8125 22.57 0.10938 3.6914 0.90625 7.332 2.3398 10.734 1.957 2.9258 4.5117 5.4102 7.4922 7.2812 2.9531 1.8594 6.0312 3.5078 9.2109 4.9336 1.8945 0.14062 3.8477-0.10938 5.7539-0.035157 2.1875 0.082032 4.3633 0.25781 6.5469 0.41406 6.5742 1.6016 13.512-0.14844 18.543-4.6719 0.53906-0.63672-0.48047-1.5625-1.1172-0.98828z"/>
  <path d="m421.64 370.48c-0.070313-1.5117-2.457-1.8789-3.3984-0.80859v-0.003907c-2.0625 2.9805-3.7148 6.2266-4.9102 9.6445-1.6328 3.3867-3.293 6.75-5.1797 10.039v0.003906c-3.7188 6.5117-8.0391 12.66-12.902 18.363-4.0547 5.625-9.9844 9.6211-16.719 11.27-5.8867 0.82812-11.836-0.98438-16.266-4.9492-0.16016-0.11328-0.375-0.13281-0.55469-0.039062-0.17969 0.089844-0.29297 0.26953-0.29688 0.47266 0.15234 4.8555 2.0625 8.4219 9.5234 9.8555v-0.003907c4.7305 0.79297 9.5938 0.28125 14.059-1.4805 4.4648-1.7617 8.3633-4.7031 11.281-8.5156 5.4727-6.5234 10.605-13.328 15.371-20.383 2.2891-3.7344 4.3633-7.5938 6.2148-11.562 2.1367-3.6328 3.4258-7.7031 3.7773-11.902z"/>
  <path d="m399.47 491.59c-0.27734-2.3594-0.6875-4.7031-1.2383-7.0156-0.74609-2.3242-1.6562-4.5977-2.3906-6.9297-1.5273-4.9492-2.7734-9.9844-3.7305-15.074-1.9414-9.9766-2.2305-20.168-4.125-30.141-0.046875-0.25-0.26953-0.42578-0.51953-0.41797-0.25391 0.007812-0.46094 0.19531-0.49609 0.44531-0.82031 10.418-0.55859 20.887 0.78516 31.25 0.52344 5.0781 1.4609 10.109 2.7969 15.039 0.64062 2.4844 1.4375 4.9258 2.3906 7.3047 1.2109 2.3594 2.8008 4.5078 4.7031 6.3555 0.30469 0.34766 0.79687 0.45703 1.2148 0.26953 0.42188-0.1875 0.66797-0.62891 0.60938-1.0859z"/>
  <path d="m426 554.22c-1.9023-6.7891-4.082-13.41-6.6055-20-2.6289-6.8711-4.9883-13.848-7.4922-20.762-2.1445-6.7734-5.1055-13.254-8.8281-19.305-0.46875-0.69922-1.4531-0.082032-1.3867 0.62109h0.003906c0.94531 6.957 2.7422 13.773 5.3477 20.293 2.3867 6.7812 4.9453 13.516 7.2109 20.34 2.1562 6.4922 4.6719 12.809 7.0273 19.223 2.3672 6.4414 3.418 13.266 5.4062 19.824 0.35937 1.1797 2.0312 0.66406 2.1836-0.34766l-0.003906-0.003907c0.5-6.7578-0.47656-13.543-2.8633-19.883z"/>
  <path d="m425.63 577.78c-1.8945 2.668-3.6562 5.4336-5.2773 8.2773-1.8711 2.0703-2.8867 4.7773-2.8398 7.5664 0.0625 0.36328 0.28516 0.67578 0.60547 0.85156 0.32422 0.17578 0.70703 0.19531 1.0469 0.046875 2.2617-1.625 3.832-4.0352 4.4141-6.7617 1.0664-3.0938 2.9023-5.9336 3.7461-9.0859h-0.003907c0.14844-0.44922-0.046874-0.9375-0.46484-1.1602-0.41797-0.21875-0.9375-0.10938-1.2266 0.26562z"/>
  <path d="m444.51 561.35c-0.49609-0.57031-1.3008-0.74609-1.9883-0.4375-0.6875 0.30469-1.0898 1.0273-0.99609 1.7734 0.19141 3.2578-0.050782 6.5273-0.71875 9.7227-0.34766 1.8984-0.71484 3.7852-0.96484 5.7031-0.23438 1.7969-0.14844 3.6289-0.45703 5.3984v-0.003907c-0.31641 1.8555-1.0156 3.6211-2.0586 5.1836-0.88672 1.082-1.9648 1.9961-3.1797 2.6875-2.9961 1.7656-6.2695 3.0039-9.6836 3.668-0.22656 0.10547-0.37109 0.33594-0.36328 0.58594 0.007813 0.25 0.16406 0.47266 0.39844 0.56641 3.8516 0.65625 7.8086 0.31641 11.492-0.98438 3.6328-0.92578 6.1055-4.2891 5.9102-8.0312 0.52734-8.0117 8.6914-18.121 2.6094-25.832z"/>
  <path d="m428.81 388.84c-0.10156-2.5312-0.59375-5.0234-0.45312-7.5625 0.042969-0.71094-1.0586-0.82422-1.1016-0.11328-0.25391 4.5195-1.7422 9.0938-2.3711 13.602-0.63672 4.5508-1.1836 9.1094-1.6992 13.676-1 8.8008-2.2148 17.57-3.6523 26.316v-0.003906c-5.0312 16.035-4.8711 33.246 0.45703 49.184 0.21094 0.44531 0.71484 0.67188 1.1836 0.53125 0.47266-0.13672 0.77344-0.59766 0.70703-1.0859-1.8281-16.57-0.89453-33.332 2.7656-49.598 1.3398-8.582 2.5039-17.207 3.3633-25.852 0.42188-4.25 0.71094-8.5039 0.82813-12.773 0.054687-2.1016 0.054687-4.2188-0.027344-6.3203z"/>
  <path d="m439.88 547.15c-0.41406-3.3633-0.49219-6.7695-0.74219-10.148-0.49219-6.6172-0.67188-13.258-1.4375-19.855-0.027344-11.586-5.043-22.602-13.766-30.23-0.57031-0.36719-1.4883 0.22266-1.1133 0.91016 2.7617 4.7383 5.0742 9.7227 6.9102 14.887 1.7344 5.5977 2.8516 11.367 3.3242 17.203 0.61328 6.3984 0.78516 12.828 1.3867 19.227l0.003907 0.003907c0.37109 3.207 0.94922 6.3867 1.7266 9.5195 0.4375 2.9688 1.5469 5.8008 3.2461 8.2734 0.22266 0.25781 0.57812 0.35938 0.90234 0.26172 0.32812-0.097656 0.56641-0.37891 0.60938-0.71875-0.058594-3.1367-0.41016-6.2617-1.0508-9.332z"/>
  <path d="m412.28 486.38c0.14844-1.8242-0.10938-3.6562-0.76172-5.3672-0.09375-0.19922-0.28516-0.33594-0.50781-0.35937-0.21875-0.023438-0.4375 0.074218-0.57031 0.25-1.0469 1.6602-1.6133 3.582-1.6328 5.543-0.41016 2.0391-0.27734 4.1484 0.37891 6.1172 0.24609 0.51562 0.76953 0.83984 1.3398 0.82031 0.57031-0.015625 1.0781-0.37109 1.2891-0.89844 0.55859-1.9844 0.71875-4.0625 0.46484-6.1055z"/>
  <path d="m340.32 481.03c0.20312-2.3672 0.26953-4.7461 0.19531-7.1211-0.26172-2.4258-0.70312-4.8359-0.95312-7.2695v0.003906c-0.50391-5.1562-0.71484-10.336-0.63281-15.512 0.10156-10.16 1.8594-20.203 2.0039-30.359 0.003906-0.25391-0.17578-0.46875-0.42578-0.51562-0.25-0.042968-0.49219 0.10156-0.57422 0.33984-2.8945 10.039-4.7344 20.352-5.4961 30.77-0.50781 5.0859-0.60156 10.199-0.27734 15.297 0.125 2.5625 0.41797 5.1133 0.875 7.6328 0.71484 2.5586 1.8398 4.9805 3.3359 7.1719 0.22656 0.40234 0.6875 0.60547 1.1367 0.50781 0.44922-0.10156 0.77734-0.48438 0.8125-0.94531z"/>
  <path d="m347.38 548.69c0.18359-7.0508 0.058594-14.02-0.40625-21.059-0.48437-7.3398-0.67578-14.699-1.0312-22.047v-0.003907c-0.050781-7.0977-0.96875-14.168-2.7383-21.043-0.24219-0.80469-1.3633-0.50781-1.5078 0.18359-1.1484 6.9258-1.4453 13.965-0.87891 20.965 0.27734 7.1836 0.73438 14.375 0.88281 21.562 0.14453 6.8398 0.68359 13.617 1.043 20.441 0.35938 6.8555-0.64844 13.684-0.6875 20.539-0.007813 1.2344 1.7422 1.2344 2.1914 0.3125v-0.003907c2.4727-6.3086 3.5391-13.082 3.1328-19.848z"/>
  <path d="m342.41 572.78c-2.2344 2.3945-4.3438 4.9023-6.3281 7.5078-2.1289 1.8047-3.4922 4.3516-3.8164 7.125 0.011719 0.36328 0.19141 0.70703 0.48828 0.92188 0.29688 0.21484 0.67578 0.28516 1.0312 0.18359 2.4531-1.3125 4.3359-3.4922 5.2695-6.1172 1.4648-2.9258 3.6602-5.4961 4.9141-8.5117 0.20703-0.42578 0.078125-0.94141-0.30859-1.2148-0.38672-0.27734-0.91797-0.23047-1.25 0.10547z"/>
  <path d="m363.29 559c-0.41406-0.625-1.1914-0.91016-1.9102-0.69531-0.72266 0.21484-1.2188 0.875-1.2227 1.6289-0.24219 3.2539-0.91406 6.4609-2 9.5391-0.59375 1.8359-1.2109 3.6562-1.7109 5.5234-0.46875 1.75-0.62891 3.5781-1.168 5.2891v0.003906c-0.55859 1.793-1.4883 3.4492-2.7266 4.8633-1.0234 0.95312-2.2109 1.7148-3.5078 2.2422-3.2031 1.3516-6.6133 2.1484-10.082 2.3516-0.24219 0.074218-0.41406 0.28516-0.4375 0.53516-0.027344 0.25 0.097656 0.48828 0.31641 0.60938 3.7344 1.1641 7.6992 1.3516 11.523 0.55078 3.7227-0.4375 6.6211-3.4414 6.918-7.1797 1.5859-7.8711 11.02-16.809 6.0078-25.262z"/>
  <path d="m377.1 420.7c-1.4102 3.7266-2.8633 7.4414-4.3594 11.141-8.4258 14.539-12.047 31.367-10.344 48.086 0.10938 0.47656 0.54688 0.80078 1.0352 0.76953 0.48828-0.03125 0.88281-0.41406 0.92969-0.89844 1.8516-16.57 6.4414-32.719 13.582-47.781 1.8398-4.6562 3.6133-9.3398 5.3281-14.051h-0.003906c-1.9219 1.1836-3.9961 2.1055-6.168 2.7344z"/>
  <path d="m362.74 546.04c0.59766-3.3359 1.5273-6.6133 2.2852-9.9141 1.4805-6.4688 3.2734-12.867 4.4844-19.398 3.3945-11.082 1.8555-23.086-4.2305-32.949-0.4375-0.51953-1.4883-0.22656-1.332 0.54297 1.2383 5.3398 1.9766 10.785 2.207 16.262 0.007812 5.8594-0.62891 11.699-1.8984 17.418-1.3047 6.293-3.0352 12.488-4.3477 18.781-0.58984 3.1758-0.97656 6.3828-1.1602 9.6055-0.45703 2.9648-0.23047 5.9961 0.66016 8.8633 0.13672 0.3125 0.44531 0.51562 0.78906 0.51953 0.33984 0 0.65234-0.19922 0.79297-0.51172 0.87109-3.0117 1.457-6.0977 1.75-9.2188z"/>
  <path d="m358.74 368.18c-3.7578-0.22266-7.5117 0.52734-10.898 2.1797-1.668 0.72656-3.2539 1.6289-4.7305 2.6875l-1.3516 1.0586h-0.003907c-0.49609-1.1758-0.87891-2.4023-1.1367-3.6562-0.64453-2.0312-1.4336-4.0469-2.2188-6.0273-1.6562-4.1641-4.0039-7.9062-5.9219-11.938-0.28906-0.60938-1.3555-0.36328-1.1836 0.34766 1.3359 5.4609 2.1602 10.852 4.0312 16.188h-0.003906c0.61328 2.5469 1.7969 4.918 3.457 6.9414-0.38281 0.16406-0.8125 0.18359-1.207 0.054688-0.59375-0.25391-0.92578 0.66797-0.34766 0.93359 1.6133 0.75 2.3555 1.7617 4.3281 1.2891 1.8984-0.75391 3.6836-1.7656 5.3008-3.0156 3.8945-2.1875 8.4531-2.5195 12.254-4.7539v0.003906c0.48438-0.23047 0.75781-0.75391 0.67578-1.2852-0.085937-0.52734-0.51172-0.94141-1.043-1.0078z"/>
  <path d="m372.83 381.86c-3.5391-1.8828-7.457-2.9258-11.461-3.0547-0.9375-0.074219-1.875-0.125-2.8164-0.15625-0.69141-0.023438-2.7578 0.34766-3.3125 0.003906l-0.15234 0.28125 0.4375-1.4492c0.19531-1.1562 0.61719-2.2656 1.2344-3.2656 0.42188-0.52734-0.39453-1.3125-0.88281-0.82031-1.6016 1.6133-3.7266 2.3984-4.4727 4.7852-0.33984 0.83984-0.29688 1.7891 0.12109 2.5938 0.41797 0.80859 1.1641 1.3906 2.0469 1.5977 1.3711 0.17188 2.7539 0.20312 4.1289 0.10156 1.5664 0.039062 3.1328 0.13672 4.6914 0.29297 3.25 0.44141 6.5234 0.70703 9.8008 0.78906 0.82031-0.011719 1.543-1.1875 0.63672-1.6992z"/>
  <path d="m370 386.3c-1.3945 0.15234-2.7852 0.26562-4.1758 0.46484h0.003906c-1.5234 0.34766-3.082 0.51953-4.6445 0.51172-0.23438-0.027344-0.44531 0.14844-0.46875 0.38281-0.023438 0.23828 0.14844 0.44922 0.38281 0.47266 1.5781 0.13672 3.1133 0.60547 4.7109 0.58984 1.5859-0.054687 3.1484-0.38281 4.6172-0.97656 0.83984-0.30859 0.39844-1.5312-0.42578-1.4453z"/>
  <path d="m391.14 364.65c1.0234-2.2812 2.1992-4.4492 3.3633-6.6562 1.2422-2.5547 2.3242-5.1875 3.2422-7.875 0.25-0.64844-0.60547-1.0156-1.0195-0.53906-3.3906 3.8008-6.4258 7.9102-9.0625 12.27l0.058594-0.72656c0.38672-5.2617 0.97656-10.504 1.1914-15.777 0.10547-2.3867 0.085938-4.7734-0.058593-7.1562-0.19141-2.8828-1.0703-5.543-1.4531-8.3711-0.10547-0.78516-1.2695-0.58203-1.2031 0.19141 0.019531 2.9375-0.26172 5.8711-0.84766 8.75-0.36719 2.8398-0.79687 5.6758-1.2578 8.5039-1.0078 5.5039-1.6758 11.066-2 16.652-0.58594 4.3164 0.33984 8.7031 2.6211 12.41 2.6289 3.5 6.7891 4.3281 10.227 6.6211 0.85547 0.57422 2.3867-0.125 2.0703-1.2852-1.0938-3.9922-4.0859-5.0078-6.9414-7.5117h0.003907c-0.71484-0.63281-1.2812-1.4141-1.6719-2.2852l0.03125-0.070312c0.99219-2.3477 1.6562-4.8008 2.707-7.1445z"/>
  <path d="m464.31 338.93c-6.0547 2.5703-12.949 2.2578-18.746-0.84766-6.8281-2.7188-11.738-8.2266-18.309-11.285-2.7188-1.043-5.5586-1.7188-8.4531-2.0195-2.875-0.55078-5.8164-0.68359-8.7305-0.39453-3.0391 0.35156-5.9727 1.3359-8.6094 2.8945-2.4766 1.7344-4.6719 3.8398-6.5078 6.2422-0.39844 0.42578 0.11328 1.1289 0.59766 0.73047h-0.003906c2.6875-1.8203 5.6953-3.1211 8.8594-3.832 2.9961-0.94141 6.0859-1.5469 9.2148-1.8086 3.1992-0.32031 6.4219 0.24219 9.3203 1.625 2.9883 1.4141 5.7969 3.1836 8.3633 5.2656 2.2852 1.8281 4.6992 3.4805 7.2266 4.9531-0.70703 2.0898-0.78516 4.4844-1.4492 6.5859v-0.003906c-0.79297 2.6055-1.8633 5.1172-3.1914 7.4922-1.3477 2.3516-3.0195 4.5039-4.9609 6.3984-0.76172 0.73828-1.8555 2.0625-2.9688 2.2773-1.2695 0.24609-2.9844-1.168-4.0664-1.7656-4.7344-2.668-9.2461-5.7227-13.48-9.1328-2.2031-1.7422-4.2305-3.7031-6.2969-5.6016-2.1562-1.9805-4.6016-3.5625-6.8398-5.4414-0.60547-0.50781-1.3594 0.39453-0.91406 0.98047l-0.003906 0.003906c1.9062 2.7852 3.9609 5.4609 6.1562 8.0234 2.25 2.3789 4.6328 4.6562 7.0312 6.8828 4.7266 4.8008 10.629 8.2812 17.117 10.094 5.918 1.2109 10.688-5.8711 13.207-10.391l-0.003906 0.003906c1.5078-2.6445 2.5859-5.5117 3.2031-8.4922 0.49219-2.0469 0.69922-4.1484 0.61719-6.25 2.8477 1.3633 5.8516 2.3789 8.9414 3.0312 5.3477 1.1172 13.027 1.4609 15.512-4.4961 0.42188-1.0195-0.80078-2.3125-1.832-1.7227z"/>
  <path d="m402.59 306.73c-1.9023 0.29297-3.7617 0.79297-5.5508 1.4961-1.9414 0.46484-3.75 1.3828-5.2734 2.6719-1.4609 1.7695-2.5938 3.7891-3.3398 5.957-1.4258 2.5078-2.6172 5.1445-3.5508 7.875-0.10156 0.39453 0.27734 0.9375 0.72266 0.68359 2.0273-1.2734 3.8125-2.8984 5.2695-4.7969 0.86719-1.0078 1.6406-2.0938 2.3125-3.2422 0.47656-1.2031 1.1406-2.3203 1.9648-3.3164 2.6797-2.418 8.0508-1.5898 8.8438-6.0117 0.03125-0.37109-0.10938-0.73828-0.38281-0.99609-0.26953-0.25781-0.64453-0.375-1.0156-0.32031z"/>
  <path d="m499.66 222.64c-0.085937-0.46875-0.47266-0.82422-0.94531-0.87109s-0.92188 0.22266-1.0977 0.66406c-0.62891 1.5703-1.6172 2.8906-2.3203 4.4219-0.82812 1.7734-1.9336 3.3984-3.2773 4.8242-2.8828 2.6406-5.9648 5.0625-9.2148 7.2461-5.8867 5.3984-10.984 11.602-15.148 18.418-9.1836 13.145-19.605 25.375-31.125 36.523-4.0117-4.5078-10.344-4.6523-15.949-6.6797h-0.003906c-1.6367-0.58203-3.1992-1.3594-4.6484-2.3203-1.7031-0.84766-2.8203-2.5352-2.9336-4.4336-0.46875-3.8984-0.625-7.8242-0.47656-11.746 1.3984-1.6992 1.8477-3.9844 1.1992-6.0859-0.14844-0.32812-0.44141-0.57031-0.79297-0.65234-0.35156-0.085938-0.71875 0-1 0.22656-2.2617 1.8867-3.4727 4.7578-5.6602 6.7656-2.7852 2.5547-6.5 2.4141-9.7969 3.7773h-0.003906c-0.29688 0.14062-0.48438 0.44922-0.47656 0.78125 0.011719 0.33203 0.21484 0.625 0.52344 0.75 4.7969 1.2305 9.8945 0.046875 13.652-3.1758-0.93359 3.1016-1.5977 6.2812-1.9805 9.5-0.54688 3.9844 1.8125 7.7969 5.6211 9.0898 3.5195 1.4805 7.3711 2.0352 10.887 3.457 2.8047 1.1367 5.6328 2.4883 8.3672 3.8906h-0.003906c-2.668 2.3164-5.4883 4.457-8.4336 6.4102-1.8906 1.2461-3.8086 2.4453-5.7539 3.6055-0.81641 0.44531-1.5781 0.98438-2.2656 1.6133-1.8164-1.2344-3.5781-2.6016-5.5039-3.8984v-0.003907c-4.1836-3.1016-9.3516-4.5742-14.539-4.1406-0.24609 0.046875-0.44141 0.23047-0.49609 0.47656-0.058594 0.24219 0.035156 0.49609 0.23438 0.64453 2.0781 1.3398 4.3047 2.4297 6.6406 3.2461 2.3633 1.0859 4.6016 2.4258 6.6758 3.9961 3.6641 3.2383 7.9219 5.7227 12.543 7.3242 4.4141 1.0898 8.8906 1.9023 13.406 2.4297 2.2031 0.28516 4.375 0.76172 6.4961 1.4219 2.2812 0.57031 4.5195 1.3164 6.6914 2.2266 1.2266 0.63281 2.3789-1.1797 1.5312-2.1406h-0.003906c-1.3398-1.8281-3.0938-3.3125-5.1172-4.3398-2.1094-0.8125-4.3086-1.3828-6.5469-1.7031-4.8203-0.83594-9.8047-0.75-14.555-1.9609-1.0898-0.28125-2.1523-0.65625-3.1758-1.125 1.6914-0.69531 3.3281-1.5156 4.8984-2.4531 3.543-1.9648 6.875-4.2812 9.9492-6.918 6.3555-5.6953 12.258-11.875 17.645-18.492 5.8711-6.6758 11.312-13.723 16.293-21.086 4.2578-7.5703 9.7188-14.398 16.172-20.211 3.5586-2.6172 6.8945-5.5312 9.9648-8.707 1.3789-1.4648 2.5391-3.1133 3.4531-4.9023 0.71875-1.8086 0.85938-3.793 0.40234-5.6836z"/>
  <path d="m397.47 318.57c-0.42969 0.46484-1.2539 0.62891-1.7969 0.98828-0.67188 0.44531-1.3242 0.94922-1.9727 1.4297-1.2656 0.98438-2.1797 2.3555-2.5938 3.9023-0.61719 1.6797 1.293 2.668 2.5938 1.8555 0.67578-0.33984 1.3008-0.76953 1.8594-1.2773 0.53125-0.57422 0.97266-1.2305 1.3008-1.9453l0.76953-1.7148c0.23047-0.85547 0.52344-1.6914 0.87891-2.5039 0.48828-0.68359-0.5-1.3164-1.0391-0.73438z"/>
  <path d="m502.89 226.77c-0.074219-0.36328-0.66016-0.48828-0.77344-0.078125h-0.003906c-1.2734 4.668-3.0469 9.1836-5.293 13.465-2.2422 3.5312-4.2695 7.1953-6.0703 10.969-0.85156 3.625-1.4102 7.3164-1.6758 11.031-0.23437 1.9297-1.918 3.3438-3.8594 3.2422-1.9297 0.050781-3.7539-0.058594-5.6914 0.14844-0.60547 0.10938-1.0859 0.56641-1.2266 1.1641-0.14062 0.60156 0.089843 1.2227 0.58203 1.5898 3.4688 2.8672 8.4219 3.0625 12.105 0.47656 3.8594-2.9883 3.3828-7.8867 3.7852-12.223 1.3203-5.0273 3.4805-9.7969 6.3945-14.102 2.2148-4.9141 2.8203-10.406 1.7266-15.684z"/>
  <path d="m475.13 273.45c-1.0352 2.2461-2.8594 4.125-4.0742 6.2969-0.86328 1.5469-1.6133 3.1641-2.3945 4.7539-1.7227 3.7148-3.7617 7.2773-6.0898 10.648-2.293 3.1602-4.7031 6.207-7.293 9.1289l-3.6211 4.0469c-1.3047 1.457-2.8789 2.6719-2.9531 4.7344l0.003906 0.003906c-0.050781 0.59375 0.17578 1.1797 0.60938 1.5898s1.0312 0.60156 1.6211 0.51953c0.96484-0.14453 1.8555-0.59766 2.5352-1.293 3.0039 6.6016 7.3906 12.523 10.277 19.164 0.26172 0.59766 1.3086 0.33203 1.1328-0.33203v-0.003907c-1.4648-7.9336-4.1055-15.602-7.8359-22.754l2.418-2.7109c2.7539-2.9688 5.1992-6.2109 7.2969-9.6719 1.8906-3.5234 3.5742-7.1484 5.0508-10.863 0.87891-2.0781 1.8555-4.1484 2.5703-6.293l-0.003906 0.003907c0.50781-2.2148 1.1328-4.4023 1.8672-6.5547 0.3125-0.69922-0.79688-1.1055-1.1172-0.41406z"/>
  <path d="m380.12 246.72c-0.32812-1.7344-1.3633-3.2578-2.8594-4.1992-1.375-0.83984-2.8789-1.4531-4.4453-1.8203-4.2227-0.95703-8.5508-1.3789-12.879-1.2578-7.5117-0.09375-14.559 3.6328-18.707 9.8984-4.1836 6.1328-6.5625 13.32-6.8633 20.742-0.20312 4.3984-0.070313 8.8047 0.40234 13.184-3.8867 3.9414-6.0742 9.2461-6.0859 14.781-0.11719 6.4062 1.1758 12.73 1.3828 19.105 0.019532 0.59766 1.0039 0.55859 1.043-0.03125 0.375-5.8789 1.3867-11.789 1.9883-17.66 0.25-2.7734 0.92969-5.4922 2.0156-8.0586l0.43359-0.96094 0.039063 0.3125v-0.003906c0.60938 2.7148 0.98047 5.4805 1.1016 8.2617-0.039062 0.77734 1.1523 0.90625 1.2109 0.12109 0.16016-2.207 0.84375-4.3984 1.1406-6.6016v0.003906c0.22656-1.8906 0.35938-3.7891 0.39062-5.6953 0.125-3.9688 0.11328-7.9414 0.28516-11.91-0.035156-6.6797 1.4414-13.277 4.3242-19.305 2.7227-5.3438 7.5547-9.3086 13.328-10.934 1.4297-0.40625 2.9062-0.62891 4.3945-0.66406l-0.83203 0.58984v0.003906c-2.3945 1.8281-4.3672 4.1484-5.7891 6.8047-1.6016 3-2.7617 6.2188-3.4531 9.5508-0.34375 1.4883-0.59375 3-0.74219 4.5195-0.18359 1.9727 0.26562 4.0039-0.039063 5.9453-0.12891 0.82813 1.1641 0.95313 1.293 0.12891h0.003906c0.46094-1.6797 1.0664-3.3203 1.8125-4.8984 0.49219-1.4297 0.92578-2.875 1.4297-4.3008 0.95703-2.8125 2.2383-5.5078 3.8125-8.0312 1.3047-2.0352 2.8125-3.9375 4.4961-5.6719 1.4648-1.5117 3.3594-2.4766 4.9062-3.8125l1.0352 0.25c1.3672 0.29297 2.7031 0.71875 3.9883 1.2656 1.2617 0.55078 2.4336 1.2812 3.4844 2.168 0.5625 0.65234 1.5156 0.79688 2.25 0.34766 0.73438-0.45312 1.0312-1.3711 0.70312-2.168z"/>
  <path d="m389.92 295.58c-1.1953-0.92969-2.4727-1.75-3.8125-2.4531 3.1836-6.3047 4.9219-13.242 5.0938-20.305 0.050781-4.5234-0.49609-9.0352-1.6211-13.418-0.46875-2-1.207-3.9258-2.1953-5.7305-1.1484-1.625-2.4961-3.1055-4.0078-4.3984-0.51953-0.55469-1.4453 0.19531-0.92188 0.75391 1.1836 1.6875 2 3.6055 2.3945 5.6289 0.47266 1.6914 0.81641 3.4141 1.0234 5.1562 0.44922 4.1133 0.37891 8.2656-0.20312 12.359-0.96094 7.6406-3.4688 15.004-7.3672 21.641-3.7695 6.4219-8.2734 12.375-11.992 18.832-3.8555 6.5078-6.2852 13.766-7.1289 21.285-0.49219 4.3672-0.65625 8.7695-0.48047 13.164 0.10156 2.2617 0.33203 4.5234 0.33984 6.793-0.17969 2.2578-0.22656 4.5273-0.13281 6.793 0.11719 0.66016 0.61719 1.1836 1.2695 1.3359 0.65234 0.15625 1.332-0.09375 1.7344-0.63281 1.6172-3.5312 2.0742-7.4844 1.3086-11.293-0.40234-4.1836-0.33203-8.4023 0.21094-12.57 1.6367-8.1484 4.8008-15.91 9.3242-22.883 3.582-5.9062 7.543-11.684 10.875-17.707h0.003907c1.3242 0.69922 2.7109 1.2656 4.1484 1.6914 1.4531 0.61719 3.0781 0.69531 4.5859 0.21484 0.26953-0.125 0.42578-0.41406 0.38281-0.70703-0.50391-1.4766-1.5039-2.7344-2.832-3.5508z"/>
  <path d="m368.34 293.12c-3.7266 4.7617-7.1641 9.7422-10.297 14.914-2.7461 5.1562-4.9531 10.582-6.5859 16.191-1.6758 5.3984-2.5078 11.023-2.4648 16.68 0.042969 2.9375 0.46875 5.8555 1.2617 8.6836 0.98047 2.5977 2.1133 5.1289 3.4023 7.5898 0.33203 0.76562 1.4102 0.24609 1.1641-0.51562h-0.003906c-0.65625-2.8008-0.94531-5.6758-0.85547-8.5508-0.10156-2.7461-0.054687-5.4961 0.14453-8.2383 0.36719-5.4062 1.4297-10.742 3.1602-15.875 1.8125-4.9805 3.9258-9.8438 6.332-14.566 2.3906-5.0117 4.3203-10.285 6.7773-15.238 0.58594-1.1914-1.3008-2.1289-2.0352-1.0742z"/>
  <path d="m379.16 259.97c-1.1758-3.2109-2.5742-6.3359-4.1875-9.3516-0.32422-0.76172-1.4375-0.24609-1.1641 0.51562 0.79297 3.1562 1.1016 6.4141 0.92188 9.6602 0.10156 2.9258-0.003907 5.8555-0.32031 8.7695-0.3125 2.8164-0.83203 5.6094-1.5586 8.3516-1.1445 2.6211-1.7461 5.4453-1.7773 8.3008 0.089843 0.52344 0.41016 0.97266 0.875 1.2266 0.46484 0.25391 1.0195 0.27734 1.5039 0.070313 2.5195-1.8164 4.2656-4.5117 4.8867-7.5547 2.125-6.457 2.4102-13.379 0.81641-19.992z"/>
  <path d="m365.88 262.55c-5.8984 14.879-12.602 29.43-19.23 43.992h0.003906c-3.2891 6.9727-5.7031 14.328-7.1836 21.898-0.71875 3.5117-1.0117 7.0977-0.86719 10.68 0.37109 3.7617 1.4375 7.4258 3.1445 10.797 0.25391 0.53516 0.85938 0.80469 1.4258 0.63672 0.56641-0.16797 0.92969-0.72266 0.85156-1.3086-0.44922-3.7109-0.52344-7.457-0.21094-11.184 0.10547-3.7422 0.61719-7.4609 1.5156-11.094 2.1602-7.1758 4.9375-14.148 8.3086-20.84 3.2969-6.8867 6.1641-13.973 8.5781-21.215 2.2617-7.1758 3.3789-14.719 5-22.055 0.17578-0.78516-1.0547-1.0156-1.3359-0.30859z"/>
  <path d="m346.33 278.12c-2.2383 8.457-4.9688 16.773-8.1719 24.918-2.7578 7.75-3.625 16.047-2.5234 24.203 0.10156 0.54297 0.58203 0.92969 1.1328 0.91406s1.0078-0.42969 1.0781-0.98047c1.0898-8.3438 2.832-16.594 5.207-24.672 2.1172-7.9609 3.625-16.07 4.5156-24.258 0.085938-0.8125-1.0898-0.90234-1.2383-0.125z"/>
  <path d="m422.3 229.52c-2.8086-6.8828-8.4062-12.254-15.402-14.766-6.3398-3.0039-13.672-3.0859-20.078-0.22266-2.6562 1.4297-4.9141 3.5039-6.5664 6.0312-1.5 2.5625-2.3945 5.4375-2.6172 8.3984-0.15625 0.80469 1.1094 0.92578 1.2656 0.125v0.003906c0.89062-2.5391 2.5352-4.7461 4.7148-6.3242 1.9766-1.4609 4.168-2.6094 6.4961-3.3945 5.2578-1.7344 11-1.168 15.816 1.5625 5.1211 2.3242 9.0039 6.7227 10.68 12.094 0.61328 3.0469 0.60547 6.2266 0.99219 9.3086 0.16797 1.3555 0.52734 2.5742 0.77734 3.8672v-0.003906c0.070312 0.39844 0.10156 0.80469 0.089844 1.2109-0.36328-0.18359-0.78906-0.20312-1.1719-0.058594-0.38281 0.14453-0.68359 0.44141-0.83984 0.82031-0.79688 1.582-0.16797 2.8477 0.16797 4.4414 0.37109 1.4922 0.015625 3.0742-0.95703 4.2695-0.77734 0.97656 0.48047 2.6523 1.6172 1.9766 1.7266-1.0273 2.8984-2.7812 3.1875-4.7695 0.44141-1.8125 0.22266-3.7188-0.60547-5.3867 0.21094-1.0352 0.54688-2.043 0.99609-3 0.78125-1.5391 1.3594-3.1758 1.7148-4.8633 0.86328-3.7383 0.76953-7.6289-0.27734-11.32z"/>
  <path d="m412.34 241.5c-0.80078-1.1836 0.39844-3.3125 0.054687-4.7461v0.003907c-0.33203-1.3008-1.1953-2.4023-2.3789-3.0312-2.9844-1.0664-6.2109-1.2539-9.3008-0.54688-2.8828 0.17188-7.2617 0.85156-9.5742-1.293-0.70703-0.65625-2.7188-4.2617-4.0195-3.3125-1.8242 1.3281-0.42188 4.8906 0.46484 6.4492 1.5078 2.4141 4.1797 3.8516 7.0273 3.7695 3.4414-0.085937 6.875-0.34766 10.289-0.78125 0.93359-0.22656 1.9102-0.16797 2.8086 0.16406 0.67578 0.44922 0.71875 1.2969 1.0625 1.9531 0.625 1.0234 1.5078 1.8672 2.5586 2.4531 0.30469 0.19922 0.70703 0.14844 0.95703-0.11719s0.26953-0.67188 0.050782-0.96484z"/>
  <path d="m404.47 251.61c-0.97266-0.75-2.1562-1.1719-3.3828-1.2109-0.51563-0.10547-1-0.32031-1.5078-0.44141-0.52344-0.125-1.0664-0.10547-1.5938-0.20703v-0.003906c-0.21875-0.019531-0.43359 0.078125-0.5625 0.25781-0.12891 0.17578-0.15625 0.41016-0.066406 0.61328 0.23828 0.53125 0.53906 1.0312 0.89844 1.4883 0.47266 0.45703 1 0.84766 1.5742 1.1719 1.1172 0.93359 2.625 1.2656 4.0312 0.88672 0.46875-0.21094 0.8125-0.62891 0.93359-1.1289 0.11719-0.5 0-1.0273-0.32422-1.4258z"/>
  <path d="m319.64 252.27c1.457 8.7695 3.4727 17.441 6.0273 25.957 1.9062 7.1719 4.2422 14.223 6.9922 21.113 0.67969-2.6211 1.5469-5.1914 2.6016-7.6836-5.1562-13.941-9.1016-28.301-11.797-42.914-0.94531-7.9336-2.9961-15.695-6.1016-23.059-2.043-3.3359-3.8359-6.8242-5.3594-10.43-0.625-1.8516-0.95312-3.7891-0.96484-5.7461 0-1.6875-0.35156-3.2969-0.26562-4.9883l-0.003907 0.003906c0.023438-0.47656-0.27344-0.91016-0.72266-1.0625-0.44922-0.15625-0.94531 0.007812-1.2188 0.39453-1.2031 1.5312-1.9023 3.3984-2 5.3398 0.082031 2.0078 0.45312 3.9922 1.0938 5.8945 1.4727 4.168 3.2891 8.2031 5.4375 12.066 3.4414 7.9766 5.5625 16.457 6.2812 25.113z"/>
  <path d="m304.18 206.27c0.21875-0.30078 0.80469-0.17188 0.73438 0.25v0.003906c-0.78516 4.7734-1.0508 9.6172-0.79297 14.445 0.56641 4.1445 0.88281 8.3164 0.94922 12.5-0.73828 3.6523-1.7656 7.2383-3.0742 10.727-0.58984 1.8516 0.35547 3.8398 2.1602 4.5547 1.7305 0.85156 3.4375 1.5117 5.1133 2.5039h0.003906c0.5 0.35547 0.75 0.97266 0.625 1.5742-0.12109 0.60156-0.58984 1.0742-1.1875 1.2031-4.3477 1.1602-8.9336-0.72656-11.207-4.6094-2.2617-4.3242 0.21094-8.582 1.6484-12.688v-0.003906c0.89844-5.1211 0.91797-10.355 0.066406-15.484 0.027344-5.3906 1.7656-10.633 4.9609-14.977z"/>
  <path d="m319.5 363.23c-0.86328-4.1562-1.3984-8.3711-1.6016-12.609-0.14062-4.2227 0.09375-8.4531 0.26562-12.672 0.62109-8.5586 0.63672-17.156 0.042969-25.719-0.27734-3.5156-0.75781-7.0156-1.4375-10.48-0.39844-1.7656-1.0781-3.457-1.6055-5.1875-1.1328-3.7344-2.0586-7.5078-2.8281-11.336h0.003906c-0.71484-4.0352-1.082-8.1211-1.1016-12.219-0.050782-1.7734-0.058594-3.5508-0.19922-5.3203-0.19922-2.4805-1.0703-4.9492-1.0781-7.4219 0-0.76172-1.1836-0.85547-1.1875-0.085937-0.22656 2.2617-0.57031 4.5078-1.0312 6.7344-0.24609 2.2461-0.21875 4.5352-0.28906 6.7891-0.20703 3.9922-0.18359 7.9883 0.066407 11.977 0.46484 4.0234 1.3398 7.9883 2.6055 11.836 0.20312 0.67969 1.3828 4.0586 2.5078 6.8594l0.082031 0.98438c0.20312 2.1016 0.37109 4.1992 0.58203 6.2969h-0.003906c0.40234 4.1523 0.56641 8.3242 0.48047 12.492-0.51953 8.5781-0.48047 17.176 0.10938 25.746 0.39062 4.8125 1.5195 9.5352 3.3477 14.004 0.25391 0.52734 0.85547 0.79297 1.418 0.62891s0.92188-0.71484 0.85156-1.2969z"/>
  <path d="m363 413.61-0.28906 0.085938-1.375 0.46094c-0.89062 0.26953-1.7812 0.48828-2.6875 0.69922-1.9805 0.5-4.0117 0.77344-6.0547 0.80469-3.8203-0.042968-7.5664-1.0586-10.883-2.9531-6.6172-4.3008-11.953-10.305-15.449-17.379-1.1836-2.1211-2.2344-4.3203-3.2422-6.5312l-1.5898-3.5508c-0.52344-1.1836-1.2148-2.293-1.6484-3.5156-0.30078-0.85156-1.5859-0.32031-1.2812 0.52734 0.39844 1.1172 0.5625 2.3086 0.88281 3.4492 0.35156 1.25 0.73828 2.4961 1.1328 3.7344 0.71094 2.2422 1.4961 4.4609 2.3438 6.6562l-0.003907 0.003907c1.5938 4.3516 3.8242 8.4414 6.6172 12.141 5.168 7.043 13.129 11.504 21.836 12.23 2.5625 0.125 5.1289-0.11328 7.625-0.71875 1.2383-0.3125 2.4414-0.75781 3.5859-1.3359 0.64453-0.32422 1.2656-0.70312 1.8828-1.0742 0.45703-0.30859 0.875-0.66797 1.2461-1.0742-1.1094-0.62891-2.0234-1.5469-2.6484-2.6602z"/>
  <path d="m349.64 482.99c-0.76562-1.2383-1.7812-2.3008-2.9844-3.1211-0.96484-0.84375-2.0234-1.582-3.1484-2.1914-0.77734-0.35156-1.3359 0.53906-1.1289 1.1992h-0.003906c0.46484 1.1602 1.0547 2.2617 1.7617 3.293 0.62109 1.2383 1.4961 2.3398 2.5586 3.2266 1.5078 1.0859 3.9023-0.65234 2.9453-2.4062z"/>
 </g>
</svg>