<?xml version="1.0" encoding="UTF-8"?>
<!-- Uploaded to: SVG Repo, www.svgrepo.com, Generator: SVG Repo Mixer Tools -->
<svg fill="#000000" width="800px" height="800px" version="1.1" viewBox="144 144 512 512" xmlns="http://www.w3.org/2000/svg">
 <g>
  <path d="m514.33 416.43c-0.97656 2.2461-2.0664 4.4336-2.9023 6.7461h0.003906c-0.24609 0.92969-0.78906 1.7578-1.5469 2.3477-0.86328 0.65625-1.7812 1.2148-2.6172 1.9141-1.543 1.2773-2.9062 2.7578-4.0469 4.4023-1.0586 1.5352-2.4414 3.4961-1.875 5.4531 0.1875 0.64453 0.90625 1.3086 1.6367 0.89063 1.8281-1.0547 2.4688-3.1914 3.6602-4.8398v-0.003906c1.2188-1.7109 2.6992-3.2188 4.3828-4.4688 1.6758-1.0078 2.8789-2.6445 3.3477-4.5391 0.60156-2.5117 0.80078-5.0742 1.1719-7.6172 0.10938-0.73438-0.9375-0.91797-1.2148-0.28516z"/>
  <path d="m279.07 391.71c-1.6133 1.5391-3.1211 3.2539-4.8594 4.6484v-0.003907c-1.6367 1.375-3.7188 2.1016-5.8555 2.0508-4.3398 0.03125-6.6562-4.6836-9.7305-7.0742-7.2578-4.1562-15.051-7.2969-23.164-9.3359-4.1602-1.4805-7.7031-4.3125-10.062-8.0469-0.34766-0.58203-1.3711-0.41797-1.2305 0.36328 1.6484 9.1172 11.918 12.727 19.605 15.078v0.003906c4.6484 1.082 9.0273 3.0938 12.879 5.9141 1.7969 1.5117 3.1641 3.4648 4.9492 5 1.8359 1.625 4.2383 2.4688 6.6875 2.3477 2.6406-0.375 5.0938-1.5859 6.9922-3.457 2.0469-1.8984 3.7148-4.1641 4.9141-6.6836 0.32812-0.63281-0.625-1.2812-1.125-0.80469z"/>
  <path d="m285.23 364.26c-2.168-0.16406-4.1211-1.3633-5.2539-3.2227-0.85156-1.8203-1.9688-3.5078-3.3125-5.0039-2.9102-2.4219-6.25-4.2773-9.8438-5.4648-3.7227-1.2734-6.9805-3.6367-9.3398-6.7852-2.0781-3.9336-3.4883-8.1836-4.168-12.578-0.17188-0.65625-1.3008-0.76953-1.2969 0.039063h-0.003906c-0.074219 4.8555 0.93359 9.668 2.957 14.082 2.1289 3.8945 5.6016 6.8789 9.7656 8.4023 3.9258 1.1289 7.4883 3.2656 10.332 6.1953 1.4727 2.043 2.0547 4.4961 4.3828 5.8281 1.8867 1.2617 4.3281 1.3281 6.2812 0.17188 0.76172-0.50391 0.20312-1.5117-0.5-1.6641z"/>
  <path d="m336.12 344.59c-12.074-1.3359-24.316-1.1367-36.445-1.3555v-0.003906c-11.219 0.41016-22.359-2.043-32.371-7.1289-4.793-2.9844-9.3203-6.3789-13.531-10.145-0.1875-0.12109-0.42578-0.10938-0.59766 0.03125-0.17188 0.13672-0.23047 0.37109-0.14844 0.57812 5.5664 8.9297 14.398 15.332 24.613 17.848 5.9062 1.543 11.977 2.3789 18.082 2.4883 6.3047 0.22266 12.637 0.23828 18.945 0.16016 7.1562-0.085938 14.371-0.11328 21.504-0.77734 0.98047-0.09375 0.89453-1.5938-0.050781-1.6953z"/>
  <path d="m372.35 364.56c-2.3398-1.6211-5.2031-2.3203-8.0273-1.9531-0.71484-0.33203-1.4531-0.63281-2.1289-1.0273v-0.003906c-1.2031-0.69141-2.3359-1.5-3.3789-2.4102l-3.2695-2.8984c-0.29297-0.26172-3.2031-2.5391-3.1758-2.6367 0.14453-0.5-0.52344-0.92188-0.84375-0.44531-0.74609 1.1094 0.31641 2.2422 0.99609 3.1328 1.1445 1.6641 2.4141 3.2383 3.7969 4.7109 0.77344 0.75781 1.5938 1.457 2.4609 2.0977l-0.10156 0.007812-1.7812 0.1875 0.003907 0.003907c-0.37891-0.18359-0.74219-0.39844-1.0898-0.63672-0.88281-0.76562-1.6836-1.6172-2.3945-2.543-1.3359-1.8594-3.2148-3.2539-5.3789-4-0.64062-0.16797-1.2656 0.72266-0.58984 1.1172 2.2227 1.293 3.25 3.8672 4.8008 5.8008l0.67188 0.78125-3.2344 0.50391c0.26953-0.050781 0.5-0.22266 0.62891-0.46484 0.125-0.24219 0.13281-0.53125 0.015625-0.78125-0.94531-2.5938-3.8789-2.9336-5.0977-5.2266h0.003906c-0.88281-2.7305-1.1328-5.6289-0.72266-8.4688-0.039063-3.1758-0.69141-6.2695-0.84766-9.418h-0.003906c-0.10938-1.5898 0.51562-3.1445 1.7031-4.207 1.1758-1.1875 2.2852-2.4297 3.332-3.7305 0.12891-0.19141 0.11719-0.44141-0.027343-0.61719-0.14844-0.17578-0.39062-0.23828-0.60156-0.15234-2.8281 1.5273-6.6094 3.2383-7.3789 6.6836-0.31641 2.4727-0.13672 4.9844 0.53516 7.3828l-0.67188 0.24609c-2.8906 1.9805-5.7109 4.0742-8.6211 6.0195-2.6953 1.8047-5.6133 3.3125-8.2031 5.2617h-0.003906c-1.6719 1.2305-2.9805 2.8906-3.7852 4.8047-1.9492-1.7305-4.4336-2.7383-7.0352-2.8555-2.6797-0.45703-5.4023-0.57031-8.1094-0.33984-2.6836 0.22266-5.3203 0.85938-7.8086 1.8789-2.3945 1.0664-4.6602 2.4023-6.7539 3.9727-0.38281 0.26562 0.015625 0.90234 0.42578 0.69531h0.003906c4.5391-2.0156 9.4414-3.0977 14.406-3.1719 2.4219-0.10547 4.8438 0.042969 7.2305 0.44531 2.25 0.75781 4.6016 1.168 6.9727 1.2188l-0.20703 0.72266c-0.41406 1.6172-0.96875 3.1953-1.6602 4.7188-0.089844 0.19141-0.85547 1.543-1.582 2.6562l-1.9297 0.41406c-9.7891 2.2617-19.762 3.6367-29.797 4.1133-9.9258 0.33203-19.84-0.97656-29.34-3.8828-5.125-1.7656-10.375-3.1602-15.699-4.1719-5.2227-0.95703-10.586-0.78906-15.734 0.49219-1.0977 0.31641-0.89453 2.082 0.28516 1.8594l-0.003907-0.003906c4.7227-0.91406 9.5977-0.71094 14.227 0.59766 4.5234 1.2461 8.9688 2.75 13.422 4.2461 9.2031 3.2695 18.855 5.0898 28.617 5.4023 19.742-0.89062 39.316-4.0547 58.336-9.4297 5.4688-1.1758 10.965-2.2539 16.5-3.0508 2.8125-0.40234 5.6328-0.76172 8.457-1.0352v0.003906c2.5742-0.39844 5.1953-0.32812 7.7422 0.21875 0.74609 0.22266 1.5469-0.12109 1.9023-0.81641 0.35156-0.69531 0.16016-1.543-0.45703-2.0195zm-28.492 0.83984c-4.1797 0.80078-8.3438 1.7148-12.5 2.6641h0.003906c0.11328-0.94141 0.14062-1.8867 0.074219-2.832-0.015625-0.47266-0.73047-0.48438-0.875-0.085938l-0.003906-0.003906c-0.47656 1.1406-1.082 2.2188-1.8125 3.2148l-0.26563 0.36719c-3.125 0.72266-6.2461 1.4531-9.375 2.1602l0.38672-0.52734v0.003906c1.0547-1.457 1.8711-3.0664 2.4219-4.7773 0.35156-1.8633 1.1719-3.6055 2.3828-5.0664 1.2773-1.0625 2.7188-1.918 4.2656-2.5273 1.6992-0.8125 3.3477-1.7188 4.9453-2.7109 3.0078-1.8242 5.75-4.043 8.1602-6.6055-0.28125 3.1992-0.089843 6.418 0.56641 9.5586l0.12891 0.32422c-1.8047 0.41016-3.6055 0.99219-5.3594 1.5547-0.97266 0.3125-1.9492 0.61328-2.8945 0.99219-1.0352 0.41797-1.9883 1.0859-3.0391 1.4258-0.57422 0.18359-0.28906 1.1484 0.30078 1.0156 0.98828-0.23047 2.0508-0.15625 3.0547-0.29297 1.1133-0.15234 2.2109-0.42578 3.3047-0.68359h-0.003906c2.0195-0.4375 4.0156-0.98047 5.9805-1.6289l0.17969-0.085938 0.9375 0.79688h0.003907c1.3633 0.72266 2.6758 1.5312 3.9375 2.418 0.24219 0.23828 0.58594 0.34375 0.92188 0.28125-1.9492 0.32422-3.8906 0.67969-5.8281 1.0508z"/>
  <path d="m377.85 458.14c-3.5039-3.1758-7.5859-5.6328-11.258-8.6133-3.6016-2.918-6.9219-6.1641-9.918-9.6953-3.1055-3.7422-5.8945-7.7344-8.3438-11.934-2.3203-4.3242-5.168-8.3438-8.4844-11.961-1.7461-1.7383-3.7578-3.1875-5.957-4.2969-2.2539-1.1641-4.7539-1.7695-7.2891-1.7617-0.6875-0.007812-1.0352 1.0078-0.28906 1.2461 8.5273 4.1445 15.293 11.203 19.078 19.895 4.7344 8.0664 10.816 15.262 17.984 21.27l1.4414 1.168-2.0156 0.17187c-3.3672 0.22266-6.7031 0.78516-9.9531 1.6836-2.7109 0.91797-5.1484 2.4922-7.0977 4.5859-0.99219 1.0039-1.8984 2.0859-2.7227 3.2344-0.88281 1.2617-1.3906 2.7344-2.2539 3.9922-0.48047 0.69922 0.51172 1.3555 1.0547 0.74609l0.003906 0.003906c1.043-0.99219 2.1367-1.9258 3.2812-2.7969 0.875-0.78516 1.7422-1.5742 2.6758-2.2891 2.1133-1.6367 4.5742-2.7734 7.1875-3.3203 2.9297-0.5625 5.8867-0.96094 8.8594-1.1914 1.5-0.14453 2.9922-0.28516 4.4883-0.47266 0.75781-0.09375 1.5977-0.10156 2.3828-0.24219h0.003906c1.9062 1.125 3.9531 1.9883 6.0898 2.5625 0.53125 0.17969 1.1094-0.050781 1.3711-0.54297 0.26172-0.49609 0.125-1.1055-0.32031-1.4414z"/>
  <path d="m567.44 474.4c-2.9688 0.90625-5.9844 1.6367-9.0352 2.1953-3.1367 0.44141-6.3164 0.49219-9.4648 0.14844-2.9844-0.50391-5.9922-0.83984-9.0117-1.0156-1.3984 0.027344-2.7969 0.12891-4.1836 0.30469-1.5508 0.13281-3.1055 0.17188-4.6602 0.125-2.8867 0-5.7227 0.24609-8.6133 0.058594h-0.003906c-2.8633-0.19922-5.7148-0.5625-8.5391-1.0898-5.6445-1.1211-11.223-2.5625-16.707-4.3125-11.066-3.8438-22.516-6.4922-34.148-7.8945-6.0312-0.21094-12.004-1.2266-17.766-3.0234-5.1602-1.8477-10.031-4.3906-15.078-6.5195-4.3477-1.9648-8.9844-3.2031-13.73-3.668l1.7969-0.82031c5.9492-2.1992 11.359-5.6367 15.879-10.086 2.0586-2.1055 3.8516-4.4531 5.3359-6.9961 0.26953-0.76953 0.66016-1.4922 1.1562-2.1445 0.58594-0.61328 1.2422-1.1602 1.9531-1.6211 1.3281-0.8125 2.6016-1.7031 3.8164-2.6758 2.3164-2.043 3.6406-4.9844 3.6289-8.0703-0.18359-3.0664-0.039062-6.1445 0.42578-9.1797 0.16406-0.78516-1.0234-1.1758-1.4375-0.53516-2.7773 4.3164-1.4414 10.004-4.1172 14.344-0.70703 1.1484-1.7148 2.043-2.5273 3.1094-0.85547 1.125-1.582 2.3672-2.4883 3.4375-1.0352 1.2188-2.4648 1.875-3.5586 3.0508-1.0586 1.1367-2 2.3672-3.1133 3.4609v-0.007813c-4.4883 4.0742-9.6055 7.3984-15.148 9.8516-5.6602 2.6875-11.449 5.0898-17.348 7.1953-3.3086 1.2109-6.6055 2.4336-9.8828 3.7266-3.3477 1.3242-6.707 2.7188-10.059 3.9922-0.25 0.12109-0.375 0.40234-0.29688 0.66797 0.078125 0.26172 0.33594 0.42969 0.60938 0.39844 3.2109-0.75391 6.4609-1.3828 9.6797-2.1914 3.0859-0.77344 6.1523-1.5469 9.1797-2.5469 1.6758-0.55078 3.3438-1.1289 5.0039-1.7266 2.4414-0.55469 4.9297-0.87891 7.4336-0.97656 5.3281 0.074219 10.582 1.2773 15.41 3.5352 4.9805 2.0703 9.7578 4.6016 14.789 6.5508 5.5625 2.0195 11.395 3.1953 17.301 3.4883 5.9727 0.37109 11.906 1.2422 17.734 2.6016 5.6484 1.3906 11.199 3.1484 16.762 4.8555 10.766 3.8945 22.102 5.9766 33.547 6.1562 1.6328-0.011719 3.2539-0.22266 4.832-0.625 1.6016-0.46484 3.2344-0.80859 4.8867-1.0195 3.4805-0.12891 6.9609 0.16016 10.371 0.85938 6.8516 1.0078 13.848 0.25781 20.328-2.1797 1.6953-0.73047 0.93359-3.6875-0.94141-3.1875z"/>
  <path d="m425.56 484.32c-4.9766-2.9219-11.051-3.3047-16.355-1.0312-5.8867 1.8477-11.324 4.8672-17.219 6.7148h-0.003906c-5.8789 1.7773-11.941 2.8867-18.07 3.2969-3.0898 0.23828-6.1914 0.25391-9.2891 0.22656-3.0664 0.14453-6.1367 0.10937-9.2031-0.10156-0.56641-0.070313-0.80859 0.85156-0.23047 0.99609v0.003906c2.8086 0.88672 5.6641 1.6211 8.5469 2.207 3.0312 0.40234 6.0859 0.55859 9.1406 0.46875 6-0.13672 11.961-1.0039 17.754-2.5781 5.8789-1.582 11.328-4.0938 17.008-6.2227 5.4141-2.1445 11.324-2.7109 17.047-1.6367 1.3242 0.26172 1.8516-1.6289 0.875-2.3438z"/>
  <path d="m574.69 475.49c-0.21484 0.75391-0.46094 1.4922-0.72656 2.2227-0.85938 0.38281-1.707 1.1602-2.4609 1.5664-0.78125 0.42188-2.1328 1.1172-2.4414 2.0078l0.074218 0.44531v0.003906c0.82422 0.63672 1.9141 0.80859 2.8945 0.45703-1.2461 2.5078-2.6875 4.9258-4.1562 7.3125-0.99219 2.0312-2.4102 3.8281-4.1562 5.2656-1.8711 1.1016-3.9922 1.7188-6.1641 1.793-5.1406 0.25391-10.297-0.10156-15.355-1.0508-2.7773-0.55078-5.6211-0.6875-8.4375-0.41016-2.5703 0.37891-5.043 1.293-7.6445 1.4961-2.7656 0.019532-5.4961-0.58594-7.9922-1.7734-2.4297-1.0156-4.9727-1.7461-7.5703-2.1797-5.5625-0.51172-11.16-0.61719-16.738-0.31641-10.914 0.12891-21.844 0.48047-32.758 0.375h-0.003907c-5.2383-0.023437-10.465-0.47656-15.629-1.3594-5.0898-0.88672-9.9922-2.6445-14.484-5.1992-0.64453-0.35938-1.5664 0.39844-0.96875 1.0352v0.003906c7.1797 6.3555 16.48 9.7852 26.066 9.6172 11.242 0.66797 22.598 0.17578 33.855 0.097656 5.9258-0.042969 11.926-0.37109 17.844 0.03125v-0.003906c2.8672 0.125 5.7148 0.58203 8.4766 1.3633 2.5703 0.96875 5.2578 1.5781 7.9961 1.8047 2.6367-0.089844 5.2656-0.38281 7.8594-0.875 3.0352-0.33594 6.0977-0.22266 9.0977 0.32812 5.3867 1.0039 10.859 1.4844 16.336 1.4453 2.6992-0.019532 5.3555-0.67578 7.7578-1.9141 2.3711-1.3984 4.2969-3.4414 5.5586-5.8867 3.2969-5.2031 5.5352-11.008 6.5742-17.078 0.17969-1.5391-2.2578-2.1797-2.7031-0.625z"/>
  <path d="m495.93 438.2c-4.3047 1.5742-8.5039-0.91797-12.496-2.2852-4.4922-1.5547-9.1797-2.4922-13.926-2.7773-9.7148 0.26953-19.391 1.375-28.918 3.3047-0.45703 0.054688-0.56641 0.80469-0.09375 0.92578v0.003906c4.8438 0.92188 9.8125 0.91797 14.656-0.003906 5.1172-0.70312 10.297-0.83203 15.445-0.37891 5.0352 0.54297 9.9805 1.7109 14.727 3.4805 3.8047 1.3789 8.5898 3.0352 12.023 0.039063v-0.003907c0.50391-0.44141 0.61719-1.1797 0.26563-1.75-0.35156-0.57422-1.0625-0.80469-1.6836-0.55469z"/>
  <path d="m514.28 410.04c-1.6602 1.8242-3.6836 3.2852-5.9414 4.2891-2.2422 1.1094-4.5508 2.0859-6.9102 2.9219-5.0195 1.7461-10.223 2.9219-15.504 3.5-10.508 0.97266-21.105 0.30859-31.414-1.9766-0.54687-0.10547-0.62891 0.66797-0.20312 0.87891h0.003906c10.387 4.7891 21.969 6.3516 33.254 4.4805 5.543-0.80469 10.98-2.25 16.191-4.3086 5.1328-1.1797 9.5859-4.3477 12.383-8.8047 0.50781-1.1445-1.1406-1.8867-1.8594-0.98047z"/>
  <path d="m444.38 408.45c-0.082031-0.44531-0.47656-0.76562-0.92969-0.75391-0.45312 0.011719-0.82812 0.35547-0.88672 0.80469-0.20703 2.0391-2.4961 3.9727-4.0508 5.0977v-0.003906c-2.0039 1.207-3.8984 2.5898-5.6641 4.1289-1.3398 1.832-2.5195 3.7773-3.5234 5.8125-1.2383 1.6133-2.918 2.8359-4.832 3.5234-4.7578 1.668-9.6914 2.7734-14.703 3.3008-3.1562 0.5-6.3633 0.73438-9.5469 1.082h-0.003906c-0.17969-1.7891-0.52344-3.5625-1.0156-5.293-0.47266-2.2539-0.99609-4.5039-1.5117-6.75l-0.48438-2.0508v-0.003906c1.7344-1.7031 3.3398-3.5312 4.8008-5.4727 1.332-1.5742 2.4375-3.3281 3.2773-5.207 1.6797-0.53125 3.2344-1.4023 4.5586-2.5625 0.49609-0.43359 0.60938-1.1602 0.26562-1.7188-0.34766-0.5625-1.0469-0.78906-1.6562-0.54297-3.3164 1.6602-7.1445 2.0039-10.707 0.95703-3.043-1.1797-5.1172-4.0273-5.3086-7.2891-0.039063-1.6289 0.52344-3.2188 1.5742-4.4648 1.3008-1.7305 2.7148-3.3906 4.0469-5.1016h-0.003907c2.832-3.2539 5.2461-6.8477 7.1875-10.699 0.80859 0.46875 1.5703 1.0195 2.2695 1.6367 0.92578 0.8125 1.7109 1.7695 2.3359 2.8281 0.57422 1.4883 1.4453 2.8477 2.5586 3.9883 0.48828 0.33203 1.1133 0.38672 1.6484 0.14062 0.53516-0.24219 0.90625-0.75 0.97656-1.3359 0.046875-3.3242-1.4883-6.4727-4.1328-8.4883-2.3281-2.0195-5.0664-3.5117-8.0273-4.375-3.3008-0.95703-6.7148-1.4766-10.152-1.5469-1.9805-0.078126-3.9609-0.12891-5.9375-0.19141-2.0547 0.074219-4.1094-0.027343-6.1484-0.29688-0.58594-0.11719-0.76563 0.79297-0.23047 0.99609h-0.003907c1.5977 0.71094 3.2305 1.3398 4.8906 1.8828 1.6523 0.41016 3.3242 0.72266 5.0078 0.9375 3.3789 0.34375 6.7266 0.92969 10.023 1.75 0.85937 0.25781 1.707 0.55469 2.5391 0.89844-3.8359 3.5352-7.2383 7.5117-10.145 11.844-1.3008 1.6094-2.3945 3.3789-3.25 5.2617-1.4375-3.8086-3.0859-7.5352-4.9375-11.156-2.1055-4.6289-5.0195-8.8398-8.6094-12.441-0.69141-0.61328-1.5234 0.33594-1.2734 1.043 1.0859 2.6914 2.3164 5.3203 3.6836 7.8789 1.2539 2.625 2.4883 5.2656 3.6211 7.9453 2.2109 5.2266 4.1758 10.543 5.8945 15.953 1.7227 5.4336 3.1602 10.953 4.5156 16.488 0.70312 2.8672 1.3789 5.7461 2.0273 8.6289 0.32812 1.4375 0.67578 2.8711 1.0273 4.3047 0.18359 0.74609 0.33594 1.4883 0.57031 2.1953-0.79297 0.13281-1.5859 0.28125-2.3711 0.45313v-0.003907c-2.5078 0.49219-4.9023 1.4453-7.0625 2.8164-0.30078-0.89453-0.59375-1.7852-0.94922-2.6523-0.71094-1.5312-1.5117-3.0195-2.3906-4.4609-1.3398-2.5547-2.8555-5.0117-4.5352-7.3555-1.7422-2.2461-3.832-4.1953-6.1953-5.7812-2.3516-1.4336-4.3359-3.3984-5.793-5.7383-1.8867-5.1406-4.0664-10.172-6.5234-15.066-0.86719-1.2578-1.9492-2.3516-3.1914-3.2383 1.3008-0.73438 2.5234-1.6094 3.6406-2.6055 1.0469-0.94141 0.375-3.1953-1.2344-2.7539-4.9727 1.3594-9.6719 3.5234-14.75 4.5742-4.9727 0.96875-10.047 1.3164-15.105 1.0312-10.246-0.44922-20.422-2.5898-30.699-2.0938v-0.003906c-2.75 0.12109-5.4883 0.42578-8.1992 0.92188-1.3633 0.26562-2.7148 0.61719-4.0352 1.0547-1.4141 0.45312-2.6758 1.2148-4.0742 1.6641-0.71875 0.23047-0.23438 1.2969 0.47266 1.0703 1.3047-0.30078 2.6289-0.48047 3.9648-0.53125 1.2812-0.15234 2.5703-0.23047 3.8555-0.32812 2.6133-0.17969 5.2344-0.17969 7.8477 0.003906 5.0508 0.32422 10.094 0.90625 15.113 1.5312l0.71875 0.09375c-1.5273 6.793-1.9141 13.793-1.1445 20.715 0.6875 8.1758 2.2695 16.254 4.7148 24.082 2.2656 7.6172 4.9492 15.125 6.75 22.875 0.87109 3.9727 1.5156 7.9883 1.9414 12.031 0.19922 3.4375 1.3867 6.75 3.418 9.5312 4.625 5.2773 11.055 8.6289 18.023 9.4062 0.34766 0.023438 0.66797-0.18359 0.78906-0.50781 0.12109-0.32422 0.015625-0.69141-0.26172-0.89844-5.3359-2.2773-10.23-5.4609-14.477-9.4141-1.8555-2.5781-2.9102-5.6484-3.0352-8.8242-0.35938-3.8555-0.95703-7.6836-1.793-11.465-4.6914-14.598-8.4961-29.465-11.391-44.52-0.45312-4.4023-0.60937-8.832-0.46875-13.254 0.097657-3.1094 0.31641-6.2305 0.34766-9.3438 8.8203 1.4062 17.809 1.4453 26.645 0.10937 2.6875-0.48828 5.332-1.1875 7.9102-2.0938 0.77344 0.41016 1.5117 0.88281 2.207 1.4102 1.7422 1.4727 3.0547 3.3867 3.8086 5.543 1.2539 4.9531 3.5039 9.6016 6.6172 13.656 1.8516 1.6133 3.7891 3.1289 5.8008 4.5391 2.1094 1.6797 3.9414 3.6836 5.4297 5.9297 1.4375 2.1602 2.6367 4.4727 3.8672 6.7578 0.63281 1.2969 1.3438 2.5547 2.1328 3.7578 0.62891 0.875 1.3164 1.7109 1.9844 2.5625l-0.55859 0.62891v0.003906c-0.34375 0.42188-0.66406 0.87109-0.94922 1.3398-0.37891 0.60547-0.55469 1.4023-0.94141 1.9727-0.41016 0.60547 0.51562 1.2617 0.92578 0.65625v-0.003906c0.86719-0.90625 1.8984-1.6367 3.043-2.1523 0.98438-0.52734 2-0.99219 3.0352-1.3984 2.3125-0.92969 4.7266-1.5781 7.1914-1.9414 5.6797-0.85547 11.414-1.0117 17.078-2.0508 4.9023-0.70312 9.6641-2.1836 14.102-4.3867 1.957-1.0352 3.6445-2.5078 4.9375-4.3047 1.3633-1.9883 1.8828-4.3633 3.7773-5.9766 1.9648-1.668 4.3945-2.7031 6.25-4.5078h0.003906c1.875-1.6523 2.6992-4.1914 2.1602-6.6289zm-42.594-1.1914c-0.77344 0.73438-1.5117 1.5117-2.25 2.2852-1.1094 1.1602-2.2578 2.2891-3.3711 3.4531-0.59375-2.3477-1.2148-4.6875-1.8711-7.0156l-0.25781-0.89844c2.2969 1.5039 5.0039 2.2656 7.75 2.1758z"/>
  <path d="m443.01 372.66c-2.9141-9.1211-8.8789-16.957-16.891-22.203-3.7031-3.3477-8.5664-5.1172-13.555-4.9297 0.51562-2.0586 0.85156-4.1562 1-6.2734 0.007813-0.26562-0.19141-0.49609-0.45703-0.52344-0.26562-0.027343-0.50781 0.16016-0.55078 0.42188-0.37109 2.3438-1.207 4.5859-2.457 6.6016-1.2773 0.16016-2.5508 0.37109-3.8242 0.61719l-0.21875-0.55469c-1.1016-1.3203-3.8125-2.1133-4.2188-3.9883-0.18359-0.84375 0.98438-1.1094 1.4492-1.75h-0.003906c0.44141-0.73438 0.62891-1.5898 0.53125-2.4414-0.027344-2.0859-0.17578-4.168-0.44141-6.2344-0.10938-2.0508-0.63281-4.0586-1.5352-5.9062-0.11719-0.24609-0.38281-0.38281-0.65234-0.33984-0.26953 0.042968-0.47656 0.25781-0.51172 0.52734-0.10938 2.3359 0.015625 4.6719 0.35938 6.9844 0.074219 1.3672 0.089844 2.7344 0.050782 4.1055 0.0625 0.99609 0.015624 2-0.14063 2.9883-0.4375 1.5781-1.3906 2.332-0.44141 4.0312 0.75 1.2891 1.8164 2.3633 3.0977 3.1289-2.6797 0.58203-5.3516 1.2109-8.0273 1.625-6.543 0.98047-13.152 1.4141-19.766 1.2891-0.125-0.011719-0.24609 0.023438-0.33984 0.10156-0.097656 0.078125-0.15625 0.19141-0.16797 0.3125-0.027343 0.25781 0.16016 0.48438 0.41406 0.51172 10.527 1.5625 21.242 1.3125 31.684-0.73828 2.4727-0.58594 5.0156-0.83984 7.5547-0.75391 2.4805 0.24219 4.8477 1.1719 6.832 2.6797 3.6953 2.7109 7.1367 5.7461 10.289 9.0703 3.5508 3.5703 6.418 7.7656 8.457 12.371 0.27734 0.58203 0.93359 0.875 1.5508 0.69141 0.61719-0.17969 1.0117-0.78516 0.92969-1.4219z"/>
  <path d="m447.04 389.97c-0.054688-2.6016-0.31641-5.1953-0.78906-7.7539-0.50781-2.5781-1.2695-5.0781-1.8398-7.6367-0.054687-0.28125-0.32422-0.47266-0.60937-0.42578-0.28516 0.042969-0.48047 0.30859-0.44531 0.59375 0.46484 5.0977 0.5 10.223 0.10547 15.324-0.19531 4.9219-1.2383 9.9062-1.0039 14.816 0.078124 1.6484 2.457 1.6211 2.9922 0.30078v-0.003906c1.5547-4.9102 2.0938-10.086 1.5898-15.215z"/>
  <path d="m396.65 327.31c-1.1875 1.375-2.2617 2.8398-3.2188 4.3828-1.0391 1.3711-1.8945 2.8789-2.543 4.4727-0.52344 1.6367-0.1875 3.332-0.58984 4.9688h0.003907c-0.56641 1.4219-1.3789 2.7305-2.4062 3.8672-0.57813 0.84375 0.35156 2.1953 1.3477 1.6484 1.3477-0.67969 2.5039-1.6758 3.3711-2.9062 0.87109-1.4805 1.2422-3.1992 1.0625-4.9062-0.089844-3.9648 2.7656-7.3281 3.8906-11.039 0.085938-0.24609-0.023437-0.51562-0.25-0.63672-0.23047-0.12109-0.51562-0.058593-0.66797 0.14844z"/>
  <path d="m455.67 383.76c2.1641-4.25 3.1836-8.9883 2.9648-13.75-2.2891-8.6406-6.1328-16.789-11.336-24.055-1.8594-4.8555-3.125-9.9219-3.7695-15.082-0.96875-4.8594-2.6758-9.543-5.0703-13.883-4.6211-8.7383-12.754-15.086-22.355-17.453-4.4844-1.0859-9.1953-0.83203-13.535 0.73438-4.3438 1.5703-8.1289 4.3789-10.887 8.082l-1.5625-0.79688c-6.8477-2.75-14.312-3.582-21.598-2.4023-3.4453 0.35156-6.7305 1.6289-9.5078 3.6953-2.7812 2.0664-4.9492 4.8438-6.2852 8.0391-2.4141 6.2695-1.8477 13.301 1.543 19.105 2.0078 3.2461 4.5586 6.125 7.5469 8.5039 1.2617 1.2266 2.2305 2.7227 2.832 4.375 0.53125 1.3633 1.6211 2.4336 2.9922 2.9375 0.89844 0.33594 1.3945-0.83203 0.74219-1.4062-0.77734-1.0156-1.2734-2.2188-1.4336-3.4883-0.28516-1.2461-0.80469-2.4258-1.5273-3.4805l-0.26172-0.33984c1.8477-4.3438 5.543-5.8438 9.6328-7.7461 1.9609-0.79297 3.7305-1.9922 5.1953-3.5195 1.2109-1.5117 2.1406-3.2305 2.7539-5.0703 0.10156-0.27344-0.039063-0.58203-0.31641-0.68359-0.27734-0.10156-0.58203 0.039063-0.6875 0.3125-0.85547 2.3047-3.1719 3.1406-5.2617 4.0547-2.3008 1.0078-4.707 1.7773-6.9727 2.8555-3.2383 1.2617-5.8516 3.75-7.2695 6.9258-1.0625-0.86719-2.043-1.832-2.9297-2.8828-0.81641-1.0273-1.5352-2.1211-2.1484-3.2773 0.25-0.91406 0.41016-1.8828 0.66016-2.6602 0.59375-1.8242 1.375-3.5859 2.332-5.25 1.6094-3.0469 4.1172-5.5234 7.1836-7.1016 3.7578-1.4688 7.8398-1.9062 11.824-1.2656 2.0508 0.12891 4.0625 0.625 5.9336 1.4648 0.75781 0.39062 1.4688 0.87109 2.1172 1.4219 0.82031 0.53516 1.5508 1.1914 2.1719 1.9453 0.11719 0.23047 0.39062 0.33203 0.62891 0.22656 0.23438-0.10547 0.34766-0.375 0.25391-0.61719-0.14844-0.89062-0.42188-1.7578-0.80859-2.5781-0.54688-0.84375-1.2344-1.5938-2.0352-2.2109-1.8828-1.418-4.0547-2.4023-6.3672-2.8711-4.7734-1.3555-9.8359-1.3008-14.582 0.15234-3.9961 1.5781-7.3242 4.4844-9.4258 8.2344-0.85938 1.5312-1.5352 3.1602-2.0117 4.8516-0.36719-2.2383-0.28125-4.5273 0.25781-6.7305 0.67969-2.7422 2.0859-5.25 4.0742-7.2617 1.9844-2.0078 4.4805-3.4414 7.2148-4.1484 3.0156-0.69922 6.1172-0.96875 9.2109-0.80078 3.1719 0.023437 6.3242 0.42578 9.3984 1.2031 3.1953 0.64844 6.1016 2.293 8.3008 4.7031 2.1992 2.4062 3.5781 5.4531 3.9375 8.6953 0.082031 1.7344 2.6484 1.4688 2.8945-0.082031v-0.003907c0.15234-0.98047 0.1875-1.9727 0.097657-2.9648 2.0547 1.2305 4.3516 1.9922 6.7344 2.2227 1.0195 0.125 2.1211 0.16016 3.2031 0.28516l-0.12109 0.22656c-0.29297 0.50391 0.44922 1.0352 0.74219 0.52734 0.3125-0.53516 1.7227-0.21875 2.1523 0.046874 1.0625 0.66016 1.0664 2.25 0.96875 3.3477l-0.003906-0.003907c-0.28516 2.6328-0.95312 5.2109-1.9844 7.6484-0.25781 0.64453 0.63672 1.3711 1.1641 0.83203 1.6602-1.6875 2.8945-3.7422 3.6055-5.9961l0.18359 1.125c0.19141 2.875 0.60547 5.7344 1.2383 8.5469 0.6875 2.2617 1.9141 4.3242 3.5742 6.0039 3.3359 3.0234 7.1016 5.5352 11.176 7.457 5.1797 2.7539 9.125 7.3672 11.043 12.91 0.26953 0.80078 1.6133 0.40234 1.4258-0.42188-1.0547-4.9414-3.5898-9.4492-7.2734-12.914-3.6367-2.9023-7.457-5.5664-11.434-7.9766-1.75-1.1953-3.1875-2.7969-4.1875-4.6641-1.0156-2.7109-1.5703-5.5742-1.6328-8.4727 0.074218-5.0352-2.9805-9.5859-7.668-11.426-2.8906-0.79297-5.9531-0.37109-8.8203-1.1914-1.8242-0.50391-3.5664-1.2539-5.1914-2.2227l-0.53125-1.043v-0.003906c1.9062 0.38672 3.8438 0.60547 5.7852 0.65234 4.582-0.34375 9.1797 0.3125 13.48 1.9258 4.0508 2.7656 6.8984 6.9727 7.9648 11.762 0.89453 2.7031 1.7031 5.4336 2.7656 8.082v-0.003906c0.46484 1.2773 1.0508 2.5117 1.7461 3.6797 0.76172 1.1914 1.8047 2.1172 2.582 3.2969 0.27344 0.41797 1.0156-0.035156 0.75391-0.46484v0.003906c-0.64453-1.3633-1.082-2.8164-1.3047-4.3086-0.37109-1.375-0.75391-2.7344-1.0469-4.1289-0.58594-2.7656-1.1133-5.5469-1.9492-8.25v0.003907c-1.2422-5.0234-4.168-9.4648-8.293-12.582-4.2812-2.332-9.1367-3.3984-14-3.0859-2.3906 0.007812-4.7773-0.16016-7.1406-0.50781-1.9023-0.42578-3.7578-1.0195-5.5547-1.7773 5.4609-4.8945 12.887-6.9648 20.09-5.5977 8.7812 2.0742 16.164 7.9844 20.109 16.098 2.125 4.168 3.6094 8.6328 4.4102 13.238 0.59766 4.8477 1.8125 9.5977 3.6094 14.137 4.6875 6.8711 8.4922 14.305 11.324 22.125 0.28906 4.9805-0.21484 9.9766-1.4883 14.797-1.1562 4.5586-1.1992 9.3281-0.12109 13.906 0.15234 0.43359 0.91406 0.21875 0.78516-0.23047-0.65234-2.3125-0.77344-4.7422-0.35547-7.1094 0.58984-2.5 1.5117-4.9062 2.7344-7.1602z"/>
  <path d="m382.2 342.93c-0.54297-0.87109-1.4844-1.418-2.5117-1.457-1.2773 0.007813-2.4453 0.72656-3.0312 1.8633-1.168 2.2656 0.46875 5.5859 3.2266 5.043 0.34375-0.0625 0.62109-0.32422 0.69922-0.66406 0.082031-0.34375-0.046875-0.69922-0.32812-0.90625-0.59766-0.38672-1.582-1.5898-1.1172-2.3633 0.33203-0.55469 1.8086-1.1523 2.3945-0.78906 0.45312 0.28125 1.0469-0.27734 0.66797-0.72656z"/>
  <path d="m363.67 350.57c-1.5781-2.75-3.6406-5.1914-6.0859-7.2109l-0.64062-0.21875c-0.5625-1.6055-1.4297-3.0898-2.5508-4.3672-0.25781-0.29688-0.6875-0.35938-1.0195-0.15625-0.33203 0.20312-0.46484 0.61719-0.32031 0.97656 0.60156 1.8203 1.0703 3.6836 1.3984 5.5703 0.11719 1.8555 0.32812 3.6992 0.64062 5.5312 0.90625 3.4531 5.1133 5.0898 7.5625 7.2969 0.40234 0.36328 1.0078-0.29688 0.65234-0.69922-1.3047-1.4609-2.3477-3.1484-3.5508-4.6914h-0.003906c-1.1094-1.2031-1.7539-2.7617-1.8281-4.3984l-0.035156-0.53516c1.6562 1.2461 3.5195 2.2148 5.1211 3.6133 0.42578 0.36719 0.99609-0.29297 0.66016-0.71094z"/>
 </g>
</svg>