<?xml version="1.0" encoding="UTF-8"?>
<!-- Uploaded to: SVG Repo, www.svgrepo.com, Generator: SVG Repo Mixer Tools -->
<svg fill="#000000" width="800px" height="800px" version="1.1" viewBox="144 144 512 512" xmlns="http://www.w3.org/2000/svg">
 <g>
  <path d="m304.45 353.14c-0.76562-1.2227-2.0391-2.0469-3.4688-2.2461-1.9336-0.46484-3.8398-0.69531-5.7461-1.2969-3.7227-1.5664-7.6094-2.7109-11.586-3.3984-3.3945-0.27344-6.7656 0.78516-9.3945 2.9492-1.8828 1.5859-4.9961 5.0742-4.3945 7.7695 0.039063 0.21875 0.19141 0.40234 0.39844 0.48438 0.21094 0.078124 0.44531 0.042968 0.62109-0.09375 0.85156-0.79688 1.6133-1.6875 2.2617-2.6562 0.94922-1.0039 2.0742-1.832 3.3164-2.4453 2.6055-1.3008 5.5273-1.8359 8.4258-1.5391 3.2188 0.48438 6.3945 1.2148 9.5 2.1914 1.4141 0.32812 2.8594 0.51562 4.2969 0.70703v-0.003906c1.4336 0.24219 2.8281 0.67969 4.1406 1.3086 0.96875 0.39453 2.1836-0.75391 1.6289-1.7305z"/>
  <path d="m391.16 389.73c-2.8945-2.3945-5.9453-4.5859-9.1328-6.5664-6.6797-4.4766-14.02-7.8203-20.594-12.453l-0.003907 0.003906c-6.9414-5.0625-13.062-11.156-18.156-18.074-4.7109-6.1914-8.6719-12.91-13.215-19.219-4.5586-7.1914-11.336-12.703-19.305-15.699-0.31641-0.10938-0.66016 0.027344-0.81641 0.32422-0.15625 0.29297-0.074219 0.65625 0.19141 0.85547 10.77 10.43 20.094 22.25 27.73 35.152 8.082 10.82 18.348 19.816 30.137 26.414l-1.2812 0.89844c-1.7305 1.1445-3.4102 2.3672-5.0312 3.668-3.2305 2.6172-6.2031 5.5352-8.8828 8.7148-2.5664 2.9883-4.8438 6.2148-6.7969 9.6367l-1.0898-2.3555c-1.1328-2.543-2.3242-5.0625-3.668-7.4961l-0.003907-0.003906c-2.5391-4.7656-5.6641-9.1992-9.3008-13.191-4.168-3.8984-8.6406-7.4609-13.371-10.656-2.2539-1.7695-4.3086-3.7773-6.1289-5.9883-1.9844-2.1367-3.6875-4.5156-5.0625-7.0859-0.14844-0.31641-0.52344-0.45312-0.83984-0.3125s-0.46484 0.50781-0.33203 0.83203c0.75391 2.6836 1.7812 5.2891 3.0664 7.7656 1.4062 2.3398 3.125 4.4805 5.1094 6.3594 4.1914 3.957 9.2969 6.7578 13.258 10.98 3.6328 3.9883 6.6797 8.4688 9.0547 13.312 1.2617 2.4805 2.4414 5 3.543 7.5586v-0.003907c0.58203 2.0117 1.5664 3.8828 2.8945 5.5-0.94531 1.6641-2.2227 3.1133-3.7578 4.25-0.54297 0.36719 0.019531 1.1484 0.57812 0.9375 1.6445-0.50391 3.1992-1.2734 4.5977-2.2812 1.4141-1.1445 2.6953-2.4414 3.8281-3.8633 2.5391-3.0664 4.5898-6.5 7.1562-9.5547 2.6133-3.082 5.4766-5.9414 8.5625-8.5508 1.5781-1.3477 3.2031-2.6367 4.8906-3.8438 1.3477-0.76562 2.625-1.6445 3.8203-2.6289 0.96094 0.48828 1.9219 0.96094 2.8945 1.418 3.9375 1.7266 7.6641 3.8945 11.117 6.457 3.2422 2.5312 5.6758 5.9375 8.9727 8.3594 0.26172 0.17578 0.60938 0.18359 0.87891 0.015625 0.26953-0.17188 0.41797-0.48047 0.375-0.79688-0.85156-3.5391-2.9414-6.6562-5.8867-8.7891z"/>
  <path d="m474.71 345.32c-11.77 4.3125-22.93 10.145-33.191 17.348-5.7344 3.2461-12.406 4.4531-18.914 3.418-7.3203-2.1328-14.805-3.6641-22.375-4.5703-3.0586-0.16016-6.125 0.12109-9.1016 0.83984-0.87891-2.0273-2.0312-3.9219-3.4219-5.6367-1.4883-2.2148-3.0234-4.3945-4.6055-6.543-3.2344-4.3906-6.6445-8.6602-10.258-12.746-3.1602-3.5742-6.4609-7.0273-9.7031-10.531-3.6523-3.4922-6.4062-7.8203-8.0234-12.609-0.1875-0.69922-1.2695-0.56641-1.1406 0.17969 0.77344 4.5703 2.4023 8.9531 4.8086 12.914 2.7422 4.1367 5.832 8.0312 9.2383 11.641 3.668 4.207 7.2305 8.4883 10.566 12.965 1.668 2.2344 3.2852 4.5078 4.8516 6.8164v-0.003907c1.0352 1.8125 2.1797 3.5547 3.4297 5.2227-0.96875 0.53906-1.8555 1.2109-2.6367 2l-1.0898-1.0742c-3.5625-3.4609-7.2539-6.7891-10.785-10.289-3.3086-3.2812-6.8633-6.4922-9.8594-10.066-2.5898-3.875-4.4844-8.1719-5.5938-12.695l-5.0547-14.25c-1.9336-7.5469-5.6328-14.527-10.793-20.363-3.1523-2.9141-7.2344-4.6133-11.523-4.793-4.2852-0.18359-8.4961 1.168-11.883 3.8047-0.20313 0.17969-0.25 0.48047-0.10938 0.71484 0.14453 0.23047 0.43359 0.32812 0.6875 0.22266 3.7617-1.7148 7.9922-2.1172 12.008-1.1406 3.5898 1.1406 6.7227 3.3945 8.9531 6.4258 4.2578 6.6719 7.4336 13.977 9.418 21.637l4.9258 13.883c1.2852 4.1523 3.5273 7.9414 6.543 11.07 6.8555 6.8008 13.777 13.543 20.648 20.336 3.8594 3.8164 7.9141 7.3984 11.957 11.016h-0.003907c2.7188 3.3828 6.6992 5.5078 11.02 5.8789 0.4375-0.078125 0.76563-0.4375 0.80859-0.87891 0.046875-0.4375-0.20703-0.85547-0.61719-1.0195-4.2656-1.1289-7.2969-5.457-10.125-8.5664-2.0391-2.2422-4.125-4.4336-6.2461-6.582h-0.003906c1.375-0.55469 2.7852-1.0156 4.2227-1.3711 2.9805-0.66797 6.0469-0.86719 9.0898-0.58984 7.4648 0.60547 14.52 3.4023 22.059 3.3398 6.2109 0.011719 12.355-1.2422 18.062-3.6914 5.5703-2.6328 10.926-5.6914 16.023-9.1523 5.8555-3.8789 12.031-7.25 18.457-10.078 0.57422-0.26953 0.86328-0.91406 0.68359-1.5234-0.17969-0.60547-0.77344-0.99219-1.4023-0.90625z"/>
  <path d="m340.15 425.32c-9.3047-6.3477-16.363-15.473-20.164-26.078-3.3086-6.5-6.6953-12.965-10-19.469-1.2344-2.8633-2.8242-5.5625-4.7305-8.0273-2.1172-2.1914-4.6016-3.9961-7.3398-5.332-3.3203-1.8359-6.7695-3.4258-10.32-4.7617-3.7305-1.168-7.5234-2.0977-11.367-2.7891-0.48828-0.11719-0.78906 0.57812-0.28125 0.75781 3.1445 1.3008 6.2227 2.7656 9.2188 4.3828 3.1406 1.5078 6.25 3.082 9.2773 4.8086 2.9453 1.4219 5.5977 3.3906 7.8086 5.8008 1.8672 2.707 3.4453 5.5977 4.7109 8.6289 3.2344 6.5312 6.3828 13.105 9.6094 19.641h0.003906c2.4336 5.3516 5.2969 10.496 8.5625 15.387 3.3164 5.0469 8.4453 8.625 14.328 9.9961 1.8438 0.33984 2.0977-2.2227 0.68359-2.9453z"/>
  <path d="m477.05 362.24c-2.2891 2.9414-4.0625 6.1953-6.5117 9.043v-0.003906c-2.4883 2.8281-5.1797 5.4648-8.0508 7.8945-3.3906 2.9336-6.9258 5.6914-10.43 8.4844l-0.58984 0.13281c-5.918 1.9883-11.977 3.5391-18.121 4.6445-2.9922 1.1602-5.8047 2.7305-8.8281 3.8242h0.003906c-1.6133 0.58203-3.2617 1.0508-4.9375 1.4023l-1.4531-1.8594c-0.51172-0.65625-1.0352-1.3555-1.5977-2.0234 1.0586 0.12109 2.1016 0.34375 3.168 0.37891 2.0742 0.19531 4.0938-0.73047 5.3008-2.4258 0.61328-0.71484-0.51172-1.75-1.2109-1.1289-1.6875 1.5078-5.3633 0.34375-7.2227-0.082031-1.3789-0.31641-6.7969-1.1602-8.1133-1.6719h0.003906c-0.29688-0.10156-0.61719 0.027344-0.76562 0.30469-0.14453 0.27344-0.066407 0.61328 0.17969 0.80078 1.5625 1.4531 2.8594 3.1719 3.8281 5.0742 0.94141 1.3828 1.9727 2.7109 3.082 3.9688l0.25781 0.5625 0.5625 0.4375c2.1758 3.4062 5.6094 5.8164 9.5547 6.7031 0.39453 0.027344 0.76563-0.17578 0.95313-0.52344 0.18359-0.34766 0.14844-0.76953-0.089844-1.082-1.0273-1.2852-2.2617-2.3945-3.3711-3.625 4.0586-0.92188 7.9883-2.3438 11.699-4.2344 1.5781-0.69922 3.2266-1.2383 4.9141-1.6016 1.2852-0.24609 2.5898-0.33984 3.8906-0.48438-5.2734 5.0352-10.09 10.527-14.398 16.41-4.7656 6.7969-10.184 13.109-16.18 18.848-1.1602 0.99609-2.25 2.0625-3.2734 3.1953-1.9766-3.7148-4.2266-7.2773-6.7383-10.656-1.3906-2.0312-2.7656-4.0703-4.0859-6.1445-0.62891-1.0469-1.3398-2.0391-2.1211-2.9727 1.9023-0.92578 3.7852-1.8945 5.6523-2.9102l0.22266-0.13672h-0.003906c0.89453 0.96094 2.0508 1.6406 3.3281 1.9492 2.7109 0.52734 5.4766 0.74219 8.2422 0.62891 0.76953 0.27344 1.5547 0.5 2.3555 0.67969 2.1953 0.41797 4.4414 0.51953 6.6641 0.30078 0.51562 0.003906 1.0312-0.035156 1.543-0.11328 0.63672-0.09375 1.1602-0.54688 1.3438-1.168 0.25781-0.12891 0.4375-0.37109 0.49219-0.65234 0.050781-0.28516-0.035156-0.57812-0.23047-0.78906-2.6211-2.2656-5.4375-4.293-8.4141-6.0625-2.9922-2.125-5.7031-4.6211-8.0664-7.4297-0.19531-0.22656-0.52734-0.27734-0.78125-0.12109-0.25391 0.16016-0.35938 0.47656-0.24609 0.75391 1.582 3.543 3.8281 6.7539 6.6172 9.4492 0.625 0.60547 1.2773 1.1797 1.9609 1.7148l-0.76953-0.10156c-1.6836-0.27734-3.332-0.64062-4.9922-0.95703h0.003906c-2.1172-1.9609-3.9609-4.1953-5.4922-6.6406-0.33594-0.58203-1.2578-0.21094-0.97656 0.43359 0.77344 1.9297 1.6797 3.8047 2.7148 5.6094-2.0703-0.14062-3.9883-1.1523-5.2695-2.7852-1.0469-1.6367-2.4375-3.0312-4.0742-4.0781-0.51953-0.25-0.98047 0.38281-0.79688 0.84766v-0.003906c0.73438 1.8203 1.5977 3.5859 2.5859 5.2812-8.9844 3.9648-18.008 7.8438-27.289 11.074-4.5859 1.5977-9.1953 3.125-13.812 4.6328-4.7578 1.5547-10 2.293-14.586 4.3008-0.84766 0.37109-0.70703 1.8516 0.29688 1.8633h0.003906c4.9453-0.31641 9.8398-1.1719 14.602-2.5508 4.9336-1.0625 9.8047-2.3906 14.594-3.9805 6.0703-2.0078 12.062-4.2578 17.898-6.8555 1.4297 1.4219 2.6484 3.0469 3.6133 4.8203 1.2734 1.957 2.5703 3.9062 3.9492 5.7891v-0.003906c2.3555 3.4609 5.2148 6.5469 8.4922 9.1562-0.90234 1.5469-1.4102 3.293-1.4883 5.082-0.12109 2.1914 0.375 4.4062 0.0625 6.582-0.25 1.7617-1.1016 4.5195-2.8672 5.3047l0.003907-0.003906c-0.39062 0.17578-0.56641 0.62891-0.39453 1.0195 0.17187 0.39062 0.62891 0.56641 1.0195 0.39453 1.4336-0.39062 2.6875-1.2617 3.5547-2.4688 0.82812-1.3672 1.3711-2.8906 1.6016-4.4766 0.70312-3.8438-0.23828-8.4688 2.9648-11.305 3.2617-2.7266 6.3555-5.6484 9.2656-8.75 2.75-3.0859 5.2734-6.3594 7.7695-9.6523l-0.003907 0.003906c4.8398-6.8633 10.285-13.277 16.273-19.164 5.7773-5.3008 12.141-9.8945 18.129-14.945 3.3281-2.7617 6.4609-5.7539 9.3711-8.9492 3.0547-3.0234 5.4492-6.6445 7.0312-10.637 0.26953-0.79297-0.078125-1.6641-0.82031-2.0547-0.73828-0.39062-1.6523-0.18359-2.1562 0.48438z"/>
  <path d="m512.31 322.4c-0.33203-1.4922-0.86328-2.9375-1.5742-4.293-0.83594-1.2344-1.7461-2.418-2.7266-3.5391-0.43359-0.60547-1.3242 0.12891-0.89453 0.73047 0.88281 1.6211 1.4375 3.3984 1.6328 5.2344 0.32422 1.6406 0.48828 3.3086 0.48438 4.9805-0.12109 3.1211-0.44922 6.2305-0.98047 9.3086-0.96484 7.0039-1.5391 14.062-2.5078 21.062l-0.34375-0.5c-0.26172-0.40625-0.50391-0.82812-0.72266-1.2617-0.59766-1.2852-1.0586-2.6289-1.375-4.0117-0.66016-3.0312-0.93359-6.1328-0.82031-9.2344 0.085937-3.6797 0.41797-7.3477 0.51172-11.023 0.11719-3.4297-0.33594-6.8516-1.3359-10.133-0.125-0.26562-0.41016-0.41797-0.69922-0.37109-0.28906 0.046876-0.51563 0.28125-0.54688 0.57422 0.097657 7.7266-2.3828 15.277-2.3633 22.988-0.019531 2.3438 0.21094 4.6875 0.6875 6.9805-1.3789-0.71094-2.7969-1.3438-4.25-1.8906-1.9648-0.75-3.8984-1.5703-5.8398-2.3789v0.003906c2.2305-1.4258 3.7344-3.75 4.1172-6.3711 0.53125-2.4102 0.88672-4.8594 1.2578-7.2969l0.003906-0.003907c0.62891-2.4492 0.76562-5 0.40234-7.5039-0.26172-1-1.7539-1.6641-2.3984-0.5625-1.375 3.2656-2.0977 6.7695-2.125 10.312-0.21094 1.7227-0.39453 3.4531-0.48047 5.1875-0.10156 2.0586-0.25 4.9766-2.6367 5.4727l0.003907 0.003907c-1.6758-0.78906-3.6133-0.8125-5.3086-0.066407-0.65625 0.27344-0.21094 1.2344 0.44141 0.99609 1.9844-0.72656 4.5078 1.2031 6.1016 2.1211 1.7695 1.0195 3.5 2.1016 5.2227 3.1953l0.003906 0.003907c3.3516 1.6367 6.3359 3.9414 8.7773 6.7656 4.6719 6.8164-3.8164 13.832-8.3398 18.004h-0.003906c-0.25 0.21484-0.28516 0.59375-0.074219 0.85156 0.21094 0.25781 0.58594 0.29688 0.84766 0.09375 2-1.4453 3.9883-2.9141 6.0781-4.2227l-1.8281 3.1562c-3.75 4.8672-5.3281 11.062-4.3672 17.133 0.12891 0.64062 0.74219 1.0664 1.3906 0.96484 0.64844-0.10156 1.0977-0.69531 1.0234-1.3477 0.89844-6.5977 3.6953-12.793 8.0547-17.828 3.5312-6.1797 5.6953-13.047 6.3516-20.133 1.1445-7.4102 1.8359-14.883 2.0781-22.375 0.085937-3.2852-0.22266-6.5664-0.92969-9.7773z"/>
  <path d="m487.98 379.36c-2.3008 2.3164-5.2461 4.0938-7.7344 6.2227-2.5195 2.1562-4.9922 4.3633-7.5859 6.4336-5.2812 4.2227-10.508 8.5156-15.828 12.688-10.555 8.2891-21.508 16.117-31.773 24.766-4.2656 3.5898-9.8086 8.6289-7.8516 14.863 0.22266 0.70703 1.3984 0.35156 1.2422-0.36719-0.375-3.0586 1.0391-6.0625 3.6328-7.7188 2.2891-1.9766 4.7969-3.7188 7.2031-5.5469 5.0156-3.8125 9.9961-7.668 15.004-11.496 9.9766-7.625 20.199-15.109 29.492-23.57 2.543-2.3125 5.0703-4.6641 7.5391-7.0547 1.1914-1.1523 2.3555-2.3438 3.4453-3.5938 1.3438-1.543 2.4648-3.3281 3.9062-4.7812 0.48828-0.49609-0.19922-1.3438-0.69141-0.84375z"/>
  <path d="m422.82 452.14c-0.60547-2.0547-1.6133-3.9648-2.9609-5.625-0.17188-0.19531-0.44141-0.27344-0.69141-0.19922-0.24609 0.074219-0.42969 0.28906-0.46094 0.54688-0.019531 1.8984 0.3125 3.7812 0.97266 5.5586 0.375 1.1602 0.26172 2.4219-0.30859 3.5-0.39453 1.0156-0.80078 2.0273-1.1406 3.0625-1.7109 3.6523-1.6719 7.8828 0.10156 11.5 0.32031 0.37891 0.83203 0.52734 1.3047 0.38281 0.47266-0.14062 0.81641-0.55078 0.87891-1.0391-0.070313-2.0664 0.015625-4.1328 0.25391-6.1836 0.48438-2.332 1.1523-4.6172 2-6.8398 0.59766-1.4922 0.61719-3.1602 0.050781-4.6641z"/>
  <path d="m413.89 447.48c-0.085937-0.47656-0.47656-0.83594-0.95703-0.88281-0.47656-0.046875-0.92969 0.22656-1.1094 0.67578-0.73047 2.0703-1.418 4.1172-2.0547 6.2188-0.4375 2.3164-1.2461 4.5508-2.3984 6.6094-0.41406 0.58984 0.45703 1.1914 0.90625 0.64063h0.003906c1.8242-1.8008 3.4023-3.8398 4.6875-6.0586 1.0117-2.2578 1.332-4.7656 0.92188-7.2031z"/>
  <path d="m417.45 452.04c-0.097657-0.51562-0.52344-0.90234-1.043-0.95703-0.51953-0.050782-1.0117 0.24609-1.207 0.73047-1.6758 4.2578-1.1953 9.1094-2.625 13.422h-0.003907c-0.10937 0.30078 0.042969 0.63281 0.33984 0.74219 0.30078 0.11328 0.63281-0.039063 0.74219-0.33984 2.8711-3.9219 4.2227-8.7539 3.7969-13.598z"/>
  <path d="m393.66 461.75c-0.36328-0.42578-1.1953-0.12891-1.0547 0.47266v-0.003906c0.28125 1.2227 0.30469 2.4883 0.070312 3.7188-2.4883-2.3008-5.1055-4.4531-7.8438-6.4492-3.8008-2.9375-7.5273-5.9727-11.176-9.1055-7.1133-6.1172-13.855-12.812-21.262-18.566-0.39453-0.30469-1.0742 0.19141-0.79688 0.65234h0.003906c5.2031 7.9766 11.527 15.164 18.773 21.344 3.4375 3.1016 6.9727 6.0781 10.613 8.9375-2.2148 6.1289-4.3945 12.207-6.9414 18.227-2.8477 6.1328-4.9102 12.605-6.1367 19.258-0.28125 3.3438-0.82422 6.6602-1.625 9.918-1.2617 2.832-2.8672 5.5-4.7773 7.9453-1.5703 2.2148-1.7539 5.1289-0.47266 7.5234 0.45703 1.1641 1.4375 2.0391 2.6445 2.3633 1.207 0.32812 2.4961 0.0625 3.4766-0.71094 0.40234-0.34766 0.5625-0.89844 0.40625-1.4062-0.15234-0.51172-0.58984-0.87891-1.1172-0.94531-1.0391-0.09375-1.9141-0.8125-2.207-1.8164-0.16406-1.3477 0.32422-2.6914 1.3164-3.6172 1.7852-1.9883 3.2891-4.207 4.4805-6.5977 1.543-5.6211 2.7344-11.336 3.5586-17.109 1.8008-5.75 3.9141-11.395 6.3281-16.914 1.9727-4.4766 3.2148-9.2383 3.6836-14.105 2.4375 1.8984 5.0781 3.5156 7.875 4.8203l-0.98828 2.0977c-1.4258 2.918-3.1055 5.6914-4.4648 8.6445l0.003906 0.003906c-2.6328 6-4.6641 12.25-6.0664 18.648-2.0391 8.582-3.6094 17.32-6 25.812h-0.015625l-0.003907 0.003907c-0.93359 0.058593-1.8398 0.35938-2.625 0.875-0.26562 0.0625-0.54297 0.03125-0.78906-0.089844-0.33594-0.11328-0.70312 0.035156-0.86719 0.34766-0.16406 0.3125-0.078124 0.69531 0.20313 0.91016 0.35547 0.24609 0.73437 0.45703 1.1328 0.62891 0.44922 0.31641 0.97266 0.51172 1.5195 0.56641l0.50391-0.039062v-0.003907c-0.97656 3.1953-2.1328 6.332-3.457 9.3984-2.5664 5.8945-7.7891 14.23-3.6406 20.531 0.98438 1.4922 3.0352 0.15625 2.9141-1.3047-0.21875-1.5352-0.30469-3.0898-0.25-4.6406 0.21484-1.8164 0.69141-3.5977 1.418-5.2773 1.2344-3.0781 2.8828-5.9648 4.2422-8.9883 2.5703-6.0508 4.5586-12.332 5.9336-18.758 2.2383-13.078 5.9023-25.871 10.926-38.148 2.7695-5.7227 7.5469-13.152 2.5508-19.051z"/>
  <path d="m419.1 556.98c-3.5234 1.6914-6.5312 4.3047-10.176 5.7734-4.0391 1.3242-8.4219 1.1367-12.332-0.52344-3.9023-1.3828-7.9883-2.168-12.125-2.3398-1.9492-0.039062-3.9219-0.054687-5.8633 0.070313-2.3281 0.41016-4.7148 0.27734-6.9805-0.38672-0.68359-0.26562-1.2734 0.76953-0.61328 1.1641h-0.003906c1.7773 1.125 3.6797 2.043 5.6641 2.7422 2.1797 0.57422 4.4297 0.85547 6.6836 0.83984 2.3672 0.039062 4.7188 0.34766 7.0156 0.92188 2.3047 0.64453 4.543 1.4922 6.8438 2.1484v0.003907c4.2188 1.4297 8.8008 1.3359 12.957-0.26953 4.1992-1.7422 7.7734-4.7148 10.254-8.5273 0.53906-0.85937-0.30859-2.1016-1.3242-1.6172z"/>
  <path d="m419.79 475.82c0.37109-0.77344-0.70312-1.6133-1.1758-0.85547-3.3398 5.3516-6.918 10.465-10.043 15.988-3.1875 5.6367-6.1328 11.457-9.082 17.246-2.8125 5.5234-5.5547 11.152-7.9805 16.891h0.003906c-2.9492 5.2617-4.1914 11.309-3.5508 17.309 0.29297 1.1133 1.543 0.96875 2.043 0.14062 1.3438-2.6016 2.4258-5.332 3.2344-8.1445 0.95312-2.7266 1.9727-5.4062 3.125-8.043l1.6953-3.7773v-0.003906c0.85156-0.15234 1.7109-0.24609 2.5742-0.27734 2.1445-0.09375 4.2969 0.125 6.4414 0.0625 3.1172-0.085937 9.4531-0.79688 9.7578-4.9453v0.003907c0.03125-0.375-0.10938-0.74219-0.37891-0.99609-0.27344-0.25781-0.64453-0.375-1.0156-0.32422-0.93359 0.26953-1.8281 0.66406-2.6562 1.168-0.9375 0.41016-1.9258 0.6875-2.9375 0.82031-2.1523 0.25-4.3203 0.36719-6.4883 0.35937-1.2266 0.050782-2.4414 0.22656-3.6328 0.53125l2.6133-5.5586v-0.003907c0.44141 0.46875 0.9375 0.88281 1.4766 1.2344 1.8867 1.1133 4.1602 1.3711 6.25 0.69922 0.65625-0.15234 0.72266-1.2344-0.035156-1.25-1.625-0.20312-3.125-0.98047-4.2266-2.1914-0.64063-0.69922-1.207-1.4609-1.6875-2.2773 2.5586-5.5 5.2539-10.918 7.8633-16.391 2.7383-5.7305 5.0625-11.691 7.8125-17.414z"/>
  <path d="m417.21 554.71c-0.53125-3.6836-7.4609-4.668-10.957-5.1992-2.2617-0.34375-4.5352-0.61719-6.8203-0.83203-1.6992-0.15625-7.2539-0.53516-7.7891-2.332l-0.003906 0.003906c-0.11719-0.30469-0.41406-0.50391-0.74219-0.49609-0.32422 0.007813-0.61328 0.21875-0.71484 0.53125-0.77734 3.8789 7.4688 5.9844 10.836 6.6289 2.6719 0.51172 5.4023 0.76953 8.0508 1.3789v0.003906c2.2266 0.89453 4.5781 1.4492 6.9766 1.6406 0.33203-0.015625 0.64062-0.16797 0.86328-0.41797 0.21875-0.25 0.32812-0.57813 0.30078-0.91016z"/>
  <path d="m518.86 310.47c-3.7891-2.9805-8.418-4.6953-13.23-4.9062-4.8164-0.20703-9.5742 1.0977-13.605 3.7383-4.3984 3.4023-7.668 8.0547-9.3828 13.344-1.125 3.0508-1.9219 6.2148-2.3789 9.4336-0.22656 1.6914-0.29297 3.4102-0.48047 5.1094h0.003906c-0.019531 1.9023-0.14844 3.8008-0.38281 5.6875-0.17188 0.73438 0.92188 1.1719 1.1211 0.41797 0.38281-1.4531 1.2266-2.6211 1.6836-4.0469 0.37109-1.1562 0.69141-2.332 1.0586-3.4883 0.88672-2.793 1.6133-5.625 2.4766-8.4219 1.2227-4.6641 3.625-8.9336 6.9727-12.402 3.3242-2.8398 7.5742-4.3633 11.949-4.2734 4.3711 0.085938 8.5586 1.7812 11.766 4.7539 6.793 6.6992 9.8086 16.336 8.0469 25.707-2.1875 10.797-6.7344 20.977-13.316 29.809-3.5586 4.8047-6.7969 9.8438-9.6914 15.078-2.7031 4.6172-2.4258 10.402 0.71094 14.738 0.44922 0.51953 1.2109 0.63672 1.7969 0.27734 0.58203-0.35938 0.82422-1.0898 0.5625-1.7266-1.0391-2.3555-1.4492-4.9375-1.1953-7.5 0.58984-3.0195 1.832-5.8711 3.6367-8.3633 3.1797-4.8477 6.8945-9.3125 10.336-13.969 3.5234-4.8555 6.4492-10.117 8.7109-15.672 2.3047-5.1797 3.707-10.711 4.1445-16.363 0.76172-10.277-3.4453-20.301-11.312-26.961z"/>
  <path d="m313.27 269.57c-0.35156-0.52344-1.2109 0.019532-0.9375 0.57813v-0.003907c1.3086 3.0977 1.2734 6.5938-0.10156 9.6602-1.2812 2.6445-3.1133 4.9844-5.3789 6.8594-2.1953 1.8906-4.1133 4.0859-5.6953 6.5195-1.5273 2.8906-2.3906 6.0898-2.5234 9.3594-0.52734 7.4375-0.38281 14.906 0.43359 22.316 0.33984 3.7812 0.96484 7.5352 1.8711 11.223 0.41797 1.6172 0.88672 3.2422 1.4336 4.8242 0.62109 1.8906 1.3906 3.7344 2.2969 5.5078 0.31641 0.58203 1.4453 0.59375 1.4297-0.23047-0.12109-7.6172-1.6562-15.246-2.3984-22.828l0.003906 0.003906c-0.97656-7.5391-1.1055-15.16-0.39453-22.727 0.87891-6.7695 6.6328-9.6523 10.363-14.707v-0.003906c3.5156-4.9336 3.3516-11.598-0.40234-16.352z"/>
  <path d="m335.21 232.14c-4.9844-1.3398-10.281-0.86328-14.945 1.3398-4.668 2.2031-8.3984 5.9883-10.535 10.688-0.92969 2.7617-1.1758 5.707-0.71094 8.5859 0.46875 3.2344 1.6992 6.2773 2.3125 9.4883 0.13672 0.71875 1.2227 0.41406 1.0938-0.29688l-0.003907-0.003907c-1.1289-5.7812-0.39453-11.77 2.0938-17.109 2.4609-4.3281 6.793-7.2656 11.727-7.957 4.7305-0.58594 9.5273 0.25 13.781 2.4062-3.4766-0.21094-6.9609 0.21094-10.285 1.2461-2.9297 0.94531-5.6289 2.5039-7.918 4.5664-2.082 2-3.6719 4.457-4.6445 7.1758-0.082032 0.23437 0.023437 0.48828 0.24219 0.60547 0.21484 0.11328 0.48438 0.054688 0.63672-0.14062 3.2656-4.2344 7.8867-7.2266 13.086-8.4766 3.0156-0.76953 6.1328-1.0586 9.2383-0.85938 1.5703 0.09375 3.1016 0.3125 4.6562 0.54297 0.85156 0.12891 1.7891 0.35938 2.7031 0.45313h0.003906c2.3633 2.1211 3.875 5.0312 4.2539 8.1875 0.11719 1.2773 2.1289 1.7305 2.3867 0.28125 1.9492-10.914-9.8867-18.746-19.172-20.723z"/>
  <path d="m358.89 269.44c-0.60547-1.4414-1.4531-2.7695-2.5078-3.9219-1.2031-1.5938-2.0938-3.3984-2.6289-5.3203-0.058594-0.27344-0.32031-0.45312-0.59375-0.41016-0.27734 0.042969-0.46875 0.29688-0.44141 0.57422 0.0625 2.0508 0.46094 4.0742 1.1875 5.9961 0.72656 1.5742 1.8477 3.7031 3.6133 4.2109 0.67188 0.1875 1.5742-0.32031 1.3711-1.1289z"/>
  <path d="m352.06 280.86c-0.125-0.28125-0.39062-0.47266-0.69922-0.50391-0.30469-0.03125-0.60156 0.10547-0.78125 0.35547-1.3242 2.2344-2.8633 1.9922-5.2383 1.7891-2.1172-0.17969-4.2422-0.39453-6.3672-0.35938-3.8711 0.058593-8.5977 0.10547-10.941-3.5859-0.33594-0.52734-1.2266 0.027344-0.9375 0.57812v-0.003906c2.9609 4.4102 7.9023 7.082 13.215 7.1484 2.9961 0.75391 6.1484 0.60937 9.0664-0.41016 2-0.78516 3.1406-2.9062 2.6836-5.0078z"/>
  <path d="m346.05 247.06c-1.8008 2.0977-3.8125 4-6.0039 5.6875-2.8555 1.8633-6.5703 1.0664-9.7695 1.8672h-0.003907c-3.1523 0.80078-6.0508 2.4023-8.4062 4.6484-2.0469 2.0703-3.582 4.5859-4.4805 7.3516-0.11328 0.35547 0.070313 0.73828 0.41797 0.86719 0.34766 0.12891 0.73828-0.039063 0.88281-0.37891 0.875-2.1484 2.4609-3.9258 4.4922-5.0352-0.003906 0.25781 0 0.51563 0.015625 0.76563-0.22266 2.3633 1.1055 4.6016 3.2891 5.5352 0.46094 0.16797 1.0586-0.35156 0.78125-0.83203-0.52344-1.1758-0.8125-2.4453-0.85156-3.7305-0.22656-1.0742-0.15625-2.1875 0.20312-3.2227 3.0312-0.875 6.1641-1.3398 9.3203-1.3867 6.0469-0.25 11.16-4.5703 12.406-10.492 0.40234-1.2617-1.1992-2.7461-2.293-1.6445z"/>
  <path d="m350.93 263.55c-1.1914 0.34766-2.418 0.55859-3.6602 0.63672-0.59375-0.003906-1.0117 0.78125-0.43359 1.1602 1.4531 1.0742 3.4492 1.0234 4.8477-0.11719 0.67188-0.58984 0.21484-1.8906-0.75391-1.6797z"/>
  <path d="m354.52 274.05c-0.3125-0.69141-1.1211-1.0039-1.8164-0.70312-1.2695 0.77344-2.6289 1.3828-3.8828 2.1719-0.34766 0.21875-0.17578 0.74609 0.14453 0.875v0.003907c1.6211 0.53125 3.3906 0.33594 4.8555-0.53906 0.67578-0.32031 0.98438-1.1172 0.69922-1.8086z"/>
 </g>
</svg>