<?xml version="1.0" encoding="UTF-8"?>
<!-- Uploaded to: SVG Repo, www.svgrepo.com, Generator: SVG Repo Mixer Tools -->
<svg fill="#000000" width="800px" height="800px" version="1.1" viewBox="144 144 512 512" xmlns="http://www.w3.org/2000/svg">
 <g>
  <path d="m407.23 314.53c-2.2031 1.8555-4.5234 3.5781-6.9375 5.1484-2.7695 1.4766-6.9023 4.0938-9.9961 2.2266h-0.003907c-2.2773-1.707-4.2109-3.8281-5.6953-6.2578-2.1484-2.7266-3.8047-5.8047-4.8906-9.1016-0.21484-0.83203-1.4844-0.66797-1.3438 0.21094v0.003906c0.35547 3.1055 1.0742 6.1562 2.1484 9.0938-2.2422-0.24609-4.5039-0.25-6.7461-0.011718-3.0547 0.050781-6.0977 0.38672-9.0938 1-3.1562 0.6875-6.0859 2.1797-8.5 4.3281-1.9414-0.48828-3.9219-0.80859-5.918-0.95703-3.0742-0.24609-6.168-0.046876-9.1875 0.58594-3.0625 0.88281-6.0703 1.9414-9.0156 3.1641-0.60547 0.20312-0.30469 1.2305 0.31641 1.0781l0.003907 0.003907c3.8477-0.82812 7.7891-1.1367 11.719-0.91797-1.5117 0.81641-2.9258 1.8086-4.2109 2.9492-5.6875 5.457-9.6133 12.492-11.273 20.199-2.0781 8.3828-3.1641 16.984-3.2266 25.621-0.058594 4.1914 0.33984 8.3438 0.67578 12.516 0.74219 4.7812 0.66406 9.6523-0.23828 14.41-0.17578 0.67188 0.77734 1.0625 1.0352 0.38281 2.4258-6.9805 3.6953-14.309 3.7656-21.695 0.27734-8.0312 1.1094-16.031 2.4883-23.945 0.99219-7.2734 3.7695-14.188 8.0742-20.133 2.1367-2.6172 4.7031-4.8516 7.5898-6.5977 1.25-0.78125 2.5859-1.4102 3.9805-1.8711 0.66016-0.20703 1.3438-0.34375 2.0234-0.48828l1.1094 0.32422 0.53906 0.17969 0.70703 0.23828v-0.003906c-3.7891 2.1758-7.0234 5.2031-9.4453 8.8398-4.9258 7.5742-7.7891 16.305-8.3086 25.324-0.60547 9.7148 2.9102 19.023 2.5312 28.652-1.3789 8.1133-5.2695 15.59-11.125 21.375-2.5 3.1289-4.293 6.7617-5.2539 10.652-0.76563 5.2773-0.51563 10.652 0.74219 15.836 0.082031 0.44922 0.84766 0.47266 0.83984-0.023437-0.63281-5.7266 0.47656-11.512 3.1797-16.594 2.3398-3.4961 4.9414-6.8125 7.7812-9.9141 3.0273-3.3047 5.6055-6.9961 7.6562-10.984 2.0117-4.6289 2.8281-9.6875 2.3828-14.715-0.28906-5.543-1.5469-10.973-2.0664-16.488v-0.003906c-0.48437-5.2188-0.078124-10.488 1.1992-15.574 1.3086-4.9922 3.3633-9.7617 6.0938-14.141 1.2578-2.293 2.8516-4.3867 4.7227-6.2109 1.7031-1.4648 3.8945-2.2266 6.1367-2.1328l0.24219 0.17969h-0.003906c1.5039 2.6328 2.7656 5.3984 3.7773 8.2539 0.89453 4.668-0.63672 9.4727-4.0625 12.762-2.9258 3.0234-5.6289 6.2539-8.0859 9.668-2 3.332-3.1602 7.1055-3.375 10.988 1.0156 8.3984 0.61328 16.91-1.1914 25.18-3.1992 7.4414-10.387 12.414-14.648 19.195h0.003906c-5.0898 7.6953-6.6797 17.188-4.375 26.117 0.10156 0.47266 0.55078 0.78125 1.0273 0.70312 0.47266-0.074219 0.80859-0.50781 0.76172-0.98438-0.3125-2.1094-0.35547-4.2539-0.12109-6.375 2.4648 0.82812 5.1094 0.94531 7.6367 0.33594 3.082-0.92187 9.5547-4.9414 7.0586-8.8594h0.003906c-0.28125-0.34766-0.73047-0.51953-1.1719-0.44531-2.375 0.32812-3.793 3.5117-5.9609 4.625v0.003906c-2.1445 1.1211-4.6445 1.3516-6.957 0.64062 1.3594-5.6406 3.9141-10.926 7.4922-15.496 5.0312-6.4531 12.332-11.203 14.934-19.324h-0.003906c0.47266-1.4844 0.79688-3.0117 0.97266-4.5586 5.0898 0.71484 10.02-2.0977 11.996-6.8398 0.26172-0.91406-0.80469-1.8984-1.625-1.1602h0.003906c-2.6523 2.957-6.2578 4.8867-10.191 5.4492 0.19531-5.3477-0.78125-10.734-0.66406-16.129 1.0156-0.18359 1.9805-0.53125 3.043-0.82812v-0.003907c1.4922-0.40234 2.9531-0.92188 4.3633-1.5469 0.33984-0.16016 0.51172-0.54688 0.40234-0.90625-0.10547-0.35938-0.45703-0.58594-0.82812-0.53906-1.418 0.31641-2.8633 0.51172-4.3164 0.58984-0.80078 0-1.6016-0.054688-2.3984-0.16016 0.60156-3.8047 2.2617-7.3594 4.7891-10.262 3.0391-3.1836 5.7695-6.6406 8.1602-10.332 1.1289-1.9883 1.8867-4.168 2.2266-6.4297 0.64062 1.1211 1.1836 2.2969 1.625 3.5117 0.88281 3.5664 0.97266 7.2852 0.26172 10.891-0.90625 2.8008-1.5703 5.6719-1.9844 8.582 0.28125 2.9766 1.0234 5.8906 2.1914 8.6406 0.25 0.70703 1.2109 0.30078 1.1719-0.34375-0.23828-2.4453-0.26172-4.9023-0.082032-7.3477 0.98047-0.32813 1.8633-0.89844 2.5664-1.6562 0.10547-0.16016 0.10938-0.37109 0.007812-0.53516-0.10156-0.16406-0.29297-0.25391-0.48438-0.22656-0.55469 0.078125-1.0625 0.30469-1.6133 0.39062l-0.11328 0.007812h0.003906c0.13672-0.55078 0.32031-1.0898 0.54297-1.6133 1.2773-3.0586 2.043-6.3086 2.2578-9.6172 0.21094-2.3945 0.082031-4.8086-0.38672-7.1641-0.17969-3.5547-1.1484-7.0234-2.8398-10.156-2.4375-4.6719-6.0039-8.6562-10.379-11.594-1.6328-1.0781-3.3711-1.9961-5.1836-2.7383 1.0625-0.40234 2.1445-0.69141 2.6406-0.83594v-0.003906c2.0078-0.57031 4.0664-0.94531 6.1445-1.1211 2.3906-0.21875 4.8008-0.33203 7.1992-0.39062h0.003906c1.9805 0.12109 3.9688-0.12891 5.8594-0.73828 1.7188 3.1016 4.4258 5.5312 7.6914 6.9062 1.3828 0.38672 2.8398 0.42969 4.2422 0.13281 0.17578 1.1328 0.16016 2.2852-0.042969 3.4141-0.44922 1.0977-0.35938 2.3398 0.24609 3.3594 0.12109 0.14062 0.30469 0.21094 0.48828 0.17969 0.17969-0.03125 0.33203-0.15625 0.40234-0.32813 0.61328-1.4844 1.9297-2.5977 2.5234-4.1484 0.48047-1.2422 0.67578-2.5781 0.56641-3.9062 1.1641-0.54297 2.2812-1.1562 3.3203-1.7305 3.1367-1.7266 6.9766-3.9062 7.2695-7.8477v0.003906c0.035156-0.48828-0.21875-0.94922-0.65234-1.1836-0.42969-0.23047-0.95703-0.1875-1.3438 0.11328z"/>
  <path d="m370.67 378.32c-1.4727 0.53906-2.7812 1.4531-3.7969 2.6484-0.21484 0.31641-0.25 0.71875-0.089844 1.0625 0.15625 0.34375 0.48047 0.58203 0.85938 0.625 1.543-0.046875 3.0508-0.50781 4.3594-1.3281 1.8984-0.93359 0.57031-3.9453-1.332-3.0078z"/>
  <path d="m540.56 414.93c-3.6445-0.80469-5.957-3.9922-9.7539-4.8086-0.93359-0.19922-1.8828-0.32031-2.8359-0.35938-4.4297-0.52344-8.918-0.34766-13.293 0.51953-5.1797 0.44141-10.852 0.24609-13.707-4.7695-1.332-2.3398-2.2148-4.9258-3.4453-7.3203-1.3906-2.6719-2.9609-5.2461-4.7109-7.6992-3.4453-4.8906-7.2422-9.5664-11.043-14.184-1.7148-2.1602-3.6211-4.1641-5.6914-5.9883-2.418-1.7734-4.418-4.0547-5.8633-6.6836-2.8125-5.6016-4.9453-11.523-7.6328-17.184-4.1289-10.152-10.969-18.977-19.773-25.5-4.8516-2.9062-10.254-4.7695-15.867-5.4688-2.6953-0.22266-5.2695-1.2305-7.3945-2.9023-2.0859-2.9609-2.8867-6.6406-2.2188-10.203 0.03125-0.37109-0.24219-0.69531-0.60938-0.73047-0.37109-0.039063-0.69922 0.22656-0.74219 0.59375-1.7461 4.7656-1.1172 10.078 1.6875 14.305 3.3906 3.8633 8.7148 3.9219 13.352 5.0547 11.156 3.8984 20.059 12.473 24.371 23.477 2.9453 5.9258 5.4805 12.047 8.4414 17.961v0.003906c1.1367 2.6055 2.5703 5.0781 4.2695 7.3594 1.8945 2.2656 4.5078 3.7617 6.5508 5.8789 4.4062 4.7695 8.3672 9.9297 11.844 15.418 1.7305 2.6289 3.332 5.3516 4.8047 8.1328 1.4922 2.8203 2.543 5.8594 4.1016 8.6406h-0.003906c1.457 2.5547 3.5938 4.6562 6.1719 6.0742 2.5781 1.4141 5.4961 2.0898 8.4336 1.9492 3.2656-0.11719 6.5117-0.51562 9.707-1.1953 2.9453-0.30859 5.9062-0.44141 8.8672-0.38672 1.2344 0.1875 2.4531 0.46484 3.6484 0.82422 2.7461 0.84375 5.8281 2.6758 8.6992 1.4727 0.48438-0.23438 0.75391-0.75391 0.66797-1.2773-0.082031-0.52734-0.50391-0.9375-1.0312-1.0039z"/>
  <path d="m500.07 421.21c-3.2383-2.6641-6.0547-5.7148-9.3438-8.3164-2.9883-2.3594-6.1406-4.4688-9.0078-6.9883-6.2461-5.4805-11.051-12.344-17.676-17.43l-0.003906 0.003906c-6.2773-4.4336-12.191-9.3594-17.691-14.727-4.543-4.7305-8.6289-9.8828-12.203-15.383l0.11328-2.2578v-0.003906c-0.20312-3.1133-0.58984-6.2148-1.1602-9.2852-0.074219-0.40234-0.42969-0.6875-0.83594-0.67578-0.41016 0.011719-0.74609 0.31641-0.80078 0.72266-0.38281 3.1445-1.0352 6.2539-1.9375 9.293-0.65625 3.0312-1.4883 6.0234-2.4961 8.957-2.2188 5.8672-4.8906 11.555-7.9883 17.008-1.3594 2.4844-2.2109 5.2148-2.5 8.0352-0.27344 3.2578 0.11719 6.5547-0.0625 9.8242-0.17578 3.207-0.36328 6.4102-0.8125 9.5898h-0.003906c-0.98438 3.0898-1.0547 6.3984-0.20312 9.5273 0.30859 0.66406 0.94531 1.1133 1.6719 1.1836 0.72656 0.074219 1.4375-0.24219 1.8711-0.83203 1.2812-2.7617 1.707-5.8477 1.2188-8.8555 0.019531-3.4102 0.26953-6.7891 0.57031-10.184 0.58594-6.4844 2.5664-12.766 5.8086-18.414 3.0234-5.1406 5.2305-10.719 6.5508-16.535 0.17969-0.87109 0.33594-1.7422 0.47656-2.6211 2.0703 4.8398 4.7734 9.3828 8.0469 13.504 5.1836 6.0625 11.148 11.41 17.734 15.906 6.8672 5.1055 11.848 12.023 18.172 17.719 3.0195 2.8516 6.3359 5.3711 9.8906 7.5234 3.8789 1.9375 7.9453 3.4766 12.137 4.5938 0.23438 0.082031 0.49609-0.019532 0.61328-0.23828 0.11328-0.22266 0.050781-0.49609-0.14844-0.64453z"/>
  <path d="m533.19 421.84c-4.2266-1.4336-8.7773-1.6172-13.109-0.53125-4.9805 1.1016-10.047 1.7852-15.141 2.0391-0.35938-0.027344-0.67188 0.23828-0.71094 0.59766-0.035156 0.35547 0.22266 0.67969 0.57813 0.72266 4.5352 0.85547 9.1562 1.1484 13.762 0.87109 2.5-0.17969 4.9844-0.19531 7.4844-0.23438v0.003907c2.3047-0.097657 4.5938-0.34375 6.8672-0.73438 0.625-0.11719 1.0977-0.63281 1.1602-1.2656 0.0625-0.63281-0.30078-1.2305-0.89062-1.4688z"/>
  <path d="m419.73 267.97c-6.1094-6.3633-15.012-9.2227-23.684-7.6016-8.6875-0.14844-16.84 4.1914-21.559 11.488-1.9648 3.7461-2.7266 8.0078-2.1719 12.203 0.80078 4.7383 2.4453 9.2891 4.8555 13.445 0.054687 0.12891 0.16016 0.22656 0.29297 0.27344 0.13281 0.050781 0.27734 0.042968 0.40234-0.015625 0.125-0.0625 0.22266-0.17188 0.26562-0.30078 0.046876-0.13281 0.035157-0.27734-0.027343-0.40234l-0.019531-0.058594h-0.003907c0.57812 0.054688 1.1562 0.027344 1.7227-0.078125 1.0938-0.14062 2.1172-0.32812 3.1914-0.54688 0.68359-0.13672 1.1172-1.2188 0.37891-1.6172-1.0078-0.50391-2.1172-0.77734-3.2461-0.78906-0.92578-0.16406-1.8828-0.050781-2.7461 0.32812-0.38672-2.9219-0.58203-5.8672-0.57812-8.8125l-0.042969-1.7617v-0.003906c1.1055-0.65234 2.4727-0.66016 3.5898-0.023438 1.2852 0.73438 2.0859 2.1953 3.2227 3.1406l-0.003907-0.003907c2.2227 1.7188 5.168 2.1875 7.8086 1.2383 3.5273-1.0078 6.5938-3.2383 10.285-1.2617 3.168 1.793 5.4805 4.7812 6.418 8.2969-0.47656 0.85156-0.75 1.7188-1.2305 2.6133v0.003906c-0.21484 0.32812-0.12891 0.76562 0.19141 0.99219 0.31641 0.22656 0.75781 0.16016 0.99609-0.15234 0.34375-0.35938 0.71094-0.69531 1.1016-1.0039 0.31641-0.027344 0.58594-0.23828 0.69531-0.53906 1.168-0.86328 2.5352-1.6484 3.0703-1.3203h-0.003906c0.52734 0.56641 0.90234 1.2578 1.0859 2.0117 0.35156 1.1172-0.007812 2.3359-0.91016 3.0859-0.73047 0.73828 0.24609 2.0039 1.043 1.2773 2.4727-2.2539 4.5742-6.7617 1.8984-9.6133-1.2461-1.3281-3.2422-1.625-4.8164-0.71484 0.12891-0.6875 0.14062-1.3906 0.035156-2.082-0.58203-2.1797-2.0078-4.0312-3.9648-5.1523-3.8984-3.0352-8.9805-4.0977-13.766-2.8828-2.7695 0.92969-5.0938 2.6328-7.5312 0.27344-1.3398-1.5547-3.2148-2.5547-5.2539-2.8008-1.2891-0.11719-2.5859 0.18359-3.6914 0.85938 0.26172-1.7031 0.87109-3.3359 1.793-4.7969 3.957-5.2031 10.16-8.2109 16.699-8.0977 6.4492-1.3477 13.164 0.23828 18.328 4.332l0.089844 0.10156c-1.3633-0.47266-2.7734-0.79297-4.207-0.95312-7.2734-0.17188-14.391 2.1367-20.18 6.543-0.70703 0.4375 0.042968 1.6641 0.77344 1.2578 5.3633-2.7656 11.359-4.0742 17.387-3.7969 2.8125 0.10547 5.5352 1.0078 7.8516 2.6055 1.1562 0.97266 2.1992 2.0742 3.1094 3.2852 0.33984 1.3516 0.57812 2.7148 0.79688 4.1016 0.29688 2.2852 0.003906 4.6055-0.85156 6.7422-0.13281 0.31641-0.011719 0.68359 0.28906 0.85547 0.29688 0.16797 0.67969 0.089844 0.88281-0.1875 2.6484-3.4414 4.082-7.6602 4.0703-12.004-0.011719-4.3398-1.4648-8.5547-4.1328-11.98z"/>
  <path d="m401.51 293.62c-1.3867-0.82031-3.0547-1.0195-4.5977-0.54297-1.8398 0.8125-3.8047 1.3242-5.8086 1.5117-0.82031-0.10156-1.1602 1.1992-0.33203 1.4375 1.457 0.51172 3.0156 0.67578 4.5469 0.47656 1.7969-0.4375 3.6211-0.74609 5.4609-0.92188 0.9375-0.015625 1.7852-1.3555 0.73047-1.9609z"/>
  <path d="m394.16 367.23c-0.21094-2.6523-0.71484-5.2734-1.0781-7.9102-0.19531-1.4258-0.31641-3.6172-1.8047-4.2891-0.74219-0.33594-1.168 0.73828-0.57813 1.1758-0.14062 2.125-0.9375 4.2773-1.0586 6.4297h0.003906c-0.25781 2.1016 0.38281 4.2188 1.7617 5.832 0.45703 0.51953 1.1992 0.68359 1.832 0.39844 0.63281-0.28516 1.0078-0.94922 0.92188-1.6367z"/>
  <path d="m388.2 309c-0.89062-0.89453-2.3086-1.3125-2.6172-2.457-0.12109-1.3828 0.066407-2.7734 0.55859-4.0703 0.53125-2.0078 0.26172-4.1406-0.75781-5.9492-0.14062-0.29297-0.47656-0.44141-0.78906-0.35156-0.3125 0.09375-0.51562 0.39844-0.47266 0.72266 0.52344 3.4102-1.3398 6.375-1.1953 9.7148 0.10938 2.5391 2.1016 3.4922 4.4414 3.9375v0.003906c0.38281 0.03125 0.74219-0.16797 0.92187-0.50391 0.17969-0.33594 0.14453-0.75-0.089843-1.0469z"/>
  <path d="m398.46 300c-1.6016-0.89062-3.5 0.089844-5.0312-1.0586-0.73438-0.55078-1.5586 0.61328-0.82422 1.1641 1.5234 1.1445 4.0195 3.2188 5.9141 1.5898 0.25391-0.21484 0.39844-0.53125 0.38672-0.86328-0.011718-0.33203-0.17578-0.64063-0.44531-0.83203z"/>
  <path d="m381.21 299.14c-0.61719 0.078125-1.2383 0.085937-1.8555 0.015625-0.62891 0.015625-1.25-0.13281-1.8008-0.42969-0.25781-0.17188-0.59375-0.15234-0.83203 0.042969-0.23828 0.19141-0.32422 0.51953-0.20703 0.80469 0.40234 1.0742 1.3047 1.8789 2.4141 2.1562 1.1953 0.27344 2.4375-0.1875 3.1602-1.1719 0.20312-0.30078 0.21094-0.6875 0.019531-0.99609-0.19141-0.30469-0.54297-0.47266-0.89844-0.42188z"/>
  <path d="m309.83 524.3c-4.9961-3.0273-10.98-3.9688-16.664-2.6133-5.9102 1.6523-10.984 5.0977-17.027 6.4727l0.003906-0.003906c-0.33203 0.066406-0.55469 0.38672-0.5 0.71875 0.050781 0.33594 0.35938 0.57031 0.69531 0.53125 5.2383-0.28906 10.434-1.1289 15.496-2.5039 2.9531-1.0195 6.1172-1.2695 9.1914-0.73047 2.6836 0.60938 5.4297 0.87891 8.1758 0.80469 0.58984-0.10547 1.0547-0.55078 1.1914-1.1328 0.13672-0.57812-0.085937-1.1836-0.5625-1.543z"/>
  <path d="m404.18 501.64c-0.48438-5.332-1.0234-10.656-1.582-15.98-0.79688-10.277-2.1484-20.504-4.0469-30.633-2.6641-9.5898-6.3047-18.879-10.859-27.727-2.2539-5.1406-4.4375-10.285-6.3906-15.547l-3.0117-8.0938c-1.3359-2.8555-2.4727-5.8008-3.4062-8.8086-0.20703-0.93359-1.6797-0.70703-1.4688 0.23047 0.47656 2.1367 0.32422 4.3164 0.60547 6.4805 0.32422 2.4844 0.83594 4.9844 1.4023 7.4219h-0.003906c1.0391 4.2578 2.3125 8.4492 3.8125 12.566 0.53125 1.5117 1.1094 3 1.7148 4.4727-3.3086 9.1758-19.25 8.4141-25.828 3.5l-0.003907 0.003907c-0.28516-0.1875-0.66406-0.14453-0.89453 0.10547-0.23438 0.25-0.25391 0.62891-0.046875 0.90234 2.0859 2.8047 4.875 5.0078 8.0859 6.3828 3.2148 1.375 6.7344 1.875 10.203 1.4492 4.3008-0.62109 8.2969-2.5781 11.43-5.5938 2.25 4.9258 4.6016 9.8047 6.5312 14.879h-0.003906c1.5312 4.1172 2.6758 8.3672 3.4258 12.695-2.0977-0.48828-4.2656-0.82422-6.2812-1.3828-3.3281-0.92188-6.625-1.9648-9.9258-2.9805-6-1.8164-12.117-3.1992-18.312-4.1484-6.3008-0.33984-12.621 0.12891-18.801 1.3945-3.1758 0.39453-6.3789 0.48828-9.5742 0.28125-1.2812-0.14062-2.5586-0.35156-3.8203-0.62891-0.82031-2.4688-1.75-4.8828-2.625-7.1875h-0.003906c-3.7812-9.8633-6.6367-20.059-8.5273-30.449-3.7148-20.301-3.8359-41.098-0.36328-61.441 0.79297-10.016 5.1289-19.422 12.227-26.535 0.80469-0.59375-0.17969-1.793-0.98438-1.2031l0.003907 0.003906c-7.1953 4.5078-12.492 11.492-14.895 19.637-2.9805 9.5156-4.7031 19.375-5.125 29.336l-0.19531 3.543-0.35156 0.36328c-1.0391 2.3164-2.4062 4.3672-3.2617 6.7773v-0.003906c-0.80078 2.3164-1.4219 4.6914-1.8594 7.1055-0.875 5.125-1.3086 10.312-1.3008 15.512-0.035157 1.9805-0.042969 3.9648-0.046876 5.9531-2.4297 0.83594-4.9102 1.5117-7.4258 2.0312-2.793 0.86328-5.4883 2.0039-8.0508 3.4062-5.125 2.0078-8.8438 6.5195-9.832 11.934 0.089843 5.5234 2.2539 10.809 6.0586 14.809l1.0352 1.1875c-2.125 4.6367-1.8164 10.027 0.82812 14.391 1.6523 2.707 3.5156 5.2773 5.5703 7.6953 1.4062 1.918 3.1875 3.5312 5.2422 4.7344-0.59375 10.867-3.0859 21.543-7.3633 31.551-1.1445 2.7773-2.5664 5.4336-4.2422 7.9297-1.5898 2.2031-4.0273 3.6445-6.7227 3.9766-5.8008 1.2031-11.281 3.6328-16.066 7.125-1.1914 0.84375 0.03125 2.7266 1.3242 2.1523 5.3281-1.9883 10.859-3.3789 16.496-4.1484 4.4922-0.92188 8.3047-3.875 10.32-7.9922 5.207-9.625 8.6797-20.086 10.258-30.91 0.89453-5.9141 1.0469-11.891 1.5352-17.84 0.63672-5.9883 1.7344-11.918 3.2812-17.734 2.0195-10.598 2.6406-21.418 1.8438-32.176-0.26172-6.0938-0.19922-12.199 0.19531-18.285 0.24219-2.9727 0.60547-5.9258 1.1367-8.8633 0.37109-2.0391 0.70703-4.3008 1.2461-6.4414h0.003907c-0.41797 18.867 2.2734 37.68 7.9609 55.676 0.34766 1.0977 0.72656 2.1914 1.1289 3.2852-0.22266 0.24219-0.33984 0.55859-0.33203 0.88672-0.066406 6.375-0.95703 12.711-2.6484 18.855-1.3828 6.207-3.4727 12.242-5.4023 18.293-1.8242 5.7031-3.5508 11.531-4.8008 17.387-1.2656 5.7031-0.89844 11.648 1.0586 17.152 0.24219 0.71094 1.4258 0.35938 1.2617-0.37109-0.51953-6.6523 0.71875-13.324 3.5898-19.348 1.9883-5.9023 4.0703-11.77 6.0469-17.676 2.0195 3.0234 4.2891 5.8711 6.7852 8.5156 2.0469 2.2344 4.1758 4.3984 6.3984 6.457 1.9531 1.8086 5.75 3.9414 6.7773 6.4727 1.1133 2.7461-2.4336 6.5508-3.6016 8.8984l0.003906 0.003906c-1.2383 2.5352-2.1328 5.2266-2.6641 8-0.13281 2.5547-0.62109 5.0742-1.4492 7.4883-1.125 2.1172-4.3438 1.5391-6.3281 2.8477-0.85547 0.5625-0.12109 1.8633 0.77734 1.7344 3.0859-0.44141 5.5469 1.6719 8.3984-0.625 1.7188-1.8008 2.7109-4.1719 2.7891-6.6602 0.39844-3.5039 1.3438-6.9258 2.8008-10.137 1.9961-2.9375 3.5586-6.1445 4.6445-9.5234 0.57031-3.1328-0.61719-6.332-3.0977-8.332-2.8086-2.5742-5.7695-4.9609-8.5078-7.6211-4.1797-4.0625-7.8711-8.6328-12.059-12.691h0.003906c1.2891-4.0469 2.3281-8.168 3.1133-12.344 0.44922-2.6562 0.54688-5.3633 0.28125-8.0469 3.3164 6.9141 5.0508 14.484 5.0742 22.152-0.054688 0.78516 0.46875 1.4961 1.2383 1.6719 0.76562 0.17969 1.5469-0.22656 1.8438-0.95703 2.25-5.1523 2.6094-10.934 1.0117-16.32 2.832 0.71484 5.7422 1.0625 8.6602 1.0391 6.5898-0.3125 13.145-1.168 19.598-2.5547 3.6172-1.1367 7.4922-1.1367 11.109-0.007813 2.707 1.2031 5.1602 3.0039 7.7578 4.4727-0.98438 0.19531-1.9766 0.37109-2.9727 0.51562v-0.003906c-3.5508 0.5-7.0781 1.1836-10.559 2.0508-3.5195 0.87891-7.0391 1.75-10.539 2.6992-1.8008 0.48828-3.6289 0.88672-5.4102 1.4375v-0.003906c-1.3438 0.63281-2.7344 1.1641-4.1523 1.5938-0.24609 0.042968-0.42969 0.24219-0.45703 0.49219-0.023438 0.24609 0.12109 0.48047 0.35156 0.57031 1.3867 0.51172 1.7734 1.2539 3.3047 1.5 1.6523 0.23438 3.332 0.16406 4.9609-0.19922l1.2812-0.27344c0.054687 1.7109 0.98828 3.9453 1.0195 5.2656v-0.003906c0 2.582-0.51953 5.1328-1.5312 7.5039-0.46094 1.0391-0.82812 2.1094-1.0977 3.2109l-1.1328-0.47656c-1.9375-0.91797-2.6289-2.8633-3.6523-4.6367-0.84375-1.4609-1.7617-2.8828-2.6523-4.3164-2.5664-4.1211-4.8945-8.3789-7.1719-12.664-0.12109-0.23828-0.41016-0.34375-0.65625-0.23438-0.24609 0.10938-0.36328 0.39062-0.26563 0.64062 1.4688 3.5312 2.9219 7.0781 4.2383 10.672 1.2773 3.4883 2.207 7.1367 3.7656 10.52v0.003906c0.96094 2.2109 2.8008 3.9258 5.0781 4.7305 2.918 1.1211 5.6602 1.4922 5.6406 5.3047-0.019531 3.1758-2.7461 5.4375-4.7188 7.5859h-0.003907c-1.9062 2.0352-3.5469 4.3008-4.8867 6.7422-1.2383 2.2852-2.3711 4.625-3.6172 6.9062-0.92969 2.3672-2.4922 4.4297-4.5195 5.9648-1.0664 0.65625 0.070313 2.0156 1.0586 1.7188 5.1641-1.875 9.1758-6.0234 10.875-11.246 1.4727-2.9258 3.2461-5.6875 5.3008-8.2383 1.9648-2.25 3.4492-4.8828 4.3516-7.7344 0.89844-2.5586 0.58203-5.3906-0.85547-7.6914-1.0391-1.3906-2.5117-2.3945-4.1875-2.8555 0.71875-1.4219 1.8398-2.8008 2.5195-4.0625v0.003907c0.86719-1.543 1.543-3.1875 2.0195-4.8906 0.74219-2.8945 0.49609-5.957-0.69922-8.6953 2.043-0.51172 4.082-1.0547 6.1172-1.5742 2.8672-0.73047 5.7148-1.4844 8.5234-2.3945v-0.003906c-1.9805 3.2266-3.7852 6.5625-5.4023 9.9883-0.83984 2.0781-1.1914 4.3281-1.0195 6.5664 0.17187 1.8711 1.1328 3.6562 0.14062 5.4805-0.85547 1.375-2.1328 2.4375-3.6406 3.0312-0.19141 0.089844-0.28906 0.30469-0.23047 0.50391 0.058593 0.20312 0.25781 0.33203 0.46875 0.30078 2.3242-0.45312 4.8789-0.51953 6.3672-2.6719 1.7695-2.5586 0.94141-6.0977 1.6953-8.9414 1.5078-5.6914 7.0586-9.4297 8.4844-15.258v0.003906c0.085937-0.35156 0.11719-0.71875 0.085937-1.082 1.3086-0.30078 2.625-0.5625 3.9531-0.80469l1.5898 0.5625c-1.9297 2.0195-2.4336 5.0117-1.2695 7.5547 0.97266 2.2461 2.6719 4.0742 3.5391 6.3984 0.65234 1.6992 1.0156 3.5 1.0625 5.3203-1.4961 1.0469-2.9883 2.1055-4.4727 3.1719-4.3477 3.1367-9.0078 6.8945-8.8047 12.805 0.21484 6.3281 6.8477 7.3398 9.4805 12.258 2.2422 4.1914 0.85938 10.398 6.668 11.547l-0.003906-0.003906c0.48438 0.039062 0.93359-0.25 1.1055-0.70312 0.16797-0.45312 0.019531-0.96484-0.37109-1.2539-2.2656-1.3242-1.6367-4.9922-1.7461-7.1602h0.003906c-0.10547-2.375-0.85156-4.6797-2.1602-6.6641-1.3125-1.9375-3-3.5898-4.9648-4.8633-1.1875-0.58594-2.0312-1.6836-2.293-2.9805-0.26172-1.2969 0.089843-2.6406 0.95703-3.6406 1.5938-1.9766 3.4727-3.7031 5.5781-5.125 2.4062-1.9141 4.7812-3.8711 7.1562-5.8281 1.1797-0.96875 2.6992-2.0352 4.0469-3.2422 0.47656 4.6641 0.99219 9.3281 1.543 13.988v-0.003907c-0.34375 0.14453-0.66406 0.33203-0.95703 0.55859-1.5 0.95703-2.9141 2.0391-4.2266 3.2383-1.1328 1.1953-1.4609 2.9453-0.83984 4.4727 0.55859 2.5078 1.2695 4.9766 2.1289 7.4023 0.22656 0.54688 1.1875 0.29297 1.0195-0.30078-0.92969-3.2422-1.6914-7.2305 1.6367-9.3164 0.63281-0.39453 1.2695-0.73828 1.8438-1.1133l0.54297 4.2422v-0.003906c1.4648 5.0703 1.6641 10.426 0.57422 15.594-2.1602 4.0742-5.6055 7.3242-9.7969 9.25-0.46875 0.22656-0.67188 0.78516-0.46094 1.2617 0.21094 0.48047 0.76172 0.70312 1.2461 0.51172 3.6602-1.1328 7.0898-2.9062 10.125-5.2422 2.707-2.5977 4.25-6.1797 4.2852-9.9336 0.03125-4.8711-0.25781-9.7344-0.87109-14.566zm-110.54-33.383c-0.49609-0.42188-0.96875-0.87109-1.4062-1.3477-1.6055-1.793-3.0195-3.75-4.4453-5.6836l-0.003906-0.003906c-1.8984-2.1406-3.0078-4.8672-3.1367-7.7305 0.023438-0.875 0.12109-1.7461 0.28516-2.6055l1.3281 1.0664c2.5234 1.4648 4.918 3.1484 7.1484 5.0273 0.36328 0.40625 0.84766 0.6875 1.3789 0.79688-0.57812 3.4688-0.96094 6.9688-1.1484 10.48zm5.0781-27.789h-0.003906c-0.70703 4.0586-1.6289 8.0781-2.7617 12.043-2.5195-2.918-6.3086-4.8359-9.0078-7.5625-3.7969-3.168-6.2148-7.6875-6.7422-12.602 0.24219-5.0352 6.4688-8 10.355-10.004v-0.003906c2.1406-1.082 4.3477-2.0312 6.6016-2.8477 0.91797-0.30859 1.8086-0.68359 2.6641-1.125 0.16016 7.3828-0.21094 14.77-1.1094 22.102zm92.523 39.328-0.34375-1.6016c-0.625-2.4062-1.6914-4.6719-3.1484-6.6836-1.0039-0.99609-1.7188-2.2461-2.0703-3.6133-0.070312-0.99219 0.035157-1.9883 0.31641-2.9414l0.98047 0.26562c2.5625 0.77344 5.1953 1.293 7.8594 1.5469 0.37891 2.9727 0.67969 5.9609 0.96484 8.9531l0.10938 1.1055c-1.4727 1.1211-3.2227 2.0273-4.668 2.9688z"/>
  <path d="m428.52 537.96c-4.0312-0.33984-7.9531-1.4688-11.551-3.3164-2.3789-1.9688-5.0898-3.4922-8.0117-4.4922-2.7266-0.59375-5.5742-0.28906-8.1094 0.875-2.9375 1.875-6.2461 3.0781-9.6992 3.5312-0.73438-0.054688-1.082 1.1094-0.30469 1.3125 2.5625 0.73438 5.2852 0.70703 7.8359-0.070313 3.0703-1.418 6.5312-1.7344 9.8086-0.90234 3.0078 1.1836 5.3281 3.8203 8.5977 4.3828 3.7383 0.36719 7.4961 0.52734 11.254 0.48047 0.47266 0.015625 0.87891-0.34375 0.92578-0.81641 0.046875-0.47266-0.27734-0.90234-0.74609-0.98437z"/>
  <path d="m471.49 480.34c-1.3203-8.793-5.0078-17.066-10.664-23.93-5.5586-7.6289-12.266-14.293-18.129-21.672-3.7266-4.6914-7.0742-9.6602-10.816-14.344-3.6875-5.1719-7.9609-9.8945-12.73-14.082-1.3867-1.0703-3.625 0.64453-2.7422 2.2461l-0.003906-0.003907c2.4766 3.9453 5.1953 7.7305 8.1406 11.336 2.9258 4.0234 5.7539 8.1172 8.6406 12.168h-0.003906c4.9648 6.8125 10.332 13.324 16.07 19.5 5.7461 5.7852 10.637 12.363 14.527 19.527 2.0703 3.4844 3.1328 7.4727 3.0781 11.523-0.62109 5.3008-6.75 6.1016-11.125 6.3828h0.003906c-8.6094-0.77734-17.066-2.7383-25.141-5.8242 1.0039-0.83984 1.9883-1.6953 2.9531-2.5469h0.003907c5.7969-4.4688 9.7656-10.895 11.164-18.082 0.16797-1.1367-1.4883-1.4492-1.9062-0.44141-3.5 6.2344-8.3672 11.594-14.238 15.676-2.7031 2.3672-5.5469 4.5703-8.2773 6.9023-1.1445 0.97266-2.332 1.9023-3.5195 2.8281 0.14453-4.5352 0.14062-9.082-0.011719-13.641h-0.003906c-0.85156-13.352-3.0312-26.59-6.5078-39.508l-0.96875-4.1406 0.003906-0.003907c0.60547 0.70703 1.2539 1.3711 1.9414 2 3.2891 3.0234 6.9023 5.707 10.406 8.4727 3.2539 2.707 6.6523 5.2305 10.18 7.5664 1.8164 1.1562 3.4492 2.5742 4.8477 4.2109 1.4727 1.6836 3.125 3.4336 4.4922 5.1758 0.71875 0.91406 1.957-0.019531 1.6367-1.0078v0.003906c-0.51953-2.0625-1.418-4.0117-2.6445-5.75-1.457-1.7969-3.0117-3.5078-4.6641-5.125-3.3555-3.3984-6.9688-6.5352-10.809-9.375-3.9375-3.0859-8.2109-5.5664-12.258-8.4688-1.6133-1.1562-2.9922-2.5938-4.5391-3.7734-1.8594-8.0039-3.8047-15.996-6.3672-23.789l0.003906 0.003906c-1.918-5.9375-4.5078-11.633-7.7188-16.98-1.4414-2.375-3.0195-4.6602-4.7305-6.8516-2.0391-2.5859-4.5898-4.5625-6.8555-6.9297-0.57422-0.59766-1.582 0.21875-1.0039 0.82031v0.003906c3.7031 4.3711 6.6758 9.3164 8.8008 14.637 2.3125 5.1875 4.2656 10.527 5.8555 15.984 3.4023 11.465 5.9844 23.145 8.7344 34.781v-0.003906c3.4609 12.926 5.6328 26.16 6.4844 39.512 0.23047 6.8945 0.10547 13.797-0.37891 20.676-0.41797 6.0977-1.668 12.281-1.6445 18.391v0.003906c-0.43359 5.3633 3.0508 10.262 8.2578 11.613 3.3242 1.1367 6.582 2.457 9.7539 3.9648 3.207 1.832 6.5625 3.3906 10.031 4.6602 0.78516 0.22266 1.6367-0.69141 0.99609-1.3945l0.003906-0.003906c-4.4023-3.9609-9.5352-7.0195-15.117-9-2.7109-0.80469-5.2578-2.0938-7.5117-3.8086-1.9609-2.1211-1.332-5.4727-0.94531-8.0547 1.0234-6.875 1.7109-13.754 2.0664-20.641l-0.003906 0.003906c0.59375-0.16016 1.1719-0.36719 1.7305-0.62109 1.8281-0.87109 3.6094-1.8359 5.3398-2.8867 1.1758-0.69922 2.3203-1.4805 3.4414-2.3047v0.003906c3.5586 1.9922 7.2773 3.6914 11.113 5.082 4.75 2.2617 9.9062 3.5352 15.164 3.7422 4.7656 0 9.4375-1.3281 13.496-3.8281 3.4102-2.375 5.1953-6.4688 4.6172-10.586z"/>
 </g>
</svg>