<?xml version="1.0" encoding="UTF-8"?>
<!-- Uploaded to: SVG Repo, www.svgrepo.com, Generator: SVG Repo Mixer Tools -->
<svg fill="#000000" width="800px" height="800px" version="1.1" viewBox="144 144 512 512" xmlns="http://www.w3.org/2000/svg">
 <g>
  <path d="m361.66 488.93c0.44141-0.90625-1.0352-1.4531-1.4727-0.54688-1.2344 2.5547-2.7422 4.9219-3.8281 7.5664v-0.003906c-1.0703 2.5625-1.918 5.2109-2.5352 7.918-1.1211 5.4648-1.625 11.039-1.5039 16.617 0.035156 5.6055 0.68359 11.113 1.0391 16.695 0.050781 2.4609-0.51953 4.8945-1.6641 7.0781-1.1016 1.7227-1.168 3.9141-0.17188 5.7031 0.28125 0.32812 0.72656 0.46094 1.1445 0.33594 0.41406-0.125 0.71484-0.48438 0.76562-0.91406-0.019531-2.4648 2.082-3.7188 3.3633-5.5352 1.3711-2.2266 1.9141-4.8672 1.5312-7.457-0.34375-5.25-1-10.457-1.0859-15.723-0.078125-5.2695 0.21094-10.539 0.86719-15.77 0.32812-5.4766 1.5273-10.867 3.5508-15.965z"/>
  <path d="m374.63 566.62c-2.1172-0.59375-4.4414-0.19531-6.6289-0.65234v0.003906c-2.2188-0.33984-4.3086-1.2695-6.043-2.6953-1.4961-1.7109-2.7617-3.6094-3.7734-5.6484-1.2305-2.0156-2.5586-3.9414-3.9297-5.8633-0.67969-0.94922-1.9453 0.039062-1.6289 1.0039 0.89453 2.7656 1.9336 5.4805 3.1172 8.1367 0.88672 2.3789 2.332 4.5117 4.2109 6.2188 2.0742 1.5312 4.4727 2.5703 7.0078 3.0312 2.5391 0.77734 5.2539 0.74609 7.7734-0.089844 1.3125-0.67578 1.5742-2.9727-0.10547-3.4453z"/>
  <path d="m374.32 556.89c-1.3516-2.1445-2.5742-4.3711-3.6602-6.6641-2.5742-4.4727-3.7578-9.6133-3.3984-14.762 0.11328-0.76172-1.1172-1.0703-1.332-0.30859-1.4375 4.9375-1.375 10.188 0.17578 15.09 1.9102 5.0391 4.6445 9.7266 8.0938 13.867 0.28906 0.33203 0.75 0.46875 1.1719 0.33984 0.42578-0.12891 0.73437-0.49219 0.78906-0.93359 0.19141-2.3555-0.46094-4.707-1.8398-6.6289z"/>
  <path d="m382.94 482.16c-2.5 3.6406-4.4258 7.6445-5.7188 11.871-1.6016 4.3281-3.1016 8.6836-4.4688 13.09-1.3398 4.3242-2.3359 8.7109-3.5312 13.07l-1.7773 6.5273h0.003906c-0.72656 1.5508-0.86328 3.3125-0.38672 4.9531 0.11719 0.24219 0.38672 0.36328 0.64453 0.28906 0.25391-0.078126 0.41406-0.32813 0.37891-0.58984 0.085938-2.3164 0.67969-4.582 1.7383-6.6406 0.70703-2.0117 1.418-4.0312 2.2266-6 1.6211-3.9531 3.2266-7.9062 4.793-11.887 1.5234-3.8711 2.9922-7.7617 4.5-11.637v-0.003906c1.7734-3.8984 3.0391-8.0117 3.7578-12.234 0.039063-0.53125-0.27734-1.0273-0.77734-1.2148s-1.0625-0.023437-1.3828 0.40625z"/>
  <path d="m422.54 464.27c-5.4766-1.4883-10.055-5.2383-12.598-10.312-3.0508-5.3281-5.4453-11.004-7.1328-16.91-1.5977-5.8516-2.6758-11.836-3.2148-17.879-0.99609-6.2539-2.9844-12.309-5.8945-17.938-3.1406-6.4531-6.6289-12.73-10.449-18.805 1.2227 0.39844 2.4648 0.72266 3.7266 0.96484 0.78516 0.039063 1.6328-0.81641 1.1719-1.6172h0.003906c-1.2031-2.1797-3.7031-3.3047-6.1367-2.7578-1.6016 0.40234-3.8047 2.2031-2.5586 4h0.003907c0.17578 0.21094 0.46875 0.28125 0.72266 0.17188 0.50391-0.16406 0.94141-0.39844 1.3906-0.57422 2.7617 6.2852 4.9375 12.82 7.6172 19.145 1.3359 3.1523 2.6914 6.3125 3.9258 9.5078 1.1328 3.0742 1.8398 6.2891 2.1055 9.5547 0.48047 4.7422 1.3047 9.4453 2.4688 14.066-3.3164-1.7188-6.7266-3.2461-10.215-4.5781-6.5352-3.6641-11.863-9.1484-15.34-15.785-0.23438-0.48828-0.81641-0.70312-1.3125-0.48438-0.49219 0.22266-0.72656 0.79297-0.52344 1.2969 2.2148 7.1836 6.5039 13.555 12.328 18.309 1.668 1.0898 3.4336 2.0234 5.2695 2.7891 0.10156 0.89844 0.15234 1.8008 0.14844 2.707-0.058594 1.7812-0.33594 3.5664-0.44922 5.3516-0.28516 3.8359-0.77344 7.6523-1.4688 11.434-1.8516 7.3008-2.3867 14.871-1.582 22.355 0.10547 0.5625 1.0117 0.74219 1.1836 0.11719 1.9375-7.0508 3.4609-14.234 4.7383-21.438 1.0703 3.5156 2.625 6.8633 4.6211 9.9453 1.5312 2.4727 3.2539 4.8242 4.75 7.3203 0.44531 0.74219 0.84766 1.5039 1.2305 2.2773h0.003907c-0.19531 2.5977-0.99219 5.1133-2.3242 7.3477-1.1836 2.4102-2.1211 4.9297-2.8086 7.5234-1.1367 5.8242-1.6367 11.754-1.4922 17.688-0.078125 5.9141 0.46094 11.801 0.45312 17.707 0.082031 2.707-0.38672 5.4023-1.375 7.9258-1.0859 2.5625-3.0898 4.7812-3.9648 7.4141-0.18359 0.53906 0.011719 1.1328 0.47266 1.4609 0.46094 0.33203 1.0859 0.32031 1.5391-0.027344 2.2148-1.8008 3.9844-4.0859 5.1797-6.6836 1.3125-2.6289 2.0703-5.5039 2.2305-8.4375 0.42578-6.1445-0.20312-12.395-0.027344-18.562 0.089844-3.2188 0.24219-6.4375 0.45312-9.6562 0.078125-3.0859 0.45703-6.1523 1.1328-9.1641 0.73438-2.7148 1.9258-5.2617 2.5078-8.0234 0.12891-0.60938 0.23047-1.2148 0.29688-1.8281l0.52734 0.98047c0.74219 1.3125 3.1914 1.3438 3.2227-0.51562l0.003906-0.003906c-0.76562-5.8008-3.3281-11.215-7.3242-15.488-3.6836-4.1602-6.5547-8.9727-8.4688-14.191 0.41797-2.5352 0.68359-5.0938 0.79297-7.6641 0-1.8672-0.11719-3.7305-0.35937-5.582l-0.054688-0.67969c3.2891 1.2031 6.2773 3.1211 8.7422 5.6133 1.7461 4.707 3.9453 9.2344 6.5703 13.516l0.66797 1.0391c-0.64453-0.31641-1.3359-0.57031-2.0039-0.84375l-0.003906 0.003906c-1.6875-0.61719-3.2383-1.5508-4.5742-2.7539-2.418-2.8828-3.6641-6.5703-3.4805-10.328 0.03125-1.0977-1.6211-1.2891-1.7148-0.17188-0.35938 2.1953-0.54297 4.418-0.55469 6.6406 0.14844 2.2266 0.85937 4.3789 2.0664 6.2539 1.293 1.8164 3.0469 3.2539 5.0859 4.1562 1.9688 1.3008 4.3945 1.707 6.6797 1.125 0.40625-0.21094 0.72266-0.56641 0.88281-0.99609 2.8594 3.9414 7.7812 5.8164 12.539 4.7734 0.44141-0.082031 0.75391-0.47656 0.74219-0.92188-0.015625-0.44922-0.35156-0.82031-0.79297-0.87891z"/>
  <path d="m426.03 550.88c-2.3906 1.4375-5.3633 1.4961-7.8086 0.15625-2.918-1.3281-5.9453-2.3906-9.0508-3.1797-3.2539-0.33203-6.5391-0.1875-9.7539 0.42578-1.3164 0.10156-2.6367-0.003906-3.9219-0.30859-1.2969-0.16406-2.5039-0.76953-3.4102-1.7148-0.39063-0.64453-1.5625-0.47656-1.3867 0.41016 0.14062 1.3594 0.69531 2.6445 1.5859 3.6836 1.1523 1.0938 2.6016 1.8164 4.168 2.0859 3.8008 0.71484 7.5938-0.90234 11.387-0.33984 3.793 0.5625 7.043 2.9336 10.91 3.2422h-0.003906c3.1836 0.50391 6.4219-0.42969 8.8438-2.5547 0.49609-0.4375 0.55469-1.1875 0.13672-1.6992-0.41797-0.51562-1.168-0.60547-1.6953-0.20703z"/>
  <path d="m425.55 532.84c-2.5273-2.6094-5.1992-5.0742-8-7.3828-1.2109-1.0352-2.5-1.9844-3.707-3.0234-0.80469-0.69531-1.5273-1.4805-2.1523-2.3398 1.2852-5.5117 2.9961-10.926 4.7852-16.289 1.9766-5.918 3.9844-11.828 5.7305-17.82 0.91406-2.9141 1.582-5.8984 1.9961-8.9258 0.17578-1.3867 0.22656-2.7891 0.15234-4.1875-0.14844-1.5547-0.58203-3.0703-1.2734-4.4688-0.34375-0.8125-1.4531-0.38281-1.4023 0.41406-0.035156 6.4023-1.3672 12.73-3.9102 18.605-2.1133 5.9844-4.3164 11.934-6.2891 17.961-1.9727 5.8555-3.5938 11.82-4.8594 17.863-0.60547 3.0273-0.99219 6.0938-1.1562 9.1758-0.50391 2.8086 0.13672 5.7031 1.7695 8.0391 0.66016 0.66406 2.0508 0.48438 2.0938-0.63281 0.0625-1.5391-0.24609-3.0586-0.15625-4.6094 0.082031-1.4297 0.26562-2.8594 0.47266-4.2773 0.35156-2.4102 0.77734-4.8164 1.2578-7.207h0.007812c1.3047 2.1328 2.9375 4.043 4.8438 5.6641 2.2812 2.1797 4.5195 4.4844 6.9883 6.4531 0.53906 0.42969 1.0859 0.82031 1.6602 1.2031l0.12109 0.0625-0.003906 0.003907c-0.27734 0.23828-0.58984 0.4375-0.92578 0.58203-1.0547 0.50391-2.2695 0.49219-3.3125 1.0273l-0.003906 0.003907c-0.38281 0.17969-0.64453 0.55078-0.6875 0.97266-0.042969 0.42188 0.14062 0.83984 0.48047 1.0898 2.3398 1.1211 5.1406 0.50781 6.793-1.4922 2.1602-2.207 0.40234-4.625-1.3125-6.4648z"/>
  <path d="m424.59 546.93c-1.8906-2.1211-4.0898-3.9453-6.5195-5.4102-2.3867-1.8047-4.5898-3.8359-6.5781-6.0703-0.42188-0.51953-1.3906 0.023437-1.0352 0.63672 0.74609 1.3008 1.3008 2.6719 2.1562 3.9141 0.96094 1.3906 2.0586 2.6836 3.2734 3.8594 1.9414 2.4727 4.7109 4.1602 7.8008 4.75 0.41016 0.027344 0.79688-0.1875 0.99219-0.54688 0.19531-0.36328 0.16016-0.80469-0.089844-1.1328z"/>
  <path d="m390.72 527.8c-0.91406-0.64062-2.3125-1.4023-2.5898-2.5664-0.32812-1.3555 0.85547-2.9844 1.2773-4.25 0.875-3.4297 0.66797-7.0469-0.58594-10.359-0.96094-3.4062-1.7344-6.8633-2.3242-10.355-0.83203-3.6523-1.1094-7.4062-0.82422-11.141 0.074219-0.55078-0.82031-0.78125-0.96484-0.22266-1.1992 3.8672-1.8242 7.8906-1.8594 11.938 0.35156 4.2773 1.1523 8.5078 2.3867 12.617 0.66016 2.0508 0.70703 4.2539 0.125 6.332-0.78125 1.6094-1.1875 3.3711-1.1875 5.1602 0.007813 1.5781 0.71875 3.0703 1.9453 4.0664 1.2227 0.99609 2.8281 1.3906 4.375 1.0781 0.42969-0.19922 0.72656-0.60938 0.77344-1.082s-0.16406-0.9375-0.54688-1.2148z"/>
  <path d="m382.2 391.48c-0.68359-0.83984-1.4414-1.6172-2.2617-2.3242-0.75391-0.78125-1.4727-1.6016-2.1758-2.4297-1.418-1.6602-2.6758-3.4219-3.9297-5.2031-2.4062-3.1719-5.957-5.2812-9.8945-5.8711-4.5273-1.082-9.0625-2.1094-13.52-3.4609-2.1523-0.65625-4.3008-1.3164-6.457-1.957h0.003906c-2.0352-0.83984-4.2266-1.2383-6.4258-1.1602-0.21484 0.035156-0.40234 0.17188-0.50781 0.36328-0.10156 0.19141-0.11328 0.42188-0.027344 0.625 1.168 1.6875 2.7773 3.0234 4.6523 3.8672l1.1094 0.58984c-1.4961 4.9336-2.9688 9.8711-4.1562 14.895-1.293 5.4805-2.1953 11.078-3.0508 16.641-1.6523 10.918-2.7148 21.918-3.1836 32.949 0.17578 5.4961-0.51562 10.984-2.0508 16.262-2.0859 4.5391-3.875 9.207-5.3516 13.98-1.0117 5.3047-1.5977 10.684-1.7578 16.082l-1.1016 16.367c-0.20703 3.0938-0.38281 6.1953-0.63281 9.2852h0.003906c-0.078125 2.7617-0.69141 5.4805-1.8086 8.0117-1.9453 3.8633-6.0117 8.7656-3.3711 13.207 0.59375 1 2.4492 1.0586 2.4961-0.39844 0.15234-4.5859 4.082-7.6094 5.8398-11.59l0.003907-0.003907c1.582-4.7031 2.3477-9.6406 2.2539-14.602l1.1094-16.367c0.37109-5.4492 0.51562-10.977 1.3828-16.375 1.0898-4.8828 2.7656-9.6172 4.9922-14.102 1.8867-4.8516 2.8672-10.008 2.8828-15.215 0.39453-11.027 1.1328-22.039 2.3906-33.004 0.69531-6.0391 1.5273-12.059 2.418-18.07 0.84375-5.6914 1.5117-11.418 2.4141-17.102 1.1602 0.53125 2.3398 1.0156 3.5352 1.4336v0.003906c4.3242 1.582 8.8242 2.6367 13.402 3.1406 1.9336 0.035156 3.8516 0.27344 5.7344 0.71484 2.2227 0.69922 3.1992 2.3984 4.375 4.2656l1.1836 1.7539c-2.4141 0.80859-4.6641 2.0586-6.6289 3.6797-2.3164 1.9414-4.3047 4.2422-5.8906 6.8164-3.4688 5.9062-5.5352 12.531-6.0469 19.363-0.91797 11.293-0.019531 22.664 2.668 33.676-0.57422 2.1602-0.77734 4.4883-1.332 6.5977-0.89844 3.3945-2.0977 6.6992-3.2539 10.016-2.4023 6.875-4.8047 13.75-7.1406 20.648-2.3359 6.8984-4.3672 13.902-7.043 20.688-1.3203 3.3477-2.918 6.6172-3.957 10.066l-0.003906-0.003906c-0.92969 3.1523-0.90625 6.5078 0.074219 9.6406 1.0508 3.8906 2.1602 7.7656 3.332 11.625 1.082 3.9102 2.4766 7.7266 4.1758 11.41 0.12109 0.25 0.40625 0.37891 0.67188 0.29688 0.26562-0.078125 0.4375-0.33984 0.40234-0.61719-0.28516-3.5-0.80469-6.9805-1.5547-10.414-0.64453-3.457-1.5312-6.875-2.3398-10.293-1.2266-3.2461-1.5-6.7773-0.78516-10.176 1.0664-3.3281 2.0664-6.6758 3.1172-10.008 2.1523-6.8438 4.875-13.473 7.4023-20.184 2.5234-6.707 4.9102-13.465 7.3281-20.211 1.1914-3.3242 2.4023-6.6562 3.3359-10.066l0.29688 0.97266c3.2852 7.4844 4.0898 15.824 2.3008 23.801-0.21484 0.63672 0.0625 1.3359 0.65625 1.6523 0.59766 0.3125 1.332 0.14844 1.7383-0.38672 3.4062-5.8047 4.2031-12.777 2.1992-19.199-1.6562-7.0742-4.1641-13.879-5.5508-21.035-3.5938-13.879-2.9219-28.516 1.9219-42.008 1.3594-2.9062 3.082-5.6328 5.1289-8.1055 1.8516-2.3203 4.0117-4.3789 6.418-6.1172l1.1523 1.2891v0.003906c1.3359 1.625 2.9531 2.9961 4.7773 4.0469 1.6836 0.76562 2.7539-1.4062 1.9102-2.668z"/>
  <path d="m342.04 554.47c-0.41797-0.15625-0.89062-0.078125-1.2344 0.20703-0.35156 0.26172-0.57031 0.84766-0.94141 1.0312-0.48047 0.24219-1.4414-0.29297-1.8984-0.44922l-4.6289-1.5859h-0.003906c-2.5078-0.58594-4.9062-1.5859-7.0898-2.9531-2.0859-1.6562-2.4727-4.7148-3.2812-7.1055-0.71094-3.0625-1.9219-5.9922-3.582-8.6602-0.20703-0.23828-0.53125-0.33203-0.83203-0.24219-0.29688 0.089843-0.51562 0.34766-0.55859 0.66016-0.046876 2.0469 0.23828 4.0859 0.84766 6.043 0.45703 2.1016 0.92578 4.2109 1.5234 6.2812v-0.003906c0.78516 3.4961 3.2109 6.3945 6.5078 7.7891 1.7461 0.78516 3.6055 1.3359 5.418 1.9492 1.9336 0.74609 3.9062 1.3828 5.9102 1.9141 1.6055 0.49609 3.3516-0.003906 4.4531-1.2695 0.50781-0.51562 0.73828-1.2461 0.61719-1.957-0.12109-0.71484-0.57422-1.3281-1.2266-1.6484z"/>
  <path d="m351.25 458.96c-0.13281-0.71875-0.67969-1.293-1.3906-1.4609-0.71484-0.16797-1.457 0.10547-1.8945 0.69141-0.56641 0.99609-1.2539 1.9141-2.0547 2.7305-0.46094 0.38672-0.95703 0.69531-1.4414 1.0469-0.49609 0.35938-0.78125 0.86719-1.3281 1.1289-0.375 0.17969-0.60938 0.5625-0.59375 0.97656 0.011719 0.41406 0.26562 0.78125 0.65234 0.9375 0.79688 0.42188 1.6875 0.64844 2.5938 0.65234 1.082-0.14062 2.1016-0.58594 2.9414-1.2891 1.7422-1.2266 2.7031-3.2891 2.5156-5.4141z"/>
  <path d="m418.93 433.88c-1.6875-3.8203-3.4023-7.6328-5.0625-11.461-0.12109-0.25-0.40625-0.37891-0.67578-0.30078-0.26953 0.078125-0.44141 0.34375-0.40234 0.62109 0.46875 4.1406 1.2227 8.2461 2.2539 12.289 0.69141 4.0664 2.3945 7.8945 4.9609 11.129 0.76953 0.76953 2.5664 0.61328 2.5508-0.76953h-0.003907c-0.44141-4.0352-1.6719-7.9453-3.6211-11.508z"/>
  <path d="m449.61 427.52c-2.3359-1.9766-4.8477-3.7344-7.5-5.25l-2.3867-1.3555c-1.5977-2.3438-3.3867-4.5938-4.9414-6.9219-2.4766-3.7031-4.9492-7.3984-7.5078-11.047-2.4805-3.5391-4.9688-7.0742-7.5664-10.531-1.3672-1.8125-2.7539-3.6094-4.2227-5.3438s-3.2539-3.207-4.582-5.0508h0.003906c-0.15625-0.19531-0.42188-0.27344-0.66016-0.19141-0.23828 0.082031-0.39844 0.30078-0.40234 0.55469-0.85547-0.55859-1.7852-0.98438-2.7617-1.2734-1.1758-0.32422-2.3945-0.48438-3.6172-0.46875 0.60156-1.2773 1.1211-2.5938 1.5547-3.9414 0.58594-1.8398 1.793-3.4219 3.4102-4.4766 0.85156-0.41406 0.50781-1.8359-0.48438-1.6367v-0.003906c-2.2188 0.31641-4.2578 1.3867-5.7812 3.0312-1.8633 1.8281-2.8789 4.3555-2.793 6.9688l0.11719 0.35156-0.69141 0.11719v0.003906c-1.0625 0.31641-2.1484 0.55469-3.2461 0.70312-0.55078 0.023437-0.48438 0.87109 0.027344 0.93359 1.7344 0.21875 3.3477 0.69531 5.1016 0.83203 1.7539 0.058594 3.4844 0.40625 5.125 1.0312 2.9375 1.5703 5.125 4.2578 6.0664 7.4531 1.75 7.4219 4.2578 14.645 7.4883 21.551 0.28906 0.33984 0.75391 0.47656 1.1836 0.34766 0.42969-0.13281 0.73828-0.5 0.79297-0.94531-0.19141-4.4805-1.043-8.9062-2.5312-13.133-0.35938-1.25-0.69141-2.5273-1.043-3.8008 2.0586 3.0664 4.1719 6.0938 6.3086 9.1055 2.5039 3.5352 5.0664 7.0078 7.6484 10.484l1.2539 1.7578c-0.97266-0.47656-1.9531-0.94141-2.9414-1.3867-1.5156-0.67969-3.2773-0.85938-4.7344-1.6641v0.003906c-0.27734-0.18359-0.64844-0.11328-0.83984 0.15625-0.19141 0.27344-0.13281 0.64453 0.12891 0.84375 1.1445 1.0156 1.9414 2.3789 3.1133 3.3945 1.0898 0.91016 2.2422 1.7422 3.4453 2.4961 2.5234 1.6523 5.1992 3.0664 7.7773 4.6367l0.51953 0.32031 0.21094 0.23047-0.003907-0.003906c0.23438 0.24609 0.54297 0.40234 0.875 0.44531 1.9219 1.1875 3.7695 2.4844 5.5391 3.8906 1.9609 1.5859 4.082 4.5625 6.6953 4.9102 0.70703 0.058594 1.3281-0.45312 1.4102-1.1523 0.36719-2.793-2.6758-5.3516-4.5586-6.9766z"/>
  <path d="m469.64 455.18c-1.8594-1.6172-4.4258-2.1445-6.7695-1.3828-2.7852 0.4375-5.5508 1.0898-8.3164 1.6445l-8.7773 1.7578v-0.003906c-2.5 0.14453-4.8711 1.1641-6.6992 2.875-1.5977 2.0195-2.9648 4.2148-4.0859 6.5352-1.3359 2.4414-2.5742 4.9336-3.7617 7.4492-2.3398 4.9492-4.4648 10-6.6484 15.02-1.2305 2.8281-2.4961 5.6367-3.8203 8.418-1.2305 3.0859-2.7422 6.0508-4.5195 8.8594-0.375 0.50391 0.35156 1.1602 0.74219 0.65625 1-1.2891 2.2422-2.3789 3.3008-3.6172v-0.003907c1.0352-1.2422 2.0039-2.5469 2.8906-3.8984 1.7812-2.6836 3.4141-5.4609 4.8867-8.3242 2.9062-5.5586 5.332-11.355 8.0781-16.992-0.16016 2.0195-0.10547 4.0508 0.16797 6.0586 0.28125 2.6367 1.2852 5.1445 2.8945 7.25 1.418 2.1602 4.1836 2.9961 6.5586 1.9766 0.85547-0.48828 0.41797-1.6562-0.36719-1.8984-2.2305-0.35938-4.1562-1.7617-5.1836-3.7734-0.92578-2.1016-1.5273-4.3281-1.7852-6.6133-0.29297-2.332-0.375-4.6875-0.23828-7.0391 0.89453-1.6914 1.8242-3.3594 2.8164-4.9961 0.68359-1.125 1.3398-2.7617 2.5664-3.375 1.5352-0.55078 3.1289-0.91406 4.7539-1.0742l3.5586-0.72266 0.60938 0.17187h-0.003906c1.1211 0.46875 2.1953 1.043 3.207 1.7148 1.6875 1.1406 3.7656 1.5469 5.7578 1.1211 0.19531-0.066406 0.33203-0.24609 0.34766-0.45703 0.015624-0.20703-0.09375-0.40625-0.28125-0.50391-1.7148-0.85937-3.3516-1.8672-4.8906-3.0117l2.0859-0.42578c1.7305-0.35156 3.4688-0.67969 5.1836-1.0898 1.5469-0.46094 3.1719-0.58594 4.7695-0.36328 0.49219 0.089843 0.98828-0.15625 1.2109-0.60547 0.22656-0.44922 0.125-0.99219-0.23828-1.3359z"/>
  <path d="m463.76 514.24c-0.92969-2.4258-2.1406-4.7344-3.6133-6.8789-1.2148-2.4297-2.0586-5.0273-2.5-7.707-0.80859-2.707-0.87109-5.582-0.17969-8.3242 0.68359-1.8555 1.5625-3.6289 2.625-5.2969 2.3789-1.8516 4.5938-3.9062 6.6133-6.1406 0.89453-1.0234 1.7227-2.1016 2.4844-3.2305l0.027344 0.003906v0.003907c0.51172 0.085937 1.0352 0.09375 1.5508 0.03125 0.53906-0.13281 1.0664-0.29688 1.582-0.5 0.58594-0.15234 0.32812-0.92969-0.18359-0.96484h0.003907c-0.60547-0.082031-1.1953-0.24219-1.7578-0.48047 1.5234-2.5078 2.832-5.1562 4.1172-7.7656 2.4727-4.0156 3.4023-8.7969 2.6055-13.445-0.28516-1.0391-1.7617-0.64844-1.7773 0.33594v-0.003906c-0.32031 4.6953-1.7773 9.2383-4.2422 13.246l-0.70703 1.3203c-1.0469-0.57422-2.2656-0.75391-3.4375-0.51562-0.46875 0.11328-0.27734 0.77734 0.14844 0.78906 0.73047 0.035156 1.3906 0.45703 1.7266 1.1094l0.42578 0.65625c-0.61719 1.0703-1.2578 2.125-1.9414 3.1484-0.66016-0.38281-1.8008-0.89453-2.1328-1.6133-0.27734-0.60547-1.2734-0.28125-0.99219 0.32812h0.003906c0.29688 1.1172 0.82422 2.1602 1.5508 3.0625l0.20313 0.17578v0.003907c-0.92188 1.2422-1.9219 2.4258-2.9961 3.5391-3.2422 3.0898-6.6836 5.9648-10.301 8.6055-1.6836 1.2891-3.2773 2.6875-4.7695 4.1914-1.6602 1.7227-2.8125 3.7109-4.3203 5.543-0.38281 0.46484 0.3125 1.0781 0.70312 0.61719h0.003906c1.8008-1.7891 3.8086-3.3594 5.9766-4.6836 1.293-0.92969 2.5781-1.8789 3.8555-2.832-0.82812 2.7148-0.92188 5.6016-0.27734 8.3672 0.42578 3.0078 1.2578 5.9453 2.4766 8.7305 1.8047 2.5938 3.8398 5.0195 6.0781 7.2461 0.21875 0.3125 0.63281 0.41797 0.97266 0.25 0.33984-0.16797 0.50781-0.55859 0.39453-0.92188z"/>
  <path d="m464.79 445.91c-8.7773-2.4531-18.191-0.72656-25.531 4.6719-8.0156 6.4648-13.598 15.461-15.824 25.516-1.4648 6.2266-3.6445 12.266-6.5 17.988-0.30078 0.51172 0.51562 0.91016 0.82031 0.41016 2.7422-4.3906 5.1289-8.9961 7.1328-13.77 1.9492-4.7773 3.7578-9.6211 6.1094-14.223 3.7695-8.2188 10.871-14.438 19.52-17.082 4.5938-1.207 9.3594-1.6211 14.094-1.2227 1.4297 0.082032 1.293-1.9023 0.17969-2.2891z"/>
  <path d="m483.32 448.87c-1.1875-3.9258-4.3672-6.9258-8.3555-7.8828-1.2539-2.2812-3.0586-4.2188-5.2461-5.6328-4.4766-2.4961-9.7734-3.0742-14.68-1.6016-4.7266 1.0625-9.1602 3.1523-12.984 6.1289-1.8477-6.1133-5.5703-11.496-10.645-15.379-2.6914-2.2812-5.6016-4.2617-8.4688-6.3125-3.043-2.1719-5.9141-4.582-8.7539-7.0078-0.16406-0.13672-0.40234-0.13281-0.5625 0.007812s-0.19531 0.375-0.082031 0.55469c3.9922 5.6445 8.9492 10.539 14.641 14.461 5.1562 3.7812 8.9141 9.1641 10.688 15.309 0.054687 0.29297 0.19141 0.5625 0.39453 0.78125-0.92578 0.88672-1.7891 1.832-2.5898 2.832-1.3789 1.9883-2.6211 4.0664-3.7148 6.2227-0.28516 0.48047 0.48047 0.85547 0.76953 0.38672 1.3008-1.8125 2.832-3.4453 4.5547-4.8594 1.5625-1.4727 3.2422-2.8242 5.0195-4.0352 3.4219-2.3203 7.1992-4.0664 11.188-5.1641 4.1445-1.5039 8.7188-1.2891 12.711 0.58984 3.1641 2.3125 5.5312 5.5547 6.7695 9.2773 0.44531 0.91016 1.8164 0.44922 2.0117-0.39062 0.28516-1.2695 0.25-2.5938-0.097656-3.8516 3.0195 3.1758 4.5781 7.4648 4.2969 11.836-0.050782 5.6953-1.3203 11.312-3.7188 16.477-2.3672 5.5547-5.418 10.793-7.8828 16.309-2.7266 5.7188-4.5 11.84-5.2578 18.129-0.10547 1.0391 1.4258 1.4141 1.625 0.34375 3.3086-10.395 7.957-20.312 13.828-29.504 5.0508-8.4141 6.6758-18.445 4.543-28.023z"/>
  <path d="m457.05 465.93c-0.99219-0.64844-2.1367-0.97656-3.1016-1.6797h0.003907c-0.86719-0.72266-1.6641-1.5234-2.3828-2.3945-0.125-0.10938-0.29688-0.14453-0.45312-0.089844-0.15625 0.050781-0.27734 0.18359-0.3125 0.34375-0.12891 1.6289 0.48438 3.2305 1.6719 4.3516 1.1836 1.125 2.8164 1.6523 4.4336 1.4336 0.99609-0.25 0.83594-1.5117 0.14062-1.9648z"/>
  <path d="m459 477.24c-1.0195-0.30078-2.1055-0.28906-3.1172 0.03125l-0.027344-0.015625c-0.41016-0.24219-0.76953 0.35938-0.44922 0.66406l0.27344 0.73828 0.35547 0.39062v0.003906c0.32812 0.28125 0.72656 0.47266 1.1484 0.55078 0.86328 0.20703 1.7695-0.085937 2.3438-0.76562 0.22266-0.26172 0.29297-0.62109 0.18359-0.94922-0.10547-0.32422-0.37891-0.57031-0.71094-0.64844z"/>
  <path d="m455.63 482.85c-0.67188-1.0273-1.7422-1.1914-2.8203-1.5977-0.74219-0.28125-2.3711-0.66797-2.6953-1.4922-0.085937-0.25-0.35547-0.38672-0.60547-0.30078-0.25 0.082031-0.38672 0.35156-0.30469 0.60156 0.30859 1.3984 0.39453 2.6016 1.7148 3.4961v0.003906c1.2578 1.0195 2.9805 1.2383 4.4531 0.57031 0.42188-0.28516 0.53516-0.85547 0.25781-1.2812z"/>
  <path d="m441.82 401.37c-1.2305-2.6797-2.9219-5.1172-4.9922-7.2109-2.1445-2.0312-4.3828-3.9453-6.6797-5.7969-2.6016-2.0977-5.3867-4-8.1055-5.9805l-0.007812-0.09375h-0.003906c-0.44141-1.7422-1.2656-3.3594-2.418-4.7344-0.98828-1.3906-1.9844-3.1602-3.8398-3.3984-3.043-0.39062-5.9297 2.8398-6.7422 5.4727-0.125 0.36719 0.007812 0.77344 0.32031 0.99609 0.31641 0.22656 0.73828 0.21875 1.0469-0.019532 0.87109-0.71094 1.8047-1.3477 2.7852-1.8984 0.39844-0.22266 0.80469-0.42578 1.2266-0.59766 0.42969-0.16406 0.51953-0.19922 0.66797-0.10547l0.10156 0.28906c1.7383 2.4883 3.6641 4.832 5.7695 7.0156 1.9961 2.0234 3.9883 4.0195 6.1641 5.8516 2.1875 1.8398 4.3945 3.6719 6.5 5.6055 2.2148 2.0352 4.6055 3.7383 6.9219 5.6562 0.66016 0.54688 1.6523-0.30859 1.2852-1.0508z"/>
  <path d="m455.88 419.75c-3.8203-5.5117-8.0391-10.719-11.973-16.141-0.51172-0.70703-1.7812 0.050781-1.3242 0.81641 3.2188 5.3984 6.168 10.953 9.4609 16.316l-0.003906-0.003906c1.4336 2.2266 2.7344 4.5391 3.8945 6.918 1.1172 2.4297 1.6758 5.0273 2.6875 7.4844h-0.003906c0.22656 0.47656 0.71094 0.77344 1.2344 0.75781 0.52734-0.015625 0.99219-0.34375 1.1875-0.83203 1.6914-5.3125-2.2812-11.168-5.1602-15.316z"/>
  <path d="m359.48 275.02c-1.7305 1.4688-3.5508 2.832-5.4453 4.0859-1.7539 1.2695-3.75 2.1562-5.8672 2.6094-4.457 0.25781-8.8164 1.4375-12.801 3.457-1.5039 1.1445-2.8164 2.5195-3.8867 4.0742-1.1445 1.4648-2.1523 3.0312-3.0039 4.6836-1.9375 3.1602-2.8516 6.8359-2.6289 10.531 0.089844 0.45703 0.49219 0.78125 0.95313 0.76562 0.46094-0.011718 0.84766-0.35938 0.90625-0.81641 0.19922-1.8633 0.52734-3.7109 0.98047-5.5312 0.5625-1.793 1.4531-3.4648 2.6328-4.9297 2.4297-2.5898 5.4766-4.5156 8.8516-5.6055 4.0078-1.0508 7.9297-2.4102 11.727-4.0664 1.7383-1.0469 3.3398-2.3047 4.7695-3.7461 1.4336-1.4297 2.5195-3.0664 3.8164-4.582 0.50391-0.58984-0.42578-1.4414-1.0039-0.92969z"/>
  <path d="m335.2 363.71c-1.1055-1.4531-3.2109-1.8242-4.4258-3.2969l0.003906 0.003907c-1.168-1.9844-1.7812-4.2461-1.7734-6.5469-0.58984-5.1055-0.46484-10.207-0.57422-15.336-0.10938-4.9961 0.011718-9.9922 0.14844-14.984 0.097657-5.1211-0.19141-10.246-0.85938-15.324-0.082031-0.67578-1.1797-0.83203-1.3672-0.13672h0.003906c-2.7578 10.988-3.7578 22.344-2.9609 33.645 0.15625 2.8203 0.68359 5.5938 1.0859 8.3828 0.39062 2.6992 0.73438 5.4336 1.3203 8.1016v0.003906c0.37109 2.3125 1.2109 4.5273 2.4688 6.5039 1.2578 1.6836 4.0742 3.4922 6.1523 2.2461 0.58984-0.27734 1.0195-0.80859 1.1719-1.4453 0.15234-0.63281 0.007813-1.3008-0.39453-1.8164z"/>
  <path d="m388.54 370.93c-2.0664-2.5938-4.7695-4.6055-7.8516-5.8359-1.5898-0.53125-3.2695-0.73828-4.9414-0.60547-1.5781 0.125-3.0469 0.050781-4.6094 0.042968-2.6172-2.6445-5.5508-4.9531-8.7344-6.8789-3.168-2.0195-6.4531-3.8477-9.8398-5.4766-1.3047-0.64453-2.6562-1.1992-4.0352-1.6641 0.51172-3.6367 0.59375-7.3203 0.23828-10.977-0.085937-4.2148-0.53125-8.4219-0.22656-12.641 0.12891-2.0312 0.44922-4.0469 0.95703-6.0156 0.48047-2.0039 0.79688-4.043 0.94922-6.1016 0.20313-1.9727 0.34766-3.9453 0.54297-5.9141h-0.003906c0.015625-2.1914 0.16016-4.3828 0.43359-6.5625 0.15234-0.66406-0.99219-0.93359-1.168-0.26953-0.53125 1.9883-1.6953 3.8086-2.3164 5.7891-0.60938 1.9453-1.1836 3.8906-1.6367 5.8789-0.57422 2.1406-0.87891 4.3438-0.91406 6.5586 0.019532 2.1016-0.074218 4.1992-0.27734 6.293-0.375 4.168-1.125 8.3047-1.2266 12.496v-0.003906c-0.30859 3.6328-0.042968 7.2891 0.78906 10.836-0.90625 0.015626-1.8008 0.24219-2.6094 0.66016-0.25781 0.12109-0.4375 0.37109-0.46484 0.65625-0.027344 0.28516 0.097656 0.56641 0.32812 0.73828 2.9023 1.8672 6.1523 3.3633 9.2188 4.9531 3.2383 1.6758 6.3945 3.4961 9.4727 5.4609v-0.003906c2.9414 1.9102 5.9922 3.6406 9.1406 5.1797 3.418 1.7773 6.6836 3.832 9.7578 6.1484 0.66797 0.47656 1.3594-0.52344 0.73047-1.0352-1.5039-1.2227-3.043-2.4766-4.5391-3.7734 0.75391 0.054687 1.4727 0.097656 2.0859 0.17578l0.003907 0.003906c3.4141 0.19922 6.7227 1.2695 9.6094 3.1055 0.73828 0.57422 1.7969-0.52344 1.1367-1.2188z"/>
  <path d="m411.66 409.26c-1.1094-3.7031-2.7969-7.207-4.9922-10.387-2.0586-3.2305-4.4141-6.3203-6.7031-9.3945h-0.003906c-1.9102-3.1836-4.3711-6-7.2656-8.3242l0.21875-0.039062h0.003906c0.49219-0.089844 0.87109-0.49219 0.9375-0.99219 0.03125-0.24219 0.015625-0.48828-0.039063-0.72656 0.4375-0.10938 0.77734-0.45313 0.88672-0.88672 0.35938-2.3867 0.53125-4.7969 0.51953-7.207 2.6289-3.4492 7.0547-0.078126 10.449-0.24219 0.50781-0.085938 0.92969-0.43359 1.1133-0.91406 0.18359-0.48047 0.097657-1.0195-0.22266-1.4219-2.1953-1.9648-5.1562-2.8359-8.0664-2.3672-1.1602 0.21484-2.2266 0.77344-3.0664 1.5977 0.12891-1.9375 0.25-3.8672 0.30469-5.8203 0.050781-1.8945 0.027344-3.7812-0.015625-5.668l0.21484 0.6875h0.003906c0.45312 1.3516 1.0117 2.668 1.668 3.9336 0.71875 1.4023 1.7344 2.5703 2.5 3.9297 0.1875 0.375 0.63281 0.53516 1.0117 0.36719 0.38281-0.16797 0.5625-0.60547 0.41016-0.99219-0.40234-1.4805-0.71875-2.9805-0.94141-4.4961l-0.75391-3.5703c-0.55078-2.6016-1.0859-5.207-1.3945-7.8516-0.30469-2.6289-0.54688-5.2812-0.72656-7.9219-0.13672-2.0273-0.007813-4.0391 0.039062-6.0547l0.37891-0.98828c0.67188-1.6484 1.3281-3.3086 1.8984-4.9961 1.0352-3.1484 1.668-6.418 1.8906-9.7227 0.27734-3.2734 0.085937-6.5703-0.56641-9.793-0.72266-3.4102-1.7148-6.75-2.2148-10.199h0.003906c-0.058593-0.29297-0.31641-0.50391-0.61719-0.49609-0.29688 0.011718-0.54297 0.23437-0.58203 0.53125-1.2852 6.4062-0.11328 13.008-0.77344 19.48-0.33984 3.3125-0.99609 6.582-1.4531 9.8789-0.45703 3.2969-1.3242 6.5078-1.7969 9.7812-0.066406 0.33203 0.035156 0.67969 0.27344 0.92188l-0.14062 1.1523c-0.25781 2.1289-0.32422 4.2734-0.19531 6.4102-1.3438 5.2148-2.2461 10.531-2.6914 15.898-0.082031 2.7617 0.023437 5.5234 0.31641 8.2695 0.12891 2.2539 0.41016 4.4961 0.83984 6.7109-1.0938-0.8125-2.2617-1.5195-3.4922-2.1094-2.1641-1.3242-4.6875-1.9336-7.2148-1.7422-0.21094 0.039063-0.38281 0.20312-0.42969 0.41406-0.050781 0.21094 0.03125 0.42969 0.20312 0.55859 1.9219 1.3633 4.0859 2.2617 6.082 3.5312v-0.003907c0.97266 0.625 1.9102 1.3008 2.8047 2.0312 0.44141 0.42188 0.94922 0.77734 1.4961 1.043-0.09375 0.074219-0.15625 0.19141-0.16016 0.3125-0.007812 0.125 0.042969 0.24219 0.13281 0.32812 1.0977 1.4258 2.0039 2.9922 2.6875 4.6562 0.87891 1.6289 1.8164 3.2305 2.7266 4.8438 1.7852 3.1602 3.6602 6.2695 5.4219 9.4453 3.5547 6.1719 6.1992 12.828 7.8594 19.754 0.085938 0.42969 0.46875 0.73828 0.90625 0.72266 0.4375-0.011719 0.80078-0.33984 0.85938-0.77344 0.46094-3.6992 0.27734-7.4531-0.54297-11.09z"/>
  <path d="m414.8 349.91c-1.2344-2.6914-2.1914-5.5-2.8477-8.3867-0.19922-3.2148-0.16797-6.4414 0.097657-9.6523 0.11719-6.3164-0.19141-12.637-0.92969-18.914-0.32422-3.332-0.67188-6.6641-1.0117-9.9961-0.21094-2.9766-0.64453-5.9336-1.2969-8.8477-0.67969-2.9102-2.0977-5.5977-4.1172-7.8047-1.8672-1.9062-4.2305-3.2539-6.8203-3.8984-0.85547-0.24219-1.3555 1.0586-0.48828 1.3086 5.0312 1.4766 6.7461 7.7266 7.4492 12.285 0.87891 5.7227 1.1602 11.559 1.7148 17.32v0.003906c0.8125 6.0156 1.3164 12.074 1.5117 18.145-0.42578 5.5469-0.058594 11.129 1.0859 16.578 1.0312 2.957 1.6914 6.0352 1.9648 9.1562 0.11719 3.2031 0.050781 6.4883-0.007813 9.6914-0.03125 1.6914 2.6211 2.6211 3.1172 0.72266 0.87891-2.8086 1.4531-5.7031 1.707-8.6367 0.16406-3.0664-0.21875-6.1406-1.1289-9.0742z"/>
  <path d="m381.18 311.41c-0.23047-0.27734-0.64453-0.32031-0.92969-0.089844-0.85547 1.3047-1.3047 2.8359-1.2852 4.3984-0.38672 2.1602-0.99219 4.2773-1.8086 6.3164-0.37109 1.3711-1.0781 2.625-2.0508 3.6562-1.3594 0.95703-1.9297 2.6914-1.4062 4.2695 0.34375 0.71875 1.1094 1.1328 1.8984 1.0352 1.6641-0.30859 3.1523-1.2305 4.168-2.5781 1.1289-1.4336 1.7812-3.1797 1.875-5 0.23047-2.1016 0.26953-4.2695 0.32812-6.3828 0.046875-1.6719 0.42578-4.3047-0.78906-5.625z"/>
  <path d="m399.86 240.89c-2.1211-5.1719-6.5-9.082-11.875-10.602-6.1758-1.6289-12.699-1.3008-18.68 0.94141-5.4258 2.3203-9.4336 7.0742-10.801 12.816-0.83203 3.3359-1.082 6.793-0.73438 10.219 0.17969 1.9727 0.56641 3.9219 1.1562 5.8125 0.60547 1.9492 1.5078 3.7812 2.1211 5.7188 0.28516 0.89844 1.7812 0.44922 1.582-0.46875l0.003906 0.003906c-0.48437-2.8906-0.79297-5.8086-0.92578-8.7383-0.33594-2.832-0.30469-5.6992 0.089844-8.5234 0.61719-4.6992 3.2188-8.9141 7.1406-11.574 4.5781-2.3711 9.8359-3.0859 14.883-2.0195 4.4141 0.625 8.3086 3.2148 10.594 7.043 2.375 4.2734 3.5547 9.1094 3.418 14-0.019531 1.3906 1.9766 2.043 2.4922 0.57812 1.75-4.9492 1.5859-10.375-0.46484-15.207z"/>
  <path d="m392.84 245.95c-0.42578 0.69141-0.91406 1.3203-1.3242 2.0234-0.22656 0.38672-0.45703 1.2422-0.8125 1.4648-0.85547 0.53516-2.6133-0.53125-3.4102-0.92188l-0.003906 0.003906c-2.3164-1.3398-4.8438-2.2812-7.4688-2.7891-3.7891-0.48438-9.4414 2.5586-9.0117 7.0156v0.003906c0.066406 0.37109 0.34766 0.66797 0.71484 0.75391 0.36719 0.082032 0.75-0.054687 0.97266-0.35938 0.42578-1.0547 1.168-1.9492 2.125-2.5586 0.90625-0.39453 1.8945-0.55859 2.8789-0.47266 2.7969 0.24609 5.5234 1.0312 8.0234 2.3125 2.0078 1.1289 4.418 1.2969 6.5625 0.45312 2.043-1.2656 1.8555-4.332 2.1602-6.4023 0.027344-0.34766-0.17969-0.67187-0.50391-0.79297-0.32812-0.12109-0.69531-0.011719-0.90234 0.26562z"/>
  <path d="m368.94 257.89c0.32422 0.21484 0.75781 0.16406 1.0234-0.12109s0.28516-0.71875 0.050781-1.0312c-0.63281-1.0117-1.8711-1.4648-3.0039-1.0977-1.4453 0.64062-2.3945 2.0508-2.4375 3.6289-0.57422 4.0391 0.23828 8.1562 2.3008 11.68 0.89844 1.3594 2.8281 0.16016 2.6914-1.207-0.23047-2.2773-0.95312-4.4727-1.2383-6.75-0.042969-0.32812-0.50391-5.7695 0.61328-5.1016z"/>
  <path d="m386.43 285.01c-1.2188-0.69141-2.5625-1.1367-3.9531-1.3164-1.3203-0.38281-2.5859-0.94531-3.7539-1.668-1.2109-0.73828-2.332-1.6172-3.4648-2.4688-1.4961-0.91797-2.8789-2.0039-4.125-3.2461-0.23828-0.23438-0.61328-0.25-0.875-0.039063-0.25781 0.21094-0.31641 0.58594-0.13281 0.86719 1.2617 1.5234 1.875 3.4766 3.0938 5.0508 1.1445 1.4961 2.5469 2.7734 4.1406 3.7773 2.4922 1.5312 7.0078 3.3633 9.3594 0.72266 0.375-0.54297 0.24609-1.2891-0.28906-1.6797z"/>
  <path d="m400.59 264.14-0.39062-0.074219c0.054687-1.2656-0.10156-2.5352-0.46875-3.7461-0.16797-0.51562-0.83984-0.35156-1.0312 0.03125-0.51172 1.1211-0.84766 2.3125-1.0039 3.5352-0.78516 0.023437-1.5625 0.11719-2.3281 0.28906-0.53516 0.10156-0.91797 0.57812-0.90234 1.125 0.015625 0.54297 0.42578 1 0.96484 1.0703 0.59766 0.13281 1.2031 0.21875 1.8125 0.25781l-0.058594 0.28125v0.003907c-0.58203 2.4609-1.3672 4.8672-2.3516 7.1953-0.83984 2.0586-1.7891 4.0703-2.7148 6.0898-0.41406 1.0078-0.89062 1.9883-1.4336 2.9336-0.63281 0.79297-1.2266 1.6172-1.7734 2.4727-0.45312 0.92578 0.66797 1.6211 1.4492 1.3633 1.9258-0.62891 3.6211-3.2695 4.5742-4.957l0.003906 0.003906c1.1875-2.1641 2.2383-4.3984 3.1445-6.6914 0.98437-2.3867 1.6055-4.9062 1.8359-7.4805l0.12891-1.3359 0.61328-0.11328h-0.003906c0.55078-0.10547 0.94531-0.59375 0.92969-1.1562-0.015625-0.55859-0.4375-1.0273-0.99609-1.0977z"/>
  <path d="m388.36 260.38c-1.1328-1.1055-2.7617-1.5391-4.2969-1.1328-0.73047 0.066406-1.4531 0.21484-2.1484 0.44531-0.85547 0.29688-1.5273 0.92969-2.3789 1.2422-0.69141 0.25781-0.22266 1.2578 0.45703 1.0352 1.3867-0.21094 2.8008-0.13281 4.1562 0.23438 1.1875 0.45312 2.4805 0.53906 3.7188 0.24609 0.375-0.17188 0.65234-0.51172 0.75-0.91406 0.097656-0.40234 0-0.82812-0.25781-1.1562z"/>
  <path d="m397.94 259.45c-0.34766-0.41016-0.875-0.625-1.4102-0.57422-0.36719 0.0625-0.72656 0.15625-1.0781 0.28125-0.58984 0.078125-1.1562 0.30078-1.6445 0.64062-0.35156 0.30859-0.40625 0.83594-0.12109 1.2109 0.52344 0.55078 1.2539 0.85547 2.0156 0.84375 0.92969 0.089843 2.1445-0.085938 2.4531-1.1289 0.16016-0.43359 0.078125-0.91797-0.21484-1.2734z"/>
  <path d="m386.14 265.42c-0.14844-0.47656-0.61719-0.77734-1.1133-0.71094-1.207 0.23047-2.4414 0.26562-3.6602 0.10938-0.30078-0.097656-0.62109 0.058594-0.73047 0.35156s0.03125 0.62109 0.32031 0.74609c0.72266 0.34766 1.4727 0.63281 2.2461 0.84375 0.79297 0.16016 1.6172 0.11328 2.3867-0.14062 0.46094-0.20313 0.69531-0.71875 0.55078-1.1992z"/>
  <path d="m391.36 277.31c-1.3164-0.78125-3.0117 0.03125-4.4414 0.09375h0.003907c-0.41406 0.074219-0.74219 0.38672-0.83984 0.79688-0.09375 0.41016 0.0625 0.83594 0.39844 1.0859 1.1641 0.86328 2.668 1.1289 4.0586 0.71875 0.58594-0.16406 1.0664-0.58594 1.3008-1.1484 0.21094-0.5625 0.011718-1.1992-0.48047-1.5469z"/>
  <path d="m392.87 270.96c-0.60547-0.1875-1.2578-0.16406-1.8555 0.058594l-0.66797 0.26172c-0.25 0.14453-0.47266 0.32422-0.66406 0.53516-0.20313 0.17188-0.29688 0.43359-0.25391 0.69141 0.042969 0.25781 0.21875 0.47656 0.46094 0.57031l0.69531 0.26172h0.003907c0.26562 0.019531 0.53125 0.023438 0.79687 0.007812 0.64453 0.007813 1.2734-0.19922 1.7852-0.58594 0.28906-0.24219 0.42969-0.61719 0.36719-0.98828s-0.31641-0.67969-0.66797-0.8125z"/>
 </g>
</svg>