<?xml version="1.0" encoding="UTF-8"?>
<!-- Uploaded to: SVG Repo, www.svgrepo.com, Generator: SVG Repo Mixer Tools -->
<svg fill="#000000" width="800px" height="800px" version="1.1" viewBox="144 144 512 512" xmlns="http://www.w3.org/2000/svg">
 <g>
  <path d="m308.67 466.8c-1.6406-0.41406-3.1406-1.2578-4.3477-2.4414-1.7578-2.1562-0.62891-5.25-0.48828-7.7969 0.32812-5.9688 0.52344-11.934 0.95703-17.898 0.27344-6.1289 1.0508-12.227 2.332-18.227 1.3945-5.7773 3.2305-11.453 4.4492-17.27l-0.003906-0.003907c1.1562-5.8086 1.5469-11.742 1.1602-17.656-0.63672-11.91-3.332-23.574-4.793-35.387-0.90234-6.0469-1.1172-12.18-0.63672-18.277 0.23828-2.5273 0.80469-5.0156 1.6875-7.3945 0.87109-2.582 2.2812-4.9531 4.1289-6.957 0.33984-0.29297 0.375-0.80078 0.082031-1.1367-0.29297-0.33594-0.80078-0.37109-1.1367-0.082031-1.9102 1.1953-3.5781 2.7383-4.9141 4.5547-1.3008 2-2.2617 4.2031-2.8516 6.5156-1.1992 4.9609-1.5938 10.082-1.1641 15.164 0.68359 12.359 3.4336 24.461 4.7266 36.75 0.70312 6.1797 0.83984 12.414 0.40625 18.617-0.60938 6.1016-1.7266 12.141-3.3477 18.055-1.0117 4.043-1.9688 8.1523-2.7695 12.273-0.28906-0.085937-0.58984-0.10547-0.88281-0.058594-2.3008 0.33594-4.5117 1.1367-6.4883 2.3555-1.918 1.3633-3.75 2.8359-5.4922 4.4141-0.55859 0.46094 0.12891 1.2852 0.70703 0.86328h-0.003906c1.8281-1.2305 3.8945-2.0547 6.0664-2.4219 1.7812-0.37109 3.5625-0.80859 5.3594-1.1094l-0.29688 1.8438h-0.003906c-0.81641 6.2578-1.2891 12.551-1.4219 18.855-0.074219 1.7617-0.16797 3.543-0.14062 5.3086v0.003906c0.11719 1.4219 0.37891 2.832 0.77734 4.2031l0.039062 0.18359c-1.3906 0.30859-2.7148 1.1094-4.0898 1.4844-1.7578 0.48047-3.5742 0.76172-5.3398 1.2109-2.0625 0.51953-4.1406 1.0352-6.1719 1.6758l0.003906-0.003906c-2.1094 1.0938-4.4883 1.5391-6.8516 1.2852-0.66406-0.28516-1.2812-0.66406-1.8398-1.1211-0.76172-0.44531-1.5469-0.84375-2.3516-1.1992-1.4531-0.70703-2.8477-1.5195-4.2852-2.2539l-0.003906 0.003906c-2.9648-1.4609-6.207-2.2734-9.5117-2.3828-0.26562-0.019531-0.50781 0.15625-0.56641 0.41406-0.058594 0.26172 0.078125 0.52734 0.32422 0.625 3.2422 1.8359 6.2812 4.0039 9.0703 6.4727 1.4883 1.0586 3.125 1.8945 4.8555 2.4766 1.9492 0.33984 3.9336 0.45312 5.9102 0.34766 4.6836 0.054687 9.3477-0.62891 13.82-2.0195 3.0312-0.55469 5.7969-2.082 7.8828-4.3516 0.57422 1.2188 1.4805 2.2461 2.6133 2.9727 3.2617 2.1836 7.75 2.375 10.148 5.7773 0.79297 1.1289 2.2109 0.019531 2.1484-1.0391-0.23828-3.8398-4.4023-5.1094-7.4609-6.2188z"/>
  <path d="m376.32 445.43c-3.7266 0.74609-7.5781 0.59766-11.238-0.42188-3.5898-0.70312-6.6523-3.0352-8.2812-6.3086-3.5586-7.1953-4.9336-15.277-3.957-23.242 0.57812-4.2266 2.332-8.1133 2.9531-12.316v-0.003906c0.625-3.8008 0.73047-7.6719 0.31641-11.504-1.1406-7.4844-4.1758-14.551-8.8164-20.531-4.4727-6.3555-10.148-11.773-16.711-15.941 0.22656-3.4609 0.47656-6.918 0.75-10.379 0.18359-2.2539 0.40234-4.5039 0.60156-6.7578 0.10547-2.4805 0.33594-4.9531 0.69141-7.4141 0.21094-1.0977-1.4961-1.2461-1.7188-0.17188-0.44141 2.1328-1.2227 4.1445-1.75 6.2539-0.52734 2.1094-0.96875 4.2383-1.3867 6.3711-0.78125 4.0039-1.3828 8.0469-1.7695 12.109-0.79297 8.3477-0.58594 16.691-0.76953 25.062-1.4766 15.164-4.7422 30.098-9.7266 44.492-1.0898 4.0859-1.9297 8.2305-2.5156 12.414-0.44531 4.1406-0.34375 8.3203 0.30469 12.434 0.11328 0.62109 0.66406 1.0625 1.293 1.043 0.62891-0.015625 1.1484-0.48828 1.2305-1.1133 0.29297-3.6992 0.78516-7.3828 1.4766-11.027 0.58203-3.6953 1.332-7.3281 2.2422-10.957 1.8398-7.3164 4.2188-14.484 6.2148-21.762 2.1328-7.1719 3.4805-14.559 4.0156-22.023 0.40234-8.0469 0.085937-16.102 0.54297-24.152 1.7188 2.0352 3.5781 3.9531 5.4414 5.875-0.007812 2.2578 0.30859 4.5625 0.38281 6.7773 0.10938 3.1992 0.078125 6.4297-0.074219 9.625h0.003906c-0.15234 6.5-1.1484 12.949-2.9688 19.191-1.8594 5.8555-4.7109 11.359-6.8984 17.09-1.1484 2.8008-1.8867 5.7539-2.1875 8.7656-0.46875 2.8555-0.65625 5.75-0.55078 8.6406 0.41797 3.3203 4.6484 3.8086 7.2852 4.2109h-0.003906c1.4648 0.23828 2.9492 0.34766 4.4336 0.32031-1.418 1.0859-2.8359 2.1719-4.2031 3.3242-1.2188 1.0273-2.4219 2.0703-3.6289 3.1094h0.003906c-1.3594 0.96484-2.5312 2.1719-3.457 3.5547-0.125 0.1875-0.125 0.42578-0.011719 0.61328 0.11719 0.1875 0.33203 0.28906 0.55469 0.26172 1.5742-0.40234 3.0586-1.0938 4.3828-2.0391 1.5547-0.90625 3.1055-1.8164 4.6445-2.7461 3.0352-1.668 5.9258-3.582 8.6406-5.7305 2.3086-1.9766 3.5391-4.9297 3.3242-7.9609-0.35156-2.9336-0.55469-5.8867-0.60547-8.8438 0.89844-4.625 2.6953-9.0273 5.2852-12.957-0.32812 3.2031-0.80078 6.3867-0.89844 9.6094-0.28516 5.4883 0.3125 10.984 1.7656 16.281l-0.52344 1.0625c-0.76953 1.4609-1.7266 2.8359-2.6133 4.2266-1.8594 2.918-4 5.6211-6.1055 8.3594-2.1562 2.8047-4.3867 5.5547-6.6445 8.2812-2.3828 2.875-4.3984 6.0039-6.6992 8.9219-0.40234 0.51172 0.32031 1.1211 0.80859 0.75391v0.007813c3.168-2.1875 6.168-4.6094 8.9727-7.2461 2.7109-2.7188 5.3164-5.5703 7.7773-8.5195 2.3164-2.6719 4.4141-5.5273 6.2695-8.5352 0.3125-0.53516 0.67188-1.1797 1.0195-1.8867l0.875 1.4609h0.003907c2.7109 3.5117 6.6641 5.8555 11.043 6.5547 4.2109 1.1211 8.6953 0.49219 12.434-1.75 1.3711-0.85938 0.19531-3.0977-1.2695-2.8164zm-25.191-49.109 0.003907 0.003906c-0.56641 4.5859-2.1445 8.9922-4.6211 12.898-2.6914 3.8828-4.6328 8.2344-5.7227 12.832-0.31641 2.5547-0.25781 5.1406 0.17188 7.6797 0.50781 2.1641 0.12109 4.4453-1.0625 6.3281-2.5391-0.56641-5.1289-0.875-7.7305-0.92188-1.4844-0.14844-2.957-0.39062-4.4062-0.73438l-1.2969-0.34375c-0.23047-0.26172 0-1.3086 0.058594-1.7383v-0.003906c0.57812-2.9258 1.5078-5.7734 2.7656-8.4766 1.0234-2.6602 1.9258-5.3672 2.957-8.0234v-0.003907c4.8477-10.777 7.7188-22.336 8.4766-34.129 0.042969-3.2656-0.19922-6.5234-0.72266-9.7461l-0.43359-2.4609c1.2461 1.375 2.4492 2.7852 3.5547 4.2773 4.7773 6.0234 7.6523 13.336 8.2578 21l0.019532 1.0078z"/>
  <path d="m321.74 468.9c-0.52344-1.4766-1.8906-2.1836-2.8906-3.3203-0.89453-1.0156-1.4961-2.3828-2.7656-2.9961-2.9648-0.74609-6.0469-0.90234-9.0703-0.46875-0.96094-0.03125-1.0117 1.4883-0.097656 1.6523 1.5469 0.27734 3.0586 0.72266 4.5977 1.043l0.003906 0.003906c1.2617 0.046875 2.4258 0.69922 3.125 1.7578 1.2852 1.9141 3.1562 4.5156 5.6914 4.4492h-0.003907c0.49609-0.039062 0.94531-0.30469 1.2188-0.71875 0.27734-0.41406 0.34766-0.92969 0.19141-1.4023z"/>
  <path d="m326.2 467.33c-0.85156-1.8359-1.8984-3.5742-3.1289-5.1836-1.1133-1.875-2.4102-3.6328-3.8711-5.2539-2.1836-2.0938-6.3594-0.69922-8.6133 0.63672-0.20312 0.13672-0.30078 0.38281-0.25 0.62109 0.046875 0.23828 0.23438 0.42578 0.47266 0.47656 0.88281 0.10547 1.7734 0.14062 2.6641 0.10938 0.86328-0.14062 1.7383-0.21094 2.6133-0.21094 0.85547 1.7539 1.8398 3.4414 2.9453 5.0508 1.1875 2.0625 2.6016 3.9883 4.2227 5.7305 0.63281 0.52344 1.5312 0.56641 2.2109 0.10938 0.67578-0.45312 0.97656-1.3047 0.73437-2.0859z"/>
  <path d="m325.05 460.34c-1.2969-2.5078-2.2617-5.1719-2.8711-7.9297-0.24219-0.70703-0.92969-1.1602-1.6758-1.1133-1.6953-0.078125-3.3945 0.21484-4.9688 0.85156-0.44922 0.30469-0.69922 0.82422-0.66016 1.3672 0.039062 0.53906 0.35938 1.0195 0.84375 1.2578 1.3242 0.51172 2.7812 0.55469 4.1328 0.125 1.2266 2.1484 2.5781 4.2188 4.0469 6.207 0.21875 0.30078 0.63672 0.37891 0.94531 0.17188 0.3125-0.20703 0.40234-0.62109 0.20703-0.9375z"/>
  <path d="m469.12 356.82c-2.0703-1.875-4.6367-3.1211-7.3945-3.5898-2.7539-0.46875-5.5859-0.14062-8.1641 0.94531-5.6875 1.6211-11.176 3.8906-16.348 6.7578-10.535 5.8945-20.059 13.438-28.203 22.344-3.4414 3.7656-6.6602 7.7266-9.6406 11.867-6.0703 1.082-12.02 2.7461-17.77 4.9766-3.1172 1.1992-6.1523 2.5898-9.0977 4.168-2.9414 1.6055-5.5664 3.7109-8.3555 5.5508-0.72266 0.47656 0.027344 1.6367 0.78906 1.2812v-0.003907c2.4922-1.0742 5.0469-2.0039 7.6445-2.7891 2.5781-0.85938 5.1133-1.8555 7.6875-2.7305 5.1289-1.7578 10.359-3.207 15.66-4.3438 5.3086-1.1133 10.691-1.8594 16.105-2.2305 5.5391-0.62891 11.141-0.34375 16.586 0.84375 4.9531 1.4883 9.3672 4.3828 12.703 8.3359 1.1172 1.2266 3.6562 0.4375 3.2031-1.4336-0.27344-1.1289-0.68359-2.2188-1.2227-3.2461 1.375-1.0898 2.6914-2.2578 3.9336-3.5 2.0938-1.8359 4.0352-3.8359 5.8125-5.9805 3.3438-4.3398 5.875-9.2461 7.4727-14.488 0.14844-0.44531-0.082031-0.93359-0.52344-1.0977s-0.9375 0.054687-1.1133 0.48828c-2.4766 4.6367-5.7617 8.7891-9.6992 12.262-1.8242 1.8008-3.6445 3.5938-5.5547 5.3086-1.0742 0.96484-2.4102 1.8906-3.5391 2.957v0.003906c-6.793-4.6602-14.992-6.8164-23.199-6.0977-4.5195 0.10547-9.0234 0.47656-13.5 1.1094 2.0195-1.9141 4.0586-3.8047 6.0742-5.707 4.0781-3.8516 8.2148-7.6367 12.543-11.207 8.3281-7.1406 17.797-12.824 28.008-16.82 4.957-2.7695 10.926-3.0352 16.105-0.71875 2.0234 1.3594 4.6836-1.2734 2.9961-3.2148z"/>
  <path d="m591.11 441.77c-1.4727 4.4531-4.625 8.1602-8.7852 10.332-4.6484 3.25-9.8203 5.6758-15.293 7.1719-12.215 0.84766-24.473-0.96484-35.922-5.3125-11.859-2.5781-24.004-3.4844-35.906-5.8281-5.9453-1.0781-11.777-2.7188-17.414-4.8945-2.6562-1.1797-5.3789-2.1992-8.1562-3.0586-3.0781-0.75391-6.2266-1.1992-9.3945-1.332-4.2344-0.28516-8.4688-0.57031-12.703-0.85156l-0.003906 0.003906c2.4258-4.4727 4.6172-9.0664 6.5742-13.758 2.4141-5.332 4.7656-10.688 7.0117-16.09 4.3633-10.492 9.0352-21.074 12.426-31.926v-0.003906c0.92188-2.6602 1.3945-5.4609 1.3945-8.2773-0.046875-1.2383-0.26562-2.4648-0.64844-3.6445-0.47656-1.2969-1.2461-2.4648-2.25-3.4102-0.17188-0.19922-0.44922-0.26172-0.69141-0.15625-0.23828 0.10938-0.375 0.35938-0.34375 0.61719 0.44531 3.0195 0.25781 6.0938-0.54687 9.0391-0.83203 3.1016-1.8594 6.1484-3.082 9.1211-2.5039 6.5117-5.0938 12.992-7.7656 19.438-2.6797 6.4414-5.4961 12.832-8.3398 19.203-2.8789 6.457-6.4141 12.824-8.6758 19.527l-4.5195-0.27344c-3.7031-0.21875-7.4141-0.51172-11.121-0.625-1.4688-0.046875-2.9336-0.074219-4.3867-0.015625 2.8984-2.707 5.8125-5.4023 8.7344-8.0859 2.3086-2.1289 4.5625-4.293 6.6914-6.6016l0.003906 0.003906c1.0547-1.1094 2.0469-2.2734 2.9766-3.4844 1.0547-1.4219 1.7305-3.0312 2.793-4.4414 0.42578-0.5625-0.43359-1.25-0.85938-0.68359-1.0977 1.2344-2.3086 2.3633-3.625 3.3633-1.1328 1.0156-2.2383 2.0586-3.3906 3.0508-2.3242 2-4.7461 3.8984-7.1484 5.8047-5.0703 4.0312-10.012 8.1836-14.793 12.551v0.003906c-9.5703 8.7852-18.598 18.145-27.031 28.027-2.4023 2.2188-4.1445 5.0586-5.0352 8.2031-0.45312 2.832 0.98828 5.6289 3.5586 6.9023 0.48438 0.19531 1.043 0.050782 1.3711-0.35547 0.32812-0.41016 0.35156-0.98438 0.050782-1.418-1.5039-1.9375-0.25781-4.6914 0.96484-6.4609h0.003907c1.7266-2.3203 3.5898-4.5352 5.5742-6.6406 2.5312-2.8789 5.1055-5.7188 7.7266-8.5195 1.4531 1.0039 3.0156 1.8398 4.6602 2.4844 2.25 0.8125 4.5469 1.4844 6.8789 2.0156 4.7969 1.1484 9.6719 1.918 14.473 3.0508 4.8164 1.1406 9.4531 2.9375 13.781 5.3438 4.6797 2.5586 9.5547 4.7383 14.578 6.5156 10.504 3.7773 21.344 6.9883 32.125 9.875 10.746 2.8789 21.602 5.8359 32.547 7.8711h0.003906c5.9375 1.2891 12.09 1.2461 18.012-0.125 2.7305-0.78516 5.3398-1.9492 7.75-3.457 2.6289-1.3125 4.8945-3.25 6.6016-5.6445 0.65625-1.1328-0.10156-3.0586-1.6562-2.6641-2.2461 0.75781-4.3438 1.8945-6.2031 3.3633-2.1484 1.4766-4.4727 2.6836-6.9141 3.5938-4.9375 1.4844-10.176 1.6562-15.199 0.49219-10.75-1.9492-21.395-4.8281-31.953-7.5977-10.348-2.7109-20.773-5.2734-30.867-8.8516-2.4688-0.875-4.8594-1.8555-7.2031-2.9414l1.3633 0.03125h0.003907c4.0664-0.023438 8.1289 0.32031 12.137 1.0312 4.2812 0.89062 8.3828 2.543 12.57 3.7891l-0.003906-0.003906c4.2227 1.3516 8.5312 2.4141 12.895 3.1758 4.582 0.65234 9.1953 1.0625 13.82 1.2305 9.5977 0.42969 19.211 0.24219 28.785-0.55859 5.0273-0.40234 9.9766-1.0977 14.957-1.8594 3.8633-1.0586 7.9961-0.375 11.316 1.8711 1.2383 0.94922 2.5703-0.74219 1.7734-1.9023-2.168-2.6875-5.4531-4.2305-8.9062-4.1875-3.9375-0.25781-7.8906-0.11719-11.805 0.41797-9.6094 0.89844-19.184 1.5312-28.844 1.4961-9.2734 0.51172-18.574-0.30469-27.621-2.4219-4.207-1.2734-8.1719-3.2109-12.355-4.5625-4.0195-1.3203-8.1914-2.1328-12.418-2.418-4.6172-0.28906-9.2461-0.070312-13.863-0.37891-1.4727-0.097656-2.9336-0.22656-4.3828-0.39062v0.003906c-3.1523-1.7578-6.4805-3.1719-9.9336-4.2188-5.0508-1.4609-10.246-2.2578-15.398-3.2617-2.625-0.47656-5.2266-1.0938-7.7852-1.8438-1.5664-0.47656-3.207-0.92969-4.7969-1.4531l1.3477-1.4102c4.3281-4.4766 8.7812-8.8125 13.301-13.086h-0.003906c5.7148 1.4375 11.586 2.1367 17.473 2.0859 6.8242 0.48438 13.656 0.89844 20.488 1.3398 3.3164 0.21484 6.6289 0.39844 9.9102 0.92578h0.003906c2.9805 0.57031 5.8945 1.4375 8.7031 2.5898 5.8281 2.1797 11.812 3.9141 17.902 5.1875 12.297 2.5703 24.84 3.7539 37.113 6.4766 11.832 4.5977 24.566 6.3828 37.203 5.2148 6.293-1.9492 12.215-4.9336 17.52-8.832 5.0117-2.5156 8.4609-7.3398 9.2188-12.895 0.035157-1.6914-2.668-2.6289-3.125-0.72266z"/>
  <path d="m426.67 406.39c-0.67969-0.14844-1.2812-0.52734-1.9531-0.69141l0.003906-0.003906c-0.65625-0.13281-1.3203-0.21484-1.9922-0.24609-1.4648-0.11719-2.9453-0.046875-4.3945 0.21875-2.7539 0.53125-5.3945 1.5508-7.7891 3.0117-4.9219 3.2266-9.2422 7.2852-12.773 11.992-4.0195 4.9453-7.3594 10.406-9.9297 16.238-2.5078 5.6094-4.7266 11.367-7.5156 16.844h-0.003906c-1.5195 3.0625-3.2773 6-5.2539 8.793-2.0352 2.8164-4.0234 5.6914-6.1445 8.4414-0.5625 0.72656 0.40625 1.8438 1.1602 1.2109h-0.003907c2.1719-1.7148 4.1875-3.6172 6.0234-5.6875 1.8281-2.1953 3.5938-4.4688 5.2656-6.7852h0.003906c3.4414-4.7656 6.3398-9.8984 8.6484-15.309 2.1172-5.5195 4.7812-10.812 7.9492-15.809 3.2344-4.8398 7.043-9.2734 11.34-13.203 2.2266-2.0664 4.7188-3.8242 7.4062-5.2344 1.3984-0.69531 2.8516-1.2656 4.3477-1.707 0.80469-0.25 1.625-0.45312 2.4531-0.60547 0.98047-0.23047 1.9805-0.36719 2.9883-0.40234 0.29297 0.046874 0.57031-0.15625 0.61719-0.44922 0.046875-0.29688-0.15625-0.57031-0.45312-0.61719z"/>
  <path d="m408.52 500.59c-4.75 0.58203-9.5586 0.47656-14.277-0.3125-4.5547-1.1133-8.75-3.3594-12.199-6.5391-1.6914-1.5938-3.5312-3.0234-5.4883-4.2812-2.1484-1.1133-4.4961-1.8008-6.9102-2.0195-5.0742-0.89453-3.8555-8.5547-3.3398-12.113v0.003906c0.046874-0.35547-0.17188-0.6875-0.51563-0.78516-0.33984-0.10156-0.70312 0.0625-0.85547 0.38281-1.8008 2.4609-2.8711 5.3711-3.0977 8.4102-0.003907 0.98828 0.14453 1.9727 0.4375 2.918l-2.4102 0.22656c-1.9258 0.15234-3.8594 0.27344-5.793 0.32031-3.9062 0.09375-7.8164-0.035156-11.707-0.38281-3.7734-0.33203-7.5625-0.69922-11.312-1.2227-1.9219-0.26562-3.8398-0.53125-5.7578-0.84766-0.95312-0.15625-1.9062-0.28125-2.8672-0.35156-1.0664 0.027344-2.1328-0.003906-3.1992-0.089844-0.6875-0.12109-0.8125 0.85156-0.25781 1.1172 0.89062 0.42187 1.6445 1.1367 2.5195 1.6133 0.85547 0.46875 1.7461 0.875 2.6602 1.2148 1.9102 0.71094 3.8828 1.332 5.8555 1.8516 3.8711 1.0508 7.8203 1.7773 11.812 2.1758 3.8867 0.35938 7.7969 0.50391 11.703 0.43359 2.082-0.039062 4.1602-0.11328 6.2383-0.26953h-0.003906c2.0547 0.070312 4.1016-0.30078 6-1.0898 2.0859 0.82422 4.2539 1.4141 6.4688 1.7656 2.4805 1.0938 4.7227 2.668 6.5898 4.6328 4.1523 3.7852 9.2031 6.4492 14.672 7.7383 5.3945 1.4531 11.133 0.85547 16.113-1.6719 1.4336-0.83984 0.34375-2.9102-1.0781-2.8281z"/>
  <path d="m404.62 496.88c-3.1211-1.2227-5.9609-3.0625-8.3594-5.4062-1.2617-1.1445-2.5039-2.3086-3.6719-3.5508-1.0742-1.3477-2.2969-2.5742-3.6406-3.6562-0.20703-0.15234-0.48437-0.15234-0.69141-0.003907-0.20312 0.15234-0.28906 0.41797-0.20703 0.66016 0.58203 1.8516 1.4609 3.6016 2.6016 5.1758 1.0312 1.7148 2.2891 3.2812 3.7344 4.6641 1.3125 1.2617 2.8438 2.2734 4.5117 2.9961 1.7344 0.67188 3.5859 0.97656 5.4414 0.89844 0.41406-0.050782 0.74219-0.37109 0.80859-0.78125 0.066407-0.41406-0.14844-0.81641-0.52734-0.99609z"/>
  <path d="m542.57 507.88c-1.5 0.96875-3.5547-0.011718-4.9297-0.75391h0.003906c-2.043-1.2344-4.2773-2.1289-6.6094-2.6406-4.9023-0.46094-9.8438-0.32422-14.711 0.41016-10.074 0.80078-20.207 0.47266-30.207-0.98828-9.7188-1.6094-19.289-4.0117-28.617-7.1797-4.7891-1.5742-9.5312-3.2852-14.25-5.0508h-0.003906c-4.6406-1.8711-9.4297-3.3477-14.316-4.418-5.5859-0.96875-11.227-1.6328-16.887-1.9805-2.9609-0.23828-5.918-0.30078-8.8867-0.32422-1.2734-0.011719-2.5391-0.035156-3.8086 0.023437l-0.003906 0.003907c-1.707 0.1875-3.4219 0.28906-5.1406 0.30078-0.30859-0.019531-0.57812 0.21094-0.60938 0.51953-0.03125 0.30859 0.1875 0.58594 0.49609 0.62891 2.6875 0.42578 5.332 1.5234 8.0234 2.0859s5.3672 1.1289 8.082 1.5234c5.168 0.75391 10.383 1.1445 15.547 1.9258v0.003906c5.0625 0.88672 10.02 2.3047 14.789 4.2227 4.8203 1.8008 9.6523 3.5625 14.539 5.1836h-0.003906c9.6406 3.2891 19.527 5.8125 29.566 7.5352 10.293 1.582 20.73 1.9844 31.113 1.207 2.9453-0.19141 5.8867-0.44922 8.832-0.64844l0.003906-0.003906c2.5469-0.32031 5.1328-0.089844 7.582 0.67969 2.1445 1.1562 4.4375 2.0117 6.8125 2.5391 2.3164 0.32031 4.6094-0.70703 5.9141-2.6445 0.42969-0.65625 0.32422-1.5234-0.24609-2.0586-0.57422-0.53516-1.4492-0.57812-2.0742-0.10156z"/>
  <path d="m557.51 480.82c-0.42187 0.20313-0.66406 0.66016-0.58984 1.1289 0.074219 0.46484 0.44531 0.82422 0.91406 0.88672 1.043 0.15234 0.082031 2.5742-0.035156 3.1992-0.21484 1.1328-0.39453 2.2773-0.59766 3.4141v-0.003907c-0.40234 2.3984-1.0547 4.75-1.9492 7.0117-1.7461 3.5859-4.2344 6.7539-7.3086 9.293-0.54688 0.47656-0.71875 1.2578-0.42188 1.9219 0.29688 0.66016 0.99219 1.0508 1.7148 0.96094 6.2852-1.0586 9.6211-8.0391 11.016-13.648 0.625-2.5156 3.8867-16.867-2.7422-14.164z"/>
  <path d="m590.86 454.37c-2.4492 5.9453-8.7656 9.2266-12.121 14.566-1.4062 2.7734-2.2891 5.7812-2.6016 8.875-0.19531 1.6289-1.3906 2.9609-2.9922 3.332-0.87109 0.1875-1.7656 0.24609-2.6562 0.18359-1.1602 0.10938-2.3242 0.125-3.4883 0.046875-0.72656-0.14844-0.86719 0.91016-0.27734 1.1914 0.98438 0.46484 1.7031 1.3633 2.7344 1.8086l0.003907-0.003906c0.96484 0.38281 1.9922 0.58984 3.0312 0.61328 1.8906 0.11719 3.7578-0.50391 5.207-1.7266 3.0273-2.7031 2.3477-6.8438 3.6406-10.32v0.003906c1.3711-3.2031 3.2461-6.1641 5.543-8.7773 2.3555-2.7266 4.1406-5.8945 5.2539-9.3164 0.11328-0.34766-0.066407-0.72656-0.41016-0.85156-0.34375-0.12891-0.72656 0.035156-0.86719 0.375z"/>
  <path d="m253.29 455.68c-1.5977 0.039062-3.1758 0.36719-4.6562 0.96875-1.1367-1.582-2.7266-2.7773-4.5625-3.4258-1.1172-0.4375-2.3047-0.67578-3.5039-0.70312-1.3164 0.0625-2.625 0.26562-3.9023 0.60156-0.61719 0.10547-0.62891 1.1055 0.03125 1.125h0.003906c2.0273 0.30859 3.9414 1.1445 5.5508 2.4219 0.71875 0.47656 1.3906 1.0195 2.0156 1.6172l0.54688 0.58984c-3.1016 2.3711-5.082 5.9219-5.4727 9.8086-0.015625 0.24219 0.13281 0.46875 0.35938 0.55469 0.23047 0.085938 0.48828 0.011719 0.63672-0.18359 1.5859-2.3789 3.5742-4.4648 5.875-6.1602 2.3711-1.5391 4.957-2.7109 7.6797-3.4727 0.79297-0.37109 1.2461-1.2266 1.1055-2.0938-0.13672-0.86719-0.83203-1.5391-1.707-1.6484z"/>
  <path d="m302.49 485.89c-10.613 1.7188-21.406 2.0273-32.102 0.92578-5.4219-0.5625-10.797-1.5117-16.086-2.8398-4.6836-1.2109-10.016-3.5078-11.098-8.7734l0.003906 0.003906c-0.066406-0.33594-0.38672-0.55859-0.72266-0.50391-0.33594 0.054687-0.57031 0.36328-0.53125 0.69922 0.73828 12.512 16.523 15.105 26.242 16.496 6.4297 0.89844 12.93 1.207 19.414 0.93359 5.2656-0.20312 12.711-0.085937 16.145-4.9023 0.28906-0.42969 0.29688-0.98828 0.023438-1.4258-0.26953-0.4375-0.77344-0.67969-1.2891-0.61328z"/>
  <path d="m318.89 474.23c-2.2812 1.6484-4.4688 3.4297-6.543 5.332-2.1055 1.8008-4.4844 3.3516-6.5039 5.2383-0.19531 0.16797-0.25391 0.44141-0.14844 0.67578 0.10156 0.23438 0.34766 0.375 0.60156 0.34375 2.9062-0.61719 5.668-1.7773 8.1406-3.4219 2.6641-1.4883 4.9453-3.582 6.6562-6.1094 0.41016-0.625 0.3125-1.4531-0.23047-1.9609-0.54688-0.51172-1.3789-0.55078-1.9727-0.097657z"/>
  <path d="m285.84 436.62c-1.9961 1.0078-4.168 1.6328-6.4023 1.832-2.0742 0.26172-4.1719 0.23828-6.2383-0.070313-1.6641-0.19141-3.293-0.60547-4.8438-1.2344-0.76953-0.3125-1.6797-0.60156-2.5664-0.93359 2.9766-3.5117 5.5312-7.6641 2.5625-11.559v0.003906c-0.25-0.30078-0.64062-0.44531-1.0234-0.37891-0.38281 0.0625-0.70703 0.32422-0.84375 0.69141-0.54688 2.332-1.5312 4.543-2.9062 6.5039-1.543 2.1719-3.4727 4.0469-5.0898 6.1719-1.5977 2.0938-3.0156 4.3164-4.2305 6.6523-1.2539 2.4102-3.1602 5.3789-6.1758 5.5-0.62891 0.023437-0.60547 1.1211 0.03125 1.1094h-0.003907c2.7188 0.03125 5.3438-0.98047 7.3398-2.8242 2.3438-2.3789 4.5234-4.918 6.5234-7.5938 0.50391-0.59766 1.0977-1.2422 1.7266-1.9297h0.003906c0.55078 0.875 1.293 1.6133 2.1719 2.1641 1.9219 1.1797 4.0938 1.8945 6.3438 2.0898 2.3477 0.12109 4.6914-0.22266 6.9023-1.0195 1.207-0.37109 2.3828-0.82812 3.5273-1.3594 1.3438-0.63281 2.582-1.5508 3.9727-2.0586 1.1875-0.44141 0.25391-2.3945-0.78125-1.7578z"/>
  <path d="m232.94 450.04c-5.3672 1.6719-11.215 0.63672-15.68-2.7852-4.3281-3.7656-6.7617-9.2617-6.6406-15-0.003906-6.3477 1.9922-12.535 5.6992-17.688 1.8008-2.2422 4.0156-4.1133 6.5273-5.5156 2.582-1.5391 5.25-2.9219 7.9961-4.1445 0.27734-0.13672 0.41797-0.44922 0.33203-0.74609-0.089843-0.29688-0.37891-0.48438-0.68359-0.44531-1.3203-0.003906-2.6367 0.074218-3.9453 0.23438-1.4414 0.26953-2.8633 0.625-4.2578 1.0664-2.5977 0.80859-5.0078 2.1328-7.082 3.8906-4.2695 4.0469-7.2148 9.2891-8.4453 15.043-1.7812 5.3594-1.7031 11.16 0.21484 16.473 1.9141 5.3125 5.5625 9.8242 10.355 12.812 2.6016 1.4297 5.5781 2.0312 8.5273 1.7188 2.9531-0.3125 5.7383-1.5156 7.9844-3.457 0.32031-0.27734 0.39453-0.75 0.16797-1.1094-0.22266-0.36328-0.67578-0.51172-1.0703-0.34766z"/>
  <path d="m331.89 305.64c-3.5859-2.0352-6.9844-4.4883-10.629-6.4102l-0.003907-0.003906c-4.125-1.957-8.5-3.3398-13.004-4.1055-2.082-0.19922-3.9883-1.2617-5.2539-2.9297-1.0547-1.7695-2.5195-3.2617-4.2695-4.3477-1.125-0.70312-2.5117-0.83984-3.7539-0.375-1.2422 0.46484-2.1953 1.4805-2.582 2.75-0.10156 0.5 0.65625 0.63281 0.83984 0.19531 0.99609-2.3828 3.6602-0.875 4.6836 0.51953 0.42578 0.59375 0.82031 1.2109 1.1797 1.8438 0.16406 0.82812 0.44531 1.6523 0.64453 2.4375 0.35937 1.4219 0.68359 2.8516 0.97266 4.293 0.29688 1.4297 0.49219 2.875 0.58594 4.3281-0.078125 1.6367-0.050781 3.2734 0.085938 4.9062 0.082031 0.4375 0.75 0.68359 1.0078 0.23438 1.2578-3.0859 1.7266-6.4375 1.3633-9.75l-0.078124-1.5781h0.003906c2.3398 0.90234 4.7695 1.5547 7.2461 1.9453 3.793 0.80078 7.418 2.25 10.719 4.2812 2.6523 2.4609 6.0938 3.8945 9.707 4.043 0.5-0.09375 0.89844-0.47266 1.0117-0.96484 0.11719-0.49609-0.070313-1.0117-0.47656-1.3125z"/>
  <path d="m359.91 309.46c-1.4375-2.1328-3.793-2.0039-5.8438-3.1641-2.168-1.2227-3.8281-3.1562-6.082-4.2617-4.4922-1.8867-9.625-1.4453-13.727 1.1836-0.68359 0.40234-0.24219 1.5195 0.51562 1.1602h-0.003906c4.1953-1.7852 9.0234-1.1914 12.664 1.5547 1.6914 1.168 3.1289 2.6719 4.9297 3.6797h-0.003907c0.88281 0.50391 1.8359 0.86328 2.832 1.0703 1.0352 0.054687 2.0625 0.24609 3.0508 0.56641 0.50781 0.32812 1.1758 0.24609 1.5859-0.19531 0.41016-0.44141 0.44531-1.1133 0.082031-1.5938z"/>
  <path d="m399.04 391.29c-2.3008-4.1367-4.1797-8.625-6.0781-12.969v0.003906c-1.9141-4.4492-3.3516-9.0938-4.2812-13.848-1.0078-5.2695-1.7148-10.594-2.1211-15.945-0.23438-2.707-0.50781-5.4141-0.80078-8.1133-0.17969-1.6641-0.4375-3.3164-0.66406-4.9688v-0.003906c0.41797-0.92188 0.74609-1.8828 0.98438-2.8672 1.0664-4.3672 0.73047-8.9609-0.96484-13.125-1.5078-3.5781-4.1367-6.5703-7.4961-8.5234-1.6055-0.94531-3.3555-1.6289-5.1758-2.0234-1.8555-0.24219-3.7305-0.21484-5.5781 0.082031-0.72656 0.054687-0.67188 1.1953 0.035156 1.2578 3.0195 0.54297 5.8516 1.8438 8.2266 3.7812 2.3984 1.7773 4.3086 4.1406 5.5469 6.8594 1.2656 3.1406 1.5742 6.5859 0.88672 9.9023-0.65234 2.668-1.9844 5.125-3.8672 7.125-0.90625 1.0664 0.28906 2.4805 1.4688 2.3672 1.2461-0.11328 2.4297-0.59766 3.3984-1.3906l-0.14844 1.6211c-0.20312 2.9375-0.28125 5.8789-0.20312 8.8242h0.003906c0.125 5.6328 0.74609 11.246 1.8633 16.77 1.0039 4.9688 2.5156 9.8203 4.5195 14.477 2.0547 4.5977 5.1445 8.6562 9.0273 11.867 0.69531 0.60547 1.8633-0.35547 1.418-1.1602z"/>
  <path d="m372.09 339.39c-0.078126-0.42188-0.44922-0.71875-0.875-0.70703-0.42969 0.011718-0.78125 0.33203-0.83594 0.75781-0.64453 2.6523-2.0078 5.0781-3.9375 7.0117-1.9336 1.9336-4.3555 3.3008-7.0078 3.9492-6.1211 0.84375-12.297-1.0664-16.875-5.2148-0.58984-0.54688-1.2695 0.39062-0.89844 0.96094h0.003906c1.9141 3.3281 4.7812 6.0078 8.2344 7.6953 3.5273 1.5469 7.4688 1.8828 11.207 0.94922 7.0898-1.5273 11.848-8.2031 10.984-15.402z"/>
  <path d="m366.53 325.32c-2.5664-1.9414-5.6406-3.0977-8.8516-3.332-1.5195-0.13672-3.0508-0.097656-4.5586 0.10938-1.6328 0.40234-3.2383 0.90625-4.8047 1.5117-0.89062 0.23438-0.71484 1.6133 0.22656 1.4414 1.4688-0.10547 2.9414-0.007813 4.3789 0.28516 1.3672 0.13672 2.7227 0.35156 4.0625 0.65625 2.6602 0.70312 5.2812 1.5547 7.8477 2.5508 0.85547 0.28906 1.7969-0.085937 2.2188-0.88672 0.42578-0.80078 0.20312-1.7891-0.51953-2.3359z"/>
  <path d="m281.52 311.05c-0.30469-0.82812-0.74609-1.6016-1.3086-2.2852 0.50781-1.2344 0.69141-2.5781 0.53906-3.9023-0.058594-2.6992-0.5-5.375-1.3086-7.9531-0.09375-0.19531-0.29297-0.32031-0.51172-0.3125-0.21484 0.007813-0.40625 0.14062-0.48828 0.34375-0.58594 2.5352-0.85547 5.1289-0.80859 7.7305-0.027343 0.56641-0.097656 1.1289-0.21094 1.6836-1.7617-1.0508-3.6445-1.8906-5.6094-2.4961-0.16016-0.058594-0.33594-0.054687-0.49219 0.015625-0.15625 0.074219-0.27734 0.20312-0.33594 0.36328-0.125 0.33594 0.046875 0.70703 0.37891 0.82812 1.6406 0.95312 3.1094 2.168 4.3516 3.5977l0.18359 0.20703-1.2969 1.2578c-3.3438 2.7773-5.0703 7.0508-4.5859 11.371 0.23828 1.1875 2.1484 1.25 2.2031-0.0625-0.085938-2.4766 0.68359-4.9062 2.1797-6.8867 1.1016-1.125 2.3164-2.1367 3.6211-3.0156l0.96484 1.0742c0.48828 0.55078 1.2969 0.66797 1.9219 0.28516 0.625-0.38672 0.88281-1.1602 0.61328-1.8438z"/>
  <path d="m291.63 403.57c-6.1797-3.4844-10.457-9.5781-11.629-16.582-0.49219-2.8398-0.27344-5.7266-0.64062-8.5742-1.3906-5.6875-3.5156-11.172-6.3203-16.309-3.3359-8.2305-4.9766-17.051-4.8203-25.93 0.035156-1.4883 0.125-2.9805 0.30078-4.4609h0.003906c0.33203-1.6367 0.58203-3.293 0.74609-4.957 0.027343-0.40234-0.21094-0.77344-0.58594-0.91406-0.37891-0.14062-0.80469-0.019531-1.0469 0.30469-1.6133 2.3906-2.7109 5.0977-3.2188 7.9414-0.75 2.8711-1.1289 5.8281-1.1328 8.7969 0.15234 6.2578 1.3359 12.445 3.4922 18.32 1.0273 2.8867 2.2188 5.7109 3.5742 8.4609 1.5117 2.7227 2.6484 5.6406 3.375 8.668 0.55469 3.0625 0.24219 6.2031 0.75391 9.2695 0.45312 2.6562 1.4023 5.207 2.793 7.5156 2.8984 5.0859 7.6133 8.8867 13.199 10.633 1.2695 0.34375 2.4453-1.3828 1.1562-2.1836z"/>
  <path d="m295.61 318.36c-2.0352 0.94922-3.5391 2.6992-5.5547 3.7031-0.99219 0.5-2.0742 0.80469-3.1836 0.89453-0.60156 0.050781-1.6172 0.089844-2.0508-0.41016-0.20703-0.23828-0.21875-0.82031-0.39062-1.1211h0.003906c-0.14062-0.29688-0.45703-0.46875-0.78125-0.42578-1.3594 0.26172-1.5586 1.8125-1.1328 2.9648h-0.003906c0.85547 1.6758 2.582 2.7305 4.4648 2.7266 4.3242-0.015625 8.3125-2.3242 10.488-6.0625 0.65625-1.2227-0.36328-2.9688-1.8594-2.2695z"/>
  <path d="m304.88 384.93c-1.418-13.242-4.5664-26.215-5.3438-39.535-0.51953-7.207-0.16016-14.453 1.0742-21.57 0.19531-1.0078-1.2422-1.1758-1.6328-0.37891-2.7109 5.4922-4.2617 11.488-4.5586 17.609-0.22266 6.3398 0.17969 12.691 1.2031 18.953 2.6289 12.676 4.2188 25.547 4.7578 38.48 0.015625 2.7695-0.36719 5.5312-1.1289 8.1953-1.1172 2.5547-2.4258 5.0195-3.9102 7.3789-0.55859 1.1641 0.83594 2.0703 1.8359 1.7305 4.6992-1.6016 6.6719-8.332 7.5195-12.648v-0.003906c0.96875-6.0273 1.0273-12.164 0.18359-18.211z"/>
  <path d="m296.03 382.49c-1.0234-5.2852-2.8516-10.387-4.0938-15.617v-0.003906c-1.2539-5.4102-1.875-10.953-1.8516-16.508-0.003907-2.8359 0.1875-5.6641 0.35937-8.4922 0.33594-2.6797 0.43359-5.3867 0.28906-8.082-0.078125-0.42187-0.39453-0.75781-0.8125-0.85547-0.41406-0.097656-0.85156 0.0625-1.1055 0.40625-1.4102 2.2969-2.3594 4.8438-2.8008 7.5-0.60938 2.75-0.95703 5.5469-1.0469 8.3555-0.21484 5.6719 0.29688 11.348 1.5195 16.887 1.3398 5.3594 2.9883 10.637 4.9375 15.805 2.3359 5.0781 3.4648 10.629 3.3008 16.215-0.11719 0.82422 1.1641 0.94922 1.2812 0.12891h0.003907c0.91406-5.207 0.92188-10.531 0.019531-15.738z"/>
  <path d="m279.85 344.46c-0.14844-2.9141-0.25-5.832-0.42187-8.7461-0.089844-1.5547-0.14453-3.1133-0.27344-4.6641-0.125-1.5352-0.53906-3.0508-0.625-4.5742-0.039062-0.69141-1.2109-0.82422-1.3672-0.13672-0.32812 1.3984-0.92578 2.7188-1.2266 4.1406-0.32812 1.5508-0.52734 3.1133-0.70703 4.6836-0.33594 3.1328-0.45703 6.2891-0.35547 9.4375-0.003906 6.2305 1.0078 12.418 2.9883 18.32 0.26562 0.57031 0.875 0.89062 1.4961 0.79297 0.61719-0.097656 1.0977-0.59766 1.1758-1.2188 0.15234-6.0312-0.38281-12.02-0.68359-18.035z"/>
  <path d="m291.82 295.55c-0.44531-0.70703-0.94531-1.375-1.5-2-0.53516-0.67969-1.1992-1.2422-1.9609-1.6523-0.38281-0.13281-0.80859-0.058594-1.125 0.19922-0.3125 0.25781-0.46875 0.65625-0.41406 1.0586 0.15625 0.82031 0.48047 1.5977 0.94922 2.2852 0.44141 0.76953 0.94531 1.5039 1.5039 2.1953 0.27734 0.34375 0.67578 0.5625 1.1133 0.60938s0.875-0.082032 1.2188-0.36328c0.33984-0.27734 0.55469-0.68359 0.59375-1.1211 0.042969-0.4375-0.09375-0.875-0.37891-1.2109z"/>
  <path d="m328.17 310.94c-2.3125 0.24219-4.5078 1.1211-6.3516 2.5352-0.42578 0.34766-0.25391 1.2344 0.37109 1.2227h-0.003906c2.168-0.10156 4.3242-0.41797 6.4297-0.94141 0.75781-0.14453 1.2656-0.86328 1.1445-1.625-0.12109-0.76172-0.82422-1.2891-1.5898-1.1914z"/>
  <path d="m240.69 411.35c-1.3242-0.089843-2.6484-0.054687-3.9648 0.10547 0.17969-2.6133 0.11719-5.2383-0.17969-7.8398-0.070313-0.81641-1.2578-0.70703-1.3711 0.039062-0.37109 2.8633-1.1328 5.6602-2.2695 8.3125-1.2695 2.5039-2.75 4.8906-4.4336 7.1406-2.5742 3.8047-6.8164 10.113-4.1016 14.812h0.003906c0.25 0.51562 0.78125 0.83594 1.3555 0.82031 0.57422-0.019532 1.082-0.37109 1.3008-0.90234 1.1211-2.375 1.6445-4.9609 2.8594-7.3203 1.2773-2.4805 2.9062-4.7539 4.2383-7.2031 0.98047-1.7539 1.7266-3.625 2.2266-5.5703 1.9102 0.34375 4.0312-0.33984 5.7852 0.60547h-0.003906c0.26953 0.17969 0.61328 0.20703 0.91016 0.070313 0.29297-0.13281 0.49609-0.41016 0.53906-0.73047 0.35156-1.6914-1.5703-2.3164-2.8945-2.3398z"/>
  <path d="m237.82 439.61c-1.2695-1.1758-2.3047-2.582-3.0508-4.1445-0.75391-1.4688-2.1484-3.4258-1.8906-5.1289 0.13281-0.87109-1.2266-1.0039-1.3594-0.13672-0.50781 1.625-0.88281 3.2852-1.1172 4.9727 0.066406 2.0586 0.74609 4.0547 1.9453 5.7266 1.2578 1.6914 2.8086 3.1367 4.5859 4.2656 1.7539 1.2227 3.3906 2.6016 4.8867 4.125 0.30078 0.35547 0.76562 0.52344 1.2227 0.44922 0.45703-0.078125 0.83984-0.38672 1.0078-0.82031 1.5898-4.4297-3.5391-6.9844-6.2305-9.3086z"/>
  <path d="m256.25 414.49c-1.8398 0.16016-3.6523 0.51562-5.418 1.0508-0.77734 0.1875-1.5469 0.41797-2.2969 0.69531l-0.46094 0.21484c0.55078-1.6211 0.98047-3.2812 1.2891-4.9648 0.15625-0.69922-1.0234-0.97266-1.2266-0.28516-1.3633 3.5664-3.3047 6.8828-5.7422 9.8203-0.66406 0.91406 0.60547 2.1445 1.4727 1.375v-0.003906c1.3164-1.1406 2.4297-2.4922 3.2969-4.0039 0.67969 0.023437 1.375 0.15234 2.0469 0.125 0.91797-0.046875 1.8359-0.14453 2.7422-0.29688 1.7227-0.19922 3.4219-0.5625 5.0742-1.0859 1.5977-0.57422 0.66797-2.707-0.77734-2.6406z"/>
  <path d="m261.86 418.88c-0.10547-0.22266-0.32031-0.37891-0.56641-0.40234-0.24609-0.023438-0.48828 0.082031-0.63281 0.28125-0.63672 1.0039-1.1523 2.0742-1.5391 3.1953-0.50391 1.1211-0.83984 2.3125-0.99609 3.5352-0.03125 0.44141 0.19922 0.86328 0.58984 1.0742 0.39062 0.21094 0.87109 0.16797 1.2188-0.10547 1.9961-1.9727 2.7383-4.8906 1.9258-7.5781z"/>
 </g>
</svg>