<?xml version="1.0" encoding="UTF-8"?>
<!-- Uploaded to: ICON Repo, www.iconrepo.com, Generator: ICON Repo Mixer Tools -->
<svg fill="#000000" width="800px" height="800px" version="1.1" viewBox="144 144 512 512" xmlns="http://www.w3.org/2000/svg">
 <g>
  <path d="m417.48 419.8c-3.3242-2.3398-6.6445-4.5859-10.121-6.6914-3.3242-2.0156-6.6406-4.0234-9.875-6.1797v0.003907c-6.6094-4.4102-12.961-9.1992-19.012-14.344-2.9102-2.3398-5.5742-4.9648-7.957-7.8398-2.2188-3.2812-4.0664-6.7969-5.5078-10.484-3.9258-6.4219-8.2422-12.594-12.926-18.48-2.2969-3.7969-4.2812-7.7695-5.9414-11.883-0.95312-2.2344-1.875-4.4805-2.9141-6.6758-1.0898-2.3008-2.4141-4.4531-3.6094-6.6953-0.20703-0.38672-0.89453-0.21094-0.76563 0.25 1.1523 4.2227 2.2539 8.3359 3.7812 12.445 1.3711 3.8438 2.9688 7.6094 4.7812 11.27 1.8555 3.5078 4.0391 6.832 6.5312 9.9219 2.5312 2.9961 4.7969 6.2031 6.7695 9.5938 1.8711 3.5195 3.0625 7.3672 5.1914 10.75 2.1445 3.2344 4.7344 6.1523 7.6914 8.668 6.0352 5.3945 12.41 10.402 19.082 14.988 3.7812 2.6016 7.6484 5.0703 11.605 7.4062 3.9258 2.2969 8.082 4.168 12.402 5.5898 0.42578 0.12891 0.88281-0.070312 1.0781-0.46875 0.19922-0.39844 0.078125-0.88281-0.28516-1.1445z"/>
  <path d="m439.09 441.8c-1.5547-3.4727-4.3164-6.2656-7.7734-7.8633-1.832-1.1445-3.6055-2.3867-5.3047-3.7227-0.82031-0.63281-1.6016-1.2969-2.4023-1.9492-0.91797-0.75-1.9883-1.3164-2.8867-2.0664-0.49609-0.41797-0.99219 0.33984-0.69141 0.78516 0.59375 0.87891 1.0039 1.832 1.6758 2.6719h0.003906c0.66406 0.79688 1.375 1.5508 2.125 2.2617 1.5234 1.4805 3.1445 2.8516 4.8516 4.1094 3.2852 1.8047 6.2773 4.0898 8.8906 6.7734 0.65234 0.90625 1.8203-0.10938 1.5117-1z"/>
  <path d="m552.73 513.89c-1.9609-1.9844-4.3477-3.4883-6.9844-4.3945-2.8672-0.81641-5.8633-1.1133-8.8359-0.87891-3.4258 0.24219-6.7305 0.89844-10.18 0.83594-3.4375-0.0625-6.8828-0.32422-10.312-0.57812-13.816-1.0234-27.652-1.8086-41.414-3.457-3.7891-0.45312-7.5742-0.95312-11.348-1.4961-1.9648-0.28125-3.9609-0.6875-5.9414-0.82812h-0.003906c-0.82422-0.09375-1.6523-0.13281-2.4766-0.12109 1.6562-5.7969 2.875-11.711 3.6445-17.695 0.71875-5.1016 1.2227-10.215 1.6328-15.352v0.003906c0.53906-5.5 0.375-11.043-0.49609-16.5-0.59766-2.7695-0.89844-5.5977-0.89844-8.4297 0.10937-2.6875 0.625-5.3359 0.89844-8.0078h0.003906c0.53125-5.1562 0.12891-10.367-1.1875-15.383-1.8438-9.3242-8.1211-17.16-16.816-21.004-9.3398-3.0352-19.512-2.1641-28.199 2.4141-1.3789-1.75-2.7148-3.5352-4.0625-5.3125-3.8555-5.4453-8.5391-10.254-13.879-14.254-2.6953-1.7266-5.2461-3.6719-7.6289-5.8086-2.4609-2.3359-4.0977-5.4023-4.6719-8.7461-0.42188-3.7188-1.0703-7.4102-1.9336-11.055-1.0898-3.3086-2.4414-6.5234-4.0469-9.6133-1.8711-3.5195-3.4336-7.1953-4.6719-10.984-0.57031-1.8359-0.96484-3.7266-1.1797-5.6367 0.035156-2.1914-0.28125-4.3711-0.9375-6.4648-0.097657-0.1875-0.30859-0.29297-0.51953-0.25-0.21094 0.039063-0.36719 0.21484-0.39062 0.42578-0.65234 3.8281-0.70312 7.7344-0.14844 11.578 0.79688 3.4336 2.0273 6.7539 3.668 9.875 1.5469 3.2422 3.2188 6.4336 4.4688 9.8086h-0.003906c1.1328 3.7109 1.8281 7.5391 2.0703 11.41 0.32031 3.5234 1.5859 6.8945 3.6641 9.7578 2.1641 2.5234 4.6992 4.6992 7.5156 6.457 2.7383 1.7773 5.3398 3.7539 7.7852 5.918 2.5117 2.4609 4.832 5.1094 6.9375 7.9258 2.3438 3.0391 4.5859 6.1641 7.0312 9.1211v0.003906c2.6094 2.918 5.6641 5.3984 9.0586 7.3477 0.66797 0.42578 1.2344-0.51172 0.66406-1-2.4102-2.4297-4.625-5.0469-6.625-7.8281l-0.50391-0.61719c3.4492-0.57422 6.8359-1.7617 10.309-2.207 4.082-0.58984 8.2344-0.38672 12.238 0.59766 3.8984 0.97266 7.4375 3.0391 10.199 5.9609 3 3.4297 5.1797 7.5 6.3633 11.902 1.3945 4.7266 1.9219 9.668 1.5508 14.582-0.19531 2.4883-0.64844 4.9492-0.84766 7.4336-0.17578 2.5898-0.046874 5.1914 0.38672 7.75 0.39844 2.5078 0.95312 4.9922 1.2148 7.5234 0.23047 2.7148 0.23047 5.4453 0.007813 8.1602-0.30859 4.8555-0.71875 9.7148-1.1016 14.562-0.65234 10.777-2.7383 21.418-6.2031 31.641-2.4727 0.035156-4.9414 0.082031-7.4102 0.15234-1.9062 0.15625-3.8164 0.17188-5.7227 0.042969-1.543-0.33594-2.9336-1.1641-3.9648-2.3594-2.0664-1.8281-5.7617-3.8047-7.8555-0.94531h-0.003906c-0.16797 0.27344-0.16406 0.62109 0.015625 0.88672 0.17578 0.26953 0.49609 0.40625 0.8125 0.35547 3.0312-0.33984 4.6406 3.1133 6.8008 4.6094 2.8008 1.418 5.9844 1.8828 9.0742 1.3242 7.3164-0.25 14.633-0.33203 21.953-0.25 14.43 0.15234 28.906 0.60547 43.285 1.8906 8.2383 0.73828 16.484 1.4492 24.707 2.3438 1.2344 0.13281 1.3047-1.6797 0.12891-1.8867l-0.003906-0.003906c-26.406-4.5312-53.18-6.6016-79.973-6.1836 1.1523-2.4336 2.1523-4.9375 3.0039-7.4922 0.58984 0.25 1.1914 0.46875 1.8047 0.65234 1.6055 0.48047 3.2383 0.85156 4.8945 1.0977 3.2852 0.61328 6.5938 1.0898 9.9062 1.5391 6.7148 0.90625 13.473 1.5469 20.23 2.0742 6.7656 0.52734 13.543 0.98438 20.324 1.2305v0.003906c6.707 0.58984 13.453 0.69141 20.176 0.30078 3.4766-0.74219 7.0352-1.0469 10.586-0.90625 1.5781 0.27344 3.1289 0.6875 4.6289 1.2422 1.7305 0.48438 3.3867 1.1953 4.9336 2.1055 0.55859 0.35937 1.3398-0.4375 0.80469-0.91797z"/>
  <path d="m452.28 427.38c-1.8906-1.4844-3.9805-2.5977-5.9961-3.8945-1.5195-0.98047-2.9531-2.1797-4.5508-3.043 1.2812-0.28906 2.4297-0.75781 3.7227-1.1719 0.25391-0.0625 0.41797-0.31641 0.36719-0.57422-0.046874-0.26172-0.29297-0.4375-0.55469-0.40234-1.4844 0.074219-2.9766 0.039063-4.457-0.10547-1.3789-0.066406-2.7695-0.125-4.1445-0.26172-2.8164-0.35938-5.6016-0.91797-8.3398-1.6641-0.21484-0.054687-0.44531-0.027344-0.64453 0.074219-0.48047-0.12891-0.96875-0.22266-1.4609-0.28906-0.20312-0.007812-0.39453 0.10156-0.48438 0.28516-0.09375 0.18359-0.066406 0.40234 0.0625 0.5625 1.7852 1.543 3.8359 2.7461 6.0508 3.5508 2.3359 0.87891 4.7148 1.6289 7.1328 2.2383 2.1875 1.082 4.2539 2.3945 6.1602 3.918 1.9766 1.2969 4.1797 2.2031 6.4922 2.6758 1.1133 0.20312 1.3672-1.332 0.64453-1.8984z"/>
  <path d="m444.41 441.55c-0.70703-2.1797-1.9219-4.1641-3.5391-5.7852l-2.2109-2.5664c-0.71094-0.80469-2.2344-1.9414-2.3164-3.0977l-0.003906 0.003906c-0.042969-0.21484-0.22656-0.375-0.44531-0.39062-0.21875-0.011719-0.42188 0.11719-0.49609 0.32422-0.48438 2.3281 1.168 4.207 2.3516 6.1016h0.003906c1.207 2.5039 2.9922 4.6914 5.2031 6.375 0.32031 0.19922 0.72656 0.19531 1.0391-0.011719 0.3125-0.21094 0.47656-0.58203 0.41406-0.95312z"/>
  <path d="m448.3 439.23c-0.69922-2.7695-2.0625-5.3281-3.9688-7.457-0.87891-1.0703-1.8711-2.0391-2.9609-2.8945-1.1953-0.96875-2.582-1.5195-3.793-2.4336-0.4375-0.33203-0.89062 0.37109-0.46875 0.70703v-0.003906c1.0039 0.96484 1.8984 2.0352 2.6719 3.1914 0.85156 1.0586 1.6641 2.1523 2.4922 3.2266 1.6055 2.0703 2.8359 4.375 4.4727 6.4219 0.27344 0.28516 0.69922 0.36328 1.0547 0.19141 0.35937-0.17188 0.55859-0.55859 0.5-0.94922z"/>
  <path d="m396.64 413.94c-2.6719 0.67578-5.3477 1.2148-7.9766 2.0664-2.6211 0.875-5.1914 1.8906-7.7031 3.043-5.082 2.2773-10.051 4.7773-14.914 7.4961-2.9023 1.625-5.7422 3.3438-8.5117 5.1523h0.003906c-1.6758-2.9219-2.7852-6.1367-3.2656-9.4688-0.95703-3.7422-0.83203-7.6758 0.36328-11.344 0.80859-2.4688 1.7617-4.8828 2.4453-7.3789 0.6875 1.3711 1.4492 2.7031 2.2891 3.9883 0.50781 0.82422 2.0508 0.52344 1.7539-0.57813-0.63281-2.3516-1.168-4.8086-1.5703-7.2148-0.41016-2.4453 0.125-4.918-0.15234-7.3789l-0.1875-1.1211v0.003906c0.18359-0.14453 0.26953-0.38281 0.22656-0.61719-0.42969-2.3711-1.0391-4.7031-1.8281-6.9805-0.69531-2.3086-1.625-4.5352-2.7773-6.6484-2.6484-4.1992-5.7383-8.1016-9.2227-11.641-3.4414-3.6445-6.1992-7.8828-8.1367-12.508-2.2383-4.8203-4.0352-9.832-5.3633-14.973-1.3086-6.3516-1.2188-12.91 0.26562-19.227 0.13672-0.57422-0.74219-0.87891-0.87891-0.29688v0.003906c-1.6875 5.3125-2.6445 10.828-2.8438 16.402 0.43359 5.457 1.7773 10.805 3.9727 15.824 1.6602 4.8945 4.0547 9.5156 7.0977 13.695 3.2148 4.1055 7.1445 7.5312 10.137 11.832 1.4961 2.1523 2.9141 4.3477 4.2188 6.6055 0.89062 3.2383 1.5898 6.5234 2.0938 9.8438 0.003907 0.30469 0 0.60938-0.011719 0.91016-0.082031 2.9414-0.64844 5.8516-1.6758 8.6133-1.6562 3.457-3.0352 7.0391-4.125 10.715-0.6875 4.1406-0.40234 8.3867 0.82812 12.398l0.30078 1.2109-0.5 0.4375h0.003906c-2.3047 2.8125-4.7539 5.5-7.3438 8.0508-0.63281 0.63281-6.1523 5.168-4.8359 5.9766 1.1133 0.68359 2.5312-0.58594 3.4453-1.1602l-0.003907-0.003906c1.4766-0.94922 2.8945-1.9883 4.2422-3.1172 2.332-1.9688 4.4727-4.1523 6.3945-6.5234l0.054688 0.10156c0.64453 1.1836 1.6523 2.1328 2.875 2.707-5.8867 3.957-11.43 8.4102-16.562 13.305-0.375 0.35547 0.050781 1.125 0.53125 0.80469 9.0938-5.9609 18.371-11.738 27.902-16.977 4.7227-2.5977 9.5391-5.0117 14.453-7.2461 2.5352-1.1523 5.0898-2.2305 7.5938-3.4453 2.4961-1.2109 4.9023-2.5977 7.418-3.7695 0.83594-0.39062 0.41016-1.8047-0.51953-1.5703z"/>
  <path d="m335.75 447.44c-6.2617 1.3633-12.746 0.99219-19.051 2.0625h-0.003906c-5.7578 1.0547-11.254 3.2148-16.191 6.3594-9.75 6.8359-18.723 14.719-26.758 23.508-2.3828 2.3281-4.8203 4.6172-7.3438 6.7969-1.3086 1.1328-2.6523 2.2461-4.0312 3.293-1.375 1.2266-2.8203 2.375-4.3242 3.4414-0.48828 0.28906-0.14062 1.0586 0.38672 0.80469 1.3633-0.65625 2.8359-0.92969 4.168-1.6523 1.2617-0.68359 2.5039-1.4297 3.707-2.2148h0.003906c2.5117-1.6445 4.9219-3.4414 7.2148-5.375 4.6133-3.8867 8.8203-8.2109 13.156-12.395 7.7969-8.668 17.82-15.027 28.984-18.391 7.0664-0.53906 14.047-1.9062 20.793-4.082 0.49609-0.26172 0.73047-0.84375 0.55469-1.375-0.17578-0.53516-0.71094-0.86328-1.2656-0.78125z"/>
  <path d="m255.69 493.74c-1.7539-3.4258-6.4102-2.8516-9.3555-1.4375h0.003906c-1.8516 0.74219-3.3945 2.0938-4.3789 3.8281-0.82813 1.7617-0.46094 3.6914-1.6953 5.3047-1.3711 1.5586-2.9258 2.9453-4.6289 4.1328-1.7461 1.4062-3.5273 2.8164-5.1602 4.3516-2.8516 2.3281-4.7344 5.6289-5.2891 9.2656-0.058594 0.57422 0.85156 0.89453 1.0234 0.28125v0.003906c1.2422-3.043 3.4375-5.5977 6.2578-7.2852 3.1016-2.1797 6.0898-4.5195 8.9492-7.0078 1.1953-1.0273 2.1484-2.3047 2.8008-3.7383 0.58594-1.4297 0.28906-3.3203 1.3945-4.4766v0.003906c1.1172-1.0742 2.5156-1.8047 4.0312-2.1133 1.4531-0.23047 2.9375-0.007812 4.2578 0.63672 1 0.37109 2.3555-0.64453 1.7891-1.75z"/>
  <path d="m334.7 441.13c-6.3086 1.1289-12.773 0.51172-19.117 1.3438v-0.003906c-5.793 0.83984-11.371 2.7891-16.422 5.75-10 6.4648-19.262 14.004-27.625 22.484-2.4688 2.2383-4.9883 4.4336-7.5938 6.5156-1.3555 1.082-2.7344 2.1445-4.1523 3.1367-1.418 1.1758-2.9062 2.2695-4.4492 3.2773-0.5 0.26953-0.17969 1.0547 0.35547 0.82031 1.3867-0.60547 2.8711-0.82422 4.2266-1.4922 1.2891-0.63672 2.5586-1.3359 3.7852-2.0742h0.007813c2.5703-1.5508 5.043-3.2539 7.4102-5.1055 4.7539-3.7109 9.125-7.8711 13.613-11.891v0.003907c8.1172-8.3711 18.375-14.348 29.652-17.285 7.0859-0.27344 14.109-1.3789 20.934-3.2969 0.51172-0.24219 0.77344-0.81641 0.61719-1.3594s-0.68359-0.89062-1.2422-0.82422z"/>
  <path d="m252.62 485.1c-1.6211-3.4883-6.2969-3.0898-9.293-1.7891-1.8789 0.67578-3.4688 1.9648-4.5156 3.6641-0.89453 1.7305-0.59766 3.6719-1.8945 5.2383-1.4336 1.5039-3.0391 2.832-4.7812 3.9531-1.8008 1.3398-3.6289 2.6836-5.3203 4.1562-2.9375 2.2188-4.9453 5.4453-5.6367 9.0586-0.082032 0.57031 0.81641 0.92578 1.0117 0.32031v0.003906c1.3555-2.9922 3.6445-5.4648 6.5273-7.0469 3.1836-2.0625 6.2539-4.2852 9.207-6.6641 1.2344-0.98438 2.2383-2.2188 2.9414-3.6289 0.63672-1.4062 0.41406-3.3047 1.5625-4.418 1.1562-1.0312 2.582-1.7109 4.1094-1.9609 1.457-0.17578 2.9375 0.10156 4.2305 0.79688 0.98047 0.40625 2.375-0.55859 1.8516-1.6836z"/>
  <path d="m409.66 532.52c-2.75 3.2656-7.4727 2.7188-11.258 2.2383-4.5781-0.58203-9.168-1.0703-13.766-1.4609-9.2891-0.80469-18.605-1.2266-27.926-1.4883-18.469-0.51953-36.953-0.37109-55.426-0.8125-2.3789-0.058594-4.75-0.11328-7.1289-0.24609-2.543-0.14453-4.9922-0.75-7.5156-0.99219-3.5508-0.33984-8.5156 0.65625-9.1797 4.8086v-0.003906c-0.019532 0.41016 0.20312 0.78906 0.57031 0.96875 0.36328 0.18359 0.80469 0.13281 1.1172-0.12891 1.0586-1.2109 2.5391-1.9688 4.1406-2.1172 2.3164 0.12109 4.6094 0.54297 6.8164 1.2539 4.3516 0.75781 8.7617 1.1055 13.176 1.0312 9.2422 0.16016 18.484 0.18359 27.727 0.22266 18.465 0.085937 36.941 0.28125 55.355 1.7734 2.6836 0.21875 5.3594 0.46484 8.0391 0.74219 2.4453 0.25781 4.9023 0.66797 7.3555 0.75391v0.007813c2.3086 0.27734 4.6367-0.30859 6.5312-1.6523 1.5273-0.99609 2.4805-2.6719 2.5547-4.4961 0.011719-0.28906-0.16797-0.54688-0.44141-0.64062-0.27344-0.09375-0.57422 0.003906-0.74219 0.23828z"/>
  <path d="m431.97 447.41c-3.4844-0.19141-6.9727 0.1875-10.336 1.1211-3.5 0.76172-6.9609 1.6953-10.391 2.7188-1.9727 0.58984-3.9336 1.2188-5.8906 1.8633l-0.41016 0.14062c-4.6719 1.5508-9.3047 3.2148-13.965 4.7969l0.003906 0.003906c-6.6055 2.3203-13.355 4.1992-20.211 5.6133-7.3398 1.1094-14.734 1.8281-22.152 2.1523-14.121 1.3047-27.879 5.207-40.582 11.504-11.707 5.7266-22.664 12.828-33.906 19.383-6.2539 3.6484-12.621 7.0273-19.07 10.316v0.003907c-6.4688 3.5078-13.293 6.3203-20.359 8.3867-0.1875 0.042969-0.30859 0.22656-0.27344 0.41797 0.035156 0.19141 0.21875 0.31641 0.40625 0.28906 6.2812-1.1953 12.457-2.8672 18.48-5.0039 6.0703-2.3086 11.938-5.1172 17.543-8.3945 11.293-6.3086 22.203-13.289 33.738-19.168h0.003906c12.273-6.5039 25.559-10.891 39.289-12.98 6.2461-0.85937 12.562-0.97266 18.832-1.5898 0.27344 0.9375 0.66406 1.8398 1.1641 2.6797 1.3086 2.3984 2.7031 4.7578 4.0508 7.1367 2.3867 4.2031 4.8047 8.3906 7.5898 12.344l0.003906-0.003906c-0.20703 0.13281-0.37109 0.32031-0.47656 0.54297-0.41797 1.3867-0.61719 2.832-0.58984 4.2812-0.11328 1.5859-0.48438 3.1406-1.0977 4.6016-0.29688 0.64062 0.75 1.1484 1.1133 0.54297v0.003906c1.543-2.1328 2.5898-4.5859 3.0703-7.1719 3.2031 4 5.8828 8.3906 7.9727 13.07l-0.51953-0.10937c-1.2305-0.11719-2.4727-0.097657-3.6992 0.058593-2.1914 0.21094-4.3633 0.59375-6.4922 1.1562-3.1016 0.79688-6.1289 1.8203-9.168 2.8242l-0.10938-0.35156-0.003906-0.003907c-0.67969-1.168-1.4609-2.2773-2.3281-3.3125-0.60547-1.0352-0.97656-2.1875-1.0938-3.375-0.50781-2.5078 0.13672-5.1094 1.7617-7.0859 0.32812-0.31641 0.35547-0.83203 0.054687-1.1758s-0.81641-0.39062-1.1719-0.10547c-2.5352 1.8555-4.1641 4.6953-4.4844 7.8164-0.09375 1.6445 0.20312 3.2891 0.86719 4.7969 0.65625 1.5312 1.9453 2.5938 2.6992 4.0195l-0.13672 0.042969c-1.2461 0.38281-2.4961 0.71875-3.75 1.0156l0.007812 0.003906c-0.12891-0.34375-0.34766-0.64062-0.63672-0.86328-2.6367-2.1016-2.168-6.3906-2.2969-9.3594 0.015624-0.42969-0.28125-0.80859-0.70703-0.89453-0.42188-0.082031-0.84375 0.15234-0.99219 0.55469-1.9141 3.6172-1.7266 7.9805 0.48828 11.422-4.4453 0.78906-8.9375 1.2109-13.453 1.5664 0.074219-0.52734 0.17969-1.0625 0.19531-1.4883 0.046874-0.87109 0.14844-1.7344 0.30859-2.5938 0.27734-1.5938 0.76562-3.1406 1.4609-4.6016 1.5273-3.1758 3.875-5.8828 6.8047-7.8438 3.1016-1.9883 6.5547-3.375 10.172-4.0859 1.8242-0.40234 3.6641-0.71875 5.5156-0.97656 1.875-0.39453 3.8164-0.33203 5.6641 0.1875 1.1445 0.41406 1.7812-1.1406 0.89453-1.8281-3.8555-2.0781-8.3711-2.5625-12.578-1.3438-4.4375 0.72266-8.6562 2.418-12.359 4.9609-3.4727 2.4023-6.1523 5.7891-7.6914 9.7227-0.76953 1.9141-1.1719 3.957-1.1875 6.0195 0.003906 1 0.11719 1.9961 0.33203 2.9727 0.097656 0.37109 0.25 0.72656 0.44531 1.0586l-2.8828 0.21875c0.85938-1.3047 1.2578-2.8555 1.1367-4.4141-0.14453-2.4688-1.2461-4.7852-3.0703-6.457-4.0977-3.2734-9.9531-3.1211-13.871 0.35938-0.14063 0.13281-0.17969 0.34375-0.097657 0.51953 0.085938 0.17578 0.27734 0.27344 0.46875 0.24609 3.7773-0.36328 7.7266-1.7578 10.953 1.1172 1.2344 1.0664 2.0117 2.5625 2.1797 4.1797 0.13672 1.5898-0.078125 3.1914-0.62891 4.6875-1.9297 0.16797-3.8633 0.375-5.7656 0.71875-1.0078-3.5195-3.6602-6.3242-7.1172-7.5273-2.3242-0.31641-4.6875 0.015625-6.832 0.96484-2.1602 0.76953-4.207 1.8281-6.0781 3.1523-1.625 1.5703-3.3906 2.9961-5.2695 4.25-2.2773 0.61328-4.6328 0.89062-6.9883 0.82422-2.5195 0.26953-5.0039 0.80469-7.4141 1.5898-1.125 0.35156-2.2148 0.80078-3.2656 1.3438-1.1328 0.61328-2.0586 1.3594-3.1172 2.0625-0.47656 0.3125-0.03125 1.0586 0.46484 0.95703 2.293-0.46094 4.6758-0.68359 6.9883-1.1133 2.168-0.39844 4.332-0.74609 6.5234-0.95703 2.2383-0.027344 4.4688-0.18359 6.6875-0.47266 1.9961-0.53516 3.8125-1.6094 5.2383-3.1094 2.8594-2.8711 6.5586-4.75 10.559-5.3672 1.75-0.10156 3.3984 0.80469 4.25 2.332 0.51172 0.67578 0.99609 1.3281 1.5039 1.9531-1.375 0.37891-2.6641 1.0117-3.8047 1.8711-0.31641 0.28906-0.42969 0.73438-0.29297 1.1406s0.49609 0.69141 0.92188 0.73438c2.8672 0.23828 5.7539 0.085938 8.582-0.44922 2.9297-0.31641 5.8594-0.57422 8.7969-0.77734 5.8867-0.25781 11.75-0.84375 17.57-1.7578 5.6328-1.2578 11.184-2.8672 16.617-4.8125 2.7031-0.875 5.457-1.5938 8.2461-2.1406 1.375-0.25781 2.7656-0.43359 4.1602-0.5625v-0.003906c0.98438-0.13672 1.9609-0.33594 2.9219-0.60156 0.46484 2.0273 0.60938 4.1172 0.42578 6.1914-0.046875 0.52734 0.78125 0.87891 1.0391 0.35156 4.6133-9.4141-2.0352-18.656-7.4648-26-3.0234-4.1875-5.8047-8.543-8.332-13.047l-4.1094-7.1094c-0.46484-0.80078-0.92188-1.6172-1.4336-2.3945h0.003906c6.875-1.0664 13.652-2.6914 20.262-4.8594 5.7578-1.8047 11.469-3.7617 17.211-5.6211 0.058593 1.0391 0.16406 2.0742 0.25 3.0625 0.23047 2.5391 0.54297 5.0664 0.93359 7.5859 0.76562 4.9492 1.6641 9.875 2.5469 14.801v-0.003906c1.957 9.7734 3.2891 19.656 3.9922 29.598-0.14844 5.5 0.14844 11.004 0.88672 16.457 0.0625 0.29297 0.3125 0.50781 0.60938 0.52734 0.29687 0.019531 0.57422-0.16016 0.67578-0.44141 1.7305-4.6602 2.3672-9.6562 1.8516-14.602-0.17578-5.0195-0.64453-10.027-1.3203-15-0.70703-5.1914-1.5938-10.355-2.5352-15.512h-0.003906c0.18359-3.3086 1.9727-6.3242 4.7891-8.0703 1.7695-0.97266 3.6797-1.6641 5.6641-2.043 2.4492-0.75781 4.9805-1.2383 7.5391-1.4258 0.60547 0.011719 0.67188-0.92969 0.066406-0.94141l-0.003906 0.003906c-1.4961-0.16797-2.9883-0.41406-4.4609-0.74609-1.5195-0.19922-3.0625-0.19531-4.5859 0.007813-2.5625 0.35156-5.0039 1.3125-7.1172 2.8047-1.2617 0.89453-2.3477 2.0078-3.207 3.293-0.44531-2.3906-0.88672-4.7812-1.3164-7.1758-0.5-2.7812-0.95703-5.5703-1.4688-8.3516-0.28516-1.543-0.5-3.1758-0.82812-4.7734l2.3828-0.74609c2.3828-0.73438 4.7773-1.4414 7.1836-2.0898 1.0938 2.1914 2.0938 4.4023 3.0391 6.6641 0.47656 1.1406 0.91016 2.2891 1.3516 3.4453l0.003906-0.003906c0.62891 1.1914 1.1445 2.4375 1.543 3.7227 0.085937 0.51562 0.83594 0.35156 0.78516-0.15234-0.14453-1.4453 0.26953-2.9023 0.12891-4.3828v0.003906c-0.125-1.2422-0.33594-2.4688-0.63672-3.6797-0.5625-2.2773-1.3984-4.4805-2.4883-6.5625l0.46094-0.10938h0.003906c3.9258-0.68359 7.8125-1.5625 11.648-2.6367 1.6758-0.57031 0.88672-2.9766-0.60156-3.1406z"/>
  <path d="m543.07 530.38c-17.051-2.6328-34.32-3.5312-51.551-2.6797-8.4844 0.26953-16.957 0.80078-25.414 1.5938-8.1562 0.76953-16.273 1.9336-24.426 2.7188v0.003907c-4.5234 0.47266-9.0664 0.68359-13.609 0.62891-2.1523-0.042969-4.2852-0.25-6.4336-0.35938-2.3164-0.11719-4.6055-0.10156-6.9219-0.35156-0.48438-0.050782-0.53906 0.59766-0.15625 0.77734 1.7773 0.84375 3.6055 1.582 5.4766 2.2031 2.0195 0.57031 4.0938 0.92188 6.1875 1.0547 3.9492 0.35547 7.9219 0.40234 11.879 0.14453 8.0703-0.46094 16.07-1.6953 24.105-2.543 17.168-1.793 34.434-2.5039 51.695-2.125 9.6836 0.20312 19.355 0.64062 29.039 0.85156h-0.003906c0.50781 0.003906 0.92969-0.39062 0.96484-0.89844 0.035156-0.50391-0.32812-0.95312-0.83203-1.0195z"/>
  <path d="m356.59 307.62c-1.3242-0.37109-2.7344-0.30078-4.0156 0.20312-3.168 0.97266-6.0312 2.7461-8.3125 5.1484-0.16016 0.14453-0.1875 0.38281-0.070313 0.56641 0.11719 0.17969 0.35156 0.24609 0.54688 0.16016 2.3164-1.0195 4.7422-1.7695 7.2305-2.2305 0.97266-0.24609 1.9805-0.33203 2.9844-0.25781 0.77734 0.25781 1.5859 0.40234 2.4062 0.42969 0.50781-0.09375 0.92578-0.45703 1.0859-0.94922 0.33203-1.3594-0.5-2.7305-1.8555-3.0703z"/>
  <path d="m389.61 310.27c-1.6445-0.74219-3.4961-0.92188-5.207-1.5234-1.8164-0.625-3.5312-1.5078-5.0977-2.625-1.3438-1.0234-2.5938-2.168-3.7383-3.4102-1.3125-1.1992-2.3281-2.6875-2.9648-4.3438-0.14453-0.50781-0.94531-0.36719-0.81641 0.15625v-0.003906c0.32813 1.8438 0.84766 3.6445 1.5586 5.375-1.2109 1.3125-2.0195 2.9453-2.3242 4.7031-0.20313 1.8438-0.17188 3.707 0.10156 5.543 0.035156 0.49219 0.89453 0.44531 0.87109-0.050781 0.23828-2.7969 1.3203-5.457 3.1055-7.6211 0.70313 0.77344 1.4805 1.4805 2.3164 2.1094 1.6836 1.2617 3.543 2.2734 5.5156 3 2.043 0.92188 4.2812 1.3164 6.5156 1.1484 1.3555-0.21875 1.2344-1.9727 0.16406-2.457z"/>
  <path d="m416.05 398.88c-0.82031-2.0625-1.5195-4.1758-2.0938-6.3203-0.79688-1.8242-1.793-3.5547-2.9688-5.1602-2.4258-3.3125-5.125-6.4141-8.0703-9.2734-3.082-2.9609-5.7383-6.3398-7.8867-10.039-1.1328-2.1445-2.1484-4.3516-3.0352-6.6133-0.51562-1.2656-1.0703-2.5547-1.582-3.8555-0.078125-1.4883-0.17969-2.9766-0.27734-4.4648 0.007813-1.8711-0.28125-3.7305-0.85156-5.5117 0.66406-1.4531 0.95313-3.0469 0.84375-4.6406-0.74219-3.6875-1.8906-7.2852-3.4258-10.723-0.73828-3.8789-1.6719-7.7188-2.7969-11.504-1.0195-2.5391-3.1484-6.5625-6.0234-7.3398-0.33594-0.089844-0.73828 0.25781-0.53516 0.60547 0.73047 1.2695 1.7852 2.2812 2.4492 3.6172h0.003907c0.625 1.3594 1.0703 2.7969 1.3242 4.2734 0.69922 3.3906 0.99219 6.8594 1.8398 10.223 0.79688 3.1641 2.4883 5.9609 3.375 9.0742 0.90234 3.0273 0.22656 6.3008-1.793 8.7266-0.21094 0.18359-0.34375 0.44531-0.36328 0.72656-0.015625 0.28125 0.074219 0.55469 0.26172 0.76953 0.38281 0.4375 1.0508 0.48438 1.4922 0.10156l0.82031-0.63281c0.035156 0.9375 0.13281 1.8867 0.20703 2.8359 0.18359 2.4219 0.35547 4.8398 0.65625 7.2539l-0.003906-0.003907c0.18359 4.5703 1.0625 9.082 2.6016 13.387 0.23828 0.52344 0.98438 0.14062 0.79297-0.37891l-0.003906-0.003906c-0.51172-2.3242-0.64844-4.7188-0.40625-7.0859l-0.015625-1.6055c0.38672 1.25 0.83984 2.4766 1.3594 3.6758 1.8828 3.957 4.4531 7.5508 7.5938 10.605 2.8867 3.0078 6.125 5.7656 8.8203 8.9453 1.3164 1.5586 2.4375 3.2695 3.3438 5.0938 0.85547 2.1055 1.9414 4.1094 3.2344 5.9766 0.46875 0.58203 1.4844-0.066407 1.1133-0.73438z"/>
  <path d="m384.42 409.29c-1.4297-2.375-3.3633-4.4062-5.6719-5.9492-1.0586-0.73828-2.207-1.3477-3.4141-1.8047-0.64844-0.25391-1.3086-0.46875-1.9805-0.64844-0.78125-0.20312-1.6133-0.027344-2.375-0.26172v-0.003906c-0.23828-0.078125-0.5 0.050781-0.57812 0.28906-0.082032 0.23828 0.046874 0.49609 0.28516 0.57422 0.63672 0.34766 1.2227 0.77344 1.7539 1.2695l1.5469 1.0156c0.95703 0.67187 1.8945 1.3672 2.832 2.0664v-0.003906c1.9062 1.5117 3.6914 3.1641 5.3398 4.9453 1.0195 1.0312 3.082-0.082031 2.2617-1.4883z"/>
  <path d="m414.1 279.13c-0.25781-5.0859-2.9336-9.7461-7.2031-12.527-2.4023-1.4531-4.9805-2.5859-7.668-3.3789-2.7891-0.99219-5.6641-1.7148-8.5898-2.1523-5.043-0.71875-10.168 0.61719-14.219 3.7148-2.1211 1.6328-3.957 3.6094-5.4336 5.8438-1.5508 2.1797-2.7617 4.582-3.5938 7.1211-0.12891 0.46875 0.45703 0.88672 0.77344 0.4375 1.1484-1.6484 2.0859-3.418 3.3711-4.9688 1.3125-1.5664 2.7695-3.0039 4.3477-4.2969 3.1016-2.6719 6.9961-4.2461 11.082-4.4688 5 0.17969 9.9102 1.3555 14.445 3.4648 4.1445 1.4688 7.4062 4.7344 8.8711 8.8828 0.41797 1.2188 0.66016 2.4883 0.72266 3.7734-1.5859-1.2188-3.3398-2.2031-5.2109-2.9141-2.0742-0.63281-4.3125-0.375-6.1914 0.70703-1.7305 0.98828-3.1719 2.418-4.1719 4.1445-0.70703 1.1094-1.1445 1.2344-2.4414 1.2383-1.3594 0.11719-2.7227 0.015625-4.0469-0.30078-0.26562-0.089844-0.55469 0.046875-0.65625 0.30859-0.10156 0.26172 0.019532 0.55859 0.27734 0.67188 1.8086 1.2305 3.8984 1.9844 6.0742 2.1875 2.0703-0.16797 2.8828-1.9531 4.0312-3.4219 1.2695-1.7227 3.3086-2.707 5.4492-2.625 2.2227 0.33203 4.1641 2.2852 6.2422 3.0938l0.44922 0.09375c-0.43359 2.6562-1.6445 5.125-3.4727 7.1016-0.64453 0.67969 0.15625 1.8516 0.92188 1.2031v-0.003906c3.8516-3.168 6.0078-7.9453 5.8398-12.93z"/>
  <path d="m362.53 288.59c-1.1367 1.2344-2.3945 2.3672-3.4883 3.6367v0.003906c-1.0977 1.3633-2.2734 2.6641-3.5156 3.8984-2.4648 2.2344-5.1992 4.1445-8.1367 5.6953-2.8125 1.3164-5.4844 2.9102-7.9766 4.7539-2.1875 2.0352-3.9922 4.4531-5.3203 7.1289-0.25781 0.46094 0.41016 0.92187 0.69141 0.45703l0.003906 0.003906c1.9414-2.457 4.4922-4.3555 7.4023-5.5117 2.7422-1.543 5.5586-2.9492 8.2891-4.5078v-0.003906c2.7578-1.4297 5.1953-3.4102 7.168-5.8125 2.168-2.8203 4.0117-5.8281 5.9727-8.7891 0.43359-0.66016-0.51563-1.5742-1.0898-0.95312z"/>
  <path d="m384.71 281.08c-0.82812-1.2227-2.1211-2.0586-3.5781-2.3086-0.88281-0.074219-1.7695 0.085937-2.5703 0.46484-1.4805 0.14844-2.9375 0.46875-4.3398 0.95703-1.3555 0.44922-2.6445 1.0625-4.0078 1.5078-1.582 0.80469-3.3164 1.2695-5.0898 1.3711-0.11328-0.007813-0.22656 0.027343-0.3125 0.10156-0.085938 0.078125-0.13672 0.18359-0.14453 0.29688-0.019531 0.23828 0.16016 0.44531 0.39844 0.46094 1.4375 0.15234 2.8242 0.71484 4.2695 0.77734 1.4102-0.023438 2.7969-0.33984 4.0742-0.92188 0.82422-0.34375 1.6172-0.75 2.375-1.2188-0.30859 1.0742-0.45312 2.1875-0.42969 3.3047-0.039062 2.2695 0.20703 4.5391 0.72266 6.75 0.32422 1.3164 2.5039 1.3555 2.4961-0.15234-0.20703-2.6836-0.23828-5.3789-0.10156-8.0703 0.066406-1.1211 0.62109-2.1602 1.5156-2.8398 1.2188-0.89062 2.8867-0.85547 4.0703 0.082031 0.38672 0.40234 1.0312-0.14844 0.65234-0.5625z"/>
  <path d="m404.56 272.88c-2.3203-0.90625-4.4102-2.4102-6.7344-3.3672h0.003906c-2.3203-1.0195-4.8164-1.5859-7.3477-1.668-2.5078 0.007813-4.9961 0.4375-7.3633 1.2695-2.4492 0.92578-4.793 2.1055-6.9961 3.5195-0.91406 0.53125-0.54688 2.168 0.61719 1.875 2.2578-0.57031 4.543-1.0312 6.8008-1.6016 2.2656-0.625 4.5938-1.0117 6.9414-1.1484 2.2773-0.058594 4.5586 0.085937 6.8086 0.44531 2.375 0.25781 4.7148 0.76953 6.9844 1.5234 0.53516 0.21094 0.82422-0.63672 0.28516-0.84766z"/>
  <path d="m403.31 295.13c-0.875-0.21094-1.6953-0.59375-2.418-1.125-0.62109-0.54687-1.3711-0.92969-2.1758-1.1133-0.21094-0.011719-0.41016 0.070313-0.54688 0.22656s-0.19922 0.36719-0.16016 0.57031c0.36328 0.92969 1.1602 1.6211 2.1328 1.8516 1.0117 0.28906 2.0547 0.45312 3.1094 0.48438 0.57422 0.066406 0.625-0.8125 0.058594-0.89453z"/>
  <path d="m405.02 290.15c-0.88672-1.0586-2.1523-1.7266-3.5273-1.8672-1.6992-0.042969-3.3906 0.23438-4.9883 0.81641-0.19531 0.046875-0.32031 0.23828-0.28125 0.4375 0.039063 0.19531 0.22266 0.32812 0.42188 0.30078 1.6641-0.22656 3.3594 0 4.9023 0.66016 0.99609 0.51562 1.4492 1.7695 2.6484 1.8086v0.003906c0.42578 0.011718 0.8125-0.24609 0.96094-0.64453l0.11328-0.24609h0.003906c0.14844-0.4375 0.054687-0.92188-0.25391-1.2695z"/>
  <path d="m401.05 298.14c-1.1719 1.8242-1.4727 4.0742-0.82031 6.1445 0.12109 0.23828 0.375 0.38281 0.64063 0.36719 0.26562-0.019532 0.5-0.19141 0.58984-0.44141 0.15234-0.92188 0.22266-1.8555 0.21094-2.7891l0.19531-3.0039h0.003907c0.007812-0.20312-0.11719-0.38281-0.30859-0.44922-0.1875-0.0625-0.39844 0.007812-0.51172 0.17188z"/>
  <path d="m394.83 305.14c-0.72266-0.70703-1.5977-1.2422-2.5586-1.5586-0.98047-0.45312-1.8711-1.0781-2.625-1.8477-0.40234-0.46094-1.0273 0.12891-0.69922 0.60938 0.63672 1.0547 1.3984 2.0273 2.2695 2.9023 0.78906 0.88281 1.9375 1.3672 3.1211 1.3164 0.30078-0.066406 0.54687-0.28125 0.64453-0.57422 0.10156-0.28906 0.042969-0.60938-0.15234-0.84766z"/>
  <path d="m578.78 530.16c-1.8008-6.9062-9.4336-9.6328-15.254-12.207v0.003907c-1.6992-0.89063-3.5195-1.5352-5.3984-1.9141-2.0508-0.13281-4.1094 0.015625-6.1211 0.44141-1.9844 0.27734-3.9688 0.53906-5.9336 0.91016-2.0664 0.17969-4.0781 0.74609-5.9297 1.6719-0.19141 0.10156-0.30469 0.30078-0.29297 0.51563 0.011719 0.21484 0.15234 0.40234 0.35156 0.48047 1.5234 0.51562 3.1367 0.72656 4.7422 0.625 1.8867 0.03125 3.7617 0.015625 5.6445-0.039062 1.7578-0.050782 3.5273-0.17969 5.2852-0.13281 1.8242 0.17578 3.5938 0.71875 5.1992 1.5977 5.75 1.918 11.031 5.0273 15.504 9.1211 0.79688 0.89844 2.5352 0.1875 2.2031-1.0742z"/>
  <path d="m568.27 531.32c-1.5547-2.3164-6.4805-1.1406-8.7891-0.94922-1.582 0.13281-3.1758 0.23047-4.7461 0.43359-1.7148 0.22266-3.2734 0.82031-4.9453 1.1953-0.26953 0.0625-0.45312 0.30859-0.4375 0.58203 0.015625 0.27344 0.23047 0.49609 0.50391 0.52344 1.5977 0.31641 3.1094 0.83984 4.7422 1.0508 1.6953 0.21875 3.4258 0.26172 5.1328 0.36328 2.4102 0.14453 7.1406 1.1328 8.6641-1.3164v-0.003906c0.36328-0.58594 0.3125-1.3438-0.125-1.8789z"/>
 </g>
</svg>