<?xml version="1.0" encoding="UTF-8"?>
<!-- Uploaded to: ICON Repo, www.iconrepo.com, Generator: ICON Repo Mixer Tools -->
<svg fill="#000000" width="800px" height="800px" version="1.1" viewBox="144 144 512 512" xmlns="http://www.w3.org/2000/svg">
 <g>
  <path d="m437.82 422.17c-2.3945-1.5-5.0703-2.4961-7.8633-2.9297-1.6797-0.35938-3.2344-1.0508-4.8945-1.4688-1.5273-0.35547-3.0273-0.83203-4.4805-1.4219-3.2148-1.5352-6.2227-3.4648-8.9648-5.7422-2.9688-2.2578-5.9766-4.4883-8.8125-6.9102-5.0039-4.3555-9.2969-9.4688-12.715-15.152-1.7188-2.8125-3.3047-5.668-4.7656-8.6211-0.97656-1.9688-1.8594-4.0078-2.8008-6.0078l0.19141-0.79687-0.003906-0.003907c0.77734-2.6328 1.0781-5.3867 0.88672-8.125-0.51953-2.832-1.2539-5.6211-2.1914-8.3398-0.90625-3.0898-1.3164-6.3008-1.207-9.5156 0.027344-0.50781-0.34766-0.94531-0.85156-0.99609-0.50391-0.050781-0.95703 0.30469-1.0273 0.80859-0.55078 2.8633-0.81641 5.7734-0.78906 8.6875 0.050782 2.9023 0.85547 5.6836 1.125 8.5625 0.11328 3.0508-0.30078 6.0977-1.2305 9.0039-0.76953 2.8867-1.2617 5.8398-1.4648 8.8164-0.49219 12.074 0.375 24.164 2.5742 36.047l-2.3516 0.46875h0.003906c-2.0156 0.55469-4.1016 0.8125-6.1875 0.76562-1.6094-0.36328-3.1133-1.1055-4.3828-2.1602-1.7695-1.1641-3.5312-2.3359-5.2852-3.5273-6.6367-4.5195-12.973-9.3594-19.363-14.211-0.75-0.57031-1.5156-1.125-2.293-1.668v0.003906c-0.96484-1.8242-1.7578-3.7305-2.375-5.6953-0.67578-2.7148-1.1445-5.4766-1.4062-8.2617-0.27734-1.9727-0.73438-3.918-1.3711-5.8047-0.14453-1.3555-0.41016-2.6953-0.79297-4.0039-0.31641-2.7031-0.46875-5.4219-0.45312-8.1406-0.18359-2.4414-0.64062-4.8555-1.3711-7.1914-0.91016-2.5234-2.1016-4.9375-3.5547-7.1914-0.17188-0.32422-0.55859-0.46094-0.89453-0.3125-0.33203 0.14453-0.49219 0.52734-0.36719 0.86719 0.85938 2.5625 1.4922 5.1953 1.8984 7.8672-0.83594 2.7695-1.1836 5.668-1.0273 8.5586 0.058594 4.2539-0.40625 8.5-1.375 12.645-1 3.3125-1.4219 6.7734-1.2461 10.227l-2.0898-0.25781c-0.39844-0.039062-0.76562 0.22656-0.85938 0.61719-0.089843 0.39453 0.125 0.79297 0.5 0.9375 3.4219 1.5156 6.6328 3.4688 9.5508 5.8125 2.8125 2.0625 5.3906 4.4258 8.0664 6.6602l0.003906-0.003906c6.2109 5.2227 12.738 10.055 19.547 14.469 2.8398 2.3242 6.1445 4.0117 9.6914 4.9492 4.1172-0.027344 8.2031-0.68359 12.117-1.9531 3.7812-0.90625 7.75-0.58984 11.34 0.89844 1.6602 0.85156 3.3672 1.6133 5.1055 2.2812 1.6953 0.48047 3.4336 0.80859 5.1914 0.97266 0.66797 0.046874 1.2773-0.40234 1.4258-1.0547 0.15234-0.65625-0.19531-1.3242-0.81641-1.5781-1.7344-0.8125-3.4023-1.7656-4.9805-2.8516l-1.9336-1.0312 6.4648-0.11719c3.0781-0.054687 6.1523-0.085937 9.2305-0.125 1.2773-0.015625 2.5508-0.03125 3.8242-0.089844 0.49609-0.023437 1.4492-0.21875 2.4414-0.38672 2.6445 0.9375 5.4258 1.4336 8.2305 1.4727 3.6406-0.007813 7.2148 0.93359 10.375 2.7344 1.0039 0.55078 2.0352-0.78906 1.0547-1.4844zm-105.62-28.402c-0.99219-0.52344-2.0195-0.97266-3.082-1.3359 0.19531-1.7812 0-3.6094 0.22656-5.4102 0.22656-1.7969 0.59375-3.5781 0.96875-5.3555 0.15625 1.7227 0.22656 3.4492 0.38281 5.1914v0.003906c0.18359 2.4258 0.77344 4.8008 1.7383 7.0312zm72.461 22.582c-3.4883 0.11328-6.9727 0.36719-10.449 0.67578-1.5391 0.13672-3.0586 0.38281-4.5703 0.64844v0.003906c-2.1445-0.4375-4.3438-0.55078-6.5195-0.33984-2.832-11.652-3.6133-23.711-2.3047-35.629l0.46875-2.3203v-0.003907c1.2578 3.8906 2.9102 7.6406 4.9375 11.195 3.2656 5.8555 7.457 11.152 12.406 15.68 3.957 3.7188 8.2656 7.043 12.867 9.9336-2.2812 0.007813-4.5625 0.082032-6.8359 0.15625z"/>
  <path d="m373.99 281.22c-4.4531-3.6406-10.098-5.5078-15.844-5.2383-6.1484 0.10547-12.098 2.1797-16.984 5.9141-4.4219 3.6602-6.9688 9.1172-6.9375 14.859-0.035156 3.3867 0.28906 6.7695 0.98047 10.086 0.33203 1.7422 0.9375 3.3984 1.4375 5.0977l0.12891 0.46094c-3.6992 5.1328-8.8789 9.0078-14.848 11.105-6.4648 2.3086-13.676 3.8438-16.289 11.078-1.0938 3.7812-1.7617 7.6758-1.9922 11.605-0.69141 4.418-1.125 8.875-1.3008 13.344-0.042969 8.7305 2.5039 17.176 2.9414 25.863 0.37109 7.3711-1.8672 16.734 4.0117 22.582 2.1758 2.1641 5.8047-0.60938 3.7734-3.0859-4.2812-5.2227-2.7188-12.426-2.9062-18.668-0.24609-8.3984-2.7422-16.543-3.0273-24.934v-0.003907c0.003906-4.2188 0.30078-8.4297 0.89453-12.609 0.13672-3.8945 0.65234-7.7695 1.5391-11.566 1.4961-3.6523 4.75-6.2891 8.6328-6.9961 5.2734-0.59375 10.688-0.12891 15.953-0.29297 1.3242-0.039063 1.3242-2.0039 0.24219-2.418-2.2812-0.83984-4.7031-1.2383-7.1367-1.1875 4.2617-2.7969 7.8359-6.5156 10.465-10.879 0.24219 0.56641 0.58203 1.0898 1 1.543 0.16406 0.19531 0.42188 0.28906 0.67578 0.24609 0.25391-0.042968 0.46875-0.21484 0.5625-0.45312 0.40625-1.457 0.48047-2.9883 0.21484-4.4766-0.11328-1.7812-0.23438-3.6094-0.47656-5.375v-0.003907c-0.58203-3.1719-0.91406-6.3906-0.98828-9.6172-0.0625-3.1172 0.83203-6.1797 2.5625-8.7734 1.7305-2.5938 4.2188-4.5938 7.1211-5.7266 6.0469-2.8672 13.039-2.9727 19.172-0.28906 2.1445 1.0586 4.1055 2.4531 5.8125 4.1289 0.39453 0.87109 0.65234 1.7969 0.75781 2.7461 0.17969 1.6211-0.042969 3.9805-1.9766 4.6289-1.5 0.50391-3.1406-1.4492-4.3984-2.1133-1.3438-0.71094-2.8203-1.1445-4.3359-1.2734-3.1016-0.38281-6.207 0.67969-8.4219 2.8828-0.92969 1.2773-1.4375 2.8125-1.4531 4.3906-0.23828 2.3867-0.63672 4.7578-1.1914 7.0898-0.21484 0.875 1.0898 1.3906 1.3359 0.49609l0.003906 0.003906c0.61719-2.2539 1.3945-4.457 2.3203-6.6016 0.94531-2.1836 1.6641-3.6133 4.0938-4.2695 1.8398-0.49219 3.7969-0.30078 5.5078 0.53906 1.6758 0.83984 2.9023 2.3398 4.8086 2.7305 3.0859 0.48438 6.0039-1.543 6.6211-4.6016l0.16406-1.1289c0.41797 0.95703 0.78516 1.9336 1.1016 2.9297 0.1875 0.40234 0.62109 0.62891 1.0586 0.55859 0.4375-0.070312 0.77734-0.42188 0.83203-0.86328-0.058594-5.168-2.3203-10.066-6.2188-13.465z"/>
  <path d="m278.45 471.04c-1.6562-1.2031-3.7383-1.6562-5.7461-1.2539-3.9141-1.0078-7.8945-1.7383-11.91-2.1719-3.6758-0.875-7.5078-0.85938-11.176 0.035156-0.90625 0.27734-0.30078 1.6172 0.59766 1.3477h-0.003906c2.2852-0.33984 4.6172-0.03125 6.7383 0.88281 1.5703 0.37891 3.1562 0.69531 4.7344 1.0352 1.7422 0.375 3.5352 0.85156 5.3359 1.25l-0.035157 0.023437h-0.003906c-1.9414 1.3594-3.9961 2.5508-6.1406 3.5625-2.207 0.89844-4.5586 1.3633-6.8359 2.0508v-0.003907c-3.832 1.1172-7.4102 2.9609-10.543 5.4258-3 2.3594-5.375 5.418-6.918 8.9062-0.3125 0.69141 0.75 1.2383 1.168 0.61719h0.003906c4.6094-5.6016 11.074-9.3672 18.223-10.613 3.9297-0.82031 7.6992-2.2773 11.16-4.3086 3.1484-2.4453 6.8867-4.0195 10.832-4.5625 1.125-0.0625 1.3281-1.6367 0.51953-2.2227z"/>
  <path d="m334.49 520.97c-1.8633-0.65234-3.8672-0.74219-5.7539-1.3594-1.9219-0.66797-3.8047-1.4453-5.6367-2.3242-3.5547-1.625-7.125-3.2188-10.672-4.8672-7.457-3.4648-14.777-7.2031-21.965-11.211-6.3086-4.7031-13.625-7.875-21.367-9.2617-8.3438 0.50391-16.641 1.5781-24.836 3.2227-0.96094 0.10156-0.71875 1.5625 0.23438 1.4766 4.4453-0.39062 8.9375-0.14062 13.402-0.42578h-0.003907c4.1016-0.54297 8.25-0.625 12.367-0.24219 3.7852 1.1172 7.3203 2.9531 10.41 5.4102 3.4766 2.1641 7.0234 4.1797 10.613 6.1406 7.0312 3.8359 14.191 7.4336 21.473 10.789 3.4805 1.7227 7.1016 3.1445 10.824 4.2461 3.5234 1.25 7.3164 1.5078 10.977 0.75781 0.46484-0.21875 0.75391-0.6875 0.73828-1.1992-0.015625-0.50781-0.33203-0.96094-0.80469-1.1523z"/>
  <path d="m419.78 452.27c-5.8555 0.85156-11.422 3.0898-16.234 6.5273-2.1133 1.9844-3.9766 4.2188-5.5391 6.6602-8.6094 0.68359-17.164-1.8672-23.996-7.1523-1.8945-1.4336-3.3008-3.4219-4.0195-5.6875-0.61719-2.4531-0.98438-4.957-1.1016-7.4844-0.30859-2.4531 0.26953-4.9375 1.6328-7 0.99609-1.2617 2.1289-2.4023 3.3789-3.4062 2.6484-0.50391 5.2539-1.2266 7.7852-2.1562 1.8789-0.73828 3.9102-1.0117 5.918-0.80078 1.7109 0.24609 3.3672 0.79688 5.0469 1.1836h0.003906c3.2969 1.2031 6.9141 1.1758 10.191-0.082031 0.8125-0.39063 1.2227-1.3164 0.96875-2.1797-0.25781-0.86719-1.1016-1.4219-1.9961-1.3125-1.9531 0.14844-3.9141 0.13281-5.8633-0.042969-1.9453-0.24609-3.8633-0.64844-5.8203-0.78125v-0.003906c-3.6719-0.085937-7.3359 0.32422-10.898 1.2188-7.8125 0.98438-15.75 0.26172-23.254-2.125-7.2461-2.0039-14.281-4.6992-21.012-8.0508-3.3555-1.6172-6.6406-3.3477-9.8594-5.2266-1.6953-0.99219-3.4062-1.9453-5.1289-2.8945-1.7422-0.95703-3.6328-1.5352-5.3008-2.6289l0.003906 0.003906c-0.26953-0.17969-0.63281-0.11328-0.82031 0.15234-0.1875 0.26172-0.12891 0.62891 0.12891 0.82031 1.1953 0.96484 2.0547 2.1055 3.1328 3.1562 1.25 1.1797 2.5742 2.2695 3.9648 3.2734 1.2617 0.9375 2.5703 1.8242 3.8945 2.6836-0.85938 0.71094-1.5898 1.5547-2.1641 2.5078-1.4883 2.4805-2.4688 5.2305-2.8906 8.0898-0.89844 6.1758 0.38281 12.473 3.6289 17.805 1.8203 2.2891 3.0039 5.0234 3.4297 7.918-0.019531 1.2539-0.26172 2.4961-0.71484 3.6641-3.9492 0.48828-7.9492 0.40625-11.875-0.24609-1.8359-0.41406-3.5039-1.3672-4.7969-2.7305-0.87109-0.90625-1.9258-1.6133-3.0938-2.0664-3.1211-1.0156-6.3555 1.4648-8.918 2.9297-1.5781 0.96094-3.2227 1.8008-4.9258 2.5195-1.3125 0.42969-2.668 0.71484-4.043 0.84766-2.7266-0.37109-5.2344-1.6953-7.0781-3.7344-0.57812-0.79297-1.7266 0.16797-1.1758 0.96094h0.003906c1.6719 2.7969 4.1484 5.0273 7.1094 6.3945 3.9258 1.2148 8.0195 1.8047 12.133 1.75 4.3711 0.30469 8.6992 1.0781 12.906 2.3047 3.8906 0.70703 7.6211 2.1016 11.023 4.1133-0.66016 4.3281-1.5547 8.6133-2.6797 12.844-5.8711-2.668-11.199-5.0977-17.277-7.2422-6.4062-2.0469-12.93-3.7031-19.535-4.9688-0.77344-0.17188-1.0742 1.1289-0.3125 1.3555 6.3867 2.2109 12.656 4.7617 18.773 7.6406 5.9219 2.4961 11.574 4.6914 17.504 7.168-0.44531 1.1719-0.73438 2.75-1.2578 3.9258h-0.003906c-3.125-1.4219-6.3516-2.6133-9.6484-3.5664-3.6836-1.2227-7.3828-2.375-11.102-3.4961-3.4531-0.91797-6.8359-2.0977-10.113-3.5273-2.9531-1.4102-6.9844-3.7695-7.7891-7.1641-0.23437-0.98438-1.7539-0.76953-1.5664 0.24609 0.41406 3.1992 1.9258 6.1523 4.2773 8.3594 3.1484 2.3633 6.7305 4.0898 10.539 5.082 4.1758 1.4805 8.2891 3.1172 12.477 4.5586v0.003906c3.6719 1.457 7.4414 2.6523 11.281 3.582-0.88672 2.1914-0.82812 4.6523 0.15625 6.7969 0.30469 0.64062 0.99219 1 1.6875 0.88672 0.69922-0.10938 1.2383-0.66797 1.332-1.3672 0.17578-1.6953 8.582-33.516 10.867-42.051 0.8125-2.1992 1.457-4.457 1.9219-6.7539 1.1445-4.1172 1.6328-8.3906 1.4414-12.66-0.050781-0.30469-0.28125-0.54688-0.58203-0.61719-0.29688-0.066407-0.60938 0.046874-0.78906 0.29687-1.2578 2.3047-2.1758 4.7852-2.7305 7.3555-1.8945-2.9531-3.4922-6.0898-4.7617-9.3633-0.99219-3.5664-1.1641-7.3125-0.50391-10.961 0.27344-1.793 0.76172-3.5469 1.4609-5.2188 0.40625-0.78906 0.88281-1.5391 1.4258-2.2383l0.67969 0.42188c5.2266 3.2734 10.75 6.0469 16.5 8.2734 5.7344 2.2227 11.688 3.8242 17.762 4.7812 1.7148 0.25781 3.4453 0.47656 5.1836 0.58594h-0.003906c-2.3242 2.1172-3.7695 5.0352-4.0352 8.1719-0.43359 3.8984-0.050782 7.8438 1.125 11.586-0.21875 0.55469-0.39844 1.1211-0.53516 1.6992-0.51172 2.2617-0.74219 4.5938-1.2109 6.8711-0.58984 2.2695-1.0234 4.5742-1.3008 6.9062-0.87109 2.2109-1.6523 4.4609-2.4805 6.6562-1.8359 4.8438-3.8516 9.5977-5.8945 14.359-2.0352 4.7305-4.125 9.457-6.4805 14.035-1.2031 2.3398-2.4883 4.6328-3.793 6.9141-1.3828 2.4219-2.4453 5.0547-3.9883 7.3789-0.60547 0.90625 0.76172 1.8906 1.3906 0.98438 1.582-2.2852 3.5352-4.2891 5.1094-6.5859 1.4219-2.0781 2.7617-4.2188 4.0977-6.3516 2.8516-4.5547 5.5938-9.1602 8.0469-13.941l1.2617-2.5469 0.44922-0.078125h0.003906c1.957-0.34766 3.8984-0.78906 5.8125-1.3359 3.6875-1.0078 7.3047-2.2617 10.824-3.7578l0.63672-0.28125c-3.7617 2.8672-8.4297 8.6484-4.2812 12.793 0.28906 0.33203 0.74609 0.46484 1.1719 0.33594 0.42187-0.12891 0.73047-0.48828 0.78516-0.92578-0.042969-2.5625 0.91797-5.043 2.6758-6.9062 2.125-1.7773 4.4336-3.3203 6.8867-4.6055 4.6797-2.9258 8.8516-6.5977 12.352-10.867 3.457-4.207 5.5625-9.3828 9.0938-13.496v-0.003906c3.9375-3.9805 8.9258-6.7656 14.383-8.0273 0.92578-0.29297 0.46094-1.875-0.48438-1.6406zm-95.668 15.32s-5.1602-2.3789-7.5078-3.0664v-0.003906c-4.0859-1.3164-8.2656-2.3047-12.508-2.957-2.9258-0.37109-5.8828-0.35547-8.8203-0.51953l0.32031-0.14453c1.6953-0.78125 3.3008-1.75 4.9414-2.6328 1.8438-0.99219 4.082-2.5352 6.0898-1.1836 1.2656 0.85547 2.2109 2.1094 3.4922 2.9531h-0.003907c1.3164 0.82031 2.7852 1.3711 4.3164 1.625 3.7695 0.49219 7.5664 0.77344 11.371 0.84766zm68.363 5.6484-0.72266 0.82422c-5.6523 2.5742-11.438 4.9805-17.137 7.4219-3.4453 1.4805-6.9258 2.8789-10.422 4.2344l-2.7344 1.0391c1.1211-2.5469 2.1719-5.1211 3.1562-7.7227l-0.003906 0.003906c1.3359-3.2695 2.4023-6.6445 3.1914-10.086 0.50781-1.7383 0.84766-3.5391 1.1992-5.1484l0.53516-2.418v-0.003906c6.6992 6.6133 16.062 9.7852 25.402 8.6094-0.77734 1.1172-1.5898 2.2109-2.4688 3.2461z"/>
  <path d="m403.75 520.96c-3.1328-0.70313-6.3281-1.0898-9.5391-1.1484-3.4805-0.45312-6.6328-2.2852-8.7539-5.082-1.0312-1.2539-1.8555-2.6641-2.4414-4.1758-0.5625-1.4727-0.59375-3.0078-1.0352-4.5039-0.89453-3.0586-3.2383-3.707-5.7578-5.0742-0.79688-0.43359-1.6445 0.67969-0.83594 1.1836 1.4805 0.89453 2.6406 2.2305 3.3242 3.8203 0.48438 1.4531 0.26562 3.125 0.60547 4.6289v-0.003906c0.79297 3.2812 2.4336 6.293 4.7539 8.7461 2.1719 2.6133 5.2773 4.2773 8.6562 4.6367 3.6406-0.089843 7.2656-0.47656 10.836-1.1641 0.42969-0.078125 0.75391-0.42969 0.79688-0.86328 0.042969-0.42969-0.20312-0.83984-0.60938-1z"/>
  <path d="m483.17 506.66c-3.0977-2.9219-5.6445-6.375-7.5195-10.199-2.4062-4.1797-4.6094-8.4648-6.6055-12.859-1.9336-4.2734-3.7227-8.6133-5.2891-13.035-0.80078-2.2656-1.6289-4.5078-2.5273-6.7344l-0.003907-0.003906c-1.2031-2.4062-2.2109-4.9062-3.0195-7.4766-0.21094-0.9375-1.6875-0.70703-1.4766 0.23438 0.58984 2.6133 0.44531 5.2773 0.89844 7.9141l0.28906 1.5195-1.957 0.20312c-1.4844 0.12109-2.9727 0.054688-4.4375-0.19531-1.4531-0.30078-2.8633-0.77734-4.1992-1.4219-0.80469-0.36328-1.5898-0.83984-2.3906-1.2578l0.23047-0.22266c5.4141-4.5273 8.4453-11.293 8.2188-18.344-0.070312-0.37109-0.375-0.65234-0.75-0.69141-0.375-0.035157-0.72656 0.17969-0.86719 0.52734-0.87891 3.2773-2.207 6.418-3.9414 9.332-1.9883 2.9492-4.4062 5.582-7.1719 7.8164-6.1016 4.6914-12.535 8.9336-19.25 12.695-6.6055 3.9375-13.34 7.6484-20.195 11.133-2.9922 1.1953-5.6719 3.0469-7.8477 5.418-1.8594 2.7305-2.5352 6.0938-1.875 9.3281 0.67578 6.832 4.418 12.98 10.172 16.723 0.56641 0.31641 1.1641-0.47266 0.59766-0.84375-2.4258-2.0078-4.0391-4.8281-4.5352-7.9414-0.92969-2.9219-1.5977-5.9219-1.9883-8.9609-0.59766-3.3125 1.0938-6.6172 4.1328-8.0664 3.0898-1.7539 6.3477-3.2383 9.4805-4.9141 6.3672-3.4102 12.625-7.0234 18.766-10.836v-0.003906c4.8945-2.8477 9.5742-6.0469 14.004-9.5742 2.0391 2.6562 5.0195 4.4258 8.3281 4.9414 2.8281 0.69141 5.8008 0.47266 8.4961-0.625l0.54688 1.8047c1.6172 5.0781 3.5391 10.059 5.75 14.91 2.1406 4.7422 4.5664 9.3516 7.2617 13.801 2.2969 3.7461 4.8047 8.2266 9.5742 8.8555h-0.003906c0.72656 0.050781 1.4023-0.38281 1.6562-1.0625 0.25391-0.68359 0.03125-1.4492-0.55078-1.8867z"/>
  <path d="m445.79 434.86c-2.8164-1.7305-5.8945-3-9.1094-3.7656-7.2812-1.7227-14.832-1.9688-22.211-0.73047-0.98438 0.13281-0.72266 1.5625 0.23828 1.5h-0.003907c7.0039-0.28906 14 0.60938 20.703 2.6562 2.8867 0.73438 5.6484 1.8867 8.1992 3.4258 1.1523 0.75 2.25 1.5859 3.2812 2.4961 0.99219 0.85547 1.9375 2.0156 3.332 1.9805 0.54297 0.03125 1.0195-0.35938 1.0977-0.89844 0.55859-2.6914-3.6328-5.4531-5.5273-6.6641z"/>
  <path d="m279.42 454.38c-0.49609-2.4648-3.4688-2.5898-5.457-2.0195-2.8164 1.3633-5.4688 3.043-7.9023 5.0117-2.7891 1.5977-5.875 2.6211-9.0664 3.0078-1.4453 0.027344-2.8672 0.34375-4.1836 0.9375-1.3398 0.69531-2.4727 1.8203-3.832 2.4453-0.28125 0.13281-0.42187 0.44922-0.33203 0.75 0.085938 0.29688 0.375 0.48828 0.68359 0.44922 2.5117-0.93359 5.0977-1.6523 7.7305-2.1523 2.5469 0.03125 5.082-0.36328 7.5-1.1641 2.5195-1 4.875-2.375 6.9805-4.082 1.0391-0.96875 2.2852-1.6797 3.6445-2.082 1.1523-0.22656 2.2461 0.24609 3.3906 0.058594v-0.003906c0.54688-0.09375 0.92188-0.60547 0.84375-1.1562z"/>
  <path d="m544.94 509.18c-1.7812-1.2305-3.7773-2.1172-5.8867-2.6172-2.1445-0.48047-4.3203-0.80859-6.5078-0.98828-4.8359-0.19922-9.6758 0.09375-14.449 0.875-4.7266 0.47266-9.4727 0.77344-14.211 1.0977-5.1484 0.35156-10.422 0.84375-15.578 0.86719-0.97266 0.003907-1.1641 1.4727-0.15234 1.5352 4.5898 0.26953 9.1953 0.96875 13.805 1.2539v-0.003906c4.6602 0.31641 9.3398 0.32812 14.004 0.035156 4.668-0.32031 9.3086-1.0586 13.949-1.6367 4.6914-0.25 9.3906 0.34766 13.871 1.7695 1.2617 0.29687 2.4453-1.3398 1.1562-2.1875z"/>
  <path d="m557.48 502.9c-2.543-1.5039-5.2656-2.6836-8.0977-3.5117-2.5469-1.0859-5.2148-1.8516-7.9492-2.2773-4.5547-0.59766-9.1172-1.0781-13.684-1.4375v-0.003906c-2.9844-0.74219-5.625-2.4844-7.4844-4.9375-2.1602-3.9492-3.7109-8.2031-4.5977-12.617-1.0898-3.9883-3.1211-7.6562-5.9219-10.699-3.0039-2.7344-6.5547-4.7969-10.418-6.0547-0.92969-0.38672-1.4766 1.082-0.54688 1.4648 4.0469 2.1445 7.3633 5.4453 9.5234 9.4805 2.0156 4.2266 3.4766 8.6992 4.3477 13.305 1.1641 3.9375 3.7188 7.3125 7.1875 9.5039l-5.0156-0.33594v0.003906c-1.8164-1.9531-3.375-4.1289-4.6406-6.4766-1.6602-3.3281-2.9102-6.8398-3.7305-10.465-1.0703-3.0117-2.7031-5.7969-4.8047-8.2031-1.0977-1.2656-2.3516-2.3867-3.7344-3.3281-1.3984-0.79688-2.8945-1.418-4.4453-1.8555-0.37109-0.125-0.77734 0.039063-0.95703 0.38281-0.18359 0.34766-0.089844 0.77344 0.22266 1.0078 1.3125 1.2266 2.5469 2.5391 3.6914 3.9258 1.168 1.25 2.2578 2.5781 3.25 3.9727 1.9883 3.0547 3.3633 6.4648 4.0547 10.043 1 3.7227 2.8906 7.1484 5.5078 9.9805l0.62891 0.69922-3.2422-0.19531c-3.0938-1.1719-5.7734-3.2305-7.7031-5.918-1.1484-1.1836-1.8789-2.707-2.0859-4.3398-0.21484-1.8477-0.32422-3.6836-0.71484-5.5117-0.54297-3.2227-2.0195-6.2148-4.2461-8.6094-2.0234-1.9375-4.6875-3.0742-7.4883-3.1914-1.0195-0.12109-1.1211 1.3594-0.15625 1.5586 3.2656 0.66406 5.6367 4.668 6.543 7.5781 1.1328 3.6289 0.64453 7.4883 1.6719 11.082v-0.003906c0.98047 2.7031 2.6836 5.0859 4.9219 6.8906-0.97656-0.035156-1.9531-0.0625-2.9336-0.066406-1.0195-0.003907-2.0391 0.066406-3.0625 0.16016v-0.003906c-0.59766-1.7031-1.3555-3.3438-2.2695-4.9023-3.3828-7.2812-5.8281-14.965-7.2773-22.863-0.73438-3.9609-0.99219-8.0156-2.0234-11.918h0.003907c-0.89453-3.418-2.7383-6.5117-5.3242-8.9141-0.74219-0.72656-2.0156 0.30078-1.2656 1.0352v-0.003907c2.2188 2.7383 3.4688 6.1289 3.5625 9.6484 0.4375 3.4609 0.55469 6.9531 0.98047 10.414v-0.003906c0.99609 7.8516 3.1406 15.512 6.3672 22.738 0.67578 1.7891 1.4648 3.5312 2.3672 5.2188-0.77344 0.042969-1.543 0.066406-2.3086 0.039063v-0.003907c-0.41797-0.023437-0.78125 0.28906-0.82422 0.70703-0.042969 0.41797 0.25391 0.79297 0.66797 0.85156 3.0742 0.27734 6.082 1.4258 9.1562 1.8281 3.0742 0.40234 6.168 0.59766 9.2539 0.84375 6.3203 0.50391 12.652 0.83594 18.98 1.2422 3.0938 0.19531 6.1914 0.34375 9.2891 0.50391 3.0781 0.15625 6.1445-0.023437 9.2188 0.125h0.003907c2.8594 0.19531 5.6641 0.875 8.2969 2.0156 2.6367 1.3203 5.4258 2.3047 8.3086 2.9297 0.62109 0.046874 1.1992-0.32422 1.418-0.91016 0.21875-0.58594 0.027344-1.2461-0.47266-1.6172z"/>
  <path d="m558.64 513.14c-0.75-2.2344-4.8242-3.2305-6.7305-4.2188-2.75-1.4297-5.8125-2.6914-8.4102-4.3711-0.36328-0.23828-0.84766-0.14453-1.0977 0.20703-0.25 0.35547-0.17578 0.84375 0.16797 1.1094 2.4336 2.2773 5.0977 4.2969 7.9453 6.0234 1.9766 1.0703 5.4102 3.5781 7.6836 2.3867h0.003907c0.42188-0.20312 0.61719-0.69922 0.4375-1.1367z"/>
  <path d="m563.27 511.2c-0.54688-1.7422-2.7148-3.1992-2.8398-5.0273-0.058594-0.85938-1.457-0.8125-1.5039 0.042969h-0.003907c-0.12891 1.3633 0.10547 2.7383 0.68359 3.9805 0.38281 1.3008 0.67578 2.6289 0.87109 3.9727 0.058593 0.32422 0.26172 0.60547 0.55078 0.76172 0.28906 0.16016 0.63672 0.17969 0.94141 0.050781 1.6367-0.57812 1.7578-2.3125 1.3008-3.7812z"/>
  <path d="m491.81 447.76c-4.3281-4.3477-7.3203-9.9062-11.539-14.375-4.0039-4.2695-8.6523-7.8867-13.773-10.723-5.0195-2.7773-10.402-4.8398-15.996-6.1211-1.6133-0.35547-3.2539-0.58203-4.9062-0.67969-3.6484-1.7344-7.4375-3.1484-11.328-4.2266-2.0156-0.30469-4.0547-0.45312-6.0938-0.4375-2.0625-0.24219-3.9375-1.3203-5.1875-2.9844-2.2383-3.5742-4.2109-7.3125-5.8984-11.18-1.9766-3.2461-4.3164-6.2617-6.9688-8.9883-2.75-2.7188-5.125-5.7969-7.0547-9.1484-1.7695-4.0078-3.1406-8.1797-4.1016-12.453-2.582-8.7109-5.9883-17.152-10.168-25.219-1.7539-4.0664-4.1367-7.8359-7.0508-11.168-1.4062-1.4492-3.0508-2.6445-4.8555-3.5391-1.8984-0.80078-3.957-1.1484-6.0117-1.0156-0.86328-0.019531-1.0117 1.3125-0.13672 1.3477h0.003907c4.1328 0.73047 7.7617 3.1875 9.9766 6.75 2.2812 3.5586 4.1797 7.3477 5.6523 11.309 3.6055 8.2695 6.5938 16.793 8.9453 25.5 0.87891 4.0352 2.3008 7.9336 4.2305 11.586 2.0234 3.2266 4.3906 6.2188 7.0586 8.9297 2.8633 2.832 5.332 6.0352 7.332 9.5273 1.4414 3.7188 3.4766 7.1758 6.0273 10.238 1.3477 1.3789 2.9492 2.4883 4.7148 3.2656 2.1211 0.6875 4.3594 0.9375 6.582 0.73828 2.5781-0.22656 5.1797 0 7.6797 0.67578l1.4023 0.50391c-2.2148 0.125-4.4531 0.36328-6.7656 0.59766-0.84375 0.085938-0.62891 1.3633 0.20312 1.293 5.6172-0.10156 11.215 0.73047 16.559 2.4609 5.3711 1.457 10.484 3.7461 15.148 6.7852 4.5898 2.9414 8.8164 6.4141 12.594 10.348 3.7617 4.3125 7.9258 8.2617 12.438 11.789 0.84375 0.60156 2.0664-0.60156 1.2891-1.3867z"/>
  <path d="m557.6 496.1c-3.9297-5.1484-9.9961-8.2148-16.473-8.3242-3.4336 0.09375-6.8672-0.28906-10.199-1.1406-2.8594-1.3984-4.957-3.9922-5.7266-7.082-2.2969-6.3984-2.4023-13.344-7.9219-18.113h-0.003906c-2.7578-2.1016-5.8516-3.7227-9.1562-4.7852-4.0898-1.5938-8.2891-2.7266-12.434-4.1328-0.71484-0.24219-1.375 0.83203-0.64844 1.2305 3.5586 1.9414 6.9688 4.1133 10.605 5.9336 3.4375 1.3008 6.5508 3.3281 9.1328 5.9453 4.0898 5.1289 3.4844 12.711 6.3281 18.484v0.003907c1.293 2.8008 3.4375 5.125 6.1289 6.6367 3.1055 1.4453 6.5391 2.0508 9.9492 1.7578 3.3906-0.26172 6.8008-0.011719 10.117 0.74609 3.1641 0.92578 6.0977 2.5117 8.6016 4.6602 1.1836 0.99219 2.3867-0.73047 1.6992-1.8203z"/>
  <path d="m376.25 310.97c-0.57422 0.070312-1.1602 0.011719-1.7109-0.17188 0.71875-0.52734 1.4102-1.0938 2.0625-1.7031 2.1328-2.2539 2.4688-5.6602 0.82422-8.2891-0.12891-0.27344-0.4375-0.41016-0.72656-0.32422-0.28516 0.085937-0.47266 0.36719-0.43359 0.66406 0.15625 1.8672-0.33203 3.7344-1.3906 5.2812-0.92969 1.4023-2.5898 1.9922-3.4531 3.4336-0.13281 0.21875-0.82422 1.3906-0.66797 1.8203v0.003906c-0.023438 2.5469 0.55859 5.0664 1.6992 7.3477 0.28125 0.83594 1.5078 0.51562 1.6055-0.25781-0.027344-1.8828-0.21094-3.7617-0.55078-5.6172l0.33984 0.003906c0.96875-0.14062 1.9141-0.41406 2.8086-0.81641 0.78516-0.23438 0.39062-1.5469-0.40625-1.375z"/>
  <path d="m349.79 302.14c-1.1875-0.85156-2.8203-1.9961-4.3477-1.4023h0.003906c-1.3555 0.71094-2.2344 2.0781-2.3242 3.6055-0.40625 2.8555 1.2539 7.1094 4.4375 7.5977 0.47266 0.039063 0.92578-0.21094 1.1484-0.62891 0.22656-0.41797 0.18359-0.92969-0.10938-1.3047-1.1406-1.3047-2.4648-2.0039-2.8438-3.8672-0.16797-0.78516-0.12109-1.5977 0.13672-2.3555 0.58203-1.625 2.0898-1.2852 3.3594-0.61719 0.59375 0.31641 1.0664-0.64844 0.53906-1.0273z"/>
  <path d="m365.1 325.58c-2.3789 3.7422-6.1172 2.6445-9.3086 0.59766-2.6055-1.832-5.3555-3.457-8.2227-4.8477-0.33203-0.11328-0.69922 0.03125-0.86328 0.34375s-0.078125 0.69531 0.20312 0.90625c2.5273 2.0469 4.9023 4.2734 7.1055 6.6641-0.80469 1.1289-1.1172 2.5352-0.86719 3.8984 0.39453 1.4688 1.1016 2.8359 2.0664 4.0117 0.42187 0.68359 1.3906-0.03125 1.1445-0.70703h0.003906c-0.48047-1.7539-0.17578-3.6328 0.83203-5.1445l0.042969-0.0625 0.74609 0.26562v-0.003906c1.8477 0.54297 3.8359 0.25391 5.4531-0.79297 1.6133-1.043 2.6914-2.7422 2.9531-4.6484 0.023437-0.31641-0.16797-0.60938-0.46484-0.72266-0.29688-0.10938-0.63281-0.011719-0.82422 0.24219z"/>
  <path d="m366.46 309.75c-1.793-1.7617-4.7539-1.2031-6.9531-2.1836-0.85938-0.38281-1.3281 0.95312-0.50391 1.3594 2.168 1.0664 4.4648 3.3906 7.0586 2.5v0.003907c0.30859-0.14063 0.53516-0.41406 0.61328-0.74219s0-0.67578-0.21484-0.9375z"/>
  <path d="m368.45 321.85c-1.5781-0.49219-3.1797 0.39063-4.7773-0.10937-0.94141-0.29688-1.4883 1.1445-0.53906 1.4453 1.7773 0.55859 3.8867 1.6406 5.5938 0.35938h0.003906c0.27344-0.22656 0.40234-0.57812 0.34375-0.92969-0.054687-0.34766-0.29297-0.64063-0.625-0.76563z"/>
  <path d="m363.96 393.95c0.03125-0.41016-0.27344-0.77344-0.68359-0.8125-0.40625-0.042969-0.77734 0.25-0.82813 0.66016-0.32422 2.4375-1.5547 4.8086-2.0195 7.2539-0.54297 2.1133-0.53516 4.3281 0.027344 6.4336 0.45312 1.4102 2.4609 1.0742 2.9492-0.089844 0.6875-2.0469 0.98828-4.2031 0.875-6.3594 0.039062-2.3242-0.55469-4.7969-0.32031-7.0859z"/>
  <path d="m363.07 354.35c-0.058593-0.3125-0.32031-0.54687-0.63672-0.57812-0.31641-0.035157-0.61719 0.14844-0.73828 0.44141-0.79297 2.2812-1.3281 4.6406-1.5977 7.0391-0.30859 2.3164-1.2383 4.5039-2.6875 6.332-0.54297 0.47266-0.66406 1.2695-0.28906 1.8828 0.37891 0.61328 1.1445 0.86328 1.8086 0.58984 2.5469-0.86719 4.2852-3.2227 4.3633-5.9102 0.40625-3.2578 0.32812-6.5586-0.22266-9.7969z"/>
 </g>
</svg>