<?xml version="1.0" encoding="UTF-8"?>
<!-- Uploaded to: ICON Repo, www.iconrepo.com, Generator: ICON Repo Mixer Tools -->
<svg fill="#000000" width="800px" height="800px" version="1.1" viewBox="144 144 512 512" xmlns="http://www.w3.org/2000/svg">
 <g>
  <path d="m313.39 309.59c-2.4258 2.3906-5.1172 4.4922-8.0234 6.2656-2.6953 2.0703-4.9844 4.6211-6.7539 7.5234-3.832 6.3984-6.8242 13.262-8.8945 20.426-4.4609 14.551-6.1562 29.812-4.9961 44.988 1.0625 7.5156 0.40234 15.176-1.9297 22.398-0.39453 0.96875 0.9375 2.0117 1.7266 1.2344 2.3203-2.2969 3.9648-5.1875 4.7539-8.3594 0.61719-3.3594 0.78125-6.7891 0.47656-10.195-0.5625-7.3008-0.73047-14.633-0.50391-21.953 0.48047-7.75 1.7578-15.426 3.8047-22.914 1.8945-7.2891 4.6016-14.344 8.0703-21.027 1.9258-3.457 4.3438-6.6172 7.1719-9.3867 2.6758-2.3047 4.8281-5.1562 6.3125-8.3633 0.10938-0.32422-0.03125-0.67969-0.33594-0.83594-0.30078-0.16016-0.67578-0.078125-0.87891 0.19922z"/>
  <path d="m287.93 414.86c-8.1445 3.8438-10.992 13.125-15.836 20.008v0.003907c-5.0938 7.0391-11.996 12.566-19.977 16.004-2.2695 1.0117-4.6055 1.8711-6.9883 2.5703-2.4062 0.93359-4.9062 1.6094-7.4531 2.0195-0.92188 0.058593-0.67188 1.4375 0.22266 1.4023 2.2578-0.082031 4.4766 0.36328 6.7578 0.15234 2.293-0.25391 4.5508-0.73828 6.7422-1.4453 4.2852-1.3359 8.3555-3.2812 12.082-5.7773 7.4531-5.1875 13.438-12.211 17.375-20.395 1.9609-4.582 4.918-8.668 8.6602-11.965 0.56641-0.49219 0.69531-1.3203 0.30078-1.9609-0.39453-0.64062-1.1914-0.89844-1.8867-0.61719z"/>
  <path d="m342.19 433.26c-5.3398-6.1836-10.176-12.789-14.457-19.746-8.3516-14.008-14.379-29.277-17.852-45.211-0.99609-4.4414-1.9258-8.8906-2.6445-13.387-0.74219-4.6289-1.5977-9.3242-1.9453-14-0.050781-0.64844-1.0898-0.60937-1.1328 0.03125-0.375 4.0703-0.54688 8.1523-0.51562 12.238 0.14453 4.1758 0.49609 8.3438 1.0586 12.484 1.1914 8.0938 3.207 16.047 6.0195 23.73 4.0273 11.406 9.4648 22.266 16.188 32.328-3.2383-1.4961-6.6055-2.6953-10.059-3.5938-7.3477-2.1211-14.988-3.0547-22.633-2.7578-0.72266 0.039062-0.73438 1.1016-0.13281 1.332 6.8242 2.6172 14.082 3.8867 21.07 5.9922 5.9492 2.043 11.793 4.3867 17.508 7.0234 0.71094 0.91406 1.4297 1.8203 2.1562 2.7188 2.8164 3.4531 5.7852 6.7852 8.5664 10.27 1.3477 1.6914 2.8359 3.3125 4.0469 5.1055v0.003906c1.3203 2.0625 2.332 4.3008 3.0117 6.6523 0.10938 0.55078 0.63281 0.91406 1.1875 0.82812 0.55469-0.085937 0.9375-0.59766 0.875-1.1562-1.0977-7.8906-4.7148-15.219-10.316-20.887z"/>
  <path d="m346.69 470.3c-1.2109-0.85547-2.2812-1.8594-3.5352-2.6719-1.0898-0.70703-2.2383-1.3438-3.3633-1.9844-2.4805-1.4023-5.0391-2.6797-7.5938-3.9453-4.8633-2.4102-9.6602-4.957-14.328-7.7227v-0.003906c-4.6562-2.7539-9.1523-5.7734-13.465-9.043-2.2109-1.6797-4.3203-3.4883-6.5-5.207-1.0078-0.79297-2.0508-1.5508-3.082-2.3164-1.3594-0.82031-2.6641-1.7305-3.9062-2.7227-0.21484-0.26563-0.60547-0.30469-0.86719-0.089844-0.26562 0.21875-0.30469 0.60547-0.089844 0.87109 0.90234 1.2305 1.3867 2.6719 2.2617 3.9297h0.003906c0.73047 1.0703 1.5156 2.1016 2.3555 3.0898l0.60547 0.67969h-0.003906c-1.1484 1.3594-2.4297 2.6055-3.8203 3.7227-2.1445 1.3164-4.3906 2.4688-6.7109 3.4492-2.8242 1.3555-5.5586 2.9023-8.1797 4.6211-2.6406 1.9062-5.1758 3.9531-7.5898 6.1367-0.48828 0.41016 0.019532 1.3438 0.61328 0.99609 1.8008-1.0273 3.6562-1.9609 5.5547-2.793-0.24609 1.6602-0.57812 3.3047-1.0039 4.9297-0.30859 0.85156-0.78906 1.6172-1.7734 1.6172l-0.55469-0.070313c-1.2383-0.79688-2.5156-1.5273-3.832-2.1836-3.6758-1.8672-7.8359-2.5703-11.922-2.0156-0.30859 0.042969-0.53516 0.30469-0.53125 0.61328l-0.44141-0.050782v0.003907c-1.8555 0.26172-3.5156 1.2891-4.5781 2.8359l-0.375 0.58594v-0.003906c-1.9688-0.59375-3.9805-1.043-6.0156-1.3516-1.2969-0.25781-2.4531-0.98047-3.2539-2.0273-0.76953-1.2344-1.7383-2.3281-2.8672-3.2422-0.26563-0.17578-0.61328-0.18359-0.88672-0.011719-0.27344 0.16797-0.42188 0.48047-0.38281 0.80078 0.26562 3.1328 2.0156 5.9492 4.707 7.5742 2.375 0.89453 4.8203 1.6016 7.3047 2.1094l-0.15234 1.0195 0.003907 0.003907c0.085937 2.9922 0.019531 5.9922-0.20313 8.9805-0.84375 2.5312-1.8906 4.9883-3.1328 7.3516-0.94531 2.5898-1.5547 5.2891-1.8047 8.0352-0.70312 2.4688-0.56641 5.0977 0.38281 7.4805 1.3516 2.0547 3.5977 2.5195 5.6719 3.4961 1.2969 0.62109 2.6602 1.0898 4.0625 1.3906 1.4219 0.20313 2.8633 0.21094 4.2852 0.027344 1.6328-0.078125 1.6406-2.4688 0.30078-2.9922v0.003906c-1.043-0.50391-2.125-0.93359-3.2305-1.2852-1.1367-0.27344-2.2891-0.48438-3.4492-0.625-1.0977-0.066407-2.1797-0.28125-3.2188-0.64844-1.0703-0.44141-0.79688-1.1797-0.72656-2.1953 0.074218-4.4766 1.0117-8.8945 2.7695-13.016 1.0352-1.8789 1.8359-3.8789 2.3867-5.9531 0.36719-2.3008 0.41016-4.6406 0.13281-6.9531-0.21875-3.0273-0.67188-8.3125 2.6562-10.059v-0.003906c0.24219-0.12891 0.39062-0.37891 0.38672-0.65234l0.23438 0.058594-0.003906-0.003906c4.2852 0.64844 8.3008 2.4883 11.582 5.3125 3.5625 2.5078 6.9336 5.3047 10.672 7.5586 8.1992 4.7344 17.234 7.8438 26.613 9.1562 0.96094 0.16016 1.125-1.1758 0.35938-1.5508-9.0078-3.7227-17.785-7.9648-26.293-12.715-1.1367-0.73438-2.2539-1.5039-3.3711-2.2734l0.035156-0.027344c3.0742-2.6953 1.8633-6.4961 2.0977-10.016l-0.003906-0.21484 1.1133-0.51953c2.6836-1.2734 5.4023-2.4648 8.1406-3.6172h-0.003906c0.16797 0.76172 0.38281 1.5195 0.63281 2.2578 0.69141 2.1523 1.5859 4.2344 2.668 6.2188 2.1641 3.8984 4.6211 7.6211 7.3555 11.141 2.7617 3.6211 5.6719 7.1211 8.5352 10.66 2.7969 3.457 5.375 7.043 8.0039 10.625v-0.003906c3.0586 3.9688 5.6992 8.2422 7.875 12.75 0.17969 0.375 0.60156 0.5625 1 0.44531 0.39844-0.11719 0.65234-0.50391 0.59766-0.91406-0.73047-4.3359-2.1211-8.5352-4.1211-12.449-2.1758-3.9023-4.6875-7.6094-7.5078-11.074-5.5312-7.0664-11.555-13.758-16.449-21.305-1.2969-2-2.4648-4.0781-3.6016-6.1719-0.61719-1.1328-1.1914-2.2852-1.8672-3.3828l-0.058594-0.10547c3.3945-1.1914 6.2852-3.5 8.1953-6.5508 0.82031 0.73047 1.6602 1.4414 2.5 2.1367v0.003907c4.4102 3.5977 9.0781 6.8594 13.973 9.7617 4.8633 2.9375 9.8906 5.5977 14.977 8.1367 2.5273 1.2578 5.0859 2.4688 7.7148 3.5039 1.3047 0.51172 2.6328 1.0234 3.9727 1.4336 1.4609 0.44922 2.9531 0.62109 4.418 1 1.0547 0.27344 1.9453-1.0742 0.94141-1.7812z"/>
  <path d="m341.3 514.25c-3.0781 0.57812-6.2109 0.82422-9.3398 0.73828-3.1289-0.23047-6.2344-0.69531-9.293-1.3867-6.3398-1.0508-12.535-2.8359-18.465-5.3203-9.4062-5.4102-18.168-11.871-26.113-19.258-4.4688-4.1367-10.082-6.8281-16.102-7.7148-0.22266-0.011719-0.42188 0.12109-0.5 0.32422-0.078125 0.20703-0.011719 0.4375 0.16016 0.57422 0.92578 0.76953 1.875 1.5117 2.8359 2.2383-1.1562 0.66016-2.1445 1.5781-2.8789 2.6875-1.1719 1.7148-1.8945 3.7188-2.9219 5.5195-0.57031 0.99609-1.1992 1.9492-1.8477 2.8984-0.61719 1.1094-1.3281 2.1602-2.1289 3.1484-0.55078 0.55078 0.17969 1.4961 0.78125 0.95703 0.85156-0.76172 1.8984-1.25 2.7617-2.0117 0.71875-0.66016 1.3984-1.3633 2.0391-2.0977 1.4102-1.6562 2.6992-3.4102 3.8594-5.25 1.2227-1.8281 2.2305-2.7852 4.4414-2.4375 0.19922 0.03125 0.40234 0.046875 0.60547 0.039063 2 1.4414 4 2.8828 5.9336 4.4141 4.4258 3.5078 8.5312 7.3906 12.902 10.957v0.003907c4.2969 3.6367 9.0078 6.7539 14.039 9.2852 6.168 2.6562 12.613 4.6172 19.219 5.8438 6.9805 2.6289 14.734 2.2969 21.461-0.92578 1.5508-1.0547 0.24609-3.5039-1.4492-3.2266z"/>
  <path d="m350.57 492.83c-1.2656-3.5898-2.957-7.0117-5.0352-10.199-1.918-3.6172-4.1758-7.043-6.7383-10.234-0.57422-0.625-1.9141-0.23047-1.6602 0.74219l0.003907 0.003906c1.0781 3.3398 2.4688 6.5781 4.1562 9.6602 1.5078 3.1445 3.0117 6.3125 4.2852 9.5625 1.2266 2.957 1.9141 6.1133 2.0195 9.3164 0.26172 3.1406-0.15625 6.3008-1.2266 9.2656-0.24609 0.5625 0.5625 1.1836 1.0117 0.72266 2.2891-2.2031 3.832-5.0625 4.4219-8.1836 0.44531-3.6016 0.023437-7.2539-1.2383-10.656z"/>
  <path d="m357.02 470.17c-0.15625-2.2148-0.60156-4.3984-1.332-6.4922-0.83203-2.3164-2.207-4.3359-3.1289-6.6016-0.28125-0.6875-1.2305-0.21484-1.0273 0.45312 0.49609 2.1992 0.72266 4.4492 0.67578 6.7031 0.089843 2.1094 0.30078 4.207 0.45312 6.3125 0.30469 4.2227 0.35156 8.5 0.4375 12.73-0.035156 0.51953 0.30859 0.98828 0.81641 1.1055 0.50391 0.11719 1.0195-0.15234 1.2188-0.63281 1.6914-4.3125 2.3398-8.9648 1.8867-13.578z"/>
  <path d="m380.09 456.24c-1.5352-1.7969-3.3125-3.3672-5.2812-4.6758-1.9141-1.5039-3.6836-3.2812-5.7266-4.5977l-0.10156-0.054688c-1.3906-2.4453-2.8984-4.8203-4.2227-7.3047-0.28906-0.53906-1.1602-0.16016-0.875 0.38672l0.003906 0.003906c1.5977 3.3828 2.832 6.9219 3.6836 10.562 0.95703 3.4844 1.832 7 2.6797 10.512 0.19531 0.80469 0.34375 1.6289 0.55469 2.4336 0.24219 0.92188 0.73438 1.7617 0.9375 2.6914v0.003907c0.19141 1.5312-0.22266 3.0781-1.1523 4.3086-1.6953 2.1172-2.7812 4.6562-3.1445 7.3438-0.046875 1.1328 1.668 1.6758 2.0352 0.47266 1.2656-2.5898 2.7695-5.0547 4.4844-7.3711 1.4336-3.2305 1.6406-6.875 0.57812-10.246-0.44141-1.7148-0.95312-3.3945-1.543-5.0508v0.003906c1.9648 1.3906 4.4258 1.8945 6.7812 1.3867 0.17578-0.03125 0.32031-0.15234 0.38281-0.31641 0.0625-0.16797 0.035156-0.35156-0.074218-0.49219z"/>
  <path d="m361.88 465.45c-0.14453-0.48047-0.89453-0.30469-0.92969 0.15234-0.45312 5.918-1.1367 11.793-1.8906 17.672-0.027344 0.46484 0.28516 0.88281 0.73828 0.98828 0.45312 0.10156 0.91797-0.13281 1.0977-0.5625 1.332-2.9219 2.0508-6.0898 2.1055-9.3008 0.089844-3.0234-0.28906-6.0391-1.1211-8.9492z"/>
  <path d="m367.15 465.84c-0.12109-0.26172-0.38672-0.42578-0.67578-0.41797-0.28906 0.011719-0.54688 0.1875-0.65625 0.45703-0.59375 2.3047-0.9375 4.6836-1.4219 7.0156-0.20703 0.99219 1.3281 1.5273 1.8398 0.6875 1.5117-2.2891 1.8516-5.1602 0.91406-7.7422z"/>
  <path d="m393.25 476.38c-0.80859-1.6953-1.4766-3.457-2-5.2617-0.16797-1.4258 0.074218-2.8711 0.69531-4.1641 0.30469-0.69141-0.48438-1.2578-1.1016-1.0391-2.9062 1.0508-3.0781 4.5508-2.6953 7.168 0.28125 1.9141 1.0312 3.7188 1.3789 5.6172 0.11328 0.60938 0.375 1.6328 0.03125 2.2031-0.42188 0.70312-1.3281 0.48047-2.1172 0.47266-4.1016-0.027344-8.2305-0.18359-12.328 0.097656v0.003906c-1.6367 0.03125-3.2656 0.28125-4.8359 0.74219-1.4336 0.59766-2.7227 1.4883-3.7891 2.6172-0.51562 0.48438 0.17969 1.3398 0.69922 0.85547 1.4102-1.3203 3.7383-0.96875 5.5312-0.8125 2.0352 0.17578 4.0547 0.38281 6.0977 0.46484 2.0781 0.082031 4.1602 0.089844 6.2422 0.13281h-0.003907c1.9688 0.28516 3.9766 0.17188 5.9062-0.33594 3.457-1.4805 3.2656-5.7734 2.2891-8.7617z"/>
  <path d="m413.19 534.93c-1.043-1.5781-2.1758-3.0938-3.3906-4.543-1.1211-1.6523-2.0664-3.4219-2.8281-5.2695-1.6211-4.3203-2.9727-8.7344-4.0469-13.219-1.2617-4.2656-2.9023-8.4102-4.8984-12.383-0.96094-1.9414-2.1328-3.7695-3.4961-5.4531-1.5195-1.8594-3.3828-3.2969-4.9531-5.082-0.38281-0.43359-1.2422 0.011719-0.91797 0.5625v0.003907c0.59766 1.0742 1.1094 2.1992 1.5195 3.3594-1.8086-0.33594-3.8164-0.32812-5.2656-0.55469-2.125-0.34375-4.2109-0.89844-6.2227-1.6641-1.0391-0.39062-2.0586-0.82422-3.0742-1.2656-0.90625-0.39062-2.0469-0.61719-2.8945-1.0664-0.54688-0.28906-1.2578 0.30078-0.79688 0.85547 0.63672 0.92188 1.3438 1.7969 2.1133 2.6172 0.90234 0.80469 1.8867 1.5117 2.9375 2.1094 2 1.1641 4.1523 2.0391 6.3984 2.5977 2.0781 0.50391 4.2812 0.39844 6.3242 0.9375v-0.003906c0.90625 0.41797 1.832 0.78125 2.7773 1.0898 0.55859 1.2148 1.1328 2.418 1.7148 3.6289h-0.003906c2.0078 4.2266 3.6484 8.6211 4.9062 13.129 0.98047 4.5039 2.4648 8.8828 4.4219 13.059 1.7422 3.1836 4.6523 7.5781 8.6133 8.0312h-0.003906c0.37109 0.03125 0.73438-0.13281 0.95312-0.4375 0.21875-0.30078 0.26172-0.69531 0.11328-1.0391z"/>
  <path d="m472.32 509.2c-0.23437-0.49219-0.79297-0.74219-1.3164-0.58594-0.52734 0.15625-0.85938 0.66797-0.79297 1.2109 0.046874 4.3008-2.2969 8.2695-6.0859 10.309-4.2891 2.125-8.8398 3.6797-13.539 4.6211-5.1602 1.4336-10.297 2.9492-15.406 4.5508-2.5625 0.80469-5.1055 1.6406-7.6367 2.5312l-4.1016 1.4531c-1.5195 0.53906-2.9805 1.3711-4.5273 1.8086-0.64062 0.17969-0.49609 1.2109 0.16406 1.0352 1.5117-0.39453 3.1094-0.41797 4.6484-0.69531 1.5391-0.27734 3.082-0.58203 4.6211-0.87891 3.082-0.59375 6.1445-1.2695 9.207-1.9648 6.0273-1.3711 12.004-2.9414 17.977-4.5156 5.043-0.87891 9.7891-2.9883 13.82-6.1445 1.8281-1.6562 3.125-3.8125 3.7305-6.2031 0.57422-2.1953 0.30469-4.5234-0.76172-6.5312z"/>
  <path d="m452.24 503.75c-6.0938 1.2148-11.941 3.4531-17.289 6.6172-2.7266 1.3086-5.4805 2.6367-8.0859 4.1758-1.8867 1.0234-3.6719 2.2227-5.3398 3.5742-0.86328-1.5664-1.9922-3.0234-2.957-4.4961-2.7734-4.25-5.3672-8.6172-7.7734-13.098-2.4102-4.4805-4.6641-9.0352-6.7656-13.652-1.0039-2.2148-1.957-4.457-2.9766-6.668v-0.003906c-1.3047-2.2852-2.4609-4.6523-3.4609-7.0898-0.17578-0.56641-1.0156-0.1875-0.83984 0.37109 0.76562 2.457 0.80469 5.0625 1.4766 7.5547 0.61719 2.293 1.3906 4.5352 2.2109 6.7617l-0.003906-0.003906c1.6758 4.582 3.6094 9.0586 5.793 13.422 2.1875 4.3555 4.5742 8.6016 7.1562 12.738 1.2266 1.9609 2.5078 3.8789 3.8047 5.793h0.003906c0.65625 0.90625 1.2422 1.8633 1.75 2.8594 0.47656 1.0195 0.57031 2.1055 0.98047 3.1367l0.003906 0.003906c0.19141 0.41016 0.58594 0.69141 1.0391 0.73828 0.45312 0.042969 0.89844-0.15234 1.168-0.51953 1.082-1.6133 1.2461-3.6758 0.43359-5.4414 2.0508-0.5625 4.0469-1.2969 5.9727-2.1914 2.8828-1.2227 5.6953-2.6406 8.5234-3.9883 5.7148-2.1289 11.133-4.9805 16.113-8.4961 0.39844-0.34766 0.52344-0.91406 0.30859-1.3945-0.21484-0.48438-0.72266-0.76953-1.2461-0.70312z"/>
  <path d="m443.01 472.47c-3.4453-0.49609-6.957 0.11328-10.031 1.7422-3.1797 1.9141-5.4844 4.9922-6.4297 8.582-1.9219 7.9102 3.9805 17.559 12.801 15.949 0.54297-0.10156 0.95313-0.54688 1.0078-1.0938 0.054687-0.54688-0.26172-1.0664-0.77344-1.2734-5.7227-1.5742-9.2812-7.2852-8.1719-13.117 0.79297-2.3125 2.2852-4.3164 4.2695-5.7461 2.0898-1.9062 4.6172-3.2734 7.3594-3.9844 0.25781-0.046875 0.44531-0.27734 0.4375-0.54297-0.007813-0.26562-0.20703-0.48438-0.46875-0.51562z"/>
  <path d="m465.67 486.8c-1.3828-1.5742-2.4727-3.4688-3.7695-5.1289-1.3086-1.7031-2.4023-3.5625-3.2578-5.5312-1.7695-3.9688-2.3984-8.2891-4.0664-12.27-1.6797-4.3516-6.1875-6.918-10.781-6.1406-4.2109 0.37891-7.9375 2.875-9.8945 6.6211-0.26172 0.50781 0.49609 1.0039 0.89844 0.64062 3.0508-2.707 7.1914-3.8359 11.195-3.0547 4.1992 0.875 4.8359 4.9062 5.8242 8.4727l0.003906-0.003906c0.94531 3.7539 2.3633 7.3711 4.2188 10.77 0.87891 1.6523 1.9883 3.1719 3.293 4.5156 1.4766 1.3203 3.2617 2.2539 5.1875 2.7188 0.91406 0.27344 1.8633-0.80078 1.1484-1.6094z"/>
  <path d="m483.43 495.12c-1.0352-1.3242-1.9766-2.9023-2.9727-4.3047-1.1016-1.6289-2.0078-3.3867-2.6953-5.2305-0.90625-2.043-1.5078-4.2109-1.7891-6.4258-0.31641-2.2461 0.3125-4.5234 1.7305-6.293 0.22266-0.19531 0.27344-0.51953 0.11719-0.76953-0.15234-0.25391-0.46484-0.35547-0.73828-0.24219-2.1875 0.73047-3.8477 2.5234-4.4102 4.7578l-0.054687 0.23828c-0.39453 0.90625-0.73438 1.8438-1.0352 2.7461-0.69922 2.082-0.80469 4.3398-1.6133 6.375l-0.003906 0.003906c-0.91797 2.0703-2.793 3.5625-5.0156 3.9922-1.3516 0.32422-2.7344 0.48047-4.1211 0.46875-1.4883 0.125-2.9883 0.10938-4.4727-0.050782-0.65625-0.11719-0.71875 0.86719-0.10156 1.0078 1.6992 0.38672 3.2188 1.2461 4.957 1.5625h0.003906c1.2891 0.23438 2.6094 0.28125 3.918 0.14453 2.5781-0.24609 4.9648-1.4805 6.6484-3.4531 0.96875-1.2188 1.6484-2.6367 1.9922-4.1562 0.78125 2.4141 1.8398 4.7305 3.1562 6.9023 0.64844 1.0742 1.4727 2.0352 2.4414 2.8398 0.88281 0.67969 1.9141 1.1406 3.0078 1.3516 0.39453 0.13281 0.82813-0.003906 1.0703-0.34375 0.24219-0.33594 0.23438-0.79297-0.019531-1.1211z"/>
  <path d="m513.26 474.72c-2.25-1.7578-5.0195-2.7148-7.875-2.7227-2.1445 0.14453-4.2969 0.12109-6.4375-0.074219 0.09375-0.78125 0.30859-1.5469 0.63281-2.2656 0.29688-0.63281-0.70703-1.1602-1.082-0.57031-0.45312 0.70703-0.9375 1.4961-1.375 2.3281l-0.98047-0.46875c-2.4297-1.3672-4.5898-3.1719-6.3672-5.3203-0.39062-0.50781-1.0898 0.10547-0.75391 0.61719 0.76953 1.1719 1.2031 2.5117 1.9648 3.6914 0.69531 1.1172 1.543 2.1367 2.5156 3.0273 0.71094 0.64062 1.5078 1.1836 2.3633 1.6094-0.59766 1.8633-0.22656 3.9062 0.99219 5.4414 0.31641 0.36328 0.81641 0.50391 1.2773 0.36719 0.46094-0.14062 0.79688-0.53516 0.85938-1.0117 0.12891-1.2734 0.085937-2.5547-0.12109-3.8164 0.78516 0.13672 1.582 0.20703 2.3828 0.21094 3.0859-0.49609 6.2539-0.027344 9.0664 1.3438 1.1484 0.78125 2.1914 1.707 3.1094 2.75 0.73047 1.082 1.7734 1.9141 2.9883 2.3906 0.40625 0.14062 0.85938 0.058594 1.1914-0.21484 0.33594-0.27344 0.50391-0.69922 0.44922-1.1289-0.10156-2.4844-2.9531-4.7695-4.8008-6.1836z"/>
  <path d="m501.66 490.94c-0.43359-0.14844-0.91406 0.003906-1.1797 0.375-0.26562 0.375-0.25391 0.875 0.027343 1.2383 0.75391 0.89844 1.0273 2.1016 0.73828 3.2383-0.28906 1.1367-1.1094 2.0625-2.2031 2.4883-1.3828 0.41797-2.8203 0.625-4.2617 0.60547-1.7539 0.30859-3.5352 0.44531-5.3125 0.41797-0.28906-0.023438-0.54688 0.1875-0.57422 0.47656-0.027343 0.28906 0.17969 0.55078 0.46875 0.58594 2.5625 0.33984 4.8867 1.4688 7.5195 1.5781 2.0898 0.19531 4.168-0.44922 5.7812-1.7969 1.5234-1.1406 2.332-3 2.125-4.8906-0.20703-1.8906-1.3945-3.5312-3.1289-4.3164z"/>
  <path d="m560.6 539.81c-12.918-4.5859-27.879 3.1836-40.164-4.1602h0.003906c-2.4297-1.5312-4.4141-3.6719-5.7578-6.2109-1.4219-2.9336-3.5898-5.4414-6.2891-7.2734-5.668-2.0938-11.699-3.0195-17.734-2.7148-3.4414 0.019531-6.5898-1.9297-8.1016-5.0195-0.70312-3.6953 0.007812-7.5195 1.9922-10.715 0.80469-1.5938-1.8203-2.9727-2.7734-1.4648h-0.003906c-2.0938 2.9102-3.4219 6.3008-3.8555 9.8594-0.23438 3.5625 1.3477 7 4.2031 9.1406 5.4609 4.1406 12.695 2.8086 19.035 3.6406 3.1016 0.24219 5.9297 1.8672 7.6992 4.4258 1.6758 3.043 3.707 5.8789 6.0508 8.4453 5.1016 4.0273 11.578 5.8906 18.035 5.1914 8.9883-1.543 18.129-1.9609 27.219-1.2344 1.1094 0.23047 1.4844-1.5391 0.44141-1.9102z"/>
  <path d="m562.25 529.59c-2.7266 0.87109-5.0859-1.9805-5.8867-4.2969-0.78125-2.2539-0.89062-4.7305-1.6367-7.0078h0.003907c-1.5703-4.1562-5.2461-7.1562-9.6367-7.8633-3.6211-0.95312-8.2852-1.2734-9.6289-5.4258h0.003906c-0.54297-2.3242-0.87891-4.6914-1.0078-7.0742-0.30078-2.3203-1.0469-4.5625-2.1992-6.6016-1.2891-2.2227-3.0234-4.1562-5.0938-5.6836-1.8828-1.6172-4.3125-2.4453-6.7891-2.3125-0.19922 0.035156-0.36719 0.17188-0.44141 0.35938-0.070312 0.19141-0.039062 0.40625 0.085938 0.56641 1.457 1.7383 3.5977 2.8906 5.1445 4.5898v-0.003906c1.5586 1.7188 2.75 3.7344 3.5117 5.9258 1.6367 4.6562 0.375 9.8945 2.9961 14.281 2.7852 3.6523 7.0586 5.8711 11.648 6.0547 2.0508 0.19141 4.043 0.80078 5.8516 1.7891 1.7852 1.5273 3.0117 3.6055 3.4883 5.9062 1.3828 4.1641 4.832 10.43 10.227 8.25 0.96875-0.39062 0.3125-1.7578-0.64062-1.4531z"/>
  <path d="m539.23 533.26c-4.3281-3.0039-9.7305-3.6953-14.242-6.3086s-6.4922-7.2695-9.6953-11.145c-3.5117-4.0625-8.6172-6.3984-13.988-6.3984-2.7188-0.15625-5.4766 0.046875-8.1914-0.25-2.6523-0.28906-2.3945-3.043-2.9688-5.0898-0.042969-0.21875-0.21094-0.39453-0.42969-0.44531-0.21875-0.050782-0.44531 0.03125-0.58203 0.21094-1.2812 1.4805-1.7891 3.4766-1.3633 5.3906 0.42578 1.9102 1.7305 3.5039 3.5195 4.3008 2.2188 0.55078 4.5117 0.75 6.793 0.59375 2.2461-0.007813 4.4922 0.19531 6.7031 0.60547 4.043 1.2227 7.4102 4.0547 9.3086 7.832 2.1758 3.7227 5.3477 6.7617 9.1602 8.7773 4.7773 1.8789 9.7227 3.2891 14.77 4.2109 1.3477 0.34375 2.5078-1.3867 1.207-2.2852z"/>
  <path d="m542.79 522.22c-3.5039-2.8516-7.3828-5.207-11.531-7-3.8164-1.2617-7.1211-3.7227-9.4219-7.0195-2.2812-4.1914 0.054688-9.1562-1.0391-13.617v-0.003907c-0.46875-2.0117-1.3828-3.8945-2.6758-5.5117-1.4297-1.5195-3.1406-2.7461-5.0352-3.6211-0.26562-0.17188-0.62109-0.10547-0.80469 0.15234-0.18359 0.26172-0.12891 0.61719 0.125 0.8125 1.5391 1.5781 2.6719 3.5117 3.293 5.6289 0.67969 2.0586 0.91406 4.2422 0.68359 6.3984-0.98438 4.6133-0.23828 9.4258 2.0898 13.527 2.5156 3.2695 5.9297 5.7383 9.8242 7.1016 4.6758 1.0664 9.2617 2.4844 13.723 4.2383 0.30078 0.21094 0.71484 0.14062 0.92969-0.16016 0.10156-0.14453 0.14063-0.32031 0.11328-0.49609-0.03125-0.17188-0.12891-0.32812-0.27344-0.42969z"/>
  <path d="m512.34 494.83c-0.53125-2.3516-2.1133-4.3242-4.2891-5.3516-0.25-0.16406-0.58203-0.125-0.78516 0.089844-0.20312 0.21875-0.21875 0.55469-0.039063 0.78906 0.97656 2.0977 1.2109 4.4609 0.67188 6.707-0.375 2.3633-0.91797 4.7422 1.2734 6.3555v0.003906c0.65234 0.44922 1.5469 0.29688 2.0117-0.34766 1.3047-2.5391 1.7148-5.4453 1.1562-8.2461z"/>
  <path d="m484.34 473.8c-0.18359-0.87109-0.11328-1.7969-0.33203-2.6445-0.12891-0.49219-0.70703-1-1.2461-0.67969-2.0742 1.2305-2.6953 6.1406 0.11719 6.9297h-0.003906c0.69531 0.24219 1.457-0.10547 1.7266-0.78906 0.1875-0.94141 0.097656-1.9219-0.26172-2.8164z"/>
  <path d="m429.74 462.98c-2.4492-2.2539-5.4844-3.7891-8.1172-5.8281-2.6992-2.0859-5.2148-4.4023-7.7617-6.668v0.003906c-2.6406-2.4023-5.4609-4.5898-8.4414-6.5547-3.0742-1.9766-6.3203-3.625-9.5234-5.375-6.2461-3.4062-12.703-6.3984-18.922-9.8516v0.003907c0.046876-0.40625-0.070312-0.8125-0.32422-1.1289-3.8594-6.1836-6.3945-13.102-7.4492-20.316-2.0508-7.6992-4.7188-15.219-7.9766-22.492-1.5547-3.6133-3.0156-7.2695-4.5508-10.891-0.70312-1.6523-1.3594-3.3242-2.0312-4.9961-0.78906-1.9766-1.9844-3.8438-2.5703-5.8828-0.59766-1.9102-0.81641-3.9219-0.64453-5.918 0.22656-2.3828 0.21875-4.7578 0.51562-7.1367h0.003907c0.67188-4.3594 1.1211-8.75 1.3477-13.156 0.4375-4.4609-0.75781-8.9297-3.3555-12.582-2.0469-2.5117-4.8281-4.3164-7.957-5.1602 0.050781-1.8828 0.074219-3.7656 0.22266-5.6445l0.007813-0.11328c-1.0938-0.046875-2.125-0.54297-2.8398-1.375l-0.027344-0.035157c-0.46875 1.875-0.82812 3.7734-1.0781 5.6875-0.21094 1.7031-0.30078 3.418-0.55859 5.1172h0.003906c-0.44922 1.6562-0.77734 3.3438-0.98438 5.0469-0.007813 0.92578 0.94141 1.957 1.9297 1.3984h-0.003906c2.0234-1.4062 3.207-3.7344 3.1602-6.1953l0.49219 0.40234h-0.003906c1.4805 1.125 2.8438 2.3945 4.0664 3.793 1.9922 3.3672 2.8125 7.3008 2.332 11.184 0.085937 4.6602-0.11328 9.3047-0.046875 13.961 0.054688 3.9375 1.043 7.6992 1.3828 11.621h0.003907c0.011719 1.8906 0.12891 3.7812 0.34375 5.6602 0.38281 1.9766 0.91406 3.8984 1.4922 5.8242 1.2109 3.7461 2.6289 7.4219 4.25 11.012 3.375 7.0625 6.2109 14.375 8.4766 21.867 0.99609 5.1328 2.543 10.145 4.6133 14.945-3.2734-2.9727-6.3906-6.1133-9.3398-9.4062-4.2305-4.5469-8.293-9.2188-12.586-13.684-1.0625-2.707-2.2461-5.3594-3.4492-8.0117-0.78516-1.7344-1.5664-3.4766-2.2852-5.2461h0.003906c0.58984-2.0234 0.95703-4.1055 1.0938-6.2109 0.45703-3 0.875-6.0078 1.3008-9.0117 0.42578-3.0039 0.69531-6.0273 0.88281-9.0547 0.19531-3.1523-0.050782-6.3086 0.14844-9.4648 0.039063-0.66016-1.0273-0.98828-1.1914-0.27734-0.70703 3.0156-1.8281 5.9023-2.5391 8.9102-0.71094 3.0078-1.3516 6.0391-1.832 9.0938l-0.89453 5.8633c-0.58203-3.0117-0.96484-6.0625-1.2656-9.1133l-0.003906 0.003906c-0.375-8.2227-1.4531-16.398-3.2188-24.438-0.98438-3.8828-2.6094-7.5742-4.8008-10.926-2.3477-3.2227-5.2734-5.9844-8.625-8.1445-0.56641-0.40234-1.1367 0.43359-0.61719 0.87109 2.6953 2.5742 4.793 5.707 6.1523 9.1758 1.4727 3.3008 2.6523 6.7305 3.5234 10.242 1.5703 7.9023 2.5625 15.906 2.9727 23.949 0.36328 4.3867 1.0781 8.7383 2.1406 13.012 1.168 4.1523 2.6797 8.1992 4.5195 12.102 1.625 3.5977 3.2734 7.1797 4.5938 10.906 1.2422 3.5039 2.2812 7.0742 3.4023 10.617 1.1719 3.8516 2.75 7.5625 4.7148 11.074 0.96875 1.7891 2.0547 3.5117 3.25 5.1562 1.25 1.5469 2.6914 2.9258 4.2891 4.1055 0.76953 0.60938 1.6797-0.48438 1.1367-1.2188v0.003907c-2.1758-2.9375-3.9766-6.1328-5.3633-9.5117-1.3594-3.3867-2.3516-6.9922-3.4609-10.477l-0.96094-3.0859c1.1016 1.3828 2.2383 2.7461 3.4023 4.0898h-0.003906c4.8047 6.2461 10.504 11.746 16.922 16.324 3.3438 1.8203 6.8984 3.2227 10.586 4.1836 3.625 1.1758 7.1367 2.668 10.5 4.4609 6.3125 3.7695 12.152 8.2734 17.402 13.422 2.875 2.5898 5.6641 5.3047 8.7344 7.668h-0.003906c2.9023 2.7305 6.6836 4.332 10.66 4.5234 1.4844-0.0625 1.4609-1.9414 0.63281-2.7031z"/>
  <path d="m352.59 314.39c-1.957-0.59766-4.0625-0.54297-6.0703-0.97266-2.1328-0.44141-4.1875-1.1914-6.1055-2.2227-1.6602-0.96484-3.2266-2.0703-4.6914-3.3086-1.6484-1.1602-3-2.6875-3.9531-4.4609-0.23438-0.55078-1.1172-0.28125-0.89453 0.28906 2.1523 3.8008 4.7578 7.3281 7.7578 10.504 2.0703 1.1797 4.3047 2.0547 6.6289 2.5898 2.4258 0.74609 5.0039 0.87109 7.4883 0.35938 1.5-0.42969 1.1133-2.3867-0.16016-2.7773z"/>
  <path d="m375.6 274.99c-1.0742-6.0273-4.9688-11.18-10.48-13.852-3.082-1.3672-6.3242-2.332-9.6523-2.8711-3.4727-0.76172-7.0117-1.1875-10.562-1.2695-5.0742-0.058594-10.027 1.5508-14.098 4.582-1.4766 0.78516-2.8555 1.7344-4.1172 2.832-3.1172 2.6875-5.6758 5.9609-7.5273 9.6328-2.0273 4.0469-3.1602 8.4766-3.332 12.996-0.19141 2.2969-0.039062 4.6094 0.45312 6.8633 0.73828 2.1406 1.8398 4.1406 3.25 5.9141 0.55078 0.82422 1.6719 0.085938 1.6133-0.72266-0.15234-1.9688 0.25781-3.9375 0.19141-5.918-0.066406-1.9766-0.32812-3.918-0.22266-5.9102v0.003907c0.20703-3.9609 1.1562-7.8477 2.8008-11.457 1.1445-2.4922 2.6016-4.8281 4.332-6.9531l0.25-0.27734c3.293-3.6523 7.7031-6.1133 12.543-6.9961 5.9844-0.54297 12.016 0.12109 17.742 1.9492 5.1641 1.125 9.5469 4.5234 11.918 9.2539 0.68359 1.3867 1.1641 2.8672 1.4336 4.3906-2.0742-1.2188-4.3164-2.125-6.6562-2.6875-2.5664-0.44141-5.1992 0.19922-7.2734 1.7734-1.9141 1.4414-3.418 3.3633-4.3477 5.5703-0.67188 1.4258-1.1797 1.6445-2.7266 1.8438v0.003906c-1.5977 0.34375-3.2422 0.42969-4.8711 0.24609-0.32812-0.0625-0.65234 0.14453-0.73438 0.47266-0.078125 0.32812 0.10938 0.66016 0.43359 0.75781 2.3398 1.1914 4.9492 1.7734 7.5742 1.6914 2.4414-0.51562 3.1406-2.7656 4.2891-4.6875 1.2539-2.2461 3.5352-3.7266 6.0977-3.957 2.7266 0.63672 5.375 1.5586 7.9102 2.75l0.55078 0.042968h-0.003906c-0.11719 3.2305-1.1836 6.3594-3.0664 8.9883-0.66797 0.91016 0.46875 2.1836 1.2812 1.293v0.003906c4.1094-4.3594 5.9609-10.383 5.0078-16.297z"/>
  <path d="m344.23 283.58c-1.1055-1.2578-2.6797-2.0117-4.3555-2.082-1.0039 0.039062-1.9766 0.34766-2.8203 0.88672-1.6445 0.375-3.2344 0.94531-4.7461 1.6953-1.4609 0.69922-2.8203 1.5742-4.293 2.2656h0.003907c-1.668 1.1289-3.5508 1.9023-5.5312 2.2656-0.25781 0.027344-0.45313 0.25391-0.4375 0.51562 0.015624 0.26172 0.23437 0.46484 0.49609 0.46094 1.6367-0.03125 3.2812 0.40234 4.9141 0.26562 1.5781-0.22656 3.0938-0.77734 4.4492-1.6172 0.875-0.5 1.707-1.0703 2.4961-1.7031-0.19531 1.25-0.19922 2.5234-0.015625 3.7734 0.28125 2.5586 0.87891 5.0742 1.7734 7.4922 0.55469 1.4336 3.0078 1.168 2.7852-0.52344-0.60938-2.9922-1.0312-6.0195-1.2578-9.0625-0.082031-1.2734 0.39063-2.5156 1.2969-3.4102 1.25-1.1758 3.1289-1.375 4.5938-0.48828 0.48437 0.39062 1.1289-0.32031 0.64844-0.73438z"/>
  <path d="m364.08 270.22c-2.7383-0.69141-5.3047-2.082-8.0508-2.8281l-0.003906 0.003906c-2.75-0.82031-5.6367-1.1016-8.4961-0.82812-2.8203 0.36328-5.5586 1.1992-8.0977 2.4727-2.625 1.3906-5.0938 3.0508-7.3711 4.957-0.95312 0.72656-0.30469 2.5156 0.96094 2.0195 2.457-0.96484 4.9609-1.8086 7.4219-2.7695 2.4609-1.0273 5.0234-1.793 7.6445-2.2812 2.5508-0.39453 5.1367-0.55078 7.7188-0.47266 2.707-0.046876 5.4141 0.19531 8.0703 0.71875 0.63672 0.16406 0.83594-0.83203 0.20312-0.99219z"/>
  <path d="m365.84 295.42c-1.0117-0.11328-1.9922-0.42578-2.8828-0.92188-0.77734-0.52344-1.6719-0.84766-2.6055-0.94141-0.23438 0.015624-0.44922 0.13672-0.58203 0.33203-0.13281 0.19531-0.16797 0.44141-0.097657 0.66406 0.53906 0.99609 1.5352 1.6602 2.6602 1.7812 1.1797 0.17969 2.3789 0.21484 3.5664 0.097657 0.65625-0.003907 0.58594-1-0.058594-1.0117z"/>
  <path d="m367.06 289.57c-1.1484-1.0625-2.668-1.6367-4.2305-1.5938-1.918 0.19141-3.7852 0.74219-5.4961 1.6289-0.20312 0.085938-0.30859 0.3125-0.24219 0.52344 0.070312 0.21094 0.28906 0.33203 0.50391 0.28125 1.8398-0.49219 3.7773-0.47656 5.6094 0.046875 1.1953 0.44141 1.8828 1.7812 3.2344 1.6562 0.48047-0.042969 0.87891-0.38672 0.99219-0.85547l0.09375-0.29297v-0.003907c0.10547-0.51172-0.070313-1.043-0.46484-1.3906z"/>
  <path d="m363.72 299.12c-1.0586 2.2188-1.0742 4.7969-0.042968 7.0273 0.17187 0.25391 0.47266 0.37891 0.76953 0.32031 0.30078-0.054688 0.53516-0.28125 0.60156-0.57812 0.039063-1.0586-0.011719-2.1172-0.16016-3.1641l-0.20703-3.4102c-0.019532-0.22656-0.18359-0.41016-0.40625-0.45703-0.22266-0.042969-0.44531 0.0625-0.55469 0.26172z"/>
  <path d="m357.73 307.88c-0.91406-0.69531-1.9766-1.168-3.1016-1.3906-1.1641-0.36719-2.2539-0.94531-3.2148-1.7031-0.51953-0.46094-1.1406 0.29297-0.69922 0.78516 0.86719 1.0938 1.8594 2.082 2.9609 2.9414 1.0156 0.88281 2.375 1.2617 3.6992 1.0352 0.33203-0.11328 0.57422-0.39453 0.64844-0.73438 0.070312-0.33984-0.039063-0.69531-0.29297-0.93359z"/>
 </g>
</svg>