<?xml version="1.0" encoding="UTF-8"?>
<!-- Uploaded to: ICON Repo, www.iconrepo.com, Generator: ICON Repo Mixer Tools -->
<svg fill="#000000" width="800px" height="800px" version="1.1" viewBox="144 144 512 512" xmlns="http://www.w3.org/2000/svg">
 <g>
  <path d="m284.62 318.67c-2.5742-0.070313-5.3203-0.55078-7.9102-0.80078-2.7109-0.26172-5.3906-0.76953-8.0898-1.1172-4.4336-0.62109-8.9336-0.59375-13.363 0.082032-8.8867 1.1406-16.617 6.6602-20.578 14.699-4.4219 8.2461-4.2695 18.188 0.39453 26.297 2.3125 3.2695 5.668 5.6484 9.5156 6.7461 3.4375 1.2344 7.1797 1.3359 10.684 0.29688 0.3125-0.14844 0.51172-0.47266 0.5-0.82031-0.011719-0.34766-0.22656-0.65625-0.55078-0.78516-1.5898-0.58594-3.3047-0.60547-4.9141-1.1797-1.4531-0.53906-2.832-1.2617-4.0938-2.1602-2.6602-1.6836-4.9102-3.9453-6.5859-6.6094-3.0781-7.3516-2.082-15.777 2.6289-22.207 4.4883-5.5938 11.199-8.9453 18.371-9.168 4.0195-0.097656 8.0391 0.23047 11.992 0.97266 2.1719 0.36719 4.3633 0.56641 6.5625 0.59766 2.0742-0.13281 4.0977-0.6875 5.9492-1.625 0.68359-0.32031 1.0703-1.0547 0.95312-1.8008-0.12109-0.74609-0.71484-1.3203-1.4648-1.418z"/>
  <path d="m276.34 335.55c-1.3555-2.6445-3.7656-4.5898-6.6367-5.3594-2.5508-0.90625-5.3789-0.58203-7.6562 0.88281-1.957 1.7734-2.3359 4.707-0.89453 6.918 0.34766 0.53125 0.78125 1.0039 1.2891 1.3867-1.3594 2.4727-4.793 2.5469-7.125 3.7734-2.0234 0.97266-3.75 2.4648-5.0078 4.3242-1.0156 1.6758-1.3789 3.6641-1.0156 5.5859 0.16797 1.1641 0.50391 2.2969 0.99609 3.3633 0.57422 0.99219 1.2344 1.9297 1.9727 2.8047 0.44141 0.67969 1.3633-0.035157 1.1367-0.69922h0.003906c-0.77734-2.1758-0.89844-4.5312-0.35547-6.7773 0.96094-2.0664 2.5859-3.75 4.6133-4.7852 2.4453-1.5508 5.8242-3.6797 6.625-6.7109 0.9375 0.22266 1.9258-0.023437 2.6445-0.66797 0.22266-0.18359 0.29688-0.49219 0.17969-0.75781-0.60547-0.875-1.1484-1.7891-1.625-2.7383-0.53125-1.2656-0.91406-1.9844 0.43359-2.1094 3.1875-0.10938 6.3086 0.91016 8.8164 2.8789 0.78516 0.63672 2.1641-0.39844 1.6055-1.3125z"/>
  <path d="m278.68 363.27c-0.066407-0.39844-0.33984-0.73047-0.71875-0.875-0.37891-0.14062-0.80469-0.078125-1.1211 0.17578-1.3398 1.293-2.9648-0.027343-4.3906-0.41406-1.0625-0.30859-2.1719-0.42969-3.2773-0.36328l-0.82812 0.10938c-0.22656-0.94922-0.69141-1.8633-1.75-1.7734h0.003906c-0.32031 0.039063-0.58203 0.27344-0.65234 0.58984l-0.007812-0.050781c-0.25391 0.63672-0.38672 1.3164-0.38281 2-1.3008 0.48047-2.5703 1.0781-3.8359 1.625h0.003906c-0.125 0.0625-0.20312 0.19141-0.19922 0.32812 0.003906 0.14062 0.089843 0.26172 0.21875 0.31641 1.1953 0.33984 2.4727 0.26953 3.625-0.20703-0.11328 0.94922-0.14453 1.9102-0.089844 2.8633 0.089844 0.49609 0.46484 0.89453 0.95703 1.0078 0.49219 0.11719 1.0039-0.074218 1.3047-0.47656 0.73438-1.1641 1.1016-2.5234 1.0625-3.8984 1.7266 0.23828 3.4062 0.76172 4.9648 1.5508 1.9609 0.80078 5.6406 0.48438 5.1133-2.5078z"/>
  <path d="m307.05 441.8c-0.28906-9.4297-1.543-18.805-3.7383-27.98-1.2656-4.2852-2.1094-8.6836-2.5234-13.133-0.78906-9.6172-2.3984-19.145-4.8164-28.484-1.1602-5.0977-2.3281-10.23-3.9727-15.195-1.2266-3.707-2.8281-7.2852-4.043-10.984l-0.089844-1.8125v-0.003906c-0.09375-3.2383 0.14453-6.4805 0.70312-9.6719 0.19531-1.2422-1.3945-1.5625-2.082-0.77734-2.3984 3.6797-3.2969 8.1367-2.5117 12.461 0.16406 2.5859 0.12109 5.1836-0.13281 7.7617-0.36328 2.8477-1.0938 4.8477-4.1055 5.5508-0.40234 0.09375-0.44922 0.76953 0.023437 0.77344v0.003906c3.293 0.19531 6.3242-1.8008 7.4453-4.9062 0.86719 3.8203 1.7578 7.6328 2.6484 11.449l0.66016 2.8438c-0.68359 6.8164-0.81641 13.676-0.39453 20.516 0.24219 8.1523 1.0469 16.309 1.0664 24.465h-0.003906c0.027344 3.707-0.15625 7.4141-0.55078 11.102 0.011719 2.0547-0.47656 4.0781-1.4219 5.9023-1.0391 1.0898-3.9219 0.96094-5.3789 1.2109l0.003906-0.003906c-3.2852 0.14062-6.4492 1.2734-9.0742 3.25-1.2383 1.1445-2.5977 2.1523-4.0547 3.0039-1.7695 0.67969-3.5781 1.2461-5.418 1.6992-0.85547 0.35156-0.9375 1.8867 0.066406 2.1289h-0.003906c3.4844 0.41406 7-0.44531 9.8984-2.4219 1.4141-0.97656 3.0156-1.6406 4.7031-1.9531 2.1992-0.37109 4.4062-0.70703 6.6055-1.0742 3.832-0.63672 6.3281-1.0039 7.707-4.9961h0.003907c1.4141-4.0039 2.168-8.207 2.2344-12.453 0.019532-8.7734-1.5195-17.504-2.1133-26.25-0.16797-2.457-0.26172-4.9375-0.33984-7.4297 0.46484 2.5508 0.89062 5.1055 1.25 7.6562 0.58984 4.207 0.33984 8.4805 1.1094 12.668 0.80078 4.3672 2.1602 8.6133 2.9727 12.984 1.25 7.1797 2.1367 14.418 2.6523 21.691-2.9492-1.6992-6.4609-2.1172-9.7266-1.1602-2.4141 0.74219-4.7578 1.457-7.2109 2.082h0.003907c-2.5469 1.0586-5.2461 1.6875-7.9961 1.8672-0.31641-0.023438-0.60156 0.1875-0.67188 0.49609-0.074219 0.3125 0.089844 0.625 0.38672 0.74609 3.7695 0.89453 7.707 0.78125 11.418-0.32422 4.3867-0.93359 8.9648-0.19141 12.832 2.0742 0.42969 0.30469 0.9375 0.48047 1.4609 0.50391 1 4.3633 0.03125 8.9414-2.6445 12.527-2.6992 2.7305-7.0273 4.0312-8.9531 7.4336-0.75391 1.3359 0.44531 3.4141 2.0938 2.5586l0.003906 0.003906c3.082-1.6523 6.0039-3.5938 8.7188-5.8008 2.8477-2.2734 4.7266-5.543 5.2539-9.1484 0.43359-4.4727 0.44922-8.9727 0.046876-13.449z"/>
  <path d="m313.88 485.8c-0.55859-2.3633-2.3984-3.5234-3.8984-5.2969-1.75-2.8164-2.5703-6.1133-2.3477-9.4258-0.62891-5.4844-6.875-3.3633-9.7578-1.3672-0.51562 0.35938-0.10547 1.3438 0.51953 1.1602 1.0078-0.35938 2.0625-0.55469 3.1328-0.57422 1.2812 0.13281 1.2539 0.60547 2.125 1.5547l-0.003906 0.003906c1.2539 1.7617 2.0391 3.8125 2.2812 5.9609 1.4648 3.3164 3.6094 6.2891 6.2891 8.7266 0.27344 0.31641 0.72266 0.41797 1.1055 0.24609 0.38281-0.17188 0.60938-0.57422 0.55469-0.98828z"/>
  <path d="m437.95 428.08c-2.3555 0.070313-4.6992-0.29688-6.918-1.0898-2.0117-0.83984-3.7422-2.1758-5.7344-3.0742-3.9766-1.7891-8.043-3.3672-12.012-5.1875-8.5352-3.9219-17.152-7.6172-25.586-11.762-8.0938-3.9766-16.164-7.9141-24.008-12.379-7.9219-4.5117-15.688-9.2969-23.477-14.035-4.2383-2.5781-8.4688-5.1445-12.859-7.457-3.4766-2.1602-7.1797-3.9297-11.043-5.2773l-0.51172-3.5078c-0.85547-5.6602-2.2852-11.129-3.293-16.742v-0.003906c-0.058594-0.30859-0.35547-0.51172-0.66406-0.46484-0.3125 0.050782-0.52734 0.33594-0.49219 0.64844 0.32422 4.4688 0.16016 8.9258 0.54688 13.402 0.38281 4.4336 0.73828 8.875 1.0703 13.312 0.625 8.6133 0.67188 17.434 1.8594 25.988 0.57812 4.1758 2.1445 8.1172 2.8633 12.262h-0.003906c0.66406 4.293 0.71484 8.6562 0.15234 12.965-0.45703 4.1211-1.2383 8.1953-1.7852 12.305-0.55469 4.1562-0.67578 8.2617-0.84375 12.445v-0.003906c-0.74609 3.5859 0 7.3203 2.0664 10.34 3 3.4961 6.582 6.4453 10.586 8.7227 0.47656 0.31641 1.1094 0.23828 1.5-0.17969 0.39062-0.41797 0.42188-1.0547 0.074219-1.5078-1.5156-2.0547-3.2734-3.9219-5.2305-5.5625-1.7617-1.5312-4.6992-3.2383-5.6055-5.4688-0.63281-2.8008-0.53125-5.7188 0.29688-8.4688 0.46484-2.3008 1.0469-4.5703 1.5547-6.8633l0.48828-2.2305 0.42969 0.10547c5.1797 0.51953 10.215-1.9102 13.035-6.2852 1.3633-2.5 2.2852-5.2148 2.7305-8.0312 0.64844-2.9492 2.457-5.5781 2.918-8.5391h-0.003906c0.027344-0.28125-0.10156-0.55859-0.33203-0.72656-0.23047-0.16797-0.53516-0.20312-0.79688-0.089843-2.5 1.3164-4.5508 3.3398-5.8945 5.8242-1.6445 2.7656-2.2109 6.0742-4.0508 8.707-1.5508 2.2422-3.7773 3.9336-6.3594 4.8242l-0.86328 0.3125c1.8984-7.8242 2.25-15.941 1.043-23.902-0.96875-4.957-2.8008-9.5898-3.293-14.656-0.53906-5.5391-0.78906-11.098-1.4922-16.621-0.32812-2.5938-0.67578-5.1875-1.0391-7.7812 2.0859 1.7148 4.4648 3.1641 6.5781 4.6289 3.7266 2.582 7.5508 4.9922 11.43 7.3359 7.9688 4.8125 15.922 9.6523 24.035 14.215l1.6016 0.88281c-1.4727 1.6133-2.9609 3.5352-4.9609 3.8242-2.4023 0.34375-4.2695-0.29297-6.5352 0.94531l0.003906 0.003907c-3.9727 2.1328-6.9531 5.7305-8.3086 10.031-0.23828 1.0273 1.2617 1.7578 1.9922 1.0703 3.6016-3.3945 5.9023-8.7109 11.465-8.7891v-0.003907c1.4297 0.089844 2.8594-0.16797 4.168-0.75-0.19141 0.125-0.27344 0.36328-0.20703 0.58203 0.30469 1.4023 0.44531 2.832 0.42578 4.2656-0.019531 0.32812 0.097656 0.65234 0.32812 0.89062 0.23047 0.23438 0.55078 0.36719 0.87891 0.35547 0.32812-0.007812 0.64062-0.15625 0.85547-0.40625s0.31641-0.57812 0.27734-0.90625c-0.20703-1.6094-0.73828-3.1602-1.5664-4.5508-0.20313-0.32031-0.61328-0.42969-0.94531-0.25391l0.80469-0.53516h-0.003906c1.4688-1.293 2.7617-2.7695 3.8555-4.3945 5.1836 2.7852 10.461 5.3867 15.781 7.8906h-0.003906c0.39844 1.1758 0.70703 2.3789 0.92188 3.5977l0.089844 0.89453c-0.28516 0.44531-0.65625 0.84375-0.94922 1.3047h0.003906c-0.42578 0.78906-0.91797 1.543-1.4688 2.2539-1.2109 1.375-2.6836 2.3828-3.9766 3.6445h0.003907c-0.36719 0.32031-0.44531 0.85547-0.19141 1.2656 0.25 0.41406 0.76563 0.58203 1.2148 0.40234 2.5664-0.72656 4.8398-2.25 6.4883-4.3477 0.34375-0.46875 0.60547-0.99219 0.78516-1.543 0.69922-1.082 1.0664-2.3438 1.0625-3.6328 0.015625-0.67578-0.015625-1.3516-0.09375-2.0273 3.4258 1.5781 6.8672 3.125 10.316 4.6602l-1.4375 1.6328c-1.4336 1.5742-2.5625 3.5078-4.0508 5.0039h-0.003907c-0.37109 0.33203-0.41406 0.89453-0.10156 1.2812 0.31641 0.38281 0.87891 0.45312 1.2773 0.15234 1.9688-1.0234 3.8672-2.1719 5.6914-3.4336 1.0625-0.79688 2.0312-1.7148 2.8828-2.7344 3.9023 1.7344 7.8008 3.4648 11.688 5.2305l3.0859 1.4336 0.003906-0.003906c-0.89062 1.6133-1.8789 3.1719-2.957 4.6641-1.5898 2.4727-3.6484 4.6055-6.0625 6.2812-0.33203 0.16406-0.47656 0.55859-0.32812 0.89844 0.15234 0.33984 0.54297 0.5 0.88672 0.35937 1.6328-0.28125 3.2305-0.73047 4.7734-1.3438 1.3164-0.73047 2.5-1.6836 3.4922-2.8203 1.7031-1.8359 3.1016-3.9336 4.1484-6.207 2.2852 1.0547 4.6289 1.9766 7.0195 2.7617 2.2383 0.57031 4.5508 0.8125 6.8594 0.71875 2.5938 0.066406 5.1719 0.63281 7.7891 0.71484 1.0742 0.039063 1.2422-1.6406 0.16406-1.6602z"/>
  <path d="m321.07 482.59c-0.88281-1.8945-1.5117-3.8242-2.5586-5.6523v0.003906c-1.5625-3.3164-3.7656-6.2891-6.4766-8.7539-0.1875-0.125-0.42969-0.12891-0.62109-0.007812-0.19531 0.11719-0.29688 0.33984-0.26953 0.5625 0.61328 3.6523 1.8984 7.1602 3.7891 10.344 0.86719 1.7578 1.9844 3.2227 2.9805 4.8984 0.90625 1.5156 1.2969 2.9609 2.8281 3.8984l0.003906 0.003907c0.32812 0.22266 0.74609 0.25781 1.1094 0.09375 0.35938-0.16406 0.60938-0.50391 0.65234-0.89844-0.046875-1.6016-0.54688-3.1602-1.4375-4.4922z"/>
  <path d="m328.96 481.08c-1.8867-3.4688-4.0117-6.8008-6.3594-9.9766-1.5625-1.8594-4.4844-5.8945-7.2852-5.457-0.17188 0.03125-0.30859 0.16406-0.35156 0.33203-0.039063 0.17188 0.027343 0.35156 0.16797 0.45313 0.5625 0.35156 1.0508 1.7227 1.4648 2.293 0.55469 0.76172 1.1641 1.4727 1.7656 2.1992 1.3242 1.543 2.5625 3.1602 3.7031 4.8438 1.5977 2.4531 2.2461 7.1133 5.8398 7.2773 0.48047 0.035156 0.93359-0.21875 1.1602-0.64062 0.23047-0.42578 0.1875-0.94141-0.10547-1.3242z"/>
  <path d="m400.23 378.52c-1.625-4.125-3.5234-8.1367-5.6797-12.012-1.7383-3.7969-4.1445-7.2461-7.1133-10.188-7.168-6.5508-16.574-4.0547-25.199-6.2422-4.4219-1.5117-8.4414-4.0156-11.75-7.3164-4.0977-3.4102-8.3633-6.6094-12.457-10.02l-0.003906 0.003907c-7.168-6.8008-15.105-12.746-23.652-17.711-3.8867-2.2852-8.3672-3.3672-12.867-3.1055-4.5039 0.26172-8.8281 1.8516-12.426 4.5703-0.59766 0.52734-0.007813 1.625 0.76172 1.2383 17.383-8.7578 34.234 9.5195 46.203 19.648 6.4688 6.6289 13.738 12.43 21.637 17.266 7.7148 3.7266 17.469-0.34375 24.68 4.5352 7.5898 5.1289 7.8867 16.969 16.094 21.219 1.1836 0.60938 2.1172-0.88281 1.7734-1.8867z"/>
  <path d="m515.42 449.74c-0.40625-2.3594-1.3711-4.5859-2.8086-6.5-2.0234-2.0234-4.4336-3.6172-7.0898-4.6797-6.3398-2.4492-12.914-4.2422-19.621-5.3516-6.8125-1.5117-13.703-2.668-20.637-3.457-3.6484-0.39844-7.3047-0.55469-10.965-0.85547-3.7266-0.3125-7.3281-0.15234-11.035-0.19141l0.003906-0.003906c-0.36719-0.019531-0.6875 0.25391-0.72656 0.62109-0.035156 0.36719 0.22266 0.69922 0.58984 0.75 6.1953 0.98047 12.438 2.2344 18.605 3.4375 6.3516 1.2383 12.711 2.457 19.051 3.7539 3.1016 0.63281 6.1953 1.3164 9.2812 2.043v0.003906c-3.8438 3.7109-8.7383 6.1445-14.02 6.9688-7.2891 0.34375-14.516-1.5078-20.742-5.3125-7.5547-3.0898-15.887-3.75-23.84-1.8906-4.5273 0.83203-9.0078 1.8633-13.551 2.6016v0.003907c-4.2969 0.52734-8.5391 1.4531-12.664 2.7695-0.23047 0.10938-0.36328 0.35547-0.32422 0.60938 0.042969 0.25 0.24219 0.44531 0.49609 0.47656 4.6953 0.12109 9.3945-0.19531 14.031-0.94531 4.5664-0.53516 9.1641-0.80078 13.746-1.1875 4.793-0.65234 9.6562-0.53516 14.41 0.35156 4.0586 1.2773 7.9922 2.9219 11.754 4.9102 6.5234 3.0391 13.922 3.625 20.84 1.6523 5.9297-1.5352 11.195-4.9688 14.988-9.7734l4.125 1.0391c2.8516 0.60156 5.5938 1.6328 8.1367 3.0547 2.4883 1.3281 4.5938 3.2695 6.1211 5.6406 0.43359 0.96875 2.1562 0.55078 1.8438-0.53906z"/>
  <path d="m520.79 469.14c-0.47266-2.6992-1.1523-5.3594-2.0391-7.9531-0.61719-2.7109-1.5234-5.3477-2.6953-7.8672-0.23828-0.44531-1.0469-0.43359-1.0586 0.16797 0.58203 5.582 1.4648 11.129 2.6523 16.613 0.27734 3.0742-0.73828 6.125-2.8008 8.4219-1.0977 1.2852-1.9648 2.3828-0.65625 3.8047 0.29297 0.33984 0.76953 0.44531 1.1797 0.26562 0.40625-0.18359 0.64453-0.61328 0.58594-1.0547-0.33984-2.0664 2.9844-3.7773 3.918-5.6836 0.96484-2.0977 1.2812-4.4375 0.91406-6.7148z"/>
  <path d="m531.7 433.73c-0.88281-2.3359-2.7109-4.1875-5.0273-5.1094-2.7031-0.55859-5.4727-0.73047-8.2227-0.51562-0.33203-0.027344-0.625 0.21875-0.65625 0.55078-0.035157 0.33203 0.20312 0.62891 0.53516 0.67188 4.5391 0.62891 8.2227 3.9922 9.2617 8.457 0.14453 5.2422-0.42969 10.477-1.6992 15.566-0.30469 5.1797-0.27734 10.371 0.078125 15.547 0.41406 4.7539-1.4492 9.4258-5.0234 12.59-0.41797 0.36719-0.50781 0.98047-0.21875 1.4531 0.29297 0.47266 0.88281 0.66797 1.3945 0.46094 4.4766-2.0195 7.4766-6.3359 7.8125-11.234 1.2617-6.8789 0.21094-13.977 1.3203-20.914 1.8438-5.6758 2-11.766 0.44531-17.523z"/>
  <path d="m536.74 424.29c-1.6992-4.7852-4.0273-9.3242-6.918-13.496-2.9961-4.4219-4.9062-9.4883-5.5664-14.789-0.33984-2.5391-0.58984-5.2227-0.69141-7.9219l0.078125-0.32422c0.59375-2.6094 1.1484-5.2227 1.8047-7.8164v0.003906c0.44922-2.5 1.1406-4.9492 2.0625-7.3164 0.54297-1.1328-1.3242-2.1367-1.9648-1.0391-1.3125 1.9414-2.5 3.9648-3.5586 6.0547-0.83594 2.0586-1.5586 4.1641-2.1562 6.3047-1.4453 4.7852-2.8125 9.5742-4.4961 14.281v-0.003906c-1.7109 4.6875-3.7344 9.2539-6.0547 13.668-1.0078 1.9805-2.1797 3.8711-3.5039 5.6523-1.0234 1.1211-1.9531 2.3203-2.7773 3.5938-1.2305-0.63672-2.457-1.2734-3.6641-1.9258-4.5859-2.4805-9.0898-5.0977-13.699-7.543-1.5508-0.82031-3.0938-1.6953-4.6562-2.5391 0.375-0.44922 0.71484-0.92578 1.0234-1.4219 1.7266-2.6836 3.3008-5.4609 4.7109-8.3242 2.9375-6.0781 5.6367-12.277 8.8594-18.215 2.6797-5.0742 5.8984-9.8516 9.5898-14.246 3.8359-4.4648 8.9219-7.3594 12.887-11.609 1.0469-1.1211-0.33594-2.9102-1.668-2.6875v0.003906c-5.082 1.4609-9.5859 4.4648-12.891 8.5977-3.8438 4.0586-7.2148 8.543-10.043 13.367-3.1172 5.2305-5.7578 10.73-8.3398 16.246-1.3359 2.8555-2.7188 5.6953-4.0273 8.5664-0.6875 1.5117-1.2461 3.0547-1.8906 4.5781v-0.003906c-0.37891 1.207-0.91797 2.3555-1.6016 3.418-1.3125-0.63281-2.6641-1.1836-4.043-1.6484-2.7109-0.86328-5.5039-1.4336-8.332-1.6953l0.20312-0.23438-0.003906 0.003907c0.87891-1.1758 1.6328-2.4414 2.2461-3.7734 1.6484-3.3711 3.1641-6.8164 4.6133-10.277 2.875-6.875 5.6172-13.816 8.6406-20.629 2.8477-6.7031 6.2812-13.141 10.266-19.234 1.7188-2.6211 3.7266-5.0469 5.9805-7.2305 2.4844-1.8086 4.7695-3.8828 6.8125-6.1836 0.1875-0.27734 0.21875-0.63672 0.078125-0.94531-0.14062-0.30469-0.43359-0.51953-0.76562-0.55859-5.7422-0.59766-11.203 6.1523-14.281 10.164l-0.003906 0.003906c-4.1484 5.6953-7.6758 11.82-10.508 18.273-2.0078 4.2969-3.8672 8.6641-5.6562 13.062-7.5859-2.6133-15.652-3.5195-23.629-2.6602-4.1055 0.28516-8.168 1.0234-12.109 2.207-1.918 0.57422-3.8047 1.2188-5.6641 1.9688h0.003906c-1.5117 0.65234-2.9688 1.4336-4.3516 2.3242-0.011719-2.2227-0.16406-4.4453-0.45703-6.6523-0.28906-2.0938-0.27344-5.9492-2.8203-6.6562-2.9141-0.28906-5.8516 0.13672-8.5586 1.2461-3.4336 1.1211-6.7109 2.6719-9.7539 4.6211-0.73828 0.44531-0.28516 1.6133 0.55859 1.2578 2.6445-1.0664 5.3789-1.875 8.1758-2.418 2.2266-0.46875 4.5977-0.56641 6.7891-1.125 0.51953 0.17188 1.0859-0.027344 1.3828-0.48828l0.37109 2.0586c0.16797 1.0312 0.30078 2.0703 0.41406 3.1094v-0.003906c0.24219 2.2305 0.35938 4.4727 0.35547 6.7109-5.2656-0.71094-10.613-0.58203-15.836 0.38672-0.71875 0.10547-0.72656 1.3242 0.039063 1.3086l-0.003907-0.003906c5.3242 0.019531 10.605 0.9375 15.625 2.7148 2.0547 0.68359 4.5859 1.2109 5.418 3.4648 0.47656 1.8398 0.50391 3.7656 0.082031 5.6172-2.5547-1.3672-5.1133-2.7188-7.7031-4.0273-4.75-2.3945-9.6992-4.2852-14.543-6.4727-0.83594-0.37891-1.5078 0.91406-0.75 1.418 4.2891 2.8516 8.3867 5.9727 12.797 8.6406 4.4258 2.6758 8.918 5.2148 13.422 7.7539 3.6328 2.375 7.5664 4.2539 11.695 5.582 4.457 0.78125 8.9883 1.0391 13.504 0.75781 4.5312-0.12109 9.0625 0.34375 13.477 1.3867 4.3594 1.4219 8.5547 3.3047 12.508 5.625 4.4648 2.3359 8.9922 4.5195 13.492 6.7852 4.6914 2.6523 9.543 5.0195 14.523 7.0781 0.82031 0.27734 1.7227-0.082031 2.1289-0.84766 0.40625-0.76953 0.19531-1.7148-0.5-2.2383-1.5859-1.1328-3.2344-2.1758-4.9375-3.125 2.2344-2.2148 4.0625-4.8047 5.3945-7.6484 2.293-4.4336 4.2617-9.0273 5.8906-13.742l0.87891-2.4766c0.50781 3.4727 1.6484 6.8242 3.3633 9.8906-0.32422 2.9375-1.5938 5.918 0.22266 8.6211 0.73047 1.043 1.707 1.8828 2.8398 2.457 1.5039 0.80469 3.5586 0.85938 4.918 1.7891h-0.003906c0.26172 0.18359 0.57812 0.28125 0.89844 0.27344l0.46094 1c1.043 2.7383 1.5078 5.668 1.3555 8.5977-0.14844 2.3516 0.28516 4.707 1.2578 6.8555 0.17969 0.37109 0.62109 0.53125 0.99609 0.36719 0.375-0.16797 0.55469-0.60156 0.40234-0.98438-0.92969-2.9453 0.81641-5.2383 0.92969-8.1523l-0.003906 0.003906c0.03125-2.168-0.32031-4.3242-1.0391-6.3672zm-108.61-41.004-1.0664-0.38672 0.011718-0.89062c1.4219-0.28516 2.918-0.46484 4.3086-0.79297 1.8633-0.4375 3.7422-0.83203 5.6328-1.1602h0.003906c3.9609-0.69141 7.9531-1.1797 11.965-1.457 3.9727-0.24609 7.957-0.21484 11.922 0.09375 1.9258 0.13281 3.8438 0.33984 5.7656 0.47656 1.6367 0.11719 3.2188 0.4375 4.8242 0.65625l-1.8164 4.5664-1.6133 4.1016c-1.5195 0.03125-3.0352 0.21484-4.5156 0.55469-1.9766 0.24609-3.918 0.37891-5.8867 0.75-3.7109 0.69922-7.4141 1.4375-11.113 2.1953-3.6172 0.73828-7.2812 1.375-10.848 2.3438-0.84375 0.21875-1.668 0.51172-2.4609 0.87891 0.33203-4.8281 0.25781-9.8086-5.1133-11.93zm34.344 20.57-1.7891-0.0625v-0.003906c-4.5938 0.29297-9.207 0.29297-13.801 0-4.5625-1.0586-8.8984-2.918-12.809-5.4883 5.2188-1.0547 10.555-1.7266 15.785-2.6719 3.3594-0.60547 6.7305-1.1992 10.066-1.9141 1.7695-0.38281 3.4727-0.99609 5.2344-1.4062l1.5859-0.35156-1.125 3.082c-0.63672 1.8086-1.2422 3.6328-1.9062 5.4336-0.33594 0.91797-0.73438 2.2773-1.2383 3.3828zm65.164 14.164h0.003907c-1.8359-1.2734-2.8203-3.4531-2.5664-5.6719 1.4883 2.168 3.1836 4.2266 4.707 6.3711-0.73828-0.14453-1.457-0.37891-2.1406-0.69922z"/>
  <path d="m346.43 415.73c-6.0742 2.5273-7.0078 10.34-9.1445 15.734v0.003906c-1.0859 3.2305-3.2383 5.9961-6.1055 7.8398-3.2695 1.9336-6.9414 3.0469-10.188 4.9805-0.46875 0.22656-0.70703 0.76172-0.55859 1.2617 0.14453 0.5 0.63672 0.82031 1.1523 0.75781 2.0742-0.21484 3.9844-0.86719 6.0195-1.2617v-0.003907c1.8828-0.26953 3.7422-0.6875 5.5625-1.25 3.1758-1.1562 5.793-3.4805 7.3203-6.5 1.418-3.0586 2.4453-6.2852 3.0664-9.6016 0.88281-3.6758 2.2383-7.2227 4.0234-10.555 0.23047-0.34766 0.20312-0.80469-0.058594-1.125-0.26562-0.32031-0.70312-0.43359-1.0898-0.28125z"/>
  <path d="m374.82 431.64c-1.4258-1.3594-3.1016-2.4375-4.9297-3.1758-2.0625-0.46484-4.043-1.2422-5.8789-2.2969-0.70312-0.59766-1.4141 0.4375-1.0117 1.0859 2.9219 4.707 12.211 6.75 10.086 14.031-1.1172 3.8359-5.3359 4.332-9.6211 4.4531 5.2227-6.1914-0.34375-14.977-4.8359-20.383-1.0508-1.2578-2.8281 0.26953-1.9414 1.5898 1.9805 2.9492 3.4531 6.207 4.3594 9.6406 0.82422 1.9727 0.55078 4.2344-0.71875 5.9531-1.1523 1.2734-2.5859 2.2617-4.1875 2.8867-2.7461 0.92578-5.6445 1.3164-8.5391 1.1484 0.64844-0.46094 1.2539-0.97656 1.8086-1.543 2.4766-2.6328 3.9688-6.0352 4.2305-9.6367-0.003906-4.4492-0.8125-8.8633-2.3945-13.023-0.33203-1.2148-2.1836-0.99219-1.9766 0.3125 1.0234 6.5586 1.5078 16.285-4.9297 20.348-5.6602 3.5703-13.336 2.1602-18.66 6.3398-0.48438 0.41406-0.63672 1.1016-0.375 1.6836 0.26172 0.58203 0.875 0.92188 1.5078 0.83984 3.6719-0.63281 7.4336-1.1133 11.105-1.8047h-0.003907c2.1133 0.29688 4.25 0.38672 6.3828 0.26562 2.3906 0.34766 4.8086 0.53906 7.2266 0.5625 2.2031-0.058594 4.3789-0.51562 6.418-1.3555 7.5469 1.25 17.906 2.4062 20.234-6.7461h0.003907c0.95703-4.0586-0.32422-8.3203-3.3594-11.176z"/>
  <path d="m358.2 414.74c-0.23828-0.8125-0.58203-1.5898-1.0195-2.3164-0.27344-0.74609-0.41406-1.5352-0.41016-2.332-0.074219-0.41016-0.38281-0.73438-0.78906-0.83203-0.40234-0.09375-0.82422 0.0625-1.0742 0.39453-0.66406 1.0781-0.85547 2.3789-0.52734 3.5977 0.16016 1.3906 1.1836 2.5273 2.5508 2.832 0.35938 0.03125 0.71094-0.10156 0.96094-0.36328 0.24609-0.26172 0.35938-0.62109 0.30859-0.98047z"/>
  <path d="m399.85 443.34c-2.6836-0.91797-5.2305-2.2109-7.5547-3.8359-1.5117-1.8242-2.7812-3.8281-3.7852-5.9688-1.8984-3.7188-5.5547-6.2109-9.707-6.6211-0.20703-0.011719-0.39844 0.10938-0.47266 0.30469-0.074219 0.19531-0.007812 0.41406 0.15625 0.53906 3.6562 3.3281 6.6523 7.3203 8.8281 11.762 2.6172 4.043 7.2383 6.3281 12.043 5.957 0.54688 0.046875 1.043-0.31641 1.168-0.85547 0.125-0.53516-0.16406-1.0781-0.67578-1.2812z"/>
  <path d="m567.73 434.22c-4.2031-1.2227-8.3086-2.7461-12.289-4.5664-3.1641-1.8828-5.4531-4.9414-6.3633-8.5078 1.3008 0.082031 2.6055-0.12109 3.8242-0.59766 0.23047-0.10938 0.39062-0.33203 0.41797-0.58984 0.023437-0.25391-0.085938-0.50391-0.29688-0.65625-1.5234-0.97266-3.2617-1.5625-5.0664-1.7227-0.40234-1.3711-0.78125-2.7539-1.1328-4.1406 2.6992 3.4141 7.0039 5.1523 11.316 4.5664 0.42578-0.082031 0.75-0.43359 0.79297-0.86719 0.042969-0.43359-0.20312-0.84375-0.60547-1.0039-2.8711-0.95312-5.5547-2.3945-7.9375-4.2656-1.4141-1.1133-3.2617-2.3555-4.8203-3.7266-1.0898-4.9609-1.9961-9.9688-2.9453-14.934-1.7266-9.0312-3.3555-18.098-5.9219-26.938-1.75-6.0234-5.3008-15.066-13.227-13.582l0.003906-0.003906c-0.16797 0.03125-0.29297 0.16797-0.30859 0.33594-0.019531 0.16797 0.078125 0.32812 0.23438 0.39062 4.6445 1.5234 6.2227 5.7383 7.6016 9.9922 1.3789 4.2539 2.418 8.6445 3.3711 13.008 2.0039 9.1562 3.3125 18.441 5.1719 27.629 0.91016 4.5 1.9219 8.9844 3.1523 13.41 0.82031 3.8711 2.25 7.5898 4.2383 11.012 4.9336 6.1484 12.73 9.2578 20.543 8.1992 0.55859-0.10547 0.98047-0.5625 1.0391-1.1289 0.054687-0.56641-0.26562-1.1016-0.79297-1.3125z"/>
  <path d="m517.04 347.38c-0.60156-1.8516-1.3594-3.6445-2.2734-5.3633-0.77734-1.3555-1.7539-2.5898-2.9023-3.6523-1.1602-1.0469-2.5859-1.4727-3.8242-2.4023-0.48828-0.36719-1.2148 0.37109-0.75 0.80469 1.9609 2.4414 3.4336 5.2344 4.3359 8.2344 0.96875 2.4297 1.3516 6.2305 4.0977 7.1992h0.003906c0.69141 0.24219 1.457-0.10547 1.7266-0.78906 0.45703-1.3398 0.30469-2.8125-0.41406-4.0312z"/>
  <path d="m563.64 439.22c-1.9922 0.59766-4.1094 0.65625-6.1328 0.16797-2.0078-0.19141-4.0312-0.17969-6.0352 0.042969-1.9883 0.23047-3.957 0.625-5.8828 1.1914-2.0195 0.8125-4.1875 1.2031-6.3672 1.1562-0.33984-0.027344-0.65625 0.17578-0.77734 0.49609-0.12109 0.32031-0.011719 0.67969 0.26172 0.88281 1.4922 1.0625 3.3203 1.5508 5.1406 1.375 2.4219-0.17578 4.8438-0.6875 7.2695-0.91406 4.5352-0.10547 9.0039-1.1445 13.121-3.0586 0.35547-0.17188 0.51172-0.59375 0.35156-0.95703-0.16016-0.35937-0.58203-0.53125-0.94922-0.38281z"/>
  <path d="m259.74 358.41c-0.51953 0.46484-0.85938 1.0938-0.96484 1.7773-0.11328 0.66797-0.027344 1.3516 0.24219 1.9688 0.29297 0.82422 1.5039 0.52734 1.5977-0.25781 0.21875-0.98438 0.35547-1.9883 0.41016-3-0.023438-0.63281-0.85547-0.81641-1.2852-0.48828z"/>
 </g>
</svg>