<?xml version="1.0" encoding="UTF-8"?>
<!-- Uploaded to: SVG Repo, www.svgrepo.com, Generator: SVG Repo Mixer Tools -->
<svg fill="#000000" width="800px" height="800px" version="1.1" viewBox="144 144 512 512" xmlns="http://www.w3.org/2000/svg">
 <g>
  <path d="m414.34 357.48c-2.75 2.5586-5.9688 4.5664-9.4805 5.9102-3.9688 1.1211-8.1016 1.5586-12.215 1.293-8.3555 0.23047-16.434 3.0352-23.133 8.0273-12.555 8.6445-23.395 19.547-31.969 32.152-2.2812 3.3867-4.3594 6.9062-6.2344 10.535-0.97266 1.875-1.8789 3.7695-2.707 5.7109-0.86719 2.043-1.3594 4.207-2.2617 6.2383-0.26953 0.60938 0.69141 0.95703 0.96484 0.35938l0.003907 0.003906c0.92969-1.7188 1.957-3.3828 3.0703-4.9883 0.98828-1.6328 2-3.25 3.0156-4.8633 1.9844-3.1562 4.082-6.2539 6.2852-9.2578h0.003907c4.375-6.0781 9.2188-11.809 14.477-17.141 5.2422-5.2188 10.914-9.9844 16.961-14.246 3.207-2.3672 6.7148-4.3047 10.43-5.7617 3.9258-1.4414 8.0977-1.625 12.078-2.7695 2.2422-0.64453 4.5742-0.94922 6.7852-1.6992 1.9219-0.65234 3.9453-1.2109 5.9102-1.75l-0.003906 0.003906c3.8633-0.85547 7.2773-3.0859 9.6133-6.2773 0.69141-0.98828-0.65234-2.3281-1.5938-1.4805z"/>
  <path d="m474.8 376.26c-2.5938-2.2109-6.5547 0.19531-8.8555 1.6875h-0.003906c-2.9727 2.2266-6.1367 4.1836-9.457 5.8477-3.0625 1.6914-6.7305 1.8867-9.9531 0.52734-3.2266-1.3594-5.6484-4.125-6.5742-7.4961-0.050781-0.28516-0.28516-0.5-0.57422-0.52734-0.28516-0.03125-0.55859 0.13672-0.66797 0.40234-0.92188 3.3438 0.082031 6.9219 2.6094 9.293 1.0508 1.0625 2.293 1.9062 3.668 2.4883-1.4805 1.043-2.6328 2.4805-3.3281 4.1523-0.066406 0.19141-0.011718 0.40625 0.13672 0.54688 0.14844 0.14062 0.36719 0.18359 0.55469 0.10156 1.7734-0.88281 3.4961-1.8594 5.2695-2.7305h0.003906c0.66797-0.28906 1.3164-0.62109 1.9453-0.98828 0.60938 0.042969 1.2227 0.058594 1.832 0.039062-0.79297 0.95703-1.5391 1.9375-2.2344 2.918-3.4023 5.0625-6.2344 10.488-8.4492 16.176-1.8672 4.4492-3.6758 8.9102-5.8047 13.227-0.15625-0.8125-0.30859-1.6328-0.42578-2.4648-0.042969-1.8281-0.375-3.6367-0.97656-5.3594-0.125-0.26953-0.38281-0.45312-0.67969-0.48047-0.29688-0.03125-0.58594 0.097656-0.76172 0.33594-0.89062 1.7656-1.2188 3.7617-0.92969 5.7188 0.10547 2.2305 0.51953 4.4336 1.2266 6.5508l0.12109 0.27344-0.17578 0.30859c-3.2617 5.6016-6.9141 10.969-9.9297 16.711v0.003906c-1.7852 3.1875-3.1602 6.582-4.1016 10.113-0.61328 3.4961-0.8125 7.0508-0.59766 10.598-0.003906 0.62109 0.95312 0.73047 0.96875 0.097656v-0.003906c0.29688-3.1172 1.1328-6.1602 2.4766-8.9883 1.1367-2.8203 2.2773-5.6328 3.6484-8.3516 2.8594-5.6641 6.5391-10.863 9.8008-16.297v0.003906c3.1602-5.3984 5.9141-11.02 8.2461-16.824 2.1641-5.7461 4.7969-11.309 7.875-16.625 2.1953-3.418 4.8203-6.5391 7.8203-9.2852 1.9727-0.85156 3.8398-1.9375 5.5586-3.2305 1.6211-1.2109 2.9727-2.707 4.4648-4.0586l0.003906 0.003906c0.78906-0.75 1.6836-1.3828 2.6523-1.875 1.0234-0.37109 2.0898-0.61719 3.1719-0.72266 0.39844-0.074219 0.71094-0.37891 0.80078-0.76953 0.09375-0.39453-0.054687-0.80469-0.375-1.0469z"/>
  <path d="m415.8 468.87c-1.5117-1.9648-3.1523-3.8242-4.9062-5.5703-1.6953-1.9375-3.2812-3.9648-4.75-6.0781-3.1172-4.2188-6.2969-8.3477-9.1484-12.758-1.4609-2.2617-2.8125-4.5938-4.1562-6.9258-0.67578-1.168-1.3242-2.6133-2.1094-3.8945-0.11719-1.4062-0.078124-2.8242 0.11328-4.2227 0.25-2.8828 0.60547-5.75 1.0156-8.6133 0.19141-1.3242 0.27344-2.6523 0.35938-3.9844 0.054687-0.85156 0.16406-1.7383 0.17969-2.6172 0.73047 0.11719 1.4648 0.19531 2.2031 0.23438 1.0117 3.2539 2.2539 6.4648 3.2891 9.7109 1.3672 4.2852 2.8945 8.5273 4.5273 12.719 1.6016 4.1133 3.3008 8.1914 5.2695 12.141v0.003907c1.8789 4.1133 4.1016 8.0586 6.6445 11.793 0.49219 0.67187 1.7773 0.15625 1.5469-0.69141-1.1484-4.2227-2.9336-8.3047-4.4531-12.402-1.6133-4.3438-3.3242-8.6484-4.9609-12.984-1.582-4.1992-3.0742-8.4297-4.5859-12.656-0.85156-2.7539-2.0547-5.3828-3.5781-7.8281 3.75-0.96875 7.5703-1.6172 11.426-1.9453 1.0586 0.023437 1.5781-1.543 0.44141-1.9102-4.0859-0.88672-8.3242-0.8125-12.375 0.22266-2.2969 0.26172-4.6133 0.29688-6.918 0.10547l-1.9883-0.074219c2.0039-1.125 4.0195-2.2383 6.0273-3.3828 1.2422-0.70703 0.86719-3.0312-0.77344-2.6211h0.003906c-5.7539 1.6836-11.18 4.3438-16.035 7.8555-5.0391 3.4102-9.8555 7.1289-14.43 11.133-9.3203 8.0117-17.93 16.941-27.902 24.168-2.5664 2.3672-5.7852 3.9102-9.2383 4.4219-3.4531 0.51172-6.9805-0.023438-10.125-1.543-0.17969-0.12109-0.42188-0.089844-0.56641 0.066406-0.14844 0.16016-0.16016 0.40234-0.027344 0.57422 3.7461 4.4805 10.141 5.6836 15.262 2.875 5.8047-2.8828 11.141-6.6133 15.836-11.078 1.1328-0.93359 2.2578-1.875 3.375-2.8281 0.14063 1.0117 0.38281 2.0156 0.53906 2.8711h0.003906c0.46875 2.3906 1.0742 4.7539 1.8047 7.0781 1.3828 4.6211 2.9609 9.1719 4.1484 13.855h-0.003906c1.1211 4.4961 1.8516 9.0781 2.1836 13.699 0.25781 2.2461 0.32031 4.5117 0.1875 6.7695-0.21875 2.3828-0.48828 4.8242-0.88672 7.1836-0.16406 0.98047 1.375 1.6133 1.875 0.69922 4-8.875 4.5742-18.918 1.6172-28.195-1.2031-4.9688-2.8047-9.8516-4.4141-14.699-0.77344-2.3281-1.5859-4.6367-2.4922-6.9141h0.003907c-0.50781-1.5977-1.1367-3.1562-1.8789-4.6562 7.6797-6.6445 15.18-13.512 23.375-19.523 2.9648-2.1406 6.0469-4.1172 9.2227-5.9258 0.89062 0.14453 1.8047 0.48437 2.6367 0.70312-0.125 1.0508-0.18359 2.1133-0.17969 3.1719-0.050781 1.2891-0.11328 2.5703-0.074219 3.8555 0.085938 2.957 0.11328 5.9102-0.019531 8.8672v0.003906c0.015625 1.418-0.12891 2.8359-0.42578 4.2266-0.45703 1.418-0.79688 2.8711-1.0156 4.3477-0.31641 2.7578-0.41797 5.5547-0.62891 8.3203-0.42578 5.6562-1.0742 11.309-1.3867 16.969-0.31641 5.7773-0.17188 11.613-0.62891 17.383-0.023437 0.39844 0.27344 0.74609 0.67188 0.78906 0.40234 0.039063 0.76172-0.24609 0.81641-0.64062 0.94141-5.7227 2.3945-11.371 3.2539-17.117 0.83594-5.6016 1.2578-11.289 1.7812-16.93 0.16797-1.8242 0.36719-3.6523 0.51562-5.4844 0.58203 1.3789 1.2109 2.7344 1.8828 4.0625l-0.003907 0.003907c2.2148 4.4375 4.875 8.6406 7.9375 12.543 3.0586 3.8672 7.0078 6.8086 10.309 10.445 1.6172 1.5195 2.3945 3.7305 2.0898 5.9258-0.42969 2.1172-2.1016 3.7891-2.6562 5.875-0.49609 1.8789 1.9141 3.4531 3.1641 1.6719 1.625-1.7617 2.9219-3.8047 3.8281-6.0234 0.54297-2.3438-0.066406-4.8086-1.6445-6.625z"/>
  <path d="m435.55 474.94c-0.65234-0.96875-1.2266-1.9883-1.7227-3.043-0.94531-2.1289-1.6992-4.3359-2.25-6.5977-0.49609-2.0664-1.1445-4.0898-1.9414-6.0586-0.40234-0.9375-0.94531-1.8086-1.6016-2.5859-0.73047-0.74219-1.5742-1.3633-2.5-1.8398-0.28125-0.17969-0.76562 0.11719-0.5625 0.45703 0.35938 0.67578 0.65625 1.3828 0.87891 2.1133l-0.042968 0.019531-0.003907 0.003906c-1.8906 1.168-3.2383 3.0391-3.7461 5.2031-0.11719 0.33984 0.375 0.63672 0.57812 0.30469 1.0703-1.4023 2.4883-2.5039 4.1172-3.1875l0.47656 1.2578c0.77344 2.0977 1.2695 4.293 1.8945 6.4375 0.57812 2.1719 1.4102 4.2656 2.4766 6.2461 0.90234 1.5898 2.3242 4.6172 4.3398 4.8477v-0.003906c0.47266 0.042969 0.88672-0.29688 0.9375-0.76562 0.046875-1.1641-0.70312-1.8867-1.3281-2.8086z"/>
  <path d="m440.23 474.68c-0.59375-6.2852-3.5781-12.223-4.0859-18.566-0.050781-0.63281-0.99219-0.46484-0.96484 0.15234l0.003907-0.003906c-0.49609 6.5586 0.77344 13.129 3.6836 19.027 0.45703 0.69531 1.4297 0.082031 1.3633-0.60938z"/>
  <path d="m488.13 362.5c-0.38672-1.2383-2.1484-0.53125-2.0547 0.60547h-0.003907c-0.023437 7.1602-3.0117 13.992-8.2578 18.863-5.1836 4.8984-9.9414 10.23-14.223 15.934-3.9648 6.1211-5.7266 13.27-9.5664 19.438-4.0977 6.582-9.1758 12.508-13.418 18.992v0.003907c-2.1641 3.1875-3.0664 7.0664-2.5312 10.883 0.22656 2.1289 0.54297 4.25 0.82422 6.3711 0.29297 2.2266 0.95703 4.4141 1.1289 6.6484 0.042968 0.56641 0.91406 0.42578 0.87109-0.13672-0.15625-2.0742 0.15625-4.1758 0.13281-6.2539-0.023438-1.918-0.074219-3.8359-0.11719-5.7539h-0.003906c-0.18359-1.9141-0.14844-3.8477 0.10156-5.7578 0.48047-1.8203 1.3633-3.5117 2.5781-4.9492 4.9062-6.0352 9.5078-12.312 13.777-18.809 3.8242-6.2734 5.7422-13.453 9.8438-19.586 4.3906-5.6094 9.1797-10.895 14.336-15.812 5.707-5.2383 8.2109-13.105 6.582-20.68z"/>
  <path d="m469.11 300.06c-2.3633-0.86719-5.0117-0.43359-6.9727 1.1484-2.5039 1.4336-4.9062 3.0664-7.3438 4.6055l-7.7422 4.8789c-2.3359 1.0508-4.2266 2.8867-5.3477 5.1875-0.78906 2.5156-1.2969 5.1094-1.5195 7.7344-0.38672 2.8164-0.66016 5.6523-0.875 8.4883-0.42578 5.582-0.61719 11.18-0.87109 16.77-0.14453 3.1484-0.32812 6.293-0.57812 9.4375h-0.003906c-0.046875 3.3945-0.41016 6.7812-1.0859 10.109-0.17188 0.62109 0.75391 0.98047 0.94922 0.35156 0.48438-1.5938 1.2734-3.0859 1.832-4.6602 0.53906-1.5664 0.98438-3.1602 1.3438-4.7773 0.71875-3.2148 1.2617-6.4648 1.625-9.7344 0.74609-6.3711 0.94922-12.789 1.5156-19.176l0.003906-0.003906c0.58203 1.9883 1.375 3.9102 2.3672 5.7266 1.2305 2.4141 3.1016 4.4453 5.4102 5.8672 2.1445 1.5508 5.0859 1.3359 6.9844-0.50391 0.64062-0.77734-0.20703-1.7344-1.043-1.6797l0.003907 0.003906c-2.2617 0.46875-4.6133-0.16797-6.3281-1.7148-1.6523-1.668-3.0391-3.5781-4.1172-5.6641-1.1328-2.1211-2.0703-4.3438-2.7969-6.6367 0.23828-1.9414 0.51562-3.875 0.86719-5.8008l0.003906 0.003906c0.035156-1.4688 0.45312-2.9062 1.2188-4.1602 1.2617-1.0898 2.6562-2.0156 4.1445-2.7617l3.1367-1.9883 0.64453-0.054687-0.003906-0.003907c1.2422 0.039063 2.4805 0.19531 3.6914 0.46875 2.0273 0.47656 4.1641 0.10547 5.9102-1.0273 0.16406-0.14063 0.22656-0.35938 0.16797-0.56641-0.0625-0.20312-0.24219-0.35156-0.45312-0.37891-1.9531-0.19531-3.8828-0.5625-5.7734-1.0977l1.8359-1.1641c1.5234-0.96875 3.0625-1.9141 4.5547-2.9336h0.003906c1.3047-1.0039 2.8125-1.7148 4.4219-2.0859 0.5-0.097656 0.875-0.51172 0.92578-1.0195 0.050782-0.50781-0.23828-0.99219-0.70703-1.1875z"/>
  <path d="m485.04 358.62c-1.7773-1.9766-3.7773-3.7383-5.9648-5.25-2.0469-1.875-3.8008-4.0547-5.1992-6.4531-1.7617-2.2891-2.8711-5.0156-3.207-7.8828-0.023437-2.0234 0.16797-4.0391 0.57422-6.0195 1.5938-2.6328 2.9609-5.4023 4.0742-8.2734 0.48047-1.3047 0.88281-2.6367 1.1953-3.9922l0.027344-0.003906c0.51953-0.10547 1.0234-0.28906 1.4961-0.53906 0.46484-0.32031 0.91016-0.67188 1.3281-1.0508 0.50391-0.35938-0.023437-1.0078-0.52734-0.85547-0.60547 0.14062-1.2266 0.19922-1.8516 0.17969 0.53906-2.9492 0.82422-5.957 1.0977-8.918 0.89844-4.7383 0.039063-9.6445-2.418-13.793-0.64844-0.88672-1.9219 0.023437-1.5742 0.96875 1.4062 4.5977 1.6719 9.4688 0.78125 14.195l-0.19531 1.5195c-1.2109-0.16406-2.4414 0.10547-3.4727 0.76172-0.40625 0.27734 0.015625 0.84375 0.42969 0.69922 0.71484-0.23047 1.4961-0.070312 2.0547 0.42969l0.64453 0.46875c-0.20312 1.2461-0.42969 2.4883-0.70703 3.7148h0.003906c-0.92578-0.019532-1.832-0.28125-2.625-0.76172-0.48828-0.47266-1.3203 0.19531-0.82812 0.67578 0.90234 0.87891 1.3672 1.8438 2.5977 2.3594l0.25781 0.09375v0.003906c-0.42188 1.5234-0.94531 3.0156-1.5664 4.4727-1.9688 4.1328-4.207 8.1367-6.6992 11.977-1.1367 1.8438-2.1445 3.7656-3.0234 5.7461-0.95703 2.25-1.3359 4.5703-2.1055 6.8672l0.003907-0.003906c-0.082031 0.24609 0.046875 0.50781 0.28516 0.59766 0.24219 0.089844 0.50781-0.027343 0.60938-0.26172 1.0703-2.3672 2.4141-4.6016 4-6.6562 0.89844-1.3594 1.7773-2.7344 2.6523-4.1094h-0.003906c0.20312 2.8945 1.1641 5.6836 2.7891 8.0898 1.5039 2.7227 3.3711 5.2227 5.5508 7.4414 2.6719 1.8164 5.5 3.3906 8.4531 4.6992 0.32031 0.21875 0.75 0.16797 1.0156-0.11328 0.26172-0.28516 0.28125-0.71484 0.046875-1.0234z"/>
  <path d="m461.09 292.98c-9.2773 0.85938-17.645 5.9414-22.684 13.777-5.2969 9.0977-7.3477 19.727-5.8086 30.141 0.875 6.4844 0.99219 13.043 0.35547 19.555-0.10156 0.59766 0.82422 0.68359 0.93359 0.09375h-0.003907c1.0195-5.1953 1.6211-10.465 1.793-15.758 0.12109-5.2734 0.078125-10.562 0.64453-15.812 0.60547-9.2266 5.1211-17.754 12.414-23.438 3.9492-2.8281 8.3516-4.9609 13.02-6.3086 1.3945-0.44141 0.54297-2.2891-0.66406-2.25z"/>
  <path d="m479.87 289.05c-2.5625-3.3125-6.6953-5.0195-10.852-4.4805-2.0312-1.7227-4.4609-2.9141-7.0664-3.4688-5.1875-0.75-10.457 0.62891-14.609 3.8281-4.1289 2.7383-7.6016 6.3516-10.168 10.59-3.9922-5.168-9.5117-8.9453-15.773-10.805-3.4023-1.1953-6.9062-2.0234-10.391-2.9375-3.6992-0.96875-7.3242-2.2227-10.922-3.5039v-0.003906c-0.20703-0.070313-0.43359 0.023437-0.53516 0.21484-0.10156 0.19141-0.046876 0.42969 0.125 0.55859 5.8711 3.9375 12.391 6.8047 19.262 8.4727 6.3047 1.7305 11.855 5.5 15.789 10.723 0.16016 0.26172 0.39062 0.46875 0.66406 0.60547-0.5625 1.1836-1.043 2.4023-1.4453 3.6484-0.58984 2.4023-1.0156 4.8398-1.2734 7.2969-0.097656 0.5625 0.77344 0.64062 0.87891 0.085938l-0.003907 0.003906c0.58203-2.2031 1.4492-4.3242 2.5781-6.3008 0.95703-1.9805 2.0703-3.8828 3.3242-5.6875 2.4219-3.4648 5.3945-6.5078 8.7969-9.0117 3.4141-2.9492 7.8594-4.4141 12.355-4.0742 3.8711 1.0547 7.3125 3.2891 9.8516 6.3906 0.75391 0.70703 1.8984-0.23438 1.7812-1.1055-0.19141-1.3203-0.70703-2.5703-1.4961-3.6445 4.0391 1.9297 7.0938 5.4609 8.4219 9.7344 2.0273 5.4609 2.8633 11.289 2.457 17.098-0.23828 6.1719-1.2383 12.285-1.582 18.453-0.51562 6.4531 0.023438 12.949 1.5938 19.23 0.27734 1.0312 1.8789 0.83203 1.6758-0.26562v0.003906c-0.63281-11.137 0.19141-22.305 2.4492-33.227 1.7539-9.875-0.35547-20.051-5.8867-28.422z"/>
  <path d="m461 314.93c-1.1836-0.25781-2.3945-0.15234-3.5781-0.47266v-0.003906c-1.0938-0.37109-2.1445-0.84766-3.1484-1.418-0.15625-0.058594-0.33594-0.027344-0.46875 0.078125-0.12891 0.10938-0.19531 0.27734-0.16797 0.44531 0.46875 1.6016 1.6406 2.9062 3.1797 3.5469 1.543 0.64062 3.293 0.55078 4.7617-0.25 0.85938-0.60156 0.25-1.7461-0.57812-1.9258z"/>
  <path d="m466.98 325.02c-1.082 0.085937-2.1133 0.49219-2.9648 1.168l-0.03125-0.003906c-0.48047-0.082032-0.60547 0.625-0.18359 0.79687l0.53125 0.60938 0.48437 0.24609-0.003906-0.003906c0.41406 0.14844 0.86328 0.18359 1.2969 0.10156 0.90234-0.11719 1.6602-0.73047 1.9609-1.5859 0.11328-0.33203 0.046875-0.69531-0.17578-0.96875-0.22266-0.26953-0.56641-0.40625-0.91406-0.35938z"/>
  <path d="m465.82 331.6c-1.0039-0.53516-2.1562-0.70703-3.2734-0.49609-0.8125 0-2.5117 0.22656-3.1211-0.44141-0.17188-0.21094-0.47656-0.24219-0.6875-0.070312-0.20703 0.17188-0.23828 0.47656-0.066406 0.6875 0.80469 1.2227 1.3281 2.3398 2.9141 2.7148h-0.003906c1.5742 0.51562 3.3008 0.097656 4.4648-1.082 0.28906-0.42578 0.19141-1.0078-0.22656-1.3125z"/>
  <path d="m435.38 408.57c-1.2852-0.65625-2.5195 0.47266-3.6172 1.0938h-0.003906c-1.2344 0.625-2.4062 1.3633-3.5078 2.2031-0.19922 0.17188-0.26172 0.45312-0.15234 0.69141 0.10547 0.23828 0.35938 0.37891 0.61719 0.34766 1.375-0.21094 2.7266-0.54297 4.0391-0.99609 1.2461-0.36719 2.8633-0.45703 3.293-1.875 0.19531-0.58984-0.097656-1.2266-0.66797-1.4648z"/>
  <path d="m436.67 402.5c-1.7148-0.86719-4.0547 0.96094-5.4531 1.8984-1.3086 0.875-3.4102 2.3203-3.375 4.0977h-0.003906c-0.023438 0.28906 0.1875 0.54688 0.48047 0.58203 1.5625 0.035156 2.9258-1.3086 4.25-1.9961 0.75-0.40234 1.5312-0.73828 2.3398-1 1.0352-0.32031 1.8633-0.3125 2.4492-1.3516v-0.003907c0.25-0.375 0.31641-0.84375 0.18359-1.2773-0.13281-0.42969-0.45312-0.78125-0.87109-0.94922z"/>
  <path d="m439.43 393.62c-1.4492 0.38281-2.9375 0.38672-4.3789 0.88281l-0.003906-0.003906c-1.5156 0.67969-2.957 1.5078-4.3047 2.4805-0.21094 0.10547-0.30078 0.35547-0.20703 0.57031 0.097656 0.21875 0.34375 0.32031 0.5625 0.23437 1.6758-0.55859 3.4453-0.78125 5.207-0.65625-1.6094 0.77344-3.375 1.1055-4.9492 2.0469-1.5586 0.91406-2.8711 2.1914-3.8203 3.7266-0.26953 0.42578 0.15625 1.0664 0.66406 0.8125 1.4805-0.76172 3.0078-1.4336 4.5664-2.0156 1.6133-0.58984 3.2461-0.5625 4.8633-1 0.76562-0.19141 1.3555-0.80859 1.5-1.5859 0.14844-0.77734-0.17188-1.5703-0.81641-2.0273 0.54688-0.03125 1.0938-0.10156 1.6289-0.21484 2.0898-0.44922 1.5117-3.7852-0.51172-3.25z"/>
  <path d="m464.4 551.2c-3.9766-4.1055-8.3359-7.8164-13.02-11.09-3.8633-4.2734-6.0469-9.8008-6.1484-15.559-0.84766-6.2656-1.1758-12.594-0.98047-18.914 0.22656-6.4297 0.91797-12.828 1.2344-19.254l-0.003906 0.003906c0.44922-7.1406 0.027344-14.305-1.2578-21.34-0.0625-0.3125-0.35937-0.51953-0.67187-0.46875-0.31641 0.046875-0.53125 0.33984-0.49219 0.65234 0.30859 6.7383 0.019531 13.484-0.86719 20.168-0.69531 6.6133-1.5352 13.199-1.8672 19.844v0.003906c-0.29297 6.4414 0.007813 12.898 0.89062 19.285 0.26953 3.1719 0.90234 6.3008 1.8945 9.3281 1.0859 2.418 2.6562 4.5859 4.6133 6.375 4.7969 4.5508 10.09 8.5547 15.781 11.93 0.26953 0.17578 0.62891 0.12891 0.85156-0.10547 0.21875-0.23828 0.23828-0.60156 0.042969-0.85938z"/>
  <path d="m432.17 524.47c-1.0586-6.3906-3.625-12.445-5.1406-18.723v-0.003906c-1.668-6.457-2.4922-13.105-2.457-19.777 0.074219-3.1562 0.47656-6.3086 0.37109-9.4688-0.13281-2.9062-0.99219-5.7305-2.4922-8.2227-0.22266-0.44922-0.76172-0.64844-1.2188-0.44531s-0.67578 0.73438-0.48828 1.1992c0.95703 3.0547 1.2109 6.2852 0.73828 9.4492-0.18359 3.0195-0.49219 6.0195-0.52734 9.0469v-0.003907c-0.070312 5.6562 0.44531 11.305 1.543 16.855-1.0469 1.3555-1.8125 2.9023-2.2539 4.5586-0.75 2.0859-1.3945 4.207-1.9336 6.3594-1.0898 4.1289-1.6289 8.3867-1.6094 12.66-0.023437 0.39062 0.23828 0.73828 0.61719 0.82812 0.37891 0.085938 0.76953-0.11328 0.91797-0.47266 1.5-3.8672 2.6406-7.9766 3.8477-11.949l1.7266-5.7617 0.10547-0.34375c1.3555 4.7539 3.0664 9.418 3.9805 14.273v-0.003906c0.55469 3.082 0.61719 6.2383 0.1875 9.3438l-0.29688 2.0703c-1.4258-0.75391-2.8281-1.5664-4.2031-2.3984l0.003906-0.003906c-1.4922-1.0898-3.168-1.9062-4.9492-2.4062-0.50391-0.09375-0.77344 0.47266-0.63672 0.87891 0.90625 1.9062 2.3359 3.5117 4.1211 4.6367 1.6133 1.207 3.3281 2.2656 5.125 3.168-0.16797 1.3906-0.19141 2.7969-0.078125 4.1914 0.12891 1.3516 1.9141 1.2695 2.4023 0.24219 1.2773-3.2031 2.1367-6.5547 2.5508-9.9766 0.57812-3.2422 0.59375-6.5547 0.046875-9.8008z"/>
  <path d="m466.21 566.69c-1.3867-0.95312-2.832-1.8125-4.332-2.5703-1.4727-0.93359-2.8984-1.918-4.2969-2.9648-2.6641-2.1992-5.5391-4.125-8.5859-5.75-3.5742-1.5352-7.3164-2.6328-11.152-3.2734-3.3281-0.85156-6.3672-2.5898-8.7852-5.0312-0.25-0.16797-0.57422-0.17187-0.83203-0.015624-0.25391 0.16016-0.39453 0.45312-0.35156 0.75391 1.0859 3.2344 3.5391 5.832 6.7109 7.0977 1.7969 1.043 3.7031 1.875 5.6875 2.4883 2.0156 0.58594 4.0469 1.0898 6 1.8633h0.003906c3.3984 1.5195 6.6133 3.4258 9.5703 5.6875 2.6953 2.4609 6.1914 3.8672 9.8398 3.9492 0.48828-0.09375 0.875-0.46484 0.98828-0.94922 0.11328-0.48047-0.066407-0.98828-0.46484-1.2852z"/>
  <path d="m468 557.52c-0.33984-1.4453-0.60547-3.3633-1.9922-4.1562-0.31641-0.20313-0.71875-0.21094-1.0391-0.011719-0.32031 0.19922-0.49609 0.5625-0.44922 0.9375 0.054687 1.3086 1.1016 2.3047 1.5508 3.5117h-0.003907c0.55859 1.5195 0.82813 3.1289 0.78516 4.7422-0.023438 0.36719 0.24609 0.69141 0.61328 0.72656 0.36719 0.035156 0.69531-0.22266 0.74609-0.58984 0.21875-1.7188 0.14453-3.4648-0.21094-5.1602z"/>
  <path d="m340.62 374.63c-0.042969-2.6953-0.27344-5.3789-0.51562-8.0625-0.24609-2.7227-0.48438-5.4883-0.50781-8.2227-0.023437-2.6719 0.32031-5.3281 0.40234-7.9961 0.023438-0.77734-1.0625-1.3555-1.5391-0.57422h0.003906c-2.3555 4.8242-3.2461 10.23-2.5703 15.555 0.14844 2.7344 0.43359 5.4531 0.84766 8.1562 0.15234 0.98828 0.27734 2.0039 0.40234 3.0234v0.003906c0.058594 3.6055-0.070312 7.2109-0.39453 10.805-0.31641 2.7539-1.1055 5.4336-2.3438 7.918-1.2031 2.6406-2.5586 5.207-4.0586 7.6914-0.41406 0.66797 0.45312 1.6445 1.082 1.0078 2.2695-2.0234 4.3164-4.2773 6.1133-6.7305 1.6836-2.6797 2.6914-5.7305 2.9375-8.8906 0.21875-2.5742 0.21875-5.1641-0.003907-7.7422 0.19531-1.9727 0.24609-3.957 0.14453-5.9414z"/>
  <path d="m326.58 406.95c-1.2578 1.625-2.793 3.0078-4.1328 4.5664l0.003906-0.003906c-1.2578 1.4727-2.4336 3.0117-3.5195 4.6133-2.2188 3.1562-3.9922 6.6055-5.2656 10.25-2.9805 7.0547-3.2305 14.961-0.70703 22.188 0.17969 0.375 0.58594 0.58984 0.99609 0.52344 0.41406-0.066407 0.73047-0.39453 0.78516-0.80859 0.58984-3.4883 0.42969-7.0273 0.73437-10.547v0.003906c0.30078-3.582 1.0117-7.1133 2.125-10.531 1.0898-3.3906 2.4805-6.6797 4.1641-9.8242 1.6875-3.3906 3.5703-6.6797 5.6445-9.8477 0.14062-0.22656 0.078125-0.52734-0.14062-0.67969-0.21875-0.15625-0.51953-0.11328-0.6875 0.097657z"/>
  <path d="m368.96 273.98c-0.48828-0.31641-1.1172-0.29297-1.5781 0.054688-1.3047 0.93359-1.1055 2.4844-1.0469 3.9219l0.074219 1.3984c-2.2656 2.6094-5.4883 4.1953-8.9336 4.3906-4.6289 0.14844-9.2344 0.64844-13.785 1.4883-4.1094 1.0156-7.7812 3.3281-10.473 6.5938-2.5586 3.668-4.1133 7.9453-4.5039 12.398-1.6055 10.117-3.7852 20.062-5.9531 30.07l-0.003906 0.003906c-2.4883 9.9688-3.5625 20.238-3.1914 30.512 0.53125 5.5352 1.6445 11.004 3.3164 16.309 1.9922 5.3711 3.1562 11.008 3.4531 16.727-0.046875 0.77344 0.51953 1.4414 1.2891 1.5195 0.76953 0.078125 1.457-0.46875 1.5625-1.2344 0.57812-4.9453 0.23047-9.9531-1.0273-14.773-1.5-4.8945-2.75-9.8633-3.7383-14.883-1.2305-10.242-0.61719-20.617 1.8164-30.637 2.0898-10.367 4.8711-20.551 6.3477-31.039 0.29297-4.3047 1.4727-8.5 3.4609-12.324 2.6445-3.5273 6.6562-5.7773 11.047-6.1992 5.3867-0.011719 10.742-0.79688 15.906-2.3281 1.4219-0.71094 2.6719-1.7305 3.6484-2.9805 0.089844 1.6484 0.097657 3.2969 0.089844 4.9492v-0.003906c0.03125 1.2266 0.29688 2.4375 0.78516 3.5625 0.20312 0.57031 1.1328 0.28906 1.0156-0.30078v0.003906c0.035156-1.4727 0.30859-2.9258 0.80469-4.3125 0.28906-1.4922 0.52734-2.9922 0.72266-4.5 0.28125-2.2031 1.2539-7.0977-1.1055-8.3867z"/>
  <path d="m428.55 361.41c-4.0508 1.543-8.6172-0.20703-10.598-4.0625-1.1016-2.5156-1.4375-5.2969-0.96875-8.0039 0.29297-2.8164 1.0117-5.5742 2.1406-8.1758 2.8242-5.168 5.1562-10.59 6.9688-16.195 1.3516-5.0547 1.5625-10.352 0.61328-15.5-0.96094-5.7969-3.7969-11.121-8.0781-15.148-0.29688-0.25781-0.6875 0.14062-0.5625 0.46094 0.65625 1.6328 1.2852 3.2539 1.8711 4.8789-0.76953-0.41406-1.5781-0.75-2.2969-1.0742v-0.003906c-2.2188-0.94141-4.3867-2.0039-6.4961-3.1836-4.1914-2.1875-8.043-4.9805-11.43-8.2891-0.23828-0.26953-0.64844-0.30078-0.92969-0.074219-0.28125 0.23047-0.32812 0.64062-0.11328 0.92969 2.6523 3.9492 5.9727 7.4102 9.8125 10.219 1.9688 1.2773 4.0391 2.3984 6.1914 3.3438 2.0664 1.293 4.3516 2.1992 6.7461 2.668 0.67188 2.2812 1.1836 4.6016 1.5352 6.9492 0.92188 5.6992 0.51562 11.531-1.1875 17.047-0.29688 0.86719-0.63672 1.7188-1.0039 2.5586-0.71875-1.1758-1.5078-2.3086-2.3594-3.3906-0.78125-1.2266-1.7617-2.3125-2.8984-3.2188-1.0977-0.85156-2.4688-1.2734-3.8555-1.1914 0.19922-0.84375 0.45312-1.6758 0.76953-2.4883 0.40625-1.5664 1.1094-3.043 2.0625-4.3555 0.31641-0.25781 0.36328-0.72266 0.10547-1.0391-0.25781-0.31641-0.72266-0.36328-1.0391-0.10547-0.74219 0.50391-1.6016 0.67578-2.3242 1.25-0.65234 0.52734-1.2305 1.1406-1.7109 1.8281-0.92969 1.3867-1.6094 2.9297-2.0039 4.5508-0.69922 3.9219-1.1562 7.8789-1.3672 11.855-0.50781 3.8984-1.6133 7.6797-2.3555 11.539l0.003907-0.003907c-0.40625 2.0078-0.69141 4.0391-0.84766 6.082-0.30859 1.8594-0.0625 3.7695 0.71094 5.4883 0.18359 0.37891 0.57031 0.61328 0.98828 0.60156 0.41797-0.011718 0.78906-0.27344 0.94531-0.66016 0.53125-1.6445 0.82422-3.3555 0.87109-5.082 0.26953-1.8672 0.64844-3.7227 1.1328-5.5469 0.91016-3.5742 1.9062-7.1406 2.5273-10.781 0.58203-3.418 0.5625-6.8945 1.0273-10.32h-0.003907c1.2734 0.55859 2.3867 1.418 3.25 2.5078 1.2539 1.5625 2.1289 3.7812 3.9297 4.7969 0.38672 0.21094 0.83203 0.28125 1.2656 0.20312-0.62109 1.2578-1.2734 2.5-1.9062 3.7461h-0.003906c-1.5977 2.7812-2.9922 5.6719-4.1719 8.6562-2.1172 5.4492-1.3008 11.605 2.1641 16.312 1.6289 2.2266 4.0859 3.7031 6.8164 4.0938 2.7305 0.39453 5.5039-0.33594 7.6914-2.0156 0.58203-0.50781 0.71484-1.3594 0.30859-2.0195-0.40234-0.65625-1.2227-0.92578-1.9375-0.63672z"/>
  <path d="m354.6 345.14c-1.9219-10.742-5.7812-21.047-11.387-30.41-0.51563-0.79688-1.6133 0.039063-1.3398 0.82422 1.25 3.5781 2.2852 7.2227 3.2539 10.883-0.58594 0.97656-1.0977 1.9961-1.5312 3.0469-0.82031 1.8008-1.6641 3.5938-2.457 5.4062-0.74609 1.707-1.4375 3.4453-2.125 5.1797v-0.003907c-0.91406 1.6289-1.4336 3.4531-1.5039 5.3203 0.10938 0.64453 0.55078 1.1875 1.168 1.4219 0.61328 0.23438 1.3047 0.125 1.8164-0.28516 1.1445-1.3516 1.9531-2.9531 2.3594-4.6758 0.69922-1.8438 1.4062-3.6914 2.0391-5.5586 0.53906-1.5898 1.0391-3.1953 1.5547-4.793 1.2773 4.8711 2.7383 9.7266 3.7305 14.66 0.86719 5.3086 0.9375 10.719 0.20312 16.047l-0.25 2.5078h-0.003906c-1.5273-1.5391-3.5586-2.4766-5.7227-2.6367-1.1875-0.18359-1.3008 1.5742-0.18359 1.8203 3.2852 0.72266 4.5039 4.3242 5.2695 7.168v-0.003906c-0.47656 2.6484-0.55078 5.3555-0.22656 8.0234 0.11719 0.63672 0.64062 1.1172 1.2852 1.1797 0.64062 0.066406 1.25-0.30078 1.4922-0.90234 0.90234-2.8164 1.3906-5.7461 1.4531-8.7031l0.91016-9.0703c0.27734-2.7773 0.84375-5.5664 0.93359-8.3594v0.003906c0.074218-2.7148-0.17188-5.4336-0.73828-8.0898z"/>
  <path d="m357.19 496.73c0.023438-0.33984-0.17578-0.65234-0.49219-0.76953-0.32031-0.12109-0.67578-0.015626-0.87891 0.25781-2.4336 4.2188-4.043 8.8672-4.7422 13.688-0.84375 4.7461-1.0898 9.5781-0.73438 14.383 1.1953 9.1367 0.84766 18.41-1.0195 27.434-0.14453 0.44141 0.050782 0.92578 0.46484 1.1406 0.41016 0.21875 0.91797 0.10938 1.2031-0.26172 4.4258-8.0273 5.7461-17.398 3.7188-26.336-0.36719-4.9023-0.35938-9.8242 0.03125-14.723 0.41016-5.0391 1.7891-9.832 2.4492-14.812z"/>
  <path d="m370.79 569.91c-0.51953-0.88281-2.043-1.4219-2.6719-0.26562-0.66016 1.2031-5.0898-0.32031-6.1797-0.64844l-0.003906-0.003907c-2.1562-0.66406-4.2461-1.5234-6.2461-2.5742-2.0273-0.75-3.6445-2.3164-4.4648-4.3164-0.42578-2.1562-0.49609-4.3711-0.20312-6.5547 0.015625-0.26172-0.16016-0.5-0.41797-0.55859-0.26172-0.0625-0.52344 0.074219-0.62891 0.31641-1.1406 2.6562-1.5117 5.5781-1.0742 8.4336 0.86328 3.1133 3.1914 5.6094 6.2344 6.6836 3.0586 1.5039 6.3047 2.5977 9.6484 3.2539 1.5352 0.51562 3.1953 0.50391 4.7227-0.03125 0.6875-0.30469 1.2148-0.87891 1.457-1.5859 0.24609-0.71094 0.17969-1.4883-0.17188-2.1484z"/>
  <path d="m383.05 484.8c-2.5234 6.5-4.4609 13.234-6.3711 19.941-1.8828 6.6055-3.7109 13.227-5.4883 19.859l0.003906 0.003906c-2.0898 6.1562-3.5039 12.52-4.2109 18.98 0.10938 6.6484 0.78125 13.27 2.0078 19.801 0.10547 0.86719 1.4023 0.64453 1.3281-0.21094-1.2266-13.16 0.30859-26.434 4.5078-38.969 4.6797-12.621 8.6797-25.484 11.977-38.531 0.49609-2.1992-2.9766-2.8672-3.7539-0.875z"/>
  <path d="m409.8 491.91c0.12891-2.5234 0.60156-5 0.71875-7.5195 0.023437-0.35156-0.1875-0.67969-0.51953-0.80469-0.33203-0.125-0.70703-0.015625-0.91797 0.26562-2.7148 4.207-3.9961 9.1797-3.6484 14.172 0.17969 5.3047 0.074219 10.613-0.31641 15.906-0.84766 5.1719-2.6445 10.145-5.2969 14.668-2.8164 4.0547-3.0742 9.3594-0.66016 13.664 1.3438 1.7578 4.4609-0.066406 3.375-2.0742-2.4844-4.5977 0.63672-8.5508 2.8281-12.566 2.3672-4.375 3.832-9.1836 4.3047-14.137 0.29688-4.8047 0.32812-9.625 0.082031-14.434-0.03125-2.3711-0.070312-4.7695 0.050782-7.1406z"/>
  <path d="m424.75 544.38c-1.4023-1.3398-3.543-1.2539-5.3125-1.9258-1.8906-0.89453-3.8594-1.6094-5.8828-2.1367-1.6484-0.35156-3.3555-0.33984-4.9961 0.035157-1.4258 0.43359-2.6758 1.3125-3.5664 2.5078-0.46875 0.50391 0.40234 1.3281 0.89453 0.83594 2.4883-2.4883 6.793 0.58203 9.0391 1.7891 2.4023 1.2891 7.8828 4.1406 9.8906 0.84766l0.003906-0.003907c0.40625-0.59375 0.37891-1.3828-0.070312-1.9492z"/>
  <path d="m431.57 371.93c-2.6211 3.3672-5.418 6.5977-8.375 9.6719-1.4336 1.4453-3.1367 2.5312-4.5469 4.0117v0.003907c-0.69922 0.69922-1.3242 1.4727-1.8711 2.2969-0.26172 0.34766-0.48047 0.72266-0.65234 1.125-0.15625 0.51563 0.039063 0.98828-0.36719 1.4609-0.42969 0.50391 0.32812 1.1172 0.8125 0.75781 0.32031-0.23437 1.1797-0.15234 1.5977-0.29687h0.003906c0.35156-0.15234 0.69141-0.33203 1.0156-0.54297 0.92188-0.56641 1.7617-1.2539 2.5039-2.043 1.3633-1.6055 2.6406-3.2812 3.8203-5.0273 2.6758-3.3359 5.1328-6.8438 7.3555-10.5 0.24609-0.35938 0.15625-0.84766-0.19531-1.0977-0.35547-0.25-0.84375-0.17188-1.1016 0.17969z"/>
  <path d="m394.78 283.04c-0.97656 1.3945-2.5195 2.2773-4.2148 2.4102-2.0312-0.22266-3.9922-0.85938-5.7656-1.8711-4.125-1.793-7.9922-4.1406-11.484-6.9766-0.45703-0.41016-1.0898 0.32031-0.72266 0.77344 1.8398 2.2422 3.8633 4.3281 6.0508 6.2305 2.0312 2.0469 4.4062 3.7266 7.0117 4.9609 3.8164 1.5 10.453-0.089843 11.035-4.8125 0.035156-0.47266-0.24219-0.91016-0.6875-1.0781-0.44141-0.16406-0.94141-0.015626-1.2227 0.36328z"/>
  <path d="m405.34 257.61c0.55469-3.6367 0.68359-7.3242 0.38672-10.988-0.83203-3.9219-2.8477-7.5-5.7695-10.246-0.9375-0.78906-2.3008 0.23828-2.1445 1.332 1.0391 3.4297 2.6719 6.6523 4.8203 9.5273 1.3203 3.4414 1.5 7.2148 0.51562 10.77-0.27734 1.2383-0.71875 2.4219-1.1094 3.6289h0.003906c-1.2188-0.003907-2.4297 0.21875-3.5664 0.64453-0.73047 0.26172-1.8047 0.71484-1.9727 1.5508l-0.19531 0.12109c-0.39453 0.24609-0.019531 0.73828 0.32422 0.72656l0.10938-0.003907c0.50391 0.53516 1.4766 0.5 2.1484 0.50391 0.74609 0.007812 1.4883 0.019531 2.2266 0.015624l-0.71875 3.125v0.003907c-0.72656 3.6172-1.7539 7.168-3.0742 10.613-0.22656 0.53906 0.61328 1.0039 0.92188 0.48438h-0.003906c2.1094-3.2344 3.9102-6.6562 5.3789-10.227 0.66406-1.7695 1.168-3.5977 1.5039-5.457 0.21875-2.0352 0.28906-4.082 0.21484-6.125z"/>
  <path d="m393.62 231.77c-3.8906-3.2227-8.6875-5.1562-13.723-5.5273-5.2344-1.043-10.664 0.15234-14.973 3.3047-3.6641 2.9336-6.3516 6.9062-7.7109 11.398-0.63672 2.4492-0.89844 4.9805-0.78125 7.5117-0.027344 2.4727 0.085938 4.9492 0.33594 7.4141 0.17969 5.7852 3.0352 11.16 7.7344 14.547 0.41016 0.26953 0.95313 0.24219 1.3359-0.070312 0.37891-0.3125 0.51562-0.83984 0.33203-1.2969-2.3516-4.9688-4.3516-10.098-5.9883-15.348-0.48047-2.6797-0.29688-5.4375 0.53516-8.0273 0.65234-2.4258 1.5547-4.7734 2.6953-7.0117 2.2852-4.5117 6.6914-7.5703 11.719-8.125 6.0312-0.66406 12.133 0.074219 17.828 2.1562 0.51172 0.19922 1.0938-0.50781 0.66016-0.92578z"/>
  <path d="m373.76 257.79c-0.70312-1.3438-2.1367-2.1406-3.6445-2.0273-1.8672 0.16406-3.4961 1.3281-4.2539 3.043-1.293 4.1641-0.11719 8.6992 3.0352 11.707 0.32031 0.44531 0.89844 0.63281 1.4141 0.45312 0.51953-0.17969 0.85938-0.68359 0.83594-1.2305-0.26953-2.5938-1.7227-5.0352-1.7969-7.6133-0.082031-1.0078 0.29297-2 1.0273-2.6992 0.58594-0.52734 1.8359-1.1641 2.6172-0.74219v-0.003906c0.24609 0.10937 0.53516 0.046874 0.71094-0.16016 0.17578-0.20312 0.19922-0.5 0.054687-0.72656z"/>
  <path d="m389.64 294.38c-0.51562 2.3945-1.7773 4.5664-3.6016 6.2031-1.5469 1.3594-4.1055 1.5703-5.3359 3.1992-0.18359 0.26562-0.23438 0.60156-0.13672 0.91016 0.09375 0.30469 0.32422 0.55469 0.625 0.67188 2.4531 1.0547 5.1953-1.7734 6.6406-3.4375 1.8203-2.0547 2.8516-4.6914 2.9102-7.4375 0.003906-0.28906-0.21484-0.53516-0.5-0.5625-0.28906-0.027344-0.55078 0.16797-0.60156 0.45312z"/>
  <path d="m384.01 345.06c-0.43359 1.8828-0.875 3.7578-1.2852 5.6484v-0.003907c-0.60937 1.7109-0.88281 3.5234-0.80469 5.3359 0.16406 0.85156 1.5117 1.375 2 0.46875 0.65625-1.6758 0.97266-3.4688 0.92969-5.2695 0.19141-2.0156 0.35156-4.0273 0.51953-6.0469h-0.003906c0.027343-0.36719-0.24219-0.69141-0.61328-0.72656-0.36719-0.039062-0.69922 0.22656-0.74219 0.59375z"/>
  <path d="m400.6 248.3c-2.5859-0.15234-5.1406 0.34766-7.75 0.0625-2.6172-0.61328-5.1562-1.5078-7.582-2.6641-2.2266-0.875-4.7461-0.50781-6.6289 0.96094-1.7812 1.5703-1.9883 4.2031-2.8516 6.2773-0.23828 0.56641 0.61719 0.85547 0.87891 0.32812 1.0312-2.0625 2.8555-3.6211 5.0547-4.3125 2.2656-0.61719 4.6836 1.4102 6.6914 2.1875 4.1211 1.9883 9 1.543 12.695-1.1602 0.28125-0.24609 0.39453-0.64062 0.28516-1-0.10938-0.36328-0.41797-0.62891-0.79297-0.67969z"/>
  <path d="m388.92 263.38c-0.20312-0.47266-0.65234-0.79687-1.1641-0.84375-0.82812-0.10937-1.6719-0.09375-2.4961 0.046876-0.79297 0.15234-1.625 0.58203-2.418 0.66406-0.55078 0.054688-0.4375 0.79297 0.027344 0.89453 0.72266 0.15625 1.4297 0.66406 2.1484 0.88672h-0.003906c0.79688 0.24219 1.625 0.36328 2.4531 0.35547 0.64453 0.039062 1.2383-0.33203 1.4844-0.92578 0.13672-0.34766 0.125-0.73438-0.03125-1.0781z"/>
  <path d="m395.55 276.99c-0.18359-0.41797-0.57812-0.70312-1.0312-0.75-0.73047-0.0625-1.4648-0.011719-2.1758 0.15625-0.69531 0.30078-1.418 0.51562-2.1641 0.64453-0.53516 0.035157-0.5 0.89453 0.027344 0.92969 0.66016 0.09375 1.3008 0.28125 1.9062 0.55859 0.58594 0.18359 1.1953 0.26562 1.8086 0.25 0.55859 0.089844 1.1289-0.11719 1.5039-0.54297 0.28906-0.35547 0.33594-0.84375 0.125-1.2461z"/>
 </g>
</svg>